<?xml version="1.0" encoding="UTF-8" standalone="no"?>
<svg xmlns:xlink="http://www.w3.org/1999/xlink" height="2155.0px" width="1898.3px" xmlns="http://www.w3.org/2000/svg">
  <g transform="matrix(1.0, 0.0, 0.0, 1.0, 0.0, 0.0)">
    <use height="2155.0" transform="matrix(0.2603, 0.0, 0.0, 0.2603, 1407.65, 1217.4)" width="1881.3" xlink:href="#sprite0"/>
  </g>
  <defs>
    <g id="sprite0" transform="matrix(1.0, 0.0, 0.0, 1.0, 0.0, 0.0)">
      <use height="2155.0" transform="matrix(1.0, 0.0, 0.0, 1.0, 0.0, 0.0)" width="1881.3" xlink:href="#shape0"/>
    </g>
    <g id="shape0" transform="matrix(1.0, 0.0, 0.0, 1.0, 0.0, 0.0)">
      <path d="M1177.4 1231.0 L1184.15 1876.65 727.25 2018.75 730.2 949.65 1177.4 1231.0" fill="#002a3e" fill-rule="evenodd" stroke="none"/>
      <path d="M637.55 1529.55 L616.25 2053.0 381.9 2130.2 381.9 1512.7 637.55 1529.55" fill="#003a54" fill-rule="evenodd" stroke="none"/>
      <path d="M417.35 1580.35 L546.7 1570.65 546.7 2076.7 417.35 2117.85 417.35 1580.35" fill="#001927" fill-rule="evenodd" stroke="none"/>
      <path d="M546.7 1570.65 L602.15 1566.5 586.75 2063.95 546.7 2076.7 546.7 1570.65" fill="#00263e" fill-rule="evenodd" stroke="none"/>
      <path d="M894.75 1181.5 L873.45 1384.75 726.9 1361.65 726.9 1090.75 894.75 1181.5" fill="#002f45" fill-rule="evenodd" stroke="none"/>
      <path d="M867.05 1195.35 L851.65 1369.35 750.0 1346.25 750.0 1127.6 867.05 1195.35" fill="#00202f" fill-rule="evenodd" stroke="none"/>
      <path d="M619.1 1049.0 L589.85 1340.1 388.65 1317.0 388.65 924.4 619.1 1049.0" fill="#003a54" fill-rule="evenodd" stroke="none"/>
      <path d="M420.35 975.0 L581.05 1068.0 559.9 1318.95 420.35 1295.85 420.35 975.0" fill="#001927" fill-rule="evenodd" stroke="none"/>
      <path d="M825.25 1530.7 L1088.05 1558.6 1091.9 1836.4 834.85 1903.8 825.25 1530.7" fill="#003a54" fill-rule="evenodd" stroke="none"/>
      <path d="M1069.5 1573.35 L1073.35 1821.05 857.95 1876.85 850.25 1556.95 1069.5 1573.35" fill="#001927" fill-rule="evenodd" stroke="none"/>
      <path d="M286.15 289.1 L249.8 644.65 0.0 500.25 0.0 0.0 286.15 289.1" fill="#003a54" fill-rule="evenodd" stroke="none"/>
      <path d="M39.35 81.9 L238.9 291.25 212.65 600.8 39.35 491.75 39.35 81.9" fill="#001927" fill-rule="evenodd" stroke="none"/>
      <path d="M0.55 1268.85 L0.55 721.1 296.55 881.1 258.95 1298.5 0.55 1268.85" fill="#003a54" fill-rule="evenodd" stroke="none"/>
      <path d="M220.5 1271.35 L41.25 1241.7 41.25 786.1 247.65 905.55 220.5 1271.35" fill="#001927" fill-rule="evenodd" stroke="none"/>
      <path d="M1165.55 1883.1 L1165.55 1558.9 1299.8 1567.75 1288.6 1842.55 1165.55 1883.1" fill="#003a54" fill-rule="evenodd" stroke="none"/>
      <path d="M1184.15 1594.45 L1252.1 1589.35 1252.1 1855.0 1184.15 1876.65 1184.15 1594.45" fill="#001927" fill-rule="evenodd" stroke="none"/>
      <path d="M1252.1 1589.35 L1281.2 1587.15 1273.1 1848.35 1252.1 1855.0 1252.1 1589.35" fill="#00263e" fill-rule="evenodd" stroke="none"/>
      <path d="M1417.3 1573.1 L1408.1 1798.95 1307.0 1832.25 1307.0 1565.85 1417.3 1573.1" fill="#003a54" fill-rule="evenodd" stroke="none"/>
      <path d="M1322.3 1595.05 L1378.1 1590.85 1378.1 1809.2 1322.3 1826.95 1322.3 1595.05" fill="#001927" fill-rule="evenodd" stroke="none"/>
      <path d="M1378.1 1590.85 L1402.0 1589.05 1395.35 1803.7 1378.1 1809.2 1378.1 1590.85" fill="#00263e" fill-rule="evenodd" stroke="none"/>
      <path d="M1195.2 1068.1 L1176.45 1244.0 727.25 957.0 727.25 659.4 1195.2 1068.1" fill="#003a54" fill-rule="evenodd" stroke="none"/>
      <path d="M1177.4 1077.0 L1164.25 1221.6 745.05 951.05 748.0 706.8 1177.4 1077.0" fill="#001927" fill-rule="evenodd" stroke="none"/>
      <path d="M833.9 795.65 L851.65 816.35 851.65 1011.85 833.9 988.15 833.9 795.65" fill="#003a54" fill-rule="evenodd" stroke="none"/>
      <path d="M928.65 881.5 L943.45 905.2 943.45 1074.0 928.65 1044.4 928.65 881.5" fill="#003a54" fill-rule="evenodd" stroke="none"/>
      <path d="M1010.6 945.35 L1028.4 960.2 1037.25 1126.05 1010.6 1102.35 1010.6 945.35" fill="#003a54" fill-rule="evenodd" stroke="none"/>
      <path d="M1091.9 1026.65 L1113.9 1038.5 1108.0 1171.75 1091.9 1154.0 1091.9 1026.65" fill="#003a54" fill-rule="evenodd" stroke="none"/>
      <path d="M1401.5 1402.6 L1466.6 1437.75 1458.3 1512.25 1401.5 1507.6 1401.5 1402.6" fill="#003a54" fill-rule="evenodd" stroke="none"/>
      <path d="M1410.45 1416.85 L1455.85 1443.15 1449.85 1506.25 1410.45 1501.65 1410.45 1416.85" fill="#00202f" fill-rule="evenodd" stroke="none"/>
      <path d="M1348.35 1499.25 L1270.4 1490.3 1270.4 1338.1 1359.7 1386.4 1348.35 1499.25" fill="#003a54" fill-rule="evenodd" stroke="none"/>
      <path d="M1344.95 1393.75 L1336.75 1491.05 1282.65 1482.1 1282.65 1357.7 1344.95 1393.75" fill="#001927" fill-rule="evenodd" stroke="none"/>
      <path d="M1119.9 1471.65 L1119.9 1259.3 1234.65 1321.3 1220.1 1483.15 1119.9 1471.65" fill="#002f45" fill-rule="evenodd" stroke="none"/>
      <path d="M1135.7 1284.45 L1215.7 1330.8 1205.2 1472.6 1135.7 1461.1 1135.7 1284.45" fill="#001927" fill-rule="evenodd" stroke="none"/>
      <path d="M332.1 309.25 L339.3 2146.1 312.65 2155.0 317.25 297.4 332.1 309.25" fill="#002f45" fill-rule="evenodd" stroke="none"/>
      <path d="M1460.8 1369.45 L1402.25 1338.8 1402.25 1232.55 1469.3 1293.95 1460.8 1369.45" fill="#003a54" fill-rule="evenodd" stroke="none"/>
      <path d="M1452.05 1360.15 L1411.5 1336.95 1411.5 1249.95 1458.2 1294.4 1452.05 1360.15" fill="#001927" fill-rule="evenodd" stroke="none"/>
      <path d="M1744.65 1554.95 L1746.1 1694.7 1647.2 1725.45 1647.85 1494.05 1744.65 1554.95" fill="#002a3e" fill-rule="evenodd" stroke="none"/>
      <path d="M1623.2 1732.85 L1572.45 1749.55 1572.45 1615.95 1627.8 1619.55 1623.2 1732.85" fill="#003a54" fill-rule="evenodd" stroke="none"/>
      <path d="M1580.15 1630.55 L1608.15 1628.45 1608.15 1738.0 1580.15 1746.9 1580.15 1630.55" fill="#001927" fill-rule="evenodd" stroke="none"/>
      <path d="M1616.8 1735.25 L1608.15 1738.0 1608.15 1628.45 1620.15 1627.55 1616.8 1735.25" fill="#00263e" fill-rule="evenodd" stroke="none"/>
      <path d="M1683.45 1544.25 L1678.85 1588.25 1647.15 1583.25 1647.15 1524.6 1683.45 1544.25" fill="#002f45" fill-rule="evenodd" stroke="none"/>
      <path d="M1652.15 1532.55 L1677.45 1547.25 1674.15 1584.9 1652.15 1579.9 1652.15 1532.55" fill="#00202f" fill-rule="evenodd" stroke="none"/>
      <path d="M1573.9 1573.55 L1573.9 1488.6 1623.8 1515.55 1617.45 1578.55 1573.9 1573.55" fill="#003a54" fill-rule="evenodd" stroke="none"/>
      <path d="M1580.8 1499.55 L1615.55 1519.65 1611.0 1574.0 1580.8 1569.0 1580.8 1499.55" fill="#001927" fill-rule="evenodd" stroke="none"/>
      <path d="M1668.4 1619.8 L1725.3 1625.85 1726.15 1686.0 1670.5 1700.55 1668.4 1619.8" fill="#003a54" fill-rule="evenodd" stroke="none"/>
      <path d="M1722.1 1682.65 L1675.5 1694.75 1673.85 1625.5 1721.3 1629.05 1722.1 1682.65" fill="#001927" fill-rule="evenodd" stroke="none"/>
      <path d="M1551.75 1351.1 L1543.85 1428.05 1489.8 1396.8 1489.8 1288.5 1551.75 1351.1" fill="#003a54" fill-rule="evenodd" stroke="none"/>
      <path d="M1498.3 1306.25 L1541.5 1351.55 1535.8 1418.55 1498.3 1394.95 1498.3 1306.25" fill="#001927" fill-rule="evenodd" stroke="none"/>
      <path d="M1489.9 1563.15 L1489.9 1444.6 1554.0 1479.25 1545.85 1569.55 1489.9 1563.15" fill="#003a54" fill-rule="evenodd" stroke="none"/>
      <path d="M1537.5 1563.7 L1498.75 1557.25 1498.75 1458.65 1543.4 1484.5 1537.5 1563.7" fill="#001927" fill-rule="evenodd" stroke="none"/>
      <path d="M1771.1 1627.85 L1768.7 1687.3 1742.05 1696.1 1742.05 1625.95 1771.1 1627.85" fill="#003a54" fill-rule="evenodd" stroke="none"/>
      <path d="M1746.1 1633.6 L1760.8 1632.5 1760.8 1690.0 1746.1 1694.7 1746.1 1633.6" fill="#001927" fill-rule="evenodd" stroke="none"/>
      <path d="M1760.8 1632.5 L1767.1 1632.05 1765.35 1688.55 1760.8 1690.0 1760.8 1632.5" fill="#00263e" fill-rule="evenodd" stroke="none"/>
      <path d="M1794.55 1677.9 L1772.7 1685.1 1772.7 1627.45 1796.55 1629.0 1794.55 1677.9" fill="#003a54" fill-rule="evenodd" stroke="none"/>
      <path d="M1788.05 1632.85 L1788.05 1680.1 1776.0 1683.95 1776.0 1633.75 1788.05 1632.85" fill="#001927" fill-rule="evenodd" stroke="none"/>
      <path d="M1788.05 1632.85 L1793.25 1632.45 1791.8 1678.9 1788.05 1680.1 1788.05 1632.85" fill="#00263e" fill-rule="evenodd" stroke="none"/>
      <path d="M1748.5 1519.7 L1744.45 1557.75 1647.2 1495.65 1647.2 1431.25 1748.5 1519.7" fill="#003a54" fill-rule="evenodd" stroke="none"/>
      <path d="M1744.65 1521.6 L1741.8 1552.9 1651.05 1494.35 1651.7 1441.5 1744.65 1521.6" fill="#001927" fill-rule="evenodd" stroke="none"/>
      <path d="M1670.3 1460.7 L1674.15 1465.2 1674.15 1507.5 1670.3 1502.4 1670.3 1460.7" fill="#003a54" fill-rule="evenodd" stroke="none"/>
      <path d="M1690.8 1479.3 L1694.0 1484.45 1694.0 1521.0 1690.8 1514.55 1690.8 1479.3" fill="#003a54" fill-rule="evenodd" stroke="none"/>
      <path d="M1708.55 1493.15 L1712.4 1496.35 1714.3 1532.25 1708.55 1527.1 1708.55 1493.15" fill="#003a54" fill-rule="evenodd" stroke="none"/>
      <path d="M1726.15 1510.7 L1730.9 1513.3 1729.6 1542.15 1726.15 1538.3 1726.15 1510.7" fill="#003a54" fill-rule="evenodd" stroke="none"/>
      <path d="M1793.15 1614.8 L1793.15 1592.1 1807.2 1599.7 1805.45 1615.8 1793.15 1614.8" fill="#003a54" fill-rule="evenodd" stroke="none"/>
      <path d="M1795.1 1595.2 L1804.9 1600.85 1803.6 1614.55 1795.1 1613.55 1795.1 1595.2" fill="#00202f" fill-rule="evenodd" stroke="none"/>
      <path d="M1764.75 1611.05 L1764.75 1578.15 1784.1 1588.6 1781.65 1613.0 1764.75 1611.05" fill="#003a54" fill-rule="evenodd" stroke="none"/>
      <path d="M1780.9 1590.2 L1779.15 1611.25 1767.4 1609.3 1767.4 1582.4 1780.9 1590.2" fill="#001927" fill-rule="evenodd" stroke="none"/>
      <path d="M1757.05 1574.5 L1753.85 1609.5 1732.2 1607.05 1732.2 1561.1 1757.05 1574.5" fill="#002f45" fill-rule="evenodd" stroke="none"/>
      <path d="M1735.6 1566.55 L1752.95 1576.55 1750.65 1607.25 1735.6 1604.75 1735.6 1566.55" fill="#001927" fill-rule="evenodd" stroke="none"/>
      <path d="M1561.65 1355.45 L1563.25 1753.0 1557.45 1754.95 1558.45 1352.9 1561.65 1355.45" fill="#002f45" fill-rule="evenodd" stroke="none"/>
      <path d="M1807.8 1568.55 L1805.95 1584.9 1793.3 1578.3 1793.3 1555.3 1807.8 1568.55" fill="#003a54" fill-rule="evenodd" stroke="none"/>
      <path d="M1795.3 1559.05 L1805.4 1568.65 1804.1 1582.9 1795.3 1577.9 1795.3 1559.05" fill="#001927" fill-rule="evenodd" stroke="none"/>
      <path d="M1867.95 1655.15 L1846.55 1661.8 1846.7 1611.75 1867.6 1624.95 1867.95 1655.15" fill="#002a3e" fill-rule="evenodd" stroke="none"/>
      <path d="M1830.4 1667.0 L1830.4 1638.1 1842.35 1638.9 1841.35 1663.4 1830.4 1667.0" fill="#003a54" fill-rule="evenodd" stroke="none"/>
      <path d="M1832.05 1641.25 L1838.1 1640.8 1838.1 1664.5 1832.05 1666.4 1832.05 1641.25" fill="#001927" fill-rule="evenodd" stroke="none"/>
      <path d="M1840.7 1640.6 L1840.0 1663.9 1838.1 1664.5 1838.1 1640.8 1840.7 1640.6" fill="#00263e" fill-rule="evenodd" stroke="none"/>
      <path d="M1846.55 1631.05 L1846.55 1618.35 1854.4 1622.6 1853.4 1632.1 1846.55 1631.05" fill="#002f45" fill-rule="evenodd" stroke="none"/>
      <path d="M1847.6 1620.1 L1853.1 1623.25 1852.4 1631.4 1847.6 1630.3 1847.6 1620.1" fill="#00202f" fill-rule="evenodd" stroke="none"/>
      <path d="M1830.7 1628.95 L1830.7 1610.6 1841.5 1616.4 1840.15 1630.05 1830.7 1628.95" fill="#003a54" fill-rule="evenodd" stroke="none"/>
      <path d="M1832.2 1612.95 L1839.7 1617.3 1838.75 1629.05 1832.2 1627.95 1832.2 1612.95" fill="#001927" fill-rule="evenodd" stroke="none"/>
      <path d="M1863.45 1640.25 L1863.6 1653.25 1851.6 1656.4 1851.15 1638.95 1863.45 1640.25" fill="#003a54" fill-rule="evenodd" stroke="none"/>
      <path d="M1852.65 1655.15 L1852.3 1640.2 1862.55 1640.95 1862.75 1652.55 1852.65 1655.15" fill="#001927" fill-rule="evenodd" stroke="none"/>
      <path d="M1825.9 1580.85 L1824.2 1597.5 1812.55 1590.75 1812.55 1567.35 1825.9 1580.85" fill="#003a54" fill-rule="evenodd" stroke="none"/>
      <path d="M1814.35 1571.15 L1823.7 1580.95 1822.5 1595.45 1814.35 1590.35 1814.35 1571.15" fill="#001927" fill-rule="evenodd" stroke="none"/>
      <path d="M1824.65 1628.1 L1812.55 1626.7 1812.55 1601.05 1826.4 1608.55 1824.65 1628.1" fill="#003a54" fill-rule="evenodd" stroke="none"/>
      <path d="M1824.1 1609.7 L1822.85 1626.8 1814.45 1625.45 1814.45 1604.1 1824.1 1609.7" fill="#001927" fill-rule="evenodd" stroke="none"/>
      <path d="M1867.05 1655.45 L1867.05 1640.25 1873.35 1640.7 1872.8 1653.55 1867.05 1655.45" fill="#003a54" fill-rule="evenodd" stroke="none"/>
      <path d="M1867.95 1641.95 L1871.1 1641.7 1871.1 1654.1 1867.95 1655.15 1867.95 1641.95" fill="#001927" fill-rule="evenodd" stroke="none"/>
      <path d="M1872.5 1641.6 L1872.1 1653.8 1871.1 1654.1 1871.1 1641.7 1872.5 1641.6" fill="#00263e" fill-rule="evenodd" stroke="none"/>
      <path d="M1873.7 1653.05 L1873.7 1640.6 1878.85 1640.95 1878.4 1651.5 1873.7 1653.05" fill="#003a54" fill-rule="evenodd" stroke="none"/>
      <path d="M1874.4 1641.95 L1877.0 1641.75 1877.0 1652.0 1874.4 1652.8 1874.4 1641.95" fill="#001927" fill-rule="evenodd" stroke="none"/>
      <path d="M1878.15 1641.7 L1877.8 1651.7 1877.0 1652.0 1877.0 1641.75 1878.15 1641.7" fill="#00263e" fill-rule="evenodd" stroke="none"/>
      <path d="M1868.45 1617.3 L1867.6 1625.55 1846.55 1612.1 1846.55 1598.2 1868.45 1617.3" fill="#003a54" fill-rule="evenodd" stroke="none"/>
      <path d="M1867.6 1617.7 L1867.0 1624.5 1847.4 1611.85 1847.55 1600.4 1867.6 1617.7" fill="#001927" fill-rule="evenodd" stroke="none"/>
      <path d="M1851.55 1604.55 L1852.4 1605.55 1852.4 1614.65 1851.55 1613.55 1851.55 1604.55" fill="#003a54" fill-rule="evenodd" stroke="none"/>
      <path d="M1856.0 1608.6 L1856.65 1609.7 1856.65 1617.6 1856.0 1616.2 1856.0 1608.6" fill="#003a54" fill-rule="evenodd" stroke="none"/>
      <path d="M1859.8 1611.55 L1860.65 1612.25 1861.05 1620.0 1859.8 1618.9 1859.8 1611.55" fill="#003a54" fill-rule="evenodd" stroke="none"/>
      <path d="M1863.6 1615.35 L1864.65 1615.9 1864.35 1622.15 1863.6 1621.3 1863.6 1615.35" fill="#003a54" fill-rule="evenodd" stroke="none"/>
      <path d="M1878.1 1637.85 L1878.1 1632.95 1881.15 1634.6 1880.75 1638.1 1878.1 1637.85" fill="#003a54" fill-rule="evenodd" stroke="none"/>
      <path d="M1878.55 1633.6 L1880.65 1634.85 1880.35 1637.8 1878.55 1637.6 1878.55 1633.6" fill="#00202f" fill-rule="evenodd" stroke="none"/>
      <path d="M1876.15 1632.2 L1875.6 1637.5 1871.95 1637.05 1871.95 1629.95 1876.15 1632.2" fill="#003a54" fill-rule="evenodd" stroke="none"/>
      <path d="M1872.55 1630.85 L1875.45 1632.55 1875.1 1637.1 1872.55 1636.7 1872.55 1630.85" fill="#001927" fill-rule="evenodd" stroke="none"/>
      <path d="M1870.3 1629.15 L1869.6 1636.7 1864.95 1636.2 1864.95 1626.25 1870.3 1629.15" fill="#002f45" fill-rule="evenodd" stroke="none"/>
      <path d="M1865.65 1627.45 L1869.4 1629.6 1868.9 1636.25 1865.65 1635.7 1865.65 1627.45" fill="#001927" fill-rule="evenodd" stroke="none"/>
      <path d="M1828.05 1581.8 L1828.4 1667.75 1827.15 1668.15 1827.4 1581.25 1828.05 1581.8" fill="#002f45" fill-rule="evenodd" stroke="none"/>
      <path d="M1878.15 1629.95 L1878.15 1625.0 1881.3 1627.85 1880.9 1631.4 1878.15 1629.95" fill="#003a54" fill-rule="evenodd" stroke="none"/>
      <path d="M1878.55 1625.8 L1880.75 1627.9 1880.45 1630.95 1878.55 1629.9 1878.55 1625.8" fill="#001927" fill-rule="evenodd" stroke="none"/>
    </g>
  </defs>
</svg>
