<?xml version="1.0" encoding="UTF-8" standalone="no"?>
<svg xmlns:xlink="http://www.w3.org/1999/xlink" height="1887.15px" width="1852.65px" xmlns="http://www.w3.org/2000/svg">
  <g transform="matrix(1.0, 0.0, 0.0, 1.0, 13.4, 0.0)">
    <use height="1887.15" transform="matrix(0.5536, 0.0, 0.0, 0.5536, -7.55, 677.6)" width="1839.25" xlink:href="#sprite0"/>
  </g>
  <defs>
    <g id="sprite0" transform="matrix(1.0, 0.0, 0.0, 1.0, 0.0, 0.0)">
      <use height="1887.15" transform="matrix(1.0, 0.0, 0.0, 1.0, 0.0, 0.0)" width="1839.25" xlink:href="#shape0"/>
    </g>
    <g id="shape0" transform="matrix(1.0, 0.0, 0.0, 1.0, 0.0, 0.0)">
      <path d="M181.05 1560.65 L182.7 1403.25 266.05 1349.95 266.75 1575.5 181.05 1560.65" fill="#002a3e" fill-rule="evenodd" stroke="none"/>
      <path d="M287.85 1470.45 L347.2 1461.8 347.2 1590.7 292.8 1580.1 287.85 1470.45" fill="#003a54" fill-rule="evenodd" stroke="none"/>
      <path d="M339.05 1476.65 L339.05 1588.95 309.05 1583.4 309.05 1477.25 339.05 1476.65" fill="#001927" fill-rule="evenodd" stroke="none"/>
      <path d="M309.05 1477.25 L309.05 1583.4 299.7 1581.7 296.1 1477.5 309.05 1477.25" fill="#00263e" fill-rule="evenodd" stroke="none"/>
      <path d="M266.85 1436.85 L232.15 1444.55 227.1 1401.85 266.85 1379.65 266.85 1436.85" fill="#002f45" fill-rule="evenodd" stroke="none"/>
      <path d="M261.4 1434.05 L237.35 1440.85 233.7 1404.3 261.4 1387.85 261.4 1434.05" fill="#00202f" fill-rule="evenodd" stroke="none"/>
      <path d="M292.15 1369.0 L345.65 1339.15 345.65 1421.1 299.0 1429.7 292.15 1369.0" fill="#003a54" fill-rule="evenodd" stroke="none"/>
      <path d="M338.35 1350.2 L338.35 1417.25 306.0 1424.7 301.05 1372.35 338.35 1350.2" fill="#001927" fill-rule="evenodd" stroke="none"/>
      <path d="M154.35 1488.85 L243.6 1474.5 241.35 1553.75 153.4 1543.25 154.35 1488.85" fill="#003a54" fill-rule="evenodd" stroke="none"/>
      <path d="M157.9 1539.55 L156.8 1491.6 237.7 1480.6 235.85 1548.55 157.9 1539.55" fill="#001927" fill-rule="evenodd" stroke="none"/>
      <path d="M102.75 1544.55 L100.5 1496.05 127.6 1492.1 127.6 1549.4 102.75 1544.55" fill="#003a54" fill-rule="evenodd" stroke="none"/>
      <path d="M110.15 1499.0 L123.85 1498.7 123.85 1548.6 110.15 1546.1 110.15 1499.0" fill="#001927" fill-rule="evenodd" stroke="none"/>
      <path d="M110.15 1499.0 L110.15 1546.1 105.9 1545.3 104.25 1499.15 110.15 1499.0" fill="#00263e" fill-rule="evenodd" stroke="none"/>
      <path d="M154.85 1383.05 L266.75 1288.65 266.75 1351.45 Q213.1 1385.95 159.4 1420.4 L154.85 1383.05" fill="#003a54" fill-rule="evenodd" stroke="none"/>
      <path d="M159.15 1384.65 L261.9 1298.95 262.6 1350.5 162.35 1415.35 159.15 1384.65" fill="#001927" fill-rule="evenodd" stroke="none"/>
      <path d="M241.55 1319.0 L241.55 1359.8 237.35 1365.1 237.35 1323.7 241.55 1319.0" fill="#003a54" fill-rule="evenodd" stroke="none"/>
      <path d="M219.0 1338.75 L219.0 1373.35 215.5 1379.9 215.5 1344.0 219.0 1338.75" fill="#003a54" fill-rule="evenodd" stroke="none"/>
      <path d="M199.4 1353.65 L199.4 1387.1 193.0 1392.6 195.15 1357.1 199.4 1353.65" fill="#003a54" fill-rule="evenodd" stroke="none"/>
      <path d="M179.85 1372.35 L179.85 1399.55 175.95 1403.65 174.55 1375.3 179.85 1372.35" fill="#003a54" fill-rule="evenodd" stroke="none"/>
      <path d="M104.4 1481.55 L90.35 1483.75 88.3 1467.85 104.4 1458.9 104.4 1481.55" fill="#003a54" fill-rule="evenodd" stroke="none"/>
      <path d="M102.2 1462.15 L102.2 1480.45 92.45 1482.3 91.0 1468.75 102.2 1462.15" fill="#00202f" fill-rule="evenodd" stroke="none"/>
      <path d="M136.55 1442.4 L136.55 1475.1 117.45 1478.65 114.65 1454.55 136.55 1442.4" fill="#003a54" fill-rule="evenodd" stroke="none"/>
      <path d="M120.3 1476.65 L118.3 1455.85 133.55 1446.85 133.55 1473.6 120.3 1476.65" fill="#001927" fill-rule="evenodd" stroke="none"/>
      <path d="M196.55 1454.2 L193.0 1419.75 220.8 1404.25 220.8 1449.65 196.55 1454.2" fill="#002f45" fill-rule="evenodd" stroke="none"/>
      <path d="M197.6 1421.45 L217.0 1409.95 217.0 1447.75 200.15 1451.65 197.6 1421.45" fill="#001927" fill-rule="evenodd" stroke="none"/>
      <path d="M358.7 1210.05 L362.1 1207.45 363.15 1594.2 357.0 1593.0 358.7 1210.05" fill="#002f45" fill-rule="evenodd" stroke="none"/>
      <path d="M104.2 1445.15 L89.75 1452.95 87.65 1436.8 104.2 1422.2 104.2 1445.15" fill="#003a54" fill-rule="evenodd" stroke="none"/>
      <path d="M90.4 1436.65 L101.9 1426.15 101.9 1444.95 91.9 1450.75 90.4 1436.65" fill="#001927" fill-rule="evenodd" stroke="none"/>
      <path d="M68.85 1467.25 L66.9 1450.75 82.25 1435.95 82.25 1459.35 68.85 1467.25" fill="#003a54" fill-rule="evenodd" stroke="none"/>
      <path d="M69.45 1450.65 L80.15 1439.95 80.15 1459.15 70.85 1465.0 69.45 1450.65" fill="#001927" fill-rule="evenodd" stroke="none"/>
      <path d="M66.35 1478.55 L82.2 1469.7 82.2 1495.35 68.35 1497.95 66.35 1478.55" fill="#003a54" fill-rule="evenodd" stroke="none"/>
      <path d="M80.05 1472.95 L80.05 1494.25 70.4 1496.5 68.95 1479.45 80.05 1472.95" fill="#001927" fill-rule="evenodd" stroke="none"/>
      <path d="M23.45 1527.2 L23.8 1495.0 40.85 1484.1 41.0 1530.2 23.45 1527.2" fill="#002a3e" fill-rule="evenodd" stroke="none"/>
      <path d="M57.45 1533.3 L46.3 1531.15 45.3 1508.75 57.45 1506.95 57.45 1533.3" fill="#003a54" fill-rule="evenodd" stroke="none"/>
      <path d="M55.75 1510.0 L55.75 1532.95 49.65 1531.85 49.65 1510.1 55.75 1510.0" fill="#001927" fill-rule="evenodd" stroke="none"/>
      <path d="M47.0 1510.15 L49.65 1510.1 49.65 1531.85 47.75 1531.5 47.0 1510.15" fill="#00263e" fill-rule="evenodd" stroke="none"/>
      <path d="M33.9 1503.45 L32.85 1494.7 41.0 1490.15 41.0 1501.85 33.9 1503.45" fill="#002f45" fill-rule="evenodd" stroke="none"/>
      <path d="M34.2 1495.2 L39.9 1491.85 39.9 1501.3 34.95 1502.7 34.2 1495.2" fill="#00202f" fill-rule="evenodd" stroke="none"/>
      <path d="M57.15 1498.65 L47.6 1500.4 46.2 1488.0 57.15 1481.85 57.15 1498.65" fill="#003a54" fill-rule="evenodd" stroke="none"/>
      <path d="M48.0 1488.65 L55.65 1484.15 55.65 1497.85 49.0 1499.35 48.0 1488.65" fill="#001927" fill-rule="evenodd" stroke="none"/>
      <path d="M36.25 1509.55 L35.8 1525.75 17.8 1523.6 18.0 1512.5 36.25 1509.55" fill="#003a54" fill-rule="evenodd" stroke="none"/>
      <path d="M34.65 1524.7 L18.7 1522.85 18.5 1513.05 35.05 1510.8 34.65 1524.7" fill="#001927" fill-rule="evenodd" stroke="none"/>
      <path d="M12.5 1524.9 L7.45 1523.9 7.0 1513.95 12.5 1513.15 12.5 1524.9" fill="#003a54" fill-rule="evenodd" stroke="none"/>
      <path d="M11.75 1514.5 L11.75 1524.7 8.95 1524.2 8.95 1514.55 11.75 1514.5" fill="#001927" fill-rule="evenodd" stroke="none"/>
      <path d="M7.75 1514.6 L8.95 1514.55 8.95 1524.2 8.1 1524.05 7.75 1514.6" fill="#00263e" fill-rule="evenodd" stroke="none"/>
      <path d="M18.1 1490.85 L41.0 1471.55 41.0 1484.4 19.0 1498.5 18.1 1490.85" fill="#003a54" fill-rule="evenodd" stroke="none"/>
      <path d="M19.0 1491.2 L40.0 1473.65 40.15 1484.2 19.65 1497.45 19.0 1491.2" fill="#001927" fill-rule="evenodd" stroke="none"/>
      <path d="M35.85 1477.75 L35.85 1486.1 34.95 1487.2 34.95 1478.7 35.85 1477.75" fill="#003a54" fill-rule="evenodd" stroke="none"/>
      <path d="M31.2 1481.8 L31.2 1488.85 30.5 1490.2 30.5 1482.85 31.2 1481.8" fill="#003a54" fill-rule="evenodd" stroke="none"/>
      <path d="M26.35 1485.55 L27.2 1484.85 27.2 1491.7 25.9 1492.8 26.35 1485.55" fill="#003a54" fill-rule="evenodd" stroke="none"/>
      <path d="M23.2 1488.65 L23.2 1494.25 22.4 1495.05 22.1 1489.25 23.2 1488.65" fill="#003a54" fill-rule="evenodd" stroke="none"/>
      <path d="M7.75 1511.0 L4.9 1511.45 4.5 1508.2 7.75 1506.35 7.75 1511.0" fill="#003a54" fill-rule="evenodd" stroke="none"/>
      <path d="M7.3 1507.05 L7.3 1510.8 5.35 1511.15 5.05 1508.4 Q6.2 1507.75 7.3 1507.05" fill="#00202f" fill-rule="evenodd" stroke="none"/>
      <path d="M14.35 1509.7 L10.45 1510.4 9.85 1505.5 14.35 1503.0 14.35 1509.7" fill="#003a54" fill-rule="evenodd" stroke="none"/>
      <path d="M13.75 1503.9 L13.75 1509.35 11.0 1510.0 10.6 1505.75 13.75 1503.9" fill="#001927" fill-rule="evenodd" stroke="none"/>
      <path d="M31.6 1504.5 L26.6 1505.4 25.9 1498.35 31.6 1495.2 31.6 1504.5" fill="#002f45" fill-rule="evenodd" stroke="none"/>
      <path d="M30.8 1496.35 L30.8 1504.1 27.35 1504.9 26.85 1498.7 30.8 1496.35" fill="#001927" fill-rule="evenodd" stroke="none"/>
      <path d="M59.8 1455.45 L60.5 1454.95 60.7 1534.05 59.45 1533.8 59.8 1455.45" fill="#002f45" fill-rule="evenodd" stroke="none"/>
      <path d="M7.75 1503.55 L4.8 1505.15 4.35 1501.85 7.75 1498.85 7.75 1503.55" fill="#003a54" fill-rule="evenodd" stroke="none"/>
      <path d="M7.25 1499.65 L7.25 1503.5 5.2 1504.7 4.9 1501.8 7.25 1499.65" fill="#001927" fill-rule="evenodd" stroke="none"/>
      <path d="M3.25 1506.45 L0.5 1508.1 0.1 1504.7 3.25 1501.7 3.25 1506.45" fill="#003a54" fill-rule="evenodd" stroke="none"/>
      <path d="M2.8 1502.5 L2.8 1506.4 0.9 1507.6 0.6 1504.7 2.8 1502.5" fill="#001927" fill-rule="evenodd" stroke="none"/>
      <path d="M3.25 1513.8 L0.4 1514.35 0.0 1510.4 3.25 1508.6 3.25 1513.8" fill="#003a54" fill-rule="evenodd" stroke="none"/>
      <path d="M2.8 1509.25 L2.8 1513.6 0.85 1514.05 0.55 1510.55 2.8 1509.25" fill="#001927" fill-rule="evenodd" stroke="none"/>
      <path d="M958.85 955.5 L1365.65 695.3 1369.05 1796.0 950.85 1723.4 958.85 955.5" fill="#002a3e" fill-rule="evenodd" stroke="none"/>
      <path d="M1471.85 1283.35 L1761.6 1241.2 1761.6 1870.0 1496.15 1818.35 1471.85 1283.35" fill="#003a54" fill-rule="evenodd" stroke="none"/>
      <path d="M1721.7 1313.6 L1721.7 1861.55 1575.35 1834.55 1575.35 1316.5 1721.7 1313.6" fill="#001927" fill-rule="evenodd" stroke="none"/>
      <path d="M1575.35 1316.5 L1575.35 1834.55 1529.8 1826.15 1512.25 1317.8 1575.35 1316.5" fill="#00263e" fill-rule="evenodd" stroke="none"/>
      <path d="M1369.45 1119.35 L1200.2 1157.0 1175.45 948.55 1369.45 840.35 1369.45 1119.35" fill="#002f45" fill-rule="evenodd" stroke="none"/>
      <path d="M1342.9 880.25 L1342.9 1105.65 1225.5 1139.0 1207.65 960.45 1342.9 880.25" fill="#00202f" fill-rule="evenodd" stroke="none"/>
      <path d="M1754.0 1042.55 L1526.3 1084.45 1492.95 788.4 1754.0 642.65 1754.0 1042.55" fill="#003a54" fill-rule="evenodd" stroke="none"/>
      <path d="M1536.3 804.75 L1718.3 696.65 1718.3 1023.85 1560.35 1060.05 1536.3 804.75" fill="#001927" fill-rule="evenodd" stroke="none"/>
      <path d="M1256.05 1303.2 L1244.9 1689.7 815.85 1638.5 820.4 1373.0 1256.05 1303.2" fill="#003a54" fill-rule="evenodd" stroke="none"/>
      <path d="M1218.2 1664.45 L837.7 1620.4 832.5 1386.45 1227.1 1332.85 1218.2 1664.45" fill="#001927" fill-rule="evenodd" stroke="none"/>
      <path d="M557.7 1408.2 L689.9 1389.0 689.9 1668.55 568.75 1645.0 557.7 1408.2" fill="#003a54" fill-rule="evenodd" stroke="none"/>
      <path d="M671.65 1421.2 L671.65 1664.7 604.8 1652.4 604.8 1422.7 671.65 1421.2" fill="#001927" fill-rule="evenodd" stroke="none"/>
      <path d="M604.8 1422.7 L604.8 1652.4 584.05 1648.55 576.05 1423.35 604.8 1422.7" fill="#00263e" fill-rule="evenodd" stroke="none"/>
      <path d="M1369.05 702.65 L845.05 1039.1 822.9 856.85 1369.05 396.2 1369.05 702.65" fill="#003a54" fill-rule="evenodd" stroke="none"/>
      <path d="M1348.6 697.95 L859.5 1014.55 843.95 864.6 1345.2 446.5 1348.6 697.95" fill="#001927" fill-rule="evenodd" stroke="none"/>
      <path d="M1246.05 544.5 L1246.05 743.4 1225.5 769.35 1225.5 567.25 1246.05 544.5" fill="#003a54" fill-rule="evenodd" stroke="none"/>
      <path d="M1136.05 640.65 L1136.05 809.5 1118.8 841.45 1118.8 666.4 1136.05 640.65" fill="#003a54" fill-rule="evenodd" stroke="none"/>
      <path d="M1040.3 713.45 L1040.3 876.6 1009.1 903.55 1019.5 730.3 1040.3 713.45" fill="#003a54" fill-rule="evenodd" stroke="none"/>
      <path d="M944.9 804.75 L944.9 937.5 925.95 957.45 918.95 819.0 Q931.95 811.9 944.9 804.75" fill="#003a54" fill-rule="evenodd" stroke="none"/>
      <path d="M508.3 1348.3 L498.3 1270.55 576.7 1226.95 576.7 1337.55 508.3 1348.3" fill="#003a54" fill-rule="evenodd" stroke="none"/>
      <path d="M511.3 1275.15 Q538.65 1259.05 565.95 1242.9 L565.95 1332.2 518.5 1341.1 511.3 1275.15" fill="#00202f" fill-rule="evenodd" stroke="none"/>
      <path d="M640.4 1323.3 L626.8 1205.8 733.55 1146.4 733.55 1305.95 640.4 1323.3" fill="#003a54" fill-rule="evenodd" stroke="none"/>
      <path d="M644.5 1212.1 L718.9 1168.15 718.9 1298.6 654.3 1313.5 644.5 1212.1" fill="#001927" fill-rule="evenodd" stroke="none"/>
      <path d="M1009.0 1036.05 L1144.85 960.45 1144.85 1181.95 1026.3 1204.0 1009.0 1036.05" fill="#002f45" fill-rule="evenodd" stroke="none"/>
      <path d="M1126.2 988.2 L1126.2 1172.55 1044.0 1191.5 1031.5 1044.15 1126.2 988.2" fill="#001927" fill-rule="evenodd" stroke="none"/>
      <path d="M1839.25 1887.15 L1809.4 1881.2 1817.5 12.85 1834.1 0.0 1839.25 1887.15" fill="#002f45" fill-rule="evenodd" stroke="none"/>
      <path d="M575.8 1048.0 L575.8 1159.85 Q540.6 1178.9 505.35 1197.9 L495.05 1119.05 575.8 1048.0" fill="#003a54" fill-rule="evenodd" stroke="none"/>
      <path d="M564.7 1158.85 L515.85 1187.25 508.4 1118.5 564.7 1067.2 564.7 1158.85" fill="#001927" fill-rule="evenodd" stroke="none"/>
      <path d="M393.8 1187.15 L468.7 1115.1 468.7 1229.3 403.3 1267.7 393.8 1187.15" fill="#003a54" fill-rule="evenodd" stroke="none"/>
      <path d="M458.45 1134.6 L458.45 1228.2 413.05 1256.85 406.2 1186.65 458.45 1134.6" fill="#001927" fill-rule="evenodd" stroke="none"/>
      <path d="M391.05 1322.8 L468.55 1279.7 468.55 1404.75 400.9 1417.45 391.05 1322.8" fill="#003a54" fill-rule="evenodd" stroke="none"/>
      <path d="M457.9 1295.45 L457.9 1399.5 411.0 1410.35 403.9 1327.3 457.9 1295.45" fill="#001927" fill-rule="evenodd" stroke="none"/>
    </g>
  </defs>
</svg>
