<?xml version="1.0" encoding="UTF-8" standalone="no"?>
<svg xmlns:xlink="http://www.w3.org/1999/xlink" height="368.95px" width="3152.35px" xmlns="http://www.w3.org/2000/svg">
  <g transform="matrix(1.0, 0.0, 0.0, 1.0, -4.0, 11.45)">
    <use height="357.25" transform="matrix(0.895, 0.0, 0.0, 0.895, 127.88, -3.1262)" width="3152.35" xlink:href="#sprite0"/>
  </g>
  <defs>
    <g id="sprite0" transform="matrix(1.0, 0.0, 0.0, 1.0, -4.0, -0.25)">
      <use height="357.25" transform="matrix(1.0, 0.0, 0.0, 1.0, 4.0, 0.25)" width="3152.35" xlink:href="#shape0"/>
    </g>
    <g id="shape0" transform="matrix(1.0, 0.0, 0.0, 1.0, -4.0, -0.25)">
      <path d="M820.95 125.05 L712.35 125.05 805.75 94.85 893.0 94.85 820.95 125.05" fill="#003956" fill-rule="evenodd" stroke="none"/>
      <path d="M897.2 94.85 L984.45 94.85 934.8 125.05 826.2 125.05 897.2 94.85" fill="#00314a" fill-rule="evenodd" stroke="none"/>
      <path d="M1052.15 125.05 L943.55 125.05 991.5 94.85 1078.75 94.85 1052.15 125.05" fill="#00344f" fill-rule="evenodd" stroke="none"/>
      <path d="M1166.0 125.05 L1057.4 125.05 1082.95 94.85 1170.2 94.85 1166.0 125.05" fill="#00344f" fill-rule="evenodd" stroke="none"/>
      <path d="M1283.4 125.05 L1174.8 125.05 1177.2 94.85 1264.45 94.85 1283.4 125.05" fill="#003956" fill-rule="evenodd" stroke="none"/>
      <path d="M1397.25 125.05 L1288.65 125.05 1268.65 94.85 1355.9 94.85 1397.25 125.05" fill="#004262" fill-rule="evenodd" stroke="none"/>
      <path d="M1744.45 125.05 L1635.85 125.05 1547.55 94.85 1634.75 94.85 1744.45 125.05" fill="#004262" fill-rule="evenodd" stroke="none"/>
      <path d="M1726.25 94.85 L1858.3 125.05 1749.7 125.05 1639.0 94.85 1726.25 94.85" fill="#00344f" fill-rule="evenodd" stroke="none"/>
      <path d="M1820.5 94.85 L1975.65 125.05 1867.05 125.05 1733.25 94.85 1820.5 94.85" fill="#004262" fill-rule="evenodd" stroke="none"/>
      <path d="M1450.2 94.85 L1514.6 125.05 1406.0 125.05 1362.95 94.85 1450.2 94.85" fill="#00344f" fill-rule="evenodd" stroke="none"/>
      <path d="M1541.65 94.85 L1628.5 125.05 1519.85 125.05 1454.4 94.85 1541.65 94.85" fill="#00344f" fill-rule="evenodd" stroke="none"/>
      <path d="M728.8 164.8 L592.4 164.8 709.75 126.85 819.35 126.85 728.8 164.8" fill="#00314a" fill-rule="evenodd" stroke="none"/>
      <path d="M871.85 164.8 L735.4 164.8 824.65 126.85 934.2 126.85 871.85 164.8" fill="#004262" fill-rule="evenodd" stroke="none"/>
      <path d="M943.05 126.85 L1052.6 126.85 1019.25 164.8 882.85 164.8 943.05 126.85" fill="#003956" fill-rule="evenodd" stroke="none"/>
      <path d="M1162.25 164.8 L1025.85 164.8 1057.9 126.85 1167.5 126.85 1162.25 164.8" fill="#004262" fill-rule="evenodd" stroke="none"/>
      <path d="M1176.3 126.85 L1285.9 126.85 1309.65 164.8 1173.25 164.8 1176.3 126.85" fill="#00314a" fill-rule="evenodd" stroke="none"/>
      <path d="M1452.7 164.8 L1316.25 164.8 1291.2 126.85 1400.75 126.85 1452.7 164.8" fill="#003956" fill-rule="evenodd" stroke="none"/>
      <path d="M1751.0 126.85 L1888.75 164.8 1752.35 164.8 1641.45 126.85 1751.0 126.85" fill="#00344f" fill-rule="evenodd" stroke="none"/>
      <path d="M1865.9 126.85 L2031.75 164.8 1895.35 164.8 1756.3 126.85 1865.9 126.85" fill="#004262" fill-rule="evenodd" stroke="none"/>
      <path d="M2179.15 164.8 L2042.75 164.8 1874.7 126.85 1984.3 126.85 2179.15 164.8" fill="#003956" fill-rule="evenodd" stroke="none"/>
      <path d="M1600.1 164.8 L1463.7 164.8 1409.6 126.85 1519.15 126.85 1600.1 164.8" fill="#003956" fill-rule="evenodd" stroke="none"/>
      <path d="M1524.45 126.85 L1634.05 126.85 1743.1 164.8 1606.7 164.8 1524.45 126.85" fill="#004262" fill-rule="evenodd" stroke="none"/>
      <path d="M946.1 48.55 L1001.3 48.55 955.7 67.65 887.0 67.65 946.1 48.55" fill="#003956" fill-rule="evenodd" stroke="none"/>
      <path d="M1027.75 67.65 L959.05 67.65 1004.0 48.55 1059.2 48.55 1027.75 67.65" fill="#00314a" fill-rule="evenodd" stroke="none"/>
      <path d="M1102.0 67.65 L1033.3 67.65 1063.65 48.55 1118.85 48.55 1102.0 67.65" fill="#00344f" fill-rule="evenodd" stroke="none"/>
      <path d="M1121.5 48.55 L1176.7 48.55 1174.05 67.65 1105.35 67.65 1121.5 48.55" fill="#00344f" fill-rule="evenodd" stroke="none"/>
      <path d="M1181.15 48.55 L1236.35 48.55 1248.35 67.65 1179.6 67.65 1181.15 48.55" fill="#003956" fill-rule="evenodd" stroke="none"/>
      <path d="M1239.05 48.55 L1294.25 48.55 1320.4 67.65 1251.65 67.65 1239.05 48.55" fill="#004262" fill-rule="evenodd" stroke="none"/>
      <path d="M1540.05 67.65 L1471.35 67.65 1415.5 48.55 1470.7 48.55 1540.05 67.65" fill="#004262" fill-rule="evenodd" stroke="none"/>
      <path d="M1528.55 48.55 L1612.1 67.65 1543.4 67.65 1473.35 48.55 1528.55 48.55" fill="#00344f" fill-rule="evenodd" stroke="none"/>
      <path d="M1588.2 48.55 L1686.4 67.65 1617.65 67.65 1533.0 48.55 1588.2 48.55" fill="#004262" fill-rule="evenodd" stroke="none"/>
      <path d="M1394.65 67.65 L1325.95 67.65 1298.7 48.55 1353.85 48.55 1394.65 67.65" fill="#00344f" fill-rule="evenodd" stroke="none"/>
      <path d="M1411.75 48.55 L1466.7 67.65 1397.95 67.65 1356.55 48.55 1411.75 48.55" fill="#00344f" fill-rule="evenodd" stroke="none"/>
      <path d="M897.4 92.8 L811.1 92.8 885.35 68.8 954.7 68.8 897.4 92.8" fill="#00314a" fill-rule="evenodd" stroke="none"/>
      <path d="M987.9 92.8 L901.6 92.8 958.05 68.8 1027.4 68.8 987.9 92.8" fill="#004262" fill-rule="evenodd" stroke="none"/>
      <path d="M1102.3 68.8 L1081.2 92.8 994.9 92.8 1032.95 68.8 1102.3 68.8" fill="#003956" fill-rule="evenodd" stroke="none"/>
      <path d="M1175.0 68.8 L1171.7 92.8 1085.35 92.8 1105.65 68.8 1175.0 68.8" fill="#004262" fill-rule="evenodd" stroke="none"/>
      <path d="M1264.95 92.8 L1178.65 92.8 1180.6 68.8 1249.9 68.8 1264.95 92.8" fill="#00314a" fill-rule="evenodd" stroke="none"/>
      <path d="M1355.45 92.8 L1269.15 92.8 1253.25 68.8 1322.6 68.8 1355.45 92.8" fill="#003956" fill-rule="evenodd" stroke="none"/>
      <path d="M1544.25 68.8 L1631.4 92.8 1545.05 92.8 1474.9 68.8 1544.25 68.8" fill="#00344f" fill-rule="evenodd" stroke="none"/>
      <path d="M1635.55 92.8 L1547.6 68.8 1616.9 68.8 1721.9 92.8 1635.55 92.8" fill="#004262" fill-rule="evenodd" stroke="none"/>
      <path d="M1728.85 92.8 L1622.5 68.8 1691.85 68.8 1815.15 92.8 1728.85 92.8" fill="#003956" fill-rule="evenodd" stroke="none"/>
      <path d="M1397.5 68.8 L1448.75 92.8 1362.4 92.8 1328.2 68.8 1397.5 68.8" fill="#003956" fill-rule="evenodd" stroke="none"/>
      <path d="M1470.2 68.8 L1539.25 92.8 1452.9 92.8 1400.9 68.8 1470.2 68.8" fill="#004262" fill-rule="evenodd" stroke="none"/>
      <path d="M1036.25 18.8 L1071.2 18.8 1042.35 30.85 998.85 30.85 1036.25 18.8" fill="#003956" fill-rule="evenodd" stroke="none"/>
      <path d="M1087.95 30.85 L1044.45 30.85 1072.9 18.8 1107.85 18.8 1087.95 30.85" fill="#00314a" fill-rule="evenodd" stroke="none"/>
      <path d="M1110.65 18.8 L1145.6 18.8 1134.95 30.85 1091.45 30.85 1110.65 18.8" fill="#00344f" fill-rule="evenodd" stroke="none"/>
      <path d="M1180.55 30.85 L1137.05 30.85 1147.3 18.8 1182.2 18.8 1180.55 30.85" fill="#00344f" fill-rule="evenodd" stroke="none"/>
      <path d="M1185.05 18.8 L1219.95 18.8 1227.55 30.85 1184.05 30.85 1185.05 18.8" fill="#003956" fill-rule="evenodd" stroke="none"/>
      <path d="M1256.6 18.8 L1273.15 30.85 1229.65 30.85 1221.65 18.8 1256.6 18.8" fill="#004262" fill-rule="evenodd" stroke="none"/>
      <path d="M1368.25 18.8 L1412.2 30.85 1368.7 30.85 1333.35 18.8 1368.25 18.8" fill="#004262" fill-rule="evenodd" stroke="none"/>
      <path d="M1457.8 30.85 L1414.3 30.85 1369.95 18.8 1404.9 18.8 1457.8 30.85" fill="#00344f" fill-rule="evenodd" stroke="none"/>
      <path d="M1461.3 30.85 L1407.7 18.8 1442.65 18.8 1504.8 30.85 1461.3 30.85" fill="#004262" fill-rule="evenodd" stroke="none"/>
      <path d="M1294.35 18.8 L1320.15 30.85 1276.65 30.85 1259.4 18.8 1294.35 18.8" fill="#00344f" fill-rule="evenodd" stroke="none"/>
      <path d="M1365.75 30.85 L1322.25 30.85 1296.05 18.8 1330.95 18.8 1365.75 30.85" fill="#00344f" fill-rule="evenodd" stroke="none"/>
      <path d="M1005.45 46.8 L950.85 46.8 997.85 31.6 1041.7 31.6 1005.45 46.8" fill="#00314a" fill-rule="evenodd" stroke="none"/>
      <path d="M1043.85 31.6 L1087.7 31.6 1062.75 46.8 1008.1 46.8 1043.85 31.6" fill="#004262" fill-rule="evenodd" stroke="none"/>
      <path d="M1121.75 46.8 L1067.15 46.8 1091.25 31.6 1135.15 31.6 1121.75 46.8" fill="#003956" fill-rule="evenodd" stroke="none"/>
      <path d="M1137.25 31.6 L1181.15 31.6 1179.05 46.8 1124.4 46.8 1137.25 31.6" fill="#004262" fill-rule="evenodd" stroke="none"/>
      <path d="M1238.05 46.8 L1183.45 46.8 1184.65 31.6 1228.55 31.6 1238.05 46.8" fill="#00314a" fill-rule="evenodd" stroke="none"/>
      <path d="M1295.35 46.8 L1240.7 46.8 1230.65 31.6 1274.55 31.6 1295.35 46.8" fill="#003956" fill-rule="evenodd" stroke="none"/>
      <path d="M1414.8 31.6 L1470.0 46.8 1415.35 46.8 1370.95 31.6 1414.8 31.6" fill="#00344f" fill-rule="evenodd" stroke="none"/>
      <path d="M1472.6 46.8 L1416.95 31.6 1460.8 31.6 1527.25 46.8 1472.6 46.8" fill="#004262" fill-rule="evenodd" stroke="none"/>
      <path d="M1508.25 31.6 L1586.3 46.8 1531.65 46.8 1464.35 31.6 1508.25 31.6" fill="#003956" fill-rule="evenodd" stroke="none"/>
      <path d="M1354.4 46.8 L1299.75 46.8 1278.1 31.6 1321.95 31.6 1354.4 46.8" fill="#003956" fill-rule="evenodd" stroke="none"/>
      <path d="M1367.95 31.6 L1411.65 46.8 1357.0 46.8 1324.1 31.6 1367.95 31.6" fill="#004262" fill-rule="evenodd" stroke="none"/>
      <path d="M1092.5 0.25 L1114.6 0.25 1096.3 7.9 1068.8 7.9 1092.5 0.25" fill="#003956" fill-rule="evenodd" stroke="none"/>
      <path d="M1125.2 7.9 L1097.65 7.9 1115.65 0.25 1137.75 0.25 1125.2 7.9" fill="#00314a" fill-rule="evenodd" stroke="none"/>
      <path d="M1154.9 7.9 L1127.4 7.9 1139.55 0.25 1161.65 0.25 1154.9 7.9" fill="#00344f" fill-rule="evenodd" stroke="none"/>
      <path d="M1183.75 7.9 L1156.25 7.9 1162.7 0.25 1184.8 0.25 1183.75 7.9" fill="#00344f" fill-rule="evenodd" stroke="none"/>
      <path d="M1213.5 7.9 L1186.0 7.9 1186.6 0.25 1208.7 0.25 1213.5 7.9" fill="#003956" fill-rule="evenodd" stroke="none"/>
      <path d="M1209.8 0.25 L1231.9 0.25 1242.35 7.9 1214.85 7.9 1209.8 0.25" fill="#004262" fill-rule="evenodd" stroke="none"/>
      <path d="M1330.35 7.9 L1302.8 7.9 1280.45 0.25 1302.55 0.25 1330.35 7.9" fill="#004262" fill-rule="evenodd" stroke="none"/>
      <path d="M1325.75 0.25 L1359.2 7.9 1331.65 7.9 1303.6 0.25 1325.75 0.25" fill="#00344f" fill-rule="evenodd" stroke="none"/>
      <path d="M1349.6 0.25 L1388.95 7.9 1361.4 7.9 1327.5 0.25 1349.6 0.25" fill="#004262" fill-rule="evenodd" stroke="none"/>
      <path d="M1255.75 0.25 L1272.1 7.9 1244.6 7.9 1233.65 0.25 1255.75 0.25" fill="#00344f" fill-rule="evenodd" stroke="none"/>
      <path d="M1278.95 0.25 L1300.95 7.9 1273.45 7.9 1256.85 0.25 1278.95 0.25" fill="#00344f" fill-rule="evenodd" stroke="none"/>
      <path d="M1073.0 17.95 L1038.4 17.95 1068.15 8.35 1095.9 8.35 1073.0 17.95" fill="#00314a" fill-rule="evenodd" stroke="none"/>
      <path d="M1109.2 17.95 L1074.65 17.95 1097.25 8.35 1125.05 8.35 1109.2 17.95" fill="#004262" fill-rule="evenodd" stroke="none"/>
      <path d="M1127.25 8.35 L1155.05 8.35 1146.55 17.95 1112.0 17.95 1127.25 8.35" fill="#003956" fill-rule="evenodd" stroke="none"/>
      <path d="M1182.8 17.95 L1148.25 17.95 1156.35 8.35 1184.15 8.35 1182.8 17.95" fill="#004262" fill-rule="evenodd" stroke="none"/>
      <path d="M1214.15 8.35 L1220.15 17.95 1185.6 17.95 1186.4 8.35 1214.15 8.35" fill="#00314a" fill-rule="evenodd" stroke="none"/>
      <path d="M1256.4 17.95 L1221.85 17.95 1215.5 8.35 1243.25 8.35 1256.4 17.95" fill="#003956" fill-rule="evenodd" stroke="none"/>
      <path d="M1332.0 8.35 L1366.9 17.95 1332.35 17.95 1304.25 8.35 1332.0 8.35" fill="#00344f" fill-rule="evenodd" stroke="none"/>
      <path d="M1361.1 8.35 L1403.15 17.95 1368.6 17.95 1333.35 8.35 1361.1 8.35" fill="#004262" fill-rule="evenodd" stroke="none"/>
      <path d="M1440.5 17.95 L1405.95 17.95 1363.35 8.35 1391.1 8.35 1440.5 17.95" fill="#003956" fill-rule="evenodd" stroke="none"/>
      <path d="M1293.75 17.95 L1259.2 17.95 1245.5 8.35 1273.25 8.35 1293.75 17.95" fill="#003956" fill-rule="evenodd" stroke="none"/>
      <path d="M1330.0 17.95 L1295.45 17.95 1274.6 8.35 1302.35 8.35 1330.0 17.95" fill="#004262" fill-rule="evenodd" stroke="none"/>
      <path d="M237.15 282.1 L454.8 282.1 275.0 357.5 4.0 357.5 237.15 282.1" fill="#003956" fill-rule="evenodd" stroke="none"/>
      <path d="M465.35 282.1 L683.0 282.1 559.1 357.5 288.1 357.5 465.35 282.1" fill="#00314a" fill-rule="evenodd" stroke="none"/>
      <path d="M851.95 357.5 L580.95 357.5 700.55 282.1 918.25 282.1 851.95 357.5" fill="#00344f" fill-rule="evenodd" stroke="none"/>
      <path d="M928.75 282.1 L1146.45 282.1 1136.05 357.5 865.05 357.5 928.75 282.1" fill="#00344f" fill-rule="evenodd" stroke="none"/>
      <path d="M1428.9 357.5 L1157.9 357.5 1164.0 282.1 1381.7 282.1 1428.9 357.5" fill="#003956" fill-rule="evenodd" stroke="none"/>
      <path d="M1392.2 282.1 L1609.9 282.1 1713.05 357.5 1442.05 357.5 1392.2 282.1" fill="#004262" fill-rule="evenodd" stroke="none"/>
      <path d="M2579.35 357.5 L2308.35 357.5 2088.05 282.1 2305.75 282.1 2579.35 357.5" fill="#004262" fill-rule="evenodd" stroke="none"/>
      <path d="M2533.95 282.1 L2863.5 357.5 2592.5 357.5 2316.25 282.1 2533.95 282.1" fill="#00344f" fill-rule="evenodd" stroke="none"/>
      <path d="M3156.35 357.5 L2885.35 357.5 2551.5 282.1 2769.2 282.1 3156.35 357.5" fill="#003956" fill-rule="evenodd" stroke="none"/>
      <path d="M1627.45 282.1 L1845.1 282.1 2005.9 357.5 1734.9 357.5 1627.45 282.1" fill="#00344f" fill-rule="evenodd" stroke="none"/>
      <path d="M2290.0 357.5 L2019.0 357.5 1855.65 282.1 2073.35 282.1 2290.0 357.5" fill="#00344f" fill-rule="evenodd" stroke="none"/>
      <path d="M587.35 166.55 L725.05 166.55 611.3 214.2 439.8 214.2 587.35 166.55" fill="#003956" fill-rule="evenodd" stroke="none"/>
      <path d="M791.05 214.2 L619.6 214.2 731.75 166.55 869.5 166.55 Q830.3 190.4 791.05 214.2" fill="#00314a" fill-rule="evenodd" stroke="none"/>
      <path d="M880.6 166.55 L1018.3 166.55 976.35 214.2 804.9 214.2 880.6 166.55" fill="#00344f" fill-rule="evenodd" stroke="none"/>
      <path d="M1156.15 214.2 L984.65 214.2 1025.0 166.55 1162.7 166.55 1156.15 214.2" fill="#00344f" fill-rule="evenodd" stroke="none"/>
      <path d="M1341.45 214.2 L1170.0 214.2 1173.85 166.55 1311.55 166.55 1341.45 214.2" fill="#003956" fill-rule="evenodd" stroke="none"/>
      <path d="M1456.0 166.55 L1521.25 214.2 1349.75 214.2 1318.25 166.55 1456.0 166.55" fill="#004262" fill-rule="evenodd" stroke="none"/>
      <path d="M1896.25 166.55 L2069.4 214.2 1897.95 214.2 1758.55 166.55 1896.25 166.55" fill="#004262" fill-rule="evenodd" stroke="none"/>
      <path d="M2249.2 214.2 L2077.7 214.2 1902.95 166.55 2040.7 166.55 2249.2 214.2" fill="#00344f" fill-rule="evenodd" stroke="none"/>
      <path d="M2189.55 166.55 L2434.5 214.2 2263.05 214.2 2051.8 166.55 2189.55 166.55" fill="#004262" fill-rule="evenodd" stroke="none"/>
      <path d="M1604.8 166.55 L1706.55 214.2 1535.05 214.2 1467.1 166.55 1604.8 166.55" fill="#00344f" fill-rule="evenodd" stroke="none"/>
      <path d="M1886.35 214.2 L1714.85 214.2 1611.5 166.55 1749.2 166.55 1886.35 214.2" fill="#00344f" fill-rule="evenodd" stroke="none"/>
      <path d="M465.85 276.95 L250.45 276.95 435.75 217.05 608.75 217.05 465.85 276.95" fill="#00314a" fill-rule="evenodd" stroke="none"/>
      <path d="M691.65 276.95 L476.25 276.95 617.15 217.05 790.15 217.05 691.65 276.95" fill="#004262" fill-rule="evenodd" stroke="none"/>
      <path d="M804.1 217.05 L977.1 217.05 924.4 276.95 709.0 276.95 804.1 217.05" fill="#003956" fill-rule="evenodd" stroke="none"/>
      <path d="M1150.2 276.95 L934.8 276.95 985.45 217.05 1158.45 217.05 1150.2 276.95" fill="#004262" fill-rule="evenodd" stroke="none"/>
      <path d="M1382.95 276.95 L1167.55 276.95 1172.4 217.05 1345.4 217.05 1382.95 276.95" fill="#00314a" fill-rule="evenodd" stroke="none"/>
      <path d="M1608.75 276.95 L1393.35 276.95 1353.8 217.05 1526.8 217.05 1608.75 276.95" fill="#003956" fill-rule="evenodd" stroke="none"/>
      <path d="M2297.3 276.95 L2081.9 276.95 1906.8 217.05 2079.8 217.05 2297.3 276.95" fill="#00344f" fill-rule="evenodd" stroke="none"/>
      <path d="M2307.7 276.95 L2088.2 217.05 2261.2 217.05 2523.1 276.95 2307.7 276.95" fill="#004262" fill-rule="evenodd" stroke="none"/>
      <path d="M2448.15 217.05 L2755.85 276.95 2540.45 276.95 2275.15 217.05 2448.15 217.05" fill="#003956" fill-rule="evenodd" stroke="none"/>
      <path d="M1841.5 276.95 L1626.15 276.95 1540.75 217.05 1713.75 217.05 1841.5 276.95" fill="#003956" fill-rule="evenodd" stroke="none"/>
      <path d="M1895.1 217.05 L2067.3 276.95 1851.95 276.95 1722.1 217.05 1895.1 217.05" fill="#004262" fill-rule="evenodd" stroke="none"/>
    </g>
  </defs>
</svg>
