<?xml version="1.0" encoding="UTF-8" standalone="no"?>
<svg xmlns:xlink="http://www.w3.org/1999/xlink" height="165.2px" width="51.0px" xmlns="http://www.w3.org/2000/svg">
  <g transform="matrix(1.0, 0.0, 0.0, 1.0, 64.7, 108.65)">
    <path d="M-17.5 -105.45 L-17.0 -105.45 -15.35 -91.7 Q-13.7 -74.2 -13.7 -55.45 -13.7 -45.4 -16.75 -34.5 -18.8 -27.35 -23.5 -15.95 -28.75 -3.4 -30.3 1.35 -33.35 10.85 -33.35 18.55 L-33.35 53.55 -38.7 56.55 -40.7 56.55 -45.0 53.55 -45.0 18.55 Q-45.0 10.85 -48.1 1.35 -49.6 -3.4 -54.85 -15.95 -59.6 -27.35 -61.6 -34.5 -64.7 -45.4 -64.7 -55.45 -64.7 -74.2 -63.0 -91.7 L-61.35 -105.45 -61.05 -104.7 -60.8 -104.75 -17.5 -105.15 -17.5 -105.45" fill="url(#gradient0)" fill-rule="evenodd" stroke="none"/>
    <path d="M-61.05 -104.7 L-60.8 -108.25 -17.5 -108.65 -17.5 -105.45 -17.5 -105.15 -60.8 -104.75 -61.05 -104.7" fill="url(#gradient1)" fill-rule="evenodd" stroke="none"/>
  </g>
  <defs>
    <linearGradient gradientTransform="matrix(0.0311, 0.0, 0.0, 0.0989, -39.2, -24.45)" gradientUnits="userSpaceOnUse" id="gradient0" spreadMethod="pad" x1="-819.2" x2="819.2">
      <stop offset="0.0" stop-color="#993300"/>
      <stop offset="0.5215686274509804" stop-color="#ff9900"/>
      <stop offset="0.984313725490196" stop-color="#993300"/>
    </linearGradient>
    <linearGradient gradientTransform="matrix(-0.0264, 2.0E-4, 0.0, -0.0021, -39.1, -106.65)" gradientUnits="userSpaceOnUse" id="gradient1" spreadMethod="pad" x1="-819.2" x2="819.2">
      <stop offset="0.0" stop-color="#993300"/>
      <stop offset="0.5215686274509804" stop-color="#ff9900"/>
      <stop offset="0.984313725490196" stop-color="#993300"/>
    </linearGradient>
  </defs>
</svg>
