<?xml version="1.0" encoding="UTF-8" standalone="no"?>
<svg xmlns:xlink="http://www.w3.org/1999/xlink" height="18.7px" width="18.7px" xmlns="http://www.w3.org/2000/svg">
  <g transform="matrix(1.0, 0.0, 0.0, 1.0, -704.25, -18.85)">
    <path d="M708.15 22.6 L713.65 28.15 708.1 33.7 713.65 28.15 708.15 22.6 M714.2 28.75 L714.1 28.85 718.75 33.45 714.2 28.75 713.65 28.15 718.85 23.0 713.65 28.15 714.2 28.75 718.75 33.45 714.1 28.85 714.2 28.75 M705.25 36.55 L705.25 19.85 721.95 19.85 721.95 36.55 705.25 36.55" fill="#005370" fill-rule="evenodd" stroke="none"/>
    <path d="M721.95 19.85 L721.95 36.55 705.25 36.55" fill="none" stroke="#031f32" stroke-linecap="round" stroke-linejoin="round" stroke-width="2.0"/>
    <path d="M718.85 23.0 L713.65 28.15 714.2 28.75 718.75 33.45 714.1 28.85 714.2 28.75 M708.1 33.7 L713.65 28.15 708.15 22.6 M705.25 36.55 L705.25 19.85 721.95 19.85 Z" fill="none" stroke="#5b9cbd" stroke-linecap="round" stroke-linejoin="round" stroke-width="2.0"/>
  </g>
</svg>
