<?xml version="1.0" encoding="UTF-8" standalone="no"?>
<svg xmlns:xlink="http://www.w3.org/1999/xlink" height="141.1px" width="173.85px" xmlns="http://www.w3.org/2000/svg">
  <g transform="matrix(1.0, 0.0, 0.0, 1.0, 124.6, 2.35)">
    <path d="M-3.9 -2.35 L16.5 -2.35 31.7 24.4 Q33.55 28.1 33.75 29.45 34.4 33.25 30.8 35.6 L35.8 42.85 40.35 50.05 Q43.25 54.65 45.45 56.65 47.85 58.85 47.25 61.8 46.95 63.3 44.9 67.4 43.8 69.65 36.25 76.15 26.4 84.55 25.05 85.9 23.1 87.85 21.65 89.7 24.55 91.7 25.6 93.6 27.1 96.45 24.4 100.8 20.95 105.5 20.1 107.4 18.45 111.25 19.85 113.2 L26.75 112.35 Q34.6 111.65 39.4 112.35 44.45 113.05 45.95 117.15 46.55 118.85 46.85 125.05 L46.7 126.7 48.5 128.65 Q51.05 131.15 45.2 136.65 42.75 138.9 35.8 138.75 21.75 138.4 19.0 138.55 9.9 139.1 5.55 136.75 4.2 136.0 0.8 132.2 -0.8 130.45 -0.65 124.6 L-0.05 116.8 Q0.15 114.9 -0.6 111.65 L-1.4 108.8 -3.9 109.9 -4.45 106.55 Q-5.1 101.65 -3.9 97.45 -3.35 95.75 -1.4 92.7 L0.5 90.05 0.65 90.25 Q1.9 87.3 6.05 84.25 8.65 82.25 11.85 84.65 L14.9 75.5 Q17.45 68.25 19.85 64.95 23.95 59.15 31.4 57.75 L16.35 39.8 Q6.3 41.55 4.1 38.75 L-6.1 23.3 -9.4 23.3 Q-10.8 27.4 -15.75 32.1 -19.8 35.95 -29.6 41.15 -31.55 44.1 -37.05 42.8 -36.8 46.25 -37.55 50.05 -39.65 60.75 -48.0 90.9 -44.85 95.3 -44.45 98.85 -43.2 108.9 -44.55 114.95 -45.25 118.5 -46.9 120.9 -50.8 126.7 -57.4 127.8 L-57.4 127.75 -58.75 128.1 Q-64.3 129.3 -71.05 122.45 L-76.7 115.4 -74.45 107.4 -74.5 107.4 Q-85.8 87.8 -96.0 80.35 L-111.55 70.3 Q-119.8 65.05 -121.1 61.9 L-121.8 60.95 Q-127.05 53.3 -122.5 43.15 -118.1 33.4 -113.85 29.3 -108.45 24.0 -99.05 22.45 -89.7 20.95 -80.6 27.75 -73.05 33.4 -67.6 43.15 -63.7 50.1 -59.2 64.65 L-54.1 81.75 -53.7 82.75 Q-52.45 65.05 -52.45 55.3 L-52.7 40.0 Q-52.6 31.9 -51.05 28.25 -50.2 26.2 -48.6 23.85 -48.6 18.3 -45.0 11.7 -44.2 10.25 -42.6 8.9 L-42.8 8.4 -25.95 0.1 Q-19.4 -2.35 -3.9 -2.35" fill="#003c62" fill-rule="evenodd" stroke="none"/>
    <path d="M45.75 125.6 L48.5 128.65 Q51.05 131.15 45.2 136.65 42.75 138.9 35.8 138.75 21.75 138.4 19.0 138.55 9.9 139.1 5.55 136.75 4.2 136.0 0.8 132.2 -0.8 130.45 -0.65 124.6 L-0.05 116.8 Q0.15 114.9 -0.6 111.65 L-1.4 108.8 -3.9 109.9 -4.45 106.55 Q-5.1 101.65 -3.9 97.45 -3.35 95.75 -1.4 92.7 L0.5 90.05 7.15 101.05 8.85 109.7 Q11.2 119.15 14.3 123.1 17.4 127.05 31.9 126.75 L45.75 125.6" fill="#005487" fill-rule="evenodd" stroke="none"/>
    <path d="M12.65 85.35 L18.2 87.7 Q24.05 90.65 25.6 93.6 27.1 96.45 24.4 100.8 20.95 105.5 20.1 107.4 18.45 111.25 19.85 113.2 L26.75 112.35 Q34.6 111.65 39.4 112.35 44.45 113.05 45.95 117.15 46.55 118.85 46.85 125.05 47.05 128.85 43.15 131.75 39.5 134.45 33.6 135.55 28.7 136.45 18.3 132.85 9.95 129.95 5.5 127.25 2.9 125.7 2.9 122.8 L3.55 115.4 Q3.7 111.75 2.2 105.75 0.2 98.1 -0.05 96.1 -0.9 89.4 6.05 84.25 9.35 81.75 12.65 85.35" fill="#002941" fill-rule="evenodd" stroke="none"/>
    <path d="M8.45 96.8 L7.7 95.8 Q5.65 92.95 8.0 89.65 9.2 87.9 11.55 85.35 L14.55 76.5 Q17.35 68.45 19.85 64.95 23.95 59.15 31.4 57.75 L15.7 39.0 24.45 34.25 Q30.75 42.85 35.7 51.85 L35.75 52.2 Q37.65 53.4 38.6 56.05 39.3 58.0 40.85 59.25 40.5 60.3 40.6 60.6 41.4 63.35 40.45 65.15 L40.0 65.5 38.05 66.6 Q37.2 67.15 36.1 67.1 L35.35 67.9 33.0 68.3 31.0 69.45 26.7 73.0 20.15 82.1 Q18.7 84.1 16.9 85.15 13.75 90.85 8.85 96.3 L8.45 96.8" fill="#4e79b6" fill-rule="evenodd" stroke="none"/>
    <path d="M24.45 34.25 L28.4 32.1 35.8 42.85 40.35 50.05 Q43.25 54.65 45.45 56.65 47.85 58.85 47.25 61.8 46.95 63.3 44.9 67.4 43.8 69.65 36.25 76.15 26.4 84.55 25.05 85.9 21.8 89.2 19.65 92.6 L16.5 98.05 Q13.35 103.15 8.45 96.8 L8.85 96.3 Q13.75 90.85 16.9 85.15 18.7 84.1 20.15 82.1 L26.7 73.0 31.0 69.45 33.0 68.3 35.35 67.9 36.1 67.1 Q37.2 67.15 38.05 66.6 L40.0 65.5 40.45 65.15 Q41.4 63.35 40.6 60.6 40.5 60.3 40.85 59.25 39.3 58.0 38.6 56.05 37.65 53.4 35.75 52.2 L35.7 51.85 Q30.75 42.85 24.45 34.25" fill="#3c5d8c" fill-rule="evenodd" stroke="none"/>
    <path d="M27.65 37.15 L25.05 37.9 Q7.0 42.4 4.1 38.75 L-6.1 23.3 -9.4 23.3 -9.65 24.05 Q-10.85 23.4 -12.55 23.55 L-12.95 23.55 -34.3 36.05 -42.8 8.4 -25.95 0.1 Q-19.4 -2.35 -3.9 -2.35 L7.75 -2.35 Q14.1 8.95 18.35 21.1 19.95 25.65 22.35 29.9 24.6 33.8 27.65 37.15" fill="#2f639b" fill-rule="evenodd" stroke="none"/>
    <path d="M7.75 -2.35 L16.5 -2.35 31.7 24.4 Q34.0 29.05 33.85 30.95 33.6 35.0 27.65 37.15 24.6 33.8 22.35 29.9 19.95 25.65 18.35 21.1 14.1 8.95 7.75 -2.35 M-9.65 24.05 Q-11.25 27.8 -15.75 32.1 -18.85 35.05 -25.9 39.1 L-32.3 42.6 -34.3 36.05 -12.95 23.55 -12.55 23.55 Q-10.85 23.4 -9.65 24.05" fill="#214770" fill-rule="evenodd" stroke="none"/>
    <path d="M-30.9 4.0 Q-28.05 3.25 -26.75 5.5 -25.9 6.95 -24.0 14.2 -22.55 19.8 -24.95 29.0 -26.7 35.55 -29.25 40.65 -31.45 45.05 -38.65 42.3 -43.35 38.75 -46.9 31.3 -51.1 22.65 -45.0 11.7 -42.4 7.05 -30.9 4.0" fill="#002339" fill-rule="evenodd" stroke="none"/>
    <path d="M-28.6 14.05 Q-33.5 17.15 -37.8 20.65 L-38.45 20.8 Q-47.1 30.55 -45.3 45.45 -43.4 60.95 -47.4 75.75 L-47.45 76.95 Q-48.85 78.3 -48.75 80.85 L-48.65 83.2 -50.2 85.95 -50.25 89.3 -53.8 84.5 Q-52.45 65.75 -52.45 55.3 L-52.7 40.0 Q-52.6 31.9 -51.05 28.25 -47.35 19.75 -42.0 14.35 -34.05 6.4 -30.35 10.8 -29.15 12.25 -28.6 14.05" fill="#4e79b6" fill-rule="evenodd" stroke="none"/>
    <path d="M-50.25 89.3 L-50.2 85.95 -48.65 83.2 -48.75 80.85 Q-48.85 78.3 -47.45 76.95 L-47.4 75.75 Q-43.4 60.95 -45.3 45.45 -47.1 30.55 -38.45 20.8 L-37.8 20.65 Q-33.5 17.15 -28.6 14.05 -28.3 15.0 -28.25 16.1 -28.1 18.7 -29.3 20.3 -30.7 22.25 -37.55 29.1 -39.1 30.65 -39.85 33.15 L-40.3 35.4 -38.1 38.5 Q-36.15 43.0 -37.55 50.05 -39.75 61.35 -48.3 91.95 L-50.25 89.3" fill="#3c5d8c" fill-rule="evenodd" stroke="none"/>
    <path d="M-63.6 70.35 Q-58.35 82.25 -52.45 96.35 L-47.2 105.55 Q-44.25 110.55 -44.45 112.65 L-44.55 114.95 Q-45.25 118.5 -46.9 120.9 -50.8 126.7 -57.4 127.8 L-86.35 62.7 -121.1 61.9 -121.8 60.95 -122.5 58.85 Q-123.65 56.05 -123.4 52.2 -122.9 44.55 -115.85 39.55 -91.35 22.2 -79.75 38.75 -73.8 47.25 -63.6 70.35" fill="#005487" fill-rule="evenodd" stroke="none"/>
    <path d="M-80.6 27.75 Q-73.05 33.4 -67.6 43.15 -63.7 50.1 -59.2 64.65 L-54.1 81.75 Q-53.35 83.8 -48.85 89.8 -44.9 94.95 -44.45 98.85 -43.2 108.9 -44.55 114.95 L-44.45 112.65 Q-44.25 110.55 -47.2 105.55 L-52.45 96.35 Q-58.35 82.25 -63.6 70.35 -73.8 47.25 -79.75 38.75 -91.35 22.2 -115.85 39.55 -122.9 44.55 -123.4 52.2 -123.65 56.05 -122.5 58.85 L-121.8 60.95 Q-127.05 53.3 -122.5 43.15 -118.1 33.4 -113.85 29.3 -108.45 24.0 -99.05 22.45 -89.7 20.95 -80.6 27.75" fill="#002941" fill-rule="evenodd" stroke="none"/>
    <path d="M-67.05 66.3 Q-58.4 85.1 -56.55 91.15 -54.35 98.3 -52.45 101.05 L-74.5 107.4 Q-85.8 87.8 -96.0 80.35 L-111.55 70.3 Q-119.8 65.05 -121.1 61.9 -127.0 47.8 -114.5 39.5 -104.85 33.1 -94.6 33.7 -84.8 34.25 -80.3 40.65 -76.25 46.45 -67.05 66.3" fill="#003c62" fill-rule="evenodd" stroke="none"/>
    <path d="M-76.7 115.4 L-74.2 106.55 -52.45 101.05 -53.25 109.9 -76.7 115.4" fill="#106588" fill-rule="evenodd" stroke="none"/>
    <path d="M-58.75 128.1 Q-64.3 129.3 -71.05 122.45 L-76.7 115.4 -54.1 109.6 -52.35 111.6 Q-50.45 114.25 -49.4 117.35 -46.7 125.45 -58.75 128.1" fill="#003c62" fill-rule="evenodd" stroke="none"/>
  </g>
</svg>
