<?xml version="1.0" encoding="UTF-8" standalone="no"?>
<svg xmlns:xlink="http://www.w3.org/1999/xlink" height="133.0px" width="157.05px" xmlns="http://www.w3.org/2000/svg">
  <g transform="matrix(1.0, 0.0, 0.0, 1.0, 118.4, 2.95)">
    <path d="M-25.2 -0.8 Q-20.05 -3.4 -5.85 -2.85 2.8 -2.5 19.05 -2.85 L23.85 6.55 Q28.8 16.4 29.45 18.6 30.0 20.35 31.9 23.65 33.1 26.6 31.2 28.95 L30.4 29.9 Q34.45 44.45 37.05 53.25 38.8 59.2 38.65 60.65 38.6 61.55 36.35 65.7 33.05 71.9 16.3 80.9 14.0 82.15 11.65 83.8 L12.45 84.9 Q13.95 87.75 11.25 92.1 7.8 96.8 6.95 98.7 5.9 101.1 6.15 103.05 6.3 104.0 6.65 104.5 L13.55 103.65 Q21.4 103.0 26.25 103.7 31.3 104.4 32.75 108.45 33.35 110.1 33.7 116.35 L33.55 118.0 35.35 119.95 Q37.85 122.5 32.05 127.95 29.6 130.2 22.65 130.05 8.75 129.75 5.85 129.9 -3.25 130.4 -7.6 128.05 -8.95 127.35 -12.4 123.55 -14.5 121.2 -13.2 108.1 -13.05 106.2 -13.8 102.95 L-14.6 100.1 -17.05 101.2 -17.6 97.9 Q-18.35 93.0 -17.05 88.8 -16.55 87.1 -14.55 84.05 L-12.65 81.35 -12.55 81.55 Q-11.35 78.7 -7.15 75.55 -3.85 73.05 -0.5 76.65 L1.55 77.45 Q5.05 75.25 6.6 73.65 15.25 65.0 18.4 60.5 21.5 56.0 27.05 55.65 L17.55 38.3 16.65 38.65 Q5.6 42.85 3.15 39.0 2.1 37.25 0.6 32.25 L-0.65 27.55 -6.2 24.45 Q-9.65 37.6 -12.05 39.7 -13.55 40.95 -16.9 41.9 L-19.7 42.45 Q-25.5 42.8 -30.5 41.0 L-36.65 47.65 -35.15 51.9 Q-33.75 57.2 -34.2 62.15 L-37.85 97.15 -34.55 99.55 Q-33.15 100.55 -33.5 110.6 L-33.8 110.5 Q-33.45 112.85 -35.95 113.35 -38.95 114.0 -54.6 110.9 L-55.65 111.65 -55.75 110.65 -56.0 110.6 -56.0 108.2 -66.4 108.5 Q-77.3 109.6 -94.05 112.65 -105.3 114.75 -111.7 110.95 -114.35 109.35 -113.95 108.25 -119.9 103.85 -117.9 97.45 -115.8 90.5 -112.9 87.5 -108.95 83.4 -100.6 82.25 -82.3 79.6 -61.55 85.7 -54.1 87.85 -46.25 92.1 -45.1 66.6 -45.95 59.75 L-48.15 49.65 Q-49.1 44.7 -47.0 40.05 -44.7 34.95 -39.25 26.95 -41.5 19.15 -38.35 14.45 L-37.0 12.6 Q-27.6 0.4 -25.2 -0.8" fill="#106588" fill-rule="evenodd" stroke="none"/>
    <path d="M1.15 114.45 Q4.25 118.4 18.75 118.05 L32.6 116.9 35.35 119.95 Q37.85 122.5 32.05 127.95 29.6 130.2 22.65 130.05 8.75 129.75 5.85 129.9 -3.25 130.4 -7.6 128.05 -8.95 127.35 -12.4 123.55 -14.5 121.2 -13.2 108.1 -13.05 106.2 -13.8 102.95 L-14.6 100.1 -17.05 101.2 -17.6 97.9 Q-18.35 93.0 -17.05 88.8 -16.55 87.1 -14.55 84.05 L-12.65 81.35 -6.05 92.35 -4.3 101.0 Q-1.95 110.5 1.15 114.45" fill="#005487" fill-rule="evenodd" stroke="none"/>
    <path d="M5.05 79.05 Q10.9 82.0 12.45 84.9 13.95 87.75 11.25 92.1 7.8 96.8 6.95 98.7 5.9 101.1 6.15 103.05 6.3 104.0 6.65 104.5 L13.55 103.65 Q21.4 103.0 26.25 103.7 31.3 104.4 32.75 108.45 33.35 110.1 33.7 116.35 33.9 120.15 29.95 123.05 26.35 125.75 20.45 126.85 15.55 127.75 5.15 124.15 -3.2 121.25 -7.7 118.55 -10.35 117.0 -10.3 114.1 -9.75 109.9 -9.6 106.7 -9.45 103.1 -11.0 97.05 -12.9 89.55 -13.2 87.4 -13.75 83.15 -11.75 80.05 -10.45 78.05 -7.15 75.55 -3.85 73.05 -0.5 76.65 L5.05 79.05" fill="#002941" fill-rule="evenodd" stroke="none"/>
    <path d="M-3.65 90.35 Q-4.45 87.85 -3.75 82.3 -3.55 80.75 0.15 78.35 5.15 75.15 6.6 73.65 15.25 65.0 18.4 60.5 21.5 56.0 27.05 55.65 L16.65 36.65 25.8 31.5 31.4 49.6 Q33.8 57.75 31.0 64.75 17.95 70.0 6.65 80.05 1.55 84.6 -3.65 90.35" fill="#4e79b6" fill-rule="evenodd" stroke="none"/>
    <path d="M25.8 31.5 L30.15 29.05 37.05 53.25 Q38.8 59.2 38.65 60.65 38.6 61.55 36.35 65.7 33.05 71.9 16.3 80.9 12.0 83.2 7.45 87.1 3.2 90.7 0.4 92.0 -2.75 93.45 -3.65 90.35 1.55 84.6 6.65 80.05 17.95 70.0 31.0 64.75 33.8 57.75 31.4 49.6 L25.8 31.5" fill="#3c5d8c" fill-rule="evenodd" stroke="none"/>
    <path d="M27.55 32.6 Q23.1 36.2 16.65 38.65 5.6 42.85 3.15 39.0 2.1 37.25 0.6 32.25 L-0.65 27.55 -3.65 25.9 -4.7 24.75 -5.1 24.35 -6.65 23.55 Q-10.3 24.15 -14.1 25.9 -21.05 30.65 -22.0 38.6 L-37.3 13.05 -32.3 6.65 Q-26.95 0.1 -25.2 -0.8 -20.05 -3.4 -5.85 -2.85 0.85 -2.6 12.15 -2.7 L21.7 19.9 Q24.55 26.5 27.55 32.6" fill="#2f639b" fill-rule="evenodd" stroke="none"/>
    <path d="M12.15 -2.7 L19.05 -2.85 23.85 6.55 Q28.8 16.4 29.45 18.6 30.0 20.35 31.9 23.65 33.1 26.6 31.2 28.95 L27.55 32.6 Q24.55 26.5 21.7 19.9 L12.15 -2.7 M-3.65 25.9 L-6.2 24.45 Q-9.65 37.6 -12.05 39.7 -13.6 41.0 -16.8 41.85 L-19.7 42.45 -22.0 38.6 Q-21.05 30.65 -14.1 25.9 -10.3 24.15 -6.65 23.55 L-5.1 24.35 -4.7 24.75 -3.65 25.9" fill="#214770" fill-rule="evenodd" stroke="none"/>
    <path d="M-21.75 11.65 Q-17.65 16.65 -16.0 24.5 -14.8 30.2 -15.2 34.5 L-15.2 39.75 Q-15.75 42.25 -19.7 42.45 -25.0 42.75 -29.65 41.3 -35.1 39.55 -36.3 36.2 L-39.05 27.55 Q-39.75 25.55 -40.0 22.95 -40.5 17.65 -38.35 14.45 -35.15 9.65 -31.1 8.25 -26.0 6.5 -21.75 11.65" fill="#002339" fill-rule="evenodd" stroke="none"/>
    <path d="M-40.55 96.8 L-46.3 92.95 Q-44.95 68.05 -45.95 59.75 L-48.15 49.65 Q-49.1 44.7 -47.0 40.05 -42.65 30.35 -32.8 18.25 -30.05 14.75 -28.65 11.65 L-25.5 13.0 Q-22.15 15.15 -21.05 19.25 L-20.55 21.05 Q-25.8 27.4 -32.25 34.05 L-33.35 35.3 -33.7 36.5 -35.7 38.05 -36.1 39.25 -41.55 44.35 Q-38.85 55.45 -39.0 67.1 -39.2 82.0 -40.55 96.8" fill="#4e79b6" fill-rule="evenodd" stroke="none"/>
    <path d="M-20.55 21.05 L-19.3 25.45 Q-19.15 27.15 -21.4 30.35 -23.55 33.4 -30.3 40.8 L-36.65 47.65 -35.15 51.9 Q-33.75 57.2 -34.2 62.15 L-38.0 98.5 -40.55 96.8 Q-39.2 82.0 -39.0 67.1 -38.85 55.45 -41.55 44.35 L-36.1 39.25 -35.7 38.05 -33.7 36.5 -33.35 35.3 -32.25 34.05 Q-25.8 27.4 -20.55 21.05" fill="#3c5d8c" fill-rule="evenodd" stroke="none"/>
    <path d="M-100.6 82.25 Q-82.3 79.6 -61.55 85.7 -47.55 89.8 -34.55 99.55 -33.15 100.55 -33.5 110.6 -51.85 105.4 -62.55 105.05 -69.25 104.85 -91.5 107.0 L-112.4 109.2 Q-114.4 108.25 -116.05 106.3 -119.45 102.4 -117.9 97.45 -115.8 90.5 -112.9 87.5 -108.95 83.4 -100.6 82.25" fill="#002339" fill-rule="evenodd" stroke="none"/>
    <path d="M-94.05 112.65 Q-105.3 114.75 -111.7 110.95 -114.5 109.25 -113.85 108.1 -113.05 106.6 -106.15 102.65 -99.3 98.75 -82.65 98.95 -67.65 99.15 -54.25 102.3 -38.0 106.1 -34.2 109.2 -32.5 112.65 -35.95 113.35 -38.1 113.8 -47.25 112.25 L-56.0 110.6 -56.0 108.2 -66.4 108.5 Q-77.3 109.6 -94.05 112.65" fill="#003c62" fill-rule="evenodd" stroke="none"/>
    <path d="M-56.0 108.2 L-50.1 103.35 -49.45 107.15 -55.65 111.65 -56.0 108.2" fill="#106588" fill-rule="evenodd" stroke="none"/>
  </g>
</svg>
