<?xml version="1.0" encoding="UTF-8" standalone="no"?>
<svg xmlns:xlink="http://www.w3.org/1999/xlink" height="150.9px" width="99.1px" xmlns="http://www.w3.org/2000/svg">
  <g transform="matrix(1.0, 0.0, 0.0, 1.0, 54.6, 3.9)">
    <path d="M-24.15 -3.9 L-0.3 -2.5 Q8.0 -1.85 20.1 -2.85 L32.9 28.25 30.05 29.4 34.3 34.5 Q37.4 37.9 44.0 54.9 45.15 57.9 43.75 59.3 L39.15 62.15 Q36.95 63.45 30.25 66.05 22.7 69.0 19.75 70.45 L18.0 71.35 21.5 79.8 Q24.95 86.75 33.6 97.45 39.7 106.55 31.2 115.1 26.9 119.4 21.9 118.25 15.35 116.75 6.6 106.1 -1.65 96.05 -2.15 85.3 -2.35 80.1 0.05 71.5 1.1 67.65 5.0 64.35 6.95 62.7 8.7 61.8 11.3 61.75 13.35 63.6 21.7 58.25 24.95 55.25 29.45 51.1 31.2 50.4 L26.35 47.3 Q22.75 45.0 13.1 36.1 L4.9 37.95 -1.35 30.0 -6.9 29.65 -5.9 35.9 -7.75 35.8 Q-10.4 39.35 -17.3 40.15 L-20.7 48.35 Q-23.5 54.9 -24.85 56.3 L-21.95 60.3 Q-18.8 65.05 -17.25 68.75 -15.85 72.2 -16.3 77.65 L-16.9 86.05 -16.65 92.25 -14.5 92.6 Q-10.05 94.3 -12.75 103.7 -13.8 107.2 -13.6 112.65 L-13.1 125.45 Q-13.1 133.1 -16.85 137.75 -19.7 141.25 -26.6 144.85 -32.5 147.95 -39.75 146.55 -46.9 145.2 -52.9 140.0 -57.95 135.65 -47.85 120.55 -42.5 112.5 -32.5 100.55 -29.5 96.75 -26.2 94.7 L-27.3 82.25 Q-27.7 77.25 -31.0 70.85 -35.45 62.3 -36.3 59.75 -38.05 54.5 -37.75 51.65 -36.95 48.85 -36.65 46.95 -36.15 44.5 -33.3 39.05 -38.25 37.5 -38.0 33.8 L-38.0 33.55 -39.4 33.45 -37.15 23.65 Q-34.55 13.15 -32.8 9.95 L-24.15 -3.9" fill="#3d83b9" fill-rule="evenodd" stroke="none"/>
    <path d="M5.0 64.35 Q6.95 62.7 8.7 61.8 13.25 61.6 16.55 68.1 18.4 71.8 21.5 79.8 24.95 86.75 33.6 97.45 39.7 106.55 31.2 115.1 26.9 119.4 21.9 118.25 15.35 116.75 6.6 106.1 -1.65 96.05 -2.15 85.3 -2.35 80.1 0.05 71.5 1.1 67.65 5.0 64.35" fill="#002941" fill-rule="evenodd" stroke="none"/>
    <path d="M26.0 29.95 L27.9 32.6 Q33.25 42.25 37.4 52.3 38.35 54.65 38.45 56.9 37.45 58.1 36.0 58.55 33.7 59.2 32.6 60.45 25.35 61.2 20.65 64.95 18.65 66.6 15.7 67.5 L10.5 71.4 10.05 71.15 Q7.45 69.85 8.0 67.95 L9.05 66.3 15.3 62.35 Q22.15 57.85 24.95 55.25 29.45 51.1 31.2 50.4 L26.35 47.3 Q23.3 45.35 17.45 40.1 L12.15 35.2 26.0 29.95" fill="#4e79b6" fill-rule="evenodd" stroke="none"/>
    <path d="M10.5 71.4 L15.7 67.5 Q18.65 66.6 20.65 64.95 25.35 61.2 32.6 60.45 33.7 59.2 36.0 58.55 37.45 58.1 38.45 56.9 38.35 54.65 37.4 52.3 33.25 42.25 27.9 32.6 L26.0 29.95 29.45 28.6 34.3 34.5 Q37.4 37.9 44.0 54.9 45.15 57.9 43.75 59.3 L39.15 62.15 Q36.95 63.45 30.25 66.05 22.7 69.0 19.75 70.45 15.25 72.75 14.15 72.75 13.4 72.8 10.5 71.4" fill="#3c5d8c" fill-rule="evenodd" stroke="none"/>
    <path d="M-17.35 35.1 L-39.4 33.45 -37.15 23.65 Q-34.55 13.15 -32.8 9.95 L-24.15 -3.9 -0.3 -2.5 Q4.35 -2.15 10.2 -2.3 L17.7 20.25 Q20.0 27.25 24.25 31.8 L16.65 34.85 Q12.95 36.35 8.55 37.3 L4.9 37.95 -1.35 30.0 -5.7 29.75 -7.75 27.75 -7.85 27.45 -10.55 27.45 -13.3 29.05 -17.35 35.1" fill="#2f639b" fill-rule="evenodd" stroke="none"/>
    <path d="M10.2 -2.3 L20.1 -2.85 32.9 28.25 24.25 31.8 Q20.0 27.25 17.7 20.25 L10.2 -2.3 M-5.7 29.75 L-6.9 29.65 -5.9 35.9 -17.35 35.1 -13.3 29.05 -10.55 27.45 -7.85 27.45 -7.75 27.75 -5.7 29.75" fill="#214770" fill-rule="evenodd" stroke="none"/>
    <path d="M-21.4 92.95 L-19.0 92.4 -14.5 92.6 Q-10.05 94.3 -12.75 103.7 -13.8 107.2 -13.6 112.65 L-13.1 125.45 Q-13.1 133.1 -16.85 137.75 -19.7 141.25 -26.6 144.85 -32.5 147.95 -39.75 146.55 -46.9 145.2 -52.9 140.0 -57.95 135.65 -47.85 120.55 -42.5 112.5 -32.5 100.55 -26.6 92.95 -21.4 92.95" fill="#002941" fill-rule="evenodd" stroke="none"/>
    <path d="M-38.0 33.8 Q-37.85 30.9 -35.15 29.9 -31.8 28.7 -23.15 29.65 -13.3 30.75 -9.9 31.95 -6.05 33.3 -7.55 35.55 -11.15 40.85 -23.15 40.35 -38.4 39.8 -38.0 33.8" fill="#002339" fill-rule="evenodd" stroke="none"/>
    <path d="M-18.35 101.1 Q-19.4 102.3 -20.95 102.0 L-24.15 100.55 Q-25.5 99.9 -26.25 94.25 L-27.3 82.25 Q-27.7 77.25 -31.0 70.85 -35.45 62.3 -36.3 59.75 -38.05 54.5 -37.75 51.65 -36.95 48.85 -36.65 46.95 -36.2 44.6 -32.9 38.25 L-29.7 32.4 -28.0 31.7 -22.45 32.05 -19.85 32.85 Q-23.85 43.7 -28.2 53.05 L-28.25 53.4 -27.45 55.35 -23.5 71.8 Q-19.85 84.6 -18.55 99.2 L-18.35 101.1" fill="#4e79b6" fill-rule="evenodd" stroke="none"/>
    <path d="M-19.85 32.85 Q-16.7 33.95 -15.2 35.2 L-20.7 48.35 Q-23.5 54.9 -24.85 56.3 L-21.95 60.3 Q-18.8 65.05 -17.25 68.75 -15.85 72.2 -16.3 77.65 L-16.9 86.05 Q-16.1 97.65 -17.95 100.55 L-18.35 101.1 -18.55 99.2 Q-19.85 84.6 -23.5 71.8 L-27.45 55.35 -28.25 53.4 -28.2 53.05 Q-23.85 43.7 -19.85 32.85" fill="#3c5d8c" fill-rule="evenodd" stroke="none"/>
  </g>
</svg>
