<?xml version="1.0" encoding="UTF-8" standalone="no"?>
<svg xmlns:xlink="http://www.w3.org/1999/xlink" height="142.9px" width="109.3px" xmlns="http://www.w3.org/2000/svg">
  <g transform="matrix(1.0, 0.0, 0.0, 1.0, 52.6, 3.9)">
    <path d="M-24.15 -3.9 L-0.3 -2.5 Q8.0 -1.85 20.1 -2.85 L32.9 28.25 30.05 29.4 34.3 34.5 Q37.4 37.9 44.0 54.9 L45.9 59.35 Q46.15 60.8 44.15 63.2 42.55 65.15 37.15 69.9 31.05 75.3 28.8 77.65 L27.45 79.05 33.65 85.8 Q39.25 91.15 51.05 98.25 59.9 104.7 54.85 115.65 52.25 121.15 47.2 121.8 40.55 122.6 28.7 115.6 17.45 109.0 13.35 99.05 11.35 94.25 10.65 85.35 10.35 81.35 12.85 76.95 14.15 74.7 15.45 73.3 17.9 72.3 20.45 73.4 26.65 65.1 28.45 61.55 31.25 56.1 31.2 50.4 L26.35 47.3 Q22.75 45.0 13.1 36.1 L4.9 37.95 -1.35 30.0 -6.9 29.65 -5.9 35.9 -7.75 35.8 Q-10.4 39.35 -17.3 40.15 L-20.7 48.35 Q-23.5 54.9 -24.85 56.3 L-21.95 60.3 Q-18.8 65.05 -17.25 68.75 L-15.3 73.65 -14.9 78.05 -14.65 84.25 -12.5 84.6 Q-8.05 86.3 -10.75 95.7 -11.8 99.2 -11.6 104.65 L-11.1 117.45 Q-11.1 125.1 -14.85 129.75 -17.7 133.25 -24.6 136.85 -30.5 139.95 -37.75 138.55 -44.9 137.2 -50.9 132.0 -55.95 127.65 -45.85 112.55 -40.5 104.5 -30.5 92.55 -27.5 88.75 -24.2 86.7 -24.4 85.1 -25.75 84.85 -27.1 84.65 -27.3 82.25 -27.7 77.25 -31.0 70.85 -35.45 62.3 -36.3 59.75 -38.05 54.5 -37.75 51.65 -36.95 48.85 -36.65 46.95 -36.15 44.5 -33.3 39.05 -38.25 37.5 -38.0 33.8 L-38.0 33.55 -39.4 33.45 -37.15 23.65 Q-34.55 13.15 -32.8 9.95 L-24.15 -3.9" fill="#3d83b9" fill-rule="evenodd" stroke="none"/>
    <path d="M15.45 73.3 Q19.65 71.55 24.95 76.5 27.95 79.35 33.65 85.8 39.25 91.15 51.05 98.25 59.9 104.7 54.85 115.65 52.25 121.15 47.2 121.8 40.55 122.6 28.7 115.6 17.45 109.0 13.35 99.05 11.35 94.25 10.65 85.35 10.35 81.35 12.85 76.95 14.15 74.7 15.45 73.3" fill="#002941" fill-rule="evenodd" stroke="none"/>
    <path d="M21.45 81.8 L19.95 81.6 Q17.1 81.3 16.9 79.3 L17.3 77.4 Q25.65 67.0 28.45 61.55 31.25 56.1 31.2 50.4 L26.35 47.3 Q23.3 45.35 17.45 40.1 L12.15 35.2 25.35 30.2 Q33.0 39.65 37.7 50.85 L38.45 53.0 39.25 53.75 40.45 58.1 39.25 61.6 37.7 62.4 Q29.65 70.5 22.9 79.15 22.35 79.85 22.0 81.25 L21.45 81.8" fill="#4e79b6" fill-rule="evenodd" stroke="none"/>
    <path d="M25.35 30.2 L29.45 28.6 34.3 34.5 Q37.4 37.9 44.0 54.9 L45.9 59.35 Q46.15 60.8 44.15 63.2 42.55 65.15 37.15 69.9 31.05 75.3 28.8 77.65 25.35 81.3 24.3 81.75 L21.45 81.8 22.0 81.25 Q22.35 79.85 22.9 79.15 29.65 70.5 37.7 62.4 L39.25 61.6 40.45 58.1 39.25 53.75 38.45 53.0 37.7 50.85 Q33.0 39.65 25.35 30.2" fill="#3c5d8c" fill-rule="evenodd" stroke="none"/>
    <path d="M-17.35 35.05 L-39.4 33.45 -37.15 23.65 Q-34.55 13.15 -32.8 9.95 L-24.15 -3.9 -0.3 -2.5 Q4.9 -2.1 11.55 -2.3 16.95 8.15 19.7 19.8 21.25 26.45 24.4 31.75 L16.65 34.85 Q12.95 36.35 8.55 37.3 L4.9 37.95 -1.35 30.0 -6.05 29.7 -6.55 29.0 -6.65 28.65 Q-7.2 28.5 -7.95 27.95 -9.1 27.0 -10.55 26.75 L-10.95 26.7 -14.1 28.25 Q-16.1 31.45 -17.35 35.05" fill="#2f639b" fill-rule="evenodd" stroke="none"/>
    <path d="M11.55 -2.3 L20.1 -2.85 32.9 28.25 24.4 31.75 Q21.25 26.45 19.7 19.8 16.95 8.15 11.55 -2.3 M-6.05 29.7 L-6.9 29.65 -5.9 35.9 -17.35 35.05 Q-16.1 31.45 -14.1 28.25 L-10.95 26.7 -10.55 26.75 Q-9.1 27.0 -7.95 27.95 -7.2 28.5 -6.65 28.65 L-6.55 29.0 -6.05 29.7" fill="#214770" fill-rule="evenodd" stroke="none"/>
    <path d="M-12.5 84.6 Q-8.05 86.3 -10.75 95.7 -11.8 99.2 -11.6 104.65 L-11.1 117.45 Q-11.1 125.1 -14.85 129.75 -17.7 133.25 -24.6 136.85 -30.5 139.95 -37.75 138.55 -44.9 137.2 -50.9 132.0 -55.95 127.65 -45.85 112.55 -40.5 104.5 -30.5 92.55 -24.6 84.95 -19.4 84.95 L-17.0 84.4 -12.5 84.6" fill="#002941" fill-rule="evenodd" stroke="none"/>
    <path d="M-38.0 33.8 Q-37.85 30.9 -35.15 29.9 -31.8 28.7 -23.15 29.65 -13.3 30.75 -9.9 31.95 -6.05 33.3 -7.55 35.55 -11.15 40.85 -23.15 40.35 -38.4 39.8 -38.0 33.8" fill="#002339" fill-rule="evenodd" stroke="none"/>
    <path d="M-21.4 32.35 Q-24.55 37.1 -26.45 42.35 L-26.65 42.4 Q-31.65 53.75 -26.55 65.45 -20.45 79.35 -17.25 93.8 L-18.95 94.0 -22.15 92.55 Q-24.45 91.45 -25.25 90.25 -26.85 87.95 -27.3 82.25 -27.7 77.25 -31.0 70.85 -35.45 62.3 -36.3 59.75 -38.05 54.5 -37.75 51.65 -36.95 48.85 -36.65 46.95 -36.2 44.6 -32.9 38.25 L-29.7 32.4 -28.0 31.7 -22.45 32.05 -21.4 32.35" fill="#4e79b6" fill-rule="evenodd" stroke="none"/>
    <path d="M-17.25 93.8 Q-20.45 79.35 -26.55 65.45 -31.65 53.75 -26.65 42.4 L-26.45 42.35 Q-24.55 37.1 -21.4 32.35 -17.05 33.65 -15.2 35.2 L-20.7 48.35 Q-23.5 54.9 -24.85 56.3 L-21.95 60.3 Q-18.8 65.05 -17.25 68.75 L-15.3 73.65 -14.9 78.05 Q-14.1 89.65 -15.95 92.55 -16.5 93.45 -17.25 93.8" fill="#3c5d8c" fill-rule="evenodd" stroke="none"/>
  </g>
</svg>
