<?xml version="1.0" encoding="UTF-8" standalone="no"?>
<svg xmlns:xlink="http://www.w3.org/1999/xlink" height="141.1px" width="173.85px" xmlns="http://www.w3.org/2000/svg">
  <g transform="matrix(1.0, 0.0, 0.0, 1.0, 56.45, 3.35)">
    <path d="M-3.3 -3.35 Q12.2 -3.35 18.75 -0.9 23.15 0.8 35.55 7.4 L35.4 7.9 Q36.9 9.2 37.75 10.7 41.4 17.2 41.4 22.85 43.0 25.2 43.85 27.25 45.4 30.9 45.45 39.0 L45.2 54.3 Q45.2 61.15 46.45 81.75 L46.85 80.75 52.0 63.65 Q56.5 49.1 60.4 42.15 65.9 32.4 73.45 26.75 82.5 19.95 91.85 21.45 101.3 23.0 106.65 28.3 110.9 32.45 115.25 42.15 119.85 52.3 114.6 59.95 L113.9 60.9 Q112.6 64.05 104.35 69.3 L88.8 79.35 Q82.45 84.0 74.25 95.65 L67.3 106.4 67.25 106.4 69.5 114.4 Q67.25 118.05 63.85 121.45 57.1 128.3 51.55 127.1 L50.2 126.75 50.2 126.8 Q43.55 125.7 39.7 119.9 38.1 117.5 37.35 113.95 36.05 108.05 37.2 97.85 37.7 94.15 40.8 89.9 32.45 59.75 30.35 49.05 29.5 44.95 29.85 41.8 24.4 43.1 22.35 40.15 12.5 34.85 8.55 31.1 5.45 28.15 3.5 24.95 L2.2 22.3 -1.1 22.3 -11.3 37.75 Q-13.5 40.55 -23.55 38.8 L-38.6 56.75 -34.35 58.2 Q-29.6 60.35 -27.05 63.95 -24.7 67.25 -22.1 74.5 L-19.05 83.65 Q-15.95 81.2 -13.25 83.25 -9.1 86.3 -7.85 89.25 L-7.75 89.05 -5.85 91.7 Q-3.85 94.75 -3.3 96.45 -2.1 100.65 -2.75 105.55 L-3.3 108.9 -5.8 107.8 -6.6 110.65 Q-7.35 113.9 -7.2 115.8 -5.9 128.85 -8.0 131.2 -11.4 135.0 -12.75 135.75 -17.1 138.1 -26.2 137.55 -28.95 137.4 -43.05 137.75 -49.95 137.9 -52.4 135.65 -58.25 130.15 -55.7 127.65 L-53.9 125.7 Q-54.15 124.95 -54.05 124.05 -53.75 117.85 -53.15 116.15 -51.65 112.05 -46.6 111.35 -38.9 110.25 -27.05 112.2 -25.65 110.25 -27.3 106.4 L-31.6 99.8 Q-34.35 95.45 -32.85 92.6 -31.8 90.65 -28.85 88.7 -30.5 86.7 -32.3 84.9 -33.75 83.4 -43.45 75.15 -51.0 68.65 -52.15 66.4 -54.2 62.25 -54.45 60.8 -55.05 57.85 -52.7 55.65 -50.45 53.6 -47.55 49.05 L-43.05 41.85 -38.05 34.6 Q-41.65 32.25 -41.0 28.45 -40.75 27.15 -38.9 23.4 L-23.75 -3.35 -3.3 -3.35" fill="#003c62" fill-rule="evenodd" stroke="none"/>
    <path d="M-3.3 96.45 Q-2.1 100.65 -2.75 105.55 L-3.3 108.9 -5.8 107.8 -6.6 110.65 Q-7.35 113.9 -7.2 115.8 -5.9 128.85 -8.0 131.2 -11.4 135.0 -12.75 135.75 -17.1 138.1 -26.2 137.55 -28.95 137.4 -43.05 137.75 -49.95 137.9 -52.4 135.65 -58.25 130.15 -55.7 127.65 L-52.95 124.6 -39.1 125.75 Q-24.6 126.05 -21.5 122.1 -16.55 115.8 -14.35 100.05 L-7.75 89.05 -5.85 91.7 Q-3.85 94.75 -3.3 96.45" fill="#005487" fill-rule="evenodd" stroke="none"/>
    <path d="M-7.2 95.1 Q-7.45 97.2 -9.4 104.75 -10.9 110.75 -10.75 114.4 L-10.05 121.8 Q-10.05 124.7 -12.7 126.25 -17.2 128.95 -25.55 131.85 -35.95 135.45 -40.85 134.55 -46.7 133.45 -50.35 130.75 -54.25 127.8 -54.05 124.05 -53.75 117.85 -53.15 116.15 -51.65 112.05 -46.6 111.35 -38.9 110.25 -27.05 112.2 -25.65 110.25 -27.3 106.4 L-31.6 99.8 Q-34.35 95.45 -32.85 92.6 -31.3 89.65 -25.4 86.7 -22.45 85.25 -19.85 84.35 L-17.8 82.85 Q-15.3 81.7 -13.25 83.25 -6.3 88.4 -7.2 95.1" fill="#002941" fill-rule="evenodd" stroke="none"/>
    <path d="M-27.5 35.5 L-28.6 37.3 -36.1 44.75 Q-36.15 45.7 -36.55 46.15 L-38.45 47.9 Q-40.15 51.45 -42.05 54.35 -42.95 55.7 -42.75 57.7 -31.25 67.4 -24.75 82.4 -21.35 90.25 -17.15 97.55 -21.05 101.3 -23.75 97.05 -25.65 93.55 -26.9 91.6 -29.0 88.2 -32.3 84.9 -33.75 83.4 -43.45 75.15 -51.0 68.65 -52.15 66.4 -54.2 62.25 -54.45 60.8 -55.05 57.85 -52.7 55.65 -50.45 53.6 -47.55 49.05 L-43.05 41.85 -35.6 31.1 -27.5 35.5" fill="#4e79b6" fill-rule="evenodd" stroke="none"/>
    <path d="M-27.5 35.5 L-22.9 38.0 -38.6 56.75 -34.35 58.2 Q-29.6 60.35 -27.05 63.95 -22.9 69.7 -18.75 84.35 -18.2 85.45 -15.15 88.65 -12.85 91.95 -14.9 94.8 L-17.15 97.55 Q-21.35 90.25 -24.75 82.4 -31.25 67.4 -42.75 57.7 -42.95 55.7 -42.05 54.35 -40.15 51.45 -38.45 47.9 L-36.55 46.15 Q-36.15 45.7 -36.1 44.75 L-28.6 37.3 -27.5 35.5" fill="#3c5d8c" fill-rule="evenodd" stroke="none"/>
    <path d="M15.25 -1.9 L20.4 4.7 20.8 5.1 22.4 5.9 23.15 7.05 Q28.05 11.65 33.7 13.5 L25.1 41.6 Q13.5 35.8 8.55 31.1 5.45 28.15 3.5 24.95 L2.2 22.3 -1.1 22.3 -1.55 23.0 -3.1 21.2 -5.1 21.2 -5.85 22.0 -7.45 22.35 -20.4 36.1 -21.95 39.0 -32.3 36.9 Q-40.75 34.8 -41.05 29.95 -41.2 27.95 -38.9 23.4 L-23.75 -3.35 -3.3 -3.35 Q8.65 -3.35 15.25 -1.9" fill="#2f639b" fill-rule="evenodd" stroke="none"/>
    <path d="M15.25 -1.9 L18.75 -0.9 Q23.15 0.8 35.55 7.4 L33.7 13.5 Q28.05 11.65 23.15 7.05 L22.4 5.9 20.8 5.1 20.4 4.7 15.25 -1.9 M-1.55 23.0 Q-9.45 35.3 -11.3 37.75 -13.25 40.2 -21.95 39.0 L-20.4 36.1 -7.45 22.35 -5.85 22.0 -5.1 21.2 -3.1 21.2 -1.55 23.0" fill="#214770" fill-rule="evenodd" stroke="none"/>
    <path d="M23.7 3.0 Q35.15 6.05 37.75 10.7 43.9 21.6 39.7 30.3 36.1 37.75 31.45 41.3 24.25 44.05 22.05 39.65 19.5 34.55 17.8 28.0 15.35 18.8 16.8 13.2 18.65 6.0 19.5 4.5 20.8 2.25 23.7 3.0" fill="#002339" fill-rule="evenodd" stroke="none"/>
    <path d="M24.4 8.75 Q28.45 12.5 31.3 16.55 L31.4 16.9 32.6 17.25 33.35 18.85 40.05 26.7 Q41.65 44.7 41.45 63.2 41.35 75.45 43.75 87.35 L41.1 90.95 Q32.55 60.35 30.35 49.05 28.95 42.0 30.9 37.5 L33.1 34.4 Q32.8 30.55 30.35 28.1 23.35 21.1 22.1 19.3 20.9 17.7 21.05 15.1 21.2 12.1 23.1 9.8 23.7 9.1 24.4 8.75" fill="#4e79b6" fill-rule="evenodd" stroke="none"/>
    <path d="M24.4 8.75 Q28.1 6.65 34.75 13.35 40.15 18.7 43.85 27.25 45.4 30.9 45.45 39.0 L45.2 54.3 Q45.2 64.75 46.6 83.5 L43.75 87.35 Q41.35 75.45 41.45 63.2 41.65 44.7 40.05 26.7 L33.35 18.85 32.6 17.25 31.4 16.9 31.3 16.55 Q28.45 12.5 24.4 8.75" fill="#3c5d8c" fill-rule="evenodd" stroke="none"/>
    <path d="M113.9 60.9 L79.15 61.7 50.2 126.8 Q43.55 125.7 39.7 119.9 38.1 117.5 37.35 113.95 L37.2 111.65 Q37.05 109.55 40.0 104.55 L45.2 95.35 Q51.15 81.25 56.4 69.35 66.55 46.2 72.5 37.75 84.1 21.15 108.65 38.55 115.7 43.55 116.2 51.2 116.45 55.05 115.25 57.85 L114.6 59.95 113.9 60.9" fill="#005487" fill-rule="evenodd" stroke="none"/>
    <path d="M115.25 42.15 Q119.85 52.3 114.6 59.95 L115.25 57.85 Q116.45 55.05 116.2 51.2 115.7 43.55 108.65 38.55 84.1 21.15 72.5 37.75 66.55 46.2 56.4 69.35 51.15 81.25 45.2 95.35 L40.0 104.55 Q37.05 109.55 37.2 111.65 L37.35 113.95 Q36.05 108.05 37.2 97.85 37.7 94.0 41.65 88.8 46.1 82.85 46.85 80.75 L52.0 63.65 Q56.5 49.1 60.4 42.15 65.9 32.4 73.45 26.75 82.5 19.95 91.85 21.45 101.3 23.0 106.65 28.3 110.9 32.45 115.25 42.15" fill="#002941" fill-rule="evenodd" stroke="none"/>
    <path d="M107.25 38.5 Q119.8 46.8 113.9 60.9 112.6 64.05 104.35 69.3 L88.8 79.35 Q82.45 84.0 74.25 95.65 L67.3 106.4 45.2 100.05 Q47.15 97.3 49.35 90.15 51.2 84.1 59.85 65.3 69.05 45.45 73.05 39.65 77.55 33.25 87.4 32.7 97.65 32.1 107.25 38.5" fill="#003c62" fill-rule="evenodd" stroke="none"/>
    <path d="M67.0 105.55 L69.5 114.4 46.05 108.9 45.2 100.05 67.0 105.55" fill="#106588" fill-rule="evenodd" stroke="none"/>
    <path d="M46.85 108.6 L69.5 114.4 Q67.25 118.05 63.85 121.45 57.1 128.3 51.55 127.1 39.5 124.45 42.2 116.35 43.25 113.25 45.15 110.6 L46.85 108.6" fill="#003c62" fill-rule="evenodd" stroke="none"/>
  </g>
</svg>
