<?xml version="1.0" encoding="UTF-8" standalone="no"?>
<svg xmlns:xlink="http://www.w3.org/1999/xlink" height="133.0px" width="157.05px" xmlns="http://www.w3.org/2000/svg">
  <g transform="matrix(1.0, 0.0, 0.0, 1.0, 42.85, 2.95)">
    <path d="M21.0 -0.8 Q23.4 0.4 32.8 12.6 L34.15 14.45 Q37.3 19.15 35.05 26.95 40.7 35.35 42.8 40.05 44.9 44.7 43.95 49.65 L41.75 59.75 Q40.9 66.6 42.05 92.1 49.9 87.85 57.35 85.7 78.15 79.6 96.4 82.25 104.75 83.4 108.7 87.5 111.6 90.5 113.7 97.45 115.7 103.85 109.75 108.25 110.15 109.35 107.5 110.95 101.1 114.75 89.85 112.65 73.1 109.6 62.15 108.5 L51.8 108.2 51.8 110.6 51.55 110.65 51.45 111.65 50.4 110.9 Q34.8 114.0 31.75 113.35 29.25 112.85 29.6 110.5 L29.3 110.6 29.3 105.45 Q29.5 100.2 30.35 99.55 L33.65 97.15 30.0 62.15 Q29.55 57.2 30.95 51.9 L32.4 47.65 26.3 41.0 Q21.3 42.8 15.45 42.45 L12.7 41.9 Q9.35 40.95 7.85 39.7 6.35 38.4 4.05 31.3 L2.0 24.45 -3.55 27.55 Q-5.65 36.2 -7.35 39.0 -9.8 42.85 -20.85 38.65 L-21.75 38.3 -31.25 55.65 -28.1 56.4 Q-24.55 57.7 -22.6 60.5 -19.2 65.35 -10.8 73.65 -9.35 75.15 -5.8 77.45 L-3.7 76.65 -1.65 75.15 Q0.85 74.0 2.95 75.55 7.15 78.75 8.3 81.55 L8.45 81.35 10.35 84.05 Q12.35 87.1 12.85 88.8 14.15 93.0 13.4 97.9 L12.85 101.2 10.4 100.1 9.6 102.95 Q8.8 106.2 9.0 108.1 L9.6 115.9 Q9.75 121.8 8.15 123.55 4.8 127.3 3.4 128.05 -0.95 130.4 -10.05 129.9 -12.95 129.75 -26.85 130.05 -33.8 130.2 -36.25 127.95 -42.05 122.5 -39.55 119.95 L-37.75 118.0 -37.9 116.35 Q-37.55 110.1 -36.95 108.45 -35.45 104.4 -30.45 103.7 -22.7 102.55 -10.85 104.5 -9.5 102.55 -11.15 98.7 L-15.45 92.1 Q-18.15 87.75 -16.65 84.9 L-15.9 83.8 Q-17.85 82.35 -20.5 80.9 -37.25 71.9 -40.55 65.7 -42.8 61.55 -42.85 60.65 -43.0 59.2 -41.25 53.25 L-34.6 29.9 -35.4 28.95 Q-37.3 26.6 -36.1 23.65 -34.15 20.35 -33.65 18.6 -33.0 16.4 -28.1 6.55 L-23.3 -2.85 1.65 -2.85 Q15.85 -3.4 21.0 -0.8" fill="#106588" fill-rule="evenodd" stroke="none"/>
    <path d="M10.35 84.05 Q12.35 87.1 12.85 88.8 14.15 93.0 13.4 97.9 L12.85 101.2 10.4 100.1 9.6 102.95 Q8.8 106.2 9.0 108.1 L9.6 115.9 Q9.75 121.8 8.15 123.55 4.8 127.3 3.4 128.05 -0.95 130.4 -10.05 129.9 -12.95 129.75 -26.85 130.05 -33.8 130.2 -36.25 127.95 -42.05 122.5 -39.55 119.95 L-36.8 116.9 -22.95 118.05 Q-8.45 118.4 -5.35 114.45 -0.4 108.1 1.85 92.35 L8.45 81.35 10.35 84.05" fill="#005487" fill-rule="evenodd" stroke="none"/>
    <path d="M9.0 87.4 L6.8 97.05 Q5.25 103.05 5.4 106.7 5.55 109.9 6.1 114.1 6.1 117.0 3.5 118.55 -1.0 121.25 -9.35 124.15 -19.75 127.75 -24.65 126.85 -30.55 125.75 -34.15 123.05 -38.1 120.15 -37.9 116.35 -37.55 110.1 -36.95 108.45 -35.45 104.4 -30.45 103.7 -22.7 102.55 -10.85 104.5 -9.5 102.55 -11.15 98.7 L-15.45 92.1 Q-18.15 87.75 -16.65 84.9 -15.1 82.0 -9.25 79.05 -6.3 77.55 -3.7 76.65 L-1.65 75.15 Q0.85 74.0 2.95 75.55 6.2 78.0 7.5 80.05 9.55 83.15 9.0 87.4" fill="#002941" fill-rule="evenodd" stroke="none"/>
    <path d="M-27.3 33.05 Q-30.3 39.8 -32.75 46.6 L-32.95 46.7 Q-35.15 50.05 -35.5 54.55 -35.6 55.65 -36.1 56.1 L-35.7 58.85 -34.1 60.45 Q-34.15 61.85 -32.7 62.65 L-31.75 63.6 Q-17.85 70.95 -8.45 81.05 L-7.05 82.8 -0.15 88.3 Q-0.55 93.85 -4.6 92.0 -7.45 90.65 -11.65 87.1 -16.25 83.2 -20.5 80.9 -37.25 71.9 -40.55 65.7 -42.8 61.55 -42.85 60.65 -43.0 59.2 -41.25 53.25 L-34.35 29.05 -27.3 33.05" fill="#4e79b6" fill-rule="evenodd" stroke="none"/>
    <path d="M-27.3 33.05 L-20.85 36.65 -31.25 55.65 -28.1 56.4 Q-24.55 57.7 -22.6 60.5 -19.2 65.35 -10.8 73.65 -9.3 75.15 -4.35 78.35 -0.65 80.75 -0.45 82.3 0.0 85.95 -0.15 88.3 L-7.05 82.8 -8.45 81.05 Q-17.85 70.95 -31.75 63.6 L-32.7 62.65 Q-34.15 61.85 -34.1 60.45 L-35.7 58.85 -36.1 56.1 Q-35.6 55.65 -35.5 54.55 -35.15 50.05 -32.95 46.7 L-32.75 46.6 Q-30.3 39.8 -27.3 33.05" fill="#3c5d8c" fill-rule="evenodd" stroke="none"/>
    <path d="M-12.6 40.8 Q-15.85 40.55 -20.85 38.65 -30.35 35.05 -35.4 28.95 -37.3 26.6 -36.1 23.65 -34.15 20.35 -33.65 18.6 -33.0 16.4 -28.1 6.55 L-23.3 -2.85 1.65 -2.85 Q8.6 -3.1 13.35 -2.6 19.1 7.55 26.95 16.3 L29.6 18.95 15.45 42.45 Q10.3 41.75 7.85 39.7 6.35 38.4 4.05 31.3 L2.0 24.45 0.75 25.15 0.8 24.75 -5.85 25.5 -7.45 26.3 Q-11.2 32.85 -12.6 40.8" fill="#2f639b" fill-rule="evenodd" stroke="none"/>
    <path d="M13.35 -2.6 Q18.35 -2.15 21.0 -0.8 23.75 0.6 33.1 13.05 L29.6 18.95 26.95 16.3 Q19.1 7.55 13.35 -2.6 M0.75 25.15 L-3.55 27.55 Q-5.65 36.2 -7.35 39.0 -8.7 41.1 -12.6 40.8 -11.2 32.85 -7.45 26.3 L-5.85 25.5 0.8 24.75 0.75 25.15" fill="#214770" fill-rule="evenodd" stroke="none"/>
    <path d="M26.9 8.25 Q30.95 9.65 34.15 14.45 37.6 19.6 34.85 27.55 L32.05 36.2 Q30.85 39.55 25.45 41.3 20.8 42.75 15.45 42.45 11.5 42.25 11.0 39.75 11.15 36.4 10.95 34.5 10.6 30.15 11.8 24.5 13.45 16.65 17.55 11.65 21.75 6.5 26.9 8.25" fill="#002339" fill-rule="evenodd" stroke="none"/>
    <path d="M20.0 14.0 L33.2 32.8 Q36.6 37.75 38.45 41.6 38.8 51.5 38.1 61.6 36.9 78.45 39.75 94.55 L33.8 98.5 30.0 62.15 Q29.55 57.2 30.95 51.9 L32.4 47.65 Q20.65 35.2 17.2 30.35 14.9 27.15 15.1 25.45 L16.85 19.25 Q17.7 16.0 20.0 14.0" fill="#4e79b6" fill-rule="evenodd" stroke="none"/>
    <path d="M20.0 14.0 L21.3 13.0 Q23.0 11.9 24.45 11.65 L28.6 18.25 Q38.45 30.35 42.8 40.05 44.9 44.7 43.95 49.65 L41.75 59.75 Q40.7 68.05 42.1 92.95 L39.75 94.55 Q36.9 78.45 38.1 61.6 38.8 51.5 38.45 41.6 36.6 37.75 33.2 32.8 L20.0 14.0" fill="#3c5d8c" fill-rule="evenodd" stroke="none"/>
    <path d="M96.4 82.25 Q104.75 83.4 108.7 87.5 111.6 90.5 113.7 97.45 115.25 102.4 111.85 106.3 L108.2 109.2 Q69.1 104.7 58.35 105.05 51.65 105.25 39.8 107.95 L29.3 110.6 29.3 105.45 Q29.5 100.2 30.35 99.55 43.35 89.8 57.35 85.7 78.15 79.6 96.4 82.25" fill="#002339" fill-rule="evenodd" stroke="none"/>
    <path d="M51.8 110.6 Q35.2 114.05 31.75 113.35 29.55 112.9 29.55 111.0 L30.0 109.2 33.95 107.2 Q39.9 104.7 50.05 102.3 63.45 99.15 78.45 98.95 95.15 98.75 101.95 102.65 108.85 106.6 109.65 108.1 110.3 109.25 107.5 110.95 101.1 114.75 89.85 112.65 73.1 109.6 62.15 108.5 L51.8 108.2 51.8 110.6" fill="#003c62" fill-rule="evenodd" stroke="none"/>
    <path d="M51.8 108.2 L51.45 111.65 45.2 107.15 45.9 103.35 51.8 108.2" fill="#106588" fill-rule="evenodd" stroke="none"/>
  </g>
</svg>
