<?xml version="1.0" encoding="UTF-8" standalone="no"?>
<svg xmlns:xlink="http://www.w3.org/1999/xlink" height="150.9px" width="99.1px" xmlns="http://www.w3.org/2000/svg">
  <g transform="matrix(1.0, 0.0, 0.0, 1.0, 47.5, 3.9)">
    <path d="M-2.7 -2.5 L21.2 -3.9 29.85 9.95 Q32.6 15.1 36.4 33.45 L35.0 33.55 35.0 33.8 Q35.25 37.5 30.35 39.05 33.2 44.65 33.65 46.95 L34.75 51.65 Q35.05 54.45 33.3 59.75 32.45 62.3 28.0 70.85 24.7 77.25 24.3 82.25 L23.2 94.7 Q26.5 96.75 29.5 100.55 L36.25 108.95 Q41.6 115.65 44.9 120.55 54.95 135.65 49.9 140.0 43.9 145.2 36.75 146.55 29.5 147.95 23.6 144.85 16.7 141.25 13.85 137.75 10.1 133.1 10.1 125.45 L10.6 112.65 Q10.8 107.2 9.75 103.7 7.05 94.3 11.5 92.6 L13.65 92.25 13.9 86.05 13.3 77.65 Q12.85 72.2 14.25 68.75 15.8 65.05 19.0 60.3 L21.9 56.3 Q20.5 54.9 17.75 48.35 L14.3 40.15 Q7.4 39.35 4.75 35.8 L2.95 35.9 3.9 29.65 -1.65 30.0 -7.85 37.95 Q-11.6 37.5 -16.1 36.1 -25.25 44.7 -29.3 47.3 L-34.15 50.4 -27.95 55.25 Q-24.95 58.0 -16.35 63.6 -14.3 61.75 -11.7 61.8 L-8.0 64.35 Q-4.1 67.65 -3.05 71.5 -0.65 80.1 -0.85 85.3 -1.35 96.05 -9.6 106.1 -18.35 116.75 -24.85 118.25 -29.85 119.4 -34.15 115.1 -42.7 106.55 -36.6 97.45 L-30.0 88.5 Q-26.5 83.85 -24.5 79.8 L-20.95 71.35 -22.75 70.45 Q-25.65 69.0 -33.2 66.05 -39.9 63.45 -42.1 62.15 L-46.75 59.3 Q-48.1 57.9 -46.95 54.9 -40.65 38.15 -37.3 34.5 L-33.0 29.4 -35.9 28.25 -23.1 -2.85 -16.0 -2.45 Q-7.9 -2.1 -2.7 -2.5" fill="#3d83b9" fill-rule="evenodd" stroke="none"/>
    <path d="M-8.0 64.35 Q-4.1 67.65 -3.05 71.5 -0.65 80.1 -0.85 85.3 -1.35 96.05 -9.6 106.1 -18.35 116.75 -24.85 118.25 -29.85 119.4 -34.15 115.1 -42.7 106.55 -36.6 97.45 L-30.0 88.5 Q-26.5 83.85 -24.5 79.8 -22.75 76.35 -19.5 68.1 -16.25 61.6 -11.7 61.8 L-8.0 64.35" fill="#002941" fill-rule="evenodd" stroke="none"/>
    <path d="M-12.4 70.8 L-13.05 71.15 Q-16.3 72.8 -17.1 72.75 -18.25 72.75 -22.75 70.45 -25.65 69.0 -33.2 66.05 -39.9 63.45 -42.1 62.15 L-46.75 59.3 Q-48.1 57.9 -46.95 54.9 -40.65 38.15 -37.3 34.5 -33.8 30.7 -32.45 28.6 L-22.05 32.55 -22.35 32.95 Q-27.5 37.05 -31.0 42.4 -35.45 44.8 -38.05 47.9 L-38.05 51.4 Q-33.05 59.85 -23.3 65.4 -21.8 66.25 -20.8 67.1 L-13.7 69.85 -12.95 70.65 -12.4 70.8" fill="#4e79b6" fill-rule="evenodd" stroke="none"/>
    <path d="M-22.05 32.55 L-15.15 35.2 Q-24.5 44.2 -29.3 47.3 L-34.15 50.4 -27.95 55.25 Q-23.45 59.4 -12.05 66.3 -9.15 68.85 -12.4 70.8 L-12.95 70.65 -13.7 69.85 -20.8 67.1 Q-21.8 66.25 -23.3 65.4 -33.05 59.85 -38.05 51.4 L-38.05 47.9 Q-35.45 44.8 -31.0 42.4 -27.5 37.05 -22.35 32.95 L-22.05 32.55" fill="#3c5d8c" fill-rule="evenodd" stroke="none"/>
    <path d="M12.95 -3.5 Q20.65 8.0 24.95 21.15 25.65 23.15 25.55 25.1 26.65 26.5 27.2 28.1 28.2 30.95 29.7 33.95 L2.95 35.9 3.9 29.65 0.0 29.9 0.0 29.85 Q-1.4 29.3 -3.1 29.45 L-3.9 29.45 -7.45 31.8 Q-9.85 34.7 -11.25 37.4 -15.45 36.55 -19.65 34.85 L-35.9 28.25 -23.1 -2.85 -16.0 -2.45 Q-7.9 -2.1 -2.7 -2.5 L12.95 -3.5" fill="#2f639b" fill-rule="evenodd" stroke="none"/>
    <path d="M12.95 -3.5 L16.3 -3.65 17.1 -3.7 21.2 -3.9 29.85 9.95 Q32.15 14.25 35.2 27.8 L36.4 33.45 29.7 33.95 Q28.2 30.95 27.2 28.1 26.65 26.5 25.55 25.1 25.65 23.15 24.95 21.15 20.65 8.0 12.95 -3.5 M0.0 29.9 L-1.65 30.0 -7.85 37.95 -11.25 37.4 Q-9.85 34.7 -7.45 31.8 L-3.9 29.45 -3.1 29.45 Q-1.4 29.3 0.0 29.85 L0.0 29.9" fill="#214770" fill-rule="evenodd" stroke="none"/>
    <path d="M18.4 92.95 L21.75 93.9 Q25.8 95.8 29.5 100.55 L36.25 108.95 Q41.6 115.65 44.9 120.55 54.95 135.65 49.9 140.0 43.9 145.2 36.75 146.55 29.5 147.95 23.6 144.85 16.7 141.25 13.85 137.75 10.1 133.1 10.1 125.45 L10.6 112.65 Q10.8 107.2 9.75 103.7 7.05 94.3 11.5 92.6 14.25 91.55 18.4 92.95" fill="#002941" fill-rule="evenodd" stroke="none"/>
    <path d="M20.15 40.35 Q8.1 40.85 4.6 35.55 3.1 33.3 6.9 31.95 10.3 30.75 20.15 29.65 28.8 28.7 32.15 29.9 34.85 30.9 35.0 33.8 35.25 37.35 30.8 38.9 27.45 40.1 20.15 40.35" fill="#002339" fill-rule="evenodd" stroke="none"/>
    <path d="M20.5 100.9 L17.95 102.0 Q16.1 102.35 14.95 100.55 13.1 97.6 13.9 86.05 L13.3 77.65 Q12.85 72.2 14.25 68.75 15.8 65.05 19.0 60.3 L21.9 56.3 Q20.5 54.9 17.75 48.35 L12.2 35.2 13.9 34.15 Q16.2 32.95 19.45 32.05 L20.95 31.7 Q22.65 35.5 24.5 38.8 L24.75 38.85 Q25.8 43.45 27.45 47.7 28.55 50.6 29.05 53.0 28.15 58.2 26.8 62.15 25.35 66.3 24.35 70.65 L22.8 73.0 22.4 76.95 Q19.6 86.2 20.0 96.95 20.1 99.0 20.5 100.9" fill="#4e79b6" fill-rule="evenodd" stroke="none"/>
    <path d="M20.95 31.7 Q24.95 30.95 26.7 32.4 L29.9 38.25 Q33.2 44.6 33.65 46.95 L34.75 51.65 Q35.05 54.45 33.3 59.75 32.45 62.3 28.0 70.85 24.7 77.25 24.3 82.25 L23.25 94.25 Q22.55 99.9 21.2 100.55 L20.5 100.9 Q20.1 99.0 20.0 96.95 19.6 86.2 22.4 76.95 L22.8 73.0 24.35 70.65 Q25.35 66.3 26.8 62.15 28.15 58.2 29.05 53.0 28.55 50.6 27.45 47.7 25.8 43.45 24.75 38.85 L24.5 38.8 Q22.65 35.5 20.95 31.7" fill="#3c5d8c" fill-rule="evenodd" stroke="none"/>
  </g>
</svg>
