<?xml version="1.0" encoding="UTF-8" standalone="no"?>
<svg xmlns:xlink="http://www.w3.org/1999/xlink" height="142.9px" width="109.25px" xmlns="http://www.w3.org/2000/svg">
  <g transform="matrix(1.0, 0.0, 0.0, 1.0, 58.45, 3.9)">
    <path d="M-1.5 -2.5 L22.4 -3.9 31.05 9.95 Q33.8 15.1 37.6 33.45 L36.2 33.55 36.2 33.8 Q36.45 37.5 31.55 39.05 34.4 44.65 34.85 46.95 L35.95 51.65 Q36.25 54.45 34.5 59.75 33.6 62.4 29.25 70.85 25.9 77.3 25.5 82.25 25.3 84.65 24.0 84.85 22.6 85.1 22.4 86.7 25.7 88.75 28.7 92.55 L35.45 100.95 Q40.8 107.65 44.1 112.55 54.15 127.65 49.1 132.0 43.1 137.2 35.95 138.55 28.7 139.95 22.8 136.85 15.9 133.25 13.05 129.75 9.3 125.1 9.3 117.45 L9.8 104.65 Q10.0 99.2 8.95 95.7 6.25 86.3 10.7 84.6 L12.85 84.25 13.1 78.05 Q13.35 74.2 13.5 73.65 L15.45 68.75 Q17.0 65.05 20.2 60.3 L23.1 56.3 Q21.7 54.9 18.95 48.35 L15.5 40.15 Q8.6 39.35 5.95 35.8 L4.15 35.9 5.1 29.65 -0.45 30.0 -6.65 37.95 Q-10.4 37.5 -14.9 36.1 -24.05 44.7 -28.1 47.3 L-32.95 50.4 -32.65 53.95 Q-32.0 58.15 -30.25 61.55 -28.45 65.1 -22.25 73.4 -19.65 72.3 -17.25 73.3 L-14.65 76.95 Q-12.1 81.35 -12.45 85.35 -13.15 94.25 -15.15 99.05 -19.25 109.0 -30.45 115.6 -42.3 122.6 -48.95 121.8 -54.05 121.15 -56.6 115.65 -61.7 104.7 -52.85 98.25 L-43.6 92.1 Q-38.7 88.9 -35.45 85.8 L-29.25 79.05 -30.6 77.65 Q-32.85 75.3 -38.95 69.9 -44.35 65.15 -45.95 63.2 -47.95 60.8 -47.65 59.35 L-45.75 54.9 Q-39.45 38.15 -36.1 34.5 L-31.8 29.4 -34.7 28.25 -21.9 -2.85 -14.8 -2.45 Q-6.7 -2.1 -1.5 -2.5" fill="#3d83b9" fill-rule="evenodd" stroke="none"/>
    <path d="M-43.6 92.1 Q-38.7 88.9 -35.45 85.8 -32.6 83.15 -26.75 76.5 -21.45 71.55 -17.25 73.3 L-14.65 76.95 Q-12.1 81.35 -12.45 85.35 -13.15 94.25 -15.15 99.05 -19.25 109.0 -30.45 115.6 -42.3 122.6 -48.95 121.8 -54.05 121.15 -56.6 115.65 -61.7 104.7 -52.85 98.25 L-43.6 92.1" fill="#002941" fill-rule="evenodd" stroke="none"/>
    <path d="M-21.7 32.25 Q-28.05 41.25 -35.6 47.3 -36.45 48.05 -37.25 48.25 -38.5 52.7 -38.45 58.1 -38.45 60.1 -38.05 62.0 -35.7 64.6 -34.1 67.5 L-33.35 68.7 Q-27.6 75.3 -19.35 80.9 -20.2 81.45 -21.75 81.6 L-26.1 81.75 Q-27.1 81.3 -30.6 77.65 -32.85 75.3 -38.95 69.9 -44.35 65.15 -45.95 63.2 -47.95 60.8 -47.65 59.35 L-45.75 54.9 Q-39.45 38.15 -36.1 34.5 -32.6 30.7 -31.25 28.6 L-21.7 32.25" fill="#4e79b6" fill-rule="evenodd" stroke="none"/>
    <path d="M-21.7 32.25 L-13.95 35.2 Q-23.3 44.2 -28.1 47.3 L-32.95 50.4 -32.65 53.95 Q-32.0 58.15 -30.25 61.55 -27.45 67.0 -19.1 77.4 -17.75 79.85 -19.35 80.9 -27.6 75.3 -33.35 68.7 L-34.1 67.5 Q-35.7 64.6 -38.05 62.0 -38.45 60.1 -38.45 58.1 -38.5 52.7 -37.25 48.25 -36.45 48.05 -35.6 47.3 -28.05 41.25 -21.7 32.25" fill="#3c5d8c" fill-rule="evenodd" stroke="none"/>
    <path d="M13.8 -3.45 Q21.05 7.25 24.3 19.5 25.55 24.25 27.1 28.65 L27.1 31.0 29.2 34.1 4.15 35.9 5.1 29.65 -0.45 30.0 -0.85 30.55 Q-1.9 28.8 -3.3 27.25 L-3.5 27.45 Q-4.35 29.5 -6.25 31.0 -7.0 31.55 -7.85 31.8 L-8.6 32.95 -9.8 33.35 -12.1 36.95 Q-15.25 36.15 -18.45 34.85 L-34.7 28.25 -21.9 -2.85 -14.8 -2.45 Q-6.7 -2.1 -1.5 -2.5 L13.8 -3.45" fill="#2f639b" fill-rule="evenodd" stroke="none"/>
    <path d="M13.8 -3.45 L15.05 -3.55 22.4 -3.9 31.05 9.95 Q33.8 15.1 37.6 33.45 L29.2 34.1 27.1 31.0 27.1 28.65 Q25.55 24.25 24.3 19.5 21.05 7.25 13.8 -3.45 M-0.85 30.55 L-6.65 37.95 -12.1 36.95 -9.8 33.35 -8.6 32.95 -7.85 31.8 Q-7.0 31.55 -6.25 31.0 -4.35 29.5 -3.5 27.45 L-3.3 27.25 Q-1.9 28.8 -0.85 30.55" fill="#214770" fill-rule="evenodd" stroke="none"/>
    <path d="M17.6 84.95 L20.95 85.9 Q25.0 87.8 28.7 92.55 L35.45 100.95 Q40.8 107.65 44.1 112.55 54.15 127.65 49.1 132.0 43.1 137.2 35.95 138.55 28.7 139.95 22.8 136.85 15.9 133.25 13.05 129.75 9.3 125.1 9.3 117.45 L9.8 104.65 Q10.0 99.2 8.95 95.7 6.25 86.3 10.7 84.6 13.45 83.55 17.6 84.95" fill="#002941" fill-rule="evenodd" stroke="none"/>
    <path d="M21.35 40.35 Q9.3 40.85 5.8 35.55 4.3 33.3 8.1 31.95 11.5 30.75 21.35 29.65 30.0 28.7 33.35 29.9 36.05 30.9 36.2 33.8 36.45 37.35 32.0 38.9 28.65 40.1 21.35 40.35" fill="#002339" fill-rule="evenodd" stroke="none"/>
    <path d="M20.35 92.6 L17.15 94.0 Q15.3 94.35 14.15 92.55 12.45 89.75 13.1 78.05 13.35 74.2 13.5 73.65 L15.45 68.75 Q17.0 65.05 20.2 60.3 L23.1 56.3 Q21.7 54.9 18.95 48.35 L13.4 35.2 15.1 34.15 Q17.4 32.95 20.65 32.05 L22.1 31.75 Q24.8 39.65 27.7 46.2 L27.9 46.3 28.0 47.1 28.3 47.9 Q29.1 49.15 29.4 50.65 L29.45 51.4 30.25 52.2 29.85 58.85 29.05 59.65 Q29.3 61.6 28.65 62.8 26.5 66.85 25.55 71.8 L24.35 73.4 Q22.5 79.3 21.1 85.45 20.3 88.9 20.35 92.6" fill="#4e79b6" fill-rule="evenodd" stroke="none"/>
    <path d="M22.1 31.75 Q26.15 30.95 27.9 32.4 L31.1 38.25 Q34.4 44.6 34.85 46.95 L35.95 51.65 Q36.25 54.45 34.5 59.75 33.6 62.4 29.25 70.85 25.9 77.3 25.5 82.25 25.05 87.95 23.45 90.25 22.65 91.45 20.4 92.55 L20.35 92.6 Q20.3 88.9 21.1 85.45 22.5 79.3 24.35 73.4 L25.55 71.8 Q26.5 66.85 28.65 62.8 29.3 61.6 29.05 59.65 L29.85 58.85 30.25 52.2 29.45 51.4 29.4 50.65 Q29.1 49.15 28.3 47.9 L28.0 47.1 27.9 46.3 27.7 46.2 Q24.8 39.65 22.1 31.75" fill="#3c5d8c" fill-rule="evenodd" stroke="none"/>
  </g>
</svg>
