<?xml version="1.0" encoding="UTF-8" standalone="no"?>
<svg xmlns:xlink="http://www.w3.org/1999/xlink" height="58.1px" width="43.55px" xmlns="http://www.w3.org/2000/svg">
  <g transform="matrix(1.0, 0.0, 0.0, 1.0, 21.8, 29.1)">
    <path d="M-14.85 -25.25 L-14.8 -25.1 -14.6 -24.75 -14.2 -24.65 Q-13.4 -22.65 -11.35 -21.35 L-9.95 -20.4 -9.0 -19.0 -6.65 -17.55 Q1.2 -10.45 11.65 -11.8 12.75 -5.65 12.85 0.8 13.0 10.2 11.65 19.15 L10.5 25.85 1.4 25.9 -19.9 24.5 -21.8 23.05 -21.4 3.15 Q-21.2 -8.55 -21.7 -20.7 -20.7 -22.85 -18.15 -23.8 L-15.15 -25.1 -14.85 -25.25" fill="#376ca2" fill-rule="evenodd" stroke="none"/>
    <path d="M-14.85 -25.25 L-10.9 -26.8 -3.8 -29.1 Q-0.25 -27.65 3.2 -27.45 L4.05 -27.45 7.2 -27.45 Q14.3 -27.0 19.85 -22.45 21.1 -21.4 21.75 -20.05 L21.7 -19.45 Q18.3 -14.05 11.85 -11.85 L11.65 -11.8 Q1.2 -10.45 -6.65 -17.55 L-9.0 -19.0 -9.95 -20.4 -11.35 -21.35 Q-13.4 -22.65 -14.2 -24.65 L-14.6 -24.75 -14.8 -25.1 -14.85 -25.25 M19.45 25.35 L19.0 25.75 Q14.75 28.6 9.8 29.0 L4.95 28.85 -9.7 27.65 Q-15.5 27.55 -19.9 24.5 L1.4 25.9 10.5 25.85 19.45 25.35" fill="#112f5e" fill-rule="evenodd" stroke="none"/>
    <path d="M11.65 -11.8 L11.85 -11.85 Q18.3 -14.05 21.7 -19.45 20.55 -7.4 19.75 4.55 19.05 14.9 19.55 25.3 L19.45 25.35 10.5 25.85 11.65 19.15 Q13.0 10.2 12.85 0.8 12.75 -5.65 11.65 -11.8" fill="#174777" fill-rule="evenodd" stroke="none"/>
  </g>
</svg>
