<?xml version="1.0" encoding="UTF-8" standalone="no"?>
<svg xmlns:xlink="http://www.w3.org/1999/xlink" height="47.85px" width="63.65px" xmlns="http://www.w3.org/2000/svg">
  <g transform="matrix(1.0, 0.0, 0.0, 1.0, 11.85, 2.2)">
    <path d="M2.75 8.05 L3.3 8.3 3.3 19.8 3.75 19.8 -2.45 36.6 Q-0.65 32.9 4.35 30.7 10.8 27.95 19.25 24.95 L22.6 29.0 Q14.55 33.75 3.6 36.95 -8.55 40.45 -8.05 36.45 -7.35 30.7 2.75 8.05" fill="#3b5d8b" fill-rule="evenodd" stroke="none"/>
    <path d="M3.6 36.95 Q14.55 33.75 22.6 29.0 L23.85 30.5 Q-6.55 48.85 -10.2 44.95 -13.2 41.75 -10.8 32.2 L-6.25 18.7 Q-4.05 12.65 -0.9 6.5 L2.75 8.05 Q-7.35 30.7 -8.05 36.45 -8.55 40.45 3.6 36.95" fill="#4e79b3" fill-rule="evenodd" stroke="none"/>
    <path d="M42.0 8.3 Q44.0 6.1 45.75 7.3 47.6 8.55 47.25 10.85 L50.5 10.75 51.2 11.45 Q51.95 12.75 51.75 13.65 51.6 14.4 50.65 15.4 L45.0 23.1 Q40.15 29.7 39.5 29.05 L38.1 29.6 32.8 32.8 Q30.3 34.3 27.75 34.55 33.3 31.85 36.8 28.7 40.75 25.15 43.2 21.25 45.65 17.4 45.1 15.75 L42.0 8.3" fill="#3b5d8b" fill-rule="evenodd" stroke="none"/>
    <path d="M41.85 8.4 L42.0 8.3 45.1 15.75 Q45.65 17.4 43.2 21.25 40.75 25.1 36.8 28.7 33.3 31.85 27.75 34.55 23.9 35.05 22.7 33.35 L17.2 26.65 Q14.1 22.0 15.85 19.75 L20.6 14.45 Q22.55 12.15 22.7 11.1 L22.7 8.15 Q22.7 6.15 23.15 5.5 25.1 7.2 25.5 8.15 27.0 11.15 24.0 18.1 L27.3 14.65 26.65 16.2 29.05 15.2 36.5 7.8 Q38.3 6.15 39.1 6.7 L41.85 8.4" fill="#4e79b3" fill-rule="evenodd" stroke="none"/>
    <path d="M24.0 18.1 Q27.0 11.15 25.5 8.15 25.1 7.2 23.15 5.5 23.5 5.0 24.05 5.15 L24.75 5.4 Q26.45 6.1 27.45 7.45 28.75 9.15 28.3 11.2 L27.3 14.65 24.0 18.1" fill="#3b5d8b" fill-rule="evenodd" stroke="none"/>
    <path d="M8.05 16.5 L7.8 23.5 -6.9 15.75 1.15 -2.2 8.05 16.5" fill="#336da1" fill-rule="evenodd" stroke="none"/>
  </g>
</svg>
