<?xml version="1.0" encoding="UTF-8" standalone="no"?>
<svg xmlns:xlink="http://www.w3.org/1999/xlink" height="23.15px" width="32.6px" xmlns="http://www.w3.org/2000/svg">
  <g transform="matrix(1.0, 0.0, 0.0, 1.0, 15.15, 13.25)">
    <path d="M17.4 -6.25 L16.95 -4.5 17.25 -4.25 17.25 0.25 17.25 3.25 Q15.2 4.95 12.85 5.85 L11.45 6.05 Q10.2 7.15 9.05 8.6 L8.2 9.75 Q-2.75 10.7 -12.9 4.8 -15.55 3.25 -15.05 0.8 -13.85 -5.25 -14.5 -10.1 -12.1 -11.4 -9.0 -12.0 0.35 -13.65 7.8 -11.75 7.9 -12.9 9.0 -13.25 L12.5 -13.0 14.3 -11.55 16.5 -10.0 Q17.7 -8.5 17.4 -6.25 M12.75 2.0 L12.5 3.25 12.75 3.0 12.75 2.0 M12.6 0.9 L12.75 1.15 12.75 0.75 12.75 0.65 12.6 0.9" fill="#4a7bb5" fill-rule="evenodd" stroke="none"/>
  </g>
</svg>
