<?xml version="1.0" encoding="UTF-8" standalone="no"?>
<svg xmlns:xlink="http://www.w3.org/1999/xlink" height="316.0px" width="146.35px" xmlns="http://www.w3.org/2000/svg">
  <g transform="matrix(1.0, 0.0, 0.0, 1.0, 73.15, 158.0)">
    <path d="M71.55 -12.6 Q73.2 3.45 73.2 31.0 73.2 53.95 67.95 76.95 62.75 99.45 53.6 117.7 44.15 136.4 32.3 146.85 19.65 158.0 6.2 158.0 -7.25 158.0 -19.9 146.85 -31.75 136.4 -41.2 117.7 -50.4 99.45 -55.55 76.95 -60.8 53.95 -60.8 31.0 -60.8 4.55 -58.75 -12.6 -56.15 -34.15 -49.7 -48.2 -34.7 -81.0 6.2 -81.0 48.7 -81.0 63.15 -48.2 69.25 -34.35 71.55 -12.6" fill="#003c62" fill-rule="evenodd" stroke="none"/>
    <path d="M3.5 -110.0 Q-2.15 -102.65 -4.2 -99.25 -7.65 -93.5 -6.15 -88.0 -4.7 -82.6 -8.1 -84.1 L-11.8 -86.65 Q-12.95 -87.0 -13.5 -88.9 -14.5 -92.75 -11.15 -100.65 -9.55 -104.4 -6.25 -109.5 L-1.15 -117.5 Q4.05 -126.5 0.85 -133.35 -2.5 -140.4 -7.15 -146.9 L-11.15 -152.0 -6.5 -158.0 0.75 -149.85 Q8.25 -140.5 9.5 -134.65 12.05 -122.8 3.5 -110.0" fill="#031f32" fill-rule="evenodd" stroke="none"/>
    <path d="M59.2 -19.6 Q60.85 -3.55 60.85 24.0 60.85 46.95 55.6 69.95 50.4 92.45 41.25 110.7 31.8 129.4 19.95 139.85 7.3 151.0 -6.15 151.0 -19.6 151.0 -32.25 139.85 -44.1 129.4 -53.5 110.7 -62.7 92.45 -67.9 69.95 -73.15 46.95 -73.15 24.0 -73.15 -2.45 -71.1 -19.6 -68.5 -41.15 -62.05 -55.2 -47.05 -88.0 -6.15 -88.0 36.35 -88.0 50.8 -55.2 56.9 -41.35 59.2 -19.6" fill="#3f82ad" fill-rule="evenodd" stroke="none"/>
    <path d="M8.0 -16.0 L-21.45 -16.0 -21.45 -65.35 8.0 -65.35 8.0 -16.0" fill="#003c62" fill-rule="evenodd" stroke="none"/>
    <path d="M1.9 -19.35 L-15.9 -19.35 -15.9 -59.35 1.9 -59.35 1.9 -19.35" fill="#578fbe" fill-rule="evenodd" stroke="none"/>
    <path d="M1.9 -19.35 L-15.9 -19.35 -15.9 -49.35 1.9 -49.35 1.9 -19.35" fill="#357aa6" fill-rule="evenodd" stroke="none"/>
    <path d="M1.9 -19.35 L-15.9 -19.35 -15.9 -30.65 1.9 -30.65 1.9 -19.35" fill="#005173" fill-rule="evenodd" stroke="none"/>
    <path d="M50.45 -33.8 Q48.2 -55.6 42.0 -69.5 53.65 -55.8 57.8 -29.85 60.85 -11.1 60.85 24.0 60.85 46.95 55.6 69.95 50.4 92.45 41.25 110.7 31.8 129.4 19.95 139.85 7.3 151.0 -6.15 151.0 -19.15 151.0 -31.4 140.6 -42.95 130.8 -52.25 113.15 -34.9 137.0 -14.85 137.0 -1.4 137.0 11.25 125.85 23.1 115.4 32.55 96.7 41.75 78.5 46.9 55.95 52.15 32.95 52.15 10.0 52.15 -17.7 50.45 -33.8" fill="#135e87" fill-rule="evenodd" stroke="none"/>
    <path d="M-1.15 -86.0 Q-42.05 -86.0 -57.05 -53.2 -63.5 -39.15 -66.1 -17.6 -68.15 -0.45 -68.15 26.0 -68.15 66.5 -53.25 102.3 -38.1 138.8 -16.0 149.45 -27.85 145.7 -38.6 133.45 -48.8 121.75 -56.7 104.0 -73.15 67.0 -73.15 24.0 -73.15 -2.45 -71.1 -19.6 -68.5 -41.15 -62.05 -55.2 -47.05 -88.0 -6.15 -88.0 12.4 -88.0 25.3 -82.05 14.05 -86.0 -1.15 -86.0" fill="#87acc0" fill-rule="evenodd" stroke="none"/>
    <path d="M-7.0 -60.0 L-17.25 -60.0 -17.25 -15.35 -7.0 -15.35 -7.0 8.65 -65.65 8.65 Q-64.55 -33.75 -53.85 -54.0 -40.2 -79.85 -7.0 -81.85 L-7.0 -60.0 M7.85 -15.35 L7.85 -60.0 -3.5 -60.0 -3.5 -81.95 Q31.65 -80.35 45.2 -54.45 55.45 -34.9 56.3 8.65 L-3.5 8.65 -3.5 -15.35 7.85 -15.35" fill="#003c62" fill-rule="evenodd" stroke="none"/>
    <path d="M-9.0 -83.85 L-9.0 -62.0 -19.25 -62.0 -19.25 -17.35 -9.0 -17.35 -9.0 6.65 -67.65 6.65 Q-66.55 -35.75 -55.85 -56.0 -42.2 -81.85 -9.0 -83.85 M5.85 -17.35 L5.85 -62.0 -5.5 -62.0 -5.5 -83.95 Q29.65 -82.35 43.2 -56.45 53.45 -36.9 54.3 6.65 L-5.5 6.65 -5.5 -17.35 5.85 -17.35" fill="#578fbe" fill-rule="evenodd" stroke="none"/>
  </g>
</svg>
