<?xml version="1.0" encoding="UTF-8" standalone="no"?>
<svg xmlns:xlink="http://www.w3.org/1999/xlink" height="2200.25px" width="2480.65px" xmlns="http://www.w3.org/2000/svg">
  <g transform="matrix(1.0, 0.0, 0.0, 1.0, 949.9, 977.95)">
    <path d="M1514.2 372.55 L1530.25 372.55 1530.25 596.9 1514.2 596.9 1514.2 1221.8 797.15 1221.8 797.15 1189.75 -773.15 1189.75 -773.15 404.6 -949.4 404.6 -949.4 -12.05 -925.35 -12.0 -925.35 -977.45 1510.2 -977.45 1510.2 -677.0 1514.2 -677.0 1514.2 372.55 805.2 372.55 805.2 396.6 805.2 372.55 1514.2 372.55 M805.2 400.6 L805.2 396.6 801.2 396.6 801.2 0.0 0.05 0.0 0.0 -12.05 -925.35 -12.0 0.0 -12.05 0.05 0.0 0.0 400.6 805.2 400.6 825.2 400.6 825.2 596.9 1514.2 596.9 825.2 596.9 825.2 400.6 805.2 400.6 M1510.2 -677.0 L1510.2 0.0 801.2 0.0 1510.2 0.0 1510.2 -677.0 M-773.15 404.6 L0.0 404.6 0.0 400.6 0.0 404.6 -773.15 404.6 M825.2 596.9 L825.2 1189.75 797.15 1189.75 825.2 1189.75 825.2 596.9" fill="#000000" fill-rule="evenodd" stroke="none"/>
    <path d="M1510.2 -677.0 L1514.2 -677.0 1514.2 372.55 M805.2 396.6 L801.2 396.6 801.2 0.0" fill="none" stroke="#000000" stroke-linecap="round" stroke-linejoin="round" stroke-width="1.0"/>
    <path d="M1514.2 372.55 L1530.25 372.55 1530.25 596.9 1514.2 596.9 1514.2 1221.8 797.15 1221.8 797.15 1189.75 -773.15 1189.75 -773.15 404.6 -949.4 404.6 -949.4 -12.05 -925.35 -12.0 -925.35 -977.45 1510.2 -977.45 1510.2 -677.0 M1514.2 372.55 L805.2 372.55 805.2 396.6 805.2 400.6 825.2 400.6 825.2 596.9 1514.2 596.9 M-925.35 -12.0 L0.0 -12.05 0.05 0.0 801.2 0.0 1510.2 0.0 1510.2 -677.0 M797.15 1189.75 L825.2 1189.75 825.2 596.9 M0.0 400.6 L0.0 404.6 -773.15 404.6 M0.05 0.0 L0.0 400.6 805.2 400.6" fill="none" stroke="#000000" stroke-linecap="round" stroke-linejoin="round" stroke-width="1.0"/>
  </g>
</svg>
