<?xml version="1.0" encoding="UTF-8" standalone="no"?>
<svg xmlns:xlink="http://www.w3.org/1999/xlink" height="132.9px" width="106.65px" xmlns="http://www.w3.org/2000/svg">
  <g transform="matrix(1.0, 0.0, 0.0, 1.0, 53.3, 66.45)">
    <path d="M13.15 66.1 L-3.85 -65.25 3.6 -65.6 19.55 66.45 13.15 66.1" fill="#003d62" fill-rule="evenodd" stroke="none"/>
    <path d="M53.35 -32.35 L-44.75 -13.9 -53.3 -58.45 48.0 -66.45 53.35 -32.35" fill="#75a7c9" fill-rule="evenodd" stroke="none"/>
    <path d="M-0.2 -61.15 Q1.6 -61.15 1.6 -59.35 1.6 -57.55 -0.2 -57.55 -2.0 -57.55 -2.0 -59.35 -2.0 -61.15 -0.2 -61.15" fill="#003d62" fill-rule="evenodd" stroke="none"/>
    <path d="M6.4 -27.4 Q6.4 -25.75 4.75 -25.75 3.05 -25.75 3.05 -27.4 3.05 -29.1 4.75 -29.1 6.4 -29.1 6.4 -27.4" fill="#003d62" fill-rule="evenodd" stroke="none"/>
    <path d="M-26.1 -50.0 Q-25.95 -48.65 -22.3 -47.5 -18.65 -46.25 -18.3 -43.4 -18.05 -41.25 -19.4 -39.65 -20.75 -38.05 -23.15 -37.75 -25.5 -37.5 -27.8 -38.5 L-26.9 -40.95 Q-25.1 -40.0 -23.85 -40.2 -21.15 -40.45 -21.5 -42.9 -21.65 -44.25 -25.2 -45.3 -28.8 -46.45 -29.2 -49.55 -29.4 -51.6 -28.05 -53.15 -26.7 -54.7 -24.25 -55.0 -22.05 -55.3 -19.45 -54.2 L-20.45 -51.85 Q-22.5 -52.7 -23.7 -52.55 -26.4 -52.2 -26.1 -50.0" fill="#ffffff" fill-rule="evenodd" stroke="none"/>
    <path d="M-10.45 -49.6 L-9.75 -42.9 Q-9.6 -41.65 -8.6 -41.75 L-7.35 -42.5 -6.3 -40.8 -7.2 -40.2 Q-8.0 -39.6 -8.95 -39.45 -12.2 -39.1 -12.65 -42.65 L-13.35 -49.25 -14.95 -49.05 -15.25 -51.2 -13.6 -51.4 -14.05 -55.65 -11.15 -56.05 -10.75 -51.75 -8.05 -52.1 -7.8 -49.9 -10.45 -49.6" fill="#ffffff" fill-rule="evenodd" stroke="none"/>
    <path d="M0.55 -51.15 Q-0.35 -51.05 -2.35 -49.1 L-3.95 -50.5 Q-1.35 -53.25 1.0 -53.55 4.45 -53.95 4.9 -50.55 L5.4 -44.55 Q5.6 -43.4 6.25 -43.5 L7.05 -43.95 7.9 -42.55 Q6.5 -41.35 5.5 -41.25 3.75 -41.05 3.25 -42.6 2.05 -40.8 0.4 -40.65 -3.25 -40.2 -3.6 -43.7 -4.05 -47.1 2.25 -48.9 L2.15 -49.7 Q1.9 -51.25 0.55 -51.15 M2.45 -47.1 Q-1.1 -45.75 -0.9 -44.1 -0.75 -42.75 0.8 -42.9 1.85 -43.05 2.7 -44.3 L2.45 -47.1" fill="#ffffff" fill-rule="evenodd" stroke="none"/>
    <path d="M16.9 -52.55 L16.2 -52.55 Q14.7 -52.4 13.95 -50.15 L14.8 -42.7 11.85 -42.35 10.5 -54.35 13.45 -54.75 13.65 -52.5 13.7 -52.5 Q14.4 -55.15 16.2 -55.4 L17.05 -55.4 16.9 -52.55" fill="#ffffff" fill-rule="evenodd" stroke="none"/>
    <path d="M19.65 -55.5 L21.25 -55.65 20.85 -59.95 23.75 -60.3 24.2 -56.0 26.85 -56.4 27.1 -54.2 24.4 -53.85 25.2 -47.15 Q25.3 -45.85 26.3 -46.0 26.8 -46.1 27.55 -46.75 L28.6 -45.1 27.7 -44.45 Q26.9 -43.9 25.95 -43.75 22.7 -43.4 22.25 -46.95 L21.55 -53.5 19.9 -53.3 19.65 -55.5" fill="#ffffff" fill-rule="evenodd" stroke="none"/>
    <path d="M25.2 -39.2 Q26.85 -39.45 27.6 -37.6 L27.85 -36.7 24.55 -36.1 Q24.9 -34.5 26.05 -34.75 L27.15 -35.65 28.0 -35.1 Q27.2 -33.95 26.05 -33.7 23.8 -33.35 23.3 -36.0 23.15 -36.8 23.3 -37.35 23.5 -38.9 25.2 -39.2 M26.45 -37.55 Q26.15 -38.5 25.35 -38.3 24.55 -38.2 24.5 -37.45 L24.5 -37.0 26.5 -37.35 26.45 -37.55 M29.95 -42.3 L30.85 -37.25 29.6 -37.0 28.7 -42.05 29.95 -42.3 M21.7 -38.1 L21.7 -36.9 21.3 -36.9 Q20.4 -36.75 20.0 -35.8 L20.7 -32.75 18.95 -32.5 17.8 -37.4 19.55 -37.7 19.75 -36.75 19.8 -36.75 Q20.15 -37.9 21.2 -38.05 L21.7 -38.1 M29.9 -35.95 L31.2 -36.2 31.4 -34.95 30.15 -34.7 29.9 -35.95 M7.65 -39.45 L8.25 -35.95 8.35 -36.0 8.45 -35.35 8.5 -35.35 Q8.95 -36.25 10.0 -36.45 11.35 -36.75 11.65 -35.15 L12.3 -31.4 11.05 -31.2 10.5 -34.45 Q10.25 -35.3 9.65 -35.2 9.15 -35.15 8.65 -34.35 L9.25 -30.85 8.05 -30.6 7.4 -34.1 7.3 -34.05 6.4 -39.2 7.65 -39.45 M17.3 -33.0 Q16.5 -31.85 15.4 -31.6 13.15 -31.25 12.65 -33.9 12.15 -36.65 14.5 -37.05 16.55 -37.4 17.15 -34.55 L13.9 -33.95 Q14.2 -32.4 15.35 -32.6 L16.45 -33.55 17.3 -33.0 M13.85 -34.85 L15.8 -35.25 Q15.5 -36.4 14.65 -36.15 13.65 -36.0 13.85 -34.85 M-14.6 -33.0 L-14.8 -34.25 -13.55 -34.45 -13.35 -33.2 -14.6 -33.0 M-13.2 -32.0 L-12.25 -26.85 -13.5 -26.6 -14.45 -31.75 -13.2 -32.0 M-17.5 -33.75 L-16.15 -26.1 -17.35 -25.85 -18.75 -33.55 -17.5 -33.75 M-2.2 -31.45 L0.05 -29.5 -0.85 -28.65 -3.4 -31.1 -2.95 -28.55 -4.2 -28.35 -5.55 -35.95 -4.35 -36.25 -3.5 -31.3 -1.75 -34.4 -0.75 -33.8 -2.2 -31.45 M-7.25 -31.6 Q-7.95 -32.05 -8.4 -31.95 -9.55 -31.75 -9.2 -30.1 -8.95 -28.35 -7.8 -28.6 -7.3 -28.7 -6.85 -29.35 L-6.1 -28.85 Q-6.7 -27.75 -7.8 -27.5 -10.0 -27.1 -10.5 -29.75 -11.05 -32.45 -8.65 -32.95 -7.65 -33.15 -6.65 -32.45 L-7.25 -31.6 M-22.9 -32.95 Q-21.95 -33.2 -20.9 -32.15 L-21.5 -30.95 Q-22.2 -31.55 -22.6 -31.45 -23.75 -31.15 -23.4 -28.75 -23.1 -26.25 -21.95 -26.6 -21.45 -26.75 -21.05 -27.7 L-20.25 -26.95 Q-20.8 -25.35 -21.9 -25.05 -24.1 -24.45 -24.7 -28.35 -25.35 -32.3 -22.9 -32.95" fill="#ffffff" fill-rule="evenodd" stroke="none"/>
  </g>
</svg>
