<?xml version="1.0" encoding="UTF-8" standalone="no"?>
<svg xmlns:xlink="http://www.w3.org/1999/xlink" height="14.1px" width="54.8px" xmlns="http://www.w3.org/2000/svg">
  <g transform="matrix(1.0, 0.0, 0.0, 1.0, -31.4, -416.4)">
    <path d="M84.75 427.25 Q80.5 426.8 76.7 428.25 L75.9 428.55 Q78.0 429.05 80.0 429.85 80.35 430.0 80.15 430.45 L80.15 430.5 75.2 430.2 Q69.8 429.2 64.15 429.25 L64.25 428.9 64.75 428.25 65.9 426.4 63.25 425.65 62.5 425.05 62.3 425.05 56.7 424.25 Q56.85 423.7 57.35 423.05 57.75 422.55 58.5 422.35 L61.75 421.9 61.05 421.55 56.3 421.45 56.05 421.25 54.35 420.65 53.7 421.2 Q51.1 422.9 48.0 423.2 L48.55 422.4 Q46.95 421.45 44.7 421.35 42.55 421.7 40.75 422.55 L40.2 422.55 39.8 422.55 Q39.6 422.6 39.45 422.75 L39.2 422.9 Q38.95 423.05 38.85 423.3 L31.65 423.75 31.55 423.55 Q31.0 422.35 32.3 422.1 40.05 420.2 48.15 419.95 L50.35 419.55 43.6 419.0 43.3 418.7 37.3 418.65 Q35.95 418.6 35.95 417.65 L43.9 417.1 54.6 418.4 54.5 418.35 53.7 417.65 48.95 417.45 48.2 416.65 48.0 416.7 46.2 416.5 46.3 416.45 Q50.55 416.3 54.7 416.65 55.2 416.65 55.5 417.05 L55.95 417.85 Q56.05 418.1 56.5 418.15 L58.05 418.5 Q61.0 417.4 63.2 418.25 L63.5 418.05 66.3 416.65 Q71.5 419.15 78.45 418.2 L78.65 418.2 79.95 419.05 70.65 418.6 70.3 418.6 72.35 419.35 75.05 419.35 Q75.35 419.7 75.95 419.7 L78.1 419.7 80.45 420.55 Q79.4 421.55 77.1 421.25 76.45 421.1 75.85 421.25 71.4 421.9 67.65 419.65 66.55 420.4 65.7 420.6 L66.2 421.05 64.75 421.05 64.15 422.55 64.35 422.55 67.65 423.05 67.25 423.75 Q66.2 424.55 64.8 424.65 66.65 425.1 67.5 426.85 L67.6 427.4 69.7 427.5 Q71.0 428.6 72.8 427.8 L75.2 426.95 77.1 426.0 79.1 425.6 86.2 426.05 86.2 426.2 Q85.95 427.35 84.75 427.25" fill="#031f32" fill-rule="evenodd" stroke="none"/>
  </g>
</svg>
