<?xml version="1.0" encoding="UTF-8" standalone="no"?>
<svg xmlns:xlink="http://www.w3.org/1999/xlink" height="192.6px" width="224.7px" xmlns="http://www.w3.org/2000/svg">
  <g transform="matrix(1.0, 0.0, 0.0, 1.0, 39.65, 154.0)">
    <path d="M158.4 15.45 Q179.25 19.45 179.25 25.05 179.25 30.65 158.4 34.6 137.55 38.6 108.05 38.6 78.55 38.6 57.65 34.6 36.8 30.65 36.8 25.05 36.8 19.45 57.65 15.45 78.55 11.5 108.05 11.5 137.55 11.5 158.4 15.45" fill="#031f32" fill-rule="evenodd" stroke="none"/>
    <path d="M138.7 -13.1 L140.4 -11.4 141.55 -10.5 142.15 -10.05 Q142.95 -9.35 143.85 -8.9 145.8 -7.85 147.8 -6.9 L149.6 -5.95 152.8 -3.65 Q153.85 -2.75 154.4 -1.5 L155.45 1.45 155.7 2.5 155.75 3.45 Q155.4 5.8 154.5 7.95 153.25 11.05 151.55 13.95 L149.3 17.8 144.45 26.05 142.45 28.9 140.3 30.8 Q138.45 31.9 136.25 32.2 L132.75 32.25 132.25 31.25 131.2 27.9 134.45 23.1 136.85 19.3 137.6 18.3 138.9 15.6 Q140.4 12.55 141.45 9.35 142.15 7.25 141.9 5.0 141.75 3.4 140.85 2.0 139.25 -0.5 137.2 -2.6 L129.45 -10.05 124.2 -19.45 127.05 -19.7 131.35 -19.05 Q134.9 -17.9 138.1 -16.05 L140.35 -14.45 138.7 -13.1" fill="#185586" fill-rule="evenodd" stroke="none"/>
    <path d="M121.05 -18.75 L126.4 -18.4 Q128.1 -17.95 129.55 -16.75 L132.65 -14.05 135.75 -11.4 136.3 -10.95 138.4 -9.0 Q139.05 -8.4 139.8 -8.0 L144.0 -5.65 147.45 -3.35 Q148.2 -2.7 148.45 -1.8 148.9 -0.15 148.75 1.55 L147.7 11.2 146.9 15.0 146.35 16.7 145.1 19.7 Q144.25 21.55 143.1 23.2 L141.95 24.3 140.65 25.55 139.7 26.4 137.3 28.0 136.55 28.65 134.65 28.85 131.5 28.75 130.3 28.5 128.1 26.75 125.45 24.9 124.8 24.5 Q124.2 22.85 124.0 21.1 123.85 19.45 124.4 17.8 125.2 15.6 126.35 13.55 L129.45 8.7 132.9 4.05 132.4 2.9 130.05 2.05 127.65 1.7 124.4 1.7 120.05 1.5 Q118.6 1.3 117.45 0.4 116.4 -0.4 115.95 -1.7 115.3 -3.5 115.15 -5.45 115.05 -6.55 115.1 -7.7 115.25 -11.2 115.75 -14.65 115.95 -16.1 116.5 -17.55 L121.05 -18.75" fill="#102a41" fill-rule="evenodd" stroke="none"/>
    <path d="M98.3 -15.7 L102.4 -15.9 108.7 -15.05 116.5 -14.0 Q118.65 -13.85 120.85 -14.0 L123.65 -14.0 124.35 -13.25 125.3 -11.9 125.95 -10.95 125.4 -10.95 122.35 -10.7 114.0 -9.65 112.3 -9.35 105.6 -8.3 101.15 -7.35 Q98.05 -6.4 95.25 -4.8 L93.7 -3.6 93.0 -3.4 92.8 -3.55 92.65 -3.3 92.4 -2.9 91.65 -2.25 90.1 -1.35 89.6 -1.05 88.75 -1.55 88.3 -1.8 88.1 -1.9 87.95 -1.7 86.3 -2.8 85.35 -3.2 84.6 -5.0 83.9 -6.15 Q83.3 -7.1 82.85 -8.2 L82.3 -9.9 82.1 -10.0 74.05 -25.6 81.15 -29.9 88.15 -10.55 90.55 -12.85 Q91.6 -13.7 92.85 -14.2 95.5 -15.2 98.3 -15.7" fill="#4e79b3" fill-rule="evenodd" stroke="none"/>
    <path d="M74.05 -25.6 L82.1 -10.0 82.3 -9.9 82.8 -8.15 83.15 -7.35 83.85 -6.1 85.35 -3.2 86.3 -2.8 87.95 -1.7 88.1 -1.9 88.3 -1.8 88.75 -1.55 89.6 -1.05 90.1 -1.35 91.65 -2.25 92.35 -2.95 92.8 -3.55 93.0 -3.4 93.7 -3.6 95.2 -4.95 Q96.0 -5.55 96.9 -5.95 100.05 -7.1 103.35 -7.75 L110.4 -8.95 113.15 -9.4 119.4 -10.25 125.4 -10.95 125.95 -10.95 126.35 -9.8 126.6 -8.55 126.6 -7.65 126.55 -6.55 125.35 -5.55 124.6 -5.2 121.2 -4.75 111.05 -3.6 108.85 -3.1 103.95 -1.35 99.3 0.35 92.9 2.3 89.45 3.2 87.7 2.8 86.35 2.5 85.15 2.15 84.5 2.35 83.25 1.55 82.55 0.85 Q82.0 -0.05 81.6 -1.05 L70.8 -23.45 74.05 -25.6" fill="#3b5d8b" fill-rule="evenodd" stroke="none"/>
    <path d="M160.65 -32.25 L161.4 -30.25 158.65 -29.95 151.25 -30.65 Q149.15 -31.1 147.25 -32.2 L144.85 -33.8 154.05 -39.4 164.4 -42.1 Q167.25 -42.95 169.85 -44.35 171.35 -45.1 172.25 -46.45 173.55 -48.25 173.95 -50.5 174.6 -53.8 174.85 -57.2 L175.05 -60.2 174.75 -60.7 174.75 -61.45 174.6 -65.95 174.15 -71.65 176.7 -74.1 177.6 -74.7 180.6 -72.95 Q182.4 -71.65 183.45 -69.8 184.2 -68.55 184.45 -67.05 L184.8 -63.55 185.0 -54.05 185.05 -49.55 Q185.1 -46.15 184.65 -42.85 184.4 -40.55 183.6 -38.4 L183.05 -37.55 182.35 -36.75 179.95 -34.7 Q178.85 -33.85 177.5 -33.55 L173.6 -33.15 171.6 -33.2 167.1 -33.45 165.1 -33.25 164.35 -33.15 162.95 -32.9 160.65 -32.25" fill="#185586" fill-rule="evenodd" stroke="none"/>
    <path d="M143.8 -50.45 Q144.9 -52.05 146.3 -53.3 147.35 -54.2 148.65 -54.4 L151.5 -54.1 Q153.5 -53.3 155.4 -52.15 L158.2 -50.55 Q159.3 -49.95 160.45 -49.7 L162.9 -49.3 163.9 -50.05 163.2 -55.8 162.9 -61.55 Q162.85 -63.9 163.25 -66.25 163.55 -67.9 164.5 -69.3 L166.9 -71.85 167.65 -71.9 170.9 -72.2 173.6 -72.65 174.1 -72.4 174.8 -72.3 177.6 -70.85 179.15 -69.75 179.5 -68.8 180.8 -66.2 181.25 -65.0 181.8 -63.3 182.2 -61.75 Q182.4 -59.8 182.2 -57.8 L181.85 -54.5 181.5 -52.8 180.3 -49.05 Q178.6 -44.45 176.5 -40.1 175.8 -38.55 174.65 -37.35 173.95 -36.65 173.05 -36.5 L168.85 -36.15 164.1 -36.15 162.35 -35.95 159.6 -35.3 158.85 -35.15 154.85 -34.35 150.8 -33.5 147.25 -33.65 Q144.6 -34.25 142.45 -35.95 140.6 -37.35 139.05 -39.2 L139.8 -42.1 142.7 -48.5 143.8 -50.45" fill="#102a41" fill-rule="evenodd" stroke="none"/>
    <path d="M121.95 -67.0 L121.95 -66.75 122.2 -66.75 122.7 -66.75 123.7 -66.8 123.95 -66.3 124.85 -64.75 125.2 -63.8 125.25 -63.3 125.25 -63.05 125.5 -63.05 126.0 -62.55 Q126.25 -61.55 126.75 -60.7 128.45 -57.95 130.65 -55.65 L134.05 -52.6 139.35 -48.45 140.75 -47.35 147.5 -42.35 150.05 -40.65 Q150.3 -40.45 150.55 -40.35 L149.55 -39.85 148.05 -39.15 147.05 -38.8 Q145.8 -39.4 144.65 -40.2 142.8 -41.4 140.8 -42.3 137.25 -43.95 133.45 -45.2 130.45 -46.2 127.55 -47.55 125.7 -48.4 124.05 -49.75 121.9 -51.5 120.05 -53.7 119.2 -54.7 118.75 -56.0 118.2 -57.55 117.8 -59.2 L102.2 -45.75 98.1 -52.95 112.75 -62.65 113.0 -62.65 114.25 -63.8 116.25 -65.15 117.4 -65.8 118.95 -66.95 119.95 -66.85 121.95 -67.0" fill="#4e79b3" fill-rule="evenodd" stroke="none"/>
    <path d="M122.65 -71.45 L123.9 -71.05 125.65 -70.55 128.15 -68.1 132.85 -63.25 136.1 -59.5 Q137.7 -57.45 139.45 -55.6 140.25 -54.75 141.15 -54.05 L149.45 -48.1 152.1 -46.05 152.65 -45.35 153.25 -43.9 152.7 -42.9 152.25 -42.15 151.45 -41.2 150.55 -40.35 150.1 -40.65 145.2 -44.2 140.15 -48.0 137.95 -49.7 132.4 -54.25 Q129.85 -56.35 127.65 -58.95 L126.65 -60.6 Q126.25 -61.55 126.0 -62.55 L125.5 -63.05 125.25 -63.05 125.2 -63.8 124.85 -64.75 123.95 -66.3 123.7 -66.8 122.7 -66.75 122.2 -66.75 121.95 -66.75 121.95 -67.0 119.95 -66.85 118.95 -66.95 116.2 -65.2 114.95 -64.4 114.25 -63.85 113.0 -62.65 112.75 -62.65 98.1 -52.95 96.3 -56.45 105.25 -62.55 107.45 -64.05 Q110.1 -65.7 112.6 -67.55 L116.7 -70.65 118.4 -71.85 119.35 -72.15 120.85 -72.25 121.35 -71.75 122.65 -71.45" fill="#3b5d8b" fill-rule="evenodd" stroke="none"/>
    <path d="M70.6 -55.1 L74.25 -61.35 88.35 -61.25 92.0 -61.2 93.7 -61.15 95.7 -61.15 97.5 -61.2 98.95 -61.15 101.65 -60.9 103.3 -60.65 103.75 -60.5 103.95 -60.35 104.5 -60.25 105.5 -60.05 106.45 -58.65 107.35 -57.25 107.35 -55.25 107.35 -54.1 107.45 -52.85 103.6 -52.3 100.0 -52.05 95.75 -52.25 91.85 -52.9 81.2 -54.45 70.6 -55.1" fill="#224870" fill-rule="evenodd" stroke="none"/>
    <path d="M58.35 -29.85 L62.7 -41.15 70.6 -55.1 81.2 -54.45 91.85 -52.9 100.0 -52.2 103.6 -52.3 107.45 -52.85 106.7 -50.65 105.4 -47.1 104.35 -44.25 103.25 -41.45 102.3 -39.4 100.4 -36.45 99.4 -35.65 98.75 -35.35 83.45 -34.35 82.1 -32.0 82.4 -31.5 81.35 -30.7 80.95 -29.5 80.9 -29.4 82.65 -31.8 88.8 -23.25 66.4 -14.3 58.35 -29.85" fill="#2e6399" fill-rule="evenodd" stroke="none"/>
    <path d="M80.55 -19.3 L80.8 -29.25 80.95 -29.5 81.35 -30.7 82.4 -31.5 80.7 -41.2 85.45 -36.7 87.15 -34.85 88.8 -32.7 94.2 -25.15 88.8 -23.25 80.55 -19.3" fill="#224870" fill-rule="evenodd" stroke="none"/>
    <path d="M70.25 -29.9 L68.3 -27.85 Q67.3 -26.95 66.15 -26.2 65.1 -25.45 64.0 -24.8 L76.45 -43.35 81.2 -51.55 85.35 -59.85 85.35 -59.25 84.8 -54.05 84.25 -51.5 83.5 -49.35 82.3 -47.2 70.25 -29.9" fill="#14305e" fill-rule="evenodd" stroke="none"/>
    <path d="M24.6 -55.85 L23.3 -55.7 25.1 -57.1 Q28.25 -57.05 31.3 -57.9 L30.5 -57.6 Q28.85 -56.95 27.15 -56.45 L24.6 -55.85" fill="#14305e" fill-rule="evenodd" stroke="none"/>
    <path d="M75.75 -56.15 L63.7 -64.2 47.85 -72.2 Q49.65 -77.35 48.25 -83.6 L66.65 -70.9 75.5 -65.25 85.35 -59.85 81.2 -51.55 75.75 -56.15" fill="#1b4777" fill-rule="evenodd" stroke="none"/>
    <path d="M40.9 -63.0 Q46.0 -67.05 47.85 -72.2 L60.45 -66.1 75.75 -56.15 81.2 -51.55 76.45 -43.35 64.0 -24.8 61.7 -23.85 33.15 -40.9 Q32.35 -41.2 31.55 -41.65 29.6 -42.65 27.65 -43.8 L22.45 -46.8 Q21.9 -47.85 21.8 -48.95 21.5 -51.9 21.75 -54.95 22.3 -55.05 22.9 -55.45 L23.3 -55.7 24.6 -55.85 Q25.9 -56.05 27.1 -56.55 L30.45 -57.65 30.8 -57.75 Q36.0 -59.1 40.9 -63.0" fill="#336da1" fill-rule="evenodd" stroke="none"/>
    <path d="M30.1 -17.1 L24.2 -46.05 29.0 -47.3 Q35.6 -23.0 35.5 -17.6 35.4 -13.85 32.15 -5.0 L26.1 10.55 21.6 7.9 Q23.2 -0.9 24.85 -7.7 26.55 -14.55 30.1 -17.1" fill="#4e79b3" fill-rule="evenodd" stroke="none"/>
    <path d="M29.0 -47.3 L32.85 -48.35 Q35.05 -41.75 36.3 -35.45 39.2 -20.9 37.7 -14.5 36.5 -9.3 27.8 11.5 L26.1 10.55 32.15 -5.0 Q35.4 -13.85 35.5 -17.6 35.6 -23.0 29.0 -47.3" fill="#3b5d8b" fill-rule="evenodd" stroke="none"/>
    <path d="M18.6 -52.85 L37.55 -59.15 40.6 -45.85 23.7 -43.35 23.3 -44.35 18.6 -52.85" fill="#336da1" fill-rule="evenodd" stroke="none"/>
    <path d="M28.8 13.3 L31.1 12.7 30.15 19.5 Q29.95 21.05 27.55 22.55 24.8 24.25 21.2 24.25 L15.0 24.2 Q13.85 23.05 13.55 24.5 13.35 25.35 10.95 27.5 L7.8 30.4 Q7.0 31.45 6.25 31.7 L3.95 31.4 3.15 30.75 Q4.8 30.2 6.3 28.8 9.9 25.45 10.45 11.55 15.6 22.25 22.4 20.5 29.15 18.75 28.8 13.3" fill="#3b5d8b" fill-rule="evenodd" stroke="none"/>
    <path d="M13.95 -3.4 L14.4 -3.95 Q15.25 -4.8 16.65 -2.8 L18.65 0.45 Q19.25 1.25 22.2 2.2 L17.95 2.0 Q16.45 0.8 13.95 -3.4" fill="#3b5d8b" fill-rule="evenodd" stroke="none"/>
    <path d="M12.7 -0.2 Q12.85 -1.95 13.95 -3.4 16.45 0.8 17.95 2.0 L22.2 2.2 28.95 4.3 Q31.65 5.35 31.35 10.9 L31.1 12.7 28.8 13.3 Q29.15 18.75 22.4 20.5 15.6 22.25 10.95 13.45 13.85 22.0 6.3 28.8 4.8 30.2 3.15 30.75 2.3 29.55 2.95 27.5 0.7 28.1 -0.8 26.4 -2.25 24.7 -0.1 22.45 L-2.15 19.85 Q-2.75 19.15 -1.3 17.15 L3.15 11.7 Q5.65 8.65 7.6 8.15 L11.6 7.8 17.9 6.85 Q16.3 5.9 13.9 3.4 12.45 1.9 12.7 -0.2" fill="#4e79b3" fill-rule="evenodd" stroke="none"/>
    <path d="M101.1 -103.7 Q94.75 -96.7 91.5 -94.9 86.6 -92.15 62.2 -86.75 L61.05 -91.6 89.4 -99.85 Q90.05 -104.2 95.25 -108.9 L107.55 -119.1 112.0 -116.3 101.1 -103.7" fill="#4e79b3" fill-rule="evenodd" stroke="none"/>
    <path d="M113.65 -115.25 Q99.3 -97.9 95.25 -94.35 90.4 -90.1 76.1 -85.8 69.95 -84.0 63.1 -82.85 L62.2 -86.75 Q86.6 -92.15 91.5 -94.9 94.75 -96.7 101.1 -103.7 L112.0 -116.3 113.65 -115.25" fill="#3b5d8b" fill-rule="evenodd" stroke="none"/>
    <path d="M68.95 -77.15 L59.65 -72.3 48.45 -82.65 47.6 -86.0 Q49.1 -87.3 50.45 -88.8 L51.75 -90.35 62.15 -93.15 63.2 -93.3 68.95 -77.15" fill="#1b4777" fill-rule="evenodd" stroke="none"/>
    <path d="M119.65 -141.15 L118.35 -137.1 Q117.4 -134.05 116.7 -133.5 115.5 -132.65 117.05 -132.05 L119.65 -126.45 Q121.15 -123.2 120.8 -120.0 120.45 -117.15 119.1 -116.35 L113.35 -112.65 112.9 -114.95 Q118.0 -116.9 116.75 -123.8 115.55 -130.7 103.65 -130.95 116.05 -137.2 117.6 -141.9 118.2 -143.85 118.05 -145.55 L118.95 -145.1 Q120.1 -144.1 120.2 -143.15 120.3 -142.4 119.65 -141.15" fill="#3b5d8b" fill-rule="evenodd" stroke="none"/>
    <path d="M100.05 -116.35 Q98.0 -118.55 97.0 -118.85 L93.15 -119.3 Q90.75 -119.75 91.2 -120.85 L91.5 -121.5 Q96.3 -121.0 98.1 -120.15 99.3 -119.5 100.05 -116.35" fill="#3b5d8b" fill-rule="evenodd" stroke="none"/>
    <path d="M105.95 -145.85 L109.15 -145.05 Q110.35 -147.95 112.5 -147.35 114.6 -146.7 115.05 -144.4 116.6 -145.8 118.05 -145.55 118.2 -143.85 117.6 -141.9 114.6 -132.2 105.6 -131.3 115.55 -130.7 116.75 -123.8 118.0 -116.9 112.9 -114.95 L113.35 -112.65 111.8 -111.65 Q106.85 -109.05 104.8 -111.05 L100.05 -116.35 Q99.3 -119.5 98.1 -120.15 96.3 -121.0 91.5 -121.5 92.4 -123.1 93.9 -123.95 95.75 -125.05 97.7 -124.35 100.95 -123.25 102.5 -122.2 L100.7 -128.3 99.35 -132.05 Q99.0 -134.05 100.75 -137.6 L103.85 -143.95 Q105.05 -146.1 105.95 -145.85" fill="#4e79b3" fill-rule="evenodd" stroke="none"/>
    <path d="M-3.75 -70.35 L-3.75 -71.05 -3.2 -70.3 -3.75 -70.35" fill="#4e79b3" fill-rule="evenodd" stroke="none"/>
    <path d="M26.75 -57.15 L24.55 -56.65 25.1 -57.1 26.75 -57.15 M18.0 -56.6 L18.45 -57.2 18.95 -56.45 18.0 -56.6 M18.5 -76.05 L18.55 -76.05 18.5 -76.0 18.5 -76.05" fill="#1d4d82" fill-rule="evenodd" stroke="none"/>
    <path d="M40.1 -76.35 Q42.3 -73.85 47.05 -72.6 L47.85 -72.4 Q51.95 -68.5 52.6 -61.45 52.8 -59.5 51.0 -58.3 41.3 -51.85 30.6 -56.9 29.5 -55.1 28.25 -54.0 27.35 -52.55 24.9 -50.95 22.75 -49.6 21.15 -51.7 20.0 -53.2 19.6 -54.45 18.1 -55.8 18.7 -58.0 21.3 -68.0 30.5 -69.65 30.85 -71.9 31.75 -73.95 33.0 -76.85 36.0 -77.0 L40.1 -76.35" fill="#336da1" fill-rule="evenodd" stroke="none"/>
    <path d="M47.85 -72.4 L47.05 -72.6 Q42.3 -73.85 40.1 -76.35 37.5 -79.25 38.35 -83.85 38.65 -85.75 40.65 -86.2 L43.75 -86.75 Q47.3 -89.3 51.5 -90.0 58.65 -87.75 55.7 -80.5 L55.5 -80.15 Q58.1 -70.05 47.85 -72.4" fill="#1b4777" fill-rule="evenodd" stroke="none"/>
    <path d="M12.7 -121.1 L13.4 -121.9 14.15 -121.1 14.8 -121.85 15.55 -121.05 14.9 -120.3 14.15 -121.1 13.45 -120.3 12.7 -121.1 M27.3 -114.75 L28.75 -113.2 29.5 -112.4 Q29.15 -112.05 28.85 -112.1 27.4 -112.35 28.15 -109.35 L28.9 -108.55 29.65 -107.8 30.4 -107.0 29.7 -106.25 32.7 -103.15 33.45 -102.35 34.2 -101.6 35.65 -100.0 35.85 -98.65 35.7 -98.5 35.9 -98.3 36.2 -96.4 36.4 -95.35 35.85 -95.4 Q35.45 -95.8 35.1 -95.8 34.75 -95.85 34.4 -95.45 L33.9 -96.3 Q31.7 -102.4 24.6 -108.65 L23.85 -108.05 15.45 -103.45 16.25 -102.65 16.95 -101.9 16.4 -101.55 Q15.5 -101.9 14.8 -102.65 L14.05 -103.45 13.3 -104.2 12.5 -104.75 11.15 -105.0 10.4 -105.8 9.65 -106.6 8.9 -107.35 9.55 -108.1 Q20.0 -106.4 26.15 -114.3 L25.8 -114.75 Q26.15 -115.15 26.5 -115.1 L27.3 -114.75 M33.15 -110.05 L32.45 -110.8 31.65 -111.6 32.4 -112.35 31.65 -113.1 30.85 -113.9 31.55 -114.65 32.3 -113.9 33.05 -113.1 32.4 -112.35 33.1 -111.6 33.85 -110.8 33.15 -110.05 M29.9 -120.85 L30.3 -120.4 30.9 -118.75 30.75 -118.5 31.25 -117.95 31.4 -117.6 Q31.05 -117.35 30.9 -117.4 30.0 -117.75 29.25 -118.55 L29.6 -119.3 29.25 -120.05 29.9 -120.85 M-25.95 -99.5 L-25.25 -100.25 Q-24.9 -100.65 -24.9 -101.0 -24.95 -101.4 -25.3 -101.8 -26.9 -111.2 -26.0 -119.6 -25.15 -127.75 -21.9 -134.95 L-22.2 -135.45 Q-21.85 -135.85 -21.85 -136.2 L-22.25 -137.0 -21.55 -137.75 Q-20.1 -136.3 -18.75 -136.5 L-17.95 -136.95 Q-16.15 -137.7 -15.15 -138.45 L-14.45 -139.15 0.0 -137.85 Q0.3 -137.8 0.65 -138.15 L1.4 -137.65 Q7.3 -135.95 9.65 -132.05 11.2 -129.4 11.1 -125.75 L10.3 -126.25 Q6.25 -127.55 3.1 -129.7 L3.05 -129.75 2.25 -130.25 -6.65 -132.55 Q-5.2 -134.25 -7.1 -132.95 L-6.75 -132.6 -12.1 -133.75 -12.8 -133.0 Q-17.0 -128.45 -20.0 -121.7 -22.05 -117.2 -23.5 -111.75 -18.4 -103.9 -13.1 -108.0 -13.0 -108.1 -12.6 -107.7 L-13.3 -106.95 -14.0 -106.2 Q-14.4 -106.6 -14.6 -106.5 -15.45 -106.25 -16.1 -105.45 L-15.4 -104.7 -16.05 -103.95 -16.75 -103.15 Q-21.2 -97.75 -25.95 -99.5 M8.65 -115.0 L7.9 -115.8 8.55 -116.6 9.25 -117.35 11.3 -119.6 12.0 -120.35 12.75 -119.6 12.05 -118.8 11.4 -118.05 10.7 -117.25 10.0 -116.55 8.65 -115.0 M16.95 -122.55 L17.7 -121.75 17.0 -121.05 16.3 -120.3 15.55 -121.05 16.25 -121.8 16.95 -122.55 M20.65 -118.65 L19.9 -119.45 19.2 -120.25 19.9 -121.0 20.6 -120.2 21.35 -119.4 22.1 -118.65 21.4 -117.9 20.65 -118.65 M32.05 -100.85 L32.85 -100.3 Q36.35 -98.95 32.05 -100.85" fill="#29639c" fill-rule="evenodd" stroke="none"/>
    <path d="M-21.55 -137.75 L-18.65 -137.8 -17.95 -136.95 Q-17.9 -140.35 -15.25 -139.65 -14.85 -139.55 -14.45 -139.15 -7.45 -143.35 -0.15 -138.85 L0.65 -138.15 Q0.95 -138.55 1.25 -138.45 9.05 -136.65 11.35 -132.65 13.3 -129.25 11.15 -124.2 L10.4 -124.95 11.1 -125.75 Q11.2 -129.4 9.65 -132.05 7.3 -135.95 1.4 -137.65 L0.65 -138.15 Q0.3 -137.8 0.0 -137.85 L-14.45 -139.15 -15.15 -138.45 Q-16.15 -137.7 -17.95 -136.95 L-18.75 -136.5 Q-20.1 -136.3 -21.55 -137.75 M9.05 -121.9 Q8.7 -121.55 8.4 -121.55 8.0 -121.55 7.65 -121.95 L8.35 -122.7 9.05 -121.9 M6.95 -121.2 L7.3 -120.55 Q7.0 -119.65 6.3 -118.9 L5.6 -119.65 6.3 -120.45 6.95 -121.2 M5.65 -118.15 L7.0 -117.9 7.8 -117.35 7.15 -116.55 Q6.1 -115.3 4.95 -117.4 L5.65 -118.15 M8.5 -118.1 Q10.2 -120.0 12.25 -121.4 L12.7 -121.1 12.0 -120.35 11.3 -119.6 9.25 -117.35 8.5 -118.1 M13.4 -121.9 Q13.75 -122.25 14.1 -122.25 14.45 -122.25 14.8 -121.85 L14.15 -121.1 13.4 -121.9 M16.95 -122.55 Q17.3 -122.95 17.65 -122.95 18.0 -122.95 18.4 -122.55 L17.7 -121.75 16.95 -122.55 M19.9 -121.0 L21.25 -120.75 22.05 -120.2 21.35 -119.4 20.6 -120.2 19.9 -121.0 M22.8 -119.4 L23.55 -118.65 22.85 -117.85 23.6 -117.1 24.3 -117.85 Q25.4 -120.75 27.55 -115.35 L27.3 -114.75 26.5 -115.1 Q26.15 -115.15 25.8 -114.75 L25.05 -115.55 24.35 -116.3 23.6 -117.1 22.9 -116.35 22.15 -117.1 22.85 -117.85 22.1 -118.65 22.8 -119.4 M29.5 -112.4 L30.1 -111.55 Q30.95 -109.7 29.65 -107.8 L28.9 -108.55 28.15 -109.35 Q27.4 -112.35 28.85 -112.1 29.15 -112.05 29.5 -112.4 M30.4 -107.0 Q30.75 -106.65 31.2 -106.5 34.0 -105.75 33.45 -102.35 L32.7 -103.15 29.7 -106.25 30.4 -107.0 M34.2 -101.6 L35.5 -101.7 35.65 -100.0 34.2 -101.6 M35.45 -105.4 L34.85 -105.6 Q34.4 -105.8 34.05 -106.2 L35.5 -105.5 35.45 -105.4 M33.2 -108.5 L32.5 -109.25 33.15 -110.05 33.9 -109.25 34.6 -110.0 34.65 -109.95 Q34.65 -109.3 34.8 -108.6 L34.65 -108.45 33.9 -109.25 33.2 -108.5 M30.15 -114.7 L29.35 -115.5 30.05 -116.2 30.45 -115.45 30.15 -114.7 M29.25 -120.05 L28.45 -120.85 Q28.8 -121.25 29.2 -121.2 29.55 -121.25 29.9 -120.85 L29.25 -120.05 M26.95 -125.0 L26.55 -124.3 26.2 -124.7 24.4 -128.9 25.9 -127.3 26.2 -126.65 Q26.5 -125.75 26.95 -125.0 M8.35 -145.65 L7.6 -145.95 Q7.15 -146.1 6.75 -146.5 L8.05 -146.0 8.35 -145.65 M-32.8 -141.9 L-34.85 -138.35 -35.25 -138.75 -34.3 -140.1 -32.8 -141.9 M-38.35 -124.4 L-36.9 -131.8 -36.45 -132.6 Q-36.75 -122.95 -38.15 -115.35 L-39.2 -110.55 -39.05 -112.0 -38.7 -115.15 Q-38.35 -119.8 -38.35 -124.4 M-26.8 -84.2 L-27.55 -84.95 -32.05 -89.65 Q-34.35 -93.3 -35.85 -96.9 -36.85 -99.3 -37.5 -101.65 L-37.75 -102.6 Q-33.85 -95.9 -26.8 -85.8 L-26.15 -84.95 -24.8 -84.7 -23.95 -84.1 Q-24.35 -83.75 -24.55 -83.8 L-26.15 -84.95 -26.8 -84.2 M-23.2 -83.35 Q-22.9 -83.75 -22.5 -83.7 -22.15 -83.75 -21.75 -83.35 -22.15 -83.0 -22.5 -83.0 -22.85 -83.0 -23.2 -83.35 M-19.6 -82.55 Q-19.3 -82.9 -18.9 -82.9 -18.55 -82.9 -18.15 -82.5 L-18.85 -81.75 -19.6 -82.55 M-13.7 -77.85 Q-13.0 -77.85 -12.6 -77.4 -14.55 -82.35 -20.2 -89.8 L-19.9 -90.2 -20.7 -90.9 -24.3 -93.35 Q-24.45 -96.05 -26.25 -99.0 L-25.95 -99.5 Q-21.2 -97.75 -16.75 -103.15 L-16.05 -103.95 -14.7 -104.15 -13.95 -104.65 -13.25 -105.4 -14.0 -106.2 -14.7 -105.45 -15.4 -104.7 -16.1 -105.45 Q-15.45 -106.25 -14.6 -106.5 -14.4 -106.6 -14.0 -106.2 L-13.3 -106.95 -12.6 -107.7 -11.85 -106.95 -11.2 -107.7 -11.9 -108.45 -11.2 -109.25 -10.5 -108.45 -11.2 -107.7 -10.45 -106.9 -9.7 -106.15 -10.4 -105.35 -11.15 -106.15 -11.85 -106.95 -12.55 -106.2 -13.25 -105.4 -12.5 -104.65 -13.2 -103.9 -14.6 -102.35 -15.3 -101.65 -15.95 -100.9 -16.55 -101.2 -18.1 -100.15 -17.35 -99.35 -16.6 -98.6 -17.3 -97.8 -17.8 -98.15 Q-19.05 -97.5 -20.1 -96.35 L-19.35 -95.55 -18.6 -94.8 -17.85 -94.0 -17.1 -93.2 -17.85 -92.55 -19.9 -90.2 -19.15 -89.4 Q-9.65 -78.95 -5.55 -70.8 -5.95 -71.2 -6.3 -71.2 -6.65 -71.2 -7.0 -70.85 L-7.75 -71.6 -12.2 -76.25 -12.6 -77.4 -12.95 -77.05 -13.7 -77.85 M-25.25 -100.25 L-26.0 -101.05 -25.3 -101.8 -26.05 -102.55 -28.3 -104.9 Q-29.9 -111.6 -29.8 -118.25 -29.7 -125.4 -27.6 -132.4 L-27.15 -133.25 Q-26.0 -131.9 -25.5 -134.15 L-25.8 -134.75 Q-24.4 -136.3 -22.7 -137.4 L-22.25 -137.0 -22.95 -136.25 -24.35 -134.75 -23.0 -134.95 -22.2 -135.45 -21.9 -134.95 Q-25.15 -127.75 -26.0 -119.6 -26.9 -111.2 -25.3 -101.8 -24.95 -101.4 -24.9 -101.0 -24.9 -100.65 -25.25 -100.25 M3.2 -147.65 L2.4 -148.1 Q9.0 -146.6 3.2 -147.65 M-18.45 -150.75 Q-18.8 -150.4 -19.15 -150.4 -19.55 -150.4 -19.9 -150.75 L-19.7 -150.95 Q-17.0 -153.1 -14.2 -152.85 -12.85 -152.75 -11.4 -152.0 L-10.6 -151.35 Q-10.25 -151.75 -9.9 -151.75 -9.55 -151.75 -9.2 -151.35 -4.6 -153.2 -6.3 -151.3 L-7.0 -150.55 Q-7.35 -150.95 -7.7 -150.95 -8.1 -150.95 -8.4 -150.55 L-9.2 -151.35 -9.85 -150.6 -10.6 -151.35 -11.25 -150.6 Q-11.6 -150.25 -11.75 -150.3 -14.55 -151.75 -17.05 -150.75 L-17.75 -151.1 -18.45 -150.75 M-4.85 -151.3 Q6.35 -145.8 -4.05 -150.65 L-4.85 -151.3 M-21.35 -150.75 L-22.0 -150.15 -30.7 -142.95 -31.1 -143.25 Q-28.65 -146.85 -26.15 -148.65 -24.15 -150.15 -22.05 -150.4 -21.7 -150.45 -21.35 -150.75 M-6.25 -109.9 L-5.5 -109.1 -6.2 -108.35 -6.9 -107.65 -7.65 -108.4 -6.95 -109.15 -6.25 -109.9 M-7.55 -106.85 L-8.3 -106.1 -9.0 -106.9 -8.3 -107.65 -7.55 -106.85 M-13.05 -100.85 Q-12.4 -101.6 -11.55 -101.85 L-10.95 -101.55 -11.65 -100.8 -10.9 -100.0 -11.6 -99.25 -12.35 -100.05 -13.05 -100.85 M-3.85 -102.95 Q-4.2 -102.6 -4.55 -102.6 L-5.3 -103.0 -6.05 -103.75 -6.75 -104.55 -6.05 -105.3 -4.6 -103.75 -3.85 -102.95 M-6.7 -103.0 L-7.4 -102.25 -8.15 -103.05 -7.45 -103.8 -6.7 -103.0 M-6.55 -98.4 L-7.25 -97.65 -7.95 -98.45 -7.3 -99.2 -6.55 -98.4 M-11.4 -94.65 L-12.15 -93.9 -12.9 -94.7 -11.5 -96.2 -10.8 -96.95 -10.05 -96.15 -10.7 -95.4 -11.4 -94.65 M-14.3 -94.7 L-13.6 -95.45 -12.9 -94.7 Q-13.25 -94.35 -13.55 -94.3 -13.95 -94.35 -14.3 -94.7 M12.6 -63.6 L13.2 -62.95 13.35 -62.8 12.6 -62.3 11.25 -62.1 11.0 -61.9 10.7 -62.05 9.45 -62.55 9.05 -62.9 8.9 -62.75 7.95 -63.15 8.35 -63.3 Q8.7 -63.3 9.05 -62.9 L10.4 -62.65 11.1 -62.2 11.25 -62.1 11.45 -62.3 11.95 -62.85 12.6 -63.6 M25.1 -61.4 Q25.7 -61.95 26.45 -62.15 L27.0 -61.85 27.7 -62.6 28.3 -61.95 27.35 -61.55 27.0 -61.85 26.35 -61.35 25.1 -61.4 M35.25 -68.0 L34.65 -68.6 35.35 -69.35 35.75 -68.6 35.75 -68.5 35.25 -68.0 M35.15 -94.65 L34.4 -95.45 Q34.75 -95.85 35.1 -95.8 35.45 -95.8 35.85 -95.4 L35.15 -94.65 M16.95 -101.9 L17.7 -101.1 18.45 -100.3 17.7 -99.8 Q15.65 -99.0 13.45 -101.15 L14.1 -101.9 14.8 -102.65 Q15.5 -101.9 16.4 -101.55 L16.95 -101.9 M22.2 -96.4 L22.95 -95.65 23.65 -95.25 Q24.0 -95.25 24.4 -95.6 L24.85 -94.8 Q25.5 -92.25 22.3 -93.35 L21.55 -94.1 20.05 -95.7 21.45 -95.85 22.2 -96.4 M25.85 -91.1 L25.7 -90.75 25.25 -90.6 24.55 -91.0 Q24.85 -91.4 25.25 -91.4 L25.85 -91.1 M25.35 -88.7 Q25.0 -88.3 24.65 -88.3 24.25 -88.35 23.85 -88.75 L23.2 -88.0 22.55 -87.2 21.75 -88.0 21.05 -88.75 21.7 -89.55 22.4 -90.25 23.15 -89.5 23.85 -88.75 Q24.2 -89.15 24.6 -89.1 24.95 -89.1 25.35 -88.7 M20.2 -92.65 L19.45 -91.85 18.7 -92.65 Q19.05 -93.05 19.05 -93.4 19.05 -93.8 18.65 -94.15 L17.95 -94.95 Q17.55 -94.6 17.2 -94.6 16.85 -94.6 16.5 -94.95 16.85 -95.35 17.2 -95.3 L17.95 -94.95 Q19.3 -96.0 20.45 -93.2 L20.2 -92.65 M10.5 -102.75 L9.75 -103.55 9.0 -104.3 8.25 -105.1 8.95 -105.8 10.55 -104.75 Q10.75 -104.65 11.15 -105.0 L12.5 -104.75 13.3 -104.2 12.85 -103.35 12.7 -101.95 11.85 -102.5 10.5 -102.75 M5.15 -111.25 L5.85 -112.05 6.55 -112.4 Q6.9 -112.4 7.3 -112.0 L6.6 -111.25 5.95 -110.5 5.15 -111.25 M10.8 -114.2 L10.4 -114.6 Q9.05 -112.95 7.9 -114.3 L8.65 -115.0 10.0 -116.55 10.7 -117.25 11.45 -116.55 10.75 -115.75 11.5 -115.0 10.8 -114.2 M13.45 -120.3 L14.15 -121.1 14.9 -120.3 14.2 -119.55 13.45 -120.3 M13.5 -118.8 L14.2 -119.55 14.95 -118.75 14.25 -118.0 12.2 -115.75 11.45 -116.55 12.15 -117.3 12.8 -118.0 13.5 -118.8 M15.65 -119.5 L16.3 -120.3 17.05 -119.5 18.45 -119.25 19.25 -118.7 18.7 -118.4 17.05 -119.5 Q16.7 -119.15 16.35 -119.15 16.0 -119.15 15.65 -119.5 M20.0 -117.9 L20.65 -118.65 21.4 -117.9 20.7 -117.15 20.0 -117.9 M13.05 -111.9 L12.3 -111.5 Q11.95 -111.55 11.6 -111.9 L12.3 -112.65 13.05 -111.9 M14.45 -111.9 L15.15 -112.65 14.4 -113.4 15.1 -114.15 14.35 -114.95 13.6 -115.75 14.3 -116.45 14.8 -115.65 15.1 -114.15 15.85 -113.35 15.15 -112.65 15.9 -111.85 15.2 -111.45 Q14.8 -111.5 14.45 -111.9 M17.15 -116.4 L18.5 -116.2 19.35 -115.6 Q19.7 -116.0 20.05 -116.0 20.4 -116.0 20.8 -115.6 20.45 -115.25 20.1 -115.25 19.7 -115.25 19.35 -115.6 L18.7 -114.85 Q17.65 -113.55 16.5 -115.65 L17.15 -116.4 M32.5 -115.15 L32.6 -114.85 32.65 -114.65 32.3 -113.9 31.55 -114.65 32.25 -115.4 32.5 -115.15 M33.8 -112.3 L34.2 -111.55 33.85 -110.8 33.1 -111.6 33.8 -112.3 M-27.8 -130.95 L-27.4 -130.6 Q-25.9 -132.3 -27.8 -130.95 M-37.2 -133.4 Q-32.45 -140.7 -36.8 -133.05 L-37.2 -133.4 M-32.05 -110.35 Q-30.15 -111.65 -31.65 -109.95 L-32.05 -110.35 M-38.9 -105.65 L-39.05 -105.85 -38.95 -105.8 Q-36.05 -105.4 -38.35 -105.45 L-38.9 -105.65 M-38.75 -107.0 L-39.15 -107.4 Q-37.2 -108.7 -38.75 -107.0 M-22.9 -94.85 L-22.5 -94.45 Q-20.95 -96.2 -22.9 -94.85 M-7.7 -70.05 L-7.0 -70.85 -6.25 -70.05 -5.5 -69.25 -6.2 -68.5 -6.9 -67.75 -7.65 -68.55 Q-7.3 -68.9 -7.3 -69.3 L-7.7 -70.05 M32.05 -100.85 Q36.35 -98.95 32.85 -100.3 L32.05 -100.85 M35.9 -98.3 L35.7 -98.5 35.85 -98.65 35.9 -98.3 M36.1 -74.5 L35.85 -74.7 36.1 -75.0 36.1 -74.5 M36.15 -75.9 L35.8 -76.25 36.25 -77.55 36.15 -76.25 36.15 -75.9 M26.2 -83.95 Q24.85 -82.25 22.7 -81.05 L22.0 -81.85 25.45 -85.6 25.95 -86.1 26.05 -85.2 26.2 -83.95 M21.3 -81.1 L22.05 -80.3 21.35 -79.55 20.6 -80.35 21.3 -81.1 M11.8 -76.9 L10.7 -78.05 10.85 -78.3 11.0 -78.7 11.35 -78.55 12.05 -78.95 12.55 -78.15 Q13.0 -76.45 11.8 -76.9 M14.25 -78.15 L14.95 -78.9 15.45 -78.05 15.7 -76.55 15.0 -77.35 14.25 -78.15 M18.45 -61.9 L18.4 -61.95 18.35 -61.9 17.0 -62.0 17.65 -62.35 Q18.0 -62.35 18.4 -61.95 L19.1 -62.7 19.85 -61.95 19.65 -61.75 18.45 -61.9 M16.95 -62.0 L15.55 -62.05 16.25 -62.4 Q16.6 -62.4 16.95 -62.0 M15.5 -62.05 L14.1 -62.05 Q14.4 -62.4 14.8 -62.4 15.15 -62.4 15.5 -62.05 M2.5 -65.3 L0.55 -65.9 0.35 -66.1 1.05 -66.85 2.5 -65.3 M36.05 -73.35 L36.05 -73.05 35.9 -73.2 36.05 -73.35 M35.95 -71.65 L35.9 -70.9 35.85 -70.3 35.45 -70.7 35.3 -70.9 35.95 -71.65 M31.95 -64.05 Q32.25 -64.45 32.65 -64.4 L32.85 -64.4 32.55 -63.65 31.95 -64.05 M30.3 -62.8 L29.3 -62.4 29.1 -62.6 29.85 -63.35 30.3 -62.8 M8.85 -108.9 L9.55 -108.1 8.9 -107.35 9.65 -106.6 8.95 -105.8 8.2 -106.6 8.9 -107.35 8.15 -108.15 8.85 -108.9 M6.65 -109.7 L7.4 -108.9 6.7 -108.2 6.0 -108.95 6.65 -109.7 M-10.15 -99.25 L-9.45 -99.6 -8.75 -99.25 -9.45 -98.45 -10.15 -99.25 M-13.0 -99.3 L-12.3 -98.5 -13.0 -97.75 -13.7 -98.5 -13.0 -99.3 M-17.95 -97.05 L-17.2 -96.3 -17.9 -95.55 -18.65 -96.35 -17.95 -97.05 M-4.05 -69.25 Q-2.7 -70.3 -1.1 -67.75 L-0.4 -66.9 -0.85 -66.55 Q-2.6 -67.7 -4.05 -69.25 M15.55 -82.7 L14.8 -82.0 14.05 -82.75 14.75 -83.5 15.55 -82.7 M12.7 -81.25 L12.0 -80.5 11.35 -79.75 Q11.55 -80.75 11.35 -81.4 L11.95 -82.0 12.7 -81.25" fill="#00294a" fill-rule="evenodd" stroke="none"/>
    <path d="M11.15 -124.2 Q13.3 -129.25 11.35 -132.65 9.05 -136.65 1.25 -138.45 0.95 -138.55 0.65 -138.15 L-0.15 -138.85 Q-7.45 -143.35 -14.45 -139.15 -14.85 -139.55 -15.25 -139.65 -17.9 -140.35 -17.95 -136.95 L-18.65 -137.8 -21.55 -137.75 -22.25 -137.0 -22.7 -137.4 Q-24.4 -136.3 -25.8 -134.75 L-26.45 -134.0 -27.15 -133.25 -27.6 -132.4 Q-29.7 -125.4 -29.8 -118.25 -29.9 -111.6 -28.3 -104.9 L-26.05 -102.55 -25.3 -101.8 -26.0 -101.05 -25.25 -100.25 -25.95 -99.5 -26.25 -99.0 Q-24.45 -96.05 -24.3 -93.35 L-20.7 -90.9 -19.9 -90.2 -20.2 -89.8 Q-14.55 -82.35 -12.6 -77.4 -13.0 -77.85 -13.7 -77.85 L-14.45 -78.6 -15.2 -79.4 -16.65 -80.95 -17.4 -81.7 -18.15 -82.5 Q-18.55 -82.9 -18.9 -82.9 -19.3 -82.9 -19.6 -82.55 L-20.4 -83.1 -21.75 -83.35 Q-22.15 -83.75 -22.5 -83.7 -22.9 -83.75 -23.2 -83.35 L-23.95 -84.1 -24.8 -84.7 -26.15 -84.95 -26.8 -85.8 Q-33.85 -95.9 -37.75 -102.6 L-37.5 -101.65 Q-36.85 -99.3 -35.85 -96.9 -34.35 -93.3 -32.05 -89.65 L-27.55 -84.95 -26.8 -84.2 -27.5 -83.4 -27.9 -83.0 -31.7 -87.85 -34.8 -94.05 Q-37.7 -100.3 -39.65 -106.9 L-39.6 -107.6 -39.2 -110.55 -38.15 -115.35 Q-36.75 -122.95 -36.45 -132.6 L-36.9 -131.8 -38.35 -124.4 -38.45 -128.9 -38.3 -131.1 -38.25 -133.6 -36.05 -137.0 Q-35.6 -137.9 -35.4 -138.85 L-34.3 -140.1 -35.25 -138.75 -34.85 -138.35 -32.8 -141.9 -27.25 -148.3 -25.4 -150.3 Q-21.95 -151.3 -18.75 -153.0 -17.05 -153.2 -15.25 -153.05 L-13.7 -153.05 Q-11.85 -153.1 -10.55 -153.85 L-9.85 -154.0 -9.45 -154.0 -6.65 -153.55 Q-1.8 -153.35 2.75 -151.55 L8.05 -146.0 6.75 -146.5 Q7.15 -146.1 7.6 -145.95 L8.35 -145.65 24.4 -128.9 26.2 -124.7 26.55 -124.3 26.95 -125.0 Q28.15 -122.75 29.8 -121.95 L30.3 -120.4 29.9 -120.85 Q29.55 -121.25 29.2 -121.2 28.8 -121.25 28.45 -120.85 L29.25 -120.05 28.5 -119.3 29.25 -118.55 28.55 -117.75 29.3 -117.0 30.05 -116.2 29.35 -115.5 30.15 -114.7 30.85 -113.9 31.65 -113.1 30.9 -112.35 31.65 -111.6 32.45 -110.8 33.15 -110.05 32.5 -109.25 33.2 -108.5 Q34.35 -106.45 34.9 -107.85 L35.6 -105.75 35.5 -105.5 34.05 -106.2 Q34.4 -105.8 34.85 -105.6 L35.45 -105.4 35.35 -104.25 35.5 -101.7 34.2 -101.6 33.45 -102.35 Q34.0 -105.75 31.2 -106.5 30.75 -106.65 30.4 -107.0 L29.65 -107.8 Q30.95 -109.7 30.1 -111.55 L29.5 -112.4 28.75 -113.2 27.3 -114.75 27.55 -115.35 Q25.4 -120.75 24.3 -117.85 L23.55 -118.65 22.8 -119.4 22.05 -120.2 21.25 -120.75 19.9 -121.0 19.15 -121.75 18.4 -122.55 Q18.0 -122.95 17.65 -122.95 17.3 -122.95 16.95 -122.55 L16.35 -122.9 Q15.5 -122.6 14.8 -121.85 14.45 -122.25 14.1 -122.25 13.75 -122.25 13.4 -121.9 L12.7 -121.1 12.25 -121.4 Q10.2 -120.0 8.5 -118.1 L7.8 -117.35 7.0 -117.9 5.65 -118.15 6.3 -118.9 Q7.0 -119.65 7.3 -120.55 L6.95 -121.2 7.65 -121.95 Q8.0 -121.55 8.4 -121.55 8.7 -121.55 9.05 -121.9 L10.5 -123.4 11.15 -124.2 M-7.0 -150.55 L-6.3 -151.3 Q-4.6 -153.2 -9.2 -151.35 -9.55 -151.75 -9.9 -151.75 -10.25 -151.75 -10.6 -151.35 L-11.4 -152.0 Q-12.85 -152.75 -14.2 -152.85 -17.0 -153.1 -19.7 -150.95 L-19.9 -150.75 Q-19.55 -150.4 -19.15 -150.4 -18.8 -150.4 -18.45 -150.75 -18.1 -150.4 -17.7 -150.35 L-17.05 -150.75 Q-14.55 -151.75 -11.75 -150.3 -11.6 -150.25 -11.25 -150.6 -10.9 -150.25 -10.55 -150.25 -10.2 -150.25 -9.85 -150.6 L-9.1 -150.2 Q-8.75 -150.2 -8.4 -150.55 -8.05 -150.2 -7.7 -150.2 -7.35 -150.2 -7.0 -150.55 M3.2 -147.65 Q9.0 -146.6 2.4 -148.1 L3.2 -147.65 M-21.35 -150.75 Q-21.7 -150.45 -22.05 -150.4 -24.15 -150.15 -26.15 -148.65 -28.65 -146.85 -31.1 -143.25 L-30.7 -142.95 -22.0 -150.15 -21.35 -150.75 M-4.85 -151.3 L-4.05 -150.65 Q6.35 -145.8 -4.85 -151.3 M-12.6 -107.7 L-11.9 -108.45 -11.2 -107.7 -11.85 -106.95 -12.6 -107.7 M-9.8 -109.2 L-8.4 -109.4 -7.7 -109.9 -6.95 -109.15 -7.65 -108.4 -6.9 -107.65 -6.2 -108.35 -5.45 -107.6 Q-5.8 -107.25 -6.15 -107.25 L-6.9 -107.65 -7.55 -106.85 -8.3 -107.65 Q-8.7 -108.05 -9.05 -108.05 -9.4 -108.05 -9.75 -107.65 L-9.0 -106.9 -9.7 -106.15 -10.45 -106.9 -11.2 -107.7 -10.5 -108.45 -9.8 -109.2 M-11.85 -105.4 L-12.5 -104.65 -13.25 -105.4 -12.55 -106.2 -11.85 -106.95 -11.15 -106.15 -11.85 -105.4 M-10.95 -101.55 L-10.25 -102.3 -8.95 -102.5 Q-8.5 -102.7 -8.15 -103.05 L-7.4 -102.25 -6.85 -101.4 -6.6 -99.95 -7.3 -99.2 -7.95 -98.45 -8.75 -99.25 -9.45 -99.6 -10.15 -99.25 -10.9 -100.0 -11.65 -100.8 -10.95 -101.55 M-5.3 -103.0 Q-5.65 -102.65 -5.95 -102.65 -6.35 -102.65 -6.7 -103.0 L-7.45 -103.8 -6.75 -104.55 -6.05 -103.75 -5.3 -103.0 M25.7 -90.75 Q25.5 -90.05 25.6 -89.15 L25.6 -89.0 25.35 -88.7 Q24.95 -89.1 24.6 -89.1 24.2 -89.15 23.85 -88.75 L23.15 -89.5 23.8 -90.25 24.55 -91.0 25.25 -90.6 25.7 -90.75 M6.0 -108.95 L5.2 -109.7 5.95 -110.5 6.6 -111.25 7.35 -110.45 6.65 -109.7 6.0 -108.95 M10.1 -113.45 L10.8 -114.2 11.5 -115.0 12.2 -115.75 14.25 -118.0 14.95 -118.75 15.65 -119.5 Q16.0 -119.15 16.35 -119.15 16.7 -119.15 17.05 -119.5 L18.7 -118.4 19.25 -118.7 20.0 -117.9 20.7 -117.15 21.45 -116.35 20.8 -115.6 Q20.4 -116.0 20.05 -116.0 19.7 -116.0 19.35 -115.6 L18.5 -116.2 17.15 -116.4 Q16.8 -116.85 16.45 -116.85 L14.3 -116.45 13.6 -115.75 14.35 -114.95 15.1 -114.15 14.4 -113.4 15.15 -112.65 14.45 -111.9 13.75 -112.25 13.05 -111.9 12.3 -112.65 Q11.9 -113.05 11.55 -113.05 11.15 -113.05 10.85 -112.7 L10.1 -113.45 M12.8 -118.0 L12.15 -117.3 11.4 -118.05 12.05 -118.8 12.8 -118.0 M12.25 -114.2 L12.6 -113.8 Q14.15 -115.5 12.25 -114.2 M22.1 -118.65 L22.85 -117.85 22.15 -117.1 21.4 -117.9 22.1 -118.65 M32.25 -115.4 L31.5 -116.2 31.8 -116.65 32.5 -115.15 32.25 -115.4 M32.6 -114.85 L33.65 -112.75 34.6 -111.35 34.65 -109.95 34.6 -110.0 33.85 -110.8 34.2 -111.55 33.8 -112.3 33.05 -113.1 32.3 -113.9 32.65 -114.65 32.6 -114.85 M34.8 -108.6 L34.85 -108.2 34.65 -108.45 34.8 -108.6 M-22.2 -135.45 L-23.0 -134.95 -24.35 -134.75 -22.95 -136.25 -22.25 -137.0 -21.85 -136.2 Q-21.85 -135.85 -22.2 -135.45 M-27.8 -130.95 Q-25.9 -132.3 -27.4 -130.6 L-27.8 -130.95 M-37.2 -133.4 L-36.8 -133.05 Q-32.45 -140.7 -37.2 -133.4 M-38.75 -107.0 Q-37.2 -108.7 -39.15 -107.4 L-38.75 -107.0 M-38.9 -105.65 L-38.35 -105.45 Q-36.05 -105.4 -38.95 -105.8 L-39.05 -105.85 -38.9 -105.65 M-32.05 -110.35 L-31.65 -109.95 Q-30.15 -111.65 -32.05 -110.35 M-22.9 -94.85 Q-20.95 -96.2 -22.5 -94.45 L-22.9 -94.85 M-26.1 -80.55 L-25.9 -80.4 Q-24.0 -79.1 -24.15 -77.9 L-26.1 -80.55 M-21.95 -74.6 L-21.45 -74.15 -20.7 -73.35 -20.3 -72.9 -19.55 -72.05 -19.95 -72.0 -21.95 -74.6 M-12.2 -76.25 L-12.95 -77.05 -12.6 -77.4 -12.2 -76.25 M25.4 -87.2 L25.75 -87.55 25.85 -86.65 25.4 -87.2 M18.45 -61.9 L18.35 -61.9 18.4 -61.95 18.45 -61.9 M14.1 -62.05 L11.25 -61.8 11.0 -61.9 11.25 -62.1 12.6 -62.3 13.35 -62.8 14.1 -62.05 M9.45 -62.55 L8.9 -62.75 9.05 -62.9 9.45 -62.55 M0.55 -65.9 Q-4.25 -67.15 -9.0 -66.8 L-9.15 -66.85 -9.4 -67.4 -9.15 -67.65 -7.6 -67.35 -6.9 -67.75 -5.5 -67.5 -4.7 -66.95 Q-4.0 -66.95 -3.65 -67.3 L-4.0 -67.7 -4.75 -68.45 -5.5 -69.25 -6.25 -70.05 -7.0 -70.85 Q-6.65 -71.2 -6.3 -71.2 -5.95 -71.2 -5.55 -70.8 L-4.8 -70.05 -4.05 -69.25 Q-2.6 -67.7 -0.85 -66.55 L-0.4 -66.9 0.35 -66.1 0.55 -65.9 M19.85 -61.95 L20.1 -61.65 19.9 -61.75 19.65 -61.75 19.85 -61.95 M26.35 -61.35 L27.0 -61.85 27.35 -61.55 27.05 -61.4 26.35 -61.35 M35.85 -69.95 L35.75 -68.6 35.35 -69.35 35.85 -69.95 M29.3 -62.4 L28.8 -62.2 29.1 -62.6 29.3 -62.4 M31.1 -63.1 L31.25 -63.3 31.95 -64.05 32.55 -63.65 32.5 -63.6 32.3 -63.5 31.1 -63.1 M7.4 -108.9 L8.15 -108.15 8.9 -107.35 8.2 -106.6 7.45 -107.4 6.7 -108.2 7.4 -108.9 M8.95 -105.8 L9.65 -106.6 10.4 -105.8 11.15 -105.0 Q10.75 -104.65 10.55 -104.75 L8.95 -105.8 M13.3 -104.2 L14.05 -103.45 14.8 -102.65 14.1 -101.9 13.45 -101.15 12.7 -101.95 12.85 -103.35 13.3 -104.2 M-11.6 -99.25 L-12.3 -98.5 -11.55 -97.75 -10.8 -96.95 -11.5 -96.2 -12.9 -94.7 -13.6 -95.45 Q-13.25 -95.85 -13.3 -96.25 -13.3 -96.6 -13.65 -97.0 L-13.0 -97.75 -12.3 -98.5 -13.0 -99.3 -12.35 -100.05 -11.6 -99.25 M-8.8 -100.75 L-8.4 -100.35 Q-6.9 -102.05 -8.8 -100.75 M-15.4 -104.7 L-14.7 -105.45 -13.95 -104.65 -14.7 -104.15 -16.05 -103.95 -15.4 -104.7 M-17.35 -99.35 L-18.1 -100.15 -16.55 -101.2 -15.95 -100.9 -16.65 -100.1 -17.35 -99.35 M-18.6 -94.8 L-19.35 -95.55 -20.1 -96.35 Q-19.05 -97.5 -17.8 -98.15 L-17.3 -97.8 -17.95 -97.05 -18.65 -96.35 -17.9 -95.55 -18.6 -94.8" fill="#000000" fill-rule="evenodd" stroke="none"/>
    <path d="M11.15 -124.2 L10.5 -123.4 9.05 -121.9 8.35 -122.7 9.7 -124.2 10.4 -124.95 11.15 -124.2 M6.3 -118.9 L5.65 -118.15 4.95 -117.4 Q6.1 -115.3 7.15 -116.55 L7.8 -117.35 8.5 -118.1 9.25 -117.35 8.55 -116.6 7.9 -115.8 8.65 -115.0 7.9 -114.3 Q9.05 -112.95 10.4 -114.6 L10.8 -114.2 10.1 -113.45 9.35 -112.85 7.3 -112.0 Q6.9 -112.4 6.55 -112.4 L5.85 -112.05 5.15 -112.8 4.35 -113.55 Q5.3 -115.1 4.7 -116.8 4.6 -117.05 4.95 -117.4 L4.2 -118.2 4.9 -118.95 5.6 -119.65 6.3 -118.9 M14.8 -121.85 Q15.5 -122.6 16.35 -122.9 L16.95 -122.55 16.25 -121.8 15.55 -121.05 16.3 -120.3 17.0 -121.05 17.7 -121.75 18.4 -122.55 19.15 -121.75 19.9 -121.0 19.2 -120.25 19.9 -119.45 20.65 -118.65 20.0 -117.9 19.25 -118.7 18.45 -119.25 17.05 -119.5 16.3 -120.3 15.65 -119.5 14.95 -118.75 14.2 -119.55 14.9 -120.3 15.55 -121.05 14.8 -121.85 M22.05 -120.2 L22.8 -119.4 22.1 -118.65 21.35 -119.4 22.05 -120.2 M23.55 -118.65 L24.3 -117.85 23.6 -117.1 22.85 -117.85 23.55 -118.65 M34.9 -107.85 Q34.35 -106.45 33.2 -108.5 L33.9 -109.25 34.65 -108.45 34.85 -108.2 34.9 -107.85 M31.65 -111.6 L30.9 -112.35 31.65 -113.1 32.4 -112.35 31.65 -111.6 M30.85 -113.9 L30.15 -114.7 30.45 -115.45 30.05 -116.2 29.3 -117.0 28.55 -117.75 29.25 -118.55 28.5 -119.3 29.25 -120.05 29.6 -119.3 29.25 -118.55 Q30.0 -117.75 30.9 -117.4 31.05 -117.35 31.4 -117.6 L31.8 -116.65 31.5 -116.2 32.25 -115.4 31.55 -114.65 30.85 -113.9 M-27.9 -83.0 L-27.5 -83.4 -26.8 -84.2 -26.15 -84.95 -24.55 -83.8 Q-24.35 -83.75 -23.95 -84.1 L-23.2 -83.35 -23.5 -82.9 Q-19.85 -77.25 -26.4 -80.9 L-27.9 -83.0 M-21.75 -83.35 L-20.4 -83.1 -19.6 -82.55 -18.85 -81.75 -19.5 -80.95 Q-20.5 -79.7 -21.7 -81.8 -21.35 -82.2 -21.4 -82.55 -21.4 -82.95 -21.75 -83.35 M-18.15 -82.5 L-17.4 -81.7 Q-17.75 -81.35 -18.1 -81.35 -18.5 -81.35 -18.85 -81.75 L-18.15 -82.5 M-16.65 -80.95 L-15.2 -79.4 -14.45 -78.6 -14.95 -78.3 -17.35 -80.2 -16.65 -80.95 M-27.15 -133.25 L-26.45 -134.0 -25.8 -134.75 -25.5 -134.15 Q-26.0 -131.9 -27.15 -133.25 M-7.0 -150.55 Q-7.35 -150.2 -7.7 -150.2 -8.05 -150.2 -8.4 -150.55 -8.75 -150.2 -9.1 -150.2 L-9.85 -150.6 Q-10.2 -150.25 -10.55 -150.25 -10.9 -150.25 -11.25 -150.6 L-10.6 -151.35 -9.85 -150.6 -9.2 -151.35 -8.4 -150.55 Q-8.1 -150.95 -7.7 -150.95 -7.35 -150.95 -7.0 -150.55 M-17.05 -150.75 L-17.7 -150.35 Q-18.1 -150.4 -18.45 -150.75 L-17.75 -151.1 -17.05 -150.75 M-11.2 -109.25 L-10.55 -109.6 Q-10.2 -109.6 -9.8 -109.2 L-10.5 -108.45 -11.2 -109.25 M-7.7 -109.9 Q-7.35 -110.3 -7.0 -110.3 -6.65 -110.3 -6.25 -109.9 L-6.95 -109.15 -7.7 -109.9 M-5.5 -109.1 L-5.1 -109.45 Q-2.35 -107.6 -5.45 -107.6 L-6.2 -108.35 -5.5 -109.1 M-8.3 -106.1 Q-8.65 -105.75 -8.95 -105.75 -9.35 -105.75 -9.7 -106.15 L-9.0 -106.9 -9.75 -107.65 Q-9.4 -108.05 -9.05 -108.05 -8.7 -108.05 -8.3 -107.65 L-9.0 -106.9 -8.3 -106.1 M-10.4 -105.35 Q-10.75 -105.0 -11.05 -105.0 -11.45 -105.0 -11.85 -105.4 L-11.15 -106.15 -10.4 -105.35 M-14.6 -102.35 L-14.25 -101.85 Q-15.25 -100.1 -16.6 -98.6 -15.1 -97.5 -13.7 -99.95 L-13.05 -100.85 -12.35 -100.05 -13.0 -99.3 -13.7 -98.5 -13.0 -97.75 -13.65 -97.0 Q-13.3 -96.6 -13.3 -96.25 -13.25 -95.85 -13.6 -95.45 L-14.35 -96.25 -13.65 -97.0 Q-14.05 -97.4 -14.15 -97.3 -15.8 -96.35 -17.2 -96.3 -16.85 -95.9 -16.85 -95.5 -16.8 -94.35 -17.1 -93.2 L-16.45 -92.35 Q-14.55 -89.35 -13.3 -86.25 L-12.5 -85.75 Q-8.35 -84.65 -5.9 -80.0 L-5.45 -79.2 Q-4.8 -75.4 -3.4 -71.55 L0.3 -67.65 1.05 -66.85 Q3.9 -69.25 11.1 -64.75 L11.85 -64.25 12.6 -63.6 11.95 -62.85 11.45 -62.3 11.25 -62.1 11.1 -62.2 10.4 -62.65 9.05 -62.9 Q8.7 -63.3 8.35 -63.3 L7.95 -63.15 7.3 -63.4 5.7 -64.1 2.5 -65.3 1.05 -66.85 0.35 -66.1 -0.4 -66.9 -1.1 -67.75 Q-2.7 -70.3 -4.05 -69.25 L-4.8 -70.05 -5.55 -70.8 Q-9.65 -78.95 -19.15 -89.4 L-19.9 -90.2 -17.85 -92.55 -17.1 -93.2 -17.85 -94.0 -18.6 -94.8 -17.9 -95.55 -17.2 -96.3 -17.95 -97.05 -17.3 -97.8 -16.6 -98.6 -17.35 -99.35 -16.65 -100.1 -15.95 -100.9 -15.3 -101.65 -14.6 -102.35 M-10.25 -102.3 Q-8.55 -104.2 -6.5 -105.65 L-6.05 -105.3 Q-2.95 -105.9 -3.35 -103.8 L-3.85 -102.95 -4.6 -103.75 -6.05 -105.3 -6.75 -104.55 -7.45 -103.8 -8.15 -103.05 Q-8.5 -102.7 -8.95 -102.5 L-10.25 -102.3 M-6.6 -99.95 L-6.2 -99.2 Q-6.2 -98.8 -6.55 -98.4 L-7.3 -99.2 -6.6 -99.95 M-7.25 -97.65 Q-7.6 -97.3 -7.55 -96.95 -6.9 -92.2 -11.4 -94.65 L-10.7 -95.4 -10.05 -96.15 Q-9.4 -96.95 -9.1 -97.85 -9.05 -98.1 -9.45 -98.45 L-8.75 -99.25 -7.95 -98.45 -7.25 -97.65 M-12.15 -93.9 L-12.7 -93.1 Q-13.8 -91.05 -14.95 -92.4 L-14.75 -93.9 -14.3 -94.7 Q-13.95 -94.35 -13.55 -94.3 -13.25 -94.35 -12.9 -94.7 L-12.15 -93.9 M13.35 -62.8 L13.5 -63.05 Q15.35 -65.85 17.4 -64.4 L18.35 -63.5 19.1 -62.7 Q20.15 -64.05 21.35 -61.95 L21.7 -61.5 20.1 -61.65 19.85 -61.95 19.1 -62.7 18.4 -61.95 Q18.0 -62.35 17.65 -62.35 L17.0 -62.0 16.95 -62.0 Q16.6 -62.4 16.25 -62.4 L15.55 -62.05 15.5 -62.05 Q15.15 -62.4 14.8 -62.4 14.4 -62.4 14.1 -62.05 L13.35 -62.8 M22.4 -61.45 L22.7 -61.5 23.05 -61.4 22.4 -61.45 M23.75 -61.4 L24.15 -61.5 24.55 -61.35 23.75 -61.4 M27.7 -62.6 Q28.4 -63.35 29.25 -63.6 L29.85 -63.35 Q31.55 -65.2 33.55 -66.6 L34.0 -66.35 32.85 -64.4 32.65 -64.4 Q32.25 -64.45 31.95 -64.05 L31.25 -63.3 31.1 -63.1 30.3 -62.8 29.85 -63.35 29.1 -62.6 28.8 -62.2 28.3 -61.95 27.7 -62.6 M34.65 -68.6 L33.9 -69.4 33.35 -70.0 33.05 -70.25 32.4 -70.95 33.05 -72.25 32.7 -72.3 Q30.55 -72.8 29.85 -75.7 28.7 -80.05 27.2 -84.15 26.8 -85.35 27.75 -86.2 L28.5 -86.75 Q32.65 -86.1 34.15 -81.2 L34.45 -80.2 36.3 -80.3 36.45 -80.4 36.25 -77.55 35.8 -76.25 36.15 -75.9 36.1 -75.0 35.85 -74.7 36.1 -74.5 36.05 -73.55 36.05 -73.45 36.05 -73.35 35.9 -73.2 36.05 -73.05 35.95 -71.65 35.3 -70.9 35.45 -70.7 35.85 -70.3 35.85 -69.95 35.35 -69.35 34.65 -68.6 M36.55 -81.4 L36.35 -81.6 35.6 -82.4 Q36.25 -88.15 34.9 -93.95 34.8 -94.3 35.15 -94.65 L35.85 -95.4 36.35 -94.55 Q37.35 -91.6 36.8 -88.55 37.15 -88.15 37.55 -88.1 L37.75 -88.15 Q36.95 -84.85 36.55 -81.4 M18.45 -100.3 L21.45 -97.2 22.2 -96.4 21.45 -95.85 20.05 -95.7 21.55 -94.1 22.3 -93.35 Q25.5 -92.25 24.85 -94.8 L24.4 -95.6 Q24.0 -95.25 23.65 -95.25 L22.95 -95.65 Q23.25 -96.05 23.65 -96.0 24.0 -96.0 24.4 -95.6 24.7 -96.0 25.05 -95.95 29.35 -95.2 25.9 -92.5 L26.4 -92.0 25.85 -91.1 25.25 -91.4 Q24.85 -91.4 24.55 -91.0 L23.8 -90.25 23.15 -89.5 22.4 -90.25 22.65 -92.55 Q22.65 -92.95 22.3 -93.35 L21.5 -92.8 20.2 -92.65 20.45 -93.2 Q19.3 -96.0 17.95 -94.95 L17.2 -95.3 Q16.85 -95.35 16.5 -94.95 L15.95 -95.85 Q14.9 -99.1 10.55 -101.2 L10.9 -101.95 10.5 -102.75 11.85 -102.5 12.7 -101.95 13.45 -101.15 Q15.65 -99.0 17.7 -99.8 L18.45 -100.3 M25.6 -89.0 L25.7 -88.35 25.35 -88.7 25.6 -89.0 M22.55 -87.2 L21.75 -86.55 Q20.1 -85.35 18.3 -85.75 L20.35 -88.0 21.05 -88.75 21.75 -88.0 22.55 -87.2 M19.45 -91.85 Q19.1 -91.5 18.75 -91.5 18.4 -91.5 18.05 -91.9 L18.7 -92.65 19.45 -91.85 M18.65 -94.15 L18.05 -93.35 Q16.65 -90.85 15.15 -91.9 17.15 -93.05 16.25 -94.55 L16.5 -94.95 Q16.85 -94.6 17.2 -94.6 17.55 -94.6 17.95 -94.95 L18.65 -94.15 M9.0 -104.3 Q8.65 -103.95 8.55 -103.95 6.8 -105.1 5.35 -106.65 L5.5 -108.1 6.0 -108.95 6.7 -108.2 7.45 -107.4 8.2 -106.6 8.95 -105.8 8.25 -105.1 9.0 -104.3 M5.2 -109.7 L4.5 -110.5 5.15 -111.25 5.95 -110.5 5.2 -109.7 M6.6 -111.25 L7.3 -112.0 7.7 -111.2 7.35 -110.45 6.6 -111.25 M12.0 -120.35 L12.7 -121.1 13.45 -120.3 12.75 -119.6 13.5 -118.8 12.8 -118.0 12.05 -118.8 12.75 -119.6 12.0 -120.35 M12.15 -117.3 L11.45 -116.55 12.2 -115.75 11.5 -115.0 10.75 -115.75 11.45 -116.55 10.7 -117.25 11.4 -118.05 12.15 -117.3 M12.25 -114.2 Q14.15 -115.5 12.6 -113.8 L12.25 -114.2 M11.6 -111.9 L10.85 -112.7 Q11.15 -113.05 11.55 -113.05 11.9 -113.05 12.3 -112.65 L11.6 -111.9 M21.45 -116.35 L20.7 -117.15 21.4 -117.9 22.15 -117.1 21.45 -116.35 M15.85 -113.35 L16.25 -112.6 15.9 -111.85 15.15 -112.65 15.85 -113.35 M22.9 -116.35 L23.6 -117.1 24.35 -116.3 25.05 -115.55 24.5 -115.2 22.9 -116.35 M31.25 -117.95 L30.75 -118.5 30.9 -118.75 31.25 -117.95 M33.05 -113.1 L33.8 -112.3 33.1 -111.6 32.4 -112.35 33.05 -113.1 M33.85 -110.8 L34.6 -110.0 33.9 -109.25 33.15 -110.05 33.85 -110.8 M-21.45 -74.15 Q-20.15 -77.9 -19.7 -73.3 L-19.7 -73.05 -19.65 -73.0 -18.25 -71.9 -17.5 -71.35 -16.35 -71.25 -15.6 -71.2 -15.2 -71.3 Q-14.7 -70.9 -14.0 -70.65 L-13.55 -70.4 -13.55 -70.3 Q-12.8 -71.15 -11.95 -70.15 L-11.4 -69.55 -9.4 -68.9 -9.2 -68.8 -9.1 -68.55 -8.4 -69.3 -7.7 -70.05 -7.3 -69.3 Q-7.3 -68.9 -7.65 -68.55 L-6.9 -67.75 -6.2 -68.5 -5.5 -69.25 -4.75 -68.45 -4.0 -67.7 -4.7 -66.95 -5.5 -67.5 -6.9 -67.75 -7.6 -67.35 -9.15 -67.65 -9.4 -67.4 -10.15 -67.1 -12.25 -68.85 -12.35 -68.8 -13.95 -69.05 -14.25 -69.3 -14.45 -69.45 -16.4 -69.7 Q-18.2 -70.7 -19.55 -72.05 L-20.3 -72.9 -20.7 -73.35 -21.45 -74.15 M20.25 -91.1 Q22.15 -92.4 20.6 -90.7 L20.25 -91.1 M26.2 -83.95 L26.55 -81.95 22.7 -81.05 Q24.85 -82.25 26.2 -83.95 M22.0 -81.85 L22.7 -81.05 22.05 -80.3 21.3 -81.1 22.0 -81.85 M20.6 -80.35 L19.85 -81.1 Q20.2 -81.5 20.6 -81.5 20.95 -81.5 21.3 -81.1 L20.6 -80.35 M9.55 -108.1 L8.85 -108.9 Q12.45 -112.55 10.2 -108.95 L9.55 -108.1 M7.35 -110.45 L8.1 -109.65 8.85 -108.9 8.15 -108.15 7.4 -108.9 6.65 -109.7 7.35 -110.45 M-0.4 -106.75 Q13.95 -101.2 5.55 -91.7 L5.15 -92.1 Q2.4 -98.75 -0.75 -107.15 L-0.4 -106.75 M-0.65 -93.7 Q1.25 -95.05 -0.3 -93.3 L-0.65 -93.7 M-0.9 -91.05 L-1.3 -91.45 Q0.6 -92.75 -0.9 -91.05 M10.15 -92.75 Q13.55 -93.85 10.65 -92.45 10.5 -92.4 10.15 -92.75 M12.1 -87.75 L11.7 -88.15 Q13.65 -89.5 12.1 -87.75 M13.45 -90.8 L13.05 -91.2 Q16.1 -93.75 13.45 -90.8 M-10.9 -100.0 L-10.15 -99.25 -10.85 -98.5 -11.55 -97.75 -12.3 -98.5 -11.6 -99.25 -10.9 -100.0 M-8.8 -100.75 Q-6.9 -102.05 -8.4 -100.35 L-8.8 -100.75 M-4.05 -98.75 L-4.4 -99.15 Q-1.4 -101.7 -4.05 -98.75 M-3.8 -101.45 Q0.3 -105.15 -3.45 -101.05 L-3.8 -101.45 M-14.7 -105.45 L-14.0 -106.2 -13.25 -105.4 -13.95 -104.65 -14.7 -105.45 M-5.4 -95.7 L-5.75 -96.1 Q-3.85 -97.45 -5.4 -95.7 M-10.55 -89.3 Q1.35 -94.9 -10.0 -88.95 -10.15 -88.9 -10.55 -89.3 M-14.3 -75.55 Q-12.4 -76.85 -13.95 -75.15 L-14.3 -75.55 M-17.9 -74.8 Q-13.6 -72.95 -17.1 -74.3 L-17.9 -74.8 M16.85 -84.25 Q18.75 -85.55 17.25 -83.85 L16.85 -84.25 M14.8 -82.0 L14.05 -81.45 12.7 -81.25 11.95 -82.0 Q12.65 -82.8 13.5 -83.05 13.7 -83.15 14.05 -82.75 L14.8 -82.0 M14.75 -83.5 Q15.45 -83.5 15.85 -83.1 L15.55 -82.7 14.75 -83.5 M6.8 -85.95 Q13.1 -94.5 7.2 -85.55 L6.8 -85.95 M-1.7 -93.35 L-2.1 -93.75 Q-0.15 -95.05 -1.7 -93.35" fill="#005a9c" fill-rule="evenodd" stroke="none"/>
    <path d="M-6.75 -132.6 L-7.1 -132.95 Q-5.2 -134.25 -6.65 -132.55 L-6.7 -132.55 -6.75 -132.6 M13.45 -120.3 L14.2 -119.55 13.5 -118.8 12.75 -119.6 13.45 -120.3 M36.4 -95.35 L37.55 -89.85 37.85 -88.45 37.75 -88.15 37.55 -88.1 Q37.15 -88.15 36.8 -88.55 37.35 -91.6 36.35 -94.55 L35.85 -95.4 36.4 -95.35 M-4.7 -66.95 L-4.0 -67.7 -3.65 -67.3 Q-4.0 -66.95 -4.7 -66.95" fill="#008cef" fill-rule="evenodd" stroke="none"/>
    <path d="M7.65 -121.95 L6.95 -121.2 6.3 -120.45 5.6 -119.65 4.9 -118.95 4.2 -118.2 4.95 -117.4 Q4.6 -117.05 4.7 -116.8 5.3 -115.1 4.35 -113.55 L5.15 -112.8 5.85 -112.05 5.15 -111.25 4.5 -110.5 5.2 -109.7 6.0 -108.95 5.5 -108.1 5.35 -106.65 Q6.8 -105.1 8.55 -103.95 8.65 -103.95 9.0 -104.3 L9.75 -103.55 10.5 -102.75 10.9 -101.95 10.55 -101.2 Q14.9 -99.1 15.95 -95.85 L16.5 -94.95 16.25 -94.55 Q17.15 -93.05 15.15 -91.9 16.65 -90.85 18.05 -93.35 L18.65 -94.15 Q19.05 -93.8 19.05 -93.4 19.05 -93.05 18.7 -92.65 L18.05 -91.9 Q18.4 -91.5 18.75 -91.5 19.1 -91.5 19.45 -91.85 L20.2 -92.65 21.5 -92.8 22.3 -93.35 Q22.65 -92.95 22.65 -92.55 L22.4 -90.25 21.7 -89.55 21.05 -88.75 20.35 -88.0 18.3 -85.75 Q20.1 -85.35 21.75 -86.55 L22.55 -87.2 23.2 -88.0 23.85 -88.75 Q24.25 -88.35 24.65 -88.3 25.0 -88.3 25.35 -88.7 L25.7 -88.35 25.6 -89.0 25.6 -89.15 Q25.5 -90.05 25.7 -90.75 L25.85 -91.1 26.4 -92.0 25.9 -92.5 Q29.35 -95.2 25.05 -95.95 24.7 -96.0 24.4 -95.6 24.0 -96.0 23.65 -96.0 23.25 -96.05 22.95 -95.65 L22.2 -96.4 21.45 -97.2 18.45 -100.3 17.7 -101.1 16.95 -101.9 16.25 -102.65 15.45 -103.45 23.85 -108.05 24.6 -108.65 Q31.7 -102.4 33.9 -96.3 L34.4 -95.45 35.15 -94.65 Q34.8 -94.3 34.9 -93.95 36.25 -88.15 35.6 -82.4 L36.35 -81.6 36.55 -81.4 36.45 -80.4 36.3 -80.3 34.45 -80.2 34.15 -81.2 Q32.65 -86.1 28.5 -86.75 L27.75 -86.2 Q26.8 -85.35 27.2 -84.15 28.7 -80.05 29.85 -75.7 30.55 -72.8 32.7 -72.3 L33.05 -72.25 32.4 -70.95 33.05 -70.25 33.35 -70.0 33.9 -69.4 34.65 -68.6 35.25 -68.0 34.0 -66.35 33.55 -66.6 Q31.55 -65.2 29.85 -63.35 L29.25 -63.6 Q28.4 -63.35 27.7 -62.6 L27.0 -61.85 26.45 -62.15 Q25.7 -61.95 25.1 -61.4 L24.9 -61.35 24.55 -61.35 24.15 -61.5 23.75 -61.4 23.05 -61.4 22.7 -61.5 22.4 -61.45 21.7 -61.5 21.35 -61.95 Q20.15 -64.05 19.1 -62.7 L18.35 -63.5 17.4 -64.4 Q15.35 -65.85 13.5 -63.05 L13.35 -62.8 13.2 -62.95 12.6 -63.6 11.85 -64.25 11.1 -64.75 Q3.9 -69.25 1.05 -66.85 L0.3 -67.65 -3.4 -71.55 Q-4.8 -75.4 -5.45 -79.2 L-5.9 -80.0 Q-8.35 -84.65 -12.5 -85.75 L-13.3 -86.25 Q-14.55 -89.35 -16.45 -92.35 L-17.1 -93.2 Q-16.8 -94.35 -16.85 -95.5 -16.85 -95.9 -17.2 -96.3 -15.8 -96.35 -14.15 -97.3 -14.05 -97.4 -13.65 -97.0 L-14.35 -96.25 -13.6 -95.45 -14.3 -94.7 -14.75 -93.9 -14.95 -92.4 Q-13.8 -91.05 -12.7 -93.1 L-12.15 -93.9 -11.4 -94.65 Q-6.9 -92.2 -7.55 -96.95 -7.6 -97.3 -7.25 -97.65 L-6.55 -98.4 Q-6.2 -98.8 -6.2 -99.2 L-6.6 -99.95 -6.85 -101.4 -7.4 -102.25 -6.7 -103.0 Q-6.35 -102.65 -5.95 -102.65 -5.65 -102.65 -5.3 -103.0 L-4.55 -102.6 Q-4.2 -102.6 -3.85 -102.95 L-3.35 -103.8 Q-2.95 -105.9 -6.05 -105.3 L-6.5 -105.65 Q-8.55 -104.2 -10.25 -102.3 L-10.95 -101.55 -11.55 -101.85 Q-12.4 -101.6 -13.05 -100.85 L-13.7 -99.95 Q-15.1 -97.5 -16.6 -98.6 -15.25 -100.1 -14.25 -101.85 L-14.6 -102.35 -13.2 -103.9 -12.5 -104.65 -11.85 -105.4 Q-11.45 -105.0 -11.05 -105.0 -10.75 -105.0 -10.4 -105.35 L-9.7 -106.15 Q-9.35 -105.75 -8.95 -105.75 -8.65 -105.75 -8.3 -106.1 L-7.55 -106.85 -6.9 -107.65 -6.15 -107.25 Q-5.8 -107.25 -5.45 -107.6 -2.35 -107.6 -5.1 -109.45 L-5.5 -109.1 -6.25 -109.9 Q-6.65 -110.3 -7.0 -110.3 -7.35 -110.3 -7.7 -109.9 L-8.4 -109.4 -9.8 -109.2 Q-10.2 -109.6 -10.55 -109.6 L-11.2 -109.25 -11.9 -108.45 -12.6 -107.7 Q-13.0 -108.1 -13.1 -108.0 -18.4 -103.9 -23.5 -111.75 -22.05 -117.2 -20.0 -121.7 -17.0 -128.45 -12.8 -133.0 L-12.1 -133.75 -6.75 -132.6 -6.7 -132.55 -6.65 -132.55 2.25 -130.25 3.05 -129.75 3.1 -129.7 Q6.25 -127.55 10.3 -126.25 L11.1 -125.75 10.4 -124.95 9.7 -124.2 8.35 -122.7 7.65 -121.95 M-17.4 -81.7 L-16.65 -80.95 -17.35 -80.2 -14.95 -78.3 -14.45 -78.6 -13.7 -77.85 -12.95 -77.05 -12.2 -76.25 -7.75 -71.6 -7.0 -70.85 -7.7 -70.05 -8.4 -69.3 -9.1 -68.55 -9.2 -68.8 -9.4 -68.9 -11.4 -69.55 -11.95 -70.15 Q-12.8 -71.15 -13.55 -70.3 L-13.55 -70.4 -14.0 -70.65 Q-14.7 -70.9 -15.2 -71.3 L-15.6 -71.2 -16.35 -71.25 -18.25 -71.9 -19.65 -73.0 -19.7 -73.05 -19.7 -73.3 Q-20.15 -77.9 -21.45 -74.15 L-21.95 -74.6 -22.7 -75.75 -24.15 -77.9 Q-24.0 -79.1 -25.9 -80.4 L-26.1 -80.55 -26.4 -80.9 Q-19.85 -77.25 -23.5 -82.9 L-23.2 -83.35 Q-22.85 -83.0 -22.5 -83.0 -22.15 -83.0 -21.75 -83.35 -21.4 -82.95 -21.4 -82.55 -21.35 -82.2 -21.7 -81.8 -20.5 -79.7 -19.5 -80.95 L-18.85 -81.75 Q-18.5 -81.35 -18.1 -81.35 -17.75 -81.35 -17.4 -81.7 M7.3 -112.0 L9.35 -112.85 10.1 -113.45 10.85 -112.7 11.6 -111.9 Q11.95 -111.55 12.3 -111.5 L13.05 -111.9 13.75 -112.25 14.45 -111.9 Q14.8 -111.5 15.2 -111.45 L15.9 -111.85 16.25 -112.6 15.85 -113.35 15.1 -114.15 14.8 -115.65 14.3 -116.45 16.45 -116.85 Q16.8 -116.85 17.15 -116.4 L16.5 -115.65 Q17.65 -113.55 18.7 -114.85 L19.35 -115.6 Q19.7 -115.25 20.1 -115.25 20.45 -115.25 20.8 -115.6 L21.45 -116.35 22.15 -117.1 22.9 -116.35 24.5 -115.2 25.05 -115.55 25.8 -114.75 26.15 -114.3 Q20.0 -106.4 9.55 -108.1 L10.2 -108.95 Q12.45 -112.55 8.85 -108.9 L8.1 -109.65 7.35 -110.45 7.7 -111.2 7.3 -112.0 M20.25 -91.1 L20.6 -90.7 Q22.15 -92.4 20.25 -91.1 M25.4 -87.2 L25.85 -86.65 25.75 -87.55 25.4 -87.2 M22.7 -81.05 L26.55 -81.95 26.2 -83.95 26.05 -85.2 25.95 -86.1 25.45 -85.6 22.0 -81.85 21.3 -81.1 Q20.95 -81.5 20.6 -81.5 20.2 -81.5 19.85 -81.1 L20.6 -80.35 19.85 -79.9 14.95 -78.9 14.25 -78.15 13.45 -78.7 12.05 -78.95 11.35 -78.55 11.0 -78.7 10.85 -78.3 10.7 -78.05 11.8 -76.9 12.75 -75.45 Q13.85 -75.5 14.95 -76.0 L15.7 -76.55 Q18.2 -75.8 20.7 -78.75 L21.35 -79.55 22.05 -80.3 22.7 -81.05 M-0.9 -91.05 Q0.6 -92.75 -1.3 -91.45 L-0.9 -91.05 M-0.65 -93.7 L-0.3 -93.3 Q1.25 -95.05 -0.65 -93.7 M-0.4 -106.75 L-0.75 -107.15 Q2.4 -98.75 5.15 -92.1 L5.55 -91.7 Q13.95 -101.2 -0.4 -106.75 M13.45 -90.8 Q16.1 -93.75 13.05 -91.2 L13.45 -90.8 M12.1 -87.75 Q13.65 -89.5 11.7 -88.15 L12.1 -87.75 M10.15 -92.75 Q10.5 -92.4 10.65 -92.45 13.55 -93.85 10.15 -92.75 M-11.55 -97.75 L-10.85 -98.5 -10.15 -99.25 -9.45 -98.45 Q-9.05 -98.1 -9.1 -97.85 -9.4 -96.95 -10.05 -96.15 L-10.8 -96.95 -11.55 -97.75 M-3.8 -101.45 L-3.45 -101.05 Q0.3 -105.15 -3.8 -101.45 M-4.05 -98.75 Q-1.4 -101.7 -4.4 -99.15 L-4.05 -98.75 M-5.4 -95.7 Q-3.85 -97.45 -5.75 -96.1 L-5.4 -95.7 M-10.55 -89.3 Q-10.15 -88.9 -10.0 -88.95 1.35 -94.9 -10.55 -89.3 M-17.9 -74.8 L-17.1 -74.3 Q-13.6 -72.95 -17.9 -74.8 M-14.3 -75.55 L-13.95 -75.15 Q-12.4 -76.85 -14.3 -75.55 M16.85 -84.25 L17.25 -83.85 Q18.75 -85.55 16.85 -84.25 M14.8 -82.0 L15.55 -82.7 15.85 -83.1 Q15.45 -83.5 14.75 -83.5 L14.05 -82.75 Q13.7 -83.15 13.5 -83.05 12.65 -82.8 11.95 -82.0 L11.35 -81.4 Q11.55 -80.75 11.35 -79.75 L12.0 -80.5 12.7 -81.25 14.05 -81.45 14.8 -82.0 M6.8 -85.95 L7.2 -85.55 Q13.1 -94.5 6.8 -85.95 M-1.7 -93.35 Q-0.15 -95.05 -2.1 -93.75 L-1.7 -93.35" fill="#4a7bb5" fill-rule="evenodd" stroke="none"/>
    <path d="M22.5 -78.2 L16.3 -75.05 Q13.35 -74.45 10.85 -78.05 12.6 -83.15 17.05 -86.5 L22.35 -90.65 Q24.45 -92.0 25.15 -90.45 26.25 -87.8 26.05 -84.35 25.65 -80.0 22.5 -78.2" fill="#102a41" fill-rule="evenodd" stroke="none"/>
    <path d="M13.25 -78.8 Q13.15 -81.35 16.15 -83.7 19.1 -86.1 23.5 -90.25 20.4 -84.15 18.05 -81.35 15.65 -78.55 13.25 -78.8" fill="#98adcf" fill-rule="evenodd" stroke="none"/>
  </g>
</svg>
