<?xml version="1.0" encoding="UTF-8" standalone="no"?>
<svg xmlns:xlink="http://www.w3.org/1999/xlink" height="155.85px" width="233.55px" xmlns="http://www.w3.org/2000/svg">
  <g transform="matrix(1.0, 0.0, 0.0, 1.0, 107.35, 117.25)">
    <path d="M105.35 34.6 Q84.5 38.6 55.0 38.6 25.5 38.6 4.6 34.6 -16.25 30.65 -16.25 25.05 -16.25 19.45 4.6 15.45 25.5 11.5 55.0 11.5 84.5 11.5 105.35 15.45 126.2 19.45 126.2 25.05 126.2 30.65 105.35 34.6" fill="#031f32" fill-rule="evenodd" stroke="none"/>
    <path d="M84.5 -13.4 Q86.6 -14.15 88.75 -14.25 L96.2 -13.75 98.85 -13.0 97.75 -11.2 99.9 -10.2 Q100.6 -9.9 101.3 -9.7 L102.05 -9.45 103.95 -8.95 108.45 -8.45 110.45 -8.2 114.25 -7.15 116.45 -5.65 118.45 -3.2 119.3 -1.35 Q119.9 0.9 119.75 3.2 119.65 6.55 119.05 9.85 L118.25 14.25 116.55 23.6 115.65 27.0 Q115.15 28.45 114.2 29.55 112.85 31.25 110.95 32.2 L107.65 33.45 106.85 32.7 104.7 29.9 106.1 24.35 107.0 19.9 107.1 19.15 107.45 18.7 107.75 15.7 108.0 9.0 Q107.95 6.75 106.95 4.75 106.25 3.3 104.9 2.25 102.55 0.45 99.9 -0.85 L90.1 -5.2 81.95 -12.2 84.5 -13.4" fill="#185586" fill-rule="evenodd" stroke="none"/>
    <path d="M79.2 -10.45 Q81.65 -11.75 84.35 -11.95 L87.9 -11.5 91.75 -10.0 95.5 -8.6 96.2 -8.35 98.85 -7.25 100.5 -6.75 105.25 -6.0 109.3 -4.95 Q110.2 -4.65 110.75 -3.85 111.7 -2.45 112.15 -0.85 113.55 3.8 114.5 8.55 L115.05 12.45 115.1 14.25 114.95 17.5 Q114.8 19.5 114.25 21.4 L113.55 22.85 113.35 23.55 112.5 24.95 111.0 27.2 110.0 28.8 108.25 29.7 105.25 30.65 104.05 30.8 101.4 29.9 98.25 29.05 97.5 28.9 Q96.35 27.55 95.6 26.0 94.9 24.5 94.85 22.75 94.85 20.4 95.25 18.05 95.8 15.25 96.5 12.5 L98.1 6.9 97.25 6.0 94.75 6.0 92.4 6.5 89.35 7.6 Q87.3 8.45 85.2 8.85 L82.4 8.75 Q81.15 8.35 80.25 7.3 79.05 5.8 78.2 4.05 L77.4 1.95 Q76.35 -1.4 75.65 -4.8 75.35 -6.25 75.35 -7.8 77.15 -9.35 79.2 -10.45" fill="#102a41" fill-rule="evenodd" stroke="none"/>
    <path d="M37.9 -7.3 L51.1 8.5 52.6 5.5 Q53.3 4.3 54.3 3.4 56.45 1.55 58.85 0.15 60.65 -0.85 62.65 -1.4 L68.85 -2.8 Q72.8 -3.4 76.55 -4.45 78.65 -5.05 80.65 -5.95 L83.3 -6.9 84.2 -6.4 85.6 -5.45 86.5 -4.8 85.95 -4.6 83.2 -3.35 75.7 0.5 74.15 1.35 68.25 4.6 Q66.25 5.7 64.4 7.05 61.85 9.0 59.7 11.45 L58.7 13.1 58.1 13.5 57.85 13.5 57.8 13.75 57.65 14.2 57.2 15.1 56.05 16.45 55.7 16.9 54.75 16.75 54.25 16.65 54.0 16.6 53.95 16.85 52.05 16.4 51.0 16.35 49.65 14.95 48.65 14.1 46.95 12.45 45.85 11.1 45.6 11.05 32.7 -0.85 37.9 -7.3" fill="#4e79b3" fill-rule="evenodd" stroke="none"/>
    <path d="M87.25 -3.85 L87.9 -2.75 88.25 -1.95 88.6 -0.9 87.75 0.45 87.15 1.05 84.15 2.65 75.0 7.2 73.1 8.4 69.15 11.7 65.3 14.95 59.95 18.95 57.05 20.95 55.25 21.2 53.9 21.35 52.65 21.45 52.05 21.85 50.6 21.5 49.7 21.05 48.2 19.6 44.65 15.85 40.15 11.6 38.2 9.75 30.4 2.25 32.7 -0.85 45.6 11.05 45.85 11.1 46.9 12.5 47.5 13.15 48.6 14.15 51.0 16.35 52.05 16.4 53.95 16.85 54.0 16.6 54.25 16.65 54.75 16.75 55.7 16.9 56.05 16.45 57.2 15.1 57.65 14.2 57.85 13.5 58.1 13.5 58.7 13.1 59.6 11.35 60.9 9.8 Q63.45 7.65 66.3 5.9 L72.55 2.35 Q73.8 1.7 75.0 1.0 L80.55 -1.9 86.0 -4.6 86.5 -4.8 87.25 -3.85" fill="#3b5d8b" fill-rule="evenodd" stroke="none"/>
    <path d="M90.6 -114.5 L97.25 -112.35 102.2 -110.7 Q104.95 -109.65 107.35 -108.1 L109.2 -106.45 109.8 -105.55 110.65 -103.85 111.4 -100.9 Q111.6 -99.4 111.2 -97.95 L110.35 -95.1 109.2 -92.0 107.95 -88.75 107.6 -87.8 107.7 -87.25 107.6 -87.05 107.45 -86.55 107.25 -85.6 107.15 -83.25 109.3 -83.3 108.65 -80.65 Q107.5 -77.05 105.65 -73.9 104.55 -72.0 102.85 -70.55 L100.6 -68.8 98.25 -79.35 99.1 -86.6 Q99.4 -90.0 99.1 -93.35 98.85 -95.95 97.95 -98.45 97.65 -99.4 96.8 -99.95 93.8 -102.1 90.45 -103.7 L85.35 -105.8 84.2 -106.15 79.8 -107.4 74.25 -108.8 Q73.45 -110.35 72.8 -112.0 L72.5 -113.05 73.4 -114.2 Q75.25 -115.8 77.5 -116.75 L80.8 -117.25 82.95 -116.9 90.6 -114.5" fill="#185586" fill-rule="evenodd" stroke="none"/>
    <path d="M81.6 -113.5 L82.85 -113.35 84.65 -113.35 86.3 -113.2 Q88.2 -112.75 90.0 -111.95 L93.0 -110.55 94.5 -109.65 97.7 -107.3 104.9 -100.8 106.85 -98.15 Q107.3 -97.25 107.15 -96.35 106.85 -94.25 106.15 -92.25 L104.6 -87.75 104.2 -86.05 104.0 -83.2 103.8 -82.5 103.3 -78.5 102.75 -74.4 Q102.5 -72.5 101.5 -71.0 100.05 -68.7 97.75 -67.2 95.8 -65.9 93.55 -65.1 92.2 -65.8 91.05 -66.75 88.4 -69.0 85.95 -71.55 85.15 -72.3 84.5 -73.2 83.35 -74.75 82.6 -76.55 82.1 -77.8 82.35 -79.1 82.6 -80.55 83.55 -81.7 L86.6 -84.75 89.05 -86.85 90.65 -88.75 91.8 -90.9 91.4 -92.1 85.75 -93.3 Q82.95 -93.95 80.2 -94.9 77.95 -95.6 75.9 -96.75 74.4 -97.6 73.4 -98.95 72.4 -100.35 71.75 -102.0 L71.95 -102.7 72.7 -105.85 73.15 -108.65 73.9 -109.65 76.1 -111.8 77.7 -112.95 79.6 -113.15 81.6 -113.5" fill="#102a41" fill-rule="evenodd" stroke="none"/>
    <path d="M58.0 -51.25 L58.9 -52.4 59.7 -53.4 60.8 -55.05 61.8 -55.2 61.7 -57.9 61.95 -57.85 62.05 -58.1 62.2 -58.55 62.5 -59.5 63.05 -59.6 64.8 -59.95 65.8 -59.95 66.3 -59.85 66.55 -59.75 66.6 -60.0 67.25 -60.2 Q69.3 -60.4 71.2 -60.95 74.4 -61.9 77.2 -63.65 L83.3 -67.45 85.65 -68.95 90.85 -72.5 93.3 -74.15 95.8 -75.95 96.2 -76.3 96.35 -75.2 96.55 -73.55 96.55 -72.5 94.45 -70.65 91.2 -67.7 Q88.5 -64.9 86.1 -61.8 L81.9 -56.9 78.85 -54.15 76.45 -52.65 Q75.2 -52.0 73.8 -51.7 L71.1 -51.15 62.35 -47.4 52.3 -29.4 46.0 -34.8 56.45 -48.9 56.65 -48.95 58.0 -51.25" fill="#4e79b3" fill-rule="evenodd" stroke="none"/>
    <path d="M55.95 -56.15 L56.05 -57.2 56.4 -58.6 57.05 -58.95 57.75 -60.0 58.5 -61.1 59.55 -62.55 62.7 -64.15 68.8 -67.0 73.45 -68.85 78.2 -70.8 Q79.25 -71.25 80.2 -71.9 L88.5 -77.8 91.35 -79.65 92.15 -79.9 93.75 -80.0 94.5 -79.2 95.1 -78.5 95.7 -77.45 96.2 -76.3 93.3 -74.15 86.45 -69.35 84.95 -68.4 79.3 -64.75 Q77.35 -63.45 75.25 -62.5 72.4 -61.1 69.25 -60.45 L67.25 -60.15 66.6 -60.0 66.55 -59.75 65.8 -59.95 64.8 -59.95 63.05 -59.6 62.5 -59.5 62.2 -58.55 62.05 -58.1 61.95 -57.85 61.7 -57.9 61.8 -55.2 60.8 -55.05 58.85 -52.45 57.95 -51.3 57.45 -50.55 56.65 -48.95 56.45 -48.9 46.0 -34.8 43.1 -37.45 49.4 -46.25 51.0 -48.45 54.65 -53.4 55.7 -55.05 56.0 -55.55 56.05 -55.05 57.35 -57.8 56.0 -55.55 55.95 -56.15" fill="#3b5d8b" fill-rule="evenodd" stroke="none"/>
    <path d="M33.95 -39.25 L37.45 -40.45 39.05 -40.95 40.95 -41.65 42.6 -42.3 44.0 -42.8 46.6 -43.4 48.7 -43.75 48.95 -43.8 49.5 -43.85 50.55 -43.95 51.85 -42.95 53.2 -41.95 53.85 -40.1 54.25 -39.05 54.8 -37.9 51.35 -36.05 Q49.75 -35.2 48.05 -34.6 L44.0 -33.35 40.15 -32.6 29.6 -30.4 19.4 -27.4 20.65 -34.55 25.55 -36.25 33.95 -39.25" fill="#224870" fill-rule="evenodd" stroke="none"/>
    <path d="M29.6 -30.4 L40.15 -32.6 48.05 -34.7 Q49.75 -35.2 51.35 -36.05 L54.8 -37.9 54.85 -35.6 54.8 -31.8 54.8 -28.7 54.75 -25.7 54.55 -23.45 Q54.35 -21.7 53.75 -20.05 L53.1 -18.9 52.6 -18.45 38.55 -12.3 38.1 -9.6 38.55 -9.3 37.85 -8.15 37.85 -6.85 37.85 -6.75 38.7 -9.65 47.4 -3.65 29.35 12.35 16.5 0.5 16.4 -6.65 Q16.45 -9.15 16.75 -11.65 L17.7 -17.8 19.4 -27.4 29.6 -30.4" fill="#2e6399" fill-rule="evenodd" stroke="none"/>
    <path d="M37.8 -6.6 L37.85 -6.85 37.85 -8.15 38.55 -9.3 33.65 -17.8 39.65 -15.2 41.9 -14.05 44.15 -12.6 51.8 -7.3 47.4 -3.65 40.95 2.85 37.8 -6.6" fill="#224870" fill-rule="evenodd" stroke="none"/>
    <path d="M31.65 -36.9 L31.85 -36.35 33.1 -31.25 33.45 -28.7 33.5 -26.4 33.15 -23.95 32.5 -21.5 28.6 -6.75 27.65 -3.6 26.55 -1.05 25.1 1.25 23.55 3.3 28.9 -18.35 30.55 -27.7 31.65 -36.9" fill="#14305e" fill-rule="evenodd" stroke="none"/>
    <path d="M-12.25 -42.45 L-14.35 -45.9 -13.75 -46.7 -11.25 -43.15 -9.75 -40.35 -7.9 -35.8 Q-8.25 -33.6 -8.95 -31.55 -8.55 -38.7 -12.25 -42.45" fill="#14305e" fill-rule="evenodd" stroke="none"/>
    <path d="M-15.35 -44.6 L-14.35 -45.9 -12.25 -42.45 Q-13.55 -43.75 -15.35 -44.6" fill="#14305e" fill-rule="evenodd" stroke="none"/>
    <path d="M23.9 -30.15 L6.1 -34.3 -7.9 -35.8 -10.2 -41.9 -13.65 -46.8 -13.4 -47.1 20.55 -38.6 31.45 -36.95 31.65 -36.9 30.55 -27.7 23.9 -30.15" fill="#1b4777" fill-rule="evenodd" stroke="none"/>
    <path d="M30.55 -27.7 L28.9 -18.35 23.55 3.3 21.7 5.0 -10.95 -1.3 -23.05 -3.2 Q-23.9 -3.95 -24.4 -4.95 L-26.0 -9.05 Q-23.75 -9.45 -21.45 -10.95 -17.3 -13.6 -14.5 -17.0 L-14.4 -17.1 -12.7 -19.45 Q-9.45 -24.6 -9.0 -31.15 L-8.95 -31.55 Q-8.25 -33.6 -7.9 -35.8 L6.1 -34.3 9.8 -33.6 14.65 -32.55 23.9 -30.15 30.55 -27.7" fill="#336da1" fill-rule="evenodd" stroke="none"/>
    <path d="M-30.65 -8.7 L-27.1 -5.25 Q-44.0 12.85 -49.1 15.75 -52.35 17.65 -61.6 19.45 L-78.0 22.35 -78.15 17.15 Q-69.75 13.9 -63.05 11.8 -56.35 9.75 -52.3 11.4 L-30.65 -8.7" fill="#4e79b3" fill-rule="evenodd" stroke="none"/>
    <path d="M-27.1 -5.25 L-24.2 -2.45 Q-28.7 2.85 -33.4 7.2 -44.5 17.25 -50.6 19.25 -55.7 20.9 -77.95 24.35 L-78.0 22.35 -61.6 19.45 Q-52.35 17.65 -49.1 15.75 -44.0 12.85 -27.1 -5.25" fill="#3b5d8b" fill-rule="evenodd" stroke="none"/>
    <path d="M-32.55 -8.55 L-31.8 -9.85 Q-26.75 -7.5 -21.45 -10.95 L-20.95 -11.25 -12.5 -4.05 -22.3 5.45 -33.25 -7.7 -32.55 -8.55" fill="#336da1" fill-rule="evenodd" stroke="none"/>
    <path d="M-79.0 26.1 L-77.3 27.75 -83.6 30.45 Q-85.05 31.1 -87.55 29.85 -90.4 28.35 -92.25 25.3 L-95.45 19.95 Q-95.1 18.35 -96.5 18.85 -97.3 19.15 -100.4 18.2 L-104.5 17.05 Q-105.85 16.85 -106.45 16.35 -107.15 15.75 -107.35 14.25 L-107.2 13.25 Q-105.8 14.35 -103.9 14.9 -99.2 16.25 -87.0 9.45 -93.5 19.45 -88.45 24.35 -83.45 29.25 -79.0 26.1" fill="#3b5d8b" fill-rule="evenodd" stroke="none"/>
    <path d="M-72.4 4.7 L-71.7 4.85 Q-70.5 5.1 -71.5 7.35 L-73.25 10.75 Q-73.6 11.55 -72.95 14.65 -75.15 12.3 -74.95 10.95 -74.7 8.8 -72.4 4.7" fill="#3b5d8b" fill-rule="evenodd" stroke="none"/>
    <path d="M-72.4 4.7 Q-74.7 8.8 -74.95 10.95 -75.15 12.3 -72.95 14.65 L-71.2 21.55 Q-70.7 24.4 -75.6 27.05 L-77.3 27.75 -79.0 26.1 Q-83.45 29.25 -88.45 24.35 -93.5 19.45 -88.4 10.9 -94.2 17.8 -103.9 14.9 -105.95 14.25 -107.2 13.25 -106.6 11.9 -104.55 11.35 -106.25 9.75 -105.55 7.6 -104.85 5.5 -101.8 6.15 L-100.65 3.05 Q-100.35 2.15 -97.9 2.35 L-90.95 3.35 Q-87.05 3.9 -85.55 5.3 L-79.1 13.4 Q-79.15 11.55 -78.25 8.2 -77.7 6.25 -75.75 5.3 -74.2 4.55 -72.4 4.7" fill="#4e79b3" fill-rule="evenodd" stroke="none"/>
    <path d="M40.65 -64.9 Q34.3 -57.9 31.05 -56.05 25.9 -53.2 1.7 -48.0 L0.6 -52.8 6.5 -54.45 Q13.85 -56.5 28.95 -61.05 29.6 -65.4 34.85 -70.05 40.1 -74.75 47.15 -80.25 L51.6 -77.5 40.65 -64.9" fill="#4e79b3" fill-rule="evenodd" stroke="none"/>
    <path d="M51.6 -77.5 L53.25 -76.45 Q38.85 -59.05 34.8 -55.55 29.75 -51.15 15.65 -47.05 9.5 -45.2 2.65 -44.1 L1.7 -48.0 Q25.9 -53.2 31.05 -56.05 34.3 -57.9 40.65 -64.9 L51.6 -77.5" fill="#3b5d8b" fill-rule="evenodd" stroke="none"/>
    <path d="M2.75 -54.5 L8.45 -38.4 -0.8 -33.5 -14.25 -46.0 -10.3 -51.25 1.65 -54.4 2.75 -54.5" fill="#1b4777" fill-rule="evenodd" stroke="none"/>
    <path d="M59.3 -102.3 L57.95 -98.25 Q57.0 -95.2 56.3 -94.7 55.1 -93.8 56.65 -93.2 L59.25 -87.6 Q60.75 -84.35 60.35 -81.15 60.0 -78.35 58.7 -77.5 L52.9 -73.8 52.5 -76.15 Q57.55 -78.05 56.35 -84.95 55.1 -91.85 43.2 -92.1 55.65 -98.4 57.2 -103.05 57.8 -105.0 57.65 -106.7 58.15 -106.65 58.6 -106.25 59.75 -105.25 59.85 -104.3 59.9 -103.55 59.3 -102.3" fill="#3b5d8b" fill-rule="evenodd" stroke="none"/>
    <path d="M32.75 -80.5 Q30.35 -80.9 30.8 -82.05 L31.1 -82.7 Q35.95 -82.2 37.7 -81.3 38.9 -80.7 39.6 -77.55 37.5 -79.8 36.55 -80.0 L32.75 -80.5" fill="#3b5d8b" fill-rule="evenodd" stroke="none"/>
    <path d="M57.2 -103.05 Q54.15 -93.4 45.2 -92.45 55.1 -91.85 56.35 -84.95 57.55 -78.05 52.5 -76.15 L52.9 -73.8 51.35 -72.8 Q46.4 -70.25 44.35 -72.25 L39.6 -77.55 Q38.9 -80.7 37.7 -81.3 35.95 -82.2 31.1 -82.7 31.95 -84.3 33.45 -85.15 35.3 -86.25 37.25 -85.55 40.5 -84.45 42.05 -83.35 L40.3 -89.5 38.95 -93.25 Q38.6 -95.25 40.35 -98.8 L43.45 -105.15 Q44.65 -107.3 45.6 -107.0 L48.75 -106.2 Q49.95 -109.15 52.1 -108.5 54.25 -107.85 54.65 -105.55 56.2 -107.0 57.65 -106.7 57.8 -105.05 57.2 -103.05" fill="#4e79b3" fill-rule="evenodd" stroke="none"/>
    <path d="M-36.2 -10.0 L-35.55 -10.95 -33.75 -11.0 -32.9 -10.45 -34.75 -10.1 -36.2 -10.0" fill="#1d4d82" fill-rule="evenodd" stroke="none"/>
    <path d="M-13.5 -44.4 L-14.35 -45.95 -14.1 -46.25 -14.05 -46.15 -13.5 -44.4" fill="#2e6399" fill-rule="evenodd" stroke="none"/>
    <path d="M-13.15 -43.25 L-15.35 -44.6 -14.35 -45.95 -13.5 -44.4 -13.15 -43.25" fill="#2e6399" fill-rule="evenodd" stroke="none"/>
    <path d="M-10.1 -26.4 L-9.8 -27.1 -9.45 -25.85 -10.1 -26.4 M-10.75 -20.1 L-10.75 -20.0 -10.9 -19.9 -11.9 -19.05 -11.85 -19.3 -11.45 -20.25 -10.75 -20.1 M-13.35 -17.8 L-13.75 -17.45 -13.6 -17.9 -13.35 -17.8 M-14.9 -16.35 L-15.1 -16.1 -15.6 -15.9 -15.05 -16.4 -14.9 -16.35" fill="#000000" fill-rule="evenodd" stroke="none"/>
    <path d="M-9.9 -27.5 L-10.45 -27.7 -10.65 -27.8 -10.3 -28.75 -10.1 -28.05 -9.9 -27.5 M-10.45 -25.45 L-10.1 -26.4 -9.45 -25.85 -9.4 -25.7 -9.7 -25.1 -10.45 -25.45 M-10.7 -20.9 L-10.75 -20.1 -11.45 -20.25 -10.9 -20.85 -10.7 -20.9 M-12.55 -18.55 L-13.35 -17.8 -13.6 -17.9 -13.45 -18.25 -13.1 -18.8 -12.55 -18.55 M-14.15 -17.05 L-14.9 -16.35 -15.05 -16.4 -14.5 -17.0 -14.35 -17.15 -14.15 -17.05" fill="#00294a" fill-rule="evenodd" stroke="none"/>
    <path d="M-10.3 -28.75 L-10.65 -27.8 -10.45 -27.7 -9.9 -27.5 -9.8 -27.1 -10.1 -26.4 -10.45 -25.45 -10.85 -25.65 Q-10.65 -27.9 -10.7 -30.1 L-10.3 -28.75 M-10.3 -23.1 L-10.7 -20.9 -10.9 -20.85 -11.45 -20.25 -11.85 -19.3 -11.9 -19.05 -12.55 -18.55 -13.1 -18.8 Q-12.1 -20.4 -11.5 -22.15 L-10.8 -23.2 -10.3 -23.1 M-13.75 -17.45 L-14.15 -17.05 -14.35 -17.15 -13.45 -18.25 -13.6 -17.9 -13.75 -17.45" fill="#005a9c" fill-rule="evenodd" stroke="none"/>
    <path d="M-10.85 -25.65 L-10.45 -25.45 -9.7 -25.1 -10.3 -23.1 -10.8 -23.2 -11.5 -22.15 Q-11.0 -23.75 -10.85 -25.55 L-10.85 -25.65" fill="#4a7bb5" fill-rule="evenodd" stroke="none"/>
    <path d="M-98.9 -71.1 L-95.85 -79.0 -94.8 -81.55 -91.9 -83.9 -89.5 -86.35 Q-87.95 -87.15 -86.2 -87.6 L-84.8 -88.1 Q-83.1 -88.85 -82.1 -89.95 L-81.45 -90.35 -81.15 -90.5 -78.35 -91.0 -75.0 -91.85 -68.85 -92.35 -61.95 -88.95 -63.35 -89.0 -62.35 -88.75 -61.55 -88.75 -40.75 -78.5 Q-38.95 -76.95 -37.65 -75.2 L-37.15 -74.95 -37.05 -75.7 Q-35.15 -74.0 -33.3 -73.85 L-32.3 -72.6 -32.8 -72.85 -33.6 -72.95 -34.2 -72.35 -33.2 -71.9 -33.6 -70.9 -32.65 -70.45 -33.05 -69.5 -32.05 -69.05 -31.1 -68.55 -31.5 -67.65 -30.5 -67.15 -29.55 -66.65 -28.55 -66.2 -28.95 -65.2 -28.0 -64.8 -27.0 -64.3 -26.05 -63.85 -26.45 -62.85 -25.5 -62.4 Q-23.7 -60.85 -23.7 -62.4 L-22.3 -60.65 -22.3 -60.4 -23.9 -60.5 -23.0 -60.25 -22.3 -60.25 -22.0 -59.15 -21.0 -56.8 Q-21.75 -57.0 -22.2 -56.25 L-23.15 -56.7 Q-23.8 -60.1 -26.7 -59.8 L-27.6 -60.05 -28.6 -60.5 Q-28.05 -62.75 -29.45 -64.2 L-30.3 -64.8 -31.25 -65.25 -33.2 -66.2 Q-33.0 -66.7 -33.15 -66.85 -37.0 -71.2 -37.05 -68.1 L-38.05 -68.6 -39.0 -69.05 -39.95 -69.55 -40.9 -69.8 -42.25 -69.55 -43.25 -70.0 -44.2 -70.5 -45.05 -70.6 -45.55 -70.05 -46.25 -70.15 Q-46.95 -69.6 -47.35 -68.6 L-48.15 -68.75 -48.65 -68.2 -49.05 -67.2 -49.55 -67.35 Q-51.0 -65.3 -51.95 -62.95 L-52.35 -62.0 -53.2 -62.25 -53.3 -62.25 -54.65 -62.0 -54.3 -62.95 -54.05 -63.6 -53.95 -64.85 -54.45 -65.3 -54.1 -66.3 -53.25 -66.15 Q-52.95 -66.25 -52.75 -66.7 L-51.9 -68.6 -51.55 -69.55 Q-51.3 -74.35 -53.6 -76.9 L-54.3 -77.6 Q-57.45 -80.25 -64.25 -79.7 L-65.75 -79.55 -66.2 -79.05 -67.2 -79.45 Q-71.55 -80.35 -75.0 -79.1 -78.25 -77.9 -80.75 -74.85 L-81.65 -75.0 Q-84.4 -74.75 -83.25 -71.55 L-84.2 -72.1 Q-86.55 -73.9 -86.9 -71.1 L-87.3 -70.15 -87.85 -70.35 Q-89.05 -68.75 -89.85 -66.8 L-90.25 -65.9 -90.6 -64.95 -90.75 -64.0 Q-90.3 -56.7 -87.95 -49.95 -85.8 -43.7 -81.95 -37.95 L-79.05 -36.5 -78.1 -36.05 -78.5 -35.1 -77.55 -34.65 -77.9 -33.65 -78.0 -33.1 Q-75.35 -30.95 -74.25 -28.45 L-70.05 -27.45 -69.05 -27.05 -69.2 -26.55 Q-61.35 -21.5 -57.8 -17.55 -58.3 -17.8 -59.0 -17.55 L-59.95 -18.05 -60.9 -18.5 -62.85 -19.45 -63.8 -19.9 -64.8 -20.4 -65.6 -20.5 -66.15 -19.95 -67.1 -20.2 -68.45 -19.95 -69.3 -20.05 -69.8 -19.5 -70.8 -19.9 -71.75 -20.2 -73.1 -19.95 -74.0 -20.55 Q-84.1 -27.6 -90.05 -32.55 L-89.45 -31.75 -86.3 -27.85 Q-83.65 -25.0 -80.25 -22.35 L-74.45 -19.5 -73.5 -19.0 -73.85 -18.05 -74.1 -17.5 -79.35 -20.75 -84.35 -25.5 Q-89.25 -30.4 -93.3 -35.9 L-93.5 -36.6 -94.15 -39.5 -94.8 -44.35 Q-96.1 -51.95 -99.15 -61.15 L-99.3 -60.25 -98.1 -52.8 -99.7 -57.0 -100.35 -59.1 Q-100.7 -60.55 -101.15 -61.45 -100.5 -63.3 -100.25 -65.4 -100.1 -66.4 -100.3 -67.35 L-99.7 -68.9 -100.1 -67.3 -99.6 -67.05 -98.9 -71.1 M-81.3 -87.6 L-81.55 -87.75 -82.25 -87.9 -85.2 -87.75 Q-87.6 -87.1 -89.3 -84.65 L-89.65 -84.1 -89.8 -83.85 -89.0 -83.75 Q-88.65 -83.9 -88.45 -84.35 L-87.6 -84.25 Q-87.3 -84.35 -87.1 -84.8 L-86.45 -85.35 Q-84.65 -86.55 -82.0 -86.2 -81.85 -86.2 -81.65 -86.65 L-81.15 -86.5 -80.85 -86.55 -80.35 -87.15 -79.5 -87.05 Q-79.15 -87.15 -78.95 -87.6 L-78.15 -87.5 Q-77.85 -87.6 -77.6 -88.05 L-77.25 -89.05 Q-76.3 -91.4 -79.95 -88.1 L-80.75 -88.2 -81.3 -87.6 M-91.55 -82.55 L-91.2 -83.35 -91.7 -82.75 Q-93.55 -81.8 -94.95 -79.75 -96.7 -77.2 -97.75 -73.0 L-97.25 -72.8 -91.55 -82.55 M-87.3 -70.15 L-86.65 -69.55 Q-86.55 -69.2 -86.75 -68.7 -86.95 -68.25 -87.3 -67.95 -87.8 -67.55 -88.5 -67.3 L-87.7 -69.15 -87.3 -70.15 M-90.4 -62.55 Q-89.05 -64.45 -89.95 -62.35 L-90.4 -62.55 M-87.35 -41.75 L-86.85 -41.55 Q-86.0 -43.65 -87.35 -41.75 M-100.1 -61.6 L-99.6 -61.4 Q-98.15 -70.1 -100.1 -61.6 M-92.2 -35.0 L-91.55 -35.0 Q-89.4 -35.8 -92.3 -35.15 L-92.4 -35.15 -92.2 -35.0 M-93.0 -36.55 L-92.5 -36.3 Q-91.65 -38.45 -93.0 -36.55 M-28.45 -68.4 L-28.75 -68.55 -29.7 -69.05 -29.6 -69.55 -28.45 -68.4 M-28.2 -67.15 Q-28.0 -67.6 -28.15 -67.95 L-28.25 -68.15 -26.5 -66.55 -25.15 -65.55 -24.65 -64.25 -24.7 -64.3 -25.7 -64.8 Q-25.5 -65.25 -25.6 -65.6 L-26.25 -66.2 -27.2 -66.65 -28.2 -67.15 M-24.05 -63.05 L-23.85 -62.7 -24.1 -62.85 -24.05 -63.05 M-39.8 -67.15 L-39.4 -68.15 -38.4 -67.65 -38.8 -66.7 -39.8 -67.15 M-40.2 -66.2 L-39.2 -65.75 -39.6 -64.8 -40.4 -64.95 -40.95 -64.3 -41.9 -64.6 -43.25 -64.3 -44.1 -64.5 -45.95 -63.35 -46.4 -62.45 -45.4 -62.0 -44.45 -61.5 -44.8 -60.55 -43.85 -60.1 -44.25 -59.15 -45.05 -59.25 -45.6 -58.7 -46.55 -59.15 -47.4 -59.25 -47.9 -58.65 -48.85 -59.15 -48.5 -60.1 -48.1 -61.05 -47.7 -62.0 -46.55 -64.8 -46.15 -65.75 -45.75 -66.7 -44.95 -66.6 Q-44.65 -66.7 -44.45 -67.15 L-42.5 -66.7 -42.05 -67.2 -41.1 -66.7 -40.2 -66.2 M-26.45 -43.2 L-26.0 -41.65 -25.95 -41.6 -26.9 -42.7 -27.0 -42.85 -26.8 -42.85 -26.45 -43.2 M-51.2 -53.5 L-52.2 -53.95 -51.75 -54.9 -51.4 -55.85 -50.45 -55.35 -50.8 -54.4 -51.2 -53.5 M-75.9 -89.5 L-74.9 -89.15 Q-63.5 -88.15 -75.9 -89.5 M-67.95 -89.0 L-67.1 -88.85 Q-61.3 -89.85 -67.95 -89.0 M-68.2 -45.95 L-67.8 -46.9 -66.85 -46.4 -67.25 -45.5 -68.2 -45.95 M-66.1 -48.3 Q-65.4 -48.55 -64.85 -48.95 -64.55 -49.25 -64.35 -49.7 L-63.4 -49.25 -63.8 -48.3 -62.8 -47.85 -62.4 -48.75 -61.45 -48.3 -62.0 -47.7 -62.8 -47.85 -63.2 -46.9 -64.15 -47.35 -65.0 -47.5 Q-65.35 -47.4 -65.5 -46.9 L-64.55 -46.4 -64.95 -45.5 -65.9 -45.95 -66.85 -46.4 -66.5 -47.4 -66.1 -48.3 M-66.7 -44.05 L-67.05 -43.1 -68.05 -43.6 -67.65 -44.55 -67.25 -45.5 -66.3 -45.0 -66.7 -44.05 M-64.55 -40.75 L-64.15 -41.7 Q-63.5 -41.95 -63.0 -42.35 -62.65 -42.65 -62.45 -43.1 L-61.45 -42.65 -60.65 -42.0 Q-60.2 -41.45 -59.9 -40.7 L-60.3 -39.8 -60.65 -38.85 -61.7 -39.35 -62.45 -39.45 -63.0 -38.85 -64.0 -39.3 -64.95 -39.8 -64.55 -40.75 M-59.7 -44.05 Q-59.9 -43.6 -60.25 -43.45 L-61.05 -43.6 -62.05 -44.05 -61.65 -45.0 -60.7 -44.5 -59.7 -44.05 M-47.9 -64.35 L-48.3 -63.4 -49.25 -63.85 -48.85 -64.85 -47.9 -64.35 M-48.9 -53.5 L-47.9 -53.0 -48.3 -52.05 -49.25 -52.55 -50.25 -53.05 -49.85 -53.95 -48.9 -53.5 M-47.1 -60.55 L-46.65 -60.35 Q-45.75 -62.45 -47.1 -60.55 M-47.35 -51.55 L-47.0 -52.4 -46.95 -52.55 -46.0 -52.05 -45.0 -51.55 Q-45.25 -51.1 -45.45 -51.1 L-46.25 -51.2 -47.35 -51.55 M-42.7 -51.55 L-41.75 -51.1 -40.8 -50.6 -41.2 -49.65 -41.5 -48.7 -42.5 -49.2 -42.85 -50.6 -42.7 -51.55 M-69.4 -43.1 L-68.4 -42.65 -68.95 -41.9 Q-69.5 -41.5 -70.15 -41.25 L-69.8 -42.2 -69.4 -43.1 M-69.0 -38.4 L-69.4 -37.45 -69.8 -36.5 -70.75 -36.95 Q-70.4 -37.95 -69.65 -38.5 L-69.0 -38.4 M-69.2 -35.05 L-69.6 -34.15 -70.0 -33.2 -69.0 -32.7 -69.4 -31.75 -70.35 -32.25 -71.35 -32.7 Q-70.75 -34.15 -69.8 -35.2 L-69.2 -35.05 M-48.95 -13.75 L-48.0 -13.3 -47.0 -12.8 Q-45.1 -11.85 -43.05 -11.35 L-42.8 -11.85 -41.8 -11.35 -41.55 -11.2 Q-46.45 -10.75 -50.8 -8.8 L-50.95 -8.8 -51.4 -9.25 -51.25 -9.55 -49.65 -9.8 Q-49.35 -9.95 -49.15 -10.4 L-47.8 -10.65 -46.8 -10.45 -45.95 -11.15 -46.45 -11.35 -47.4 -11.8 -48.4 -12.3 -49.3 -12.8 -50.3 -13.3 -49.75 -13.85 -48.95 -13.75 M-61.75 -40.5 Q-60.9 -42.6 -62.25 -40.7 L-61.75 -40.5 M-64.35 -38.4 L-64.75 -37.45 -63.8 -36.95 -62.8 -36.5 -63.2 -35.55 -64.0 -33.65 -64.95 -34.15 Q-64.75 -34.6 -64.9 -34.95 -65.05 -35.3 -65.55 -35.55 L-65.2 -36.5 -64.75 -37.45 -65.7 -37.9 -65.35 -38.85 -64.35 -38.4 M-73.45 -30.4 Q-72.1 -32.3 -72.95 -30.15 L-73.45 -30.4 M-71.55 -15.85 L-71.35 -15.75 Q-69.1 -15.25 -68.85 -14.0 L-71.55 -15.85 M-65.6 -11.7 L-65.0 -11.45 -64.0 -10.95 -63.5 -10.65 -62.5 -10.1 -62.9 -9.95 -65.6 -11.7 M-57.05 -16.6 L-58.0 -17.1 -57.8 -17.55 -57.05 -16.6 M-28.5 -12.7 L-27.9 -12.45 -27.5 -12.25 -30.1 -11.05 -30.35 -11.05 -30.2 -11.3 Q-29.55 -11.55 -29.0 -11.95 L-28.7 -12.3 -28.5 -12.7 M-22.1 -14.15 L-21.75 -13.95 -21.95 -13.95 -22.2 -13.9 -22.1 -14.15 M-23.45 -13.55 L-23.45 -13.65 -23.35 -13.6 -23.45 -13.55 M-32.6 -11.15 L-32.5 -11.35 -32.05 -11.15 -32.6 -11.15 M-15.8 -15.8 L-15.3 -16.5 -15.05 -16.4 -15.6 -15.9 -15.8 -15.8" fill="#000000" fill-rule="evenodd" stroke="none"/>
    <path d="M-98.9 -71.1 L-99.6 -67.05 -100.1 -67.3 -99.7 -68.9 -98.9 -71.1 M-98.1 -52.8 L-99.3 -60.25 -99.15 -61.15 Q-96.1 -51.95 -94.8 -44.35 L-94.15 -39.5 -94.5 -40.95 -95.25 -44.0 Q-96.5 -48.5 -98.1 -52.8 M-73.5 -19.0 L-74.45 -19.5 -80.25 -22.35 Q-83.65 -25.0 -86.3 -27.85 L-89.45 -31.75 -90.05 -32.55 Q-84.1 -27.6 -74.0 -20.55 L-73.1 -19.95 -71.75 -20.2 -70.8 -19.9 -71.2 -19.45 Q-72.15 -19.5 -73.1 -19.95 L-73.5 -19.0 M-69.8 -19.5 L-69.3 -20.05 -68.45 -19.95 Q-68.65 -19.5 -69.0 -19.35 L-69.8 -19.5 M-66.15 -19.95 L-65.6 -20.5 -64.8 -20.4 -65.15 -19.45 -66.15 -19.95 M-59.0 -17.55 Q-58.3 -17.8 -57.8 -17.55 -61.35 -21.5 -69.2 -26.55 L-69.05 -27.05 -70.05 -27.45 -74.25 -28.45 Q-75.35 -30.95 -78.0 -33.1 L-77.9 -33.65 Q-72.9 -33.65 -70.55 -40.25 L-70.15 -41.25 Q-69.5 -41.5 -68.95 -41.9 L-68.4 -42.65 -68.05 -43.6 -69.0 -44.05 -69.4 -43.1 -69.8 -42.2 -70.75 -42.65 Q-70.35 -43.6 -69.65 -44.15 L-69.0 -44.05 -68.6 -45.0 -68.2 -45.95 -67.25 -45.5 -66.85 -46.4 -67.8 -46.9 -67.45 -47.85 -66.5 -47.4 -66.85 -46.4 -65.9 -45.95 -64.95 -45.5 -65.3 -44.5 -66.3 -45.0 -67.25 -45.5 -67.65 -44.55 -68.05 -43.6 -67.05 -43.1 -67.45 -42.2 -68.25 -40.25 -68.65 -39.35 -69.0 -38.4 -69.65 -38.5 Q-70.4 -37.95 -70.75 -36.95 L-69.8 -36.5 -68.8 -36.05 -69.2 -35.05 -69.8 -35.2 Q-70.75 -34.15 -71.35 -32.7 L-70.35 -32.25 -69.4 -31.75 -68.4 -31.3 -67.45 -30.8 -67.95 -29.9 Q-68.4 -29.35 -69.05 -27.05 L-68.05 -26.55 Q-55.6 -19.95 -48.95 -13.75 L-49.75 -13.85 -50.3 -13.3 -49.3 -12.8 -48.4 -12.3 -48.75 -11.4 -49.15 -10.4 -50.1 -10.9 -50.05 -11.7 Q-50.2 -12.1 -50.7 -12.3 L-50.3 -13.3 -51.3 -13.7 -57.05 -16.6 -57.8 -17.55 -58.0 -17.1 -59.0 -17.55 M-77.55 -34.65 L-78.5 -35.1 -78.1 -36.05 -79.05 -36.5 -81.95 -37.95 Q-85.8 -43.7 -87.95 -49.95 -90.3 -56.7 -90.75 -64.0 L-90.6 -64.95 Q-89.05 -64.05 -89.35 -66.35 L-89.85 -66.8 Q-89.05 -68.75 -87.85 -70.35 L-87.3 -70.15 -87.7 -69.15 -88.5 -67.3 Q-87.8 -67.55 -87.3 -67.95 -86.95 -68.25 -86.75 -68.7 L-86.25 -68.3 Q-86.85 -60.45 -84.85 -52.5 -82.85 -44.35 -78.1 -36.05 -77.6 -35.85 -77.45 -35.45 -77.35 -35.1 -77.55 -34.65 M-86.9 -71.1 Q-86.55 -73.9 -84.2 -72.1 L-83.25 -71.55 Q-84.4 -74.75 -81.65 -75.0 L-80.75 -74.85 Q-78.25 -77.9 -75.0 -79.1 -71.55 -80.35 -67.2 -79.45 L-66.2 -79.05 -65.75 -79.55 -64.25 -79.7 Q-57.45 -80.25 -54.3 -77.6 L-53.6 -76.9 Q-51.3 -74.35 -51.55 -69.55 L-52.55 -70.05 -52.15 -71.0 Q-53.3 -74.5 -55.7 -76.45 -58.75 -78.9 -63.75 -78.9 L-65.35 -78.85 -66.2 -79.05 Q-66.4 -78.6 -66.7 -78.55 L-71.25 -77.4 -80.75 -74.85 -81.15 -73.95 Q-81.8 -72.9 -83.25 -71.55 L-83.85 -70.85 Q-85.05 -70.2 -86.9 -71.1 M-52.75 -66.7 Q-52.95 -66.25 -53.25 -66.15 L-54.1 -66.3 -53.7 -67.2 -52.75 -66.7 M-54.45 -65.3 L-53.95 -64.85 -54.05 -63.6 -54.3 -62.95 -55.25 -63.4 -54.85 -64.35 -54.75 -64.65 -54.45 -65.3 M-54.65 -62.0 L-53.3 -62.25 -53.2 -62.25 -52.35 -62.0 -52.6 -61.3 -52.7 -61.0 -55.05 -61.05 -54.65 -62.0 M-51.95 -62.95 Q-51.0 -65.3 -49.55 -67.35 L-49.05 -67.2 -49.45 -66.25 -49.85 -65.3 -51.0 -62.5 -51.95 -62.95 M-48.65 -68.2 L-48.15 -68.75 -47.35 -68.6 -47.7 -67.7 -46.75 -67.2 -47.1 -66.25 -46.15 -65.75 -46.55 -64.8 -47.7 -62.0 -48.7 -62.5 -48.3 -63.4 -47.9 -64.35 -47.5 -65.3 -47.1 -66.25 -48.1 -66.7 -47.7 -67.7 -48.65 -68.2 M-45.55 -70.05 L-45.05 -70.6 -44.2 -70.5 -44.6 -69.5 -45.55 -70.05 M-42.25 -69.55 L-40.9 -69.8 -39.95 -69.55 -40.35 -68.6 -41.35 -69.05 -42.25 -69.55 M-39.0 -69.05 L-38.05 -68.6 -38.4 -67.65 -37.45 -67.15 -37.05 -68.1 Q-37.0 -71.2 -33.15 -66.85 -33.0 -66.7 -33.2 -66.2 L-34.05 -66.3 Q-34.4 -66.2 -34.55 -65.7 L-35.55 -66.2 -36.5 -66.7 -37.45 -67.15 -37.85 -66.25 -38.8 -66.7 -38.4 -67.65 -39.4 -68.15 -39.0 -69.05 M-30.3 -64.8 L-29.45 -64.2 Q-28.05 -62.75 -28.6 -60.5 L-29.55 -61.0 -30.5 -61.45 Q-32.25 -64.05 -30.8 -64.3 -30.5 -64.35 -30.3 -64.8 M-27.6 -60.05 L-26.7 -59.8 Q-23.8 -60.1 -23.15 -56.7 L-24.15 -57.2 -28.0 -59.1 -27.6 -60.05 M-22.2 -56.25 Q-21.75 -57.0 -21.0 -56.8 L-20.3 -55.3 -22.2 -56.25 M-22.3 -60.25 L-23.0 -60.25 -23.9 -60.5 -22.3 -60.4 -22.3 -60.25 M-25.5 -62.4 L-26.45 -62.85 -26.05 -63.85 -25.1 -63.35 -24.7 -64.3 -24.65 -64.25 -24.05 -63.05 -24.1 -62.85 -25.1 -63.35 -25.5 -62.4 M-30.5 -67.15 L-31.5 -67.65 -31.1 -68.55 Q-30.6 -68.35 -30.45 -67.95 -30.3 -67.65 -30.5 -67.15 M-33.2 -71.9 L-34.2 -72.35 -33.6 -72.95 -32.8 -72.85 -33.2 -71.9 M-37.05 -75.7 L-37.15 -74.95 -37.65 -75.2 Q-38.95 -76.95 -40.75 -78.5 L-38.8 -77.55 -38.3 -77.0 -37.05 -75.7 M-61.55 -88.75 L-62.35 -88.75 -63.35 -89.0 -61.95 -88.95 -61.55 -88.75 M-81.3 -87.6 L-81.4 -87.3 -81.65 -86.65 Q-81.85 -86.2 -82.0 -86.2 -84.65 -86.55 -86.45 -85.35 L-87.1 -84.8 -87.9 -84.9 -88.45 -84.35 Q-88.65 -83.9 -89.0 -83.75 L-89.8 -83.85 -89.65 -84.1 -89.3 -84.65 Q-87.6 -87.1 -85.2 -87.75 L-82.25 -87.9 -81.55 -87.75 -81.3 -87.6 -80.75 -88.2 -79.95 -88.1 Q-76.3 -91.4 -77.25 -89.05 L-77.6 -88.05 -78.45 -88.2 Q-78.8 -88.1 -78.95 -87.6 L-79.95 -88.1 -80.35 -87.15 -81.3 -87.6 M-91.55 -82.55 L-97.25 -72.8 -97.75 -73.0 Q-96.7 -77.2 -94.95 -79.75 -93.55 -81.8 -91.7 -82.75 L-91.2 -83.35 -91.55 -82.55 M-90.4 -62.55 L-89.95 -62.35 Q-89.05 -64.45 -90.4 -62.55 M-100.1 -61.6 Q-98.15 -70.1 -99.6 -61.4 L-100.1 -61.6 M-87.35 -41.75 Q-86.0 -43.65 -86.85 -41.55 L-87.35 -41.75 M-93.0 -36.55 Q-91.65 -38.45 -92.5 -36.3 L-93.0 -36.55 M-92.2 -35.0 L-92.4 -35.15 -92.3 -35.15 Q-89.4 -35.8 -91.55 -35.0 L-92.2 -35.0 M-28.75 -68.55 L-28.45 -68.4 -28.25 -68.15 -28.15 -67.95 Q-28.0 -67.6 -28.2 -67.15 L-29.15 -67.6 -28.75 -68.55 M-26.25 -66.2 L-25.6 -65.6 Q-25.5 -65.25 -25.7 -64.8 L-26.65 -65.25 -26.25 -66.2 M-40.75 -67.65 L-39.8 -67.15 -40.2 -66.2 -41.1 -66.7 -40.75 -67.65 M-39.6 -64.8 Q-39.8 -64.35 -40.1 -64.25 L-40.95 -64.3 -40.4 -64.95 -39.6 -64.8 M-43.25 -64.3 L-41.9 -64.6 -40.95 -64.3 -41.3 -63.35 -43.65 -63.4 -43.25 -64.3 M-40.8 -50.6 Q-39.85 -50.15 -38.9 -50.15 -38.65 -50.15 -38.45 -50.65 L-37.5 -50.15 -36.5 -49.65 -37.1 -48.95 Q-38.7 -47.45 -41.5 -48.7 L-41.2 -49.65 -40.8 -50.6 M-19.9 -50.6 L-19.4 -51.15 -18.55 -51.0 -18.9 -50.1 -19.9 -50.6 M-19.5 -53.75 L-19.7 -53.85 -19.6 -54.05 -19.5 -53.75 M-31.7 -47.3 L-30.7 -46.8 -29.9 -46.7 -29.35 -47.3 -28.65 -46.65 Q-27.15 -44.55 -30.55 -44.45 L-31.5 -44.9 -33.45 -45.85 Q-32.75 -46.1 -32.2 -46.5 L-31.7 -47.3 M-26.45 -43.55 L-26.45 -43.2 -26.8 -42.85 -27.0 -42.85 -27.6 -43.15 -27.1 -43.6 -26.45 -43.55 M-24.05 -37.7 L-23.65 -36.95 -23.75 -36.6 -23.95 -37.3 -24.05 -37.7 M-35.8 -26.0 L-36.15 -26.15 -36.1 -26.4 -36.1 -26.8 -36.05 -26.8 -36.05 -26.15 -35.8 -26.0 M-35.95 -28.5 L-36.15 -27.95 Q-36.3 -28.9 -36.7 -29.45 L-36.35 -30.25 -35.7 -29.95 -35.95 -28.5 M-32.25 -43.05 L-32.7 -42.1 -33.65 -42.55 Q-33.45 -43.05 -33.6 -43.4 -33.75 -43.75 -34.25 -43.95 L-35.15 -44.45 Q-34.25 -45.9 -32.25 -43.7 -32.1 -43.55 -32.25 -43.05 M-44.8 -49.2 L-45.05 -49.35 -45.8 -49.7 -46.8 -50.15 -47.75 -50.65 -47.35 -51.55 -46.25 -51.2 -45.45 -51.1 Q-45.25 -51.1 -45.0 -51.55 L-43.65 -51.8 -42.7 -51.55 -42.85 -50.6 -42.5 -49.2 -43.45 -49.45 -44.8 -49.2 M-52.75 -55.4 L-52.35 -56.35 -51.85 -56.9 -51.0 -56.8 -51.4 -55.85 -51.75 -54.9 -52.75 -55.4 M-23.95 -54.8 Q-19.3 -54.5 -23.0 -54.6 L-23.95 -54.8 M-67.95 -89.0 Q-61.3 -89.85 -67.1 -88.85 L-67.95 -89.0 M-75.9 -89.5 Q-63.5 -88.15 -74.9 -89.15 L-75.9 -89.5 M-63.0 -50.2 L-62.0 -49.7 -62.4 -48.75 -62.8 -47.85 -63.8 -48.3 -63.4 -49.25 -63.0 -50.2 M-63.2 -46.9 L-63.6 -45.95 -64.55 -46.4 -64.15 -47.35 -63.2 -46.9 M-66.3 -39.35 Q-65.95 -40.3 -65.25 -40.85 L-64.55 -40.75 -64.95 -39.8 -64.0 -39.3 -64.35 -38.4 -65.35 -38.85 -66.3 -39.35 M-58.35 -44.5 L-58.9 -43.9 -59.7 -44.05 -60.7 -44.5 -61.65 -45.0 -61.25 -45.95 -59.3 -45.0 -58.35 -44.5 M-61.05 -43.6 L-61.45 -42.65 -62.45 -43.1 -62.05 -44.05 -61.05 -43.6 M-59.35 -39.3 L-59.75 -38.35 -60.65 -38.85 -60.3 -39.8 -59.35 -39.3 M-62.6 -34.1 L-63.05 -33.15 -64.0 -33.65 Q-64.2 -33.2 -64.5 -33.05 L-65.35 -33.2 -64.95 -34.15 -64.0 -33.65 -63.2 -35.55 -62.8 -36.5 -61.85 -36.0 -62.2 -35.05 -62.6 -34.1 M-29.45 -13.2 L-28.65 -12.8 -28.5 -12.7 -28.7 -12.3 -29.0 -11.95 Q-29.55 -11.55 -30.2 -11.3 L-30.35 -11.05 -30.7 -11.1 -32.05 -11.15 -32.5 -11.35 -32.6 -11.15 -33.65 -11.2 -33.45 -11.4 -33.35 -11.5 -32.95 -11.5 -32.5 -11.35 -31.15 -11.55 -30.35 -11.4 -30.2 -11.3 -30.05 -11.6 -29.9 -12.05 -29.8 -12.3 -29.45 -13.2 M-16.95 -15.4 L-15.95 -16.6 -15.3 -16.5 -14.9 -17.45 -14.35 -17.15 -14.5 -17.0 -15.05 -16.4 -15.3 -16.5 -15.8 -15.8 -16.95 -15.4 M-45.75 -66.7 L-45.4 -67.65 -44.45 -67.15 -43.05 -67.45 -42.05 -67.2 -42.5 -66.7 -44.45 -67.15 Q-44.65 -66.7 -44.95 -66.6 L-45.75 -66.7 M-50.8 -60.1 L-50.05 -62.0 -49.65 -62.9 -48.7 -62.5 -49.05 -61.5 -48.1 -61.05 -48.5 -60.1 -49.0 -60.3 Q-49.65 -58.3 -51.2 -59.15 L-50.8 -60.1 M-44.25 -59.15 L-43.85 -60.1 -44.8 -60.55 -44.45 -61.5 -45.4 -62.0 -46.4 -62.45 -45.95 -63.35 -45.2 -62.8 -44.45 -61.5 -43.45 -61.0 -43.85 -60.1 -42.9 -59.6 Q-43.1 -59.15 -43.4 -59.0 L-44.25 -59.15 M-45.6 -58.7 Q-45.8 -58.2 -46.15 -58.05 L-46.95 -58.2 -46.55 -59.15 -45.6 -58.7 M-48.9 -53.5 L-48.5 -54.45 -48.2 -54.25 -47.55 -53.9 -47.7 -53.5 -47.9 -53.0 -48.9 -53.5 M-50.8 -54.4 L-49.85 -53.95 -50.25 -53.05 -51.2 -53.5 -50.8 -54.4 M-47.9 -53.0 L-47.15 -52.65 -46.95 -52.55 -47.0 -52.4 -47.35 -51.55 -48.3 -52.05 -47.9 -53.0 M-69.6 -34.15 L-68.6 -33.65 -69.0 -32.7 -70.0 -33.2 -69.6 -34.15 M-47.0 -12.8 Q-46.1 -14.25 -43.7 -12.4 L-42.8 -11.85 -43.05 -11.35 Q-45.1 -11.85 -47.0 -12.8 M-41.8 -11.35 L-41.4 -12.3 -39.5 -11.35 -41.55 -11.2 -41.8 -11.35 M-63.0 -38.85 L-62.45 -39.45 -61.7 -39.35 -62.05 -38.35 -63.0 -38.85 M-65.7 -37.9 L-64.75 -37.45 -65.2 -36.5 -66.1 -36.95 -65.7 -37.9 M-73.45 -30.4 L-72.95 -30.15 Q-72.1 -32.3 -73.45 -30.4 M-12.05 -34.4 L-11.65 -33.15 -11.55 -32.8 -12.0 -33.05 -12.05 -34.4 M-11.3 -31.95 L-11.15 -31.45 -11.45 -31.6 -11.3 -31.95 M-10.8 -30.4 L-10.7 -30.1 -10.85 -30.2 -10.8 -30.4 M-35.75 -43.85 L-36.5 -44.0 -36.0 -44.55 -35.15 -44.45 Q-35.4 -44.0 -35.75 -43.85 M-27.5 -12.25 L-27.35 -12.55 -26.95 -12.8 -26.2 -12.75 -27.5 -12.25 M-26.15 -12.8 L-25.6 -13.3 -24.8 -13.2 -24.25 -13.8 -23.45 -13.65 -23.1 -14.45 -23.05 -14.6 -22.1 -14.15 -22.2 -13.9 -22.65 -13.8 -23.35 -13.6 -23.45 -13.65 -23.45 -13.55 -24.8 -13.2 -26.15 -12.8 M-13.2 -18.85 L-13.1 -18.8 -13.45 -18.25 -13.2 -18.85" fill="#00294a" fill-rule="evenodd" stroke="none"/>
    <path d="M-74.1 -17.5 L-73.85 -18.05 -73.5 -19.0 -73.1 -19.95 Q-72.15 -19.5 -71.2 -19.45 L-70.8 -19.9 -69.8 -19.5 -69.9 -18.95 Q-64.55 -14.9 -71.95 -16.05 L-74.1 -17.5 M-68.45 -19.95 L-67.1 -20.2 -66.15 -19.95 -65.15 -19.45 -64.8 -20.4 -63.8 -19.9 Q-64.0 -19.45 -64.35 -19.35 L-65.15 -19.45 -65.5 -18.5 Q-66.0 -16.95 -67.85 -18.5 -67.7 -19.0 -67.85 -19.35 L-68.45 -19.95 M-62.85 -19.45 L-60.9 -18.5 -59.95 -18.05 Q-60.15 -17.55 -60.3 -17.55 -61.8 -17.8 -63.25 -18.5 L-62.85 -19.45 M-90.6 -64.95 L-90.25 -65.9 -89.85 -66.8 -89.35 -66.35 Q-89.05 -64.05 -90.6 -64.95 M-51.55 -69.55 L-51.9 -68.6 -52.75 -66.7 -53.7 -67.2 -52.9 -69.1 -52.55 -70.05 -51.55 -69.55 M-54.3 -62.95 L-54.65 -62.0 -55.05 -61.05 -52.7 -61.0 -52.6 -61.3 -52.35 -62.0 -51.95 -62.95 -51.0 -62.5 -51.4 -61.55 -51.75 -60.6 -50.8 -60.1 -51.2 -59.15 Q-49.65 -58.3 -49.0 -60.3 L-48.5 -60.1 -48.85 -59.15 -49.35 -58.3 -50.2 -57.5 -51.0 -56.8 -50.35 -56.2 Q-50.25 -55.85 -50.45 -55.35 L-49.45 -54.9 -48.5 -54.45 -48.4 -54.65 Q-46.4 -59.0 -47.25 -54.95 L-47.55 -53.9 -48.2 -54.25 -48.5 -54.45 -48.9 -53.5 -49.85 -53.95 -50.8 -54.4 -50.45 -55.35 -51.4 -55.85 -51.0 -56.8 -51.85 -56.9 -52.35 -56.35 -53.3 -56.8 -54.3 -57.25 Q-53.95 -59.0 -55.1 -60.4 L-55.05 -61.05 -56.0 -61.55 -55.6 -62.5 -55.25 -63.4 -54.3 -62.95 M-47.35 -68.6 Q-46.95 -69.6 -46.25 -70.15 L-45.55 -70.05 -45.95 -69.1 -46.35 -68.1 -45.4 -67.65 -45.0 -68.6 -44.6 -69.5 -44.2 -70.5 -43.25 -70.0 -42.25 -69.55 -42.65 -68.6 -41.7 -68.1 -40.75 -67.65 -41.1 -66.7 -42.05 -67.2 -43.05 -67.45 -44.45 -67.15 -45.4 -67.65 -45.75 -66.7 -46.15 -65.75 -47.1 -66.25 -46.75 -67.2 -46.35 -68.1 -47.35 -68.6 M-39.95 -69.55 L-39.0 -69.05 -39.4 -68.15 -40.35 -68.6 -39.95 -69.55 M-38.05 -68.6 L-37.05 -68.1 -37.45 -67.15 -38.4 -67.65 -38.05 -68.6 M-23.7 -62.4 Q-23.7 -60.85 -25.5 -62.4 L-25.1 -63.35 -24.1 -62.85 -23.85 -62.7 -23.7 -62.4 M-28.0 -64.8 L-28.95 -65.2 -28.55 -66.2 -27.6 -65.75 -28.0 -64.8 M-29.55 -66.65 L-30.5 -67.15 Q-30.3 -67.65 -30.45 -67.95 -30.6 -68.35 -31.1 -68.55 L-32.05 -69.05 -33.05 -69.5 -32.65 -70.45 -33.6 -70.9 -33.2 -71.9 -32.55 -71.3 Q-32.45 -70.95 -32.65 -70.45 -31.7 -70.0 -30.75 -69.95 L-30.35 -70.35 -29.6 -69.55 -29.7 -69.05 -28.75 -68.55 -29.15 -67.6 -29.55 -66.65 M-81.65 -86.65 L-81.4 -87.3 -81.3 -87.6 -80.35 -87.15 -80.85 -86.55 -81.15 -86.5 -81.65 -86.65 M-88.45 -84.35 L-87.9 -84.9 -87.1 -84.8 Q-87.3 -84.35 -87.6 -84.25 L-88.45 -84.35 M-77.6 -88.05 Q-77.85 -87.6 -78.15 -87.5 L-78.95 -87.6 Q-79.15 -87.15 -79.5 -87.05 L-80.35 -87.15 -79.95 -88.1 -78.95 -87.6 Q-78.8 -88.1 -78.45 -88.2 L-77.6 -88.05 M-26.25 -66.2 L-26.65 -65.25 -27.6 -65.75 -27.2 -66.65 -26.25 -66.2 M-25.7 -64.8 L-24.7 -64.3 -25.1 -63.35 -26.05 -63.85 -25.7 -64.8 M-30.6 -70.6 L-31.25 -70.9 -31.15 -71.2 -30.6 -70.6 M-37.85 -66.25 L-37.45 -67.15 -36.5 -66.7 -35.55 -66.2 -35.95 -65.7 Q-36.9 -65.75 -37.85 -66.25 M-40.2 -66.2 L-39.8 -67.15 -38.8 -66.7 -39.2 -65.75 -40.2 -66.2 M-36.5 -49.65 L-32.65 -47.75 -31.7 -47.3 -32.2 -46.5 Q-32.75 -46.1 -33.45 -45.85 L-31.5 -44.9 -30.55 -44.45 Q-27.15 -44.55 -28.65 -46.65 L-29.35 -47.3 -29.9 -46.7 -30.7 -46.8 Q-30.55 -47.3 -30.2 -47.4 L-29.35 -47.3 -28.85 -47.8 Q-24.55 -48.6 -26.85 -44.9 L-26.2 -44.6 -26.45 -43.55 -27.1 -43.6 -27.6 -43.15 Q-28.45 -43.35 -29.4 -42.05 L-29.95 -43.85 -30.55 -44.45 Q-30.75 -43.95 -31.1 -43.65 -31.6 -43.3 -32.25 -43.05 -32.1 -43.55 -32.25 -43.7 -34.25 -45.9 -35.15 -44.45 L-34.25 -43.95 -34.5 -43.0 Q-35.0 -40.15 -36.75 -40.65 -35.3 -42.4 -36.65 -43.5 L-36.5 -44.0 -37.35 -44.6 Q-39.4 -47.25 -44.1 -47.8 L-44.25 -47.8 -44.2 -47.95 -44.2 -48.6 Q-44.35 -49.0 -44.8 -49.2 L-43.45 -49.45 -42.5 -49.2 -41.5 -48.7 Q-38.7 -47.45 -37.1 -48.95 L-36.5 -49.65 M-23.65 -36.95 L-22.65 -35.2 -23.55 -34.65 -23.75 -36.6 -23.65 -36.95 M-36.35 -30.25 L-35.25 -31.8 -35.2 -31.8 -35.7 -29.95 -36.35 -30.25 M-32.7 -42.1 L-33.25 -41.5 -34.0 -41.6 -33.65 -42.55 -32.7 -42.1 M-46.8 -50.15 L-47.05 -49.7 -51.0 -51.1 -51.35 -52.55 -51.2 -53.5 -50.25 -53.05 -49.25 -52.55 -48.3 -52.05 -47.35 -51.55 -47.75 -50.65 -46.8 -50.15 M-52.2 -53.95 L-53.1 -54.4 -52.75 -55.4 -51.75 -54.9 -52.2 -53.95 M-18.55 -51.0 L-17.75 -50.4 Q-15.85 -47.95 -15.25 -44.9 L-14.45 -44.75 -14.25 -44.85 Q-13.9 -41.5 -13.05 -38.1 L-13.35 -38.25 -14.3 -38.75 Q-15.7 -44.35 -18.95 -49.35 L-18.9 -50.1 -18.55 -51.0 M-67.45 -47.85 L-66.9 -48.45 -66.1 -48.3 -66.5 -47.4 -67.45 -47.85 M-64.35 -49.7 L-63.85 -50.3 -63.0 -50.2 -63.4 -49.25 -64.35 -49.7 M-62.0 -49.7 L-61.75 -50.15 Q-58.55 -49.35 -61.45 -48.3 L-62.4 -48.75 -62.0 -49.7 M-63.6 -45.95 L-64.1 -45.35 -64.95 -45.5 -64.55 -46.4 -65.5 -46.9 Q-65.35 -47.4 -65.0 -47.5 L-64.15 -47.35 -64.55 -46.4 -63.6 -45.95 M-65.3 -44.5 Q-65.5 -44.05 -65.85 -43.95 L-66.7 -44.05 -66.3 -45.0 -65.3 -44.5 M-68.25 -40.25 L-67.75 -39.9 Q-68.05 -37.95 -68.8 -36.05 -67.05 -35.5 -66.55 -38.3 L-66.3 -39.35 -65.35 -38.85 -65.7 -37.9 -66.1 -36.95 -65.2 -36.5 -65.55 -35.55 Q-65.05 -35.3 -64.9 -34.95 -64.75 -34.6 -64.95 -34.15 L-65.9 -34.6 -65.55 -35.55 -66.1 -35.65 Q-67.3 -34.2 -68.6 -33.65 -68.15 -33.45 -68.0 -33.05 -67.55 -32.0 -67.45 -30.8 L-66.55 -30.25 Q-63.75 -28.05 -61.5 -25.6 L-60.6 -25.35 Q-56.3 -25.8 -52.4 -22.25 L-51.75 -21.65 Q-49.8 -18.3 -47.2 -15.15 L-42.4 -12.8 -41.4 -12.3 Q-39.55 -15.55 -31.25 -13.75 L-30.4 -13.55 -29.45 -13.2 -29.8 -12.3 -29.9 -12.05 -30.05 -11.6 -30.2 -11.3 -30.35 -11.4 -31.15 -11.55 -32.5 -11.35 -32.95 -11.5 -33.35 -11.5 -33.45 -11.4 -33.65 -11.2 -34.35 -11.2 -34.55 -11.2 -36.1 -11.3 -39.5 -11.35 -41.4 -12.3 -41.8 -11.35 -42.8 -11.85 -43.7 -12.4 Q-46.1 -14.25 -47.0 -12.8 L-48.0 -13.3 -48.95 -13.75 Q-55.6 -19.95 -68.05 -26.55 L-69.05 -27.05 Q-68.4 -29.35 -67.95 -29.9 L-67.45 -30.8 -68.4 -31.3 -69.4 -31.75 -69.0 -32.7 -68.6 -33.65 -69.6 -34.15 -69.2 -35.05 -68.8 -36.05 -69.8 -36.5 -69.4 -37.45 -69.0 -38.4 -68.65 -39.35 -68.25 -40.25 M-64.15 -41.7 Q-63.2 -44.1 -61.8 -46.1 L-61.25 -45.95 Q-58.5 -47.55 -58.2 -45.45 -58.2 -45.0 -58.35 -44.5 L-59.3 -45.0 -61.25 -45.95 -61.65 -45.0 -62.05 -44.05 -62.45 -43.1 Q-62.65 -42.65 -63.0 -42.35 -63.5 -41.95 -64.15 -41.7 M-59.9 -40.7 L-59.3 -40.15 Q-59.15 -39.8 -59.35 -39.3 L-60.3 -39.8 -59.9 -40.7 M-59.75 -38.35 Q-59.95 -37.9 -59.75 -37.6 -57.55 -33.4 -62.6 -34.1 L-62.2 -35.05 -61.85 -36.0 Q-61.5 -36.95 -61.55 -37.9 L-62.05 -38.35 -61.7 -39.35 -60.65 -38.85 -59.75 -38.35 M-63.05 -33.15 L-63.3 -32.25 Q-63.6 -29.95 -65.15 -30.8 L-65.5 -32.25 -65.35 -33.2 -64.5 -33.05 Q-64.2 -33.2 -64.0 -33.65 L-63.05 -33.15 M-28.5 -12.7 L-28.4 -13.0 Q-27.6 -16.25 -25.2 -15.6 L-24.0 -15.1 -23.25 -14.75 -23.05 -14.6 -20.65 -14.65 -20.2 -14.35 -21.75 -13.95 -22.1 -14.15 -23.05 -14.6 -23.1 -14.45 -23.45 -13.65 -24.25 -13.8 -24.8 -13.2 -25.6 -13.3 -26.15 -12.8 -26.2 -12.75 -26.95 -12.8 -27.35 -12.55 -27.5 -12.25 -27.9 -12.45 -28.5 -12.7 M-19.5 -14.55 L-19.25 -14.7 -18.85 -14.75 -19.5 -14.55 M-18.2 -14.95 L-17.85 -15.2 -17.45 -15.2 -18.2 -14.95 M-14.9 -17.45 Q-14.55 -18.4 -13.85 -18.9 L-13.2 -18.85 -11.5 -22.15 Q-12.1 -20.4 -13.1 -18.8 L-13.2 -18.85 -13.45 -18.25 -14.35 -17.15 -14.9 -17.45 M-10.85 -25.65 L-11.45 -25.95 -12.15 -26.3 -12.55 -26.45 -13.35 -26.9 -13.25 -28.3 -13.55 -28.25 Q-15.7 -28.0 -17.4 -30.5 L-22.75 -37.5 Q-23.6 -38.45 -22.95 -39.6 L-22.45 -40.35 Q-18.3 -41.2 -15.25 -37.1 L-14.65 -36.3 Q-13.7 -36.4 -12.9 -37.0 L-12.85 -37.15 -12.05 -34.4 -12.0 -33.05 -11.55 -32.8 -11.3 -31.95 -11.45 -31.6 -11.15 -31.45 -10.85 -30.6 -10.85 -30.5 -10.8 -30.4 -10.85 -30.2 -10.7 -30.1 Q-10.65 -27.9 -10.85 -25.65 M-48.1 -66.7 L-48.5 -65.8 -47.5 -65.3 -47.9 -64.35 -48.85 -64.85 -48.5 -65.8 -49.45 -66.25 -49.05 -67.2 -48.1 -66.7 M-48.3 -63.4 L-48.7 -62.5 -47.7 -62.0 -48.1 -61.05 -49.05 -61.5 -48.7 -62.5 -49.65 -62.9 -49.25 -63.85 -48.3 -63.4 M-43.45 -61.0 L-42.8 -60.4 Q-42.7 -60.05 -42.9 -59.6 L-43.85 -60.1 -43.45 -61.0 M-46.95 -58.2 L-47.9 -58.65 -47.4 -59.25 -46.55 -59.15 -46.95 -58.2 M-47.1 -60.55 Q-45.75 -62.45 -46.65 -60.35 L-47.1 -60.55 M-46.2 -37.4 L-56.9 -49.5 -56.4 -49.25 Q-41.05 -48.95 -45.7 -37.15 L-46.2 -37.4 M-41.75 -39.75 Q-38.9 -41.9 -41.15 -39.6 L-41.75 -39.75 M-57.6 -40.7 Q-55.65 -44.15 -57.15 -40.5 L-57.6 -40.7 M-57.8 -43.1 Q-55.25 -47.95 -57.35 -42.85 L-57.8 -43.1 M-57.3 -37.15 L-57.8 -37.4 Q-56.45 -39.3 -57.3 -37.15 M-59.35 -29.25 L-59.95 -29.4 Q-50.75 -38.7 -59.35 -29.25 M-53.55 -36.45 Q-52.2 -38.35 -53.05 -36.2 L-53.55 -36.45 M-51.5 -34.3 L-52.0 -34.55 Q-50.65 -36.45 -51.5 -34.3 M-52.2 -36.9 Q-50.85 -38.8 -51.7 -36.65 L-52.2 -36.9 M-42.55 -32.2 Q-39.6 -42.4 -42.05 -31.95 L-42.55 -32.2 M-69.4 -43.1 L-69.0 -44.05 -68.05 -43.6 -68.4 -42.65 -69.4 -43.1 M-61.75 -40.5 L-62.25 -40.7 Q-60.9 -42.6 -61.75 -40.5 M-64.0 -39.3 L-63.0 -38.85 -63.4 -37.9 -63.8 -36.95 -64.75 -37.45 -64.35 -38.4 -64.0 -39.3 M-65.0 -11.45 Q-65.1 -15.4 -63.05 -11.25 L-62.95 -11.0 -62.9 -11.0 -61.25 -10.45 -60.35 -10.15 -59.2 -10.45 -58.5 -10.7 -58.2 -10.9 -56.8 -10.7 -56.3 -10.65 -56.25 -10.5 Q-55.85 -11.6 -54.75 -10.95 L-54.0 -10.55 -51.9 -10.65 -51.7 -10.6 -51.5 -10.4 -51.1 -11.35 -50.7 -12.3 Q-50.2 -12.1 -50.05 -11.7 L-50.1 -10.9 -49.15 -10.4 Q-49.35 -9.95 -49.65 -9.8 L-51.25 -9.55 -51.4 -9.25 -51.95 -8.7 -54.55 -9.6 -54.65 -9.55 -56.2 -9.2 -56.6 -9.35 -56.8 -9.4 -58.75 -9.0 Q-60.75 -9.3 -62.5 -10.1 L-63.5 -10.65 -64.0 -10.95 -65.0 -11.45 M-61.9 -13.3 Q-57.25 -13.0 -60.95 -13.05 L-61.9 -13.3 M-58.8 -15.2 Q-57.45 -17.1 -58.3 -14.95 L-58.8 -15.2 M-46.45 -11.35 L-46.8 -10.45 -47.8 -10.65 -49.15 -10.4 -48.75 -11.4 -48.4 -12.3 -47.4 -11.8 -46.45 -11.35 M-35.75 -43.85 Q-35.4 -44.0 -35.15 -44.45 L-36.0 -44.55 -36.5 -44.0 -35.75 -43.85 M-38.45 -39.25 Q-36.5 -42.7 -38.0 -39.05 L-38.45 -39.25 M-31.7 -41.6 Q-30.35 -43.5 -31.2 -41.35 L-31.7 -41.6 M-38.2 -35.7 L-38.7 -35.95 Q-37.35 -37.85 -38.2 -35.7" fill="#005a9c" fill-rule="evenodd" stroke="none"/>
    <path d="M-77.9 -33.65 L-77.55 -34.65 Q-77.35 -35.1 -77.45 -35.45 -77.6 -35.85 -78.1 -36.05 -82.85 -44.35 -84.85 -52.5 -86.85 -60.45 -86.25 -68.3 L-86.75 -68.7 Q-86.55 -69.2 -86.65 -69.55 L-87.3 -70.15 -86.9 -71.1 Q-85.05 -70.2 -83.85 -70.85 L-83.25 -71.55 Q-81.8 -72.9 -81.15 -73.95 L-80.75 -74.85 -71.25 -77.4 -66.7 -78.55 Q-66.4 -78.6 -66.2 -79.05 L-65.35 -78.85 -63.75 -78.9 Q-58.75 -78.9 -55.7 -76.45 -53.3 -74.5 -52.15 -71.0 L-53.05 -71.2 -59.1 -71.55 -61.0 -71.95 -61.1 -72.0 -62.0 -72.2 -71.15 -71.3 Q-70.35 -73.4 -71.7 -71.5 L-71.25 -71.3 -76.7 -70.55 -77.1 -69.65 Q-79.45 -63.9 -79.95 -56.55 -80.3 -51.65 -79.8 -46.0 -72.3 -40.4 -68.75 -46.1 L-68.2 -45.95 -68.6 -45.0 -69.0 -44.05 -69.65 -44.15 Q-70.35 -43.6 -70.75 -42.65 L-69.8 -42.2 -70.15 -41.25 -70.55 -40.25 Q-72.9 -33.65 -77.9 -33.65 M-49.05 -67.2 L-48.65 -68.2 -47.7 -67.7 -48.1 -66.7 -49.05 -67.2 M-33.2 -66.2 L-31.25 -65.25 -30.3 -64.8 Q-30.5 -64.35 -30.8 -64.3 -32.25 -64.05 -30.5 -61.45 L-29.55 -61.0 -28.6 -60.5 -27.6 -60.05 -28.0 -59.1 -24.15 -57.2 -23.15 -56.7 -22.2 -56.25 -20.3 -55.3 -19.6 -54.05 -19.7 -53.85 -19.5 -53.75 -18.55 -52.1 -18.0 -51.15 -18.55 -51.0 -19.4 -51.15 -19.9 -50.6 Q-20.35 -50.8 -20.65 -51.15 -24.8 -56.15 -33.6 -59.6 L-34.1 -58.75 -40.4 -51.55 -39.4 -51.1 -38.45 -50.65 Q-38.65 -50.15 -38.9 -50.15 -39.85 -50.15 -40.8 -50.6 L-41.75 -51.1 -42.7 -51.55 -43.65 -51.8 -45.0 -51.55 -46.0 -52.05 -46.95 -52.55 -47.15 -52.65 -47.9 -53.0 -47.7 -53.5 -47.55 -53.9 Q-37.15 -55.9 -34.1 -65.45 L-34.55 -65.7 Q-34.4 -66.2 -34.05 -66.3 L-33.2 -66.2 M-26.05 -63.85 L-27.0 -64.3 -28.0 -64.8 -27.6 -65.75 -28.55 -66.2 -29.55 -66.65 -29.15 -67.6 -28.2 -67.15 -27.2 -66.65 -27.6 -65.75 -26.65 -65.25 -25.7 -64.8 -26.05 -63.85 M-32.8 -72.85 L-32.3 -72.6 -31.15 -71.2 -31.25 -70.9 -30.6 -70.6 -30.35 -70.35 -30.75 -69.95 Q-31.7 -70.0 -32.65 -70.45 -32.45 -70.95 -32.55 -71.3 L-33.2 -71.9 -32.8 -72.85 M-40.35 -68.6 L-39.4 -68.15 -39.8 -67.15 -40.75 -67.65 -41.7 -68.1 -42.65 -68.6 -42.25 -69.55 -41.35 -69.05 -40.35 -68.6 M-23.95 -54.8 L-23.0 -54.6 Q-19.3 -54.5 -23.95 -54.8 M-44.6 -69.5 L-45.0 -68.6 -45.4 -67.65 -46.35 -68.1 -45.95 -69.1 -45.55 -70.05 -44.6 -69.5 M-47.35 -68.6 L-46.35 -68.1 -46.75 -67.2 -47.7 -67.7 -47.35 -68.6 M-51.0 -62.5 L-49.85 -65.3 -49.45 -66.25 -48.5 -65.8 -48.85 -64.85 -49.25 -63.85 -49.65 -62.9 -50.05 -62.0 -50.8 -60.1 -51.75 -60.6 -51.4 -61.55 -51.0 -62.5" fill="#29639c" fill-rule="evenodd" stroke="none"/>
    <path d="M-63.8 -19.9 L-62.85 -19.45 -63.25 -18.5 Q-61.8 -17.8 -60.3 -17.55 -60.15 -17.55 -59.95 -18.05 L-59.0 -17.55 -58.0 -17.1 -57.05 -16.6 -51.3 -13.7 -50.3 -13.3 -50.7 -12.3 -51.1 -11.35 -51.5 -10.4 -51.7 -10.6 -51.9 -10.65 -54.0 -10.55 -54.75 -10.95 Q-55.85 -11.6 -56.25 -10.5 L-56.3 -10.65 -56.8 -10.7 -58.2 -10.9 -58.5 -10.7 -59.2 -10.45 -61.25 -10.45 -62.9 -11.0 -62.95 -11.0 -63.05 -11.25 Q-65.1 -15.4 -65.0 -11.45 L-65.6 -11.7 -66.7 -12.5 -68.85 -14.0 Q-69.1 -15.25 -71.35 -15.75 L-71.55 -15.85 -71.95 -16.05 Q-64.55 -14.9 -69.9 -18.95 L-69.8 -19.5 -69.0 -19.35 Q-68.65 -19.5 -68.45 -19.95 L-67.85 -19.35 Q-67.7 -19.0 -67.85 -18.5 -66.0 -16.95 -65.5 -18.5 L-65.15 -19.45 -64.35 -19.35 Q-64.0 -19.45 -63.8 -19.9 M-54.1 -66.3 L-54.45 -65.3 -54.75 -64.65 -54.85 -64.35 -55.25 -63.4 -55.6 -62.5 -56.0 -61.55 -55.05 -61.05 -55.1 -60.4 Q-53.95 -59.0 -54.3 -57.25 L-53.3 -56.8 -52.35 -56.35 -52.75 -55.4 -53.1 -54.4 -52.2 -53.95 -51.2 -53.5 -51.35 -52.55 -51.0 -51.1 -47.05 -49.7 -46.8 -50.15 -45.8 -49.7 -45.05 -49.35 -44.8 -49.2 Q-44.35 -49.0 -44.2 -48.6 L-44.2 -47.95 -44.25 -47.8 -44.1 -47.8 Q-39.4 -47.25 -37.35 -44.6 L-36.5 -44.0 -36.65 -43.5 Q-35.3 -42.4 -36.75 -40.65 -35.0 -40.15 -34.5 -43.0 L-34.25 -43.95 Q-33.75 -43.75 -33.6 -43.4 -33.45 -43.05 -33.65 -42.55 L-34.0 -41.6 -33.25 -41.5 -32.7 -42.1 -32.25 -43.05 Q-31.6 -43.3 -31.1 -43.65 -30.75 -43.95 -30.55 -44.45 L-29.95 -43.85 -29.4 -42.05 -29.55 -41.9 -33.1 -36.2 Q-34.15 -34.65 -34.8 -33.0 L-35.2 -31.8 -35.25 -31.8 -36.35 -30.25 -36.7 -29.45 Q-36.3 -28.9 -36.15 -27.95 L-35.95 -28.5 -36.05 -26.8 -36.1 -26.8 -36.1 -26.4 -36.15 -26.15 -35.8 -26.0 -34.2 -25.1 -33.35 -24.35 -32.75 -24.65 Q-31.2 -24.45 -29.9 -25.25 L-25.15 -30.3 Q-23.6 -32.15 -23.55 -34.65 L-22.65 -35.2 -23.65 -36.95 -24.05 -37.7 Q-24.75 -39.95 -25.95 -41.6 L-26.0 -41.65 -26.45 -43.2 -26.45 -43.55 -26.2 -44.6 -26.85 -44.9 Q-24.55 -48.6 -28.85 -47.8 L-29.35 -47.3 -30.2 -47.4 Q-30.55 -47.3 -30.7 -46.8 L-31.7 -47.3 -32.65 -47.75 -36.5 -49.65 -37.5 -50.15 -38.45 -50.65 -39.4 -51.1 -40.4 -51.55 -34.1 -58.75 -33.6 -59.6 Q-24.8 -56.15 -20.65 -51.15 -20.35 -50.8 -19.9 -50.6 L-18.9 -50.1 -18.95 -49.35 Q-15.7 -44.35 -14.3 -38.75 L-13.35 -38.25 -13.05 -38.1 -12.85 -37.15 -12.9 -37.0 Q-13.7 -36.4 -14.65 -36.3 L-15.25 -37.1 Q-18.3 -41.2 -22.45 -40.35 L-22.95 -39.6 Q-23.6 -38.45 -22.75 -37.5 L-17.4 -30.5 Q-15.7 -28.0 -13.55 -28.25 L-13.25 -28.3 -13.35 -26.9 -12.55 -26.45 -12.15 -26.3 -11.45 -25.95 -10.85 -25.65 -10.85 -25.55 Q-11.0 -23.75 -11.5 -22.15 L-13.2 -18.85 -13.85 -18.9 Q-14.55 -18.4 -14.9 -17.45 L-15.3 -16.5 -15.95 -16.6 -16.95 -15.4 -17.15 -15.3 -17.45 -15.2 -17.85 -15.2 -18.2 -14.95 -18.85 -14.75 -19.25 -14.7 -19.5 -14.55 -20.2 -14.35 -20.65 -14.65 -23.05 -14.6 -23.25 -14.75 -24.0 -15.1 -25.2 -15.6 Q-27.6 -16.25 -28.4 -13.0 L-28.5 -12.7 -28.65 -12.8 -29.45 -13.2 -30.4 -13.55 -31.25 -13.75 Q-39.55 -15.55 -41.4 -12.3 L-42.4 -12.8 -47.2 -15.15 Q-49.8 -18.3 -51.75 -21.65 L-52.4 -22.25 Q-56.3 -25.8 -60.6 -25.35 L-61.5 -25.6 Q-63.75 -28.05 -66.55 -30.25 L-67.45 -30.8 Q-67.55 -32.0 -68.0 -33.05 -68.15 -33.45 -68.6 -33.65 -67.3 -34.2 -66.1 -35.65 L-65.55 -35.55 -65.9 -34.6 -64.95 -34.15 -65.35 -33.2 -65.5 -32.25 -65.15 -30.8 Q-63.6 -29.95 -63.3 -32.25 L-63.05 -33.15 -62.6 -34.1 Q-57.55 -33.4 -59.75 -37.6 -59.95 -37.9 -59.75 -38.35 L-59.35 -39.3 Q-59.15 -39.8 -59.3 -40.15 L-59.9 -40.7 Q-60.2 -41.45 -60.65 -42.0 L-61.45 -42.65 -61.05 -43.6 -60.25 -43.45 Q-59.9 -43.6 -59.7 -44.05 L-58.9 -43.9 -58.35 -44.5 Q-58.2 -45.0 -58.2 -45.45 -58.5 -47.55 -61.25 -45.95 L-61.8 -46.1 Q-63.2 -44.1 -64.15 -41.7 L-64.55 -40.75 -65.25 -40.85 Q-65.95 -40.3 -66.3 -39.35 L-66.55 -38.3 Q-67.05 -35.5 -68.8 -36.05 -68.05 -37.95 -67.75 -39.9 L-68.25 -40.25 -67.45 -42.2 -67.05 -43.1 -66.7 -44.05 -65.85 -43.95 Q-65.5 -44.05 -65.3 -44.5 L-64.95 -45.5 -64.1 -45.35 -63.6 -45.95 -63.2 -46.9 -62.8 -47.85 -62.0 -47.7 -61.45 -48.3 Q-58.55 -49.35 -61.75 -50.15 L-62.0 -49.7 -63.0 -50.2 -63.85 -50.3 -64.35 -49.7 Q-64.55 -49.25 -64.85 -48.95 -65.4 -48.55 -66.1 -48.3 L-66.9 -48.45 -67.45 -47.85 -67.8 -46.9 -68.2 -45.95 -68.75 -46.1 Q-72.3 -40.4 -79.8 -46.0 -80.3 -51.65 -79.95 -56.55 -79.45 -63.9 -77.1 -69.65 L-76.7 -70.55 -71.25 -71.3 -71.2 -71.25 -71.15 -71.3 -62.0 -72.2 -61.1 -72.0 -61.0 -71.95 -59.1 -71.55 -53.05 -71.2 -52.15 -71.0 -52.55 -70.05 -52.9 -69.1 -53.7 -67.2 -54.1 -66.3 M-37.85 -66.25 Q-36.9 -65.75 -35.95 -65.7 L-35.55 -66.2 -34.55 -65.7 -34.1 -65.45 Q-37.15 -55.9 -47.55 -53.9 L-47.25 -54.95 Q-46.4 -59.0 -48.4 -54.65 L-48.5 -54.45 -49.45 -54.9 -50.45 -55.35 Q-50.25 -55.85 -50.35 -56.2 L-51.0 -56.8 -50.2 -57.5 -49.35 -58.3 -48.85 -59.15 -47.9 -58.65 -46.95 -58.2 -46.15 -58.05 Q-45.8 -58.2 -45.6 -58.7 L-45.05 -59.25 -44.25 -59.15 -43.4 -59.0 Q-43.1 -59.15 -42.9 -59.6 -42.7 -60.05 -42.8 -60.4 L-43.45 -61.0 -44.45 -61.5 -45.2 -62.8 -45.95 -63.35 -44.1 -64.5 -43.25 -64.3 -43.65 -63.4 -41.3 -63.35 -40.95 -64.3 -40.1 -64.25 Q-39.8 -64.35 -39.6 -64.8 L-39.2 -65.75 -38.8 -66.7 -37.85 -66.25 M-41.75 -39.75 L-41.15 -39.6 Q-38.9 -41.9 -41.75 -39.75 M-46.2 -37.4 L-45.7 -37.15 Q-41.05 -48.95 -56.4 -49.25 L-56.9 -49.5 -46.2 -37.4 M-57.8 -43.1 L-57.35 -42.85 Q-55.25 -47.95 -57.8 -43.1 M-57.6 -40.7 L-57.15 -40.5 Q-55.65 -44.15 -57.6 -40.7 M-42.55 -32.2 L-42.05 -31.95 Q-39.6 -42.4 -42.55 -32.2 M-52.2 -36.9 L-51.7 -36.65 Q-50.85 -38.8 -52.2 -36.9 M-51.5 -34.3 Q-50.65 -36.45 -52.0 -34.55 L-51.5 -34.3 M-53.55 -36.45 L-53.05 -36.2 Q-52.2 -38.35 -53.55 -36.45 M-59.35 -29.25 Q-50.75 -38.7 -59.95 -29.4 L-59.35 -29.25 M-57.3 -37.15 Q-56.45 -39.3 -57.8 -37.4 L-57.3 -37.15 M-63.8 -36.95 L-63.4 -37.9 -63.0 -38.85 -62.05 -38.35 -61.55 -37.9 Q-61.5 -36.95 -61.85 -36.0 L-62.8 -36.5 -63.8 -36.95 M-61.9 -13.3 L-60.95 -13.05 Q-57.25 -13.0 -61.9 -13.3 M-58.8 -15.2 L-58.3 -14.95 Q-57.45 -17.1 -58.8 -15.2 M-38.45 -39.25 L-38.0 -39.05 Q-36.5 -42.7 -38.45 -39.25 M-38.2 -35.7 Q-37.35 -37.85 -38.7 -35.95 L-38.2 -35.7 M-31.7 -41.6 L-31.2 -41.35 Q-30.35 -43.5 -31.7 -41.6" fill="#4a7bb5" fill-rule="evenodd" stroke="none"/>
    <path d="M-18.55 -51.0 L-18.0 -51.15 -15.0 -46.4 -14.3 -45.2 -14.25 -44.85 -14.45 -44.75 -15.25 -44.9 Q-15.85 -47.95 -17.75 -50.4 L-18.55 -51.0 M-71.25 -71.3 L-71.7 -71.5 Q-70.35 -73.4 -71.15 -71.3 L-71.2 -71.25 -71.25 -71.3 M-48.1 -66.7 L-47.1 -66.25 -47.5 -65.3 -48.5 -65.8 -48.1 -66.7 M-46.45 -11.35 L-45.95 -11.15 -46.8 -10.45 -46.45 -11.35" fill="#008cef" fill-rule="evenodd" stroke="none"/>
    <path d="M-25.95 -41.6 Q-24.75 -39.95 -24.05 -37.7 L-23.95 -37.3 -23.75 -36.6 -23.55 -34.65 Q-23.6 -32.15 -25.15 -30.3 L-29.9 -25.25 Q-31.2 -24.45 -32.75 -24.65 L-34.2 -25.1 -35.8 -26.0 -36.05 -26.15 -36.05 -26.8 -35.95 -28.5 -35.7 -29.95 -35.2 -31.8 -34.8 -33.0 Q-34.15 -34.65 -33.1 -36.2 L-29.55 -41.9 -29.4 -42.05 Q-28.45 -43.35 -27.6 -43.15 L-27.0 -42.85 -26.9 -42.7 -25.95 -41.6 M-28.45 -41.15 L-28.35 -41.95 -28.7 -41.25 -29.6 -39.45 -31.45 -35.95 -33.0 -33.3 -33.35 -32.7 -33.55 -32.3 -33.9 -31.55 -33.95 -31.35 -34.2 -30.45 Q-34.55 -28.95 -34.05 -27.7 -33.0 -27.95 -32.15 -28.8 -31.1 -29.85 -30.4 -31.7 -29.6 -33.95 -29.0 -37.5 L-28.75 -39.05 -28.45 -41.15" fill="#102a41" fill-rule="evenodd" stroke="none"/>
    <path d="M-28.45 -41.15 L-28.75 -39.05 -29.0 -37.5 Q-29.6 -33.95 -30.4 -31.7 -31.1 -29.85 -32.15 -28.8 -33.0 -27.95 -34.05 -27.7 -34.55 -28.95 -34.2 -30.45 L-33.95 -31.35 -33.9 -31.55 -33.55 -32.3 -33.35 -32.7 -33.0 -33.3 -31.45 -35.95 -29.6 -39.45 -28.7 -41.25 -28.35 -41.95 -28.45 -41.15" fill="#98adcf" fill-rule="evenodd" stroke="none"/>
  </g>
</svg>
