<?xml version="1.0" encoding="UTF-8" standalone="no"?>
<svg xmlns:xlink="http://www.w3.org/1999/xlink" height="148.35px" width="280.1px" xmlns="http://www.w3.org/2000/svg">
  <g transform="matrix(1.0, 0.0, 0.0, 1.0, 201.75, 108.7)">
    <path d="M47.1 34.6 Q15.8 38.6 -28.45 38.6 L-49.8 38.35 -67.3 37.7 -79.25 37.0 -104.05 34.6 -120.55 31.95 Q-115.6 32.0 -111.0 30.0 L-106.0 30.0 Q-91.65 31.25 -81.0 26.75 -79.15 27.7 -77.2 26.3 -75.05 24.8 -73.75 22.7 -70.1 20.05 -67.0 16.5 L-66.85 12.35 -65.75 12.3 -64.9 12.25 -53.0 11.85 -46.2 11.7 -28.45 11.5 Q15.8 11.5 47.1 15.45 78.35 19.45 78.35 25.05 78.35 30.65 47.1 34.6" fill="#031f32" fill-rule="evenodd" stroke="none"/>
    <path d="M38.3 -10.35 Q41.9 -11.45 45.6 -11.8 L48.4 -11.8 47.8 -9.75 50.1 -9.35 51.6 -9.25 52.4 -9.2 54.4 -9.25 58.85 -9.9 60.85 -10.15 Q62.85 -10.35 64.75 -10.15 66.1 -10.0 67.3 -9.3 68.65 -8.5 69.85 -7.5 L71.15 -5.95 Q72.35 -3.95 72.85 -1.7 L73.9 4.95 74.3 9.45 75.1 18.9 75.1 22.4 Q75.0 23.95 74.4 25.25 73.55 27.2 71.95 28.65 L69.1 30.75 68.15 30.25 Q66.7 29.25 65.35 28.1 L65.2 22.3 65.0 17.8 65.05 16.55 64.5 13.6 Q63.95 10.25 63.0 7.05 62.35 4.9 60.85 3.2 59.8 2.0 58.25 1.35 55.5 0.25 52.6 -0.3 L42.0 -1.9 32.3 -6.55 34.45 -8.35 Q36.25 -9.65 38.3 -10.35" fill="#185586" fill-rule="evenodd" stroke="none"/>
    <path d="M38.2 -7.4 L42.3 -7.0 46.35 -6.65 47.1 -6.6 49.9 -6.2 51.65 -6.2 56.35 -6.7 60.55 -6.8 Q61.55 -6.7 62.3 -6.1 L64.45 -3.6 Q67.0 0.55 69.15 4.9 L70.75 8.55 71.25 10.2 71.95 13.4 Q72.35 15.4 72.35 17.35 L72.1 18.95 71.75 20.7 71.4 21.95 70.4 24.65 70.15 25.65 68.7 26.9 66.1 28.65 64.95 29.1 62.15 28.95 58.9 28.95 58.15 29.0 55.55 26.7 Q54.45 25.45 53.95 23.75 53.35 21.5 53.1 19.15 L52.85 13.4 52.9 7.6 51.85 6.95 49.45 7.65 Q48.35 8.05 47.3 8.75 L44.65 10.65 41.0 12.9 Q39.7 13.6 38.2 13.55 36.9 13.5 35.8 12.7 34.2 11.6 32.95 10.1 L31.65 8.3 Q29.75 5.35 28.15 2.25 27.45 0.95 27.05 -0.55 28.4 -2.55 30.1 -4.15 32.1 -6.0 34.65 -6.95 L38.2 -7.4" fill="#102a41" fill-rule="evenodd" stroke="none"/>
    <path d="M36.0 -1.55 L37.55 -1.0 38.6 -0.6 38.15 -0.3 35.85 1.7 29.6 7.3 28.35 8.55 23.5 13.3 Q21.85 14.9 20.45 16.65 18.5 19.2 17.05 22.1 L16.05 24.55 15.8 24.6 15.85 24.85 15.85 25.35 15.65 26.3 14.85 27.95 14.65 28.45 13.65 28.55 13.15 28.6 12.9 28.6 12.95 28.85 10.95 28.9 9.95 29.15 8.3 28.15 7.1 27.6 5.0 26.5 3.6 25.45 3.35 25.5 -12.2 17.35 -8.9 9.8 8.0 21.55 8.6 18.3 Q8.95 16.95 9.7 15.8 11.3 13.5 13.25 11.45 14.75 10.0 16.5 8.95 19.25 7.35 22.15 6.0 25.8 4.35 29.15 2.35 L32.7 -0.15 35.0 -1.8 36.0 -1.55" fill="#4e79b3" fill-rule="evenodd" stroke="none"/>
    <path d="M40.8 4.85 L38.3 7.2 30.7 14.0 29.15 15.7 26.25 19.9 23.4 24.05 19.25 29.3 17.0 32.0 15.3 32.7 14.05 33.25 12.9 33.65 12.45 34.2 10.95 34.25 9.95 34.05 Q9.0 33.65 8.1 33.05 L3.7 30.35 -13.65 21.0 -12.2 17.35 3.35 25.5 3.6 25.45 5.0 26.55 5.75 27.0 7.05 27.65 9.95 29.15 10.95 28.9 12.95 28.85 12.9 28.6 13.15 28.6 13.65 28.55 14.65 28.45 14.85 27.95 15.65 26.3 15.85 25.35 15.8 24.6 16.05 24.55 16.35 23.95 17.1 22.1 Q18.5 19.2 20.45 16.65 21.85 14.9 23.5 13.3 L28.35 8.55 29.6 7.3 35.85 1.7 38.6 -0.6 39.65 0.15 40.5 1.0 41.05 1.75 41.65 2.65 41.25 4.15 40.8 4.85" fill="#3b5d8b" fill-rule="evenodd" stroke="none"/>
    <path d="M27.4 -105.95 L28.2 -105.35 28.95 -104.55 30.85 -102.1 Q31.65 -100.9 31.8 -99.6 32.1 -97.65 32.0 -95.65 L31.8 -93.65 31.3 -89.15 Q31.25 -88.15 31.35 -87.15 L31.45 -86.4 31.6 -84.9 32.05 -82.6 34.1 -83.25 34.2 -80.5 Q34.05 -76.75 33.05 -73.15 32.5 -71.05 31.25 -69.25 L29.5 -66.95 24.5 -76.5 23.4 -83.75 Q22.8 -87.1 21.6 -90.25 20.7 -92.7 19.2 -94.8 L17.65 -96.05 Q14.2 -97.3 10.55 -98.0 L5.1 -98.65 3.85 -98.7 -0.65 -98.7 -6.4 -98.6 -8.7 -101.3 -9.25 -102.25 -7.25 -105.15 Q-5.85 -106.8 -3.9 -107.8 L-1.15 -108.55 2.35 -108.7 11.85 -108.3 16.35 -108.1 23.05 -107.3 Q25.3 -106.85 27.4 -105.95" fill="#185586" fill-rule="evenodd" stroke="none"/>
    <path d="M0.7 -105.35 L1.7 -105.6 2.45 -105.65 4.0 -106.05 7.95 -105.8 11.2 -105.2 12.9 -104.75 16.55 -103.35 25.25 -98.95 Q26.75 -98.15 27.85 -96.9 28.5 -96.2 28.6 -95.25 28.85 -93.15 28.7 -91.05 L28.35 -86.3 28.45 -84.55 28.95 -81.75 29.05 -81.0 29.55 -77.0 30.15 -72.95 Q30.35 -71.05 29.85 -69.35 29.05 -66.75 27.25 -64.65 25.7 -62.9 23.75 -61.5 22.25 -61.8 20.9 -62.45 17.75 -63.95 14.7 -65.75 L12.85 -67.0 Q11.3 -68.15 10.1 -69.7 9.3 -70.75 9.2 -72.1 9.1 -73.5 9.7 -74.85 L11.85 -78.65 13.65 -81.35 14.65 -83.55 15.2 -86.0 14.5 -87.0 8.75 -86.65 Q5.9 -86.55 3.0 -86.75 L-1.7 -87.4 Q-3.35 -87.8 -4.65 -88.85 -6.0 -89.9 -7.05 -91.35 L-7.05 -92.1 -7.15 -95.4 -7.45 -98.15 -7.15 -98.65 -7.0 -99.35 -5.4 -102.0 -4.15 -103.5 Q-3.25 -103.8 -2.4 -104.2 -1.5 -104.6 -0.6 -105.05 L0.7 -105.35" fill="#102a41" fill-rule="evenodd" stroke="none"/>
    <path d="M15.05 -63.15 L19.15 -67.9 21.1 -70.2 23.0 -72.6 23.3 -73.05 23.75 -72.0 24.35 -70.45 24.65 -69.45 23.1 -67.15 20.75 -63.45 Q18.9 -60.0 17.4 -56.35 L14.65 -50.55 Q13.7 -48.75 12.45 -47.1 L10.5 -45.05 8.2 -43.4 Q7.0 -42.7 5.7 -42.15 L-1.7 -36.2 -6.65 -16.25 -14.15 -19.75 -7.8 -36.1 -7.6 -36.25 -6.95 -38.85 -6.4 -40.15 -5.85 -41.35 -5.25 -43.2 -4.3 -43.6 -5.1 -46.2 -4.85 -46.2 -4.85 -46.45 -4.8 -46.95 -4.75 -47.95 -4.25 -48.2 -2.65 -49.0 -1.7 -49.25 -1.2 -49.25 -0.95 -49.25 -0.9 -49.5 -0.4 -50.0 Q1.55 -50.65 3.2 -51.7 6.05 -53.4 8.35 -55.8 L13.2 -61.1 15.05 -63.15" fill="#4e79b3" fill-rule="evenodd" stroke="none"/>
    <path d="M20.95 -75.4 L21.65 -74.9 22.55 -74.05 23.3 -73.05 23.0 -72.6 19.15 -67.9 15.05 -63.15 13.2 -61.1 8.35 -55.8 Q6.05 -53.4 3.35 -51.4 2.55 -50.8 1.6 -50.5 L-0.4 -50.0 -0.9 -49.5 -0.95 -49.25 -1.7 -49.25 -2.65 -49.0 -4.25 -48.2 -4.75 -47.95 -4.8 -46.95 -4.85 -46.45 -4.85 -46.2 -5.1 -46.2 -4.3 -43.6 -5.25 -43.2 -6.45 -40.2 -7.0 -38.85 -7.3 -38.0 -7.6 -36.25 -7.8 -36.1 -14.15 -19.75 -17.65 -21.55 -13.9 -31.7 -12.9 -34.25 -10.7 -40.0 -10.1 -41.85 -9.95 -42.35 -10.2 -42.95 -10.4 -44.0 -10.4 -45.5 -9.85 -45.95 -9.5 -47.2 -9.05 -48.4 -8.4 -50.15 -5.75 -52.5 -0.65 -56.85 3.3 -59.85 7.4 -62.95 9.05 -64.55 15.5 -72.45 17.75 -75.0 18.5 -75.5 19.95 -75.95 20.95 -75.4" fill="#3b5d8b" fill-rule="evenodd" stroke="none"/>
    <path d="M-11.95 -27.4 L-10.95 -26.85 -9.85 -26.35 Q-11.25 -22.85 -12.9 -19.5 -13.75 -17.55 -15.0 -15.85 L-17.55 -12.85 Q-20.2 -10.1 -23.0 -7.5 L-32.05 -1.9 -32.7 -9.1 -28.45 -12.0 -28.45 -10.2 -25.6 -15.15 -23.7 -18.3 -22.75 -20.05 -21.95 -21.7 -21.2 -22.95 -19.65 -25.15 -18.3 -26.8 -18.1 -26.95 -17.75 -27.4 -17.05 -28.15 -15.4 -28.25 -13.75 -28.4 -11.95 -27.4" fill="#224870" fill-rule="evenodd" stroke="none"/>
    <path d="M1.05 -12.25 L1.3 -10.95 1.25 -10.3 -9.6 7.6 -9.35 10.35 -8.8 10.55 -9.2 11.85 -8.85 13.05 -8.8 13.3 -8.75 10.2 1.2 13.65 -11.95 33.85 -27.5 25.8 -29.5 18.95 -30.45 14.05 -32.05 -1.9 -23.0 -7.5 Q-20.2 -10.1 -17.75 -13.0 -15.05 -16.05 -12.9 -19.5 -11.9 -21.0 -11.25 -22.7 L-9.85 -26.35 -8.35 -24.65 -5.85 -21.75 -3.85 -19.45 -1.9 -17.15 -0.55 -15.3 1.05 -12.25" fill="#2e6399" fill-rule="evenodd" stroke="none"/>
    <path d="M4.5 9.0 L1.2 13.65 -3.3 21.6 -8.8 13.3 -8.85 13.05 -9.2 11.85 -8.8 10.55 -15.75 3.65 -6.85 5.1 4.5 9.0" fill="#224870" fill-rule="evenodd" stroke="none"/>
    <path d="M-22.7 -14.3 L-18.8 -6.85 -18.2 -4.6 -17.8 18.9 -19.0 24.3 -19.95 26.65 -20.5 4.35 -22.7 -14.3" fill="#14305e" fill-rule="evenodd" stroke="none"/>
    <path d="M-72.25 -9.4 L-72.0 -9.85 -70.25 -12.45 -69.6 -12.15 Q-67.6 -10.65 -65.75 -9.0 L-63.55 -6.7 -60.6 -2.75 Q-60.45 -1.35 -60.45 0.05 L-60.6 2.65 Q-61.1 7.7 -62.85 12.45 -63.75 15.05 -65.15 17.45 L-66.25 19.2 -68.3 22.1 -70.05 24.05 -71.55 25.35 -71.5 25.85 -72.0 26.15 -73.6 22.55 Q-70.0 19.95 -67.0 16.5 -66.3 8.3 -69.0 1.5 L-69.3 1.4 Q-70.7 -1.85 -72.0 -4.0 L-72.25 -9.4" fill="#14305e" fill-rule="evenodd" stroke="none"/>
    <path d="M-64.5 -8.1 L-69.5 -12.25 -33.9 -13.0 -22.95 -14.25 -22.7 -14.3 -21.4 -5.1 -28.45 -5.7 -38.0 -5.6 -46.75 -5.0 -60.6 -2.75 -64.5 -8.1" fill="#1b4777" fill-rule="evenodd" stroke="none"/>
    <path d="M-60.6 -2.75 L-43.0 -5.35 -28.45 -5.7 -21.4 -5.1 -20.5 4.35 -19.95 26.65 -21.3 28.75 -66.6 32.7 -66.65 32.65 -68.35 31.3 -71.9 26.4 -72.0 26.15 -71.5 25.85 -71.55 25.35 -70.05 24.05 -66.3 19.15 -65.15 17.4 Q-63.75 15.0 -62.85 12.45 -61.1 7.7 -60.6 2.65 L-60.45 0.05 Q-60.45 -1.35 -60.6 -2.75" fill="#336da1" fill-rule="evenodd" stroke="none"/>
    <path d="M-70.4 20.0 L-68.5 24.0 Q-90.8 35.15 -96.4 36.1 -100.1 36.75 -109.4 35.25 L-125.85 32.3 -125.55 31.45 Q-117.8 33.0 -111.0 30.0 L-106.0 30.0 -98.7 30.25 -97.95 30.9 -96.05 30.15 Q-87.8 29.6 -81.0 26.75 -79.15 27.7 -77.2 26.3 -75.05 24.8 -73.75 22.7 L-70.4 20.0" fill="#4e79b3" fill-rule="evenodd" stroke="none"/>
    <path d="M-78.75 33.45 L-88.95 33.6 Q-94.1 35.7 -96.4 36.1 -100.1 36.75 -109.4 35.25 L-116.5 34.0 -126.5 34.15 -125.85 32.3 -116.5 34.0 -88.95 33.6 Q-81.65 30.55 -68.5 24.0 L-66.8 27.6 Q-72.8 31.05 -78.75 33.45" fill="#3b5d8b" fill-rule="evenodd" stroke="none"/>
    <path d="M-67.0 16.5 L-66.85 14.3 -65.05 12.75 -55.25 30.15 -67.75 35.7 -72.65 21.85 Q-69.6 19.5 -67.0 16.5" fill="#336da1" fill-rule="evenodd" stroke="none"/>
    <path d="M-145.6 35.4 Q-146.1 33.85 -147.05 35.0 -147.6 35.7 -150.7 36.5 -154.45 37.5 -154.8 37.65 -156.05 38.25 -156.85 38.1 -157.8 37.95 -158.7 36.8 L-159.15 35.85 -155.45 35.55 Q-150.75 34.2 -143.95 22.05 -144.2 33.95 -137.35 35.45 -130.5 36.95 -128.4 31.95 L-126.05 32.45 -130.0 38.1 Q-130.65 39.05 -132.35 39.45 L-133.7 39.65 -136.8 39.45 Q-138.45 39.1 -140.1 38.25 L-145.6 35.4" fill="#3b5d8b" fill-rule="evenodd" stroke="none"/>
    <path d="M-135.2 9.35 L-134.65 14.05 -133.25 14.3 -132.6 14.55 -132.05 15.3 Q-131.65 15.8 -131.7 16.45 L-132.0 17.45 -132.0 17.55 -130.4 18.1 -125.3 23.05 -124.85 23.75 Q-123.8 25.9 -126.15 30.05 L-127.2 31.5 -129.55 31.0 Q-131.65 36.0 -138.5 34.5 -145.35 33.0 -145.55 23.05 -146.8 32.0 -156.6 34.6 L-160.3 34.9 Q-160.5 33.45 -159.0 31.95 -161.3 31.45 -161.85 29.25 -162.4 27.1 -159.4 26.05 L-160.1 22.85 Q-160.35 21.9 -158.15 20.8 L-151.65 17.95 -150.4 17.45 -148.7 16.95 -146.1 16.8 -137.65 19.85 -137.7 18.45 -137.7 17.45 -137.7 17.25 -138.3 15.4 Q-138.9 13.4 -137.75 11.65 -136.8 10.15 -135.2 9.35" fill="#4e79b3" fill-rule="evenodd" stroke="none"/>
    <path d="M-61.0 -58.7 Q-57.6 -49.95 -57.45 -46.2 -57.2 -40.65 -63.45 -16.35 L-68.25 -17.55 -62.85 -46.55 Q-66.45 -49.1 -68.25 -55.85 L-69.75 -62.0 -71.8 -71.45 -67.35 -74.15 -61.0 -58.7" fill="#4e79b3" fill-rule="evenodd" stroke="none"/>
    <path d="M-67.35 -74.15 L-65.65 -75.15 -60.0 -62.0 Q-56.1 -52.6 -55.3 -49.3 -53.7 -42.9 -56.35 -28.35 -57.45 -22.05 -59.55 -15.4 L-63.45 -16.35 Q-57.2 -40.65 -57.45 -46.2 -57.6 -49.95 -61.0 -58.7 L-67.35 -74.15" fill="#3b5d8b" fill-rule="evenodd" stroke="none"/>
    <path d="M-68.8 -20.25 L-51.85 -18.05 -51.65 -7.6 -70.25 -0.65 Q-71.15 -2.6 -72.0 -4.0 L-72.05 -5.65 -69.2 -19.2 -68.8 -20.25" fill="#1b4777" fill-rule="evenodd" stroke="none"/>
    <path d="M-83.05 -89.25 Q-80.75 -87.0 -80.55 -86.15 -80.3 -84.65 -79.1 -85.8 L-72.9 -85.55 Q-69.35 -85.45 -66.65 -83.65 -64.3 -82.05 -64.15 -80.5 L-63.45 -73.65 -65.75 -74.35 Q-65.15 -79.75 -71.85 -81.8 -78.6 -83.8 -84.15 -73.3 -84.15 -87.2 -87.65 -90.7 -89.1 -92.15 -90.7 -92.75 L-89.9 -93.35 -87.6 -93.6 Q-86.85 -93.3 -86.05 -92.2 L-83.05 -89.25" fill="#3b5d8b" fill-rule="evenodd" stroke="none"/>
    <path d="M-77.0 -63.45 Q-75.9 -64.25 -72.8 -63.5 -75.55 -62.7 -76.25 -62.0 L-76.35 -61.9 -78.5 -58.7 Q-79.95 -56.75 -80.8 -57.65 L-81.2 -58.2 Q-79.75 -60.6 -78.5 -62.0 L-77.0 -63.45" fill="#3b5d8b" fill-rule="evenodd" stroke="none"/>
    <path d="M-87.65 -90.7 Q-80.35 -83.65 -83.6 -75.2 -78.6 -83.8 -71.85 -81.8 -65.15 -79.75 -65.75 -74.35 L-63.45 -73.65 -63.25 -71.9 Q-63.2 -66.3 -65.9 -65.35 L-72.8 -63.5 Q-75.9 -64.25 -77.0 -63.45 L-78.5 -62.0 Q-79.75 -60.6 -81.2 -58.2 -82.25 -59.7 -82.35 -61.45 L-82.35 -62.0 Q-82.25 -63.75 -81.0 -65.0 -78.55 -67.4 -76.85 -68.3 L-87.1 -70.0 Q-89.05 -70.55 -91.45 -73.75 L-95.7 -79.35 Q-97.1 -81.4 -96.4 -82.1 L-94.25 -84.6 Q-96.35 -86.95 -94.8 -88.6 -93.25 -90.2 -91.05 -89.55 -91.6 -91.6 -90.7 -92.75 -89.1 -92.15 -87.65 -90.7" fill="#4e79b3" fill-rule="evenodd" stroke="none"/>
    <path d="M-111.8 30.35 L-98.6 32.85 -102.2 35.75 -126.7 35.8 -126.05 33.6 -125.9 32.8 -124.7 31.85 -124.3 31.65 Q-117.7 32.7 -111.8 30.35" fill="#4e79b3" fill-rule="evenodd" stroke="none"/>
    <path d="M-66.35 -2.35 L-66.35 -2.25 -65.6 0.7 Q-65.15 2.95 -64.85 5.15 L-64.85 5.45 -64.4 13.25 -65.15 15.8 -66.6 18.9 -66.4 19.0 -67.4 20.75 Q-68.45 22.6 -69.75 24.25 L-72.1 26.65 -76.15 29.6 -77.4 30.35 -84.15 33.7 -86.35 34.25 -87.8 34.35 -94.6 33.3 -86.55 30.0 -83.45 27.95 -83.3 27.65 -81.0 26.75 Q-79.15 27.7 -77.2 26.3 -75.05 24.8 -73.75 22.7 -70.1 20.05 -67.0 16.5 -66.35 9.15 -68.45 3.0 L-67.55 3.3 -66.85 2.55 -66.35 -2.35" fill="#1d4d82" fill-rule="evenodd" stroke="none"/>
    <path d="M-66.9 11.4 L-66.9 11.3 -66.85 11.45 -66.9 11.4 M-71.9 21.25 L-71.5 21.35 -71.7 21.65 -72.35 21.95 -71.9 21.3 -71.9 21.25 M-70.45 20.0 L-70.35 19.7 -70.15 19.75 -70.1 19.75 -70.35 20.05 -70.45 20.2 -70.45 20.05 -70.45 20.0 M-67.8 17.5 L-68.65 18.3 -67.7 17.3 -67.65 17.35 -67.8 17.5 M-105.05 30.1 L-103.2 30.2 Q-105.0 30.9 -106.65 31.8 L-106.8 31.85 Q-107.0 31.6 -107.25 31.45 L-107.15 31.15 -105.6 30.75 Q-105.3 30.6 -105.15 30.1 L-105.05 30.1" fill="#000000" fill-rule="evenodd" stroke="none"/>
    <path d="M-66.9 11.4 L-66.85 11.45 -66.8 11.6 -66.85 11.8 -66.9 11.4 M-71.9 21.25 L-71.0 20.55 -70.8 20.6 -71.5 21.35 -71.9 21.25 M-70.15 19.75 L-69.35 19.0 -70.0 19.65 -70.1 19.75 -70.15 19.75 M-71.9 21.3 L-72.35 21.95 -73.45 22.45 -71.9 21.3 M-105.25 30.05 L-105.15 30.1 -105.25 30.05" fill="#00294a" fill-rule="evenodd" stroke="none"/>
    <path d="M-70.8 20.6 L-71.0 20.55 -70.45 20.0 -70.45 20.05 -70.45 20.2 -70.8 20.6 M-105.05 30.1 L-105.15 30.1 Q-105.3 30.6 -105.6 30.75 L-107.15 31.15 -107.25 31.45 -107.8 32.05 -110.45 31.35 -110.5 31.4 -112.05 31.9 -112.5 31.75 -112.7 31.75 -114.55 32.3 -117.5 31.8 Q-114.8 31.45 -112.25 30.55 L-112.25 30.6 -112.2 30.5 -111.0 30.0 -110.8 30.0 -110.75 30.05 -109.95 30.35 -107.9 30.1 -107.7 30.1 -107.45 30.3 -107.35 30.0 -106.0 30.0 -105.25 30.05 -105.15 30.1 -105.05 30.1" fill="#005a9c" fill-rule="evenodd" stroke="none"/>
    <path d="M-112.25 30.55 L-112.2 30.5 -112.25 30.6 -112.25 30.55 M-110.8 30.0 L-107.35 30.0 -107.45 30.3 -107.7 30.1 -107.9 30.1 -109.95 30.35 -110.75 30.05 -110.8 30.0" fill="#4a7bb5" fill-rule="evenodd" stroke="none"/>
    <path d="M-133.75 13.8 L-133.1 14.05 -131.1 16.8 -130.7 17.45 Q-129.15 20.1 -128.4 23.05 L-128.0 24.95 Q-127.65 26.75 -127.65 28.7 L-127.65 28.85 -127.7 29.2 -127.8 29.45 -128.1 29.8 Q-131.2 31.6 -134.35 30.3 L-136.35 26.7 -137.1 25.45 -137.2 24.4 -137.3 23.45 -137.45 21.45 -137.5 20.9 -137.65 17.95 -137.65 17.45 -137.7 15.3 -137.25 14.6 -136.6 13.8 -135.2 13.5 -135.2 13.45 -134.9 13.5 -133.75 13.8" fill="#4e79b3" fill-rule="evenodd" stroke="none"/>
    <path d="M-75.0 24.35 L-73.75 22.7 -72.6 21.8 -74.3 24.15 -75.0 24.35 M-66.95 10.4 L-66.9 10.85 -66.85 12.5 -66.85 12.55 -66.95 10.4 M-66.85 9.4 L-67.0 9.75 -67.1 9.05 -66.85 9.4" fill="#356ba8" fill-rule="evenodd" stroke="none"/>
    <path d="M-121.4 34.4 L-116.65 37.25 -124.55 35.0 -117.95 31.75 -121.4 34.4" fill="#0f2950" fill-rule="evenodd" stroke="none"/>
    <path d="M-125.45 35.65 L-125.35 35.4 -124.55 35.0 -123.7 37.15 -125.15 36.1 -125.45 35.65" fill="#0f2950" fill-rule="evenodd" stroke="none"/>
    <path d="M-108.85 34.4 L-110.65 34.95 Q-112.7 35.25 -114.75 35.0 L-117.0 34.25 -116.0 31.35 -113.35 31.65 -113.55 32.1 -113.7 32.9 -113.25 33.65 -112.55 34.4 -108.85 34.4" fill="#0f2950" fill-rule="evenodd" stroke="none"/>
    <path d="M-81.75 20.6 L-99.25 32.25 -48.55 24.35 -82.15 35.8 -161.5 36.8 -201.75 33.9 -164.4 29.75 -174.35 20.2 -161.9 26.45 -156.9 4.0 -153.6 25.2 -138.65 -4.7 -145.3 26.85 -107.9 -6.35 -136.35 27.2 -84.75 9.65 -119.15 26.85 -81.75 20.6" fill="#98adcf" fill-rule="evenodd" stroke="none"/>
    <path d="M15.85 34.2 L50.25 28.85 27.45 36.65 -26.3 37.3 -53.65 35.35 -28.3 32.55 -35.05 26.05 Q-30.8 28.2 -26.6 30.3 L-23.25 15.1 -21.0 29.45 -10.85 9.15 -15.35 30.55 10.0 8.05 -9.25 30.8 25.7 18.9 2.4 30.55 27.75 26.35 15.85 34.2" fill="#98adcf" fill-rule="evenodd" stroke="none"/>
  </g>
</svg>
