<?xml version="1.0" encoding="UTF-8" standalone="no"?>
<svg xmlns:xlink="http://www.w3.org/1999/xlink" height="81.85px" width="94.3px" xmlns="http://www.w3.org/2000/svg">
  <g transform="matrix(1.0, 0.0, 0.0, 1.0, 108.65, 48.95)">
    <path d="M-43.55 31.1 L-46.95 31.25 -46.2 31.2 Q-46.95 30.65 -47.85 30.25 L-45.1 29.6 -43.1 29.3 -39.7 29.1 -38.5 29.05 -43.55 31.1 M-72.85 31.8 Q-82.8 29.15 -82.8 26.0 -82.8 23.45 -76.35 21.25 L-75.35 20.95 -75.2 21.55 -74.8 23.45 Q-74.45 25.25 -74.45 27.2 L-74.45 27.35 -74.5 27.7 -74.6 27.95 -72.55 29.1 -72.0 29.4 -72.85 31.8" fill="#031f32" fill-rule="evenodd" stroke="none"/>
    <path d="M-20.85 -6.6 L-20.4 -7.4 -20.3 -7.55 -20.0 -7.55 -20.0 -8.1 -19.75 -8.45 -19.55 -4.65 -19.95 -2.85 -20.7 -6.15 -20.75 -6.45 -20.85 -6.6 M-17.75 0.3 L-16.8 2.35 -16.5 2.45 -15.55 5.15 -15.95 3.95 -17.65 3.3 -18.05 3.05 -18.25 2.45 -18.65 1.45 -18.9 0.7 -17.75 0.3" fill="#14305e" fill-rule="evenodd" stroke="none"/>
    <path d="M-20.35 22.95 L-21.25 23.65 -21.25 23.6 -20.95 23.4 -20.7 23.2 -20.6 23.15 -20.35 22.95 M-28.5 27.7 L-30.2 28.4 -30.25 28.4 -28.5 27.7 M-30.75 28.5 L-43.55 31.1 -38.5 29.05 -37.95 29.05 -37.25 29.0 -36.2 28.95 -35.65 28.95 -34.3 28.85 -33.95 28.85 -33.7 28.85 -32.85 28.3 -31.25 27.45 -30.9 27.25 -30.45 27.5 -30.6 27.7 -30.35 27.8 -30.45 28.05 -30.5 28.05 -30.25 28.15 -30.75 28.45 -30.75 28.5 M-46.95 31.25 L-50.55 31.1 -47.85 30.25 Q-46.95 30.65 -46.2 31.2 L-46.95 31.25 M-52.15 31.05 L-52.3 31.05 -52.55 31.05 -52.15 31.05 M-52.65 31.05 L-53.1 31.0 -52.75 31.0 -52.65 31.05 M-58.6 31.0 L-58.7 31.05 -58.95 31.15 -59.1 31.2 -58.6 31.0 M-65.0 32.75 L-68.5 32.9 -71.8 32.6 -73.05 32.4 -72.85 31.8 -72.0 29.4 -70.5 30.3 -70.3 30.4 -69.15 31.15 -66.3 32.65 -65.9 32.45 -65.0 32.75 M-64.7 32.05 L-62.65 31.85 -63.8 32.2 -64.7 32.05" fill="#4e79b3" fill-rule="evenodd" stroke="none"/>
    <path d="M-17.4 20.5 L-17.9 20.95 -18.2 21.2 -17.95 20.95 -17.65 20.7 -17.4 20.5" fill="#336da1" fill-rule="evenodd" stroke="none"/>
    <path d="M-76.75 17.35 Q-78.65 16.75 -79.4 15.95 L-79.75 15.45 -80.5 12.3 -79.9 12.55 -78.3 14.65 -77.5 15.95 -76.75 17.35" fill="#3b5d8b" fill-rule="evenodd" stroke="none"/>
    <path d="M-19.55 -4.65 L-19.5 -3.05 -19.45 -2.95 -18.9 -1.95 -18.4 -1.05 -17.75 0.3 -18.9 0.7 -18.95 0.5 -19.2 -0.25 -19.65 -1.8 -19.95 -2.85 -19.55 -4.65" fill="#1b4777" fill-rule="evenodd" stroke="none"/>
    <path d="M-15.55 5.15 L-15.0 9.45 -15.65 8.5 -15.8 8.55 -15.95 8.25 -16.05 8.0 -16.1 7.9 -16.15 7.8 -16.5 6.95 -16.7 6.45 -16.85 6.05 -16.9 5.95 -17.0 5.65 -17.15 5.3 -17.5 4.5 -17.65 4.1 -18.05 3.05 -17.65 3.3 -15.95 3.95 -15.55 5.15 M-14.45 13.55 L-14.35 14.35 -14.35 14.55 -14.35 15.25 -14.5 17.45 -14.7 17.7 -15.05 18.1 -15.1 18.15 -15.3 18.35 -16.25 19.35 -16.2 19.1 -15.9 18.15 -15.2 18.25 -15.2 17.45 -15.0 15.2 -14.75 13.9 -14.45 13.55 M-19.85 22.6 L-20.15 22.8 -20.35 22.95 -20.1 22.75 -19.85 22.6 M-21.25 23.65 L-21.25 23.6 -21.25 23.55 -21.2 23.55 -21.25 23.65 M-30.0 26.85 L-29.75 26.8 -29.05 27.35 -28.5 27.7 -30.25 28.4 -30.8 28.6 -30.75 28.5 -30.75 28.45 -30.25 28.15 -30.5 28.05 -30.45 28.05 -30.35 27.8 -30.6 27.7 -30.45 27.5 -30.9 27.25 -30.0 26.85 M-17.95 20.95 L-17.85 20.65 -17.65 20.7 -17.95 20.95" fill="#1d4d82" fill-rule="evenodd" stroke="none"/>
    <path d="M-87.4 -44.0 L-87.1 -44.95 Q-86.35 -47.4 -89.75 -43.8 L-90.55 -43.85 -91.0 -43.2 -92.0 -43.45 -94.9 -43.05 Q-97.55 -42.1 -99.1 -39.0 L-99.2 -38.8 -98.35 -38.75 Q-98.05 -38.9 -97.9 -39.4 L-97.05 -39.35 Q-96.75 -39.5 -96.6 -39.95 -94.8 -41.9 -91.65 -41.75 L-91.3 -42.25 -90.5 -42.2 Q-90.2 -42.35 -90.05 -42.8 -89.55 -42.65 -89.2 -42.8 -88.9 -42.95 -88.7 -43.4 L-87.9 -43.35 Q-87.55 -43.5 -87.4 -44.0 M-85.8 -45.55 L-84.75 -45.3 Q-73.35 -45.25 -85.8 -45.55 M-107.2 -25.3 L-104.8 -33.45 -104.0 -36.05 Q-101.3 -38.4 -99.1 -41.3 L-95.95 -42.8 -94.55 -43.45 Q-92.9 -44.3 -92.0 -45.45 L-91.45 -45.9 -91.1 -46.1 Q-89.75 -46.3 -88.35 -46.85 -83.9 -48.7 -79.0 -48.95 L-71.85 -46.15 -73.25 -46.05 -72.25 -45.95 -71.45 -46.0 -49.9 -37.5 -46.5 -34.45 -46.0 -34.25 -45.95 -35.0 Q-43.9 -33.5 -42.05 -33.45 L-41.0 -32.25 -41.5 -32.5 -42.3 -32.55 -42.85 -31.9 -41.8 -31.5 -42.1 -30.5 -41.15 -30.15 -41.45 -29.15 -40.45 -28.75 -39.45 -28.35 -39.75 -27.4 -38.7 -27.0 -37.75 -26.6 -36.7 -26.2 -37.05 -25.2 -36.05 -24.85 -35.0 -24.45 -34.05 -24.05 -34.3 -23.1 -33.35 -22.7 Q-31.45 -21.3 -31.55 -22.85 L-30.05 -21.2 -30.0 -20.95 -31.65 -20.95 -30.65 -20.75 -30.0 -20.8 -29.6 -19.75 -28.4 -17.5 Q-29.15 -17.65 -29.55 -16.85 L-30.55 -17.25 Q-31.5 -20.55 -34.35 -20.0 L-35.25 -20.2 -36.25 -20.55 Q-35.9 -22.85 -37.45 -24.15 L-38.35 -24.7 -39.35 -25.1 -41.35 -25.85 Q-41.2 -26.35 -41.35 -26.5 -45.55 -30.55 -45.35 -27.45 L-46.35 -27.85 -47.35 -28.2 -48.35 -28.6 -49.3 -28.8 -50.65 -28.45 -51.65 -28.85 -52.65 -29.2 -53.5 -29.3 -53.95 -28.65 -54.65 -28.7 Q-55.3 -28.1 -55.6 -27.1 L-56.45 -27.15 -56.9 -26.55 -57.25 -25.5 -57.75 -25.65 Q-59.0 -23.5 -59.75 -21.05 L-60.1 -20.1 -61.05 -20.25 -62.4 -19.9 -62.1 -20.85 Q-61.8 -21.85 -61.9 -22.8 -61.95 -23.05 -62.45 -23.2 L-62.15 -24.2 -61.3 -24.1 Q-61.0 -24.25 -60.85 -24.75 L-60.2 -26.7 -59.9 -27.7 Q-60.1 -33.15 -63.3 -35.45 -67.05 -38.1 -74.85 -36.5 L-75.3 -35.95 -76.3 -36.25 Q-84.8 -37.3 -89.4 -30.55 L-90.35 -30.65 Q-93.05 -30.15 -91.65 -27.05 L-92.6 -27.55 Q-95.1 -29.15 -95.25 -26.3 L-95.6 -25.3 -94.9 -24.75 Q-94.75 -24.45 -94.9 -23.95 L-95.35 -23.15 Q-95.85 -22.7 -96.5 -22.4 L-95.9 -24.3 -95.6 -25.3 -96.15 -25.45 Q-97.2 -23.8 -97.85 -21.8 L-98.15 -20.85 -98.4 -19.85 -98.5 -18.9 Q-97.45 -11.65 -94.6 -5.15 -91.9 0.9 -87.6 6.3 L-84.6 7.5 -83.55 7.9 -83.9 8.85 -82.9 9.25 -83.2 10.25 -83.25 10.8 -81.7 12.0 -82.0 11.95 -82.0 12.0 -83.4 12.3 -84.05 13.1 -84.5 13.8 -84.45 15.95 -84.45 16.45 -84.3 19.4 -86.2 18.25 -86.6 18.0 -89.85 15.95 -95.2 12.35 -94.55 13.15 -91.9 15.95 -91.1 16.75 -89.05 18.5 -84.6 21.75 -84.1 21.95 -84.0 22.9 -88.95 18.9 -89.4 18.5 -92.25 15.95 -98.75 9.3 -99.0 8.6 -99.85 5.75 -100.9 1.0 Q-102.85 -6.5 -106.6 -15.4 L-106.7 -14.45 -104.9 -7.15 -106.85 -11.2 -107.65 -13.25 -108.65 -15.5 Q-108.15 -17.4 -108.05 -19.55 -108.0 -20.55 -108.25 -21.45 L-107.8 -23.1 -108.05 -21.45 -107.55 -21.25 -107.2 -25.3 M-38.05 -29.5 L-36.8 -28.4 -37.1 -28.55 -38.1 -28.95 -38.05 -29.5 M-36.55 -28.2 L-34.7 -26.75 -33.25 -25.85 -32.65 -24.6 -32.75 -24.65 -33.75 -25.05 Q-33.6 -25.55 -33.75 -25.9 L-34.4 -26.4 -35.4 -26.8 -36.4 -27.2 Q-36.25 -27.7 -36.45 -28.0 L-36.55 -28.2 M-31.95 -23.45 L-31.75 -23.15 -32.0 -23.25 -31.95 -23.45 M-14.4 12.2 L-14.4 12.25 -14.4 12.35 -14.4 12.3 -14.4 12.2 M-25.65 25.25 L-25.8 25.25 -26.1 25.35 -26.0 25.1 -25.65 25.25 M-27.2 25.75 L-27.3 25.8 -27.25 25.7 -27.2 25.75 M-50.55 31.1 L-50.7 31.15 -52.15 31.05 -52.55 31.05 -51.3 30.7 -50.3 30.85 -49.5 30.1 -50.0 29.9 -51.0 29.5 -51.65 29.25 -52.0 29.1 -52.75 28.8 -53.0 28.7 -54.0 28.3 -53.55 27.7 Q-53.2 27.5 -52.7 27.7 L-51.7 28.1 -50.7 28.5 -48.4 29.25 -46.65 29.6 -46.45 29.25 -46.4 29.1 -46.15 29.25 -45.4 29.55 -45.1 29.6 -47.85 30.25 -50.55 31.1 M-75.35 20.95 Q-75.9 19.1 -76.75 17.35 L-77.5 15.95 -77.9 15.3 -74.85 15.8 -74.25 15.95 -73.85 16.1 -73.9 16.65 -70.5 18.55 Q-66.5 20.85 -63.8 22.95 L-62.65 23.95 -61.85 24.65 -61.0 25.55 -62.0 25.15 -61.85 24.65 -63.05 24.75 -63.5 24.55 -64.05 24.35 -65.05 23.95 -67.0 23.2 -67.5 23.0 -67.6 22.95 -68.05 22.8 -68.35 22.65 -69.05 22.4 -69.9 22.35 -70.05 22.45 -70.35 22.95 -70.5 22.9 -71.3 22.8 -72.65 23.15 -73.5 23.1 Q-73.85 23.25 -74.0 23.75 L-74.8 23.45 -75.2 21.55 -75.35 20.95 M-100.85 -37.35 L-100.55 -38.15 Q-100.7 -37.75 -101.0 -37.55 -102.8 -36.45 -104.0 -34.25 -105.5 -31.6 -106.2 -27.3 L-105.7 -27.15 Q-101.9 -34.8 -100.85 -37.35 M-107.6 -15.8 L-107.1 -15.6 Q-106.35 -24.4 -107.6 -15.8 M-98.05 -17.5 Q-96.9 -19.55 -97.55 -17.35 L-98.05 -17.5 M-54.2 -24.35 L-53.9 -25.3 -53.1 -25.25 Q-52.8 -25.4 -52.6 -25.9 L-50.65 -25.6 -50.25 -26.1 -49.3 -25.7 -48.3 -25.3 -47.3 -24.9 -47.6 -23.9 -48.4 -24.0 Q-48.75 -23.85 -48.9 -23.35 L-49.9 -23.5 -51.2 -23.15 -52.05 -23.25 Q-53.05 -22.8 -53.85 -21.95 L-54.15 -21.05 -53.15 -20.65 -52.15 -20.25 -52.45 -19.25 -51.45 -18.9 -51.75 -17.9 -52.55 -17.95 Q-52.9 -17.85 -53.05 -17.35 L-54.05 -17.7 -54.9 -17.75 Q-55.25 -17.6 -55.4 -17.1 L-56.35 -17.5 -56.05 -18.5 -55.75 -19.5 -55.45 -20.5 -54.55 -23.4 -54.2 -24.35 M-46.95 -25.9 L-47.95 -26.25 -47.65 -27.25 -46.65 -26.85 -46.95 -25.9 M-77.85 -45.7 L-76.95 -45.65 Q-71.25 -47.1 -77.85 -45.7 M-72.95 -4.35 L-72.65 -5.3 Q-72.0 -5.6 -71.45 -6.05 L-71.0 -6.85 -70.0 -6.45 -70.35 -5.5 -69.35 -5.1 -69.65 -4.15 -70.65 -4.5 -71.5 -4.55 -71.95 -3.95 -70.95 -3.55 -71.25 -2.6 -72.25 -2.95 -73.25 -3.35 -72.95 -4.35 M-75.5 0.15 L-74.5 0.55 -74.95 1.35 -76.1 2.1 -75.8 1.1 -75.5 0.15 M-74.25 -3.75 L-73.25 -3.35 -73.55 -2.4 -74.55 -2.8 -74.25 -3.75 M-73.15 -0.05 L-74.2 -0.45 -73.9 -1.45 -73.55 -2.4 -72.6 -2.0 -72.9 -1.0 -73.15 -0.05 M-68.05 -5.65 Q-68.2 -5.2 -68.5 -5.05 L-69.35 -5.1 -69.0 -6.05 -68.05 -5.65 M-65.95 -1.6 Q-66.1 -1.15 -66.4 -1.0 -66.75 -0.85 -67.2 -1.0 L-68.25 -1.4 -67.95 -2.35 -66.95 -1.95 -65.95 -1.6 M-67.55 -0.05 Q-67.05 0.15 -66.7 0.5 -66.2 1.05 -65.85 1.75 L-66.2 2.7 -66.45 3.65 -67.5 3.25 -68.3 3.2 Q-68.65 3.35 -68.8 3.85 L-69.8 3.5 -70.8 3.05 -70.5 2.1 -70.15 1.1 -69.05 0.4 Q-68.75 0.05 -68.6 -0.45 L-67.55 -0.05 M-32.7 -3.45 L-32.15 -2.0 -32.1 -1.95 -33.1 -2.95 -33.25 -3.1 -33.05 -3.15 -32.7 -3.45 M-58.2 -11.7 L-59.25 -12.05 -58.9 -13.1 -58.6 -14.05 -57.65 -13.65 -57.9 -12.65 -58.2 -11.7 M-56.9 -12.25 L-55.9 -11.9 -54.9 -11.5 -55.2 -10.5 -56.25 -10.9 -57.25 -11.3 -56.9 -12.25 M-53.9 -11.1 L-52.9 -10.7 -51.9 -10.3 Q-52.05 -9.8 -52.3 -9.8 -53.25 -9.7 -54.25 -10.1 L-53.9 -11.1 M-49.6 -10.5 L-48.6 -10.1 -47.6 -9.7 -47.95 -8.7 -48.2 -7.75 -49.2 -8.15 -49.65 -9.5 -49.6 -10.5 M-55.8 -22.8 L-56.15 -21.85 -57.15 -22.2 -56.85 -23.2 -55.8 -22.8 M-54.7 -19.1 L-54.25 -18.9 Q-53.55 -21.1 -54.7 -19.1 M-33.85 28.6 L-33.4 28.4 -32.7 27.85 -32.25 27.1 -32.25 27.05 -32.2 27.1 -31.25 27.45 -32.85 28.3 -33.7 28.85 -33.95 28.85 -33.85 28.6 M-35.65 28.95 L-36.2 28.95 -36.15 28.75 -35.65 28.95 M-67.65 2.15 Q-67.0 -0.05 -68.15 1.95 L-67.65 2.15 M-70.1 4.45 L-70.4 5.4 -69.4 5.8 -68.4 6.2 -68.75 7.15 -69.35 9.1 -70.3 8.7 Q-70.2 8.2 -70.35 7.9 -70.55 7.55 -71.0 7.35 L-70.75 6.4 -70.4 5.4 -71.4 5.0 -71.1 4.05 -70.1 4.45 M-74.65 8.15 L-74.95 9.1 -75.3 10.05 -74.25 10.45 -74.6 11.45 -75.55 11.05 -76.6 10.65 Q-76.15 9.2 -75.25 8.05 L-74.65 8.15 M-75.35 6.8 L-76.35 6.35 Q-76.05 5.35 -75.4 4.75 L-74.7 4.8 -75.05 5.8 -75.35 6.8 M-78.5 13.15 L-78.45 13.15 Q-77.3 11.2 -78.0 13.35 L-78.45 13.15 -78.5 13.15 M-74.5 27.7 Q-72.85 28.1 -72.55 29.1 L-74.6 27.95 -74.5 27.7 M-69.15 31.15 L-68.5 31.35 -67.5 31.75 -66.95 32.0 -65.9 32.45 -66.3 32.65 -69.15 31.15 M-97.75 10.0 L-97.55 10.1 -96.95 10.05 Q-94.85 9.1 -97.65 9.95 L-97.75 10.0 M-97.95 8.8 Q-97.3 6.6 -98.5 8.6 L-97.95 8.8 M-92.8 3.15 Q-92.1 0.95 -93.3 2.95 L-92.8 3.15" fill="#000000" fill-rule="evenodd" stroke="none"/>
    <path d="M-85.8 -45.55 Q-73.35 -45.25 -84.75 -45.3 L-85.8 -45.55 M-97.9 -39.4 Q-98.05 -38.9 -98.35 -38.75 L-99.2 -38.8 -99.1 -39.0 Q-97.55 -42.1 -94.9 -43.05 L-92.0 -43.45 -91.0 -43.2 -90.55 -43.85 -89.75 -43.8 Q-86.35 -47.4 -87.1 -44.95 L-87.4 -44.0 -88.25 -44.05 -88.7 -43.4 -89.75 -43.8 -90.05 -42.8 -91.0 -43.2 -91.3 -42.25 -91.65 -41.75 Q-94.8 -41.9 -96.6 -39.95 L-97.4 -40.0 -97.9 -39.4 M-71.85 -46.15 L-71.45 -46.0 -72.25 -45.95 -73.25 -46.05 -71.85 -46.15 M-49.9 -37.5 L-47.85 -36.65 -47.3 -36.2 -45.95 -35.0 -46.0 -34.25 -46.5 -34.45 -49.9 -37.5 M-36.8 -28.4 L-36.55 -28.2 -36.45 -28.0 Q-36.25 -27.7 -36.4 -27.2 L-37.4 -27.6 -37.1 -28.55 -36.8 -28.4 M-32.65 -24.6 L-31.95 -23.45 -32.0 -23.25 -33.0 -23.65 -33.35 -22.7 -34.3 -23.1 -34.05 -24.05 -33.0 -23.65 -32.75 -24.65 -32.65 -24.6 M-30.0 -20.95 L-30.0 -20.8 -30.65 -20.75 -31.65 -20.95 -30.0 -20.95 M-28.4 -17.5 L-27.55 -16.05 -29.55 -16.85 Q-29.15 -17.65 -28.4 -17.5 M-26.8 -14.85 L-26.65 -14.55 -26.9 -14.65 -26.8 -14.85 M-14.4 12.35 L-14.35 12.75 -14.4 12.8 -14.4 12.3 -14.4 12.35 M-16.85 19.95 L-17.4 20.5 -17.65 20.7 -17.85 20.65 -17.5 19.65 -16.85 19.95 M-18.5 21.5 L-19.4 22.2 -19.4 22.25 -19.85 22.6 -20.1 22.75 -19.65 22.15 -19.4 22.2 -19.2 21.55 -19.0 21.25 -18.55 21.5 -18.5 21.5 M-26.1 25.35 L-27.2 25.75 -27.25 25.7 -27.3 25.8 -27.8 25.95 -28.6 26.25 -29.9 26.8 -29.55 26.3 -29.4 26.2 -29.15 26.15 -28.6 26.25 -28.45 25.95 -28.4 25.9 -28.2 25.7 -28.1 25.65 -27.25 25.7 -26.95 24.7 -26.0 25.1 -26.1 25.35 M-29.95 26.8 L-30.0 26.85 -30.9 27.25 -31.25 27.45 -31.1 27.15 -30.9 26.9 -30.75 26.85 -29.95 26.8 M-80.5 12.3 L-80.55 12.3 -81.7 12.0 -83.25 10.8 -83.2 10.25 Q-81.9 10.15 -80.8 9.6 -80.05 9.2 -79.4 8.65 -77.4 6.85 -76.4 3.05 L-76.1 2.1 -74.95 1.35 -74.5 0.55 -74.2 -0.45 -75.15 -0.85 -75.5 0.15 -75.8 1.1 -76.8 0.7 Q-76.5 -0.3 -75.85 -0.9 L-75.15 -0.85 -74.9 -1.8 -74.55 -2.8 -73.55 -2.4 -73.25 -3.35 -74.25 -3.75 -73.95 -4.75 -72.95 -4.35 -73.25 -3.35 -72.25 -2.95 -71.25 -2.6 -71.55 -1.6 -72.6 -2.0 -73.55 -2.4 -73.9 -1.45 -74.2 -0.45 -73.15 -0.05 -73.5 0.9 -74.1 2.9 -74.45 3.85 -74.7 4.8 -75.4 4.75 Q-76.05 5.35 -76.35 6.35 L-75.35 6.8 -74.35 7.15 -74.65 8.15 -75.25 8.05 Q-76.15 9.2 -76.6 10.65 L-75.55 11.05 -74.6 11.45 -73.55 11.85 -72.55 12.25 -72.95 13.15 Q-73.35 13.75 -73.8 15.95 L-73.85 16.1 -74.25 15.95 -74.85 15.8 -77.9 15.3 -78.3 14.65 -79.9 12.55 -80.5 12.3 M-84.3 19.4 L-84.25 19.95 -84.1 21.95 -84.6 21.75 -89.05 18.5 -91.1 16.75 -91.9 15.95 -94.55 13.15 -95.2 12.35 -89.85 15.95 -86.6 18.0 -86.2 18.25 -84.3 19.4 M-99.85 5.75 L-100.3 4.4 -101.35 1.4 Q-102.95 -2.95 -104.9 -7.15 L-106.7 -14.45 -106.6 -15.4 Q-102.85 -6.5 -100.9 1.0 L-99.85 5.75 M-107.8 -23.1 L-107.2 -25.3 -107.55 -21.25 -108.05 -21.45 -107.8 -23.1 M-100.85 -37.35 Q-101.9 -34.8 -105.7 -27.15 L-106.2 -27.3 Q-105.5 -31.6 -104.0 -34.25 -102.8 -36.45 -101.0 -37.55 -100.7 -37.75 -100.55 -38.15 L-100.85 -37.35 M-97.85 -21.8 Q-97.2 -23.8 -96.15 -25.45 L-95.6 -25.3 -95.9 -24.3 -96.5 -22.4 Q-95.85 -22.7 -95.35 -23.15 L-94.9 -23.95 -94.4 -23.6 Q-94.3 -15.7 -91.7 -7.95 -89.0 0.05 -83.55 7.9 L-84.6 7.5 -87.6 6.3 Q-91.9 0.9 -94.6 -5.15 -97.45 -11.65 -98.5 -18.9 L-98.4 -19.85 Q-96.85 -19.1 -97.3 -21.35 L-97.85 -21.8 M-95.25 -26.3 Q-95.1 -29.15 -92.6 -27.55 L-91.65 -27.05 Q-93.05 -30.15 -90.35 -30.65 L-89.4 -30.55 Q-84.8 -37.3 -76.3 -36.25 L-75.3 -35.95 -74.85 -36.5 Q-67.05 -38.1 -63.3 -35.45 -60.1 -33.15 -59.9 -27.7 L-60.9 -28.1 -60.6 -29.05 Q-62.05 -32.45 -64.6 -34.2 -68.3 -36.75 -74.4 -35.8 L-75.3 -35.95 Q-75.45 -35.5 -75.75 -35.4 L-89.4 -30.55 -89.75 -29.6 Q-90.3 -28.5 -91.65 -27.05 -91.8 -26.55 -92.15 -26.3 -93.3 -25.55 -95.25 -26.3 M-60.85 -24.75 Q-61.0 -24.25 -61.3 -24.1 L-62.15 -24.2 -61.85 -25.15 -60.85 -24.75 M-62.45 -23.2 Q-61.95 -23.05 -61.9 -22.8 -61.8 -21.85 -62.1 -20.85 L-63.05 -21.25 -62.75 -22.25 -62.45 -23.2 M-62.4 -19.9 L-61.05 -20.25 -60.1 -20.1 -60.35 -19.1 Q-60.75 -17.5 -62.7 -18.95 L-62.4 -19.9 M-59.75 -21.05 Q-59.0 -23.5 -57.75 -25.65 L-57.25 -25.5 -57.5 -24.55 -57.85 -23.6 -58.75 -20.7 -59.75 -21.05 M-56.9 -26.55 L-56.45 -27.15 -55.6 -27.1 -55.9 -26.15 -54.9 -25.75 -55.2 -24.75 -54.2 -24.35 -54.55 -23.4 -55.45 -20.5 -56.45 -20.85 -56.15 -21.85 -55.8 -22.8 -55.5 -23.75 -55.2 -24.75 -56.2 -25.15 -55.9 -26.15 -56.9 -26.55 M-53.95 -28.65 L-53.5 -29.3 -52.65 -29.2 -52.95 -28.2 -53.95 -28.65 M-50.65 -28.45 L-49.3 -28.8 -48.35 -28.6 -48.65 -27.65 -49.7 -28.05 -50.65 -28.45 M-47.35 -28.2 L-46.35 -27.85 -46.65 -26.85 -45.65 -26.45 -45.95 -25.5 -46.95 -25.9 -46.65 -26.85 -47.65 -27.25 -47.35 -28.2 M-45.35 -27.45 Q-45.55 -30.55 -41.35 -26.5 -41.2 -26.35 -41.35 -25.85 L-42.2 -25.9 -42.65 -25.25 -43.7 -25.65 -44.65 -26.05 -45.65 -26.45 -45.35 -27.45 M-38.35 -24.7 L-37.45 -24.15 Q-35.9 -22.85 -36.25 -20.55 L-37.25 -20.95 -38.25 -21.35 Q-40.25 -23.8 -38.8 -24.15 -38.5 -24.2 -38.35 -24.7 M-35.25 -20.2 L-34.35 -20.0 Q-31.5 -20.55 -30.55 -17.25 L-31.55 -17.6 -35.55 -19.2 -35.25 -20.2 M-107.6 -15.8 Q-106.35 -24.4 -107.1 -15.6 L-107.6 -15.8 M-98.05 -17.5 L-97.55 -17.35 Q-96.9 -19.55 -98.05 -17.5 M-53.9 -25.3 L-53.6 -26.3 -52.6 -25.9 -51.25 -26.25 -50.25 -26.1 -50.65 -25.6 -52.6 -25.9 Q-52.8 -25.4 -53.1 -25.25 L-53.9 -25.3 M-49.3 -25.7 L-49.0 -26.65 -47.95 -26.25 -48.3 -25.3 -49.3 -25.7 M-41.8 -31.5 L-42.85 -31.9 -42.3 -32.55 -41.5 -32.5 -41.8 -31.5 M-47.6 -23.9 Q-47.75 -23.45 -48.05 -23.3 L-48.9 -23.35 -49.15 -22.35 Q-49.55 -20.75 -51.5 -22.2 L-51.2 -23.15 -49.9 -23.5 -48.9 -23.35 Q-48.75 -23.85 -48.4 -24.0 L-47.6 -23.9 M-53.85 -21.95 Q-53.35 -21.8 -53.0 -21.45 L-52.15 -20.25 -51.15 -19.85 -51.45 -18.9 -50.45 -18.45 Q-50.65 -18.0 -50.95 -17.85 L-51.75 -17.9 -51.45 -18.9 -52.45 -19.25 -52.15 -20.25 -53.15 -20.65 -54.15 -21.05 -53.85 -21.95 M-53.05 -17.35 Q-53.25 -16.85 -53.55 -16.7 L-54.35 -16.75 -54.05 -17.7 -53.05 -17.35 M-77.85 -45.7 Q-71.25 -47.1 -76.95 -45.65 L-77.85 -45.7 M-70.65 -4.5 L-69.65 -4.15 -69.95 -3.15 -70.95 -3.55 -70.65 -4.5 M-69.35 -5.1 L-70.35 -5.5 -70.0 -6.45 -69.75 -7.45 -68.7 -7.05 -69.0 -6.05 -69.35 -5.1 M-64.6 -2.15 Q-64.8 -1.7 -65.1 -1.5 L-65.95 -1.6 -66.95 -1.95 -67.95 -2.35 -67.6 -3.35 -65.6 -2.55 -64.6 -2.15 M-67.2 -1.0 L-67.55 -0.05 -68.6 -0.45 -68.25 -1.4 -67.2 -1.0 M-65.2 3.1 L-65.5 4.05 -66.45 3.65 -66.2 2.7 -65.2 3.1 M-68.0 8.55 L-68.35 9.5 -69.35 9.1 -68.75 7.15 -68.4 6.2 -67.4 6.6 -67.7 7.55 -68.0 8.55 M-70.65 9.7 L-70.3 8.7 -69.35 9.1 -69.8 9.75 -70.65 9.7 M-33.2 26.65 Q-32.85 26.75 -32.5 26.95 L-32.4 27.0 -32.25 27.05 -32.25 27.1 -32.7 27.85 -33.4 28.4 -33.85 28.6 -33.75 28.4 -33.7 28.3 -33.5 27.6 -33.45 27.45 -33.3 26.95 -33.3 26.9 -33.3 26.85 -33.2 26.65 M-45.3 -9.9 L-44.3 -9.5 -43.3 -9.1 -43.8 -8.3 Q-45.3 -6.7 -48.2 -7.75 L-47.95 -8.7 -47.6 -9.7 -45.65 -9.35 -45.3 -9.9 M-38.3 -7.1 L-37.25 -6.75 -36.45 -6.65 -35.95 -7.3 Q-35.45 -7.1 -35.2 -6.75 -33.55 -4.75 -36.9 -4.35 L-37.9 -4.75 -39.9 -5.55 -38.75 -6.3 Q-38.45 -6.65 -38.3 -7.1 M-32.75 -3.85 L-32.7 -3.45 -33.05 -3.15 -33.25 -3.1 -33.85 -3.35 -33.4 -3.85 -32.75 -3.85 M-29.9 1.75 L-29.45 2.5 -29.5 2.85 -29.75 2.2 -29.9 1.75 M-40.5 14.5 L-41.0 14.3 -40.95 14.05 -41.0 13.65 -40.95 13.65 -40.9 14.25 -40.5 14.5 M-40.95 11.9 L-41.15 12.5 Q-41.35 11.55 -41.8 11.05 L-41.5 10.2 -40.85 10.45 -40.95 11.9 M-38.5 -2.85 L-38.85 -1.85 -39.85 -2.25 Q-39.7 -2.75 -39.85 -3.1 L-40.55 -3.6 -41.5 -4.0 Q-40.7 -5.55 -38.5 -3.5 -38.35 -3.35 -38.5 -2.85 M-51.5 -7.95 L-52.55 -8.35 -53.55 -8.75 -54.55 -9.2 -54.25 -10.1 -55.2 -10.5 -54.9 -11.5 -53.9 -11.1 -54.25 -10.1 Q-53.25 -9.7 -52.3 -9.8 -52.05 -9.8 -51.9 -10.3 L-50.55 -10.65 -49.6 -10.5 -49.65 -9.5 -49.2 -8.15 -50.2 -8.3 -51.5 -7.95 M-59.95 -13.45 L-59.6 -14.45 -59.15 -15.05 -58.3 -15.0 -58.6 -14.05 -58.9 -13.1 -59.95 -13.45 M-57.9 -12.65 L-56.9 -12.25 -57.25 -11.3 -58.2 -11.7 -57.9 -12.65 M-55.9 -11.9 L-55.6 -12.85 -54.6 -12.4 -54.9 -11.5 -55.9 -11.9 M-58.35 -18.3 L-57.8 -20.3 -57.45 -21.2 -56.45 -20.85 -56.75 -19.85 -55.75 -19.5 -56.05 -18.5 -56.6 -18.7 Q-57.1 -16.6 -58.7 -17.35 L-58.35 -18.3 M-42.0 -3.4 L-42.8 -3.45 -42.35 -4.05 -41.5 -4.0 Q-41.7 -3.55 -42.0 -3.4 M-34.4 -26.4 L-33.75 -25.9 Q-33.6 -25.55 -33.75 -25.05 L-34.75 -25.45 -34.4 -26.4 M-39.45 -28.35 L-38.75 -27.85 -38.7 -27.0 -39.75 -27.4 -39.45 -28.35 M-25.8 -10.95 L-26.8 -11.4 -26.35 -12.0 -25.5 -11.95 -25.8 -10.95 M-30.25 -15.15 L-31.2 -15.25 Q-26.5 -15.35 -30.25 -15.15 M-17.65 4.1 L-17.5 4.5 -17.15 5.3 -17.0 5.65 -17.45 5.45 -17.5 5.45 -17.5 5.4 -17.65 4.1 M-16.7 6.45 L-16.5 6.95 -16.75 6.85 -16.8 6.85 -16.75 6.7 -16.7 6.45 M-16.05 8.0 L-15.95 8.25 -16.1 8.2 -16.05 8.0 M-15.2 17.45 L-15.2 18.25 -15.9 18.15 Q-15.75 17.65 -15.4 17.5 L-15.3 17.45 -15.2 17.45 M-33.95 28.85 L-34.3 28.85 -35.65 28.95 -36.15 28.75 -35.7 28.6 -34.8 28.45 -34.25 28.45 -34.0 28.55 -33.85 28.6 -33.95 28.85 M-36.2 28.95 L-37.25 29.0 -37.0 28.7 -36.95 28.7 -36.4 28.65 -36.15 28.75 -36.2 28.95 M-43.1 29.3 L-45.1 29.6 -45.4 29.55 -45.3 29.2 -45.05 28.55 -43.55 29.15 -43.1 29.3 M-73.85 16.1 L-72.8 16.55 -70.5 17.55 Q-65.05 20.0 -60.7 22.45 L-59.7 23.0 -55.05 25.95 -52.7 27.7 Q-53.2 27.5 -53.55 27.7 L-54.0 28.3 -55.05 27.95 -59.95 25.95 -61.0 25.55 -61.85 24.65 -62.65 23.95 -63.8 22.95 Q-66.5 20.85 -70.5 18.55 L-73.9 16.65 -73.85 16.1 M-50.7 28.5 Q-49.9 26.95 -47.35 28.65 L-46.4 29.1 -46.45 29.25 -46.65 29.6 -48.4 29.25 -50.7 28.5 M-70.5 2.1 L-70.8 3.05 -69.8 3.5 -70.1 4.45 -71.1 4.05 -72.1 3.65 Q-71.8 2.65 -71.15 2.05 L-70.5 2.1 M-68.8 3.85 Q-68.65 3.35 -68.3 3.2 L-67.5 3.25 -67.8 4.25 -68.8 3.85 M-70.75 6.4 L-71.7 6.0 -71.4 5.0 -70.4 5.4 -70.75 6.4 M-74.95 9.1 L-73.95 9.5 -74.25 10.45 -75.3 10.05 -74.95 9.1 M-78.5 13.15 L-78.45 13.15 -78.0 13.35 Q-77.3 11.2 -78.45 13.15 L-78.5 13.15 M-74.0 23.75 Q-73.85 23.25 -73.5 23.1 L-72.65 23.15 -73.15 23.75 -74.0 23.75 M-70.35 22.95 L-70.05 22.45 -69.9 22.35 -69.05 22.4 -69.1 22.6 -69.2 22.95 -69.35 23.35 -70.35 22.95 M-63.05 24.75 L-61.85 24.65 -62.0 25.15 -63.05 24.75 M-52.0 29.1 L-52.05 29.25 -52.3 30.05 -52.65 31.05 -52.75 31.0 -53.65 30.65 Q-53.5 30.15 -53.65 29.85 L-54.35 29.3 -54.3 29.15 -54.1 28.6 -54.0 28.3 -53.0 28.7 -52.75 28.8 -52.0 29.1 M-83.55 7.9 Q-83.1 8.1 -82.9 8.45 -82.75 8.75 -82.9 9.25 L-83.9 8.85 -83.55 7.9 M-92.8 3.15 L-93.3 2.95 Q-92.1 0.95 -92.8 3.15 M-97.95 8.8 L-98.5 8.6 Q-97.3 6.6 -97.95 8.8 M-97.75 10.0 L-97.65 9.95 Q-94.85 9.1 -96.95 10.05 L-97.55 10.1 -97.75 10.0" fill="#00294a" fill-rule="evenodd" stroke="none"/>
    <path d="M-87.4 -44.0 Q-87.55 -43.5 -87.9 -43.35 L-88.7 -43.4 Q-88.9 -42.95 -89.2 -42.8 -89.55 -42.65 -90.05 -42.8 -90.2 -42.35 -90.5 -42.2 L-91.3 -42.25 -91.0 -43.2 -90.05 -42.8 -89.75 -43.8 -88.7 -43.4 -88.25 -44.05 -87.4 -44.0 M-96.6 -39.95 Q-96.75 -39.5 -97.05 -39.35 L-97.9 -39.4 -97.4 -40.0 -96.6 -39.95 M-39.7 -31.0 L-39.1 -30.45 -39.75 -30.7 -39.7 -31.0 M-38.8 -30.2 L-38.05 -29.5 -38.1 -28.95 -37.1 -28.55 -37.4 -27.6 -37.75 -26.6 -38.7 -27.0 -38.75 -27.85 -39.45 -28.35 -40.45 -28.75 -41.45 -29.15 -41.15 -30.15 -42.1 -30.5 -41.8 -31.5 -41.15 -31.0 Q-41.0 -30.65 -41.15 -30.15 L-39.2 -29.8 -38.8 -30.2 M-31.75 -23.15 L-31.55 -22.85 Q-31.45 -21.3 -33.35 -22.7 L-33.0 -23.65 -32.0 -23.25 -31.75 -23.15 M-16.25 19.35 L-16.85 19.95 -17.5 19.65 -17.4 19.35 Q-16.65 17.1 -15.5 15.15 L-15.0 15.2 -15.2 17.45 -15.3 17.45 -15.4 17.5 Q-15.75 17.65 -15.9 18.15 L-16.2 19.1 -16.25 19.35 M-18.2 21.2 L-18.5 21.5 -18.55 21.5 -19.0 21.25 -18.4 20.4 -18.5 20.05 -18.15 19.65 -17.9 19.55 -17.5 19.65 -17.85 20.65 -17.95 20.95 -18.2 21.2 M-21.45 23.65 L-21.95 23.9 -22.2 24.0 -21.85 23.7 -21.45 23.65 M-22.85 24.25 L-23.45 24.5 -23.2 24.3 -22.85 24.25 M-24.1 24.75 L-25.65 25.25 -26.0 25.1 -26.95 24.7 -27.25 25.7 -28.1 25.65 -28.2 25.7 -28.4 25.9 -28.45 25.95 -28.6 26.25 -29.15 26.15 -29.4 26.2 -29.55 26.3 -29.9 26.8 -29.95 26.8 -30.75 26.85 -30.9 26.9 -31.1 27.15 -31.25 27.45 -32.2 27.1 -32.25 27.05 -32.2 26.95 -32.2 26.8 -32.0 25.95 Q-31.45 23.95 -29.9 23.85 L-29.2 23.9 -28.55 24.1 -27.95 24.3 -27.15 24.65 -26.95 24.7 -26.8 24.3 -26.45 23.9 Q-25.8 23.6 -24.6 24.45 L-24.1 24.75 M-52.55 31.05 L-52.65 31.05 -52.3 30.05 -52.05 29.25 -52.0 29.1 -51.65 29.25 -51.0 29.5 -50.0 29.9 -50.3 30.85 -51.3 30.7 -52.55 31.05 M-53.1 31.0 L-53.5 30.95 -54.85 30.95 -54.65 30.3 -54.35 29.3 -53.65 29.85 Q-53.5 30.15 -53.65 30.65 L-52.75 31.0 -53.1 31.0 M-58.3 30.95 L-58.5 30.95 -58.6 31.0 -59.1 31.2 -59.7 31.45 Q-59.35 30.5 -58.3 30.95 M-59.75 31.5 L-62.15 32.2 -62.2 32.25 -62.95 32.4 -63.05 32.45 -65.0 32.75 -65.9 32.45 -66.95 32.0 -67.5 31.75 -68.5 31.35 Q-68.9 27.4 -66.55 31.4 L-66.45 31.6 -66.4 31.6 -64.7 32.05 -63.8 32.2 -62.65 31.85 -62.0 31.55 -61.7 31.3 -60.3 31.4 -59.8 31.4 -59.75 31.45 -59.75 31.5 M-97.85 -21.8 L-97.3 -21.35 Q-96.85 -19.1 -98.4 -19.85 L-98.15 -20.85 -97.85 -21.8 M-59.9 -27.7 L-60.2 -26.7 -60.85 -24.75 -61.85 -25.15 -61.25 -27.1 -60.9 -28.1 -59.9 -27.7 M-62.1 -20.85 L-62.4 -19.9 -62.7 -18.95 Q-60.75 -17.5 -60.35 -19.1 L-60.1 -20.1 -59.75 -21.05 -58.75 -20.7 -59.1 -19.7 -59.35 -18.7 -58.35 -18.3 -58.7 -17.35 Q-57.1 -16.6 -56.6 -18.7 L-56.05 -18.5 -56.35 -17.5 -56.8 -16.65 -58.3 -15.0 -57.6 -14.45 Q-57.45 -14.15 -57.65 -13.65 L-56.6 -13.25 -55.6 -12.85 Q-53.85 -17.65 -54.4 -13.5 L-54.6 -12.4 -55.6 -12.85 -55.9 -11.9 -56.9 -12.25 -57.9 -12.65 -57.65 -13.65 -58.6 -14.05 -58.3 -15.0 -59.15 -15.05 -59.6 -14.45 -60.6 -14.85 -61.6 -15.2 Q-61.4 -17.0 -62.7 -18.25 L-62.7 -18.95 -63.7 -19.35 -63.35 -20.3 -63.05 -21.25 -62.1 -20.85 M-55.6 -27.1 Q-55.3 -28.1 -54.65 -28.7 L-53.95 -28.65 -54.3 -27.65 -54.6 -26.65 -53.6 -26.3 -53.3 -27.3 -52.95 -28.2 -52.65 -29.2 -51.65 -28.85 -50.65 -28.45 -51.0 -27.45 -50.0 -27.05 -49.0 -26.65 -49.3 -25.7 -50.25 -26.1 -51.25 -26.25 -52.6 -25.9 -53.6 -26.3 -53.9 -25.3 -54.2 -24.35 -55.2 -24.75 -54.9 -25.75 -54.6 -26.65 -55.6 -27.1 M-48.35 -28.6 L-47.35 -28.2 -47.65 -27.25 -48.65 -27.65 -48.35 -28.6 M-46.35 -27.85 L-45.35 -27.45 -45.65 -26.45 -44.65 -26.05 -43.7 -25.65 Q-43.85 -25.2 -44.05 -25.15 -44.95 -25.1 -45.95 -25.5 L-45.65 -26.45 -46.65 -26.85 -46.35 -27.85 M-57.25 -25.5 L-56.2 -25.15 -56.55 -24.2 -55.5 -23.75 -55.8 -22.8 -56.85 -23.2 -56.55 -24.2 -57.5 -24.55 -57.25 -25.5 M-46.95 -25.9 L-47.3 -24.9 -48.3 -25.3 -47.95 -26.25 -46.95 -25.9 M-51.15 -19.85 L-50.45 -19.3 Q-50.3 -18.95 -50.45 -18.45 L-51.45 -18.9 -51.15 -19.85 M-54.35 -16.75 L-55.4 -17.1 Q-55.25 -17.6 -54.9 -17.75 L-54.05 -17.7 -54.35 -16.75 M-72.65 -5.3 L-72.95 -4.35 -73.95 -4.75 -73.5 -5.4 -72.65 -5.3 M-71.25 -2.6 L-70.95 -3.55 -71.95 -3.95 -71.5 -4.55 -70.65 -4.5 -70.95 -3.55 -69.95 -3.15 Q-70.15 -2.7 -70.45 -2.55 L-71.25 -2.6 M-70.0 -6.45 L-71.0 -6.85 -70.55 -7.5 -69.75 -7.45 -70.0 -6.45 M-75.5 0.15 L-75.15 -0.85 -74.2 -0.45 -74.5 0.55 -75.5 0.15 M-72.9 -1.0 L-72.6 -2.0 -71.55 -1.6 Q-71.75 -1.15 -72.05 -1.0 -72.4 -0.85 -72.9 -1.0 M-63.1 -7.05 Q-47.75 -8.05 -51.4 4.1 L-51.95 3.9 Q-57.2 -0.95 -63.6 -7.25 L-63.1 -7.05 M-68.7 -7.05 L-68.45 -7.5 Q-65.2 -7.0 -68.05 -5.65 L-69.0 -6.05 -68.7 -7.05 M-70.15 1.1 Q-69.4 -1.35 -68.15 -3.45 L-67.6 -3.35 Q-65.0 -5.2 -64.55 -3.15 -64.45 -2.65 -64.6 -2.15 L-65.6 -2.55 -67.6 -3.35 -67.95 -2.35 -68.25 -1.4 -68.6 -0.45 Q-68.75 0.05 -69.05 0.4 L-70.15 1.1 M-65.85 1.75 Q-65.35 1.9 -65.2 2.25 -65.05 2.6 -65.2 3.1 L-66.2 2.7 -65.85 1.75 M-65.5 4.05 Q-65.65 4.55 -65.45 4.85 -62.9 8.85 -68.0 8.55 L-67.7 7.55 -67.4 6.6 Q-67.1 5.6 -67.25 4.7 L-67.8 4.25 -67.5 3.25 -66.45 3.65 -65.5 4.05 M-68.35 9.5 L-68.5 10.5 Q-68.65 12.8 -70.25 12.1 L-70.7 10.65 -70.65 9.7 -69.8 9.75 -69.35 9.1 -68.35 9.5 M-70.3 8.7 L-71.3 8.35 -71.0 7.35 -71.6 7.3 Q-72.7 8.85 -73.95 9.5 L-73.3 10.05 Q-72.75 11.05 -72.55 12.25 -72.1 12.45 -71.6 12.75 -68.65 14.65 -66.2 16.95 L-65.25 17.1 Q-61.05 16.35 -56.85 19.5 -56.35 19.7 -56.15 20.1 L-54.0 22.9 -51.25 25.95 -51.05 26.15 -46.1 28.15 -45.05 28.55 Q-43.75 25.75 -37.75 26.0 L-35.05 26.25 -34.2 26.35 -33.2 26.65 -33.3 26.85 -33.3 26.9 -33.3 26.95 -33.45 27.45 -33.5 27.6 -33.7 28.3 -33.75 28.4 -33.85 28.6 -34.0 28.55 -34.25 28.45 -34.8 28.45 -35.7 28.6 -36.15 28.75 -36.4 28.65 -36.95 28.7 -37.0 28.7 -37.25 29.0 -37.95 29.05 -38.5 29.05 -39.7 29.1 -43.1 29.3 -43.55 29.15 -45.05 28.55 -45.3 29.2 -45.4 29.55 -46.15 29.25 -46.4 29.1 -47.35 28.65 Q-49.9 26.95 -50.7 28.5 L-51.7 28.1 -52.7 27.7 -55.05 25.95 -59.7 23.0 -60.7 22.45 Q-65.05 20.0 -70.5 17.55 L-72.8 16.55 -73.85 16.1 -73.8 15.95 Q-73.35 13.75 -72.95 13.15 L-72.55 12.25 -73.55 11.85 -74.6 11.45 -74.25 10.45 -73.95 9.5 -74.95 9.1 -74.65 8.15 -74.35 7.15 Q-72.55 7.5 -72.3 4.7 L-72.1 3.65 -71.1 4.05 -71.4 5.0 -71.7 6.0 -70.75 6.4 -71.0 7.35 Q-70.55 7.55 -70.35 7.9 -70.2 8.2 -70.3 8.7 M-63.45 -0.6 L-63.95 -0.8 Q-61.8 -5.85 -63.45 -0.6 M-43.3 -9.1 L-39.3 -7.5 -38.3 -7.1 Q-38.45 -6.65 -38.75 -6.3 L-39.9 -5.55 -37.9 -4.75 -36.9 -4.35 Q-33.55 -4.75 -35.2 -6.75 -35.45 -7.1 -35.95 -7.3 L-36.45 -6.65 -37.25 -6.75 -36.8 -7.35 -35.95 -7.3 -35.5 -7.9 Q-31.25 -9.0 -33.25 -5.15 L-32.6 -4.9 -32.75 -3.85 -33.4 -3.85 -33.85 -3.35 Q-34.75 -3.5 -35.6 -2.15 L-36.25 -3.85 Q-36.4 -4.2 -36.9 -4.35 L-37.4 -3.55 Q-37.9 -3.15 -38.5 -2.85 -38.35 -3.35 -38.5 -3.5 -40.7 -5.55 -41.5 -4.0 L-40.55 -3.6 -40.75 -2.6 Q-41.0 0.25 -42.75 -0.1 -41.45 -1.95 -42.9 -2.95 L-42.8 -3.45 Q-43.35 -3.65 -43.7 -4.0 -46.0 -6.5 -50.85 -6.6 -50.7 -7.1 -50.85 -7.4 -51.0 -7.75 -51.5 -7.95 L-50.2 -8.3 -49.2 -8.15 -48.2 -7.75 Q-45.3 -6.7 -43.8 -8.3 L-43.3 -9.1 M-29.45 2.5 L-28.25 4.2 -29.15 4.8 Q-29.25 3.85 -29.5 2.85 L-29.45 2.5 M-41.5 10.2 Q-41.2 9.2 -40.55 8.6 L-40.5 8.6 -40.85 10.45 -41.5 10.2 M-38.85 -1.85 L-39.35 -1.25 -40.1 -1.3 -39.85 -2.25 -38.85 -1.85 M-53.55 -8.75 Q-53.7 -8.25 -53.8 -8.25 -55.85 -8.55 -57.85 -9.35 L-58.3 -10.75 -58.2 -11.7 -57.25 -11.3 -56.25 -10.9 -55.2 -10.5 -54.25 -10.1 -54.55 -9.2 -53.55 -8.75 M-59.25 -12.05 L-60.2 -12.45 -59.95 -13.45 -58.9 -13.1 -59.25 -12.05 M-56.15 -21.85 L-56.45 -20.85 -55.45 -20.5 -55.75 -19.5 -56.75 -19.85 -56.45 -20.85 -57.45 -21.2 -57.15 -22.2 -56.15 -21.85 M-54.7 -19.1 Q-53.55 -21.1 -54.25 -18.9 L-54.7 -19.1 M-42.0 -3.4 Q-41.7 -3.55 -41.5 -4.0 L-42.35 -4.05 -42.8 -3.45 -42.0 -3.4 M-35.4 -26.8 L-34.4 -26.4 -34.75 -25.45 -35.7 -25.85 -35.4 -26.8 M-33.75 -25.05 L-32.75 -24.65 -33.0 -23.65 -34.05 -24.05 -33.75 -25.05 M-36.7 -26.2 L-35.7 -25.85 -36.05 -24.85 -37.05 -25.2 -36.7 -26.2 M-37.8 -1.5 Q-36.65 -3.5 -37.3 -1.25 L-37.8 -1.5 M-25.5 -11.95 L-24.65 -11.4 Q-23.1 -9.7 -22.25 -7.65 L-21.95 -6.9 -21.7 -6.1 -21.2 -5.95 -20.85 -6.0 -20.7 -6.15 -19.95 -2.85 -19.65 -1.8 -19.2 -0.25 -18.95 0.5 -19.25 0.35 -20.25 -0.05 -20.45 -0.55 -22.0 -4.25 -22.8 -5.8 -23.0 -6.15 Q-24.2 -8.25 -25.75 -10.2 -25.95 -10.5 -25.8 -10.95 L-25.5 -11.95 M-16.15 12.55 L-16.35 12.45 -16.4 12.45 -17.1 12.15 -17.5 12.05 -18.35 11.65 -18.3 10.25 -18.65 10.35 Q-20.8 10.8 -22.65 8.45 L-26.1 4.5 -28.6 1.9 Q-29.45 1.0 -28.95 -0.2 L-28.5 -1.0 -24.4 -0.85 Q-22.7 -0.15 -21.1 1.65 L-20.7 2.1 -20.4 2.45 -19.45 2.1 -18.75 1.55 -18.65 1.45 -18.25 2.45 -18.05 3.05 -17.65 4.1 -17.5 5.4 -17.5 5.45 -17.45 5.45 -17.0 5.65 -16.9 5.95 -16.85 6.05 -16.7 6.45 -16.75 6.7 -16.8 6.85 -16.75 6.85 -16.5 6.95 -16.15 7.8 -16.1 7.9 -16.05 8.0 -16.1 8.2 -15.95 8.25 -15.8 8.55 -16.2 8.7 Q-15.75 10.45 -16.15 12.55 M-44.3 4.75 Q-43.15 2.75 -43.8 4.95 L-44.3 4.75 M-44.35 1.45 Q-42.7 -2.15 -43.85 1.6 L-44.35 1.45 M-47.7 1.25 Q-45.0 -1.15 -47.1 1.3 L-47.7 1.25 M-47.85 8.8 Q-45.7 -1.6 -47.3 9.0 L-47.85 8.8 M-57.85 4.9 Q-56.7 2.9 -57.35 5.1 L-57.85 4.9 M-58.65 5.7 L-59.15 5.45 Q-58.0 3.45 -58.65 5.7 M-56.95 7.45 L-57.5 7.2 Q-56.3 5.2 -56.95 7.45 M-63.0 5.05 L-63.5 4.85 Q-62.3 2.85 -63.0 5.05 M-63.55 1.55 Q-61.85 -2.05 -63.05 1.75 L-63.55 1.55 M-67.65 2.15 L-68.15 1.95 Q-67.0 -0.05 -67.65 2.15 M-69.8 3.5 L-68.8 3.85 -69.1 4.85 -69.4 5.8 -70.4 5.4 -70.1 4.45 -69.8 3.5 M-74.1 2.9 L-73.6 3.2 Q-73.75 5.2 -74.35 7.15 L-75.35 6.8 -75.05 5.8 -74.7 4.8 -74.45 3.85 -74.1 2.9 M-74.0 23.75 L-74.05 24.25 Q-68.95 27.5 -74.45 27.35 L-74.45 27.2 Q-74.45 25.25 -74.8 23.45 L-74.0 23.75 M-72.65 23.15 L-71.3 22.8 -70.5 22.9 -70.35 22.95 -69.35 23.35 -69.6 24.35 Q-69.8 25.2 -70.5 25.2 L-71.95 24.5 Q-71.8 24.0 -72.0 23.7 -72.15 23.35 -72.65 23.15 M-69.05 22.4 L-68.35 22.65 -68.05 22.8 -68.1 22.95 -68.5 23.4 -69.35 23.35 -69.2 22.95 -69.1 22.6 -69.05 22.4 M-67.0 23.2 L-65.05 23.95 -64.05 24.35 -64.35 24.85 Q-65.85 24.75 -67.35 24.15 L-67.0 23.2 M-64.95 13.05 Q-56.55 3.0 -64.35 13.1 L-64.95 13.05 M-62.15 27.3 L-62.65 27.1 Q-61.45 25.1 -62.15 27.3 M-64.6 29.4 L-65.55 29.25 Q-60.9 29.15 -64.6 29.4" fill="#005a9c" fill-rule="evenodd" stroke="none"/>
    <path d="M-41.0 -32.25 L-39.7 -31.0 -39.75 -30.7 -39.1 -30.45 -38.8 -30.2 -39.2 -29.8 -41.15 -30.15 Q-41.0 -30.65 -41.15 -31.0 L-41.8 -31.5 -41.5 -32.5 -41.0 -32.25 M-27.55 -16.05 L-26.8 -14.85 -26.9 -14.65 -26.65 -14.55 -25.55 -13.0 -24.95 -12.15 -25.5 -11.95 -26.35 -12.0 -26.8 -11.4 Q-27.3 -11.6 -27.6 -11.9 -32.15 -16.55 -41.2 -19.2 L-41.65 -18.35 -47.3 -10.65 -46.3 -10.3 -45.3 -9.9 -45.65 -9.35 -47.6 -9.7 -48.6 -10.1 -49.6 -10.5 -50.55 -10.65 -51.9 -10.3 -52.9 -10.7 -53.9 -11.1 -54.9 -11.5 -54.6 -12.4 Q-44.45 -15.25 -42.15 -25.0 L-42.65 -25.25 -42.2 -25.9 -41.35 -25.85 -39.35 -25.1 -38.35 -24.7 Q-38.5 -24.2 -38.8 -24.15 -40.25 -23.8 -38.25 -21.35 L-37.25 -20.95 -36.25 -20.55 -35.25 -20.2 -35.55 -19.2 -31.55 -17.6 -30.55 -17.25 -29.55 -16.85 -27.55 -16.05 M-83.55 7.9 Q-89.0 0.05 -91.7 -7.95 -94.3 -15.7 -94.4 -23.6 L-94.9 -23.95 Q-94.75 -24.45 -94.9 -24.75 L-95.6 -25.3 -95.25 -26.3 Q-93.3 -25.55 -92.15 -26.3 -91.8 -26.55 -91.65 -27.05 -90.3 -28.5 -89.75 -29.6 L-89.4 -30.55 -75.75 -35.4 Q-75.45 -35.5 -75.3 -35.95 L-74.4 -35.8 Q-68.3 -36.75 -64.6 -34.2 -62.05 -32.45 -60.6 -29.05 L-61.55 -29.2 Q-65.75 -28.7 -69.55 -29.3 L-69.6 -29.35 -70.5 -29.45 -79.6 -27.8 Q-78.95 -29.95 -80.1 -28.0 L-79.7 -27.8 -85.0 -26.6 -85.35 -25.65 Q-87.25 -19.75 -87.15 -12.35 -87.1 -7.45 -86.15 -1.9 -78.2 3.05 -75.1 -2.85 L-74.55 -2.8 -74.9 -1.8 -75.15 -0.85 -75.85 -0.9 Q-76.5 -0.3 -76.8 0.7 L-75.8 1.1 -76.1 2.1 -76.4 3.05 Q-77.4 6.85 -79.4 8.65 -80.05 9.2 -80.8 9.6 -81.9 10.15 -83.2 10.25 L-82.9 9.25 Q-82.75 8.75 -82.9 8.45 -83.1 8.1 -83.55 7.9 M-57.25 -25.5 L-56.9 -26.55 -55.9 -26.15 -56.2 -25.15 -57.25 -25.5 M-55.6 -27.1 L-54.6 -26.65 -54.9 -25.75 -55.9 -26.15 -55.6 -27.1 M-53.6 -26.3 L-54.6 -26.65 -54.3 -27.65 -53.95 -28.65 -52.95 -28.2 -53.3 -27.3 -53.6 -26.3 M-49.0 -26.65 L-50.0 -27.05 -51.0 -27.45 -50.65 -28.45 -49.7 -28.05 -48.65 -27.65 -47.65 -27.25 -47.95 -26.25 -49.0 -26.65 M-56.85 -23.2 L-57.15 -22.2 -57.45 -21.2 -57.8 -20.3 -58.35 -18.3 -59.35 -18.7 -59.1 -19.7 -58.75 -20.7 -57.85 -23.6 -57.5 -24.55 -56.55 -24.2 -56.85 -23.2 M-37.4 -27.6 L-36.4 -27.2 -35.4 -26.8 -35.7 -25.85 -34.75 -25.45 -33.75 -25.05 -34.05 -24.05 -35.0 -24.45 -36.05 -24.85 -35.7 -25.85 -36.7 -26.2 -37.75 -26.6 -37.4 -27.6 M-30.25 -15.15 Q-26.5 -15.35 -31.2 -15.25 L-30.25 -15.15" fill="#29639c" fill-rule="evenodd" stroke="none"/>
    <path d="M-21.25 23.55 L-21.45 23.65 -21.85 23.7 -22.2 24.0 -22.85 24.25 -23.2 24.3 -23.45 24.5 -24.1 24.75 -24.6 24.45 Q-25.8 23.6 -26.45 23.9 L-26.8 24.3 -26.95 24.7 -27.15 24.65 -27.95 24.3 -28.55 24.1 -29.2 23.9 -29.9 23.85 Q-31.45 23.95 -32.0 25.95 L-32.2 26.8 -32.2 26.95 -32.25 27.05 -32.4 27.0 -32.5 26.95 Q-32.85 26.75 -33.2 26.65 L-34.2 26.35 -35.05 26.25 -37.75 26.0 Q-43.75 25.75 -45.05 28.55 L-46.1 28.15 -51.05 26.15 -51.25 25.95 -54.0 22.9 -56.15 20.1 Q-56.35 19.7 -56.85 19.5 -61.05 16.35 -65.25 17.1 L-66.2 16.95 Q-68.65 14.65 -71.6 12.75 -72.1 12.45 -72.55 12.25 -72.75 11.05 -73.3 10.05 L-73.95 9.5 Q-72.7 8.85 -71.6 7.3 L-71.0 7.35 -71.3 8.35 -70.3 8.7 -70.65 9.7 -70.7 10.65 -70.25 12.1 Q-68.65 12.8 -68.5 10.5 L-68.35 9.5 -68.0 8.55 Q-62.9 8.85 -65.45 4.85 -65.65 4.55 -65.5 4.05 L-65.2 3.1 Q-65.05 2.6 -65.2 2.25 -65.35 1.9 -65.85 1.75 -66.2 1.05 -66.7 0.5 -67.05 0.15 -67.55 -0.05 L-67.2 -1.0 Q-66.75 -0.85 -66.4 -1.0 -66.1 -1.15 -65.95 -1.6 L-65.1 -1.5 Q-64.8 -1.7 -64.6 -2.15 -64.45 -2.65 -64.55 -3.15 -65.0 -5.2 -67.6 -3.35 L-68.15 -3.45 Q-69.4 -1.35 -70.15 1.1 L-70.5 2.1 -71.15 2.05 Q-71.8 2.65 -72.1 3.65 L-72.3 4.7 Q-72.55 7.5 -74.35 7.15 -73.75 5.2 -73.6 3.2 L-74.1 2.9 -73.5 0.9 -73.15 -0.05 -72.9 -1.0 Q-72.4 -0.85 -72.05 -1.0 -71.75 -1.15 -71.55 -1.6 L-71.25 -2.6 -70.45 -2.55 Q-70.15 -2.7 -69.95 -3.15 L-69.65 -4.15 -69.35 -5.1 -68.5 -5.05 Q-68.2 -5.2 -68.05 -5.65 -65.2 -7.0 -68.45 -7.5 L-68.7 -7.05 -69.75 -7.45 -70.55 -7.5 -71.0 -6.85 -71.45 -6.05 Q-72.0 -5.6 -72.65 -5.3 L-73.5 -5.4 -73.95 -4.75 -74.25 -3.75 -74.55 -2.8 -75.1 -2.85 Q-78.2 3.05 -86.15 -1.9 -87.1 -7.45 -87.15 -12.35 -87.25 -19.75 -85.35 -25.65 L-85.0 -26.6 -79.7 -27.8 -79.6 -27.75 -79.6 -27.8 -70.5 -29.45 -69.6 -29.35 -69.55 -29.3 Q-65.75 -28.7 -61.55 -29.2 L-60.6 -29.05 -60.9 -28.1 -61.25 -27.1 -61.85 -25.15 -62.15 -24.2 -62.45 -23.2 -62.75 -22.25 -63.05 -21.25 -63.35 -20.3 -63.7 -19.35 -62.7 -18.95 -62.7 -18.25 Q-61.4 -17.0 -61.6 -15.2 L-60.6 -14.85 -59.6 -14.45 -59.95 -13.45 -60.2 -12.45 -59.25 -12.05 -58.2 -11.7 -58.3 -10.75 -57.85 -9.35 Q-55.85 -8.55 -53.8 -8.25 -53.7 -8.25 -53.55 -8.75 L-52.55 -8.35 -51.5 -7.95 Q-51.0 -7.75 -50.85 -7.4 -50.7 -7.1 -50.85 -6.6 -46.0 -6.5 -43.7 -4.0 -43.35 -3.65 -42.8 -3.45 L-42.9 -2.95 Q-41.45 -1.95 -42.75 -0.1 -41.0 0.25 -40.75 -2.6 L-40.55 -3.6 -39.85 -3.1 Q-39.7 -2.75 -39.85 -2.25 L-40.1 -1.3 -39.35 -1.25 -38.85 -1.85 -38.5 -2.85 Q-37.9 -3.15 -37.4 -3.55 L-36.9 -4.35 Q-36.4 -4.2 -36.25 -3.85 L-35.6 -2.15 -35.7 -1.95 -38.8 4.05 -39.95 6.7 -40.5 8.6 -40.55 8.6 Q-41.2 9.2 -41.5 10.2 L-41.8 11.05 Q-41.35 11.55 -41.15 12.5 L-40.95 11.9 -40.95 13.65 -41.0 13.65 -40.95 14.05 -41.0 14.3 -40.5 14.5 -39.1 15.1 -38.05 15.85 -37.45 15.5 Q-35.9 15.6 -34.65 14.7 L-30.35 9.25 Q-28.95 7.25 -29.15 4.8 L-28.25 4.2 -29.45 2.5 -29.9 1.75 -30.85 -0.2 -32.1 -1.95 -32.15 -2.0 -32.7 -3.45 -32.75 -3.85 -32.6 -4.9 -33.25 -5.15 Q-31.25 -9.0 -35.5 -7.9 L-35.95 -7.3 -36.8 -7.35 -37.25 -6.75 -38.3 -7.1 -39.3 -7.5 -43.3 -9.1 -44.3 -9.5 -45.3 -9.9 -46.3 -10.3 -47.3 -10.65 -41.65 -18.35 -41.2 -19.2 Q-32.15 -16.55 -27.6 -11.9 -27.3 -11.6 -26.8 -11.4 L-25.8 -10.95 Q-25.95 -10.5 -25.75 -10.2 -24.2 -8.25 -23.0 -6.15 L-22.8 -5.8 -22.0 -4.25 -20.45 -0.55 -20.25 -0.05 -19.25 0.35 -18.95 0.5 -18.9 0.7 -18.65 1.45 -18.75 1.55 -19.45 2.1 -20.4 2.45 -20.7 2.1 -21.1 1.65 Q-22.7 -0.15 -24.4 -0.85 L-28.5 -1.0 -28.95 -0.2 Q-29.45 1.0 -28.6 1.9 L-26.1 4.5 -22.65 8.45 Q-20.8 10.8 -18.65 10.35 L-18.3 10.25 -18.35 11.65 -17.5 12.05 -17.1 12.15 -16.4 12.45 -16.35 12.45 -16.15 12.55 -16.3 13.2 -16.45 13.7 Q-16.8 14.85 -17.5 15.8 L-19.5 17.7 Q-19.6 18.95 -19.85 20.05 L-19.95 20.45 -20.15 21.15 -21.2 23.55 -21.25 23.55 M-54.85 30.95 L-58.3 30.95 Q-59.35 30.5 -59.7 31.45 L-59.75 31.5 -59.75 31.45 -59.8 31.4 -60.3 31.4 -61.7 31.3 -62.0 31.55 -62.65 31.85 -64.7 32.05 -66.4 31.6 -66.45 31.6 -66.55 31.4 Q-68.9 27.4 -68.5 31.35 L-69.15 31.15 -70.3 30.4 -70.5 30.3 -72.0 29.4 -72.55 29.1 Q-72.85 28.1 -74.5 27.7 L-74.45 27.35 Q-68.95 27.5 -74.05 24.25 L-74.0 23.75 -73.15 23.75 -72.65 23.15 Q-72.15 23.35 -72.0 23.7 -71.8 24.0 -71.95 24.5 L-70.5 25.2 Q-69.8 25.2 -69.6 24.35 L-69.35 23.35 -68.5 23.4 -68.1 22.95 -68.05 22.8 -67.6 22.95 -67.5 23.0 -67.0 23.2 -67.35 24.15 Q-65.85 24.75 -64.35 24.85 L-64.05 24.35 -63.5 24.55 -63.05 24.75 -62.0 25.15 -61.0 25.55 -59.95 25.95 -55.05 27.95 -54.0 28.3 -54.1 28.6 -54.3 29.15 -54.35 29.3 -54.65 30.3 -54.85 30.95 M-47.3 -24.9 L-46.95 -25.9 -45.95 -25.5 Q-44.95 -25.1 -44.05 -25.15 -43.85 -25.2 -43.7 -25.65 L-42.65 -25.25 -42.15 -25.0 Q-44.45 -15.25 -54.6 -12.4 L-54.4 -13.5 Q-53.85 -17.65 -55.6 -12.85 L-56.6 -13.25 -57.65 -13.65 Q-57.45 -14.15 -57.6 -14.45 L-58.3 -15.0 -56.8 -16.65 -56.35 -17.5 -55.4 -17.1 -54.35 -16.75 -53.55 -16.7 Q-53.25 -16.85 -53.05 -17.35 -52.9 -17.85 -52.55 -17.95 L-51.75 -17.9 -50.95 -17.85 Q-50.65 -18.0 -50.45 -18.45 -50.3 -18.95 -50.45 -19.3 L-51.15 -19.85 -52.15 -20.25 -53.0 -21.45 Q-53.35 -21.8 -53.85 -21.95 -53.05 -22.8 -52.05 -23.25 L-51.2 -23.15 -51.5 -22.2 Q-49.55 -20.75 -49.15 -22.35 L-48.9 -23.35 -48.05 -23.3 Q-47.75 -23.45 -47.6 -23.9 L-47.3 -24.9 M-63.1 -7.05 L-63.6 -7.25 Q-57.2 -0.95 -51.95 3.9 L-51.4 4.1 Q-47.75 -8.05 -63.1 -7.05 M-63.45 -0.6 Q-61.8 -5.85 -63.95 -0.8 L-63.45 -0.6 M-37.8 -1.5 L-37.3 -1.25 Q-36.65 -3.5 -37.8 -1.5 M-14.75 13.9 L-15.0 15.2 -15.5 15.15 Q-16.65 17.1 -17.4 19.35 L-17.5 19.65 -17.9 19.55 -18.15 19.65 -18.5 20.05 -18.55 19.85 -18.6 19.7 -18.0 18.05 -17.85 17.25 -14.75 13.9 M-19.2 21.55 L-19.4 22.2 -19.65 22.15 -19.2 21.55 M-47.85 8.8 L-47.3 9.0 Q-45.7 -1.6 -47.85 8.8 M-47.7 1.25 L-47.1 1.3 Q-45.0 -1.15 -47.7 1.25 M-44.35 1.45 L-43.85 1.6 Q-42.7 -2.15 -44.35 1.45 M-44.3 4.75 L-43.8 4.95 Q-43.15 2.75 -44.3 4.75 M-56.95 7.45 Q-56.3 5.2 -57.5 7.2 L-56.95 7.45 M-58.65 5.7 Q-58.0 3.45 -59.15 5.45 L-58.65 5.7 M-57.85 4.9 L-57.35 5.1 Q-56.7 2.9 -57.85 4.9 M-63.55 1.55 L-63.05 1.75 Q-61.85 -2.05 -63.55 1.55 M-63.0 5.05 Q-62.3 2.85 -63.5 4.85 L-63.0 5.05 M-69.4 5.8 L-69.1 4.85 -68.8 3.85 -67.8 4.25 -67.25 4.7 Q-67.1 5.6 -67.4 6.6 L-68.4 6.2 -69.4 5.8 M-64.95 13.05 L-64.35 13.1 Q-56.55 3.0 -64.95 13.05 M-64.6 29.4 Q-60.9 29.15 -65.55 29.25 L-64.6 29.4 M-62.15 27.3 Q-61.45 25.1 -62.65 27.1 L-62.15 27.3" fill="#4a7bb5" fill-rule="evenodd" stroke="none"/>
    <path d="M-24.95 -12.15 L-22.05 -8.2 -21.6 -7.6 -21.4 -7.35 -20.85 -6.6 -20.75 -6.45 -20.7 -6.15 -20.85 -6.0 -21.2 -5.95 -21.7 -6.1 -21.95 -6.9 -22.25 -7.65 Q-23.1 -9.7 -24.65 -11.4 L-25.5 -11.95 -24.95 -12.15 M-79.7 -27.8 L-80.1 -28.0 Q-78.95 -29.95 -79.6 -27.8 L-79.6 -27.75 -79.7 -27.8 M-56.2 -25.15 L-55.2 -24.75 -55.5 -23.75 -56.55 -24.2 -56.2 -25.15 M-50.3 30.85 L-50.0 29.9 -49.5 30.1 -50.3 30.85" fill="#008cef" fill-rule="evenodd" stroke="none"/>
    <path d="M-32.1 -1.95 L-30.85 -0.2 -29.9 1.75 -29.75 2.2 -29.5 2.85 Q-29.25 3.85 -29.15 4.8 -28.95 7.25 -30.35 9.25 L-34.65 14.7 Q-35.9 15.6 -37.45 15.5 L-39.1 15.1 -40.5 14.5 -40.9 14.25 -40.95 13.65 -40.95 11.9 -40.85 10.45 -40.5 8.6 -39.95 6.7 -38.8 4.05 -35.7 -1.95 -35.6 -2.15 Q-34.75 -3.5 -33.85 -3.35 L-33.25 -3.1 -33.1 -2.95 -32.1 -1.95 M-34.55 -1.25 L-34.5 -2.1 -34.8 -1.35 -35.55 0.5 -37.1 4.15 -37.4 4.75 -38.4 6.9 -38.7 7.5 -38.9 7.95 -39.2 8.95 -39.4 9.8 Q-39.65 11.4 -39.0 12.6 -36.7 11.8 -35.75 8.3 -35.15 6.15 -34.8 2.8 L-34.8 2.4 -34.65 0.85 -34.55 -1.25" fill="#102a41" fill-rule="evenodd" stroke="none"/>
    <path d="M-34.55 -1.25 L-34.65 0.85 -34.8 2.4 -34.8 2.8 Q-35.15 6.15 -35.75 8.3 -36.7 11.8 -39.0 12.6 -39.65 11.4 -39.4 9.8 L-39.2 8.95 -38.9 7.95 -38.7 7.5 -38.4 6.9 -37.4 4.75 -37.1 4.15 -35.55 0.5 -34.8 -1.35 -34.5 -2.1 -34.55 -1.25" fill="#98adcf" fill-rule="evenodd" stroke="none"/>
    <path d="M-15.0 9.45 L-14.6 10.0 -14.5 10.7 -14.7 11.0 -14.5 11.1 -14.45 11.35 -14.4 12.2 -14.4 12.3 -14.4 12.8 -14.35 13.5 -14.45 13.55 -14.75 13.9 -17.85 17.25 -18.0 18.05 -18.6 19.7 -18.55 19.85 -18.5 20.05 -18.4 20.4 -19.0 21.25 -19.2 21.55 -19.65 22.15 -20.1 22.75 -20.35 22.95 -20.6 23.15 -20.7 23.2 -20.95 23.4 -21.25 23.6 -21.25 23.65 -21.2 23.55 -20.15 21.15 -19.95 20.45 -19.85 20.05 Q-19.6 18.95 -19.5 17.7 L-17.5 15.8 Q-16.8 14.85 -16.45 13.7 L-16.3 13.2 -16.15 12.55 Q-15.75 10.45 -16.2 8.7 L-15.8 8.55 -15.65 8.5 -15.0 9.45" fill="#356ba8" fill-rule="evenodd" stroke="none"/>
  </g>
</svg>
