<?xml version="1.0" encoding="UTF-8" standalone="no"?>
<svg xmlns:xlink="http://www.w3.org/1999/xlink" height="74.65px" width="98.15px" xmlns="http://www.w3.org/2000/svg">
  <g transform="matrix(1.0, 0.0, 0.0, 1.0, 122.2, 34.3)">
    <path d="M-121.85 -9.6 L-121.7 -6.4 -121.2 -6.4 -120.9 -7.9 Q-119.45 -15.05 -119.1 -17.5 L-119.0 -18.3 -119.3 -17.6 Q-120.75 -16.1 -121.35 -13.7 -121.85 -11.9 -121.85 -9.6 M-122.15 -4.25 L-122.05 -9.8 -121.95 -12.7 -121.8 -15.45 Q-120.75 -17.0 -119.85 -18.65 L-118.4 -21.75 -115.75 -24.0 -114.6 -24.95 Q-113.25 -26.2 -112.7 -27.5 L-112.7 -27.6 -112.65 -27.6 -112.2 -28.15 -111.95 -28.4 -111.45 -28.65 -109.5 -29.85 -107.6 -31.15 -106.75 -31.65 -106.65 -31.75 -104.6 -32.85 -103.6 -32.85 -103.4 -33.4 -101.0 -34.3 -93.4 -33.4 -94.7 -32.95 -93.7 -33.1 -92.95 -33.3 -69.95 -30.65 Q-67.75 -29.8 -65.9 -28.6 L-65.4 -28.5 -65.5 -29.25 Q-63.15 -28.3 -61.35 -28.75 L-60.0 -27.9 -60.6 -28.0 -61.35 -27.85 -61.7 -27.05 -60.6 -26.95 -60.65 -25.9 -59.6 -25.8 -59.65 -24.75 -58.6 -24.65 -57.5 -24.55 -57.6 -23.55 -56.5 -23.4 -55.45 -23.25 -54.35 -23.15 -54.4 -22.1 -53.35 -22.0 -52.25 -21.9 -51.2 -21.75 -51.25 -20.7 -50.2 -20.6 Q-48.0 -19.75 -48.5 -21.2 L-47.05 -20.25 -46.6 -20.0 -46.55 -19.8 -48.1 -19.35 -47.1 -19.4 Q-46.75 -19.55 -46.5 -19.65 L-45.85 -18.7 -44.1 -16.85 Q-44.85 -16.8 -45.05 -15.9 L-46.1 -16.05 Q-47.85 -19.0 -50.45 -17.75 L-51.4 -17.65 -52.5 -17.8 Q-52.7 -20.1 -54.55 -21.0 L-55.55 -21.25 -56.6 -21.35 -58.7 -21.6 -58.9 -22.25 Q-64.0 -25.05 -63.0 -22.1 L-64.05 -22.25 -65.15 -22.35 -66.2 -22.5 -67.15 -22.4 -68.35 -21.75 -69.45 -21.85 -70.5 -21.95 -71.35 -21.8 -71.65 -21.1 -72.3 -20.95 Q-72.8 -20.2 -72.85 -19.15 L-73.6 -19.0 -73.95 -18.3 -74.0 -17.25 -74.5 -17.2 Q-75.15 -14.85 -75.3 -12.25 L-75.35 -11.25 -76.2 -11.2 -76.3 -11.15 -77.5 -10.45 -77.45 -11.5 -77.5 -12.15 -77.8 -13.4 -78.45 -13.65 -78.4 -14.7 -77.6 -14.85 Q-77.3 -15.05 -77.25 -15.55 L-77.15 -17.6 -77.1 -18.65 Q-78.5 -23.25 -81.5 -24.85 L-82.35 -25.25 Q-86.25 -26.7 -92.45 -23.95 L-93.8 -23.3 -94.1 -22.65 -95.15 -22.7 Q-99.5 -22.1 -102.35 -19.75 -105.0 -17.55 -106.35 -13.85 L-107.25 -13.7 Q-109.75 -12.55 -107.6 -9.9 L-108.65 -10.1 Q-111.45 -11.0 -110.9 -8.25 L-110.95 -7.2 Q-110.4 -7.15 -110.15 -6.85 -109.9 -6.6 -109.95 -6.05 -109.95 -5.55 -110.2 -5.15 L-111.1 -4.15 -111.0 -6.15 -110.95 -7.2 -111.55 -7.2 Q-112.15 -5.3 -112.25 -3.25 L-112.3 -2.25 -112.3 -1.25 -112.15 -0.25 Q-109.25 6.45 -104.8 12.0 -101.7 15.85 -97.8 19.15 L-95.15 21.25 -91.95 21.65 -90.9 21.75 -90.95 22.8 -89.9 22.9 -89.9 23.95 -89.8 24.5 Q-86.8 25.6 -84.95 27.35 L-84.7 27.65 -80.4 27.2 -79.35 27.25 -79.3 27.75 Q-74.35 28.9 -70.65 30.2 -67.7 31.25 -65.6 32.4 -66.15 32.35 -66.7 32.8 L-67.8 32.65 -68.85 32.55 -70.95 32.3 -72.05 32.2 -73.15 32.05 -73.95 32.2 Q-74.25 32.4 -74.25 32.95 L-75.2 33.0 Q-75.85 33.25 -76.4 33.7 L-77.25 33.9 -77.4 34.1 -77.55 34.6 -78.4 34.55 -78.6 34.5 -79.6 34.6 Q-80.25 34.8 -80.8 35.25 L-81.15 35.2 -81.7 35.05 -81.85 35.0 -87.5 33.4 -88.0 33.25 -88.3 33.2 -90.1 32.65 -91.55 32.2 Q-95.2 30.3 -98.1 27.15 L-101.95 26.75 -102.1 26.7 -102.15 26.7 -102.5 26.65 Q-102.35 26.5 -102.65 26.6 L-103.15 26.25 -103.85 25.75 -104.55 25.3 -104.65 25.2 -105.05 25.0 -105.45 24.75 -105.9 24.55 -105.95 24.5 -107.1 24.0 -107.1 23.95 -107.15 23.9 -107.9 22.35 -109.4 19.55 -110.05 18.35 Q-112.5 14.15 -115.75 9.65 L-119.05 5.2 -118.9 6.1 -117.2 9.35 -115.3 12.7 -118.2 9.3 -119.55 7.5 -121.05 5.6 -121.1 5.05 Q-121.15 3.35 -121.5 1.6 L-122.2 -0.25 -122.2 -1.9 -122.05 -0.3 -121.45 -0.2 -122.15 -4.25 M-56.45 -25.95 L-54.95 -25.25 -55.35 -25.3 -56.4 -25.45 -56.45 -25.95 M-54.7 -25.1 L-52.55 -24.15 -50.9 -23.7 -50.05 -22.65 -50.1 -22.65 -51.2 -22.8 Q-51.15 -23.3 -51.4 -23.6 L-52.2 -23.9 -53.25 -24.05 -54.3 -24.15 Q-54.3 -24.7 -54.55 -24.95 L-54.7 -25.1 M-49.05 -21.7 L-48.75 -21.45 -49.05 -21.5 -49.05 -21.7 M-25.15 19.2 L-25.25 19.3 -25.25 19.2 -25.15 19.2 M-35.35 27.25 L-37.35 29.25 -37.6 29.3 -37.55 29.05 -36.65 28.05 -36.45 27.6 -36.4 27.15 -35.75 27.2 -35.35 27.25 M-39.2 29.8 L-39.75 30.0 -39.75 29.8 -39.2 29.8 M-74.8 39.4 L-76.3 39.0 -77.0 38.55 -75.4 38.85 Q-75.0 39.05 -74.8 39.4 M-80.85 37.0 L-81.5 36.7 -82.15 36.45 -82.6 36.3 -83.7 36.0 -84.5 35.85 -83.85 35.9 -83.6 35.95 -82.3 36.1 -81.9 36.15 -80.85 36.25 -80.85 37.0 M-100.9 -30.5 Q-100.0 -30.8 -100.5 -30.65 L-104.1 -29.85 -106.65 -29.25 -105.6 -29.25 -103.45 -29.85 -100.9 -30.5 M-98.2 -31.6 Q-93.05 -34.5 -99.05 -31.4 -98.5 -31.35 -98.2 -31.6 M-111.1 -25.65 L-111.45 -25.7 -112.15 -25.65 Q-113.7 -25.3 -114.85 -24.5 -116.9 -23.1 -117.65 -20.2 L-117.85 -19.55 -117.85 -19.3 -117.1 -19.45 Q-116.8 -19.7 -116.8 -20.2 -116.25 -20.15 -115.95 -20.4 -115.7 -20.6 -115.65 -21.1 L-115.2 -21.8 Q-113.9 -23.55 -111.35 -24.1 -111.2 -24.15 -111.15 -24.65 L-110.6 -24.7 -110.35 -24.8 -110.05 -25.55 -109.25 -25.75 Q-108.95 -25.95 -108.95 -26.45 L-108.15 -26.6 Q-107.85 -26.8 -107.8 -27.3 L-107.8 -28.35 -107.8 -28.9 Q-107.9 -29.8 -108.65 -28.8 L-110.05 -26.55 -110.8 -26.4 -111.1 -25.65 M-85.15 14.25 L-85.1 13.2 -85.05 12.2 -83.95 12.35 -84.25 13.25 -85.15 14.25 M-64.15 -20.2 L-65.25 -20.3 -65.2 -21.35 -64.1 -21.2 -64.15 -20.2 M-72.4 -5.8 L-71.3 -5.65 -71.35 -4.6 -71.4 -3.65 -72.5 -3.7 -72.4 -4.8 -72.4 -5.8 M-69.25 -4.4 L-68.15 -4.3 -68.2 -3.25 -69.25 -3.4 -70.35 -3.5 -70.25 -4.5 -69.25 -4.4 M-67.1 -4.15 L-66.0 -4.0 -64.95 -3.9 Q-65.0 -3.4 -65.2 -3.3 L-65.95 -3.1 -67.15 -3.1 -67.1 -4.0 -67.1 -4.15 M-62.75 -4.65 L-61.7 -4.55 -60.65 -4.4 -60.7 -3.35 -60.7 -2.35 -61.8 -2.5 -62.55 -3.7 -62.75 -4.65 M-31.95 24.65 L-31.95 24.55 -31.9 24.6 -31.95 24.65 M-30.9 23.95 L-30.85 23.65 -30.5 23.7 -30.65 23.8 -30.9 23.95 M-80.35 4.55 L-79.3 4.7 Q-79.35 5.2 -79.65 5.45 L-80.45 5.6 -80.35 4.55 M-56.0 33.05 L-54.95 33.15 -53.85 33.25 -50.45 33.35 -49.65 33.3 -49.55 33.0 -49.55 32.75 -49.15 32.8 -48.45 32.9 -48.2 32.9 -49.3 33.45 Q-51.8 34.75 -53.95 36.4 L-55.75 37.95 -56.1 38.25 -56.2 38.35 -56.45 38.2 -56.8 38.05 -56.75 37.75 Q-56.0 37.45 -55.35 36.95 L-55.05 36.3 -55.05 36.25 -55.05 36.2 -54.3 35.7 -54.0 35.6 -53.85 35.55 -52.9 35.4 Q-52.35 34.95 -52.3 34.45 L-52.85 34.4 -53.0 34.4 -53.9 34.3 -55.0 34.2 -56.0 34.05 -57.15 33.9 -56.8 33.2 Q-56.55 32.95 -56.0 33.05 M-82.8 10.45 L-82.85 11.45 -83.95 11.3 -83.9 10.3 -83.8 9.25 -82.8 9.4 -82.8 10.45 M-81.3 22.9 L-82.35 22.75 -83.4 22.65 Q-83.35 21.1 -82.75 19.8 L-82.2 19.75 -82.25 20.75 -82.3 21.75 -81.2 21.9 -81.3 22.9 M-83.2 18.6 L-84.3 18.45 Q-84.25 17.4 -83.75 16.65 L-83.1 16.5 -83.15 17.55 -83.2 18.6 M-80.45 5.6 L-80.5 6.6 -81.55 6.45 -82.35 6.65 -82.65 7.35 -81.6 7.5 -81.65 8.5 -82.7 8.4 -83.8 8.25 -83.75 7.25 -83.7 6.2 -82.75 5.2 -82.5 4.3 -81.45 4.45 -81.5 5.5 -80.45 5.6 M-64.55 33.05 L-65.65 32.9 -65.6 32.4 -64.55 33.05 M-84.9 9.15 L-84.85 8.1 -83.8 8.25 -83.8 9.25 -84.9 9.15 M-111.35 0.95 Q-110.7 -1.3 -110.8 1.0 L-111.35 0.95 M-120.1 5.1 L-119.6 5.1 Q-121.1 -3.55 -120.1 5.1 M-84.65 25.55 Q-84.0 23.3 -84.05 25.6 L-84.65 25.55 M-100.95 19.55 Q-100.85 17.25 -101.5 19.5 L-100.95 19.55" fill="#000000" fill-rule="evenodd" stroke="none"/>
    <path d="M-121.85 -9.6 Q-121.85 -11.9 -121.35 -13.7 -120.75 -16.1 -119.3 -17.6 L-119.0 -18.3 -119.1 -17.5 Q-119.45 -15.05 -120.9 -7.9 L-121.2 -6.4 -121.7 -6.4 -121.85 -9.6 M-122.2 -1.9 L-122.15 -4.25 -121.45 -0.2 -122.05 -0.3 -122.2 -1.9 M-93.4 -33.4 L-92.95 -33.3 -93.7 -33.1 -94.7 -32.95 -93.4 -33.4 M-69.95 -30.65 L-67.75 -30.4 -67.1 -30.1 Q-66.3 -29.6 -65.5 -29.25 L-65.4 -28.5 -65.9 -28.6 Q-67.75 -29.8 -69.95 -30.65 M-54.95 -25.25 L-54.7 -25.1 -54.55 -24.95 Q-54.3 -24.7 -54.3 -24.15 L-55.35 -24.3 -55.35 -25.3 -54.95 -25.25 M-50.05 -22.65 L-49.05 -21.7 -49.05 -21.5 -50.15 -21.6 -50.2 -20.6 -51.25 -20.7 -51.2 -21.75 -50.15 -21.6 -50.1 -22.65 -50.05 -22.65 M-46.55 -19.8 L-46.55 -19.75 -46.5 -19.65 Q-46.75 -19.55 -47.1 -19.4 L-48.1 -19.35 -46.55 -19.8 M-44.1 -16.85 L-42.9 -15.65 -45.05 -15.9 Q-44.85 -16.8 -44.1 -16.85 M-41.9 -14.75 L-41.65 -14.45 -41.9 -14.5 -41.9 -14.75 M-24.1 16.45 L-24.1 16.8 -24.1 16.9 -24.1 16.45 M-25.25 19.3 L-25.8 19.8 -26.35 20.3 -25.9 19.3 -25.35 19.2 -25.25 19.2 -25.25 19.1 -25.2 18.15 -24.65 18.25 -24.55 18.25 -24.65 18.45 -24.9 18.95 -25.15 19.2 -25.25 19.2 -25.25 19.3 M-32.85 25.3 L-33.1 25.45 -34.2 26.3 Q-34.15 25.8 -33.9 25.6 L-33.1 25.45 -32.85 24.75 -32.8 24.7 -31.95 24.55 -31.9 23.7 -31.9 23.55 -30.85 23.65 -30.9 23.95 -31.3 24.2 -31.9 24.6 -31.95 24.55 -31.95 24.65 -32.85 25.3 M-34.25 26.35 Q-34.8 26.75 -35.35 27.25 L-35.25 26.95 -35.0 26.55 -34.25 26.35 M-37.6 29.3 L-37.95 29.4 -39.2 29.8 -39.75 29.8 -39.75 30.0 -40.5 30.25 -40.75 30.3 -40.7 30.2 -40.6 30.0 -40.55 29.9 -40.2 29.8 -39.75 29.8 -38.55 29.1 -37.7 29.0 -37.55 29.05 -37.5 28.7 -37.5 28.25 -37.5 28.0 -37.45 27.0 -36.55 27.15 -36.4 27.15 -36.45 27.6 -36.65 28.05 -37.55 29.05 -37.6 29.3 M-85.45 35.7 L-85.6 35.65 -85.75 35.4 -85.8 35.35 -86.6 34.15 -87.65 33.85 -88.25 33.65 -90.2 32.85 Q-90.9 32.55 -91.55 32.2 L-90.1 32.65 -88.3 33.2 -88.0 33.25 -87.5 33.4 -81.85 35.0 -81.7 35.05 -81.15 35.2 -80.8 35.25 Q-80.25 34.8 -79.6 34.6 L-78.6 34.5 Q-78.65 35.0 -78.85 35.1 L-80.8 35.25 -80.85 36.25 -81.9 36.15 -82.3 36.1 -83.6 35.95 -83.85 35.9 -84.5 35.85 -85.45 35.7 M-102.6 26.65 L-102.65 26.6 Q-102.35 26.5 -102.5 26.65 L-102.6 26.65 M-110.7 18.6 L-111.95 16.9 -112.6 16.05 -113.25 15.2 -114.8 13.3 -115.3 12.7 -117.2 9.35 -118.9 6.1 -119.05 5.2 -115.75 9.65 Q-112.5 14.15 -110.05 18.35 L-109.4 19.55 -107.9 22.35 -107.15 23.9 -107.95 22.65 -108.85 21.3 -109.7 20.05 -110.7 18.6 M-98.2 -31.6 Q-98.5 -31.35 -99.05 -31.4 -93.05 -34.5 -98.2 -31.6 M-100.9 -30.5 L-103.45 -29.85 -105.6 -29.25 -106.65 -29.25 -104.1 -29.85 -100.5 -30.65 Q-100.0 -30.8 -100.9 -30.5 M-110.9 -8.25 Q-111.45 -11.0 -108.65 -10.1 L-107.6 -9.9 Q-109.75 -12.55 -107.25 -13.7 L-106.35 -13.85 Q-105.0 -17.55 -102.35 -19.75 -99.5 -22.1 -95.15 -22.7 L-94.1 -22.65 -93.8 -23.3 -92.45 -23.95 Q-86.25 -26.7 -82.35 -25.25 L-81.5 -24.85 Q-78.5 -23.25 -77.1 -18.65 L-78.2 -18.75 -78.15 -19.75 Q-80.4 -22.7 -83.3 -23.7 L-83.35 -23.75 Q-87.0 -25.05 -91.7 -23.35 L-93.2 -22.75 -94.1 -22.65 Q-94.1 -22.2 -94.4 -22.0 L-98.3 -19.45 -106.35 -13.85 -106.4 -12.85 Q-106.65 -11.65 -107.6 -9.9 L-107.9 -9.05 Q-108.8 -8.05 -110.9 -8.25 M-77.25 -15.55 Q-77.3 -15.05 -77.6 -14.85 L-78.4 -14.7 -78.35 -15.7 -77.25 -15.55 M-78.45 -13.65 L-77.8 -13.4 -77.5 -12.15 -77.45 -11.5 -78.5 -11.6 -78.45 -12.65 -78.45 -12.95 -78.45 -13.65 M-77.5 -10.45 L-76.3 -11.15 -76.2 -11.2 -75.35 -11.25 -75.35 -10.5 -75.3 -10.2 Q-75.3 -8.6 -77.55 -9.45 L-77.5 -10.45 M-75.3 -12.25 Q-75.15 -14.85 -74.5 -17.2 L-74.0 -17.25 -74.0 -16.2 -74.05 -15.2 -74.2 -12.15 -75.3 -12.25 M-73.95 -18.3 L-73.6 -19.0 -72.85 -19.15 -72.85 -18.15 -71.8 -18.05 -71.8 -17.65 -72.3 -17.05 -72.9 -17.1 -72.85 -18.15 -73.95 -18.3 M-71.65 -21.1 L-71.35 -21.8 -70.5 -21.95 -70.55 -20.9 -71.65 -21.1 M-68.35 -21.75 L-67.15 -22.4 -66.2 -22.5 -66.25 -21.45 -67.35 -21.6 -68.35 -21.75 M-65.15 -22.35 L-64.05 -22.25 -64.1 -21.2 -63.05 -21.1 -63.0 -22.1 Q-64.0 -25.05 -58.9 -22.25 L-58.7 -21.6 -59.55 -21.45 -59.85 -20.7 -60.9 -20.85 -62.0 -20.95 -63.05 -21.1 -63.1 -20.1 -64.15 -20.2 -64.1 -21.2 -65.2 -21.35 -65.15 -22.35 M-55.55 -21.25 L-54.55 -21.0 Q-52.7 -20.1 -52.5 -17.8 L-53.55 -17.9 -54.6 -18.05 Q-57.1 -19.9 -55.85 -20.65 -55.6 -20.75 -55.55 -21.25 M-51.4 -17.65 L-50.45 -17.75 Q-47.85 -19.0 -46.1 -16.05 L-47.2 -16.15 -51.45 -16.65 -51.4 -17.65 M-116.8 -20.2 Q-116.8 -19.7 -117.1 -19.45 L-117.85 -19.3 -117.85 -19.55 -117.65 -20.2 Q-116.9 -23.1 -114.85 -24.5 -113.7 -25.3 -112.15 -25.65 L-111.45 -25.7 -111.1 -25.65 -111.15 -25.3 -111.15 -24.65 Q-111.2 -24.15 -111.35 -24.1 -113.9 -23.55 -115.2 -21.8 L-115.65 -21.1 -116.45 -20.9 -116.8 -20.2 M-111.1 -25.65 L-110.8 -26.4 -110.05 -26.55 -108.65 -28.8 Q-107.9 -29.8 -107.8 -28.9 L-107.8 -28.35 -107.8 -27.3 -108.65 -27.2 -108.95 -26.45 -110.05 -26.55 -110.05 -25.55 -111.1 -25.65 M-109.95 -6.05 L-109.35 -5.85 Q-107.25 1.75 -102.75 8.55 L-98.65 14.0 Q-95.25 18.0 -90.9 21.75 -90.35 21.8 -90.1 22.1 -89.85 22.4 -89.9 22.9 L-90.95 22.8 -90.9 21.75 -91.95 21.65 -95.15 21.25 -97.8 19.15 Q-101.7 15.85 -104.8 12.0 -109.25 6.45 -112.15 -0.25 L-112.3 -1.25 Q-110.55 -0.95 -111.6 -2.95 -111.7 -3.2 -112.25 -3.25 -112.15 -5.3 -111.55 -7.2 L-110.95 -7.2 -111.0 -6.15 -111.1 -4.15 -110.2 -5.15 Q-109.95 -5.55 -109.95 -6.05 M-89.9 23.95 Q-88.5 23.45 -87.5 22.5 L-86.3 20.85 Q-85.2 18.7 -85.2 15.3 L-85.15 14.25 -84.25 13.25 -83.95 12.35 -83.95 11.3 -85.0 11.2 -85.05 12.2 -85.1 13.2 -86.15 13.1 Q-86.15 12.05 -85.65 11.3 L-85.0 11.2 -84.95 10.15 -84.9 9.15 -83.8 9.25 -83.8 8.25 -84.85 8.1 -84.8 7.1 -83.75 7.25 -83.8 8.25 -82.7 8.4 -81.65 8.5 -81.7 9.55 -82.8 9.4 -83.8 9.25 -83.9 10.3 -83.95 11.3 -82.85 11.45 -82.95 12.45 -83.0 14.5 -83.1 15.5 -83.1 16.5 -83.75 16.65 Q-84.25 17.4 -84.3 18.45 L-83.2 18.6 -82.15 18.7 -82.2 19.75 -82.75 19.8 Q-83.35 21.1 -83.4 22.65 L-82.35 22.75 -81.3 22.9 -80.2 23.0 -79.1 23.15 -79.25 24.15 -79.35 24.55 -79.4 25.65 -79.35 27.25 -78.25 27.35 Q-65.5 29.2 -57.45 32.45 L-56.0 33.05 Q-56.55 32.95 -56.8 33.2 L-57.15 33.9 -58.2 33.85 -64.55 33.05 -65.6 32.4 -65.65 32.9 -66.7 32.8 Q-66.15 32.35 -65.6 32.4 -67.7 31.25 -70.65 30.2 -74.35 28.9 -79.3 27.75 L-79.35 27.25 -80.4 27.2 -84.7 27.65 -84.95 27.35 Q-86.8 25.6 -89.8 24.5 L-89.9 23.95 M-60.6 -26.95 L-61.7 -27.05 -61.35 -27.85 -60.6 -28.0 -60.6 -26.95 M-65.25 -20.3 L-65.3 -19.3 -65.9 -19.35 -66.0 -19.75 -66.3 -19.9 -66.3 -20.45 -65.25 -20.3 M-70.7 -18.7 L-70.7 -18.9 -70.5 -18.9 -70.7 -18.7 M-63.85 -17.35 L-66.95 -9.45 -67.1 -9.1 Q-68.15 -7.35 -69.75 -7.6 -68.55 -9.8 -67.85 -12.15 L-67.75 -12.85 -64.3 -17.2 -63.85 -17.35 M-73.1 -12.85 L-73.0 -12.35 -72.35 -11.6 -73.2 -10.6 -73.15 -12.05 -73.1 -12.85 M-73.45 -5.9 L-73.15 -6.65 -72.35 -6.8 -72.4 -5.8 -72.4 -4.8 -73.5 -4.9 -73.45 -5.9 M-69.2 -5.4 L-68.85 -5.35 -68.1 -5.25 -68.15 -4.8 -68.15 -4.3 -69.25 -4.4 -69.2 -5.4 M-66.65 -5.6 L-67.25 -6.6 Q-65.8 -7.7 -63.8 -7.4 L-63.1 -7.25 -58.0 -12.0 -57.85 -12.2 -57.35 -12.35 Q-56.7 -10.6 -58.85 -9.35 L-59.15 -9.15 -59.5 -9.0 -59.6 -8.25 -59.85 -7.85 Q-61.3 -7.25 -62.1 -6.0 -65.3 -4.3 -66.65 -5.6 M-71.4 -3.65 L-71.35 -4.6 -70.25 -4.5 -70.35 -3.5 -71.4 -3.65 M-40.95 -11.35 L-40.7 -12.05 -39.85 -12.2 -39.9 -11.2 -40.95 -11.35 M-68.2 -3.25 L-68.15 -4.3 -67.3 -4.15 -67.1 -4.15 -67.1 -4.0 -67.15 -3.1 -68.2 -3.25 M-64.95 -3.9 L-63.75 -4.6 -62.75 -4.65 -62.55 -3.7 -61.8 -2.5 -62.75 -2.4 -63.95 -1.75 -64.25 -1.75 -65.05 -1.85 -66.15 -1.95 -67.2 -2.1 -67.15 -3.1 -65.95 -3.1 -65.2 -3.3 Q-65.0 -3.4 -64.95 -3.9 M-60.65 -4.4 L-58.7 -4.6 Q-58.5 -4.7 -58.45 -5.2 L-57.4 -5.05 -56.3 -4.95 -56.6 -4.05 Q-57.65 -2.15 -60.7 -2.35 L-60.7 -3.35 -60.65 -4.4 M-45.25 -14.1 L-46.2 -14.0 Q-41.7 -15.25 -45.25 -14.1 M-51.2 -22.8 L-52.25 -22.9 -52.2 -23.9 -51.4 -23.6 Q-51.15 -23.3 -51.2 -22.8 M-56.5 -23.4 L-57.6 -23.55 -57.5 -24.55 Q-57.0 -24.5 -56.75 -24.2 -56.5 -23.9 -56.5 -23.4 M-50.95 -4.3 L-49.9 -4.2 -49.1 -4.35 -48.8 -5.1 -47.9 -4.75 Q-45.8 -3.25 -48.95 -2.0 L-50.0 -2.15 -52.15 -2.4 -51.2 -3.4 -50.95 -4.3 M-50.1 -0.15 L-50.2 0.9 -51.25 0.8 Q-51.2 0.3 -51.45 0.0 L-52.25 -0.35 -53.3 -0.45 Q-53.35 0.05 -53.65 0.25 L-54.4 0.4 -54.1 -0.3 -53.3 -0.45 Q-52.9 -2.2 -50.3 -0.75 L-50.1 -0.15 M-80.3 3.55 L-80.35 4.55 -80.45 5.6 -81.5 5.5 -81.45 4.45 -81.4 3.45 -80.3 3.55 M-75.15 7.2 L-75.15 7.4 -75.5 7.15 -75.15 7.2 M-72.5 10.65 Q-69.85 13.85 -71.6 18.75 L-71.85 19.15 -72.1 17.25 -73.25 10.2 -73.1 10.0 -72.5 10.65 M-76.55 23.1 L-76.55 23.9 -76.55 24.15 -76.6 24.5 -77.1 23.7 -77.55 22.65 Q-78.4 20.3 -78.15 16.75 -77.8 12.1 -75.35 9.15 -76.6 15.7 -76.55 23.1 M-53.85 33.25 Q-53.45 31.55 -50.6 32.55 L-49.55 32.75 -49.55 33.0 -49.65 33.3 -50.45 33.35 -53.85 33.25 M-48.45 32.9 L-48.45 32.45 -48.4 31.85 -47.7 31.95 -46.3 32.1 -48.2 32.9 -48.45 32.9 M-80.5 6.6 L-80.55 7.65 -81.6 7.5 -81.55 6.45 -80.5 6.6 M-76.4 33.7 L-76.55 34.2 -76.75 34.45 -77.55 34.6 -77.4 34.1 -77.25 33.9 -76.4 33.7 M-74.25 32.95 Q-74.25 32.4 -73.95 32.2 L-73.15 32.05 -73.15 33.05 -74.25 32.95 M-57.15 34.95 L-57.15 33.9 -56.0 34.05 -55.0 34.2 -55.05 35.15 -55.05 35.25 -55.05 35.9 -55.05 36.2 -55.9 36.1 -56.15 36.05 -56.15 35.7 -56.35 35.3 Q-56.65 35.0 -57.15 34.95 M-82.25 20.75 L-81.15 20.85 -81.2 21.9 -82.3 21.75 -82.25 20.75 M-111.35 0.95 L-110.8 1.0 Q-110.7 -1.3 -111.35 0.95 M-120.1 5.1 Q-121.1 -3.55 -119.6 5.1 L-120.1 5.1 M-84.65 25.55 L-84.05 25.6 Q-84.0 23.3 -84.65 25.55 M-100.95 19.55 L-101.5 19.5 Q-100.85 17.25 -100.95 19.55" fill="#00294a" fill-rule="evenodd" stroke="none"/>
    <path d="M-58.5 -27.0 L-57.75 -26.65 -58.45 -26.7 -58.5 -27.0 M-57.4 -26.45 L-56.45 -25.95 -56.4 -25.45 -55.35 -25.3 -55.35 -24.3 -55.45 -23.25 -56.5 -23.4 Q-56.5 -23.9 -56.75 -24.2 -57.0 -24.5 -57.5 -24.55 L-58.6 -24.65 -59.65 -24.75 -59.6 -25.8 -60.65 -25.9 -60.6 -26.95 -59.85 -26.65 Q-59.6 -26.35 -59.6 -25.8 L-57.65 -25.95 -57.4 -26.45 M-48.75 -21.45 L-48.5 -21.2 Q-48.0 -19.75 -50.2 -20.6 L-50.15 -21.6 -49.05 -21.5 -48.75 -21.45 M-38.7 -11.8 L-37.1 -8.85 -35.25 -7.6 -33.55 -6.1 -30.55 -1.95 -30.5 -1.9 -30.7 -1.95 -31.3 -2.0 -31.75 -2.1 Q-33.4 -4.55 -35.4 -6.7 -37.35 -8.75 -39.65 -10.5 -39.95 -10.7 -39.9 -11.2 L-39.85 -12.2 -38.9 -11.9 -38.7 -11.8 M-29.95 -0.8 Q-29.3 0.8 -28.8 2.65 L-28.7 3.05 -28.6 3.65 Q-28.35 3.65 -28.35 3.75 L-27.35 6.05 -26.1 7.65 -25.95 8.85 -26.0 8.85 -26.9 8.75 -27.1 7.85 -27.25 7.35 -27.55 7.55 -28.15 7.75 Q-29.85 8.2 -31.9 6.7 L-33.25 5.75 Q-33.2 4.7 -33.65 4.15 -33.95 3.75 -34.4 3.75 L-34.1 5.2 -34.2 5.15 -39.3 1.9 -39.55 1.75 -39.85 1.45 Q-40.35 0.85 -40.2 0.0 L-39.95 -0.9 Q-38.25 -1.95 -36.4 -1.85 L-34.05 -1.3 -32.1 -0.25 -31.25 0.35 Q-30.55 -0.05 -30.05 -0.65 L-29.95 -0.8 M-24.1 16.25 L-24.05 16.25 -24.1 16.45 -24.1 16.9 -24.55 18.25 -24.65 18.25 -25.2 18.15 Q-25.15 17.15 -24.7 16.4 L-24.1 16.25 M-34.2 26.3 L-34.25 26.35 -35.0 26.55 -35.25 26.95 -35.35 27.25 -35.75 27.2 -36.4 27.15 -36.4 26.85 -36.4 25.55 Q-36.2 23.45 -34.3 23.3 L-33.6 23.3 -33.0 23.4 -32.8 23.4 -32.15 23.5 -31.9 23.55 Q-31.95 21.85 -29.7 22.7 L-29.3 22.8 -29.15 22.8 -29.45 23.05 -30.5 23.7 -30.85 23.65 -31.9 23.55 -31.9 23.7 -31.95 24.55 -32.8 24.7 -32.85 24.75 -33.1 25.45 -33.9 25.6 Q-34.15 25.8 -34.2 26.3 M-57.05 38.65 L-57.15 38.8 -59.05 38.85 -59.85 38.75 -59.95 38.85 -60.05 38.9 -61.3 39.7 -61.75 39.7 -61.95 39.7 -62.85 40.3 Q-66.65 40.45 -70.45 40.2 -71.55 37.0 -68.45 40.1 L-68.25 40.3 -68.2 40.3 -66.45 40.25 -65.55 40.2 -64.55 39.55 -63.95 39.1 -63.8 38.85 -63.75 38.75 -62.35 38.5 -61.9 38.4 -61.8 38.5 Q-61.75 37.35 -60.5 37.6 L-59.65 37.7 Q-58.85 37.2 -57.75 36.95 L-57.55 36.9 -57.25 37.0 -57.25 36.35 -57.2 35.95 -57.15 34.95 Q-56.65 35.0 -56.35 35.3 L-56.15 35.7 -56.15 36.05 -55.9 36.1 -55.05 36.2 -55.05 35.9 -55.05 35.25 -55.05 35.15 -55.0 34.2 -53.9 34.3 -53.0 34.4 -52.85 34.4 -52.85 34.75 -52.9 35.4 -53.85 35.55 -54.0 35.6 -54.3 35.7 -55.05 36.2 -55.05 36.25 -55.05 36.3 -55.35 36.95 Q-56.0 37.45 -56.75 37.75 L-56.8 38.05 -56.9 38.35 -57.05 38.65 M-78.0 38.25 L-78.95 38.15 -79.1 38.15 -80.85 37.0 -80.85 36.25 -80.8 35.25 -78.85 35.1 Q-78.65 35.0 -78.6 34.5 L-78.4 34.55 -77.55 34.6 -77.45 35.1 -75.85 35.7 Q-74.25 36.45 -74.55 37.05 -74.7 37.4 -75.55 37.75 L-77.55 38.35 -78.0 38.25 M-77.1 -18.65 L-77.15 -17.6 -77.25 -15.55 -78.35 -15.7 -78.25 -17.75 -78.2 -18.75 -77.1 -18.65 M-77.45 -11.5 L-77.5 -10.45 -77.55 -9.45 Q-75.3 -8.6 -75.3 -10.2 L-75.35 -10.5 -75.35 -11.25 -75.3 -12.25 -74.2 -12.15 -74.25 -11.15 -74.3 -10.1 -73.5 -10.0 -73.6 -9.35 -73.35 -8.25 -72.55 -7.4 Q-72.85 -8.5 -72.15 -9.7 L-71.75 -10.85 -72.35 -11.6 -73.0 -12.35 -73.1 -12.85 Q-73.4 -14.35 -73.0 -15.6 L-73.0 -16.1 -72.85 -16.05 -72.3 -17.05 -71.8 -17.65 -71.8 -18.05 -71.7 -19.0 -72.85 -19.15 Q-72.8 -20.2 -72.3 -20.95 L-71.65 -21.1 -71.7 -20.05 -71.7 -19.0 -70.7 -18.9 -70.6 -19.95 -70.55 -20.9 -70.5 -21.95 -69.45 -21.85 -68.35 -21.75 -68.45 -20.7 -67.35 -20.55 -66.3 -20.45 -66.3 -19.9 -66.65 -20.05 -67.6 -20.35 -68.7 -20.05 -69.1 -19.85 -69.7 -19.15 -69.15 -19.3 -69.1 -19.35 -68.35 -19.2 -68.15 -19.3 -68.1 -19.35 -65.8 -19.05 -64.25 -18.85 -61.15 -18.45 -60.5 -18.25 Q-59.9 -17.3 -59.65 -16.3 -59.2 -14.25 -60.6 -12.15 L-63.25 -7.75 -63.8 -7.4 Q-65.8 -7.7 -67.25 -6.6 L-66.65 -5.6 -67.95 -5.35 -68.1 -5.35 -68.1 -5.25 -68.85 -5.35 -69.2 -5.4 -69.15 -5.65 -69.75 -6.0 -70.0 -6.3 -71.35 -6.05 -71.3 -5.65 -72.4 -5.8 -72.35 -6.8 -73.15 -6.65 -73.45 -5.9 -74.5 -6.05 -75.55 -6.1 Q-75.8 -7.9 -77.4 -8.85 L-77.55 -9.45 -78.65 -9.6 -78.55 -10.6 -78.5 -11.6 -77.45 -11.5 M-66.2 -22.5 L-65.15 -22.35 -65.2 -21.35 -66.25 -21.45 -66.2 -22.5 M-64.05 -22.25 L-63.0 -22.1 -63.05 -21.1 -64.1 -21.2 -64.05 -22.25 M-116.8 -20.2 L-116.45 -20.9 -115.65 -21.1 Q-115.7 -20.6 -115.95 -20.4 -116.25 -20.15 -116.8 -20.2 M-111.15 -24.65 L-111.15 -25.3 -111.1 -25.65 -110.05 -25.55 -110.05 -26.55 -108.95 -26.45 -108.65 -27.2 -107.8 -27.3 Q-107.85 -26.8 -108.15 -26.6 L-108.95 -26.45 Q-108.95 -25.95 -109.25 -25.75 L-110.05 -25.55 -110.35 -24.8 -110.6 -24.7 -111.15 -24.65 M-112.25 -3.25 Q-111.7 -3.2 -111.6 -2.95 -110.55 -0.95 -112.3 -1.25 L-112.3 -2.25 -112.25 -3.25 M-64.15 -20.2 L-64.25 -19.2 -65.3 -19.3 -65.25 -20.3 -64.15 -20.2 M-60.9 -20.85 Q-60.95 -20.3 -61.15 -20.2 L-63.1 -20.1 -63.05 -21.1 -62.0 -20.95 -60.9 -20.85 M-70.7 -18.7 L-70.5 -18.9 -70.7 -18.9 -70.7 -18.7 M-63.85 -17.35 L-64.3 -17.2 -67.75 -12.85 -67.85 -12.15 Q-68.55 -9.8 -69.75 -7.6 -68.15 -7.35 -67.1 -9.1 L-66.95 -9.45 -63.85 -17.35 M-72.9 -17.1 L-73.0 -16.1 -74.0 -16.2 -74.0 -17.25 -72.9 -17.1 M-72.35 -6.8 L-72.3 -6.8 -72.35 -6.8 M-72.4 -4.8 L-72.5 -3.7 -73.5 -3.85 -73.5 -4.9 -72.4 -4.8 M-71.35 -4.6 L-71.3 -5.65 -70.25 -5.5 -69.2 -5.4 -69.25 -4.4 -70.25 -4.5 -71.35 -4.6 M-66.15 -1.95 Q-66.15 -1.45 -66.25 -1.45 -68.3 -1.25 -70.45 -1.45 L-71.25 -2.7 -71.4 -3.65 -70.35 -3.5 -69.25 -3.4 -68.2 -3.25 -67.15 -3.1 -67.2 -2.1 -66.15 -1.95 M-63.95 -1.75 L-62.75 -2.4 -61.8 -2.5 -60.7 -2.35 Q-57.65 -2.15 -56.6 -4.05 L-56.3 -4.95 -52.05 -4.45 -50.95 -4.3 -51.2 -3.4 -52.15 -2.4 -50.0 -2.15 -48.95 -2.0 Q-45.8 -3.25 -47.9 -4.75 L-48.8 -5.1 -49.1 -4.35 -49.9 -4.2 -49.6 -4.95 -48.8 -5.1 -48.5 -5.75 Q-44.7 -7.95 -45.65 -3.65 L-44.9 -3.6 -44.9 -3.0 -45.65 -2.85 -45.65 -2.8 -47.0 -1.75 -47.45 -0.75 -48.15 -1.65 -48.95 -2.0 -49.2 -1.1 Q-49.55 -0.55 -50.1 -0.15 L-50.3 -0.75 Q-52.9 -2.2 -53.3 -0.45 L-54.1 -0.3 -54.4 0.4 -53.65 0.25 Q-53.35 0.05 -53.3 -0.45 L-52.25 -0.35 -52.2 0.7 Q-51.7 3.5 -53.5 3.6 -52.75 1.45 -54.35 0.9 L-54.4 0.4 -55.4 0.1 Q-58.2 -1.75 -62.8 -0.65 L-62.95 -0.6 -62.95 -0.75 -63.2 -1.4 -63.95 -1.75 M-50.1 -22.65 L-50.15 -21.6 -51.2 -21.75 -51.2 -22.8 -50.1 -22.65 M-52.25 -22.9 L-53.3 -23.05 -53.35 -22.0 -54.4 -22.1 -54.35 -23.15 -53.3 -23.05 -53.25 -24.05 -52.2 -23.9 -52.25 -22.9 M-50.2 0.9 L-50.5 1.65 -51.25 1.8 -51.25 0.8 -50.2 0.9 M-28.6 22.4 L-28.35 22.15 -28.2 22.05 -28.55 22.4 -28.6 22.4 M-37.45 27.0 L-37.5 28.0 -37.5 28.25 -37.5 28.7 -37.55 29.05 -37.7 29.0 -38.55 29.1 -39.75 29.8 -40.2 29.8 -40.55 29.9 -40.6 30.0 -40.7 30.2 -40.75 30.3 -41.4 30.5 -41.6 30.6 -43.05 31.05 -44.6 31.5 -46.3 32.1 -47.7 31.95 -48.4 31.85 -48.45 32.45 -48.45 32.9 -49.15 32.8 -49.55 32.75 -50.6 32.55 Q-53.45 31.55 -53.85 33.25 L-54.95 33.15 -56.0 33.05 -57.45 32.45 Q-65.5 29.2 -78.25 27.35 L-79.35 27.25 -79.4 25.65 -79.35 24.55 -79.25 24.15 -79.1 23.15 -78.05 23.4 -77.1 23.7 -76.6 24.5 -76.55 24.15 -76.55 23.9 Q-74.15 24.8 -71.95 25.95 L-71.75 26.05 -70.85 26.0 -70.7 25.9 Q-67.95 24.7 -64.75 25.35 -63.5 25.6 -62.1 26.15 -61.6 26.2 -61.25 26.5 -58.35 29.0 -54.8 31.1 L-54.3 31.15 -49.5 31.7 -48.4 31.85 Q-48.05 30.0 -45.8 28.85 L-45.65 28.75 Q-43.4 27.6 -39.35 27.1 L-38.45 27.0 -38.3 26.95 -37.45 27.0 M-49.1 1.0 Q-48.45 -1.2 -48.55 1.1 L-49.1 1.0 M-54.15 5.55 L-54.65 5.5 Q-53.95 1.65 -54.15 5.55 M-57.9 6.15 Q-55.95 3.15 -57.3 6.1 L-57.9 6.15 M-53.75 8.7 Q-53.15 6.45 -53.25 8.75 L-53.75 8.7 M-56.15 13.5 Q-56.75 2.95 -55.6 13.6 L-56.15 13.5 M-61.35 9.85 L-75.45 2.05 -74.9 2.1 Q-60.35 -2.75 -60.8 9.9 L-61.35 9.85 M-79.3 4.7 L-80.35 4.55 -80.3 3.55 -80.2 3.05 Q-76.95 2.7 -79.3 4.7 M-77.55 22.65 L-77.75 22.5 Q-78.75 21.6 -78.65 20.25 L-78.6 18.4 Q-79.0 17.9 -80.2 17.75 L-80.75 17.5 Q-82.5 14.45 -80.7 11.1 L-79.6 9.25 -79.6 8.9 -79.6 8.5 -79.5 7.75 -79.3 7.4 -79.0 7.0 -78.95 7.0 -78.9 6.85 -78.75 6.8 -78.6 6.65 Q-78.3 6.45 -77.9 6.4 -76.2 4.6 -75.3 6.25 L-75.15 7.2 -75.5 7.15 -75.15 7.4 -74.15 8.3 Q-73.35 2.95 -73.65 8.45 L-74.1 8.35 -73.0 9.75 Q-72.5 7.2 -72.65 10.35 L-72.5 10.65 -73.1 10.0 -73.25 10.2 -72.1 17.25 -73.05 20.05 Q-73.6 21.35 -74.5 22.5 -75.55 23.3 -76.55 23.1 -76.6 15.7 -75.35 9.15 -77.8 12.1 -78.15 16.75 -78.4 20.3 -77.55 22.65 M-80.55 7.65 L-80.85 8.35 -81.65 8.5 -81.6 7.5 -82.65 7.35 -82.35 6.65 -81.55 6.45 -81.6 7.5 -80.55 7.65 M-81.7 9.55 Q-81.7 10.0 -82.0 10.25 L-82.8 10.45 -82.8 9.4 -81.7 9.55 M-83.0 14.5 Q-82.5 14.55 -82.45 14.7 -82.05 16.65 -82.15 18.7 L-81.55 18.55 Q-81.45 19.45 -80.75 20.0 L-80.5 20.15 -81.15 20.85 Q-80.65 20.9 -80.35 21.2 -79.6 22.05 -79.1 23.15 L-80.2 23.0 -81.3 22.9 -81.2 21.9 -81.15 20.85 -82.25 20.75 -82.2 19.75 -82.15 18.7 -83.2 18.6 -83.15 17.55 -83.1 16.5 -83.1 15.5 -83.0 14.5 M-71.6 22.0 Q-66.05 10.1 -71.0 21.9 L-71.6 22.0 M-65.85 14.45 Q-65.2 12.2 -65.3 14.5 L-65.85 14.45 M-67.95 13.2 Q-67.3 10.95 -67.4 13.25 L-67.95 13.2 M-66.25 12.4 L-66.8 12.3 Q-66.15 10.1 -66.25 12.4 M-70.95 32.3 L-68.85 32.55 -67.8 32.65 Q-67.8 33.15 -67.95 33.2 L-71.05 33.3 -70.95 32.3 M-72.05 32.2 Q-72.05 32.7 -72.35 32.9 L-73.15 33.05 -73.15 34.05 Q-73.15 35.7 -75.35 34.85 -75.35 34.3 -75.65 34.05 -75.9 33.75 -76.4 33.7 -75.85 33.25 -75.2 33.0 L-74.25 32.95 -73.15 33.05 -73.15 32.05 -72.05 32.2 M-65.2 35.05 L-65.75 34.95 Q-65.1 32.7 -65.2 35.05 M-68.0 37.75 L-66.0 37.2 Q-65.2 37.0 -65.7 37.2 L-67.05 37.7 -68.0 37.75 M-81.4 3.45 L-81.45 4.45 -82.5 4.3 -82.25 3.6 Q-81.95 3.35 -81.4 3.45 M-83.7 6.2 L-83.75 7.25 -84.8 7.1 Q-84.8 6.55 -84.5 6.35 L-83.7 6.2 M-85.05 12.2 L-85.0 11.2 -83.95 11.3 -83.95 12.35 -85.05 12.2" fill="#005a9c" fill-rule="evenodd" stroke="none"/>
    <path d="M-60.0 -27.9 L-58.5 -27.0 -58.45 -26.7 -57.75 -26.65 -57.4 -26.45 -57.65 -25.95 -59.6 -25.8 Q-59.6 -26.35 -59.85 -26.65 L-60.6 -26.95 -60.6 -28.0 -60.0 -27.9 M-42.9 -15.65 L-41.9 -14.75 -41.9 -14.5 -41.65 -14.45 -40.2 -13.25 -39.4 -12.55 -39.85 -12.2 -40.7 -12.05 -40.95 -11.35 -41.9 -11.65 Q-47.45 -14.95 -56.9 -15.25 L-57.1 -14.3 -58.0 -12.0 -63.1 -7.25 -63.8 -7.4 -63.25 -7.75 -60.6 -12.15 Q-59.2 -14.25 -59.65 -16.3 -59.25 -18.35 -59.3 -20.6 L-59.85 -20.7 -59.55 -21.45 -58.7 -21.6 -56.6 -21.35 -55.55 -21.25 Q-55.6 -20.75 -55.85 -20.65 -57.1 -19.9 -54.6 -18.05 L-53.55 -17.9 -52.5 -17.8 -51.4 -17.65 -51.45 -16.65 -47.2 -16.15 -46.1 -16.05 -45.05 -15.9 -42.9 -15.65 M-74.0 -17.25 L-73.95 -18.3 -72.85 -18.15 -72.9 -17.1 -74.0 -17.25 M-110.9 -8.25 Q-108.8 -8.05 -107.9 -9.05 L-107.6 -9.9 Q-106.65 -11.65 -106.4 -12.85 L-106.35 -13.85 -98.3 -19.45 -94.4 -22.0 Q-94.1 -22.2 -94.1 -22.65 L-93.2 -22.75 -91.7 -23.35 Q-87.0 -25.05 -83.35 -23.75 L-83.3 -23.7 Q-80.4 -22.7 -78.15 -19.75 L-79.1 -19.7 Q-82.0 -18.5 -84.9 -18.0 L-86.8 -17.7 -86.9 -17.75 -87.8 -17.65 -96.15 -13.7 Q-96.05 -15.95 -96.7 -13.75 L-96.25 -13.7 -101.1 -11.15 -101.15 -10.15 Q-101.45 -4.0 -99.5 3.1 -98.4 7.0 -96.6 11.2 L-95.8 13.0 -95.35 13.15 -93.3 13.65 Q-86.7 14.75 -85.45 9.2 L-84.9 9.15 -84.95 10.15 -85.0 11.2 -85.65 11.3 Q-86.15 12.05 -86.15 13.1 L-85.1 13.2 -85.15 14.25 -85.2 15.3 Q-85.2 18.7 -86.3 20.85 L-87.5 22.5 Q-88.5 23.45 -89.9 23.95 L-89.9 22.9 Q-89.85 22.4 -90.1 22.1 -90.35 21.8 -90.9 21.75 -95.25 18.0 -98.65 14.0 L-102.75 8.55 Q-107.25 1.75 -109.35 -5.85 L-109.95 -6.05 Q-109.9 -6.6 -110.15 -6.85 -110.4 -7.15 -110.95 -7.2 L-110.9 -8.25 M-55.35 -24.3 L-54.3 -24.15 -53.25 -24.05 -53.3 -23.05 -54.35 -23.15 -55.45 -23.25 -55.35 -24.3 M-65.2 -21.35 L-65.25 -20.3 -66.3 -20.45 -67.35 -20.55 -68.45 -20.7 -68.35 -21.75 -67.35 -21.6 -66.25 -21.45 -65.2 -21.35 M-70.55 -20.9 L-70.6 -19.95 -70.7 -18.9 -71.7 -19.0 -71.7 -20.05 -71.65 -21.1 -70.55 -20.9 M-72.85 -19.15 L-71.7 -19.0 -71.8 -18.05 -72.85 -18.15 -72.85 -19.15 M-73.0 -16.1 L-73.0 -15.6 Q-73.4 -14.35 -73.1 -12.85 L-73.15 -12.05 -73.2 -10.6 -73.35 -10.5 -73.5 -10.0 -74.3 -10.1 -74.25 -11.15 -74.2 -12.15 -74.05 -15.2 -74.0 -16.2 -73.0 -16.1 M-67.95 -5.35 L-66.65 -5.6 Q-65.3 -4.3 -62.1 -6.0 -61.3 -7.25 -59.85 -7.85 L-59.6 -8.25 -59.5 -9.0 -59.15 -9.15 -60.6 -5.4 -59.5 -5.35 -58.45 -5.2 Q-58.5 -4.7 -58.7 -4.6 L-60.65 -4.4 -61.7 -4.55 -62.75 -4.65 -63.75 -4.6 -64.95 -3.9 -66.0 -4.0 -67.1 -4.15 -67.3 -4.15 -68.15 -4.3 -68.15 -4.8 -68.1 -5.25 -67.95 -5.35 M-52.25 -22.9 L-51.2 -22.8 -51.2 -21.75 -52.25 -21.9 -53.35 -22.0 -53.3 -23.05 -52.25 -22.9 M-45.25 -14.1 Q-41.7 -15.25 -46.2 -14.0 L-45.25 -14.1" fill="#29639c" fill-rule="evenodd" stroke="none"/>
    <path d="M-30.5 -1.9 L-29.95 -0.8 -30.05 -0.65 Q-30.55 -0.05 -31.25 0.35 L-32.1 -0.25 -34.05 -1.3 -36.4 -1.85 Q-38.25 -1.95 -39.95 -0.9 L-40.2 0.0 Q-40.35 0.85 -39.85 1.45 L-39.55 1.75 -39.3 1.9 -34.2 5.15 -34.1 5.2 -33.65 7.7 -33.25 5.75 -31.9 6.7 Q-29.85 8.2 -28.15 7.75 L-27.55 7.55 -27.25 7.35 -27.1 7.85 -26.9 8.75 -26.0 8.85 -25.95 8.85 Q-25.6 11.65 -24.65 13.95 L-24.3 14.7 -24.1 15.15 -24.1 16.25 -24.7 16.4 Q-25.15 17.15 -25.2 18.15 L-25.25 19.1 -25.25 19.2 -25.35 19.2 -25.9 19.3 -26.35 20.3 -28.2 22.05 -28.35 22.15 -28.6 22.4 -29.15 22.8 -29.3 22.8 -29.7 22.7 Q-31.95 21.85 -31.9 23.55 L-32.15 23.5 -32.8 23.4 -33.0 23.4 -33.6 23.3 -34.3 23.3 Q-36.2 23.45 -36.4 25.55 L-36.4 26.85 -36.4 27.15 -36.55 27.15 -37.45 27.0 -38.3 26.95 -38.45 27.0 -39.35 27.1 Q-43.4 27.6 -45.65 28.75 L-45.8 28.85 Q-48.05 30.0 -48.4 31.85 L-49.5 31.7 -54.3 31.15 -54.8 31.1 Q-58.35 29.0 -61.25 26.5 -61.6 26.2 -62.1 26.15 -63.5 25.6 -64.75 25.35 -67.95 24.7 -70.7 25.9 L-70.85 26.0 -71.75 26.05 -71.95 25.95 Q-74.15 24.8 -76.55 23.9 L-76.55 23.1 Q-75.55 23.3 -74.5 22.5 -73.6 21.35 -73.05 20.05 L-72.1 17.25 -71.85 19.15 -71.6 18.75 Q-69.85 13.85 -72.5 10.65 L-72.65 10.35 Q-72.5 7.2 -73.0 9.75 L-74.1 8.35 -73.65 8.45 Q-73.35 2.95 -74.15 8.3 L-75.15 7.4 -75.15 7.2 -75.3 6.25 Q-76.2 4.6 -77.9 6.4 -78.3 6.45 -78.6 6.65 L-78.75 6.8 -78.9 6.85 -78.95 7.0 -79.0 7.0 -79.3 7.4 -79.5 7.75 -79.6 8.5 -79.6 8.9 -79.6 9.25 -80.7 11.1 Q-82.5 14.45 -80.75 17.5 L-80.2 17.75 Q-79.0 17.9 -78.6 18.4 L-78.65 20.25 Q-78.75 21.6 -77.75 22.5 L-77.55 22.65 -77.1 23.7 -78.05 23.4 -79.1 23.15 Q-79.6 22.05 -80.35 21.2 -80.65 20.9 -81.15 20.85 L-80.5 20.15 -80.75 20.0 Q-81.45 19.45 -81.55 18.55 L-82.15 18.7 Q-82.05 16.65 -82.45 14.7 -82.5 14.55 -83.0 14.5 L-82.95 12.45 -82.85 11.45 -82.8 10.45 -82.0 10.25 Q-81.7 10.0 -81.7 9.55 L-81.65 8.5 -80.85 8.35 -80.55 7.65 -80.5 6.6 -80.45 5.6 -79.65 5.45 Q-79.35 5.2 -79.3 4.7 -76.95 2.7 -80.2 3.05 L-80.3 3.55 -81.4 3.45 Q-81.95 3.35 -82.25 3.6 L-82.5 4.3 -82.75 5.2 -83.7 6.2 -84.5 6.35 Q-84.8 6.55 -84.8 7.1 L-84.85 8.1 -84.9 9.15 -85.45 9.2 Q-86.7 14.75 -93.3 13.65 L-95.35 13.15 -95.8 13.0 -96.6 11.2 Q-98.4 7.0 -99.5 3.1 -101.45 -4.0 -101.15 -10.15 L-101.1 -11.15 -96.25 -13.7 -96.15 -13.65 -96.15 -13.7 -87.8 -17.65 -86.9 -17.75 -86.8 -17.7 -84.9 -18.0 Q-82.0 -18.5 -79.1 -19.7 L-78.15 -19.75 -78.2 -18.75 -78.25 -17.75 -78.35 -15.7 -78.4 -14.7 -78.45 -13.65 -78.45 -12.95 -78.45 -12.65 -78.5 -11.6 -78.55 -10.6 -78.65 -9.6 -77.55 -9.45 -77.4 -8.85 Q-75.8 -7.9 -75.55 -6.1 L-74.5 -6.05 -73.45 -5.9 -73.5 -4.9 -73.5 -3.85 -72.5 -3.7 -71.4 -3.65 -71.25 -2.7 -70.45 -1.45 Q-68.3 -1.25 -66.25 -1.45 -66.15 -1.45 -66.15 -1.95 L-65.05 -1.85 -64.25 -1.75 -63.95 -1.75 -63.2 -1.4 -62.95 -0.75 -62.95 -0.6 -62.8 -0.65 Q-58.2 -1.75 -55.4 0.1 L-54.4 0.4 -54.35 0.9 Q-52.75 1.45 -53.5 3.6 -51.7 3.5 -52.2 0.7 L-52.25 -0.35 -51.45 0.0 Q-51.2 0.3 -51.25 0.8 L-51.25 1.8 -50.5 1.65 -50.2 0.9 -50.1 -0.15 Q-49.55 -0.55 -49.2 -1.1 L-48.95 -2.0 -48.15 -1.65 -47.45 -0.75 -47.0 -1.75 -45.65 -2.8 -45.65 -2.85 -44.9 -3.0 -44.9 -3.6 -45.65 -3.65 Q-44.7 -7.95 -48.5 -5.75 L-48.8 -5.1 -49.6 -4.95 -49.9 -4.2 -50.95 -4.3 -52.05 -4.45 -56.3 -4.95 -57.4 -5.05 -58.45 -5.2 -59.5 -5.35 -60.6 -5.4 -59.15 -9.15 -58.85 -9.35 Q-56.7 -10.6 -57.35 -12.35 L-57.85 -12.2 -58.0 -12.0 -57.1 -14.3 -56.9 -15.25 Q-47.45 -14.95 -41.9 -11.65 L-40.95 -11.35 -39.9 -11.2 Q-39.95 -10.7 -39.65 -10.5 -37.35 -8.75 -35.4 -6.7 -33.4 -4.55 -31.75 -2.1 L-31.3 -2.0 -30.7 -1.95 -30.5 -1.9 M-70.45 40.2 L-72.55 40.05 -74.8 39.4 Q-75.0 39.05 -75.4 38.85 L-77.0 38.55 -77.3 38.45 -77.55 38.35 -75.55 37.75 Q-74.7 37.4 -74.55 37.05 -74.25 36.45 -75.85 35.7 L-77.45 35.1 -77.55 34.6 -76.75 34.45 -76.55 34.2 -76.4 33.7 Q-75.9 33.75 -75.65 34.05 -75.35 34.3 -75.35 34.85 -73.15 35.7 -73.15 34.05 L-73.15 33.05 -72.35 32.9 Q-72.05 32.7 -72.05 32.2 L-70.95 32.3 -71.05 33.3 -67.95 33.2 Q-67.8 33.15 -67.8 32.65 L-66.7 32.8 -65.65 32.9 -64.55 33.05 -58.2 33.85 -57.15 33.9 -57.15 34.95 -57.2 35.95 -57.25 36.35 -57.25 37.0 -57.55 36.9 -57.75 36.95 Q-58.85 37.2 -59.65 37.7 L-60.5 37.6 Q-61.75 37.35 -61.8 38.5 L-61.9 38.4 -62.35 38.5 -63.75 38.75 -63.8 38.85 -63.95 39.1 -64.55 39.55 Q-65.6 39.75 -66.45 40.25 L-68.2 40.3 -68.25 40.3 -68.45 40.1 Q-71.55 37.0 -70.45 40.2 M-64.25 -19.2 L-64.15 -20.2 -63.1 -20.1 -61.15 -20.2 Q-60.95 -20.3 -60.9 -20.85 L-59.85 -20.7 -59.3 -20.6 Q-59.25 -18.35 -59.65 -16.3 -59.9 -17.3 -60.5 -18.25 L-61.15 -18.45 -64.25 -18.85 -64.25 -19.2 M-66.3 -19.9 L-66.0 -19.75 -65.9 -19.35 -65.8 -19.05 -68.1 -19.35 -68.15 -19.3 -68.35 -19.2 -69.1 -19.35 -69.15 -19.3 -69.7 -19.15 -69.1 -19.85 -68.7 -20.05 -67.6 -20.35 -66.65 -20.05 -66.3 -19.9 M-72.35 -11.6 L-71.75 -10.85 -72.15 -9.7 Q-72.85 -8.5 -72.55 -7.4 L-73.35 -8.25 -73.6 -9.35 -73.5 -10.0 -73.35 -10.5 -73.2 -10.6 -72.35 -11.6 M-72.35 -6.8 L-72.3 -6.8 -72.35 -6.8 M-71.3 -5.65 L-71.35 -6.05 -70.0 -6.3 -69.75 -6.0 -69.15 -5.65 -69.2 -5.4 -70.25 -5.5 -71.3 -5.65 M-68.1 -5.25 L-68.1 -5.35 -67.95 -5.35 -68.1 -5.25 M-46.25 2.5 L-48.7 9.15 Q-50.45 14.3 -49.3 19.25 -44.35 21.8 -42.95 22.1 -41.8 22.35 -42.4 21.05 L-43.95 17.6 Q-44.9 15.2 -44.1 13.65 -42.3 9.8 -41.85 5.0 -41.35 0.0 -42.9 -0.95 -44.3 -1.75 -45.95 1.7 L-46.25 2.5 M-56.15 13.5 L-55.6 13.6 Q-56.75 2.95 -56.15 13.5 M-53.75 8.7 L-53.25 8.75 Q-53.15 6.45 -53.75 8.7 M-57.9 6.15 L-57.3 6.1 Q-55.95 3.15 -57.9 6.15 M-54.15 5.55 Q-53.95 1.65 -54.65 5.5 L-54.15 5.55 M-49.1 1.0 L-48.55 1.1 Q-48.45 -1.2 -49.1 1.0 M-43.4 17.05 L-42.1 16.0 -42.8 16.05 -43.4 17.05 M-61.35 9.85 L-60.8 9.9 Q-60.35 -2.75 -74.9 2.1 L-75.45 2.05 -61.35 9.85 M-66.25 12.4 Q-66.15 10.1 -66.8 12.3 L-66.25 12.4 M-67.95 13.2 L-67.4 13.25 Q-67.3 10.95 -67.95 13.2 M-65.85 14.45 L-65.3 14.5 Q-65.2 12.2 -65.85 14.45 M-71.6 22.0 L-71.0 21.9 Q-66.05 10.1 -71.6 22.0 M-65.2 35.05 Q-65.1 32.7 -65.75 34.95 L-65.2 35.05 M-68.0 37.75 L-67.05 37.7 -65.7 37.2 Q-65.2 37.0 -66.0 37.2 L-68.0 37.75" fill="#4a7bb5" fill-rule="evenodd" stroke="none"/>
    <path d="M-39.4 -12.55 L-39.0 -12.2 -38.7 -11.8 -38.9 -11.9 -39.85 -12.2 -39.4 -12.55 M-96.25 -13.7 L-96.7 -13.75 Q-96.05 -15.95 -96.15 -13.7 L-96.15 -13.65 -96.25 -13.7 M-72.3 -17.05 L-72.85 -16.05 -73.0 -16.1 -72.9 -17.1 -72.3 -17.05 M-52.9 35.4 L-52.85 34.75 -52.85 34.4 -52.3 34.45 Q-52.35 34.95 -52.9 35.4" fill="#008cef" fill-rule="evenodd" stroke="none"/>
    <path d="M-33.25 5.75 L-33.65 7.7 -34.1 5.2 -34.4 3.75 Q-33.95 3.75 -33.65 4.15 -33.2 4.7 -33.25 5.75 M-46.25 2.5 Q-47.5 8.3 -48.6 11.85 -49.75 15.4 -48.4 17.3 -46.35 16.05 -45.9 12.55 -45.5 8.95 -46.25 2.5 L-45.95 1.7 Q-44.3 -1.75 -42.9 -0.95 -41.35 0.0 -41.85 5.0 -42.3 9.8 -44.1 13.65 -44.9 15.2 -43.95 17.6 L-42.4 21.05 Q-41.8 22.35 -42.95 22.1 -44.35 21.8 -49.3 19.25 -50.45 14.3 -48.7 9.15 L-46.25 2.5" fill="#102a41" fill-rule="evenodd" stroke="none"/>
    <path d="M-28.8 2.65 L-28.8 2.7 -28.7 3.05 -28.8 2.65 M-29.85 23.6 L-32.9 26.55 -32.85 25.3 -31.95 24.65 -31.9 24.6 -31.3 24.2 -30.9 23.95 -30.65 23.8 -30.5 23.7 -29.45 23.05 -29.85 23.6 M-40.5 30.25 L-39.5 30.4 -39.45 30.4 -38.6 30.55 -38.55 30.55 -36.6 30.7 -36.75 30.85 -38.1 32.1 -38.4 32.25 -46.05 36.2 -46.4 36.35 -48.6 36.9 -50.05 37.0 -52.2 36.7 -53.95 36.4 Q-51.8 34.75 -49.3 33.45 L-48.2 32.9 -46.3 32.1 -44.6 31.5 -43.05 31.05 -41.6 30.6 -41.4 30.5 -40.75 30.3 -40.5 30.25" fill="#1d4d82" fill-rule="evenodd" stroke="none"/>
    <path d="M-24.1 16.8 L-24.1 18.15 -25.15 19.2 -24.9 18.95 -24.65 18.45 -24.55 18.25 -24.1 16.9 -24.1 16.8 M-25.8 19.8 L-28.55 22.4 -29.85 23.6 -29.45 23.05 -29.15 22.8 -28.6 22.4 -28.55 22.4 -28.2 22.05 -26.35 20.3 -25.8 19.8 M-43.4 17.05 L-42.8 16.05 -42.1 16.0 -43.4 17.05" fill="#336da1" fill-rule="evenodd" stroke="none"/>
    <path d="M-46.25 2.5 Q-45.5 8.95 -45.9 12.55 -46.35 16.05 -48.4 17.3 -49.75 15.4 -48.6 11.85 -47.5 8.3 -46.25 2.5" fill="#98adcf" fill-rule="evenodd" stroke="none"/>
    <path d="M-38.1 32.1 L-43.8 36.15 -46.05 36.2 -38.4 32.25 -38.1 32.1 M-59.05 38.85 L-60.05 38.9 -59.95 38.85 -59.85 38.75 -59.05 38.85 M-81.5 36.7 L-81.55 36.7 -82.15 36.45 -81.5 36.7 M-85.6 35.65 L-85.8 35.4 -85.75 35.4 -85.6 35.65 M-53.95 36.4 L-52.2 36.7 -54.3 37.5 -55.75 37.95 -53.95 36.4 M-56.8 38.05 L-56.45 38.2 -56.9 38.35 -56.8 38.05" fill="#3b5d8b" fill-rule="evenodd" stroke="none"/>
    <path d="M-43.8 36.15 L-46.6 37.65 -52.45 39.05 -56.35 38.7 -57.05 38.65 -56.9 38.35 -56.45 38.2 -56.2 38.35 -56.1 38.25 -55.75 37.95 -54.3 37.5 -52.2 36.7 -50.05 37.0 -48.6 36.9 -46.4 36.35 -46.05 36.2 -43.8 36.15" fill="#031f32" fill-rule="evenodd" stroke="none"/>
    <path d="M-77.3 38.45 L-78.0 38.25 -77.55 38.35 -77.3 38.45 M-82.15 36.45 L-85.3 35.7 -85.45 35.7 -84.5 35.85 -83.7 36.0 -82.6 36.3 -82.15 36.45 M-102.15 26.7 L-102.6 26.65 -102.5 26.65 -102.15 26.7 M-103.85 25.75 L-105.05 25.0 -104.65 25.2 -104.55 25.3 -103.85 25.75 M-107.1 23.95 Q-108.95 23.15 -111.1 22.65 -111.1 22.4 -111.25 22.3 L-113.55 19.8 -112.05 19.1 -110.9 18.65 -110.7 18.6 -109.7 20.05 -108.85 21.3 -107.95 22.65 -107.15 23.9 -107.1 23.95" fill="#4e79b3" fill-rule="evenodd" stroke="none"/>
  </g>
</svg>
