<?xml version="1.0" encoding="UTF-8" standalone="no"?>
<svg xmlns:xlink="http://www.w3.org/1999/xlink" height="143.75px" width="235.2px" xmlns="http://www.w3.org/2000/svg">
  <g transform="matrix(1.0, 0.0, 0.0, 1.0, 169.2, 105.15)">
    <path d="M34.75 34.6 Q3.45 38.6 -40.8 38.6 L-99.35 36.4 -93.5 35.0 Q-87.85 32.25 -83.5 28.05 L-80.0 28.0 -79.8 23.9 -71.0 15.5 -71.0 12.5 -71.2 12.05 -69.5 11.95 Q-55.9 11.5 -40.8 11.5 3.45 11.5 34.75 15.45 66.0 19.45 66.0 25.05 66.0 30.65 34.75 34.6 M-145.0 24.5 Q-140.3 29.6 -133.5 31.5 L-133.25 31.9 Q-147.65 28.85 -147.65 25.05 L-147.45 24.25 -145.0 24.5" fill="#031f32" fill-rule="evenodd" stroke="none"/>
    <path d="M38.7 -9.75 L41.0 -9.35 42.5 -9.25 43.25 -9.2 45.25 -9.25 49.7 -9.9 51.7 -10.15 Q53.7 -10.35 55.65 -10.15 57.0 -10.0 58.2 -9.3 L60.75 -7.5 61.55 -6.8 62.15 -6.05 Q63.2 -3.95 63.7 -1.7 L64.75 4.95 65.2 9.45 65.95 18.9 65.95 22.4 Q65.9 23.95 65.3 25.25 64.4 27.2 62.8 28.65 61.5 29.85 59.95 30.75 L59.0 30.25 56.2 28.1 56.05 22.3 55.85 17.8 55.9 16.55 55.4 13.6 Q54.85 10.25 53.85 7.0 53.2 4.9 51.75 3.2 50.7 2.0 49.1 1.35 46.4 0.25 43.5 -0.3 L32.85 -1.9 23.15 -6.55 25.35 -8.35 Q27.15 -9.65 29.2 -10.35 32.75 -11.45 36.45 -11.8 L39.25 -11.8 38.7 -9.75" fill="#185586" fill-rule="evenodd" stroke="none"/>
    <path d="M37.95 -6.6 L40.75 -6.2 42.55 -6.2 47.25 -6.7 51.4 -6.8 Q52.4 -6.7 53.15 -6.1 L55.3 -3.6 Q57.85 0.55 60.0 4.9 L61.6 8.55 62.1 10.2 62.8 13.4 Q63.2 15.4 63.2 17.35 L62.95 18.95 62.6 20.7 62.45 22.0 61.65 23.8 61.0 25.65 59.55 26.9 56.95 28.65 55.8 29.1 53.0 28.95 49.75 28.95 49.0 29.0 46.4 26.7 Q45.3 25.45 44.8 23.75 44.2 21.5 43.95 19.15 L43.7 13.4 43.8 7.6 42.7 6.95 40.3 7.65 Q39.2 8.05 38.15 8.75 L35.55 10.6 Q33.8 11.95 31.85 12.9 30.55 13.6 29.05 13.55 27.75 13.5 26.65 12.7 L23.8 10.1 22.5 8.3 Q20.6 5.35 19.0 2.25 18.35 0.95 17.95 -0.55 19.3 -2.55 21.0 -4.15 23.0 -6.0 25.55 -6.95 L29.1 -7.4 33.15 -7.0 37.2 -6.65 37.95 -6.6" fill="#102a41" fill-rule="evenodd" stroke="none"/>
    <path d="M29.0 -0.3 L26.7 1.7 20.45 7.3 19.2 8.55 14.4 13.3 Q12.7 14.9 11.3 16.65 9.35 19.2 7.95 22.1 7.55 23.0 7.4 24.0 L6.95 24.55 6.7 24.6 6.7 24.85 6.7 25.35 6.5 26.3 5.75 27.95 5.55 28.45 4.55 28.55 4.05 28.6 3.8 28.6 3.8 28.85 1.8 28.9 0.8 29.15 -0.85 28.15 -2.05 27.6 Q-3.15 27.15 -4.15 26.5 L-5.55 25.45 -5.8 25.5 -21.35 17.35 -18.05 9.8 -1.15 21.55 -0.5 18.3 Q-0.15 16.95 0.6 15.8 2.15 13.5 4.15 11.5 5.6 10.0 7.4 8.95 10.15 7.35 13.0 6.0 16.65 4.35 20.0 2.35 L23.6 -0.2 25.85 -1.8 26.85 -1.55 28.45 -1.0 29.45 -0.6 29.0 -0.3" fill="#4e79b3" fill-rule="evenodd" stroke="none"/>
    <path d="M29.45 -0.6 L30.5 0.15 31.4 1.0 31.95 1.7 32.55 2.65 32.1 4.15 31.65 4.85 29.2 7.2 21.55 14.0 20.0 15.7 17.1 19.9 14.25 24.05 10.1 29.3 7.85 32.0 6.15 32.7 4.9 33.25 3.75 33.65 3.3 34.2 1.8 34.25 0.85 34.05 -1.05 33.05 Q-3.2 31.65 -5.45 30.35 L-10.9 27.4 -13.25 26.15 -22.75 21.0 -21.35 17.35 -5.8 25.5 -5.55 25.45 -4.15 26.55 -3.4 27.0 -2.1 27.65 0.8 29.15 1.8 28.9 3.8 28.85 3.8 28.6 4.05 28.6 4.55 28.55 5.55 28.45 5.75 27.95 6.5 26.3 6.7 25.35 6.7 24.6 6.95 24.55 7.4 24.0 7.85 22.05 8.7 20.25 Q10.55 17.45 12.85 15.05 L17.9 10.0 19.9 8.05 24.55 3.75 29.05 -0.25 29.45 -0.6" fill="#3b5d8b" fill-rule="evenodd" stroke="none"/>
    <path d="M-52.2 -105.0 L-51.25 -105.15 -50.2 -105.1 -47.05 -104.7 Q-45.7 -104.4 -44.65 -103.6 L-41.75 -100.9 -40.45 -99.35 -37.65 -95.85 -36.2 -94.45 -35.6 -93.95 -34.45 -93.0 -32.5 -91.75 -31.5 -93.6 -29.5 -91.75 Q-26.95 -88.95 -25.15 -85.7 -24.05 -83.85 -23.65 -81.65 L-23.3 -78.85 -33.55 -82.05 -42.45 -88.05 Q-44.9 -89.65 -47.7 -90.7 L-50.85 -91.15 Q-53.05 -90.9 -55.05 -89.75 L-60.6 -86.0 -63.0 -84.15 -63.8 -83.2 -67.0 -80.05 -71.05 -75.95 -74.6 -76.25 -75.65 -76.55 -76.3 -80.0 Q-76.5 -82.15 -75.8 -84.2 -75.35 -85.55 -74.4 -86.75 L-71.95 -89.3 -64.95 -95.7 -61.6 -98.7 -56.3 -102.85 Q-54.4 -104.15 -52.2 -105.0" fill="#185586" fill-rule="evenodd" stroke="none"/>
    <path d="M-37.7 -91.75 L-36.4 -90.6 -34.05 -89.0 -33.5 -88.45 -30.3 -86.0 -27.05 -83.5 Q-25.6 -82.3 -24.75 -80.75 -23.5 -78.3 -23.3 -75.55 -23.15 -73.25 -23.55 -70.9 -24.8 -70.05 -26.2 -69.55 -29.5 -68.35 -32.95 -67.5 L-35.1 -67.05 Q-37.05 -66.8 -38.95 -67.1 -40.3 -67.25 -41.3 -68.15 -42.4 -69.05 -42.9 -70.45 L-44.05 -74.65 -44.7 -77.85 Q-44.95 -79.0 -45.55 -80.1 L-46.85 -82.25 -48.05 -82.5 -51.95 -78.2 -56.05 -74.15 Q-57.8 -72.55 -59.8 -71.35 -61.25 -70.45 -62.95 -70.3 -64.65 -70.1 -66.4 -70.35 L-66.9 -70.9 -69.3 -73.15 -71.5 -74.9 -72.0 -76.05 -72.75 -79.05 -72.9 -81.0 -72.15 -82.7 -71.5 -84.65 -70.75 -85.7 Q-70.2 -86.4 -69.8 -87.25 L-68.95 -88.55 -65.95 -91.2 -63.25 -93.05 -61.7 -93.9 -58.1 -95.5 Q-53.55 -97.2 -48.85 -98.5 L-45.55 -98.9 Q-44.6 -98.85 -43.85 -98.25 L-40.85 -95.3 -37.7 -91.75" fill="#102a41" fill-rule="evenodd" stroke="none"/>
    <path d="M-29.4 -77.7 L-28.5 -77.2 -27.95 -74.45 -27.0 -70.2 Q-25.9 -66.4 -24.4 -62.75 -23.15 -59.8 -22.25 -56.7 -21.65 -54.75 -21.4 -52.7 L-21.35 -49.85 Q-21.4 -48.45 -21.8 -47.1 L-22.65 -44.45 -23.75 -35.0 -13.15 -17.35 -20.95 -14.55 -28.0 -30.65 -27.95 -30.9 -29.3 -33.2 -29.85 -34.5 -30.3 -35.75 -31.2 -37.5 -30.8 -38.45 -33.2 -39.7 -33.0 -39.9 -33.15 -40.05 -33.5 -40.45 -34.15 -41.2 -34.0 -41.7 -33.4 -43.4 -32.9 -44.25 -32.55 -44.65 -32.4 -44.8 -32.55 -45.0 -32.4 -45.65 Q-31.6 -47.5 -31.15 -49.4 -30.35 -52.65 -30.45 -56.0 L-30.7 -63.15 -30.85 -65.95 -31.3 -72.2 -31.55 -75.2 -31.85 -78.25 -31.95 -78.8 -30.95 -78.35 -29.4 -77.7" fill="#4e79b3" fill-rule="evenodd" stroke="none"/>
    <path d="M-33.2 -78.95 L-31.95 -78.8 -31.5 -75.2 -30.75 -66.85 -30.65 -65.1 -30.35 -58.35 Q-30.15 -56.0 -30.35 -53.75 -30.65 -50.55 -31.65 -47.5 L-32.4 -45.65 -32.55 -45.0 -32.4 -44.8 -32.9 -44.25 -33.4 -43.4 -34.0 -41.7 -34.15 -41.2 -33.5 -40.45 -33.15 -40.05 -33.0 -39.9 -33.2 -39.7 -30.8 -38.45 -31.2 -37.5 -29.9 -34.5 -29.35 -33.15 -28.95 -32.35 -27.95 -30.9 -28.0 -30.65 -20.95 -14.55 -24.7 -13.4 -29.2 -23.25 -30.25 -25.7 -32.75 -31.35 -33.65 -33.05 -33.9 -33.5 -33.55 -33.35 -35.25 -35.85 -33.9 -33.5 -34.5 -33.8 -35.35 -34.4 -36.45 -35.45 -36.4 -36.15 -37.0 -37.3 -37.55 -38.55 -38.3 -40.15 -38.1 -43.7 -37.55 -50.4 -36.8 -55.3 -36.1 -60.4 Q-35.95 -61.55 -36.1 -62.7 L-37.05 -72.85 -37.3 -76.25 -37.15 -77.05 -36.4 -78.5 -35.35 -78.75 -34.45 -78.9 -33.2 -78.95" fill="#3b5d8b" fill-rule="evenodd" stroke="none"/>
    <path d="M-41.2 -1.9 L-41.85 -9.1 -37.6 -12.0 -37.6 -10.2 -34.7 -15.15 -32.85 -18.3 -31.9 -20.05 -31.1 -21.7 -30.35 -22.95 -28.75 -25.15 -27.45 -26.8 -27.25 -26.95 -26.9 -27.4 -26.2 -28.15 -24.55 -28.25 -22.85 -28.4 -21.1 -27.4 -20.1 -26.85 -19.0 -26.35 -22.0 -19.5 Q-22.9 -17.55 -24.15 -15.85 L-26.7 -12.85 -32.15 -7.5 -41.2 -1.9" fill="#224870" fill-rule="evenodd" stroke="none"/>
    <path d="M-22.0 -19.55 Q-21.05 -21.0 -20.4 -22.7 L-19.0 -26.35 -17.45 -24.65 -14.95 -21.75 -12.95 -19.45 -11.05 -17.15 -9.65 -15.3 Q-8.7 -13.85 -8.1 -12.25 -7.8 -11.6 -7.8 -10.95 L-7.9 -10.3 -18.7 7.6 -18.45 10.35 -17.95 10.55 -18.35 11.85 -18.0 13.05 -17.95 13.3 -17.9 10.2 -7.95 13.65 -21.1 33.85 -36.65 25.8 -38.6 18.95 -39.55 14.05 -40.3 7.85 -41.2 -1.9 -32.15 -7.5 Q-29.35 -10.1 -26.9 -13.0 -24.2 -16.05 -22.0 -19.55" fill="#2e6399" fill-rule="evenodd" stroke="none"/>
    <path d="M-18.35 11.85 L-17.95 10.55 -24.9 3.65 -18.4 4.55 -16.0 5.05 -13.4 5.85 -4.65 9.0 -7.95 13.65 -12.4 21.6 -17.95 13.3 -17.95 13.05 -18.35 11.85" fill="#224870" fill-rule="evenodd" stroke="none"/>
    <path d="M-31.85 -14.3 L-31.55 -13.8 -29.0 -9.25 -27.95 -6.85 -27.35 -4.6 -27.05 -2.2 -27.0 0.35 -26.85 15.65 -26.95 18.9 -27.35 21.7 -28.15 24.25 -29.1 26.65 -29.65 4.35 -30.5 -5.1 -31.85 -14.3" fill="#14305e" fill-rule="evenodd" stroke="none"/>
    <path d="M-80.85 -10.3 L-79.8 -11.85 -79.4 -12.45 -78.7 -12.1 -74.85 -9.0 -72.7 -6.7 -69.7 -2.75 Q-69.45 0.0 -69.75 2.65 L-70.15 5.65 Q-70.65 8.5 -71.55 11.3 -72.65 8.5 -73.0 5.0 -74.5 3.55 -75.25 1.1 -75.25 1.0 -75.5 1.0 -76.85 -5.65 -81.35 -9.55 L-80.85 -10.3 M-76.7 20.9 L-79.2 24.05 -79.85 24.65 -79.8 23.85 -76.7 20.9" fill="#14305e" fill-rule="evenodd" stroke="none"/>
    <path d="M-69.7 -2.75 L-73.6 -8.1 -78.6 -12.25 -43.05 -13.0 -32.1 -14.25 -31.85 -14.3 -30.5 -5.1 -37.6 -5.7 -47.15 -5.6 -52.15 -5.35 -55.85 -5.0 -69.7 -2.75" fill="#1b4777" fill-rule="evenodd" stroke="none"/>
    <path d="M-69.7 -2.75 L-52.15 -5.35 -37.6 -5.7 -30.5 -5.1 -29.65 4.35 -29.1 26.65 -30.4 28.75 -63.55 31.3 -75.75 32.7 -79.05 29.3 -80.0 27.95 -79.85 24.65 -79.2 24.05 -76.9 21.1 -71.0 15.5 -71.0 12.5 -71.55 11.3 Q-70.65 8.5 -70.15 5.65 L-69.75 2.65 Q-69.45 0.0 -69.7 -2.75" fill="#336da1" fill-rule="evenodd" stroke="none"/>
    <path d="M-78.35 22.5 L-77.65 24.0 -79.85 25.15 -79.8 23.85 -78.35 22.5 M-133.5 31.5 L-132.7 32.7 -134.95 32.3 -134.55 31.2 -133.5 31.5" fill="#4e79b3" fill-rule="evenodd" stroke="none"/>
    <path d="M-80.0 28.0 L-79.85 25.15 -77.65 24.0 -75.9 27.6 Q-81.95 31.05 -87.9 33.45 L-90.7 33.5 Q-86.75 31.15 -83.5 28.05 L-80.0 28.0 M-132.5 33.0 Q-130.2 33.3 -128.45 34.05 L-135.6 34.15 -134.95 32.3 -132.7 32.75 -132.5 33.0" fill="#3b5d8b" fill-rule="evenodd" stroke="none"/>
    <path d="M-72.05 16.55 L-64.4 30.15 -76.85 35.7 -79.95 26.9 -79.8 23.85 -72.05 16.55" fill="#336da1" fill-rule="evenodd" stroke="none"/>
    <path d="M-152.35 22.1 L-151.9 25.75 Q-150.6 31.95 -145.75 33.0 L-143.35 33.35 Q-139.0 33.55 -137.1 30.2 L-135.15 31.0 -138.4 35.65 -139.6 36.6 Q-140.6 37.05 -142.15 37.2 -145.4 37.45 -148.55 35.8 -151.3 34.4 -154.05 32.95 -154.55 31.4 -155.5 32.55 -156.05 33.25 -159.15 34.05 L-163.25 35.2 Q-164.5 35.8 -165.25 35.65 -166.2 35.5 -167.15 34.35 L-167.55 33.4 -163.9 33.1 Q-160.05 32.0 -154.85 23.8 L-153.5 21.55 -152.35 22.1" fill="#3b5d8b" fill-rule="evenodd" stroke="none"/>
    <path d="M-149.5 24.0 L-145.0 24.5 Q-141.6 28.2 -137.1 30.2 -138.95 33.55 -143.35 33.35 L-145.75 33.0 Q-151.15 31.8 -152.4 25.4 L-152.8 21.9 -150.05 23.6 Q-149.75 23.75 -149.5 24.0 M-152.85 21.85 L-153.55 24.65 Q-155.9 31.0 -163.9 33.1 L-167.55 33.4 Q-167.8 31.95 -166.3 30.45 -168.6 29.95 -169.1 27.75 -169.65 25.6 -166.7 24.55 L-167.35 21.35 Q-167.6 20.4 -165.4 19.3 L-160.45 17.15 -158.15 19.65 Q-158.0 19.75 -158.0 20.0 -155.15 20.65 -152.85 21.85" fill="#4e79b3" fill-rule="evenodd" stroke="none"/>
    <path d="M-97.1 -54.25 Q-89.85 -48.3 -87.85 -45.15 -84.85 -40.4 -78.3 -16.25 L-83.1 -14.9 -88.55 -30.75 -89.0 -32.5 -89.75 -34.3 -92.7 -42.8 Q-97.1 -43.25 -102.0 -48.2 -106.9 -53.2 -112.8 -60.0 L-110.25 -64.55 -97.1 -54.25" fill="#4e79b3" fill-rule="evenodd" stroke="none"/>
    <path d="M-110.25 -64.55 L-109.25 -66.3 Q-91.2 -52.8 -87.5 -48.9 -82.85 -43.95 -78.05 -30.2 -75.9 -24.1 -74.45 -17.35 L-78.3 -16.25 Q-84.9 -40.4 -87.85 -45.15 -89.85 -48.3 -97.1 -54.25 L-110.25 -64.55" fill="#3b5d8b" fill-rule="evenodd" stroke="none"/>
    <path d="M-84.8 -16.95 L-69.05 -23.45 -62.35 -10.0 -75.55 0.8 Q-77.05 -6.3 -82.15 -10.25 L-82.0 -11.0 -82.1 -12.45 -82.45 -13.25 Q-82.8 -13.8 -83.45 -14.1 L-84.0 -14.5 -84.0 -14.9 -84.0 -15.05 Q-84.05 -16.1 -84.65 -16.9 L-84.8 -16.95" fill="#1b4777" fill-rule="evenodd" stroke="none"/>
    <path d="M-117.95 -68.95 Q-124.75 -67.4 -124.45 -55.5 -131.3 -67.6 -136.05 -68.95 L-139.75 -69.2 -139.35 -70.15 Q-138.4 -71.3 -137.45 -71.45 -136.7 -71.6 -135.45 -71.05 L-131.3 -69.9 Q-128.2 -69.1 -127.65 -68.45 -126.7 -67.3 -126.2 -68.85 L-120.7 -71.75 Q-117.55 -73.4 -114.3 -73.15 -111.45 -72.95 -110.6 -71.65 L-106.6 -66.05 -108.95 -65.55 Q-111.1 -70.5 -117.95 -68.95" fill="#3b5d8b" fill-rule="evenodd" stroke="none"/>
    <path d="M-109.7 -52.6 Q-111.85 -50.45 -112.0 -49.45 L-112.3 -45.6 Q-112.5 -44.1 -113.0 -43.65 L-113.25 -43.55 -113.75 -43.6 -114.45 -43.85 Q-114.15 -48.85 -113.4 -50.5 -112.8 -51.75 -109.7 -52.6" fill="#3b5d8b" fill-rule="evenodd" stroke="none"/>
    <path d="M-115.65 -54.8 L-125.4 -51.2 Q-127.35 -50.75 -131.0 -52.3 L-137.45 -55.1 Q-139.7 -56.2 -139.45 -57.1 L-138.8 -60.35 Q-141.75 -61.4 -141.25 -63.55 -140.7 -65.75 -138.45 -66.25 -139.95 -67.75 -139.75 -69.2 L-136.05 -68.95 Q-126.25 -66.4 -124.9 -57.45 -124.75 -67.4 -117.95 -68.95 -111.1 -70.5 -108.95 -65.55 L-106.6 -66.05 -105.55 -64.6 Q-102.75 -59.8 -104.65 -57.65 L-109.7 -52.6 Q-112.8 -51.75 -113.4 -50.5 -114.15 -48.85 -114.45 -43.85 -116.1 -44.65 -117.0 -46.1 -118.2 -47.9 -117.6 -49.9 -116.65 -53.2 -115.65 -54.8" fill="#4e79b3" fill-rule="evenodd" stroke="none"/>
    <path d="M-98.0 -36.7 L-97.6 -36.7 -99.55 -35.0 -99.65 -36.15 -98.0 -36.7 M-85.0 -17.0 L-87.1 -25.25 -84.35 -19.85 Q-83.65 -18.35 -83.4 -16.85 L-82.95 -14.4 -82.95 -14.3 -82.85 -13.7 -83.45 -14.1 -84.0 -14.5 -84.0 -14.9 -84.0 -15.05 Q-84.05 -16.1 -84.65 -16.9 L-85.0 -17.0" fill="#2e6399" fill-rule="evenodd" stroke="none"/>
    <path d="M-124.2 35.8 L-135.8 35.8 -135.05 32.8 -133.85 31.85 -133.4 31.65 -132.5 33.0 Q-128.35 33.55 -126.0 35.5 L-124.2 35.8" fill="#4e79b3" fill-rule="evenodd" stroke="none"/>
    <path d="M-75.7 -0.05 L-75.5 -2.35 -75.5 -2.25 -74.75 0.7 -74.25 3.4 -75.25 1.1 Q-75.25 1.0 -75.5 1.0 L-75.7 -0.05 M-76.75 21.0 L-78.9 24.25 -79.9 25.45 -79.8 23.9 -76.75 21.0 M-83.5 28.05 L-83.05 28.05 -85.0 29.45 -83.5 28.05" fill="#1d4d82" fill-rule="evenodd" stroke="none"/>
    <path d="M-129.5 33.65 L-130.5 34.4 -125.8 37.25 -133.65 35.0 -132.85 34.55 -130.6 33.35 -129.5 33.65" fill="#0f2950" fill-rule="evenodd" stroke="none"/>
    <path d="M-134.25 36.1 L-134.6 35.65 -134.45 35.4 -133.65 35.0 -132.85 37.15 -134.25 36.1" fill="#0f2950" fill-rule="evenodd" stroke="none"/>
    <path d="M-79.8 -10.35 L-78.0 -8.9 -79.1 -9.35 -79.8 -10.35" fill="#14305e" fill-rule="evenodd" stroke="none"/>
    <path d="M-81.2 -11.15 L-81.15 -11.4 -81.1 -11.5 -80.45 -10.9 -79.8 -10.35 -79.1 -9.35 -80.25 -9.65 -80.65 -10.5 -80.8 -10.8 -81.05 -11.0 -81.2 -11.15" fill="#2e6399" fill-rule="evenodd" stroke="none"/>
    <path d="M-151.5 -35.5 L-150.3 -36.05 -150.5 -35.5 -151.5 -35.5 M-72.15 16.65 L-72.05 16.55 -71.9 16.5 -72.25 17.2 -72.4 17.35 -72.15 16.65 M-114.45 38.3 L-114.75 38.6 -117.9 37.85 -117.2 37.9 -116.15 38.05 -115.55 38.15 -114.45 38.3 M-127.8 35.25 L-133.85 33.95 Q-137.1 32.65 -140.15 31.15 -146.4 28.15 -152.05 24.35 L-152.45 23.75 -154.0 21.35 Q-152.7 21.85 -151.55 22.55 L-151.95 23.6 -151.45 23.7 -151.45 22.65 -150.05 23.6 -149.55 23.95 -150.85 24.75 -150.9 24.75 -150.7 24.8 Q-150.35 24.8 -150.1 24.6 L-149.4 24.0 -145.0 24.5 Q-142.1 27.65 -138.45 29.55 L-147.85 26.4 -147.05 27.0 -142.75 29.6 Q-139.3 31.4 -135.2 32.75 L-131.4 33.2 Q-129.35 33.55 -127.75 34.35 L-127.75 34.65 -127.8 34.95 -127.8 35.25 M-124.85 35.95 L-124.65 35.95 -123.9 35.9 -123.2 36.35 -124.3 36.1 -124.85 35.95" fill="#000000" fill-rule="evenodd" stroke="none"/>
    <path d="M-75.1 -1.4 L-74.3 -0.35 -74.05 -0.1 -74.6 -0.15 -75.1 -1.4 M-73.55 0.65 L-73.25 1.05 -73.55 1.05 -73.55 0.65 M-72.55 1.95 L-72.35 2.15 -72.55 2.15 -72.55 1.95 M-70.85 13.6 L-71.0 14.15 -71.0 13.8 -70.95 13.6 -70.9 13.6 -70.85 13.6 M-73.25 17.65 L-72.15 16.65 -72.4 17.35 -73.35 18.1 -73.3 17.9 -73.25 17.65 M-72.05 16.55 L-71.8 16.3 -71.9 16.5 -72.05 16.55 M-131.4 33.2 L-135.2 32.75 Q-139.3 31.4 -142.75 29.6 L-147.05 27.0 -147.85 26.4 -138.45 29.55 Q-136.15 30.75 -133.5 31.5 L-132.5 33.0 -131.4 33.2 M-149.4 24.0 L-150.1 24.6 Q-150.35 24.8 -150.7 24.8 L-150.9 24.75 -150.85 24.75 -149.55 23.95 -149.5 24.0 -149.4 24.0 M-151.45 22.65 L-151.45 23.7 -151.95 23.6 -151.55 22.55 -151.45 22.65" fill="#00294a" fill-rule="evenodd" stroke="none"/>
    <path d="M-80.25 -9.65 L-77.3 -4.55 -77.4 -4.55 Q-79.7 -8.95 -84.0 -11.5 L-85.6 -14.45 Q-83.1 -12.8 -81.65 -10.2 L-81.5 -10.2 -80.85 -10.3 -80.8 -10.35 -80.65 -10.5 -80.25 -9.65 M-76.75 -3.7 L-75.6 -2.05 -75.5 -1.95 -75.1 -1.4 -74.6 -0.15 -74.05 -0.1 -73.55 0.65 -73.55 1.05 -73.25 1.05 -72.7 1.8 -72.65 1.85 -72.55 1.95 -72.55 2.15 -72.35 2.15 -72.35 2.2 Q-71.6 4.2 -71.0 6.45 L-71.7 6.35 -72.5 6.25 -72.85 6.2 -73.0 5.0 Q-74.5 3.55 -75.25 1.1 -75.25 1.0 -75.5 1.0 -76.0 -1.4 -76.85 -3.45 L-76.75 -3.6 -76.75 -3.7 M-70.5 9.95 Q-70.45 11.75 -70.85 13.55 L-70.85 13.6 -70.9 13.6 -70.95 13.6 Q-70.9 11.7 -70.5 9.95 M-73.75 18.45 L-73.85 18.5 -74.4 18.95 -74.15 18.6 -73.8 18.45 -73.75 18.45 M-74.9 19.35 L-75.45 19.75 -75.1 19.4 -74.9 19.35 M-117.35 37.55 Q-113.55 37.8 -109.75 37.65 L-110.5 38.1 -114.45 38.3 -115.55 38.15 -116.15 38.05 -117.2 37.9 -117.35 37.55 M-127.8 35.25 L-127.8 34.95 -127.75 34.65 -127.75 34.35 Q-126.8 34.85 -126.0 35.5 L-124.45 35.7 -125.3 35.85 -125.85 35.7 -127.8 35.25" fill="#005a9c" fill-rule="evenodd" stroke="none"/>
    <path d="M-77.3 -4.55 L-76.75 -3.7 -76.75 -3.6 -76.85 -3.45 -77.4 -4.55 -77.3 -4.55 M-71.0 6.45 L-71.0 6.55 Q-70.55 8.25 -70.5 9.95 -70.9 11.7 -70.95 13.6 L-71.0 13.6 -71.0 12.5 Q-72.35 9.75 -72.85 6.2 L-72.5 6.25 -71.7 6.35 -71.0 6.45 M-74.4 18.95 L-74.9 19.35 -75.1 19.4 -73.25 17.65 -73.3 17.9 -73.35 18.1 -73.5 18.25 -73.75 18.45 -73.8 18.45 -74.15 18.6 -74.4 18.95 M-117.9 37.85 L-119.2 37.45 -119.45 37.4 -117.35 37.55 -117.2 37.9 -117.9 37.85 M-123.9 35.9 L-124.65 35.95 -124.85 35.95 -125.3 35.85 -124.45 35.7 -123.9 35.9" fill="#4a7bb5" fill-rule="evenodd" stroke="none"/>
    <path d="M-85.6 -14.45 L-85.9 -14.85 -81.9 -11.7 -81.75 -11.6 -81.6 -11.5 -81.2 -11.15 -81.05 -11.0 -80.8 -10.8 -80.65 -10.5 -80.8 -10.35 -80.85 -10.3 -81.5 -10.2 -81.65 -10.2 Q-83.1 -12.8 -85.6 -14.45" fill="#008cef" fill-rule="evenodd" stroke="none"/>
    <path d="M-76.8 34.6 L-128.4 35.25 -154.6 33.35 -130.3 30.65 -136.75 24.45 -128.65 28.5 -125.45 13.9 -123.25 27.7 -113.55 8.25 -117.85 28.75 -93.55 7.15 -112.05 29.0 -78.5 17.6 -100.85 28.75 -76.55 24.7 -87.95 32.25 -54.95 27.15 -76.8 34.6" fill="#98adcf" fill-rule="evenodd" stroke="none"/>
    <path d="M-30.15 30.3 L-28.25 15.1 -27.05 29.45 -21.5 9.15 -23.95 30.55 -10.05 8.05 -20.6 30.8 -1.45 18.9 -14.25 30.55 -0.35 26.35 -6.85 34.2 12.0 28.85 -0.5 36.65 -29.95 37.3 -44.95 35.35 -31.05 32.55 -34.75 26.05 -30.15 30.3" fill="#98adcf" fill-rule="evenodd" stroke="none"/>
  </g>
</svg>
