<?xml version="1.0" encoding="UTF-8" standalone="no"?>
<svg xmlns:xlink="http://www.w3.org/1999/xlink" height="142.3px" width="243.55px" xmlns="http://www.w3.org/2000/svg">
  <g transform="matrix(1.0, 0.0, 0.0, 1.0, 178.35, 102.75)">
    <path d="M29.55 35.55 Q-6.1 39.55 -56.55 39.55 -107.0 39.55 -142.75 35.55 -178.35 31.6 -178.35 26.0 -178.35 20.4 -142.75 16.4 L-140.05 16.15 -138.8 17.0 Q-125.95 24.55 -112.0 20.9 L-106.25 21.25 Q-99.85 21.4 -97.8 16.15 L-97.65 15.85 -95.9 15.55 Q-91.2 15.0 -87.7 12.9 -72.9 12.45 -56.55 12.45 -6.1 12.45 29.55 16.4 65.2 20.4 65.2 26.0 65.2 31.6 29.55 35.55" fill="#031f32" fill-rule="evenodd" stroke="none"/>
    <path d="M18.8 -8.35 Q20.6 -9.65 22.65 -10.35 26.2 -11.45 29.9 -11.8 L32.7 -11.8 32.15 -9.75 34.45 -9.35 35.95 -9.25 36.7 -9.2 38.75 -9.25 43.15 -9.9 45.15 -10.15 Q47.15 -10.35 49.1 -10.15 50.45 -10.0 51.65 -9.3 L54.2 -7.5 55.0 -6.8 55.6 -6.05 Q56.65 -3.95 57.15 -1.65 57.95 1.6 58.25 4.95 L58.65 9.45 59.4 18.9 59.4 22.4 Q59.35 23.95 58.75 25.25 57.9 27.2 56.3 28.65 L53.45 30.75 52.5 30.25 49.65 28.1 49.55 22.3 49.35 17.8 49.35 16.55 48.85 13.6 Q48.3 10.25 47.35 7.05 46.7 4.9 45.2 3.2 44.15 2.0 42.6 1.35 39.85 0.25 36.95 -0.3 L26.35 -1.9 16.6 -6.55 18.8 -8.35" fill="#185586" fill-rule="evenodd" stroke="none"/>
    <path d="M36.0 -6.2 L40.7 -6.7 44.9 -6.8 Q45.85 -6.7 46.6 -6.1 L48.75 -3.6 Q51.3 0.55 53.45 4.9 L55.05 8.55 55.55 10.2 56.25 13.4 Q56.65 15.4 56.65 17.35 L56.45 18.95 56.0 20.7 55.8 21.25 55.9 22.0 55.1 23.8 54.45 25.65 53.05 26.9 50.45 28.6 49.25 29.1 46.5 28.95 43.2 28.95 42.5 29.0 39.9 26.7 Q38.8 25.45 38.3 23.75 37.65 21.5 37.45 19.15 L37.15 13.4 37.25 7.6 36.2 6.95 33.75 7.65 Q32.65 8.05 31.6 8.75 L29.0 10.6 25.3 12.9 Q24.0 13.6 22.5 13.55 21.2 13.5 20.1 12.7 18.55 11.6 17.25 10.1 L15.95 8.3 12.45 2.25 Q11.8 0.95 11.4 -0.55 12.75 -2.55 14.45 -4.15 16.45 -6.0 19.0 -6.95 L22.55 -7.4 26.6 -7.0 30.7 -6.65 31.4 -6.6 34.25 -6.2 36.0 -6.2" fill="#102a41" fill-rule="evenodd" stroke="none"/>
    <path d="M22.45 -0.25 L20.15 1.65 13.95 7.35 12.7 8.55 7.85 13.3 Q6.15 14.9 4.75 16.65 2.8 19.2 1.4 22.1 1.0 23.0 0.85 24.0 L0.4 24.55 0.15 24.6 0.15 24.85 0.15 25.35 -0.05 26.3 -0.8 27.95 -1.0 28.45 -2.0 28.55 -2.5 28.6 -2.75 28.6 -2.75 28.85 -4.75 28.9 -5.7 29.15 -7.35 28.15 -8.55 27.6 -10.65 26.5 -12.1 25.45 -12.35 25.5 -27.9 17.35 -24.55 9.8 -7.65 21.55 -7.05 18.3 Q-6.7 16.95 -5.95 15.8 -4.4 13.5 -2.4 11.5 -0.95 10.0 0.85 8.95 3.6 7.35 6.45 6.0 10.1 4.35 13.45 2.35 L17.05 -0.2 19.3 -1.8 20.35 -1.55 21.9 -1.0 22.95 -0.6 22.45 -0.25" fill="#4e79b3" fill-rule="evenodd" stroke="none"/>
    <path d="M22.95 -0.6 L23.95 0.1 24.85 1.0 25.4 1.7 26.0 2.65 25.55 4.1 25.1 4.85 22.65 7.2 15.05 14.0 13.5 15.7 10.55 19.9 7.7 24.0 3.6 29.3 1.35 32.0 -0.35 32.7 -1.6 33.25 -2.8 33.65 -3.25 34.2 -4.75 34.25 -5.7 34.05 -7.55 33.05 Q-9.75 31.65 -12.0 30.35 L-17.4 27.4 -19.8 26.15 -29.3 21.0 -27.9 17.35 -12.35 25.5 -12.1 25.45 -10.65 26.55 -9.95 27.0 -8.6 27.65 -5.7 29.15 -4.75 28.9 -2.75 28.85 -2.75 28.6 -2.5 28.6 -2.0 28.55 -1.0 28.45 -0.8 27.95 -0.05 26.3 0.15 25.35 0.15 24.6 0.4 24.55 0.85 24.0 Q1.0 23.0 1.3 22.05 1.6 21.1 2.15 20.25 4.0 17.45 6.3 15.05 L11.4 10.0 13.4 8.1 18.0 3.75 22.5 -0.25 22.95 -0.6" fill="#3b5d8b" fill-rule="evenodd" stroke="none"/>
    <path d="M1.6 -101.6 L6.1 -101.1 12.65 -99.85 Q14.95 -99.3 16.9 -98.1 L18.4 -96.75 20.2 -94.15 Q20.9 -92.9 20.95 -91.55 21.1 -89.6 20.85 -87.65 L20.55 -85.65 19.75 -81.2 19.65 -79.25 19.7 -78.45 19.75 -76.95 20.1 -74.65 22.15 -75.15 22.1 -72.4 Q21.65 -68.65 20.45 -65.2 19.75 -63.1 18.35 -61.35 L16.5 -59.2 12.15 -69.05 10.8 -79.7 Q10.35 -82.6 9.3 -85.35 8.7 -86.9 7.5 -88.0 5.85 -89.5 3.7 -90.25 0.55 -91.3 -2.8 -91.95 L-5.75 -92.55 -7.0 -92.55 -11.5 -92.85 -17.25 -93.15 -19.35 -96.0 -19.8 -96.95 -17.65 -99.75 Q-16.15 -101.3 -14.2 -102.1 L-11.35 -102.75 -7.8 -102.65 1.6 -101.6" fill="#185586" fill-rule="evenodd" stroke="none"/>
    <path d="M16.85 -89.2 Q17.45 -88.4 17.5 -87.5 17.6 -85.4 17.3 -83.3 L16.65 -78.6 16.65 -76.85 17.0 -74.0 16.95 -73.25 17.25 -69.2 17.55 -65.1 Q17.6 -63.2 16.95 -61.55 16.0 -59.0 14.05 -57.1 12.45 -55.4 10.4 -54.15 8.95 -54.55 7.6 -55.3 4.55 -56.95 1.65 -58.95 L-0.15 -60.3 Q-1.55 -61.55 -2.65 -63.2 -3.35 -64.3 -3.4 -65.65 -3.4 -67.1 -2.7 -68.4 L-0.35 -72.0 1.6 -74.6 Q2.35 -75.6 2.75 -76.7 L3.5 -79.1 2.85 -80.2 -2.95 -80.25 -8.65 -80.65 -13.25 -81.65 Q-14.9 -82.15 -16.15 -83.3 -17.4 -84.45 -18.35 -85.95 L-18.3 -86.7 -18.2 -89.95 -18.3 -92.75 -17.8 -93.9 -16.0 -96.45 -14.7 -97.85 -12.85 -98.45 -11.0 -99.2 -9.75 -99.35 -7.95 -99.65 -6.35 -99.85 -2.4 -99.35 0.75 -98.55 2.4 -98.0 6.0 -96.35 Q10.3 -94.05 14.4 -91.4 L16.85 -89.2" fill="#102a41" fill-rule="evenodd" stroke="none"/>
    <path d="M10.4 -65.25 L10.75 -65.7 11.1 -64.65 11.6 -63.05 11.8 -62.05 10.15 -59.8 7.55 -56.3 Q5.5 -52.95 3.75 -49.45 L0.65 -43.85 Q-0.45 -42.05 -1.85 -40.5 -2.8 -39.45 -3.9 -38.6 L-6.3 -37.1 -8.85 -36.0 -16.65 -30.55 -22.9 -10.95 -30.15 -14.95 -22.75 -30.85 -22.55 -31.0 -21.7 -33.5 -21.05 -34.85 -20.45 -36.0 -19.75 -37.8 -18.75 -38.1 -19.4 -40.75 -19.15 -40.75 -19.1 -41.0 -19.05 -41.5 -18.95 -42.5 Q-18.65 -42.55 -18.4 -42.7 L-16.75 -43.4 -15.75 -43.55 -15.3 -43.55 -15.05 -43.55 -15.0 -43.8 -14.4 -44.1 Q-12.5 -44.7 -10.75 -45.65 -7.8 -47.2 -5.35 -49.45 L-0.15 -54.4 1.85 -56.35 6.25 -60.85 8.35 -63.0 10.4 -65.25" fill="#4e79b3" fill-rule="evenodd" stroke="none"/>
    <path d="M2.9 -65.6 L5.35 -68.0 6.05 -68.45 7.6 -68.8 8.5 -68.2 9.2 -67.6 10.05 -66.7 10.75 -65.7 8.35 -63.0 2.55 -56.9 1.3 -55.65 -3.55 -50.95 Q-5.15 -49.3 -7.0 -47.95 -9.55 -46.05 -12.5 -44.75 -13.4 -44.35 -14.4 -44.1 L-15.0 -43.8 -15.05 -43.55 -15.75 -43.55 -16.75 -43.4 -18.4 -42.7 Q-18.65 -42.55 -18.95 -42.5 L-19.05 -41.5 -19.1 -41.0 -19.15 -40.75 -19.4 -40.75 -18.75 -38.1 -19.75 -37.8 -21.15 -34.85 -21.75 -33.55 -22.1 -32.7 -22.55 -31.0 -22.75 -30.85 -30.15 -14.95 -33.5 -17.0 -29.1 -26.85 -27.95 -29.35 -25.4 -34.95 -24.7 -36.75 -24.5 -37.25 -24.35 -36.85 -23.65 -39.75 -24.5 -37.25 -24.7 -37.9 -24.8 -38.9 -24.7 -40.4 -24.15 -40.85 -23.7 -42.0 -23.15 -43.2 -22.4 -44.9 -19.65 -47.1 -14.25 -51.1 -10.1 -53.8 Q-7.85 -55.15 -5.8 -56.65 L-4.05 -58.15 2.9 -65.6" fill="#3b5d8b" fill-rule="evenodd" stroke="none"/>
    <path d="M-47.7 -1.9 L-48.4 -9.1 -44.15 -12.0 -44.15 -10.2 -41.25 -15.15 -39.4 -18.3 -38.45 -20.05 -37.6 -21.7 -36.85 -22.95 -35.3 -25.15 -33.95 -26.75 -33.8 -27.0 -33.45 -27.4 -32.75 -28.15 -31.05 -28.25 -29.4 -28.4 -27.65 -27.4 -26.65 -26.85 Q-26.1 -26.55 -25.55 -26.35 L-28.55 -19.5 Q-29.45 -17.55 -30.7 -15.85 -31.8 -14.25 -33.2 -12.85 L-38.7 -7.5 -47.7 -1.9" fill="#224870" fill-rule="evenodd" stroke="none"/>
    <path d="M-28.55 -19.5 Q-27.55 -21.0 -26.9 -22.7 L-25.55 -26.35 -24.0 -24.65 -21.5 -21.75 -19.5 -19.45 -17.6 -17.15 -16.2 -15.3 Q-15.25 -13.85 -14.6 -12.25 L-14.35 -10.95 Q-14.3 -10.6 -14.4 -10.3 L-25.25 7.6 -25.0 10.35 -24.5 10.55 -24.85 11.85 -24.55 13.05 -24.5 13.3 -24.45 10.2 -14.45 13.65 -27.65 33.85 -43.15 25.8 -45.15 18.95 -46.1 14.05 -46.85 7.85 -47.7 -1.9 -38.7 -7.5 Q-35.9 -10.1 -33.4 -13.0 -30.7 -16.05 -28.55 -19.5" fill="#2e6399" fill-rule="evenodd" stroke="none"/>
    <path d="M-14.45 13.65 L-18.95 21.6 -24.5 13.3 -24.5 13.05 -24.85 11.85 -24.5 10.55 -31.45 3.65 -24.95 4.55 -22.5 5.1 -19.95 5.85 -11.2 9.0 -14.45 13.65" fill="#224870" fill-rule="evenodd" stroke="none"/>
    <path d="M-38.4 -14.3 L-38.1 -13.8 -35.55 -9.25 -34.5 -6.85 -33.85 -4.65 Q-33.6 -3.4 -33.6 -2.2 L-33.55 0.35 -33.4 15.65 -33.5 18.9 -33.9 21.7 -34.7 24.25 -35.65 26.65 -36.2 4.35 -37.05 -5.1 -38.4 -14.3" fill="#14305e" fill-rule="evenodd" stroke="none"/>
    <path d="M-44.15 -5.7 L-53.65 -5.6 -58.65 -5.35 -62.4 -5.0 -70.05 -3.95 -76.25 -2.75 -78.05 -5.55 -80.15 -8.1 -85.15 -12.25 -49.55 -13.0 -38.65 -14.25 -38.4 -14.3 -37.05 -5.1 -44.15 -5.7" fill="#1b4777" fill-rule="evenodd" stroke="none"/>
    <path d="M-76.25 -2.75 L-70.05 -3.95 -62.4 -5.0 -58.65 -5.35 -53.65 -5.6 -44.15 -5.7 -37.05 -5.1 -36.2 4.35 -35.65 26.65 -36.95 28.75 -70.1 31.3 -71.85 31.6 -76.3 32.15 -82.3 32.7 -85.6 29.3 -87.65 26.4 -87.65 26.15 -87.2 25.85 -87.25 25.35 -85.7 24.05 -81.95 19.15 Q-79.8 16.0 -78.5 12.45 -76.8 7.7 -76.3 2.65 -76.0 0.0 -76.25 -2.75" fill="#336da1" fill-rule="evenodd" stroke="none"/>
    <path d="M-113.6 30.9 L-86.35 19.55 -84.2 24.0 Q-106.35 35.15 -112.1 36.1 -115.75 36.75 -125.05 35.25 L-141.5 32.3 -139.8 27.35 Q-130.85 27.25 -123.85 27.55 -116.85 27.9 -113.6 30.9" fill="#4e79b3" fill-rule="evenodd" stroke="none"/>
    <path d="M-142.15 34.15 L-141.5 32.3 -132.15 34.0 -142.15 34.15 M-104.6 33.6 Q-109.75 35.7 -112.1 36.1 -115.75 36.75 -125.05 35.25 L-132.15 34.0 -104.6 33.6 Q-97.25 30.55 -84.2 24.0 L-82.45 27.6 Q-88.5 31.05 -94.4 33.45 L-104.6 33.6" fill="#3b5d8b" fill-rule="evenodd" stroke="none"/>
    <path d="M-80.75 12.75 L-70.95 30.15 -83.4 35.7 -89.1 19.55 -88.15 19.0 -80.75 12.75" fill="#336da1" fill-rule="evenodd" stroke="none"/>
    <path d="M-155.05 35.8 L-160.6 32.95 Q-161.1 31.4 -162.05 32.55 -162.6 33.25 -165.7 34.05 L-169.8 35.2 Q-171.05 35.8 -171.8 35.65 -172.75 35.5 -173.7 34.35 L-174.1 33.4 -170.45 33.1 Q-165.7 31.75 -158.9 19.6 -159.15 31.5 -152.3 33.0 -145.45 34.5 -143.35 29.5 L-141.0 30.0 -144.95 35.65 Q-145.8 36.95 -148.65 37.2 -151.9 37.45 -155.05 35.8" fill="#3b5d8b" fill-rule="evenodd" stroke="none"/>
    <path d="M-147.9 14.5 Q-148.7 12.7 -149.0 7.85 L-148.35 7.6 Q-147.2 7.2 -146.85 9.6 L-146.55 13.45 Q-146.45 14.35 -144.2 16.6 -147.4 15.75 -147.9 14.5" fill="#3b5d8b" fill-rule="evenodd" stroke="none"/>
    <path d="M-151.55 10.15 Q-150.65 8.65 -149.0 7.85 -148.7 12.7 -147.9 14.5 -147.4 15.75 -144.2 16.6 L-139.1 21.55 Q-137.2 23.7 -140.0 28.55 L-141.0 30.0 -143.35 29.5 Q-145.45 34.5 -152.3 33.0 -159.15 31.5 -159.35 21.55 -160.65 30.5 -170.45 33.1 L-174.1 33.4 Q-174.3 31.95 -172.85 30.45 -175.1 29.95 -175.65 27.75 -176.2 25.6 -173.25 24.55 L-173.9 21.35 Q-174.15 20.4 -171.95 19.3 L-165.5 16.45 Q-161.85 14.85 -159.9 15.3 L-150.1 18.8 Q-151.15 17.2 -152.1 13.9 -152.7 11.95 -151.55 10.15" fill="#4e79b3" fill-rule="evenodd" stroke="none"/>
    <path d="M-60.35 -58.6 Q-60.15 -49.2 -61.25 -45.6 -62.9 -40.15 -76.9 -19.5 L-81.05 -22.25 -77.85 -27.5 -66.15 -47.75 Q-68.7 -51.35 -68.15 -58.35 -67.55 -65.35 -66.25 -74.2 L-61.15 -75.25 -60.35 -58.6" fill="#4e79b3" fill-rule="evenodd" stroke="none"/>
    <path d="M-61.15 -75.25 L-59.2 -75.65 Q-57.65 -53.15 -58.15 -47.85 -58.75 -41.35 -66.15 -28.4 -69.35 -22.85 -73.55 -17.3 L-76.9 -19.5 Q-62.9 -40.15 -61.25 -45.6 -60.15 -49.2 -60.35 -58.6 L-61.15 -75.25" fill="#3b5d8b" fill-rule="evenodd" stroke="none"/>
    <path d="M-88.1 -6.3 Q-88.0 -8.4 -87.4 -10.6 -86.75 -13.05 -86.9 -15.05 L-81.35 -24.1 -80.65 -24.95 -65.4 -17.2 -71.15 -3.35 -88.1 -6.3" fill="#1b4777" fill-rule="evenodd" stroke="none"/>
    <path d="M-73.7 -100.35 Q-73.1 -99.85 -72.7 -98.55 L-70.85 -94.7 Q-69.4 -91.85 -69.6 -91.0 -69.85 -89.5 -68.3 -90.15 L-62.55 -87.9 Q-59.25 -86.6 -57.3 -83.95 -55.6 -81.65 -56.0 -80.15 L-57.65 -73.5 -59.55 -74.9 Q-57.2 -79.8 -62.85 -83.95 -68.5 -88.1 -77.3 -80.1 -72.6 -93.2 -74.7 -97.65 -75.6 -99.55 -76.9 -100.6 L-75.9 -100.95 Q-74.4 -101.0 -73.7 -100.35" fill="#3b5d8b" fill-rule="evenodd" stroke="none"/>
    <path d="M-69.85 -67.05 L-73.75 -66.75 -76.85 -64.45 Q-78.9 -63.1 -79.35 -64.2 L-79.55 -64.9 Q-75.75 -67.9 -73.85 -68.45 -72.5 -68.85 -69.85 -67.05" fill="#3b5d8b" fill-rule="evenodd" stroke="none"/>
    <path d="M-82.15 -98.05 Q-80.15 -99.1 -78.3 -97.7 -78.15 -99.8 -76.9 -100.6 -75.6 -99.55 -74.7 -97.65 -70.2 -88.55 -76.1 -81.7 -68.5 -88.1 -62.85 -83.95 -57.2 -79.8 -59.55 -74.9 L-57.65 -73.5 -58.05 -71.75 Q-59.9 -66.45 -62.75 -66.5 L-69.85 -67.05 Q-72.5 -68.85 -73.85 -68.45 -75.75 -67.9 -79.55 -64.9 -80.0 -66.7 -79.55 -68.3 -78.95 -70.35 -77.05 -71.25 -73.95 -72.65 -72.1 -72.95 L-81.15 -78.0 Q-82.8 -79.2 -84.0 -82.95 L-86.1 -89.7 Q-86.75 -92.05 -85.85 -92.5 L-83.0 -94.15 Q-84.15 -97.05 -82.15 -98.05" fill="#4e79b3" fill-rule="evenodd" stroke="none"/>
    <path d="M-114.3 32.85 L-117.85 35.75 -142.35 35.8 -141.6 32.8 -140.4 31.85 -138.95 31.2 -132.85 29.3 -114.3 32.85" fill="#4e79b3" fill-rule="evenodd" stroke="none"/>
    <path d="M-130.7 20.6 L-130.95 22.65 -131.65 20.3 -130.7 20.6" fill="#0f2950" fill-rule="evenodd" stroke="none"/>
    <path d="M-137.05 34.4 L-132.35 37.25 -140.2 35.0 -133.6 31.75 -137.05 34.4" fill="#0f2950" fill-rule="evenodd" stroke="none"/>
    <path d="M-140.8 36.1 L-141.1 35.65 -141.0 35.4 -140.2 35.0 -139.4 37.15 -140.8 36.1" fill="#0f2950" fill-rule="evenodd" stroke="none"/>
    <path d="M-129.2 32.1 L-129.4 32.9 -128.9 33.65 -128.2 34.4 -126.3 34.5 -124.5 34.4 -125.2 34.65 -126.35 34.95 Q-128.4 35.25 -130.45 35.0 L-132.7 34.25 -131.7 31.35 -129.0 31.65 -129.2 32.1" fill="#0f2950" fill-rule="evenodd" stroke="none"/>
  </g>
</svg>
