<?xml version="1.0" encoding="UTF-8" standalone="no"?>
<svg xmlns:xlink="http://www.w3.org/1999/xlink" height="114.45px" width="235.7px" xmlns="http://www.w3.org/2000/svg">
  <g transform="matrix(1.0, 0.0, 0.0, 1.0, 176.3, 77.2)">
    <path d="M18.8 -8.35 Q20.6 -9.65 22.65 -10.35 26.2 -11.45 29.9 -11.8 L32.7 -11.8 32.15 -9.75 34.45 -9.35 35.95 -9.25 36.7 -9.2 38.75 -9.25 43.15 -9.9 45.15 -10.15 Q47.15 -10.35 49.1 -10.15 50.45 -10.0 51.65 -9.3 L54.2 -7.5 55.0 -6.8 55.6 -6.05 Q56.65 -3.95 57.15 -1.65 57.95 1.6 58.25 4.95 L58.65 9.45 59.4 18.9 59.4 22.4 Q59.35 23.95 58.75 25.25 57.9 27.2 56.3 28.65 L53.45 30.75 52.5 30.25 49.65 28.1 49.55 22.3 49.35 17.8 49.35 16.55 48.85 13.6 Q48.3 10.25 47.35 7.05 46.7 4.9 45.2 3.2 44.15 2.0 42.6 1.35 39.85 0.25 36.95 -0.3 L26.35 -1.9 16.6 -6.55 18.8 -8.35" fill="#185586" fill-rule="evenodd" stroke="none"/>
    <path d="M36.0 -6.2 L40.7 -6.7 44.9 -6.8 Q45.85 -6.7 46.6 -6.1 L48.75 -3.6 Q51.3 0.55 53.45 4.9 L55.05 8.55 55.55 10.2 56.25 13.4 Q56.65 15.4 56.65 17.35 L56.45 18.95 56.0 20.7 55.8 21.25 55.9 22.0 55.1 23.8 54.45 25.65 53.05 26.9 50.45 28.6 49.25 29.1 46.5 28.95 43.2 28.95 42.5 29.0 39.9 26.7 Q38.8 25.45 38.3 23.75 37.65 21.5 37.45 19.15 L37.15 13.4 37.25 7.6 36.2 6.95 33.75 7.65 Q32.65 8.05 31.6 8.75 L29.0 10.6 25.3 12.9 Q24.0 13.6 22.5 13.55 21.2 13.5 20.1 12.7 18.55 11.6 17.25 10.1 L15.95 8.3 12.45 2.25 Q11.8 0.95 11.4 -0.55 12.75 -2.55 14.45 -4.15 16.45 -6.0 19.0 -6.95 L22.55 -7.4 26.6 -7.0 30.7 -6.65 31.4 -6.6 34.25 -6.2 36.0 -6.2" fill="#102a41" fill-rule="evenodd" stroke="none"/>
    <path d="M22.45 -0.25 L20.15 1.65 13.95 7.35 12.7 8.55 7.85 13.3 Q6.15 14.9 4.75 16.65 2.8 19.2 1.4 22.1 1.0 23.0 0.85 24.0 L0.4 24.55 0.15 24.6 0.15 24.85 0.15 25.35 -0.05 26.3 -0.8 27.95 -1.0 28.45 -2.0 28.55 -2.5 28.6 -2.75 28.6 -2.75 28.85 -4.75 28.9 -5.7 29.15 -7.35 28.15 -8.55 27.6 -10.65 26.5 -12.1 25.45 -12.35 25.5 -27.9 17.35 -24.55 9.8 -7.65 21.55 -7.05 18.3 Q-6.7 16.95 -5.95 15.8 -4.4 13.5 -2.4 11.5 -0.95 10.0 0.85 8.95 3.6 7.35 6.45 6.0 10.1 4.35 13.45 2.35 L17.05 -0.2 19.3 -1.8 20.35 -1.55 21.9 -1.0 22.95 -0.6 22.45 -0.25" fill="#4e79b3" fill-rule="evenodd" stroke="none"/>
    <path d="M22.95 -0.6 L23.95 0.1 24.85 1.0 25.4 1.7 26.0 2.65 25.55 4.1 25.1 4.85 22.65 7.2 15.05 14.0 13.5 15.7 10.55 19.9 7.7 24.0 3.6 29.3 1.35 32.0 -0.35 32.7 -1.6 33.25 -2.8 33.65 -3.25 34.2 -4.75 34.25 -5.7 34.05 -7.55 33.05 Q-9.75 31.65 -12.0 30.35 L-17.4 27.4 -19.8 26.15 -29.3 21.0 -27.9 17.35 -12.35 25.5 -12.1 25.45 -10.65 26.55 -9.95 27.0 -8.6 27.65 -5.7 29.15 -4.75 28.9 -2.75 28.85 -2.75 28.6 -2.5 28.6 -2.0 28.55 -1.0 28.45 -0.8 27.95 -0.05 26.3 0.15 25.35 0.15 24.6 0.4 24.55 0.85 24.0 Q1.0 23.0 1.3 22.05 1.6 21.1 2.15 20.25 4.0 17.45 6.3 15.05 L11.4 10.0 13.4 8.1 18.0 3.75 22.5 -0.25 22.95 -0.6" fill="#3b5d8b" fill-rule="evenodd" stroke="none"/>
    <path d="M46.9 -68.3 L50.4 -65.5 55.35 -60.95 Q56.95 -59.25 57.95 -57.2 58.4 -56.3 58.5 -55.25 L58.6 -52.05 Q58.55 -50.7 57.9 -49.55 57.0 -47.8 55.7 -46.25 L54.4 -44.75 51.35 -41.4 50.25 -39.8 49.85 -39.1 49.1 -37.85 48.15 -35.65 50.15 -35.0 48.6 -32.7 Q46.25 -29.75 43.35 -27.45 41.7 -26.05 39.6 -25.3 L36.85 -24.5 38.4 -35.15 41.8 -41.7 Q43.25 -44.75 44.15 -48.0 44.85 -50.5 44.9 -53.1 44.95 -54.15 44.35 -55.0 42.3 -58.05 39.75 -60.75 L35.75 -64.45 34.75 -65.25 31.15 -67.9 26.4 -71.2 26.2 -74.75 26.3 -75.85 29.6 -77.05 33.8 -77.2 Q35.25 -76.95 36.55 -76.2 L39.45 -74.2 46.9 -68.3" fill="#185586" fill-rule="evenodd" stroke="none"/>
    <path d="M42.3 -68.6 L44.55 -66.2 45.65 -64.85 47.8 -61.55 Q50.2 -57.3 52.25 -52.9 52.95 -51.35 53.15 -49.65 53.25 -48.7 52.75 -47.9 51.75 -46.1 50.35 -44.5 L47.3 -40.8 46.35 -39.3 45.1 -36.8 44.75 -36.15 42.8 -32.55 40.85 -28.95 Q39.95 -27.3 38.5 -26.25 36.3 -24.6 33.6 -24.0 L28.95 -23.5 Q27.95 -24.6 27.25 -25.9 25.55 -29.0 24.15 -32.25 L23.35 -34.3 Q22.85 -36.15 22.8 -38.1 22.75 -39.45 23.45 -40.6 24.2 -41.85 25.5 -42.55 27.4 -43.6 29.45 -44.35 L32.5 -45.5 Q33.65 -45.95 34.6 -46.65 L36.5 -48.3 36.55 -49.55 31.7 -52.65 27.05 -56.1 Q25.2 -57.6 23.7 -59.4 22.6 -60.7 22.15 -62.3 21.7 -63.95 21.65 -65.75 L22.15 -66.35 23.95 -69.05 25.35 -71.45 26.35 -72.15 29.25 -73.35 31.1 -73.85 Q31.6 -73.6 32.1 -73.5 L34.9 -72.85 36.05 -72.45 Q36.9 -72.05 37.75 -71.8 L39.25 -71.1 Q40.9 -70.0 42.3 -68.6" fill="#102a41" fill-rule="evenodd" stroke="none"/>
    <path d="M22.95 -29.95 L29.05 -31.35 32.0 -32.1 34.9 -32.85 35.45 -33.05 35.2 -32.0 34.75 -30.35 34.4 -29.4 31.8 -28.4 27.7 -26.8 20.8 -23.05 Q18.1 -21.35 15.2 -20.0 13.35 -19.1 11.35 -18.5 L8.6 -17.95 5.75 -18.0 3.0 -18.45 -6.5 -18.0 -22.25 -4.75 -26.25 -12.05 -11.45 -21.5 -11.25 -21.5 -9.15 -23.2 -7.9 -23.95 -6.75 -24.6 Q-5.95 -25.1 -5.2 -25.75 L-4.2 -25.5 -3.35 -28.1 -3.15 -27.95 -3.0 -28.1 -2.65 -28.5 -2.05 -29.3 -1.5 -29.2 0.25 -28.9 1.25 -28.5 1.65 -28.25 1.8 -28.1 2.0 -28.3 2.65 -28.25 6.6 -27.6 13.15 -27.95 20.2 -29.35 22.95 -29.95" fill="#4e79b3" fill-rule="evenodd" stroke="none"/>
    <path d="M32.95 -37.9 L34.45 -37.4 34.85 -36.4 35.15 -35.55 35.4 -34.3 35.45 -33.05 32.0 -32.05 23.85 -30.0 22.1 -29.65 15.5 -28.25 10.95 -27.55 4.6 -27.8 2.65 -28.25 2.0 -28.3 1.8 -28.1 1.2 -28.5 0.25 -28.9 -1.5 -29.2 -2.05 -29.3 -2.65 -28.5 -3.0 -28.1 -3.15 -27.95 -3.35 -28.1 -4.2 -25.5 -5.2 -25.75 -7.95 -24.0 -9.2 -23.25 -9.95 -22.7 -11.25 -21.5 -11.45 -21.5 -26.25 -12.05 -28.0 -15.55 -19.0 -21.5 -16.7 -23.0 Q-14.05 -24.6 -11.5 -26.35 -10.7 -26.85 -9.95 -27.5 L-9.5 -27.8 -9.65 -27.4 -7.45 -29.5 -9.5 -27.8 -9.35 -28.5 -8.95 -29.4 -8.05 -30.6 -7.35 -30.7 -6.3 -31.45 -5.2 -32.2 -3.7 -33.2 -0.2 -33.55 6.5 -34.1 11.5 -34.15 16.65 -34.25 18.9 -34.6 28.75 -37.15 32.1 -37.9 32.95 -37.9" fill="#3b5d8b" fill-rule="evenodd" stroke="none"/>
    <path d="M-47.7 -1.9 L-48.4 -9.1 -44.15 -12.0 -44.15 -10.2 -40.25 -16.9 -39.4 -18.3 -35.65 -16.9 -33.4 -17.55 -32.0 -17.95 -30.6 -18.25 -27.15 -18.55 -26.4 -18.5 -25.85 -18.5 -24.85 -18.5 -23.6 -17.4 -22.35 -16.25 -21.85 -14.3 -21.6 -13.2 -21.2 -12.05 -24.8 -10.65 Q-28.55 -9.4 -32.4 -8.7 L-36.25 -8.05 -38.7 -7.5 -47.7 -1.9" fill="#224870" fill-rule="evenodd" stroke="none"/>
    <path d="M-38.7 -7.5 L-36.25 -8.1 -28.25 -9.55 Q-26.45 -9.9 -24.8 -10.55 -22.95 -11.25 -21.2 -12.05 L-21.4 -9.75 -21.75 -6.0 -22.1 -2.9 -22.45 0.05 -22.85 2.3 Q-23.25 4.0 -23.95 5.6 L-24.7 6.7 -25.3 7.1 -25.0 10.35 -24.5 10.55 -24.85 11.85 -24.55 13.05 -24.5 13.3 -24.45 10.2 -14.45 13.65 -27.65 33.85 -43.15 25.8 -45.15 18.95 -46.85 7.85 -47.7 -1.9 -38.7 -7.5" fill="#2e6399" fill-rule="evenodd" stroke="none"/>
    <path d="M-14.45 13.65 L-18.95 21.6 -24.5 13.3 -24.5 13.05 -24.85 11.85 -24.5 10.55 -31.45 3.65 -24.95 4.55 -22.5 5.1 -19.95 5.85 -11.2 9.0 -14.45 13.65" fill="#224870" fill-rule="evenodd" stroke="none"/>
    <path d="M-38.8 -13.15 L-38.05 -9.65 -35.4 -9.3 -34.5 -6.85 -33.85 -4.65 Q-33.6 -3.4 -33.6 -2.2 L-33.55 0.35 -33.4 15.65 -33.5 18.9 -33.9 21.7 -34.7 24.25 -35.65 26.65 -36.2 4.35 -37.05 -5.1 -38.05 -9.65 -39.65 -9.9 -38.95 -12.6 -38.8 -13.15" fill="#14305e" fill-rule="evenodd" stroke="none"/>
    <path d="M-85.65 -14.1 L-86.35 -15.1 -84.55 -13.65 -85.65 -14.1 M-79.85 -5.75 L-79.55 -5.25 -77.55 -4.25 -77.55 -0.25 -76.7 0.9 -76.8 1.55 -77.25 3.2 -77.55 1.8 -77.55 1.7 -78.9 -2.55 -78.9 -2.6 -79.1 -2.8 -79.2 -2.9 -79.25 -2.95 -79.8 -3.7 -80.1 -4.1 -80.6 -4.85 -80.8 -5.0 -79.85 -5.75" fill="#14305e" fill-rule="evenodd" stroke="none"/>
    <path d="M-109.85 30.8 L-109.65 30.95 -109.55 30.85 -109.3 30.65 -107.75 30.1 -108.55 30.75 -109.8 31.3 -110.5 31.25 -110.35 30.95 -109.85 30.8" fill="#031f32" fill-rule="evenodd" stroke="none"/>
    <path d="M-76.7 0.9 L-76.05 1.75 -76.05 7.25 Q-76.9 7.9 -77.4 8.8 -77.0 7.0 -77.05 5.2 L-77.25 3.2 -76.8 1.55 -76.7 0.9 M-77.45 8.85 L-77.7 9.45 -77.55 9.05 -77.45 8.85" fill="#336da1" fill-rule="evenodd" stroke="none"/>
    <path d="M-105.3 28.25 L-106.2 28.9 -105.3 28.25 M-132.1 31.05 L-134.75 31.05 -136.5 30.0 -134.35 30.5 -132.4 30.95 -132.1 31.05 M-137.4 31.05 L-139.9 31.05 -140.2 30.25 -137.4 31.05 M-141.0 31.05 L-142.35 31.05 -141.9 29.4 -141.75 28.65 -140.4 29.2 -138.85 29.5 -139.4 29.8 -140.2 30.25 -141.0 30.65 -141.15 30.9 -141.0 31.05 M-149.9 28.6 L-151.55 25.75 -158.45 21.0 -158.95 20.65 -159.2 18.75 -159.1 18.8 -159.0 19.0 -158.6 19.6 Q-152.95 23.4 -146.7 26.4 L-145.05 27.2 Q-146.9 28.75 -149.9 28.6 M-160.1 19.9 L-163.55 17.75 Q-164.1 16.25 -165.55 16.25 L-167.55 12.6 -165.9 11.9 Q-163.65 16.0 -159.65 18.45 L-160.1 19.9" fill="#4e79b3" fill-rule="evenodd" stroke="none"/>
    <path d="M-110.25 30.65 L-109.85 30.8 -110.35 30.95 -110.25 30.65 M-109.3 30.65 L-107.4 29.0 -106.55 29.15 -106.2 28.9 -106.55 29.15 -107.75 30.1 -109.3 30.65 M-112.5 31.45 L-113.5 31.5 -113.4 31.45 -113.3 31.35 -112.5 31.45 M-141.9 29.4 L-142.15 29.4 -141.85 28.6 -141.75 28.65 -141.9 29.4 M-143.0 28.1 L-144.95 30.9 -146.15 31.85 -147.1 31.35 -147.55 31.25 -148.05 29.75 -149.55 29.25 -149.9 28.6 Q-146.9 28.75 -145.05 27.2 L-143.0 28.1 M-158.95 20.65 L-160.1 19.9 -159.65 18.45 -159.2 18.75 -158.95 20.65" fill="#3b5d8b" fill-rule="evenodd" stroke="none"/>
    <path d="M-89.4 -18.45 L-89.5 -19.05 -89.5 -19.15 -89.0 -18.0 -89.4 -18.45 M-86.5 -14.35 L-85.65 -14.1 -84.55 -13.65 -86.35 -15.1 -87.0 -15.65 -87.65 -16.25 -87.7 -16.15 -87.7 -16.0 -88.3 -16.75 -89.05 -19.75 -86.95 -17.35 -86.55 -17.25 -86.05 -15.25 -84.55 -14.75 Q-82.7 -10.1 -79.85 -5.75 L-80.8 -5.0 -80.85 -5.1 -81.3 -5.65 Q-83.55 -10.2 -86.5 -14.35" fill="#1b4777" fill-rule="evenodd" stroke="none"/>
    <path d="M-89.4 -18.45 L-90.0 -18.85 -90.55 -19.45 -90.55 -19.65 -90.55 -19.8 -89.55 -19.25 -89.5 -19.15 -89.5 -19.05 -89.4 -18.45 M-87.25 -15.35 L-87.35 -15.55 -87.45 -15.65 -87.7 -16.0 -87.7 -16.15 -87.65 -16.25 -87.0 -15.65 -86.35 -15.1 -85.65 -14.1 -86.5 -14.35 -87.25 -15.35" fill="#2e6399" fill-rule="evenodd" stroke="none"/>
    <path d="M-107.4 29.0 L-103.5 26.45 Q-102.45 26.1 -101.5 25.45 L-99.95 24.8 -98.9 24.8 -105.3 28.25 -106.2 28.9 -106.55 29.15 -107.4 29.0" fill="#1d4d82" fill-rule="evenodd" stroke="none"/>
    <path d="M-134.75 31.05 L-132.35 32.5 -137.4 31.05 -140.2 30.25 -139.9 31.05 -139.4 32.4 -140.8 31.35 -141.0 31.05 -141.15 30.9 -141.0 30.65 -140.2 30.25 -139.4 29.8 -138.85 29.5 -136.5 30.0 -134.75 31.05" fill="#0f2950" fill-rule="evenodd" stroke="none"/>
    <path d="M-166.8 -32.65 L-167.75 -32.65 -166.7 -33.85 -165.9 -32.95 -166.8 -32.65 M-107.75 26.85 L-106.0 26.85 -103.5 26.45 -107.4 29.0 -109.3 30.65 -109.55 30.85 -109.65 30.95 -109.85 30.8 -110.25 30.65 -110.2 30.35 -108.8 29.55 -108.5 28.9 -108.5 28.85 -108.5 28.8 -107.75 28.3 -107.45 28.2 -107.3 28.15 -106.35 28.0 Q-105.8 27.55 -105.75 27.05 L-106.3 27.0 -106.45 27.0 -107.35 26.9 -107.75 26.85 M-121.0 33.55 L-121.3 33.85 -124.45 33.1 -123.75 33.15 -122.7 33.3 -122.1 33.4 -121.0 33.55 M-128.25 32.0 L-130.85 31.35 -131.4 31.2 -131.2 31.2 -128.85 31.45 -128.25 32.0 M-141.85 28.6 L-143.0 28.1 -145.05 27.2 -146.7 26.4 Q-152.95 23.4 -158.6 19.6 L-159.0 19.0 -159.1 18.8 -157.1 19.8 -157.4 20.0 -157.45 20.0 -157.25 20.05 -156.8 19.95 -155.0 20.6 -153.35 22.05 -154.4 21.65 -153.6 22.25 Q-151.6 23.65 -149.3 24.85 L-144.75 26.9 -142.7 27.65 -141.75 28.0 -141.65 28.0 -141.55 28.0 -137.3 28.5 -137.0 28.55 -135.75 28.7 -135.35 28.75 -134.3 28.85 -134.3 29.9 -134.35 30.2 -134.35 30.5 -136.5 30.0 -138.85 29.5 -140.4 29.2 -141.75 28.65 -141.85 28.6 M-146.3 24.4 L-135.7 25.9 -129.8 26.3 -129.85 26.3 -130.7 26.5 -130.85 26.7 -131.0 27.2 -131.85 27.15 -132.05 27.1 -133.05 27.2 Q-133.7 27.4 -134.25 27.85 L-134.6 27.8 -135.15 27.65 -135.3 27.6 -140.95 26.0 -141.45 25.85 -141.75 25.8 -143.55 25.25 -146.3 24.4 M-169.7 3.6 L-168.75 5.3 -170.15 3.65 -169.7 3.6" fill="#000000" fill-rule="evenodd" stroke="none"/>
    <path d="M-166.8 -32.65 L-165.9 -32.95 -165.6 -32.7 -166.8 -32.65 M-78.1 10.85 L-78.7 11.65 -78.7 11.7 -78.7 11.6 -78.7 11.55 -78.65 10.75 -78.1 10.85 M-78.8 11.8 L-79.25 12.4 -79.05 11.75 -78.8 11.8 M-80.9 -4.85 L-81.3 -5.65 -80.85 -5.1 -80.8 -5.0 -80.6 -4.85 -80.9 -4.85 M-79.8 -3.7 L-80.1 -3.7 -80.1 -4.1 -79.8 -3.7 M-79.1 -2.8 L-78.9 -2.6 -79.1 -2.6 -79.1 -2.8 M-77.5 8.85 L-77.45 8.85 -77.55 9.05 -77.5 8.85 M-101.5 25.45 L-100.65 24.75 -99.95 24.8 -101.5 25.45 M-157.1 19.8 L-156.8 19.95 -157.25 20.05 -157.45 20.0 -157.4 20.0 -157.1 19.8 M-153.35 22.05 L-150.4 23.4 -146.3 24.4 -143.55 25.25 -141.75 25.8 -141.45 25.85 -140.95 26.0 -135.3 27.6 -135.15 27.65 -134.6 27.8 -134.25 27.85 Q-133.7 27.4 -133.05 27.2 L-132.05 27.1 Q-132.1 27.6 -132.3 27.7 L-134.25 27.85 -134.3 28.85 -135.35 28.75 -135.75 28.7 -137.0 28.55 -137.3 28.5 -141.55 28.0 -141.65 28.0 -141.75 28.0 -142.7 27.65 -144.75 26.9 -149.3 24.85 Q-151.6 23.65 -153.6 22.25 L-154.4 21.65 -153.35 22.05 M-110.6 26.85 L-108.45 26.85 -108.5 27.75 -108.5 27.85 -108.5 28.5 -108.5 28.8 -109.35 28.7 -109.6 28.65 -109.6 28.3 -109.8 27.9 Q-110.1 27.6 -110.6 27.55 L-110.6 26.85 M-129.85 26.3 L-130.0 26.8 -130.2 27.05 -131.0 27.2 -130.85 26.7 -130.7 26.5 -129.85 26.3 M-169.7 3.6 L-168.4 3.5 -168.1 5.75 -168.0 6.2 -168.25 5.9 -168.75 5.3 -169.7 3.6" fill="#00294a" fill-rule="evenodd" stroke="none"/>
    <path d="M-77.4 8.8 L-77.45 8.85 -77.5 8.85 -77.55 9.05 -77.7 9.45 -78.0 10.25 -78.05 10.75 -78.1 10.85 -78.65 10.75 -78.65 10.5 -78.35 9.4 -78.15 9.0 -77.5 8.85 Q-77.45 6.95 -77.05 5.2 -77.0 7.0 -77.4 8.8 M-78.2 1.6 L-78.25 1.5 Q-79.4 -1.75 -80.9 -4.85 L-80.6 -4.85 -80.1 -4.1 -80.1 -3.7 -79.8 -3.7 -79.25 -2.95 -79.2 -2.9 -79.1 -2.8 -79.1 -2.6 -78.9 -2.6 -78.9 -2.55 -77.55 1.7 -78.2 1.6 M-107.75 26.85 L-107.35 26.9 -106.45 27.0 -106.3 27.0 -106.3 27.35 -106.35 28.0 -107.3 28.15 -107.45 28.2 -107.75 28.3 -108.5 28.8 -108.5 28.85 -108.5 28.9 -108.8 29.55 -110.2 30.35 -110.25 30.65 -110.35 30.95 -110.5 31.25 -110.6 31.4 -112.5 31.45 -113.3 31.35 -113.4 31.45 -113.5 31.5 -114.75 32.3 -115.2 32.3 -115.4 32.3 -117.05 33.35 -121.0 33.55 -122.1 33.4 -122.7 33.3 -123.75 33.15 Q-125.15 29.45 -121.9 32.7 L-121.7 32.9 -121.65 32.9 -119.9 32.85 -119.0 32.8 -118.0 32.15 -117.4 31.7 -117.25 31.45 -117.2 31.35 -115.8 31.1 -115.35 31.0 -115.25 31.1 Q-115.2 29.95 -113.95 30.2 L-113.1 30.3 Q-112.3 29.8 -111.2 29.55 L-111.0 29.5 -110.7 29.6 -110.7 28.95 -110.65 28.55 -110.6 27.55 Q-110.1 27.6 -109.8 27.9 L-109.6 28.3 -109.6 28.65 -109.35 28.7 -108.5 28.8 -108.5 28.5 -108.5 27.85 -108.5 27.75 -108.45 26.85 -107.75 26.85 M-131.85 31.1 L-132.1 31.05 -132.4 30.95 -134.35 30.5 -134.35 30.2 -134.3 29.9 -134.3 28.85 -134.25 27.85 -132.3 27.7 Q-132.1 27.6 -132.05 27.1 L-131.85 27.15 -131.0 27.2 -130.9 27.7 -129.3 28.3 Q-127.7 29.05 -128.0 29.65 L-129.0 30.35 -131.6 31.05 -131.85 31.1 M-129.8 26.3 L-126.6 26.45 -126.6 26.65 Q-126.6 28.3 -128.8 27.45 -128.8 26.9 -129.1 26.65 -129.35 26.35 -129.85 26.3 L-129.8 26.3 M-118.9 26.75 L-118.65 26.75 -118.65 27.65 -119.2 27.55 -118.9 26.75 M-121.45 30.35 L-119.45 29.8 Q-118.65 29.6 -119.15 29.8 L-120.5 30.3 -121.45 30.35" fill="#005a9c" fill-rule="evenodd" stroke="none"/>
    <path d="M-78.7 11.7 L-78.8 11.8 -79.05 11.75 -78.65 10.5 -78.65 10.75 -78.7 11.55 -78.7 11.6 -78.7 11.7 M-78.35 9.4 L-77.75 6.15 Q-77.45 3.8 -78.2 1.6 L-77.55 1.7 -77.55 1.8 -77.25 3.2 -77.05 5.2 Q-77.45 6.95 -77.5 8.85 L-78.15 9.0 -78.35 9.4 M-124.45 33.1 L-125.75 32.7 -128.25 32.0 -128.85 31.45 -131.2 31.2 -131.4 31.2 -131.85 31.1 -131.6 31.05 -129.0 30.35 -128.0 29.65 Q-127.7 29.05 -129.3 28.3 L-130.9 27.7 -131.0 27.2 -130.2 27.05 -130.0 26.8 -129.85 26.3 Q-129.35 26.35 -129.1 26.65 -128.8 26.9 -128.8 27.45 -126.6 28.3 -126.6 26.65 L-126.6 26.45 -118.9 26.75 -119.2 27.55 -118.65 27.65 -118.65 26.75 -110.6 26.85 -110.6 27.55 -110.65 28.55 -110.7 28.95 -110.7 29.6 -111.0 29.5 -111.2 29.55 Q-112.3 29.8 -113.1 30.3 L-113.95 30.2 Q-115.2 29.95 -115.25 31.1 L-115.35 31.0 -115.8 31.1 -117.2 31.35 -117.25 31.45 -117.4 31.7 -118.0 32.15 Q-119.05 32.35 -119.9 32.85 L-121.65 32.9 -121.7 32.9 -121.9 32.7 Q-125.15 29.45 -123.75 33.15 L-124.45 33.1 M-121.45 30.35 L-120.5 30.3 -119.15 29.8 Q-118.65 29.6 -119.45 29.8 L-121.45 30.35" fill="#4a7bb5" fill-rule="evenodd" stroke="none"/>
    <path d="M-87.45 -15.65 L-87.35 -15.55 -87.25 -15.35 -87.45 -15.65 M-106.3 27.0 L-105.75 27.05 Q-105.8 27.55 -106.35 28.0 L-106.3 27.35 -106.3 27.0" fill="#008cef" fill-rule="evenodd" stroke="none"/>
    <path d="M-85.0 -12.1 L-85.05 -12.25 -49.55 -13.0 -38.65 -14.25 -38.4 -14.3 -37.05 -5.1 -44.15 -5.7 -62.4 -5.0 -76.25 -2.75 -80.15 -8.1 -85.0 -12.1" fill="#1b4777" fill-rule="evenodd" stroke="none"/>
    <path d="M-58.65 -5.35 L-44.15 -5.7 -37.05 -5.1 -36.2 4.35 -35.65 26.65 -36.95 28.75 -70.1 31.3 -82.3 32.7 -85.6 29.3 -87.65 26.4 -87.65 26.15 -87.2 25.85 -87.25 25.35 -85.7 24.05 -81.95 19.15 Q-79.8 16.0 -78.5 12.45 -76.8 7.7 -76.3 2.65 -76.0 0.0 -76.25 -2.75 L-58.65 -5.35" fill="#336da1" fill-rule="evenodd" stroke="none"/>
    <path d="M-85.6 21.05 L-84.2 24.0 Q-106.35 35.15 -112.1 36.1 -115.75 36.75 -125.05 35.25 L-141.5 32.3 -139.8 27.35 Q-130.85 27.25 -123.85 27.55 -116.85 27.9 -113.6 30.9 L-98.9 24.8 Q-90.7 24.7 -85.6 21.05" fill="#4e79b3" fill-rule="evenodd" stroke="none"/>
    <path d="M-141.5 32.3 L-132.15 34.0 -142.15 34.15 -141.5 32.3 M-104.6 33.6 Q-109.75 35.7 -112.1 36.1 -115.75 36.75 -125.05 35.25 L-132.15 34.0 -104.6 33.6 Q-97.25 30.55 -84.2 24.0 L-82.45 27.6 Q-88.5 31.05 -94.4 33.45 L-104.6 33.6" fill="#3b5d8b" fill-rule="evenodd" stroke="none"/>
    <path d="M-80.0 14.15 L-70.95 30.15 -83.4 35.7 -88.05 22.5 Q-82.65 19.85 -80.0 14.15" fill="#336da1" fill-rule="evenodd" stroke="none"/>
    <path d="M-155.05 35.8 L-160.6 32.95 Q-161.1 31.4 -162.05 32.55 -162.6 33.25 -165.7 34.05 L-169.8 35.2 Q-171.05 35.8 -171.8 35.65 -172.75 35.5 -173.7 34.35 L-174.1 33.4 -170.45 33.1 Q-165.7 31.75 -158.9 19.6 -159.15 31.5 -152.3 33.0 -145.45 34.5 -143.35 29.5 L-141.0 30.0 -144.95 35.65 Q-145.8 36.95 -148.65 37.2 -151.9 37.45 -155.05 35.8" fill="#3b5d8b" fill-rule="evenodd" stroke="none"/>
    <path d="M-154.25 21.3 Q-152.6 22.8 -150.4 23.4 L-144.9 24.7 -139.85 26.35 -140.55 27.6 -141.55 29.05 -143.9 28.55 Q-146.0 33.55 -152.85 32.05 -159.7 30.55 -159.9 20.6 -161.2 29.55 -171.0 32.15 L-174.65 32.45 Q-174.85 31.0 -173.4 29.5 -175.65 29.0 -176.2 26.8 -176.75 24.65 -173.8 23.6 L-174.45 20.4 Q-174.7 19.45 -172.5 18.35 L-166.65 15.8 Q-160.65 18.8 -154.25 21.3" fill="#4e79b3" fill-rule="evenodd" stroke="none"/>
    <path d="M-64.8 -38.45 L-65.5 -35.7 Q-66.3 -33.1 -69.5 -29.1 -74.7 -22.75 -76.9 -19.5 L-81.05 -22.25 -77.85 -27.5 Q-74.0 -34.0 -70.4 -37.85 -72.95 -41.45 -72.4 -48.4 -71.8 -55.4 -71.5 -46.8 L-66.35 -47.85 Q-66.1 -42.75 -65.1 -39.9 -64.8 -39.05 -64.8 -38.45" fill="#4e79b3" fill-rule="evenodd" stroke="none"/>
    <path d="M-64.4 -48.2 Q-61.9 -43.25 -62.4 -37.9 -62.75 -34.35 -63.3 -33.25 L-66.15 -28.4 Q-69.35 -22.85 -73.55 -17.3 L-76.9 -19.5 Q-74.7 -22.75 -69.5 -29.1 -66.3 -33.1 -65.5 -35.7 L-64.8 -38.45 Q-64.8 -39.05 -65.1 -39.9 -66.1 -42.75 -66.35 -47.85 L-64.4 -48.2" fill="#3b5d8b" fill-rule="evenodd" stroke="none"/>
    <path d="M-83.95 -10.5 L-86.95 -15.0 -81.35 -24.1 -80.65 -24.95 -65.4 -17.2 -71.15 -3.35 -78.65 -4.65 Q-80.95 -8.05 -83.95 -10.5" fill="#1b4777" fill-rule="evenodd" stroke="none"/>
    <path d="M-85.4 -67.4 L-84.45 -67.7 Q-82.95 -67.75 -82.2 -67.1 -81.6 -66.6 -81.2 -65.3 L-79.35 -61.45 Q-77.95 -58.6 -78.1 -57.75 -78.35 -56.25 -76.8 -56.9 L-71.05 -54.65 Q-67.75 -53.35 -65.8 -50.7 -64.1 -48.4 -64.5 -46.9 L-66.15 -40.25 -68.05 -41.65 Q-65.7 -46.55 -71.35 -50.7 -77.0 -54.85 -85.8 -46.85 -81.1 -59.95 -83.2 -64.4 -84.1 -66.25 -85.4 -67.4" fill="#3b5d8b" fill-rule="evenodd" stroke="none"/>
    <path d="M-85.35 -31.2 Q-87.4 -29.85 -87.85 -30.95 L-88.05 -31.65 Q-84.25 -34.65 -82.35 -35.2 -81.05 -35.6 -78.35 -33.8 L-82.25 -33.5 -85.35 -31.2" fill="#3b5d8b" fill-rule="evenodd" stroke="none"/>
    <path d="M-86.8 -64.45 Q-86.65 -66.55 -85.4 -67.4 -84.1 -66.25 -83.2 -64.4 -78.75 -55.3 -84.6 -48.45 -77.0 -54.85 -71.35 -50.7 -65.7 -46.55 -68.05 -41.65 L-66.15 -40.25 -66.55 -38.5 Q-68.4 -33.2 -71.25 -33.25 L-78.35 -33.8 Q-81.05 -35.6 -82.35 -35.2 -84.25 -34.65 -88.05 -31.65 -88.55 -33.4 -88.05 -35.1 -87.5 -37.15 -85.6 -38.0 -82.45 -39.4 -80.6 -39.7 L-89.65 -44.75 Q-91.3 -45.95 -92.5 -49.7 L-94.6 -56.45 Q-95.25 -58.8 -94.35 -59.25 L-91.5 -60.9 Q-92.65 -63.8 -90.65 -64.8 -88.7 -65.85 -86.8 -64.45" fill="#4e79b3" fill-rule="evenodd" stroke="none"/>
    <path d="M-91.3 23.95 L-91.55 23.85 -89.1 23.0 -89.95 24.15 -90.95 24.45 -91.3 23.95" fill="#356ba8" fill-rule="evenodd" stroke="none"/>
    <path d="M-140.8 36.1 L-141.1 35.65 -141.0 35.4 -140.2 35.0 -139.4 37.15 -140.8 36.1" fill="#0f2950" fill-rule="evenodd" stroke="none"/>
  </g>
</svg>
