<?xml version="1.0" encoding="UTF-8" standalone="no"?>
<svg xmlns:xlink="http://www.w3.org/1999/xlink" height="72.6px" width="242.8px" xmlns="http://www.w3.org/2000/svg">
  <g transform="matrix(1.0, 0.0, 0.0, 1.0, 175.75, 35.35)">
    <path d="M58.55 -30.35 L60.0 -27.1 63.25 -18.25 64.8 -14.0 Q65.95 -10.8 66.6 -7.55 67.1 -5.25 67.05 -2.95 L66.8 -2.0 66.35 -1.0 64.8 1.7 Q64.05 2.9 62.85 3.55 61.2 4.6 59.3 5.25 L57.4 5.85 53.05 7.1 Q52.1 7.4 51.25 7.9 L50.55 8.25 49.25 9.0 Q48.25 9.6 47.3 10.3 L48.7 11.95 46.15 13.1 Q42.65 14.4 38.95 14.85 L34.65 14.7 31.9 13.95 38.75 5.65 45.0 1.85 Q47.9 0.0 50.35 -2.3 52.25 -4.1 53.65 -6.3 54.2 -7.15 54.15 -8.2 54.0 -11.85 53.25 -15.5 L51.75 -20.75 51.3 -21.95 49.6 -26.05 47.3 -31.35 48.95 -34.5 49.6 -35.35 53.05 -34.7 Q55.1 -34.0 56.7 -32.6 57.8 -31.65 58.55 -30.35" fill="#185586" fill-rule="evenodd" stroke="none"/>
    <path d="M25.45 -1.45 Q26.0 -3.3 26.95 -5.0 27.65 -6.15 28.8 -6.75 30.1 -7.4 31.6 -7.35 L35.85 -6.85 39.05 -6.25 41.5 -6.15 43.95 -6.55 44.65 -7.6 42.1 -12.8 Q40.9 -15.4 39.9 -18.15 39.15 -20.35 38.75 -22.7 38.5 -24.4 39.0 -26.0 39.5 -27.65 40.65 -28.9 L42.4 -30.15 46.5 -32.15 47.75 -32.2 50.8 -31.75 52.65 -31.15 54.0 -29.8 55.5 -28.45 56.2 -27.35 57.25 -25.95 58.15 -24.6 Q59.0 -22.8 59.45 -20.9 L60.15 -17.65 60.4 -15.9 60.5 -11.95 Q60.35 -7.1 59.8 -2.3 59.6 -0.6 58.85 0.95 58.45 1.8 57.65 2.25 55.8 3.3 53.8 3.95 L49.3 5.5 Q48.5 5.8 47.75 6.25 L45.3 7.75 44.7 8.1 Q42.9 9.1 41.2 10.15 L37.6 12.25 Q36.0 13.15 34.2 13.3 31.5 13.6 28.9 12.7 26.65 12.0 24.6 10.7 24.35 9.2 24.4 7.7 24.6 4.25 25.05 0.75 L25.45 -1.45" fill="#102a41" fill-rule="evenodd" stroke="none"/>
    <path d="M3.55 -8.05 L3.75 -7.6 3.85 -7.35 4.05 -7.45 4.7 -7.15 Q6.05 -5.6 7.65 -4.45 10.35 -2.5 13.45 -1.3 16.8 0.0 20.2 1.15 L22.8 2.05 28.75 4.0 31.6 4.95 34.55 5.8 35.1 5.9 34.35 6.7 33.1 7.85 32.3 8.5 29.6 8.0 25.25 7.25 17.4 6.85 11.05 6.55 6.95 5.8 4.3 4.8 1.95 3.35 -0.2 1.5 -8.5 -3.05 -28.85 0.0 -28.5 -8.25 -10.95 -8.65 -10.75 -8.55 -8.1 -8.9 -6.65 -8.9 -5.35 -8.85 -3.4 -9.05 -2.7 -8.3 -0.6 -10.05 -0.5 -9.8 -0.25 -9.9 0.2 -10.05 1.15 -10.4 1.55 -10.05 2.9 -8.85 3.55 -8.05" fill="#4e79b3" fill-rule="evenodd" stroke="none"/>
    <path d="M1.8 -14.6 L4.95 -13.1 10.95 -10.0 15.2 -7.5 Q17.4 -6.1 19.7 -4.9 20.7 -4.35 21.8 -4.0 L31.55 -1.05 34.75 0.0 Q35.2 0.2 35.5 0.5 L36.5 1.65 36.35 2.8 36.15 3.65 35.7 4.8 35.1 5.9 34.55 5.8 28.75 4.0 22.8 2.05 20.2 1.15 Q16.8 0.0 13.45 -1.3 10.35 -2.5 7.5 -4.25 L5.95 -5.5 4.7 -7.15 4.05 -7.45 3.85 -7.35 3.55 -8.0 2.9 -8.85 1.55 -10.05 1.15 -10.4 0.2 -10.05 -0.25 -9.9 -0.5 -9.8 -0.6 -10.05 -2.7 -8.3 -3.4 -9.05 -6.65 -9.0 -8.1 -8.95 -9.0 -8.9 -10.75 -8.55 -10.95 -8.65 -28.5 -8.25 -28.15 -12.15 -17.35 -12.55 -14.65 -12.65 -8.5 -12.8 -6.55 -13.0 -6.0 -13.05 -6.35 -12.75 -3.35 -13.4 -6.0 -13.05 -5.5 -13.5 -4.65 -14.1 -3.3 -14.65 -2.65 -14.35 -1.4 -14.5 -0.05 -14.55 1.8 -14.6" fill="#3b5d8b" fill-rule="evenodd" stroke="none"/>
    <path d="M18.8 -8.35 Q20.6 -9.65 22.65 -10.35 26.2 -11.45 29.9 -11.8 L32.7 -11.8 32.15 -9.75 34.45 -9.35 35.95 -9.25 36.7 -9.2 38.75 -9.25 43.15 -9.9 45.15 -10.15 Q47.15 -10.35 49.1 -10.15 50.45 -10.0 51.65 -9.3 L54.2 -7.5 55.0 -6.8 55.6 -6.05 Q56.65 -3.95 57.15 -1.65 57.95 1.6 58.25 4.95 L58.65 9.45 59.4 18.9 59.4 22.4 Q59.35 23.95 58.75 25.25 57.9 27.2 56.3 28.65 L53.45 30.75 52.5 30.25 49.65 28.1 49.55 22.3 49.35 17.8 49.35 16.55 48.85 13.6 Q48.3 10.25 47.35 7.05 46.7 4.9 45.2 3.2 44.15 2.0 42.6 1.35 39.85 0.25 36.95 -0.3 L26.35 -1.9 16.6 -6.55 18.8 -8.35" fill="#185586" fill-rule="evenodd" stroke="none"/>
    <path d="M36.0 -6.2 L40.7 -6.7 44.9 -6.8 Q45.85 -6.7 46.6 -6.1 L48.75 -3.6 Q51.3 0.55 53.45 4.9 L55.05 8.55 55.55 10.2 56.25 13.4 Q56.65 15.4 56.65 17.35 L56.45 18.95 56.0 20.7 55.8 21.25 55.9 22.0 55.1 23.8 54.45 25.65 53.05 26.9 50.45 28.6 49.25 29.1 46.5 28.95 43.2 28.95 42.5 29.0 39.9 26.7 Q38.8 25.45 38.3 23.75 37.65 21.5 37.45 19.15 L37.15 13.4 37.25 7.6 36.2 6.95 33.75 7.65 Q32.65 8.05 31.6 8.75 L29.0 10.6 25.3 12.9 Q24.0 13.6 22.5 13.55 21.2 13.5 20.1 12.7 18.55 11.6 17.25 10.1 L15.95 8.3 12.45 2.25 Q11.8 0.95 11.4 -0.55 12.75 -2.55 14.45 -4.15 16.45 -6.0 19.0 -6.95 L22.55 -7.4 26.6 -7.0 30.7 -6.65 31.4 -6.6 34.25 -6.2 36.0 -6.2" fill="#102a41" fill-rule="evenodd" stroke="none"/>
    <path d="M22.45 -0.25 L20.15 1.65 13.95 7.35 12.7 8.55 7.85 13.3 Q6.15 14.9 4.75 16.65 2.8 19.2 1.4 22.1 1.0 23.0 0.85 24.0 L0.4 24.55 0.15 24.6 0.15 24.85 0.15 25.35 -0.05 26.3 -0.8 27.95 -1.0 28.45 -2.0 28.55 -2.5 28.6 -2.75 28.6 -2.75 28.85 -4.75 28.9 -5.7 29.15 -7.35 28.15 -8.55 27.6 -10.65 26.5 -12.1 25.45 -12.35 25.5 -27.9 17.35 -24.55 9.8 -7.65 21.55 -7.05 18.3 Q-6.7 16.95 -5.95 15.8 -4.4 13.5 -2.4 11.5 -0.95 10.0 0.85 8.95 3.6 7.35 6.45 6.0 10.1 4.35 13.45 2.35 L17.05 -0.2 19.3 -1.8 20.35 -1.55 21.9 -1.0 22.95 -0.6 22.45 -0.25" fill="#4e79b3" fill-rule="evenodd" stroke="none"/>
    <path d="M22.95 -0.6 L23.95 0.1 24.85 1.0 25.4 1.7 26.0 2.65 25.55 4.1 25.1 4.85 22.65 7.2 15.05 14.0 13.5 15.7 10.55 19.9 7.7 24.0 3.6 29.3 1.35 32.0 -0.35 32.7 -1.6 33.25 -2.8 33.65 -3.25 34.2 -4.75 34.25 -5.7 34.05 -7.55 33.05 Q-9.75 31.65 -12.0 30.35 L-17.4 27.4 -19.8 26.15 -29.3 21.0 -27.9 17.35 -12.35 25.5 -12.1 25.45 -10.65 26.55 -9.95 27.0 -8.6 27.65 -5.7 29.15 -4.75 28.9 -2.75 28.85 -2.75 28.6 -2.5 28.6 -2.0 28.55 -1.0 28.45 -0.8 27.95 -0.05 26.3 0.15 25.35 0.15 24.6 0.4 24.55 0.85 24.0 Q1.0 23.0 1.3 22.05 1.6 21.1 2.15 20.25 4.0 17.45 6.3 15.05 L11.4 10.0 13.4 8.1 18.0 3.75 22.5 -0.25 22.95 -0.6" fill="#3b5d8b" fill-rule="evenodd" stroke="none"/>
    <path d="M-47.7 -1.9 L-48.4 -9.1 -44.15 -12.0 -44.15 -10.2 -41.25 -15.15 -40.25 -16.9 -39.4 -18.3 -35.65 -16.9 -33.4 -17.55 -32.0 -17.95 -30.6 -18.25 -27.15 -18.55 -26.4 -18.5 -25.85 -18.5 -24.85 -18.5 -23.6 -17.4 -22.35 -16.25 -21.85 -14.3 -21.6 -13.2 -21.2 -12.05 -24.8 -10.65 Q-28.55 -9.4 -32.4 -8.7 L-36.25 -8.05 -38.7 -7.5 -47.7 -1.9" fill="#224870" fill-rule="evenodd" stroke="none"/>
    <path d="M-38.7 -7.5 L-36.25 -8.1 -28.25 -9.55 Q-26.45 -9.9 -24.8 -10.55 -22.95 -11.25 -21.2 -12.05 L-21.4 -9.75 -21.75 -6.0 -22.1 -2.9 -22.45 0.05 -22.85 2.3 Q-23.25 4.0 -23.95 5.6 L-24.7 6.7 -25.3 7.1 -25.0 10.35 -24.5 10.55 -24.85 11.85 -24.55 13.05 -24.5 13.3 -24.45 10.2 -14.45 13.65 -27.65 33.85 -43.15 25.8 -45.15 18.95 -46.1 14.05 -46.85 7.85 -47.7 -1.9 -38.7 -7.5" fill="#2e6399" fill-rule="evenodd" stroke="none"/>
    <path d="M-14.45 13.65 L-18.95 21.6 -24.5 13.3 -24.5 13.05 -24.85 11.85 -24.5 10.55 -31.45 3.65 -24.95 4.55 -22.5 5.1 -19.95 5.85 -11.2 9.0 -14.45 13.65" fill="#224870" fill-rule="evenodd" stroke="none"/>
    <path d="M-38.8 -13.15 L-38.05 -9.65 -35.4 -9.3 -34.5 -6.85 -33.85 -4.65 Q-33.6 -3.4 -33.6 -2.2 L-33.55 0.35 -33.4 15.65 -33.5 18.9 -33.9 21.7 -34.7 24.25 -35.65 26.65 -36.2 4.35 -37.05 -5.1 -38.05 -9.65 -39.65 -9.9 -38.95 -12.6 -38.8 -13.15" fill="#14305e" fill-rule="evenodd" stroke="none"/>
    <path d="M-85.25 -12.15 L-81.4 -9.0 -79.25 -6.7 -76.25 -2.75 Q-76.0 0.0 -76.3 2.65 -76.8 7.7 -78.5 12.45 -79.8 16.0 -81.9 19.2 L-83.95 22.1 -85.7 24.05 -87.25 25.35 -87.2 25.85 -87.65 26.15 -88.25 24.75 -85.95 22.5 Q-82.25 18.45 -82.3 13.1 -82.3 2.1 -91.95 4.15 L-91.65 0.0 Q-91.1 -3.4 -89.6 -6.45 -88.0 -9.6 -85.9 -12.45 L-85.25 -12.15" fill="#14305e" fill-rule="evenodd" stroke="none"/>
    <path d="M-44.15 -5.7 L-53.65 -5.6 -58.65 -5.35 -62.4 -5.0 -70.05 -3.95 -76.25 -2.75 -78.05 -5.55 -80.15 -8.1 -85.15 -12.25 -49.55 -13.0 -38.65 -14.25 -38.4 -14.3 -37.05 -5.1 -44.15 -5.7" fill="#1b4777" fill-rule="evenodd" stroke="none"/>
    <path d="M-76.25 -2.75 L-70.05 -3.95 -62.4 -5.0 -58.65 -5.35 -53.65 -5.6 -44.15 -5.7 -37.05 -5.1 -36.2 4.35 -35.65 26.65 -36.95 28.75 -70.1 31.3 -71.85 31.6 -76.3 32.15 -82.3 32.7 -85.6 29.3 -87.65 26.4 -87.65 26.15 -87.2 25.85 -87.25 25.35 -85.7 24.05 -81.95 19.15 Q-79.8 16.0 -78.5 12.45 -76.8 7.7 -76.3 2.65 -76.0 0.0 -76.25 -2.75" fill="#336da1" fill-rule="evenodd" stroke="none"/>
    <path d="M-85.95 22.5 L-85.3 21.75 -84.2 24.0 Q-106.35 35.15 -112.1 36.1 -115.75 36.75 -125.05 35.25 L-141.5 32.3 -139.8 27.35 Q-130.85 27.25 -123.85 27.55 -116.85 27.9 -113.6 30.9 L-104.4 27.1 Q-94.05 31.4 -85.95 22.5" fill="#4e79b3" fill-rule="evenodd" stroke="none"/>
    <path d="M-104.6 33.6 Q-109.75 35.7 -112.1 36.1 -115.75 36.75 -125.05 35.25 L-132.15 34.0 -104.6 33.6 Q-97.25 30.55 -84.2 24.0 L-82.45 27.6 Q-88.5 31.05 -94.4 33.45 L-104.6 33.6 M-142.15 34.15 L-141.5 32.3 -132.15 34.0 -142.15 34.15" fill="#3b5d8b" fill-rule="evenodd" stroke="none"/>
    <path d="M-80.75 12.75 L-70.95 30.15 -83.4 35.7 -87.5 24.1 -85.95 22.5 Q-82.6 18.8 -82.3 14.1 L-80.75 12.75" fill="#336da1" fill-rule="evenodd" stroke="none"/>
    <path d="M-155.05 35.8 L-160.6 32.95 Q-161.1 31.4 -162.05 32.55 -162.6 33.25 -165.7 34.05 L-169.8 35.2 Q-171.05 35.8 -171.8 35.65 -172.75 35.5 -173.7 34.35 L-174.1 33.4 -170.45 33.1 Q-165.7 31.75 -158.9 19.6 -159.15 31.5 -152.3 33.0 -145.45 34.5 -143.35 29.5 L-141.0 30.0 -144.95 35.65 Q-145.8 36.95 -148.65 37.2 -151.9 37.45 -155.05 35.8" fill="#3b5d8b" fill-rule="evenodd" stroke="none"/>
    <path d="M-149.0 7.85 L-148.35 7.6 Q-147.2 7.2 -146.85 9.6 L-146.55 13.45 Q-146.45 14.35 -144.2 16.6 -147.4 15.75 -147.9 14.5 -148.7 12.7 -149.0 7.85" fill="#3b5d8b" fill-rule="evenodd" stroke="none"/>
    <path d="M-151.55 10.15 Q-150.65 8.65 -149.0 7.85 -148.7 12.7 -147.9 14.5 -147.4 15.75 -144.2 16.6 L-139.1 21.55 Q-137.2 23.7 -140.0 28.55 L-141.0 30.0 -143.35 29.5 Q-145.45 34.5 -152.3 33.0 -159.15 31.5 -159.35 21.55 -160.65 30.5 -170.45 33.1 L-174.1 33.4 Q-174.3 31.95 -172.85 30.45 -175.1 29.95 -175.65 27.75 -176.2 25.6 -173.25 24.55 L-173.9 21.35 Q-174.15 20.4 -171.95 19.3 L-165.5 16.45 Q-161.85 14.85 -159.9 15.3 L-150.1 18.8 Q-151.15 17.2 -152.1 13.9 -152.7 11.95 -151.55 10.15" fill="#4e79b3" fill-rule="evenodd" stroke="none"/>
    <path d="M-95.25 -22.6 Q-94.15 -22.75 -93.35 -23.4 L-92.9 -23.75 -90.9 -19.85 Q-90.2 -18.35 -89.9 -16.85 -89.35 -13.9 -89.1 -10.95 L-102.75 -22.75 Q-99.7 -21.95 -95.25 -22.6" fill="#2e6399" fill-rule="evenodd" stroke="none"/>
    <path d="M-114.3 32.85 L-117.85 35.75 -142.35 35.8 -141.6 32.8 -140.4 31.85 -138.95 31.2 -132.85 29.3 -114.3 32.85" fill="#4e79b3" fill-rule="evenodd" stroke="none"/>
    <path d="M-82.25 -1.0 L-82.0 -2.4 -81.9 -2.25 -80.55 5.45 -80.15 10.15 -80.1 13.25 -80.35 13.95 -80.8 15.8 -81.9 18.25 -82.3 18.9 -82.05 19.0 -83.05 20.75 Q-84.1 22.6 -85.45 24.25 -86.45 25.6 -87.8 26.65 L-91.8 29.6 Q-92.4 30.05 -93.05 30.35 L-95.0 31.4 -96.25 32.05 -99.85 33.7 -102.05 34.25 -103.5 34.35 -110.3 33.3 -102.2 30.0 -99.7 28.4 Q-92.2 29.35 -85.95 22.5 -82.25 18.45 -82.3 13.1 -82.3 0.5 -94.9 5.0 -95.4 4.6 -95.95 4.35 L-97.6 2.95 -94.45 -0.1 -92.55 -1.45 -91.25 -1.3 -85.8 2.3 Q-84.6 3.0 -83.2 3.3 L-82.5 2.55 -82.25 -1.0" fill="#1d4d82" fill-rule="evenodd" stroke="none"/>
    <path d="M-96.25 -1.95 L-90.85 -1.95 Q-92.35 -1.05 -93.95 -0.5 -95.5 0.1 -97.2 0.25 L-97.4 0.3 -97.15 -1.8 -96.25 -1.95" fill="#173d78" fill-rule="evenodd" stroke="none"/>
    <path d="M-138.25 20.5 L-137.95 20.8 -137.8 20.95 -138.3 20.95 -138.25 20.5" fill="#0f2950" fill-rule="evenodd" stroke="none"/>
    <path d="M-82.5 9.4 L-82.6 9.6 -82.7 9.1 -82.5 9.4" fill="#356ba8" fill-rule="evenodd" stroke="none"/>
    <path d="M-137.05 34.4 L-132.35 37.25 -140.2 35.0 -133.6 31.75 -137.05 34.4" fill="#0f2950" fill-rule="evenodd" stroke="none"/>
    <path d="M-139.4 37.15 L-140.8 36.1 -141.1 35.65 -141.0 35.4 -140.2 35.0 -139.4 37.15" fill="#0f2950" fill-rule="evenodd" stroke="none"/>
    <path d="M-129.4 32.9 L-128.9 33.65 -128.2 34.4 -124.5 34.4 -126.35 34.95 Q-128.4 35.25 -130.45 35.0 L-132.7 34.25 -131.7 31.35 -129.0 31.65 -129.2 32.1 -129.4 32.9" fill="#0f2950" fill-rule="evenodd" stroke="none"/>
    <path d="M-94.7 -22.7 Q-94.35 -22.8 -93.95 -23.0 L-92.4 -19.6 -94.7 -22.7" fill="#0f2950" fill-rule="evenodd" stroke="none"/>
    <path d="M-97.0 -22.4 L-95.3 -22.6 -94.2 -19.95 -97.0 -22.4" fill="#0f2950" fill-rule="evenodd" stroke="none"/>
    <path d="M-86.8 4.15 Q-88.85 3.5 -91.75 4.1 L-90.8 2.95 Q-88.1 0.25 -87.05 1.5 -86.4 2.3 -86.8 4.15" fill="#102a41" fill-rule="evenodd" stroke="none"/>
    <path d="M-91.5 4.05 L-91.7 4.1 -91.4 3.6 -91.5 4.05" fill="#98adcf" fill-rule="evenodd" stroke="none"/>
    <path d="M-86.4 2.5 L-90.35 2.85 -92.1 4.2 -94.9 5.0 -95.8 4.4 Q-92.25 1.7 -90.4 1.1 -89.05 0.75 -86.4 2.5" fill="#3b5d8b" fill-rule="evenodd" stroke="none"/>
  </g>
</svg>
