<?xml version="1.0" encoding="UTF-8" standalone="no"?>
<svg xmlns:xlink="http://www.w3.org/1999/xlink" height="73.0px" width="114.2px" xmlns="http://www.w3.org/2000/svg">
  <g transform="matrix(1.0, 0.0, 0.0, 1.0, 122.2, 32.45)">
    <path d="M-121.85 -7.75 L-121.7 -4.55 -121.2 -4.55 -120.9 -6.05 Q-119.45 -13.2 -119.1 -15.65 L-119.0 -16.45 -119.3 -15.75 Q-120.75 -14.25 -121.35 -11.85 -121.85 -10.05 -121.85 -7.75 M-122.15 -2.4 L-122.05 -7.95 -121.95 -10.85 -121.8 -13.6 Q-120.75 -15.15 -119.85 -16.8 L-118.4 -19.9 -115.75 -22.15 -114.6 -23.1 Q-113.25 -24.35 -112.7 -25.65 L-112.7 -25.75 -112.65 -25.75 -112.2 -26.3 -111.95 -26.55 -111.45 -26.8 -109.5 -28.0 -107.6 -29.3 -106.75 -29.8 -106.65 -29.9 -104.6 -31.0 -103.6 -31.0 -103.4 -31.55 -101.0 -32.45 -93.4 -31.55 -94.7 -31.1 -93.7 -31.25 -92.95 -31.45 -69.95 -28.8 Q-67.75 -27.95 -65.9 -26.75 L-65.4 -26.65 -65.5 -27.4 Q-63.15 -26.45 -61.35 -26.9 L-60.0 -26.05 -60.6 -26.15 -61.35 -26.0 -61.7 -25.2 -60.6 -25.1 -60.65 -24.05 -59.6 -23.95 -59.65 -22.9 -58.6 -22.8 -57.5 -22.7 -57.6 -21.7 -56.5 -21.55 -55.45 -21.4 -54.35 -21.3 -54.4 -20.25 -53.35 -20.15 -52.25 -20.05 -51.2 -19.9 -51.25 -18.85 -50.2 -18.75 Q-48.0 -17.9 -48.5 -19.35 L-47.05 -18.4 -46.6 -18.15 -46.55 -17.95 -48.1 -17.5 -47.1 -17.55 Q-46.75 -17.7 -46.5 -17.8 L-45.85 -16.85 -44.1 -15.0 Q-44.85 -14.95 -45.05 -14.05 L-46.1 -14.2 Q-47.85 -17.15 -50.45 -15.9 L-51.4 -15.8 -52.5 -15.95 Q-52.7 -18.25 -54.55 -19.15 L-55.55 -19.4 -56.6 -19.5 -58.7 -19.75 -58.9 -20.4 Q-64.0 -23.2 -63.0 -20.25 L-64.05 -20.4 -65.15 -20.5 -66.2 -20.65 -67.15 -20.55 -68.35 -19.9 -69.45 -20.0 -70.5 -20.1 -71.35 -19.95 -71.65 -19.25 -72.3 -19.1 Q-72.8 -18.35 -72.85 -17.3 L-73.6 -17.15 -73.95 -16.45 -74.0 -15.4 -74.5 -15.35 Q-75.15 -13.0 -75.3 -10.4 L-75.35 -9.4 -76.2 -9.35 -76.3 -9.3 -77.5 -8.6 -77.45 -9.65 -77.5 -10.3 -77.8 -11.55 -78.45 -11.8 -78.4 -12.85 -77.6 -13.0 Q-77.3 -13.2 -77.25 -13.7 L-77.15 -15.75 -77.1 -16.8 Q-78.5 -21.4 -81.5 -23.0 L-82.35 -23.4 Q-86.25 -24.85 -92.45 -22.1 L-93.8 -21.45 -94.1 -20.8 -95.15 -20.85 Q-99.5 -20.25 -102.35 -17.9 -105.0 -15.7 -106.35 -12.0 L-107.25 -11.85 Q-109.75 -10.7 -107.6 -8.05 L-108.65 -8.25 Q-111.45 -9.15 -110.9 -6.4 L-110.95 -5.35 Q-110.4 -5.3 -110.15 -5.0 -109.9 -4.75 -109.95 -4.2 -109.95 -3.7 -110.2 -3.3 L-111.1 -2.3 -111.0 -4.3 -110.95 -5.35 -111.55 -5.35 Q-112.15 -3.45 -112.25 -1.4 L-112.3 -0.4 -112.3 0.6 -112.15 1.6 Q-109.25 8.3 -104.8 13.85 -101.7 17.7 -97.8 21.0 L-95.15 23.1 -91.95 23.5 -90.9 23.6 -90.95 24.65 -89.9 24.75 -89.9 25.8 -89.8 26.35 Q-86.8 27.45 -84.95 29.2 L-84.7 29.5 -80.4 29.05 -79.35 29.1 -79.3 29.6 Q-74.45 30.7 -70.8 32.0 L-70.65 32.05 -68.25 33.0 -65.6 34.25 Q-66.15 34.2 -66.7 34.65 L-67.8 34.5 -68.85 34.4 -70.95 34.15 -72.05 34.05 -73.15 33.9 -73.95 34.05 Q-74.25 34.25 -74.25 34.8 L-75.2 34.85 Q-75.85 35.1 -76.4 35.55 L-77.25 35.75 -77.4 35.95 -77.55 36.45 -78.4 36.4 -78.6 36.35 -79.6 36.45 Q-80.25 36.65 -80.8 37.1 L-81.15 37.05 -81.7 36.9 -81.85 36.85 -87.5 35.25 -88.0 35.1 -88.3 35.05 -90.1 34.5 -91.55 34.05 -92.85 33.3 -93.35 33.0 Q-95.95 31.35 -98.1 29.0 L-101.95 28.6 -102.1 28.55 -102.15 28.55 -102.5 28.5 Q-102.35 28.35 -102.65 28.45 L-103.15 28.1 -103.85 27.6 -104.55 27.15 -104.65 27.05 -105.05 26.85 -105.45 26.6 -105.9 26.4 -105.95 26.35 -107.1 25.85 -107.1 25.8 -107.15 25.75 -107.9 24.2 -109.4 21.4 -110.05 20.2 Q-112.5 16.0 -115.75 11.5 L-119.05 7.05 -118.9 7.95 -117.2 11.2 -115.3 14.55 -118.2 11.15 -119.55 9.35 -121.05 7.45 -121.1 6.9 Q-121.15 5.2 -121.5 3.45 L-122.2 1.6 -122.2 -0.05 -122.05 1.55 -121.45 1.65 -122.15 -2.4 M-56.45 -24.1 L-54.95 -23.4 -55.35 -23.45 -56.4 -23.6 -56.45 -24.1 M-54.7 -23.25 L-52.55 -22.3 -50.9 -21.85 -50.05 -20.8 -50.1 -20.8 -51.2 -20.95 Q-51.15 -21.45 -51.4 -21.75 L-52.2 -22.05 -53.25 -22.2 -54.3 -22.3 Q-54.3 -22.85 -54.55 -23.1 L-54.7 -23.25 M-49.05 -19.85 L-48.75 -19.6 -49.05 -19.65 -49.05 -19.85 M-25.15 21.05 L-25.25 21.15 -25.25 21.05 -25.15 21.05 M-35.35 29.1 L-37.35 31.1 -37.6 31.15 -37.55 30.9 -36.65 29.9 -36.45 29.45 -36.4 29.0 -35.75 29.05 -35.35 29.1 M-39.2 31.65 L-39.75 31.85 -39.75 31.65 -39.2 31.65 M-75.75 40.55 L-76.75 40.55 -77.0 40.4 -75.75 40.55 M-80.85 38.85 L-81.5 38.55 -82.15 38.3 -82.6 38.15 -83.7 37.85 -84.5 37.7 -83.85 37.75 -83.6 37.8 -82.3 37.95 -81.9 38.0 -80.85 38.1 -80.85 38.85 M-100.9 -28.65 Q-100.0 -28.95 -100.5 -28.8 L-104.1 -28.0 -106.65 -27.4 -105.6 -27.4 -103.45 -28.0 -100.9 -28.65 M-99.05 -29.55 Q-98.5 -29.5 -98.2 -29.75 -93.05 -32.65 -99.05 -29.55 M-107.8 -25.45 L-107.8 -26.5 -107.8 -27.05 Q-107.9 -27.95 -108.65 -26.95 L-110.05 -24.7 -110.8 -24.55 -111.1 -23.8 -111.45 -23.85 -112.15 -23.8 Q-113.7 -23.45 -114.85 -22.65 -116.9 -21.25 -117.65 -18.35 L-117.85 -17.7 -117.85 -17.45 -117.1 -17.6 Q-116.8 -17.85 -116.8 -18.35 -116.25 -18.3 -115.95 -18.55 -115.7 -18.75 -115.65 -19.25 L-115.2 -19.95 Q-113.9 -21.7 -111.35 -22.25 -111.2 -22.3 -111.15 -22.8 L-110.6 -22.85 -110.35 -22.95 -110.05 -23.7 -109.25 -23.9 Q-108.95 -24.1 -108.95 -24.6 L-108.15 -24.75 Q-107.85 -24.95 -107.8 -25.45 M-84.9 11.0 L-84.85 9.95 -83.8 10.1 -83.8 11.1 -84.9 11.0 M-83.7 8.05 L-82.75 7.05 -82.5 6.15 -81.45 6.3 -81.5 7.35 -80.45 7.45 -80.35 6.4 -79.3 6.55 Q-79.35 7.05 -79.65 7.3 L-80.45 7.45 -80.5 8.45 -81.55 8.3 -82.35 8.5 -82.65 9.2 -81.6 9.35 -81.65 10.35 -82.7 10.25 -83.8 10.1 -83.75 9.1 -83.7 8.05 M-82.8 12.3 L-82.85 13.3 -83.95 13.15 -83.9 12.15 -83.8 11.1 -82.8 11.25 -82.8 12.3 M-65.2 -19.5 L-64.1 -19.35 -64.15 -18.35 -65.25 -18.45 -65.2 -19.5 M-72.4 -3.95 L-71.3 -3.8 -71.35 -2.75 -71.4 -1.8 -72.5 -1.85 -72.4 -2.95 -72.4 -3.95 M-69.25 -2.55 L-68.15 -2.45 -68.2 -1.4 -69.25 -1.55 -70.35 -1.65 -70.25 -2.65 -69.25 -2.55 M-67.1 -2.3 L-66.0 -2.15 -64.95 -2.05 Q-65.0 -1.55 -65.2 -1.45 L-65.95 -1.25 -67.15 -1.25 -67.1 -2.15 -67.1 -2.3 M-62.75 -2.8 L-61.7 -2.7 -60.65 -2.55 -60.7 -1.5 -60.7 -0.5 -61.8 -0.65 -62.55 -1.85 -62.75 -2.8 M-30.5 25.55 L-30.65 25.65 -30.9 25.8 -30.85 25.5 -30.5 25.55 M-31.9 26.45 L-31.95 26.5 -31.95 26.4 -31.9 26.45 M-65.65 34.75 L-65.6 34.25 -64.55 34.9 -65.65 34.75 M-57.15 35.75 L-56.8 35.05 Q-56.55 34.8 -56.0 34.9 L-54.95 35.0 -53.85 35.1 -50.45 35.2 -49.65 35.15 -49.55 34.85 -49.55 34.6 -49.15 34.65 -48.45 34.75 -48.2 34.75 -49.3 35.3 Q-51.8 36.6 -53.95 38.25 L-55.75 39.8 -56.1 40.1 -56.2 40.2 -56.45 40.05 -56.8 39.9 -56.75 39.6 Q-56.0 39.3 -55.35 38.8 L-55.05 38.15 -55.05 38.1 -55.05 38.05 -54.3 37.55 -54.0 37.45 -53.85 37.4 -52.9 37.25 Q-52.35 36.8 -52.3 36.3 L-52.85 36.25 -53.0 36.25 -53.9 36.15 -55.0 36.05 -56.0 35.9 -57.15 35.75 M-81.3 24.75 L-82.35 24.6 -83.4 24.5 Q-83.35 22.95 -82.75 21.65 L-82.2 21.6 -82.25 22.6 -82.3 23.6 -81.2 23.75 -81.3 24.75 M-83.2 20.45 L-84.3 20.3 Q-84.25 19.25 -83.75 18.5 L-83.1 18.35 -83.15 19.4 -83.2 20.45 M-83.95 14.2 L-84.25 15.1 -85.15 16.1 -85.1 15.05 -85.05 14.05 -83.95 14.2 M-111.35 2.8 Q-110.7 0.55 -110.8 2.85 L-111.35 2.8 M-120.1 6.95 L-119.6 6.95 Q-121.1 -1.7 -120.1 6.95 M-84.05 27.45 L-84.65 27.4 Q-84.0 25.15 -84.05 27.45 M-100.95 21.4 Q-100.85 19.1 -101.5 21.35 L-100.95 21.4" fill="#000000" fill-rule="evenodd" stroke="none"/>
    <path d="M-121.85 -7.75 Q-121.85 -10.05 -121.35 -11.85 -120.75 -14.25 -119.3 -15.75 L-119.0 -16.45 -119.1 -15.65 Q-119.45 -13.2 -120.9 -6.05 L-121.2 -4.55 -121.7 -4.55 -121.85 -7.75 M-122.2 -0.05 L-122.15 -2.4 -121.45 1.65 -122.05 1.55 -122.2 -0.05 M-93.4 -31.55 L-92.95 -31.45 -93.7 -31.25 -94.7 -31.1 -93.4 -31.55 M-69.95 -28.8 L-67.75 -28.55 -67.1 -28.25 Q-66.3 -27.75 -65.5 -27.4 L-65.4 -26.65 -65.9 -26.75 Q-67.75 -27.95 -69.95 -28.8 M-54.95 -23.4 L-54.7 -23.25 -54.55 -23.1 Q-54.3 -22.85 -54.3 -22.3 L-55.35 -22.45 -55.35 -23.45 -54.95 -23.4 M-50.05 -20.8 L-49.05 -19.85 -49.05 -19.65 -50.15 -19.75 -50.1 -20.8 -50.05 -20.8 M-46.55 -17.95 L-46.55 -17.9 -46.5 -17.8 Q-46.75 -17.7 -47.1 -17.55 L-48.1 -17.5 -46.55 -17.95 M-44.1 -15.0 L-42.9 -13.8 -45.05 -14.05 Q-44.85 -14.95 -44.1 -15.0 M-41.9 -12.9 L-41.65 -12.6 -41.9 -12.65 -41.9 -12.9 M-24.1 18.3 L-24.1 18.65 -24.1 18.75 -24.1 18.3 M-25.25 21.15 L-25.8 21.65 -26.35 22.15 -25.9 21.15 -25.35 21.05 -25.25 21.05 -25.25 20.95 -25.2 20.0 -24.65 20.1 -24.55 20.1 -24.65 20.3 -24.9 20.8 -25.15 21.05 -25.25 21.05 -25.25 21.15 M-32.85 27.15 L-33.1 27.3 -34.2 28.15 Q-34.15 27.65 -33.9 27.45 L-33.1 27.3 -32.85 26.6 -32.8 26.55 -31.95 26.4 -31.9 25.55 -31.9 25.4 -30.85 25.5 -30.9 25.8 -31.3 26.05 -31.9 26.45 -31.95 26.4 -31.95 26.5 -32.85 27.15 M-34.25 28.2 Q-34.8 28.6 -35.35 29.1 L-35.25 28.8 -35.0 28.4 -34.25 28.2 M-37.6 31.15 L-37.95 31.25 -39.2 31.65 -39.75 31.65 -39.75 31.85 -40.5 32.1 -40.75 32.15 -40.7 32.05 -40.6 31.85 -40.55 31.75 -40.2 31.65 -39.75 31.65 -38.55 30.95 -37.7 30.85 -37.55 30.9 -37.5 30.55 -37.5 30.1 -37.5 29.85 -37.45 28.85 -36.55 29.0 -36.4 29.0 -36.45 29.45 -36.65 29.9 -37.55 30.9 -37.6 31.15 M-85.45 37.55 L-85.6 37.5 -85.75 37.25 -85.8 37.2 -86.6 36.0 -87.65 35.7 -88.25 35.5 -90.2 34.7 Q-90.9 34.4 -91.55 34.05 L-90.1 34.5 -88.3 35.05 -88.0 35.1 -87.5 35.25 -81.85 36.85 -81.7 36.9 -81.15 37.05 -80.8 37.1 Q-80.25 36.65 -79.6 36.45 L-78.6 36.35 Q-78.65 36.85 -78.85 36.95 L-80.8 37.1 -80.85 38.1 -81.9 38.0 -82.3 37.95 -83.6 37.8 -83.85 37.75 -84.5 37.7 -85.45 37.55 M-102.6 28.5 L-102.65 28.45 Q-102.35 28.35 -102.5 28.5 L-102.6 28.5 M-110.7 20.45 L-111.95 18.75 -112.6 17.9 -113.25 17.05 -114.8 15.15 -115.3 14.55 -117.2 11.2 -118.9 7.95 -119.05 7.05 -115.75 11.5 Q-112.5 16.0 -110.05 20.2 L-109.4 21.4 -107.9 24.2 -107.15 25.75 -107.95 24.5 -108.85 23.15 -109.7 21.9 -110.7 20.45 M-99.05 -29.55 Q-93.05 -32.65 -98.2 -29.75 -98.5 -29.5 -99.05 -29.55 M-100.9 -28.65 L-103.45 -28.0 -105.6 -27.4 -106.65 -27.4 -104.1 -28.0 -100.5 -28.8 Q-100.0 -28.95 -100.9 -28.65 M-107.8 -25.45 L-108.65 -25.35 -108.95 -24.6 -110.05 -24.7 -108.65 -26.95 Q-107.9 -27.95 -107.8 -27.05 L-107.8 -26.5 -107.8 -25.45 M-111.1 -23.8 L-110.8 -24.55 -110.05 -24.7 -110.05 -23.7 -111.1 -23.8 -111.15 -23.45 -111.15 -22.8 Q-111.2 -22.3 -111.35 -22.25 -113.9 -21.7 -115.2 -19.95 L-115.65 -19.25 -116.45 -19.05 -116.8 -18.35 Q-116.8 -17.85 -117.1 -17.6 L-117.85 -17.45 -117.85 -17.7 -117.65 -18.35 Q-116.9 -21.25 -114.85 -22.65 -113.7 -23.45 -112.15 -23.8 L-111.45 -23.85 -111.1 -23.8 M-112.3 0.6 Q-110.55 0.9 -111.6 -1.1 -111.7 -1.35 -112.25 -1.4 -112.15 -3.45 -111.55 -5.35 L-110.95 -5.35 -111.0 -4.3 -111.1 -2.3 -110.2 -3.3 Q-109.95 -3.7 -109.95 -4.2 L-109.35 -4.0 Q-107.25 3.6 -102.75 10.4 L-98.65 15.85 Q-95.25 19.85 -90.9 23.6 L-91.95 23.5 -95.15 23.1 -97.8 21.0 Q-101.7 17.7 -104.8 13.85 -109.25 8.3 -112.15 1.6 L-112.3 0.6 M-78.15 -17.9 Q-80.4 -20.85 -83.3 -21.85 L-83.35 -21.9 Q-87.0 -23.2 -91.7 -21.5 L-93.2 -20.9 -94.1 -20.8 Q-94.1 -20.35 -94.4 -20.15 L-98.3 -17.6 -106.35 -12.0 -106.4 -11.0 Q-106.65 -9.8 -107.6 -8.05 L-107.9 -7.2 Q-108.8 -6.2 -110.9 -6.4 -111.45 -9.15 -108.65 -8.25 L-107.6 -8.05 Q-109.75 -10.7 -107.25 -11.85 L-106.35 -12.0 Q-105.0 -15.7 -102.35 -17.9 -99.5 -20.25 -95.15 -20.85 L-94.1 -20.8 -93.8 -21.45 -92.45 -22.1 Q-86.25 -24.85 -82.35 -23.4 L-81.5 -23.0 Q-78.5 -21.4 -77.1 -16.8 L-78.2 -16.9 -78.15 -17.9 M-77.25 -13.7 Q-77.3 -13.2 -77.6 -13.0 L-78.4 -12.85 -78.35 -13.85 -77.25 -13.7 M-78.45 -11.8 L-77.8 -11.55 -77.5 -10.3 -77.45 -9.65 -78.5 -9.75 -78.45 -10.8 -78.45 -11.1 -78.45 -11.8 M-77.5 -8.6 L-76.3 -9.3 -76.2 -9.35 -75.35 -9.4 -75.35 -8.65 -75.3 -8.35 Q-75.3 -6.75 -77.55 -7.6 L-77.5 -8.6 M-75.3 -10.4 Q-75.15 -13.0 -74.5 -15.35 L-74.0 -15.4 -74.0 -14.35 -74.05 -13.35 -74.2 -10.3 -75.3 -10.4 M-73.95 -16.45 L-73.6 -17.15 -72.85 -17.3 -72.85 -16.3 -71.8 -16.2 -71.8 -15.8 -72.3 -15.2 -72.9 -15.25 -72.85 -16.3 -73.95 -16.45 M-71.65 -19.25 L-71.35 -19.95 -70.5 -20.1 -70.55 -19.05 -71.65 -19.25 M-68.35 -19.9 L-67.15 -20.55 -66.2 -20.65 -66.25 -19.6 -67.35 -19.75 -68.35 -19.9 M-65.15 -20.5 L-64.05 -20.4 -64.1 -19.35 -63.05 -19.25 -63.0 -20.25 Q-64.0 -23.2 -58.9 -20.4 L-58.7 -19.75 -59.55 -19.6 -59.85 -18.85 -60.9 -19.0 -62.0 -19.1 -63.05 -19.25 -63.1 -18.25 -64.15 -18.35 -64.1 -19.35 -65.2 -19.5 -65.15 -20.5 M-55.55 -19.4 L-54.55 -19.15 Q-52.7 -18.25 -52.5 -15.95 L-53.55 -16.05 -54.6 -16.2 Q-57.1 -18.05 -55.85 -18.8 -55.6 -18.9 -55.55 -19.4 M-51.4 -15.8 L-50.45 -15.9 Q-47.85 -17.15 -46.1 -14.2 L-47.2 -14.3 -51.45 -14.8 -51.4 -15.8 M-84.85 9.95 L-84.8 8.95 -83.75 9.1 -83.8 10.1 -82.7 10.25 -81.65 10.35 -81.7 11.4 -82.8 11.25 -83.8 11.1 -83.9 12.15 -83.95 13.15 -82.85 13.3 -82.95 14.3 -83.0 16.35 -83.1 17.35 -83.1 18.35 -83.75 18.5 Q-84.25 19.25 -84.3 20.3 L-83.2 20.45 -82.15 20.55 -82.2 21.6 -82.75 21.65 Q-83.35 22.95 -83.4 24.5 L-82.35 24.6 -81.3 24.75 -80.2 24.85 -79.1 25.0 -79.25 26.0 -79.35 26.4 -79.4 27.5 -79.35 29.1 -78.25 29.2 Q-70.4 30.35 -64.3 32.0 L-64.15 32.05 Q-60.45 33.05 -57.45 34.3 L-56.0 34.9 Q-56.55 34.8 -56.8 35.05 L-57.15 35.75 -58.2 35.7 -64.55 34.9 -65.6 34.25 -65.65 34.75 -66.7 34.65 Q-66.15 34.2 -65.6 34.25 L-68.25 33.0 -70.65 32.05 -70.8 32.0 Q-74.45 30.7 -79.3 29.6 L-79.35 29.1 -80.4 29.05 -84.7 29.5 -84.95 29.2 Q-86.8 27.45 -89.8 26.35 L-89.9 25.8 Q-88.5 25.3 -87.5 24.35 L-86.3 22.7 Q-85.2 20.55 -85.2 17.15 L-85.15 16.1 -84.25 15.1 -83.95 14.2 -83.95 13.15 -85.0 13.05 -85.05 14.05 -85.1 15.05 -86.15 14.95 Q-86.15 13.9 -85.65 13.15 L-85.0 13.05 -84.95 12.0 -84.9 11.0 -83.8 11.1 -83.8 10.1 -84.85 9.95 M-81.4 5.3 L-80.3 5.4 -80.35 6.4 -80.45 7.45 -81.5 7.35 -81.45 6.3 -81.4 5.3 M-80.5 8.45 L-80.55 9.5 -81.6 9.35 -81.55 8.3 -80.5 8.45 M-77.1 25.55 L-77.55 24.5 Q-78.4 22.15 -78.15 18.6 -77.8 13.95 -75.35 11.0 -76.6 17.55 -76.55 24.95 L-76.55 25.75 -76.55 26.0 -76.6 26.35 -77.1 25.55 M-75.15 9.05 L-75.15 9.25 -75.5 9.0 -75.15 9.05 M-72.5 12.5 Q-69.85 15.7 -71.6 20.6 L-71.85 21.0 -72.1 19.1 -73.25 12.05 -73.1 11.85 -72.5 12.5 M-60.6 -26.15 L-60.6 -25.1 -61.7 -25.2 -61.35 -26.0 -60.6 -26.15 M-66.3 -18.6 L-65.25 -18.45 -65.3 -17.45 -65.9 -17.5 -66.0 -17.9 -66.3 -18.05 -66.3 -18.6 M-70.7 -17.05 L-70.5 -17.05 -70.7 -16.85 -70.7 -17.05 M-73.1 -11.0 L-73.0 -10.5 -72.35 -9.75 -73.2 -8.75 -73.15 -10.2 -73.1 -11.0 M-63.85 -15.5 L-66.95 -7.6 -67.1 -7.25 Q-68.15 -5.5 -69.75 -5.75 -68.55 -7.95 -67.85 -10.3 L-67.75 -11.0 -64.3 -15.35 -63.85 -15.5 M-72.35 -4.95 L-72.4 -3.95 -72.4 -2.95 -73.5 -3.05 -73.45 -4.05 -73.15 -4.8 -72.35 -4.95 M-69.2 -3.55 L-68.85 -3.5 -68.1 -3.4 -68.15 -2.95 -68.15 -2.45 -69.25 -2.55 -69.2 -3.55 M-66.65 -3.75 L-67.25 -4.75 Q-65.8 -5.85 -63.8 -5.55 L-63.1 -5.4 -58.0 -10.15 -57.85 -10.35 -57.35 -10.5 Q-56.7 -8.75 -58.85 -7.5 L-59.15 -7.3 -59.5 -7.15 -59.6 -6.4 -59.85 -6.0 Q-61.3 -5.4 -62.1 -4.15 -65.3 -2.45 -66.65 -3.75 M-71.4 -1.8 L-71.35 -2.75 -70.25 -2.65 -70.35 -1.65 -71.4 -1.8 M-68.2 -1.4 L-68.15 -2.45 -67.3 -2.3 -67.1 -2.3 -67.1 -2.15 -67.15 -1.25 -65.95 -1.25 -65.2 -1.45 Q-65.0 -1.55 -64.95 -2.05 L-63.75 -2.75 -62.75 -2.8 -62.55 -1.85 -61.8 -0.65 -62.75 -0.55 -63.95 0.1 -64.25 0.1 -65.05 0.0 -66.15 -0.1 -67.2 -0.25 -67.15 -1.25 -68.2 -1.4 M-60.65 -2.55 L-58.7 -2.75 Q-58.5 -2.85 -58.45 -3.35 L-57.4 -3.2 -56.3 -3.1 -56.6 -2.2 Q-57.65 -0.3 -60.7 -0.5 L-60.7 -1.5 -60.65 -2.55 M-40.95 -9.5 L-40.7 -10.2 -39.85 -10.35 -39.9 -9.35 -40.95 -9.5 M-51.2 -19.9 L-50.15 -19.75 -50.2 -18.75 -51.25 -18.85 -51.2 -19.9 M-52.2 -22.05 L-51.4 -21.75 Q-51.15 -21.45 -51.2 -20.95 L-52.25 -21.05 -52.2 -22.05 M-56.5 -21.55 L-57.6 -21.7 -57.5 -22.7 Q-57.0 -22.65 -56.75 -22.35 -56.5 -22.05 -56.5 -21.55 M-50.95 -2.45 L-49.9 -2.35 -49.1 -2.5 -48.8 -3.25 -47.9 -2.9 Q-45.8 -1.4 -48.95 -0.15 L-50.0 -0.3 -52.15 -0.55 -51.2 -1.55 -50.95 -2.45 M-50.1 1.7 L-50.2 2.75 -51.25 2.65 Q-51.2 2.15 -51.45 1.85 -51.75 1.55 -52.25 1.5 L-53.3 1.4 Q-52.9 -0.35 -50.3 1.1 L-50.1 1.7 M-46.2 -12.15 Q-41.7 -13.4 -45.25 -12.25 L-46.2 -12.15 M-54.1 1.55 Q-53.85 1.3 -53.3 1.4 -53.35 1.9 -53.65 2.1 L-54.4 2.25 Q-54.4 1.75 -54.1 1.55 M-89.9 24.75 L-90.95 24.65 -90.9 23.6 Q-90.35 23.65 -90.1 23.95 -89.85 24.25 -89.9 24.75 M-76.4 35.55 L-76.55 36.05 -76.75 36.3 -77.55 36.45 -77.4 35.95 -77.25 35.75 -76.4 35.55 M-74.25 34.8 Q-74.25 34.25 -73.95 34.05 L-73.15 33.9 -73.15 34.9 -74.25 34.8 M-57.15 36.8 L-57.15 35.75 -56.0 35.9 -55.0 36.05 -55.05 37.0 -55.05 37.1 -55.05 37.75 -55.05 38.05 -55.9 37.95 -56.15 37.9 -56.15 37.55 -56.35 37.15 Q-56.65 36.85 -57.15 36.8 M-48.2 34.75 L-48.45 34.75 -48.45 34.3 -48.4 33.7 -47.7 33.8 -46.3 33.95 -48.2 34.75 M-49.55 34.6 L-49.55 34.85 -49.65 35.15 -50.45 35.2 -53.85 35.1 Q-53.45 33.4 -50.6 34.4 L-49.55 34.6 M-82.25 22.6 L-81.15 22.7 -81.2 23.75 -82.3 23.6 -82.25 22.6 M-111.35 2.8 L-110.8 2.85 Q-110.7 0.55 -111.35 2.8 M-120.1 6.95 Q-121.1 -1.7 -119.6 6.95 L-120.1 6.95 M-84.05 27.45 Q-84.0 25.15 -84.65 27.4 L-84.05 27.45 M-100.95 21.4 L-101.5 21.35 Q-100.85 19.1 -100.95 21.4" fill="#00294a" fill-rule="evenodd" stroke="none"/>
    <path d="M-58.5 -25.15 L-57.75 -24.8 -58.45 -24.85 -58.5 -25.15 M-57.4 -24.6 L-56.45 -24.1 -56.4 -23.6 -55.35 -23.45 -55.35 -22.45 -55.45 -21.4 -56.5 -21.55 Q-56.5 -22.05 -56.75 -22.35 -57.0 -22.65 -57.5 -22.7 L-58.6 -22.8 -59.65 -22.9 -59.6 -23.95 -60.65 -24.05 -60.6 -25.1 -59.85 -24.8 Q-59.6 -24.5 -59.6 -23.95 L-57.65 -24.1 -57.4 -24.6 M-48.75 -19.6 L-48.5 -19.35 Q-48.0 -17.9 -50.2 -18.75 L-50.15 -19.75 -51.2 -19.9 -51.2 -20.95 -50.1 -20.8 -50.15 -19.75 -49.05 -19.65 -48.75 -19.6 M-38.7 -9.95 L-37.4 -7.6 -38.2 -7.5 -39.65 -8.65 Q-39.95 -8.85 -39.9 -9.35 L-39.85 -10.35 -38.9 -10.05 -38.7 -9.95 M-24.1 18.1 L-24.05 18.1 -24.1 18.3 -24.1 18.75 -24.55 20.1 -24.65 20.1 -25.2 20.0 Q-25.15 19.0 -24.7 18.25 L-24.1 18.1 M-34.2 28.15 L-34.25 28.2 -35.0 28.4 -35.25 28.8 -35.35 29.1 -35.75 29.05 -36.4 29.0 -36.4 28.7 -36.4 27.4 Q-36.2 25.3 -34.3 25.15 L-33.6 25.15 -33.0 25.25 -32.8 25.25 -32.15 25.35 -31.9 25.4 Q-31.95 23.7 -29.7 24.55 L-29.3 24.65 -29.15 24.65 -29.45 24.9 -30.5 25.55 -30.85 25.5 -31.9 25.4 -31.9 25.55 -31.95 26.4 -32.8 26.55 -32.85 26.6 -33.1 27.3 -33.9 27.45 Q-34.15 27.65 -34.2 28.15 M-57.05 40.5 L-57.1 40.55 -63.2 40.55 -62.35 40.35 -61.9 40.25 -61.8 40.35 Q-61.75 39.2 -60.5 39.45 L-59.65 39.55 Q-58.85 39.05 -57.75 38.8 L-57.55 38.75 -57.25 38.85 -57.25 38.2 -57.2 37.8 -57.15 36.8 Q-56.65 36.85 -56.35 37.15 L-56.15 37.55 -56.15 37.9 -55.9 37.95 -55.05 38.05 -55.05 37.75 -55.05 37.1 -55.05 37.0 -55.0 36.05 -53.9 36.15 -53.0 36.25 -52.85 36.25 -52.85 36.6 -52.9 37.25 -53.85 37.4 -54.0 37.45 -54.3 37.55 -55.05 38.05 -55.05 38.1 -55.05 38.15 -55.35 38.8 Q-56.0 39.3 -56.75 39.6 L-56.8 39.9 -56.9 40.2 -57.05 40.5 M-78.0 40.1 L-78.95 40.0 -79.1 40.0 -80.85 38.85 -80.85 38.1 -80.8 37.1 -78.85 36.95 Q-78.65 36.85 -78.6 36.35 L-78.4 36.4 -77.55 36.45 -77.45 36.95 -75.85 37.55 Q-74.25 38.3 -74.55 38.9 -74.7 39.25 -75.55 39.6 L-77.55 40.2 -78.0 40.1 M-92.85 33.3 Q-96.65 33.45 -100.45 33.2 L-100.5 33.0 -98.5 33.0 -98.45 33.1 -98.25 33.3 -98.2 33.3 -96.45 33.25 -95.55 33.2 -95.25 33.0 -93.35 33.0 -92.85 33.3 M-110.05 -24.7 L-108.95 -24.6 -108.65 -25.35 -107.8 -25.45 Q-107.85 -24.95 -108.15 -24.75 L-108.95 -24.6 Q-108.95 -24.1 -109.25 -23.9 L-110.05 -23.7 -110.35 -22.95 -110.6 -22.85 -111.15 -22.8 -111.15 -23.45 -111.1 -23.8 -110.05 -23.7 -110.05 -24.7 M-115.65 -19.25 Q-115.7 -18.75 -115.95 -18.55 -116.25 -18.3 -116.8 -18.35 L-116.45 -19.05 -115.65 -19.25 M-112.25 -1.4 Q-111.7 -1.35 -111.6 -1.1 -110.55 0.9 -112.3 0.6 L-112.3 -0.4 -112.25 -1.4 M-77.1 -16.8 L-77.15 -15.75 -77.25 -13.7 -78.35 -13.85 -78.25 -15.9 -78.2 -16.9 -77.1 -16.8 M-77.45 -9.65 L-77.5 -8.6 -77.55 -7.6 Q-75.3 -6.75 -75.3 -8.35 L-75.35 -8.65 -75.35 -9.4 -75.3 -10.4 -74.2 -10.3 -74.25 -9.3 -74.3 -8.25 -73.5 -8.15 -73.6 -7.5 -73.35 -6.4 -72.55 -5.55 Q-72.85 -6.65 -72.15 -7.85 L-71.75 -9.0 -72.35 -9.75 -73.0 -10.5 -73.1 -11.0 Q-73.4 -12.5 -73.0 -13.75 L-73.0 -14.25 -72.85 -14.2 -72.3 -15.2 -71.8 -15.8 -71.8 -16.2 -71.7 -17.15 -70.7 -17.05 -70.6 -18.1 -70.55 -19.05 -70.5 -20.1 -69.45 -20.0 -68.35 -19.9 -68.45 -18.85 -67.35 -18.7 -66.3 -18.6 -66.3 -18.05 -66.65 -18.2 -67.6 -18.5 -68.7 -18.2 -69.1 -18.0 -69.7 -17.3 -69.15 -17.45 -69.1 -17.5 -68.35 -17.35 -68.15 -17.45 -68.1 -17.5 -65.8 -17.2 -64.25 -17.0 -61.15 -16.6 -60.5 -16.4 Q-59.9 -15.45 -59.65 -14.45 -59.2 -12.4 -60.6 -10.3 L-63.25 -5.9 -63.8 -5.55 Q-65.8 -5.85 -67.25 -4.75 L-66.65 -3.75 -67.95 -3.5 -68.1 -3.5 -68.1 -3.4 -68.85 -3.5 -69.2 -3.55 -69.15 -3.8 -69.75 -4.15 -70.0 -4.45 -71.35 -4.2 -71.3 -3.8 -72.4 -3.95 -72.35 -4.95 -73.15 -4.8 -73.45 -4.05 -74.5 -4.2 -75.55 -4.25 Q-75.8 -6.05 -77.4 -7.0 L-77.55 -7.6 -78.65 -7.75 -78.55 -8.75 -78.5 -9.75 -77.45 -9.65 M-72.85 -17.3 Q-72.8 -18.35 -72.3 -19.1 L-71.65 -19.25 -71.7 -18.2 -71.7 -17.15 -72.85 -17.3 M-66.2 -20.65 L-65.15 -20.5 -65.2 -19.5 -66.25 -19.6 -66.2 -20.65 M-64.05 -20.4 L-63.0 -20.25 -63.05 -19.25 -64.1 -19.35 -64.05 -20.4 M-84.8 8.95 Q-84.8 8.4 -84.5 8.2 L-83.7 8.05 -83.75 9.1 -84.8 8.95 M-82.5 6.15 L-82.25 5.45 Q-81.95 5.2 -81.4 5.3 L-81.45 6.3 -82.5 6.15 M-80.3 5.4 L-80.2 4.9 Q-76.95 4.55 -79.3 6.55 L-80.35 6.4 -80.3 5.4 M-80.55 9.5 L-80.85 10.2 -81.65 10.35 -81.6 9.35 -82.65 9.2 -82.35 8.5 -81.55 8.3 -81.6 9.35 -80.55 9.5 M-81.7 11.4 Q-81.7 11.85 -82.0 12.1 L-82.8 12.3 -82.8 11.25 -81.7 11.4 M-83.0 16.35 Q-82.5 16.4 -82.45 16.55 -82.05 18.5 -82.15 20.55 L-81.55 20.4 Q-81.45 21.3 -80.75 21.85 L-80.5 22.0 -81.15 22.7 Q-80.65 22.75 -80.35 23.05 -79.6 23.9 -79.1 25.0 L-78.05 25.25 -77.1 25.55 -76.6 26.35 -76.55 26.0 -76.55 25.75 Q-74.15 26.65 -71.95 27.8 L-71.75 27.9 -70.85 27.85 -70.7 27.75 Q-67.95 26.55 -64.75 27.2 -63.5 27.45 -62.1 28.0 -61.6 28.05 -61.25 28.35 -58.35 30.85 -54.8 32.95 L-54.3 33.0 -49.5 33.55 -48.4 33.7 Q-48.05 31.85 -45.8 30.7 L-45.65 30.6 Q-43.4 29.45 -39.35 28.95 L-38.45 28.85 -38.3 28.8 -37.45 28.85 -37.5 29.85 -37.5 30.1 -37.5 30.55 -37.55 30.9 -37.7 30.85 -38.55 30.95 -39.75 31.65 -40.2 31.65 -40.55 31.75 -40.6 31.85 -40.7 32.05 -40.75 32.15 -41.4 32.35 -41.6 32.45 -43.05 32.9 -44.6 33.35 -46.3 33.95 -47.7 33.8 -48.4 33.7 -48.45 34.3 -48.45 34.75 -49.15 34.65 -49.55 34.6 -50.6 34.4 Q-53.45 33.4 -53.85 35.1 L-54.95 35.0 -56.0 34.9 -57.45 34.3 Q-60.45 33.05 -64.15 32.05 L-64.3 32.0 Q-70.4 30.35 -78.25 29.2 L-79.35 29.1 -79.4 27.5 -79.35 26.4 -79.25 26.0 -79.1 25.0 -80.2 24.85 -81.3 24.75 -81.2 23.75 -81.15 22.7 -82.25 22.6 -82.2 21.6 -82.15 20.55 -83.2 20.45 -83.15 19.4 -83.1 18.35 -83.1 17.35 -83.0 16.35 M-77.55 24.5 L-77.75 24.35 Q-78.75 23.45 -78.65 22.1 L-78.6 20.25 Q-79.0 19.75 -80.2 19.6 L-80.75 19.35 Q-82.5 16.3 -80.7 12.95 L-79.6 11.1 -79.6 10.75 -79.6 10.35 -79.5 9.6 -79.3 9.25 -79.0 8.85 -78.95 8.85 -78.9 8.7 -78.75 8.65 -78.6 8.5 Q-78.3 8.3 -77.9 8.25 -76.2 6.45 -75.3 8.1 L-75.15 9.05 -75.5 9.0 -75.15 9.25 -74.15 10.15 Q-73.35 4.8 -73.65 10.3 L-74.1 10.2 -73.0 11.6 Q-72.5 9.05 -72.65 12.2 L-72.5 12.5 -73.1 11.85 -73.25 12.05 -72.1 19.1 -73.05 21.9 Q-73.6 23.2 -74.5 24.35 -75.55 25.15 -76.55 24.95 -76.6 17.55 -75.35 11.0 -77.8 13.95 -78.15 18.6 -78.4 22.15 -77.55 24.5 M-28.6 24.25 L-28.35 24.0 -28.2 23.9 -28.55 24.25 -28.6 24.25 M-65.25 -18.45 L-64.15 -18.35 -64.25 -17.35 -65.3 -17.45 -65.25 -18.45 M-63.1 -18.25 L-63.05 -19.25 -62.0 -19.1 -60.9 -19.0 Q-60.95 -18.45 -61.15 -18.35 L-63.1 -18.25 M-70.7 -17.05 L-70.7 -16.85 -70.5 -17.05 -70.7 -17.05 M-63.85 -15.5 L-64.3 -15.35 -67.75 -11.0 -67.85 -10.3 Q-68.55 -7.95 -69.75 -5.75 -68.15 -5.5 -67.1 -7.25 L-66.95 -7.6 -63.85 -15.5 M-74.0 -14.35 L-74.0 -15.4 -72.9 -15.25 -73.0 -14.25 -74.0 -14.35 M-72.35 -4.95 L-72.3 -4.95 -72.35 -4.95 M-72.5 -1.85 L-73.5 -2.0 -73.5 -3.05 -72.4 -2.95 -72.5 -1.85 M-71.35 -2.75 L-71.3 -3.8 -70.25 -3.65 -69.2 -3.55 -69.25 -2.55 -70.25 -2.65 -71.35 -2.75 M-66.15 -0.1 L-66.25 0.4 Q-68.3 0.6 -70.45 0.4 L-71.25 -0.85 -71.4 -1.8 -70.35 -1.65 -69.25 -1.55 -68.2 -1.4 -67.15 -1.25 -67.2 -0.25 -66.15 -0.1 M-63.95 0.1 L-62.75 -0.55 -61.8 -0.65 -60.7 -0.5 Q-57.65 -0.3 -56.6 -2.2 L-56.3 -3.1 -52.05 -2.6 -50.95 -2.45 -51.2 -1.55 -52.15 -0.55 -50.0 -0.3 -48.95 -0.15 Q-45.8 -1.4 -47.9 -2.9 L-48.8 -3.25 -49.1 -2.5 -49.9 -2.35 -49.6 -3.1 -48.8 -3.25 -48.5 -3.9 Q-44.7 -6.1 -45.65 -1.8 L-44.9 -1.75 -44.9 -1.15 -45.65 -1.0 -45.65 -0.95 -47.0 0.1 -47.45 1.1 -48.15 0.2 -48.95 -0.15 -49.2 0.75 -50.1 1.7 -50.3 1.1 Q-52.9 -0.35 -53.3 1.4 L-52.25 1.5 -52.2 2.55 Q-51.7 5.35 -53.5 5.45 -52.75 3.3 -54.35 2.75 L-54.4 2.25 -55.4 1.95 Q-58.2 0.1 -62.8 1.2 L-62.95 1.25 -62.95 1.1 Q-63.0 0.7 -63.2 0.45 -63.45 0.15 -63.95 0.1 M-52.2 -22.05 L-52.25 -21.05 -53.3 -21.2 -53.25 -22.2 -52.2 -22.05 M-54.35 -21.3 L-53.3 -21.2 -53.35 -20.15 -54.4 -20.25 -54.35 -21.3 M-50.2 2.75 L-50.5 3.5 -51.25 3.65 -51.25 2.65 -50.2 2.75 M-27.15 9.65 L-27.2 9.5 -26.5 9.05 -26.4 9.2 -27.15 9.65 M-27.8 9.5 L-28.15 9.6 -30.4 9.4 -27.8 9.5 M-48.55 2.95 L-49.1 2.85 Q-48.45 0.65 -48.55 2.95 M-54.1 1.55 Q-54.4 1.75 -54.4 2.25 L-53.65 2.1 Q-53.35 1.9 -53.3 1.4 -53.85 1.3 -54.1 1.55 M-57.3 7.95 L-57.9 8.0 Q-55.95 5.0 -57.3 7.95 M-54.65 7.35 Q-53.95 3.5 -54.15 7.4 L-54.65 7.35 M-53.25 10.6 L-53.75 10.55 Q-53.15 8.3 -53.25 10.6 M-56.15 15.35 Q-56.75 4.8 -55.6 15.45 L-56.15 15.35 M-61.35 11.7 L-75.45 3.9 -74.9 3.95 Q-60.35 -0.9 -60.8 11.75 L-61.35 11.7 M-71.6 23.85 Q-66.05 11.95 -71.0 23.75 L-71.6 23.85 M-67.4 15.1 L-67.95 15.05 Q-67.3 12.8 -67.4 15.1 M-66.25 14.25 L-66.8 14.15 Q-66.15 11.95 -66.25 14.25 M-65.85 16.3 Q-65.2 14.05 -65.3 16.35 L-65.85 16.3 M-67.8 34.5 Q-67.8 35.0 -67.95 35.05 L-71.05 35.15 -70.95 34.15 -68.85 34.4 -67.8 34.5 M-72.05 34.05 Q-72.05 34.55 -72.35 34.75 L-73.15 34.9 -73.15 35.9 Q-73.15 37.55 -75.35 36.7 -75.35 36.15 -75.65 35.9 -75.9 35.6 -76.4 35.55 -75.85 35.1 -75.2 34.85 L-74.25 34.8 -73.15 34.9 -73.15 33.9 -72.05 34.05 M-65.2 36.9 L-65.75 36.8 Q-65.1 34.55 -65.2 36.9 M-66.0 39.05 Q-65.2 38.85 -65.7 39.05 L-67.05 39.55 -68.0 39.6 -66.0 39.05 M-83.95 14.2 L-85.05 14.05 -85.0 13.05 -83.95 13.15 -83.95 14.2" fill="#005a9c" fill-rule="evenodd" stroke="none"/>
    <path d="M-60.0 -26.05 L-58.5 -25.15 -58.45 -24.85 -57.75 -24.8 -57.4 -24.6 -57.65 -24.1 -59.6 -23.95 Q-59.6 -24.5 -59.85 -24.8 L-60.6 -25.1 -60.6 -26.15 -60.0 -26.05 M-42.9 -13.8 L-41.9 -12.9 -41.9 -12.65 -41.65 -12.6 -40.2 -11.4 -39.4 -10.7 -39.85 -10.35 -40.7 -10.2 -40.95 -9.5 -41.9 -9.8 Q-47.45 -13.1 -56.9 -13.4 L-57.1 -12.45 -58.0 -10.15 -63.1 -5.4 -63.8 -5.55 -63.25 -5.9 -60.6 -10.3 Q-59.2 -12.4 -59.65 -14.45 -59.25 -16.5 -59.3 -18.75 L-59.85 -18.85 -59.55 -19.6 -58.7 -19.75 -56.6 -19.5 -55.55 -19.4 Q-55.6 -18.9 -55.85 -18.8 -57.1 -18.05 -54.6 -16.2 L-53.55 -16.05 -52.5 -15.95 -51.4 -15.8 -51.45 -14.8 -47.2 -14.3 -46.1 -14.2 -45.05 -14.05 -42.9 -13.8 M-90.9 23.6 Q-95.25 19.85 -98.65 15.85 L-102.75 10.4 Q-107.25 3.6 -109.35 -4.0 L-109.95 -4.2 Q-109.9 -4.75 -110.15 -5.0 -110.4 -5.3 -110.95 -5.35 L-110.9 -6.4 Q-108.8 -6.2 -107.9 -7.2 L-107.6 -8.05 Q-106.65 -9.8 -106.4 -11.0 L-106.35 -12.0 -98.3 -17.6 -94.4 -20.15 Q-94.1 -20.35 -94.1 -20.8 L-93.2 -20.9 -91.7 -21.5 Q-87.0 -23.2 -83.35 -21.9 L-83.3 -21.85 Q-80.4 -20.85 -78.15 -17.9 L-79.1 -17.85 Q-82.0 -16.65 -84.9 -16.15 L-86.8 -15.85 -86.9 -15.9 -87.8 -15.8 -96.15 -11.85 Q-96.05 -14.1 -96.7 -11.9 L-96.25 -11.85 -101.1 -9.3 -101.15 -8.3 Q-101.45 -2.15 -99.5 4.95 -98.4 8.85 -96.6 13.05 L-95.8 14.85 -95.35 15.0 -93.3 15.5 Q-86.7 16.6 -85.45 11.05 L-84.9 11.0 -84.95 12.0 -85.0 13.05 -85.65 13.15 Q-86.15 13.9 -86.15 14.95 L-85.1 15.05 -85.15 16.1 -85.2 17.15 Q-85.2 20.55 -86.3 22.7 L-87.5 24.35 Q-88.5 25.3 -89.9 25.8 L-89.9 24.75 Q-89.85 24.25 -90.1 23.95 -90.35 23.65 -90.9 23.6 M-74.0 -15.4 L-73.95 -16.45 -72.85 -16.3 -72.9 -15.25 -74.0 -15.4 M-65.2 -19.5 L-65.25 -18.45 -66.3 -18.6 -67.35 -18.7 -68.45 -18.85 -68.35 -19.9 -67.35 -19.75 -66.25 -19.6 -65.2 -19.5 M-70.7 -17.05 L-71.7 -17.15 -71.8 -16.2 -72.85 -16.3 -72.85 -17.3 -71.7 -17.15 -71.7 -18.2 -71.65 -19.25 -70.55 -19.05 -70.6 -18.1 -70.7 -17.05 M-73.0 -14.25 L-73.0 -13.75 Q-73.4 -12.5 -73.1 -11.0 L-73.15 -10.2 -73.2 -8.75 -73.35 -8.65 -73.5 -8.15 -74.3 -8.25 -74.25 -9.3 -74.2 -10.3 -74.05 -13.35 -74.0 -14.35 -73.0 -14.25 M-67.95 -3.5 L-66.65 -3.75 Q-65.3 -2.45 -62.1 -4.15 -61.3 -5.4 -59.85 -6.0 L-59.6 -6.4 -59.5 -7.15 -59.15 -7.3 -60.6 -3.55 -59.5 -3.5 -58.45 -3.35 Q-58.5 -2.85 -58.7 -2.75 L-60.65 -2.55 -61.7 -2.7 -62.75 -2.8 -63.75 -2.75 -64.95 -2.05 -66.0 -2.15 -67.1 -2.3 -67.3 -2.3 -68.15 -2.45 -68.15 -2.95 -68.1 -3.4 -67.95 -3.5 M-52.25 -21.05 L-51.2 -20.95 -51.2 -19.9 -52.25 -20.05 -53.35 -20.15 -53.3 -21.2 -54.35 -21.3 -55.45 -21.4 -55.35 -22.45 -54.3 -22.3 -53.25 -22.2 -53.3 -21.2 -52.25 -21.05 M-46.2 -12.15 L-45.25 -12.25 Q-41.7 -13.4 -46.2 -12.15" fill="#29639c" fill-rule="evenodd" stroke="none"/>
    <path d="M-24.1 17.7 L-24.1 18.1 -24.7 18.25 Q-25.15 19.0 -25.2 20.0 L-25.25 20.95 -25.25 21.05 -25.35 21.05 -25.9 21.15 -26.35 22.15 -28.2 23.9 -28.35 24.0 -28.6 24.25 -29.15 24.65 -29.3 24.65 -29.7 24.55 Q-31.95 23.7 -31.9 25.4 L-32.15 25.35 -32.8 25.25 -33.0 25.25 -33.6 25.15 -34.3 25.15 Q-36.2 25.3 -36.4 27.4 L-36.4 28.7 -36.4 29.0 -36.55 29.0 -37.45 28.85 -38.3 28.8 -38.45 28.85 -39.35 28.95 Q-43.4 29.45 -45.65 30.6 L-45.8 30.7 Q-48.05 31.85 -48.4 33.7 L-49.5 33.55 -54.3 33.0 -54.8 32.95 Q-58.35 30.85 -61.25 28.35 -61.6 28.05 -62.1 28.0 -63.5 27.45 -64.75 27.2 -67.95 26.55 -70.7 27.75 L-70.85 27.85 -71.75 27.9 -71.95 27.8 Q-74.15 26.65 -76.55 25.75 L-76.55 24.95 Q-75.55 25.15 -74.5 24.35 -73.6 23.2 -73.05 21.9 L-72.1 19.1 -71.85 21.0 -71.6 20.6 Q-69.85 15.7 -72.5 12.5 L-72.65 12.2 Q-72.5 9.05 -73.0 11.6 L-74.1 10.2 -73.65 10.3 Q-73.35 4.8 -74.15 10.15 L-75.15 9.25 -75.15 9.05 -75.3 8.1 Q-76.2 6.45 -77.9 8.25 -78.3 8.3 -78.6 8.5 L-78.75 8.65 -78.9 8.7 -78.95 8.85 -79.0 8.85 -79.3 9.25 -79.5 9.6 -79.6 10.35 -79.6 10.75 -79.6 11.1 -80.7 12.95 Q-82.5 16.3 -80.75 19.35 L-80.2 19.6 Q-79.0 19.75 -78.6 20.25 L-78.65 22.1 Q-78.75 23.45 -77.75 24.35 L-77.55 24.5 -77.1 25.55 -78.05 25.25 -79.1 25.0 Q-79.6 23.9 -80.35 23.05 -80.65 22.75 -81.15 22.7 L-80.5 22.0 -80.75 21.85 Q-81.45 21.3 -81.55 20.4 L-82.15 20.55 Q-82.05 18.5 -82.45 16.55 -82.5 16.4 -83.0 16.35 L-82.95 14.3 -82.85 13.3 -82.8 12.3 -82.0 12.1 Q-81.7 11.85 -81.7 11.4 L-81.65 10.35 -80.85 10.2 -80.55 9.5 -80.5 8.45 -80.45 7.45 -79.65 7.3 Q-79.35 7.05 -79.3 6.55 -76.95 4.55 -80.2 4.9 L-80.3 5.4 -81.4 5.3 Q-81.95 5.2 -82.25 5.45 L-82.5 6.15 -82.75 7.05 -83.7 8.05 -84.5 8.2 Q-84.8 8.4 -84.8 8.95 L-84.85 9.95 -84.9 11.0 -85.45 11.05 Q-86.7 16.6 -93.3 15.5 L-95.35 15.0 -95.8 14.85 -96.6 13.05 Q-98.4 8.85 -99.5 4.95 -101.45 -2.15 -101.15 -8.3 L-101.1 -9.3 -96.25 -11.85 -96.15 -11.8 -96.15 -11.85 -87.8 -15.8 -86.9 -15.9 -86.8 -15.85 -84.9 -16.15 Q-82.0 -16.65 -79.1 -17.85 L-78.15 -17.9 -78.2 -16.9 -78.25 -15.9 -78.35 -13.85 -78.4 -12.85 -78.45 -11.8 -78.45 -11.1 -78.45 -10.8 -78.5 -9.75 -78.55 -8.75 -78.65 -7.75 -77.55 -7.6 -77.4 -7.0 Q-75.8 -6.05 -75.55 -4.25 L-74.5 -4.2 -73.45 -4.05 -73.5 -3.05 -73.5 -2.0 -72.5 -1.85 -71.4 -1.8 -71.25 -0.85 -70.45 0.4 Q-68.3 0.6 -66.25 0.4 L-66.15 -0.1 -65.05 0.0 -64.25 0.1 -63.95 0.1 Q-63.45 0.15 -63.2 0.45 -63.0 0.7 -62.95 1.1 L-62.95 1.25 -62.8 1.2 Q-58.2 0.1 -55.4 1.95 L-54.4 2.25 -54.35 2.75 Q-52.75 3.3 -53.5 5.45 -51.7 5.35 -52.2 2.55 L-52.25 1.5 Q-51.75 1.55 -51.45 1.85 -51.2 2.15 -51.25 2.65 L-51.25 3.65 -50.5 3.5 -50.2 2.75 -50.1 1.7 -49.2 0.75 -48.95 -0.15 -48.15 0.2 -47.45 1.1 -47.0 0.1 -45.65 -0.95 -45.65 -1.0 -44.9 -1.15 -44.9 -1.75 -45.65 -1.8 Q-44.7 -6.1 -48.5 -3.9 L-48.8 -3.25 -49.6 -3.1 -49.9 -2.35 -50.95 -2.45 -52.05 -2.6 -56.3 -3.1 -57.4 -3.2 -58.45 -3.35 -59.5 -3.5 -60.6 -3.55 -59.15 -7.3 -58.85 -7.5 Q-56.7 -8.75 -57.35 -10.5 L-57.85 -10.35 -58.0 -10.15 -57.1 -12.45 -56.9 -13.4 Q-47.45 -13.1 -41.9 -9.8 L-40.95 -9.5 -39.9 -9.35 Q-39.95 -8.85 -39.65 -8.65 L-38.2 -7.5 -43.6 -7.7 -44.2 -6.85 -44.45 -5.85 Q-44.4 -4.35 -42.7 -3.15 -44.85 -2.25 -45.0 0.0 L-44.65 1.45 Q-45.3 2.15 -45.95 3.55 L-46.25 4.35 -48.7 11.0 Q-50.45 16.15 -49.3 21.1 -44.35 23.65 -42.95 23.95 -41.8 24.2 -42.4 22.9 L-43.95 19.45 Q-44.9 17.05 -44.1 15.5 -42.3 11.65 -41.85 6.85 L-41.8 6.7 Q-41.35 7.25 -39.85 7.7 L-33.7 9.2 -33.65 9.55 -33.55 9.2 -32.95 9.35 -30.4 9.4 -28.15 9.6 -27.8 9.5 -27.25 9.5 -27.2 9.5 -27.15 9.65 -30.1 11.5 Q-32.0 11.8 -35.1 13.25 -36.95 14.1 -37.55 16.15 -38.0 17.6 -37.7 19.1 L-37.4 19.25 -37.25 19.3 Q-33.7 16.6 -31.85 16.0 -30.5 15.65 -27.85 17.4 L-24.1 17.7 M-63.2 40.55 L-70.1 40.55 Q-70.55 40.3 -70.7 40.55 L-75.75 40.55 -77.0 40.4 -77.3 40.3 -77.55 40.2 -75.55 39.6 Q-74.7 39.25 -74.55 38.9 -74.25 38.3 -75.85 37.55 L-77.45 36.95 -77.55 36.45 -76.75 36.3 -76.55 36.05 -76.4 35.55 Q-75.9 35.6 -75.65 35.9 -75.35 36.15 -75.35 36.7 -73.15 37.55 -73.15 35.9 L-73.15 34.9 -72.35 34.75 Q-72.05 34.55 -72.05 34.05 L-70.95 34.15 -71.05 35.15 -67.95 35.05 Q-67.8 35.0 -67.8 34.5 L-66.7 34.65 -65.65 34.75 -64.55 34.9 -58.2 35.7 -57.15 35.75 -57.15 36.8 -57.2 37.8 -57.25 38.2 -57.25 38.85 -57.55 38.75 -57.75 38.8 Q-58.85 39.05 -59.65 39.55 L-60.5 39.45 Q-61.75 39.2 -61.8 40.35 L-61.9 40.25 -62.35 40.35 -63.2 40.55 M-100.45 33.2 L-102.55 33.05 -102.65 33.0 -100.5 33.0 -100.45 33.2 M-98.5 33.0 L-96.0 33.0 -96.45 33.25 -98.2 33.3 -98.25 33.3 -98.45 33.1 -98.5 33.0 M-64.15 -18.35 L-63.1 -18.25 -61.15 -18.35 Q-60.95 -18.45 -60.9 -19.0 L-59.85 -18.85 -59.3 -18.75 Q-59.25 -16.5 -59.65 -14.45 -59.9 -15.45 -60.5 -16.4 L-61.15 -16.6 -64.25 -17.0 -64.25 -17.35 -64.15 -18.35 M-66.3 -18.05 L-66.0 -17.9 -65.9 -17.5 -65.8 -17.2 -68.1 -17.5 -68.15 -17.45 -68.35 -17.35 -69.1 -17.5 -69.15 -17.45 -69.7 -17.3 -69.1 -18.0 -68.7 -18.2 -67.6 -18.5 -66.65 -18.2 -66.3 -18.05 M-72.35 -9.75 L-71.75 -9.0 -72.15 -7.85 Q-72.85 -6.65 -72.55 -5.55 L-73.35 -6.4 -73.6 -7.5 -73.5 -8.15 -73.35 -8.65 -73.2 -8.75 -72.35 -9.75 M-72.35 -4.95 L-72.3 -4.95 -72.35 -4.95 M-71.3 -3.8 L-71.35 -4.2 -70.0 -4.45 -69.75 -4.15 -69.15 -3.8 -69.2 -3.55 -70.25 -3.65 -71.3 -3.8 M-68.1 -3.4 L-68.1 -3.5 -67.95 -3.5 -68.1 -3.4 M-48.55 2.95 Q-48.45 0.65 -49.1 2.85 L-48.55 2.95 M-56.15 15.35 L-55.6 15.45 Q-56.75 4.8 -56.15 15.35 M-53.25 10.6 Q-53.15 8.3 -53.75 10.55 L-53.25 10.6 M-54.65 7.35 L-54.15 7.4 Q-53.95 3.5 -54.65 7.35 M-57.3 7.95 Q-55.95 5.0 -57.9 8.0 L-57.3 7.95 M-42.1 17.85 L-42.8 17.9 -43.4 18.9 -42.1 17.85 M-61.35 11.7 L-60.8 11.75 Q-60.35 -0.9 -74.9 3.95 L-75.45 3.9 -61.35 11.7 M-65.85 16.3 L-65.3 16.35 Q-65.2 14.05 -65.85 16.3 M-66.25 14.25 Q-66.15 11.95 -66.8 14.15 L-66.25 14.25 M-67.4 15.1 Q-67.3 12.8 -67.95 15.05 L-67.4 15.1 M-71.6 23.85 L-71.0 23.75 Q-66.05 11.95 -71.6 23.85 M-65.2 36.9 Q-65.1 34.55 -65.75 36.8 L-65.2 36.9 M-66.0 39.05 L-68.0 39.6 -67.05 39.55 -65.7 39.05 Q-65.2 38.85 -66.0 39.05" fill="#4a7bb5" fill-rule="evenodd" stroke="none"/>
    <path d="M-39.4 -10.7 L-39.0 -10.35 -38.7 -9.95 -38.9 -10.05 -39.85 -10.35 -39.4 -10.7 M-96.25 -11.85 L-96.7 -11.9 Q-96.05 -14.1 -96.15 -11.85 L-96.15 -11.8 -96.25 -11.85 M-72.3 -15.2 L-72.85 -14.2 -73.0 -14.25 -72.9 -15.25 -72.3 -15.2 M-52.85 36.25 L-52.3 36.3 Q-52.35 36.8 -52.9 37.25 L-52.85 36.6 -52.85 36.25" fill="#008cef" fill-rule="evenodd" stroke="none"/>
    <path d="M-33.55 9.2 L-33.65 9.55 -33.7 9.2 -33.55 9.2 M-41.8 6.7 L-41.85 6.85 Q-42.3 11.65 -44.1 15.5 -44.9 17.05 -43.95 19.45 L-42.4 22.9 Q-41.8 24.2 -42.95 23.95 -44.35 23.65 -49.3 21.1 -50.45 16.15 -48.7 11.0 L-46.25 4.35 -45.95 3.55 Q-45.3 2.15 -44.65 1.45 -44.0 2.45 -42.05 2.75 -42.0 4.55 -42.1 6.0 L-41.8 6.7 M-46.25 4.35 Q-47.5 10.15 -48.6 13.7 -49.75 17.25 -48.4 19.15 -46.35 17.9 -45.9 14.4 -45.5 10.8 -46.25 4.35" fill="#102a41" fill-rule="evenodd" stroke="none"/>
    <path d="M-29.85 25.45 L-32.9 28.4 -32.85 27.15 -31.95 26.5 -31.9 26.45 -31.3 26.05 -30.9 25.8 -30.65 25.65 -30.5 25.55 -29.45 24.9 -29.85 25.45 M-40.5 32.1 L-39.5 32.25 -39.45 32.25 -38.6 32.4 -38.55 32.4 -36.6 32.55 -36.75 32.7 -38.1 33.95 -38.4 34.1 -46.05 38.05 -46.4 38.2 -48.6 38.75 -50.05 38.85 -52.2 38.55 -53.95 38.25 Q-51.8 36.6 -49.3 35.3 L-48.2 34.75 -46.3 33.95 -44.6 33.35 -43.05 32.9 -41.6 32.45 -41.4 32.35 -40.75 32.15 -40.5 32.1" fill="#1d4d82" fill-rule="evenodd" stroke="none"/>
    <path d="M-24.1 18.65 L-24.1 20.0 -25.15 21.05 -24.9 20.8 -24.65 20.3 -24.55 20.1 -24.1 18.75 -24.1 18.65 M-25.8 21.65 L-28.55 24.25 -29.85 25.45 -29.45 24.9 -29.15 24.65 -28.6 24.25 -28.55 24.25 -28.2 23.9 -26.35 22.15 -25.8 21.65 M-42.1 17.85 L-43.4 18.9 -42.8 17.9 -42.1 17.85" fill="#336da1" fill-rule="evenodd" stroke="none"/>
    <path d="M-46.25 4.35 Q-45.5 10.8 -45.9 14.4 -46.35 17.9 -48.4 19.15 -49.75 17.25 -48.6 13.7 -47.5 10.15 -46.25 4.35" fill="#98adcf" fill-rule="evenodd" stroke="none"/>
    <path d="M-37.4 -7.6 L-36.7 -7.7 -35.8 -7.9 Q-33.0 -7.65 -32.4 -7.15 -31.3 -6.15 -31.05 -7.8 L-28.55 -6.7 -28.55 -6.65 -28.2 -6.55 -22.15 -4.05 Q-19.75 -2.45 -18.05 -0.1 L-15.6 0.15 -15.35 0.5 Q-13.65 2.8 -14.05 4.3 L-15.65 10.95 -17.6 9.55 Q-15.25 4.65 -20.85 0.5 L-21.85 -0.15 Q-26.65 -3.0 -27.85 3.25 -29.45 -1.6 -33.35 -3.95 -34.4 -4.6 -35.6 -5.05 -37.9 -5.95 -40.8 -6.2 L-44.45 -5.85 -44.2 -6.85 -43.6 -7.7 -38.2 -7.5 -37.4 -7.6 M-38.1 33.95 L-43.8 38.0 -46.05 38.05 -38.4 34.1 -38.1 33.95 M-81.5 38.55 L-81.55 38.55 -82.15 38.3 -81.5 38.55 M-85.6 37.5 L-85.8 37.25 -85.75 37.25 -85.6 37.5 M-56.8 39.9 L-56.45 40.05 -56.9 40.2 -56.8 39.9 M-55.75 39.8 L-53.95 38.25 -52.2 38.55 -54.3 39.35 -55.75 39.8" fill="#3b5d8b" fill-rule="evenodd" stroke="none"/>
    <path d="M-43.8 38.0 L-46.6 39.5 -50.8 40.55 -56.35 40.55 -57.05 40.5 -56.9 40.2 -56.45 40.05 -56.2 40.2 -56.1 40.1 -55.75 39.8 -54.3 39.35 -52.2 38.55 -50.05 38.85 -48.6 38.75 -46.4 38.2 -46.05 38.05 -43.8 38.0" fill="#031f32" fill-rule="evenodd" stroke="none"/>
    <path d="M-28.55 -6.7 L-24.05 -13.85 Q-20.85 -18.7 -16.45 -22.1 L-15.0 -23.15 -15.0 -24.05 Q-13.6 -24.5 -11.9 -25.9 L-11.85 -25.9 -12.15 -24.75 Q-10.45 -25.55 -8.95 -25.75 L-8.0 -25.8 -8.0 -8.7 Q-14.8 7.85 -14.05 0.3 L-15.6 0.15 -18.05 -0.1 Q-19.75 -2.45 -22.15 -4.05 -24.75 -5.75 -28.2 -6.55 L-28.55 -6.65 -28.55 -6.7 M-15.65 10.95 L-16.1 12.75 Q-17.9 18.0 -20.8 17.95 L-24.1 17.7 -27.85 17.4 Q-30.5 15.65 -31.85 16.0 -33.7 16.6 -37.25 19.3 L-37.4 19.25 -37.7 19.1 Q-38.0 17.6 -37.55 16.15 -36.95 14.1 -35.1 13.25 -32.0 11.8 -30.1 11.5 L-27.15 9.65 -26.4 9.2 Q-21.6 6.15 -23.85 7.35 L-26.5 9.05 -27.2 9.5 -27.25 9.5 -27.8 9.5 -30.4 9.4 -32.95 9.35 -33.55 9.2 -33.7 9.2 -39.85 7.7 Q-41.35 7.25 -41.8 6.7 L-42.1 6.0 Q-42.0 4.55 -42.05 2.75 -44.0 2.45 -44.65 1.45 L-45.0 0.0 Q-44.85 -2.25 -42.7 -3.15 -44.4 -4.35 -44.45 -5.85 L-40.8 -6.2 Q-37.9 -5.95 -35.6 -5.05 -34.4 -4.6 -33.35 -3.95 -29.45 -1.6 -27.85 3.25 -26.65 -3.0 -21.85 -0.15 L-20.85 0.5 Q-15.25 4.65 -17.6 9.55 L-15.65 10.95 M-77.3 40.3 L-78.0 40.1 -77.55 40.2 -77.3 40.3 M-82.15 38.3 L-85.3 37.55 -85.45 37.55 -84.5 37.7 -83.7 37.85 -82.6 38.15 -82.15 38.3 M-102.15 28.55 L-102.6 28.5 -102.5 28.5 -102.15 28.55 M-103.85 27.6 L-105.05 26.85 -104.65 27.05 -104.55 27.15 -103.85 27.6 M-107.1 25.8 Q-108.95 25.0 -111.1 24.5 -111.1 24.25 -111.25 24.15 L-113.55 21.65 -112.05 20.95 -110.9 20.5 -110.7 20.45 -109.7 21.9 -108.85 23.15 -107.95 24.5 -107.15 25.75 -107.1 25.8" fill="#4e79b3" fill-rule="evenodd" stroke="none"/>
  </g>
</svg>
