<?xml version="1.0" encoding="UTF-8" standalone="no"?>
<svg xmlns:xlink="http://www.w3.org/1999/xlink" height="54.3px" width="240.8px" xmlns="http://www.w3.org/2000/svg">
  <g transform="matrix(1.0, 0.0, 0.0, 1.0, 117.9, 11.85)">
    <path d="M113.5 -11.55 Q115.8 -10.55 117.55 -8.95 118.8 -7.8 119.45 -6.25 L120.05 -4.1 121.2 3.8 122.2 10.75 122.8 15.95 Q123.05 18.85 122.7 21.7 122.6 22.95 122.0 24.1 L121.5 24.95 120.3 26.5 118.0 28.45 Q116.7 29.25 115.2 29.55 L112.25 30.0 109.05 30.35 105.55 30.6 104.55 30.7 104.1 31.05 103.85 31.05 103.35 31.1 102.4 31.35 100.2 32.3 101.2 34.2 98.5 34.8 Q94.8 35.3 91.1 34.95 88.95 34.8 86.9 33.9 L84.35 32.6 92.8 25.95 102.8 22.05 Q105.55 20.9 107.95 19.2 109.35 18.25 110.1 16.8 111.15 14.85 111.3 12.55 111.55 9.25 111.4 5.85 L111.25 2.85 110.9 2.4 110.8 1.65 110.15 -2.8 109.0 -8.45 111.25 -11.15 112.05 -11.85 113.5 -11.55" fill="#185586" fill-rule="evenodd" stroke="none"/>
    <path d="M98.85 -1.8 Q98.95 -3.45 99.75 -4.95 100.55 -6.45 101.95 -7.4 102.85 -8.0 103.95 -8.3 L108.35 -9.35 109.6 -9.15 Q111.1 -8.7 112.5 -8.05 L114.2 -7.1 114.7 -6.2 116.25 -3.75 116.85 -2.65 117.6 -1.05 118.15 0.45 Q118.6 2.4 118.65 4.4 L118.65 7.7 118.55 9.45 117.8 13.3 Q116.65 18.05 115.05 22.65 114.55 24.25 113.5 25.6 L112.0 26.6 107.9 27.45 103.15 28.0 101.45 28.4 98.8 29.4 98.1 29.6 94.2 30.85 90.35 32.15 86.75 32.45 Q84.05 32.15 81.7 30.75 79.7 29.6 77.95 27.9 78.0 26.4 78.35 24.95 79.25 21.55 80.45 18.25 L81.35 16.2 Q82.25 14.5 83.55 13.05 84.45 12.05 85.7 11.7 87.15 11.3 88.55 11.7 90.65 12.25 92.65 13.15 L95.65 14.4 97.95 15.0 100.5 15.1 101.35 14.25 100.0 8.65 99.0 2.95 Q98.7 0.6 98.85 -1.8" fill="#102a41" fill-rule="evenodd" stroke="none"/>
    <path d="M86.05 23.75 Q87.35 24.55 88.7 25.2 L89.25 25.4 88.3 26.05 86.85 26.95 85.95 27.35 83.4 26.3 79.35 24.65 Q75.6 23.4 71.7 22.6 L65.6 20.95 Q63.6 20.35 61.75 19.35 60.5 18.75 59.35 17.85 L57.3 15.9 55.65 13.7 48.45 7.45 27.95 6.2 30.05 -1.8 47.25 1.5 47.45 1.65 50.1 1.85 51.55 2.15 52.8 2.45 54.7 2.7 55.3 3.6 57.7 2.3 57.75 2.55 58.0 2.55 58.45 2.45 59.45 2.35 59.8 2.8 60.85 4.2 61.3 5.1 61.4 5.6 61.45 5.85 61.7 5.85 62.25 6.25 Q63.25 8.05 64.6 9.5 66.8 12.0 69.6 13.8 L75.65 17.6 78.0 19.1 83.45 22.25 86.05 23.75" fill="#4e79b3" fill-rule="evenodd" stroke="none"/>
    <path d="M30.05 -1.8 L31.2 -5.55 41.85 -3.7 44.5 -3.2 50.55 -2.05 52.5 -1.8 53.0 -1.75 52.65 -1.55 55.7 -1.55 53.0 -1.75 53.65 -2.15 54.55 -2.5 56.0 -2.75 56.6 -2.3 57.85 -2.2 59.15 -1.95 60.95 -1.65 63.75 0.5 68.95 4.75 72.65 8.15 76.45 11.6 Q77.3 12.35 78.3 12.9 L87.2 17.85 90.15 19.6 90.75 20.2 91.5 21.6 91.1 22.65 90.75 23.45 90.05 24.5 89.25 25.4 88.75 25.2 83.45 22.25 78.0 19.1 75.65 17.6 69.6 13.8 Q66.8 12.0 64.35 9.7 L63.15 8.15 62.25 6.25 61.7 5.85 61.45 5.85 61.3 5.1 60.85 4.2 59.8 2.8 59.45 2.35 58.45 2.45 58.0 2.55 57.75 2.55 57.7 2.3 55.3 3.6 54.7 2.7 51.55 2.1 50.1 1.75 49.2 1.65 47.45 1.65 47.25 1.5 30.05 -1.8" fill="#3b5d8b" fill-rule="evenodd" stroke="none"/>
    <path d="M80.5 -5.15 Q84.05 -6.25 87.75 -6.6 L90.55 -6.6 90.0 -4.55 92.3 -4.15 93.8 -4.05 94.55 -4.0 96.6 -4.05 101.0 -4.7 103.0 -4.95 Q105.0 -5.15 106.95 -4.95 108.3 -4.8 109.5 -4.1 L112.05 -2.3 112.85 -1.6 113.45 -0.85 Q114.5 1.25 115.0 3.55 115.8 6.8 116.1 10.15 L116.5 14.65 117.25 24.1 117.25 27.6 Q117.2 29.15 116.6 30.45 115.75 32.4 114.15 33.85 L111.3 35.95 110.35 35.45 107.5 33.3 107.4 27.5 107.2 23.0 107.2 21.75 106.7 18.8 Q106.15 15.45 105.2 12.25 104.55 10.1 103.05 8.4 102.0 7.2 100.45 6.55 97.7 5.45 94.8 4.9 L84.2 3.3 74.45 -1.35 76.65 -3.15 Q78.45 -4.45 80.5 -5.15" fill="#185586" fill-rule="evenodd" stroke="none"/>
    <path d="M80.4 -2.2 L84.45 -1.8 88.55 -1.45 89.25 -1.4 92.1 -1.0 93.85 -1.0 98.55 -1.5 102.75 -1.6 Q103.7 -1.5 104.45 -0.9 105.75 0.2 106.6 1.6 109.15 5.75 111.3 10.1 L112.9 13.75 113.4 15.4 114.1 18.6 Q114.5 20.6 114.5 22.55 L114.3 24.15 113.85 25.9 113.65 26.45 113.75 27.2 112.95 29.0 112.3 30.85 110.9 32.1 108.3 33.8 107.1 34.3 104.35 34.15 101.05 34.15 100.35 34.2 97.75 31.9 Q96.65 30.65 96.15 28.95 95.5 26.7 95.3 24.35 L95.0 18.6 95.1 12.8 94.05 12.15 91.6 12.85 Q90.5 13.25 89.45 13.95 L86.85 15.8 83.15 18.1 Q81.85 18.8 80.35 18.75 79.05 18.7 77.95 17.9 76.4 16.8 75.1 15.3 L73.8 13.5 70.3 7.45 Q69.65 6.15 69.25 4.65 70.6 2.65 72.3 1.05 74.3 -0.8 76.85 -1.75 L80.4 -2.2" fill="#102a41" fill-rule="evenodd" stroke="none"/>
    <path d="M78.0 6.85 L71.8 12.55 70.55 13.75 65.7 18.5 Q64.0 20.1 62.6 21.85 60.65 24.4 59.25 27.3 58.85 28.2 58.7 29.2 L58.25 29.75 58.0 29.8 58.0 30.05 58.0 30.55 57.8 31.5 57.05 33.15 56.85 33.65 55.85 33.75 55.35 33.8 55.1 33.8 55.1 34.05 53.1 34.1 52.15 34.35 50.5 33.35 49.3 32.8 47.2 31.7 45.75 30.65 45.5 30.7 29.95 22.55 33.3 15.0 50.2 26.75 50.8 23.5 Q51.15 22.15 51.9 21.0 53.45 18.7 55.45 16.7 56.9 15.2 58.7 14.15 61.45 12.55 64.3 11.2 L71.3 7.55 74.9 5.0 77.15 3.4 78.2 3.65 79.75 4.2 80.8 4.6 80.3 4.95 78.0 6.85" fill="#4e79b3" fill-rule="evenodd" stroke="none"/>
    <path d="M82.95 10.05 L80.5 12.4 72.9 19.2 71.35 20.9 Q69.8 22.95 68.4 25.1 L65.55 29.2 61.45 34.5 59.2 37.2 57.5 37.9 56.25 38.45 55.05 38.85 54.6 39.4 53.1 39.45 52.15 39.25 50.3 38.25 45.85 35.55 40.45 32.6 38.05 31.35 28.55 26.2 29.95 22.55 45.5 30.7 45.75 30.65 47.2 31.75 47.9 32.2 49.25 32.85 52.15 34.35 53.1 34.1 55.1 34.05 55.1 33.8 55.35 33.8 55.85 33.75 56.85 33.65 57.05 33.15 57.8 31.5 58.0 30.55 58.0 29.8 58.25 29.75 58.7 29.2 Q58.85 28.2 59.15 27.25 59.45 26.3 60.0 25.45 61.85 22.65 64.15 20.25 L69.25 15.2 71.25 13.3 Q73.5 11.05 75.85 8.95 L80.35 4.95 80.8 4.6 81.8 5.3 82.7 6.2 83.25 6.9 83.85 7.85 83.4 9.3 82.95 10.05" fill="#3b5d8b" fill-rule="evenodd" stroke="none"/>
    <path d="M17.55 -7.45 L18.45 -8.85 22.2 -10.2 23.3 -10.55 24.45 -10.95 25.0 -9.6 25.85 -9.9 27.25 -10.2 30.7 -10.5 31.45 -10.45 32.0 -10.45 33.0 -10.45 34.25 -9.35 35.5 -8.2 36.0 -6.25 36.2 -6.6 36.65 -5.4 33.15 -5.0 25.45 -3.5 21.6 -2.85 19.15 -2.3 10.15 3.3 9.45 -3.9 13.7 -6.8 13.7 -5.0 15.75 -8.55 16.6 -9.95 17.55 -7.45" fill="#224870" fill-rule="evenodd" stroke="none"/>
    <path d="M19.15 -2.3 L21.6 -2.9 29.6 -4.35 33.15 -5.0 36.65 -5.4 36.5 -4.55 36.1 -0.8 35.75 2.3 35.4 5.25 35.0 7.5 33.9 10.8 33.15 11.9 32.55 12.3 32.85 15.55 33.35 15.75 33.0 17.05 33.3 18.25 33.35 18.5 33.4 15.4 43.4 18.85 30.2 39.05 14.7 31.0 12.7 24.15 11.75 19.25 11.0 13.05 10.15 3.3 19.15 -2.3" fill="#2e6399" fill-rule="evenodd" stroke="none"/>
    <path d="M46.65 14.2 L43.4 18.85 38.9 26.8 33.35 18.5 33.35 18.25 33.0 17.05 33.35 15.75 26.4 8.85 32.9 9.75 35.35 10.3 37.9 11.05 46.65 14.2" fill="#224870" fill-rule="evenodd" stroke="none"/>
    <path d="M23.35 -1.65 L24.0 0.55 24.25 3.0 24.3 5.55 24.45 20.85 24.35 24.1 23.95 26.9 23.15 29.45 22.2 31.85 21.65 9.55 20.8 0.1 19.8 -4.45 18.2 -4.7 18.9 -7.4 19.05 -7.95 19.8 -4.45 22.45 -4.1 23.35 -1.65" fill="#14305e" fill-rule="evenodd" stroke="none"/>
    <path d="M8.3 -7.8 L19.2 -9.05 19.45 -9.1 20.8 0.1 13.7 -0.5 4.2 -0.4 -0.8 -0.15 -12.2 1.25 -18.4 2.45 -20.2 -0.35 -22.3 -2.9 -27.3 -7.05 8.3 -7.8" fill="#1b4777" fill-rule="evenodd" stroke="none"/>
    <path d="M4.2 -0.4 L13.7 -0.5 20.8 0.1 21.65 9.55 22.2 31.85 20.9 33.95 -12.25 36.5 -14.0 36.8 -18.45 37.35 -24.45 37.9 -27.75 34.5 -29.8 31.6 -29.8 31.35 -29.35 31.05 -29.4 30.55 -27.85 29.25 -24.1 24.35 Q-21.95 21.2 -20.65 17.65 -18.95 12.9 -18.45 7.85 -18.15 5.2 -18.4 2.45 L-12.2 1.25 -4.55 0.2 4.2 -0.4" fill="#336da1" fill-rule="evenodd" stroke="none"/>
    <path d="M-28.5 24.75 L-26.35 29.2 Q-48.5 40.35 -54.25 41.3 -57.9 41.95 -67.2 40.45 L-83.65 37.5 -81.95 32.55 -76.55 32.55 Q-76.2 36.0 -71.45 37.2 -70.05 37.55 -69.2 36.6 -67.45 34.65 -66.45 32.75 L-66.0 32.75 Q-59.0 33.1 -55.75 36.1 L-28.5 24.75" fill="#4e79b3" fill-rule="evenodd" stroke="none"/>
    <path d="M-84.3 39.35 L-83.65 37.5 -74.3 39.2 -84.3 39.35 M-67.2 40.45 L-74.3 39.2 -46.75 38.8 Q-51.9 40.9 -54.25 41.3 -57.9 41.95 -67.2 40.45 M-26.35 29.2 L-24.6 32.8 Q-30.65 36.25 -36.55 38.65 L-46.75 38.8 Q-39.4 35.75 -26.35 29.2" fill="#3b5d8b" fill-rule="evenodd" stroke="none"/>
    <path d="M-22.9 17.95 L-13.1 35.35 -25.55 40.9 -31.25 24.75 -30.3 24.2 -22.9 17.95" fill="#336da1" fill-rule="evenodd" stroke="none"/>
    <path d="M-116.25 38.6 L-112.6 38.3 Q-107.85 36.95 -101.05 24.8 -101.3 36.7 -94.45 38.2 -87.6 39.7 -85.5 34.7 L-83.15 35.2 -87.1 40.85 Q-87.95 42.15 -90.8 42.4 -94.05 42.65 -97.2 41.0 L-102.75 38.15 Q-103.25 36.6 -104.2 37.75 -104.75 38.45 -107.85 39.25 L-111.95 40.4 Q-113.2 41.0 -113.95 40.85 -114.9 40.7 -115.85 39.55 L-116.25 38.6" fill="#3b5d8b" fill-rule="evenodd" stroke="none"/>
    <path d="M-91.15 13.05 L-90.5 12.8 Q-89.35 12.4 -89.0 14.8 L-88.7 18.65 Q-88.6 19.55 -86.35 21.8 -89.55 20.95 -90.05 19.7 -90.85 17.9 -91.15 13.05" fill="#3b5d8b" fill-rule="evenodd" stroke="none"/>
    <path d="M-93.7 15.35 Q-92.8 13.85 -91.15 13.05 -90.85 17.9 -90.05 19.7 -89.55 20.95 -86.35 21.8 L-81.25 26.75 Q-79.35 28.9 -82.15 33.75 L-83.15 35.2 -85.5 34.7 Q-87.6 39.7 -94.45 38.2 -101.3 36.7 -101.5 26.75 -102.8 35.7 -112.6 38.3 L-116.25 38.6 Q-116.45 37.15 -115.0 35.65 -117.25 35.15 -117.8 32.95 -118.35 30.8 -115.4 29.75 L-116.05 26.55 Q-116.3 25.6 -114.1 24.5 L-107.65 21.65 Q-104.0 20.05 -102.05 20.5 L-92.25 24.0 Q-93.3 22.4 -94.25 19.1 -94.85 17.15 -93.7 15.35" fill="#4e79b3" fill-rule="evenodd" stroke="none"/>
    <path d="M-32.15 -6.5 L-31.35 -7.15 -31.25 -5.75 -32.15 -6.5" fill="#2e6399" fill-rule="evenodd" stroke="none"/>
    <path d="M-75.75 34.75 Q-74.5 36.45 -71.45 37.2 -70.05 37.55 -69.2 36.6 L-68.45 35.75 -56.45 38.05 -60.0 40.95 -84.5 41.0 -83.75 38.0 -82.55 37.05 -81.1 36.4 -75.75 34.75" fill="#4e79b3" fill-rule="evenodd" stroke="none"/>
    <path d="M-78.5 25.35 L-76.65 27.5 -78.55 26.35 -78.5 25.35" fill="#234680" fill-rule="evenodd" stroke="none"/>
    <path d="M-49.0 27.8 L-48.7 27.55 -47.8 26.6 -46.2 30.2 -47.9 29.6 Q-48.35 28.65 -49.0 27.8" fill="#173d78" fill-rule="evenodd" stroke="none"/>
    <path d="M-44.6 18.4 L-44.6 17.4 -43.55 17.45 -44.6 18.4" fill="#173d78" fill-rule="evenodd" stroke="none"/>
    <path d="M-41.6 11.7 L-41.6 12.25 -41.85 12.65 -41.6 11.7" fill="#173d78" fill-rule="evenodd" stroke="none"/>
    <path d="M-79.75 25.95 L-79.85 26.15 -80.45 26.15 -80.4 22.5 -78.55 25.25 -79.75 25.95" fill="#0f2950" fill-rule="evenodd" stroke="none"/>
    <path d="M-44.2 13.1 L-43.6 12.7 -44.1 13.15 -44.2 13.1" fill="#4f84b1" fill-rule="evenodd" stroke="none"/>
    <path d="M-79.2 39.6 L-74.5 42.45 -82.35 40.2 -75.75 36.95 -79.2 39.6" fill="#0f2950" fill-rule="evenodd" stroke="none"/>
    <path d="M-81.55 42.35 L-82.95 41.3 -83.25 40.85 -83.15 40.6 -82.35 40.2 -81.55 42.35" fill="#0f2950" fill-rule="evenodd" stroke="none"/>
    <path d="M-73.85 36.55 L-73.2 36.65 -71.45 37.2 -71.3 37.25 -71.35 37.3 -71.55 38.1 -71.05 38.85 -70.35 39.6 -66.65 39.6 -68.5 40.15 Q-70.55 40.45 -72.6 40.2 L-74.85 39.45 -73.85 36.55" fill="#0f2950" fill-rule="evenodd" stroke="none"/>
  </g>
</svg>
