<?xml version="1.0" encoding="UTF-8" standalone="no"?>
<svg xmlns:xlink="http://www.w3.org/1999/xlink" height="74.65px" width="130.7px" xmlns="http://www.w3.org/2000/svg">
  <g transform="matrix(1.0, 0.0, 0.0, 1.0, 119.2, 33.8)">
    <path d="M-95.2 -31.1 Q-90.05 -34.0 -96.05 -30.9 -95.5 -30.85 -95.2 -31.1 M-119.15 -3.75 L-119.05 -9.3 -118.95 -12.2 -118.8 -14.95 -116.85 -18.15 -115.4 -21.25 -112.75 -23.5 -111.6 -24.45 Q-110.25 -25.7 -109.7 -27.0 L-109.7 -27.1 -109.65 -27.1 -109.2 -27.65 -108.95 -27.9 -108.45 -28.15 Q-107.45 -28.65 -106.5 -29.35 L-104.6 -30.65 -103.75 -31.15 -103.65 -31.25 -101.6 -32.35 -100.6 -32.35 -100.4 -32.9 -98.0 -33.8 -90.4 -32.9 -91.7 -32.45 -90.7 -32.6 -89.95 -32.8 -66.95 -30.15 Q-64.75 -29.3 -62.9 -28.1 L-62.4 -28.0 -62.5 -28.75 Q-60.15 -27.8 -58.35 -28.25 L-57.0 -27.4 -57.6 -27.5 -58.35 -27.35 Q-58.7 -27.1 -58.7 -26.55 L-57.6 -26.45 -57.65 -25.4 -56.6 -25.3 -56.65 -24.25 -55.6 -24.15 -54.5 -24.05 -54.6 -23.05 -53.5 -22.9 -52.45 -22.75 -51.35 -22.65 -51.4 -21.6 -50.35 -21.5 -49.25 -21.4 -48.2 -21.25 -48.25 -20.2 -47.2 -20.1 Q-45.0 -19.25 -45.5 -20.7 L-44.05 -19.75 -43.6 -19.5 -43.55 -19.3 -45.1 -18.85 -44.1 -18.9 Q-43.75 -19.05 -43.5 -19.15 L-42.85 -18.2 -41.1 -16.35 Q-41.85 -16.3 -42.05 -15.4 L-43.1 -15.55 Q-44.85 -18.5 -47.45 -17.25 L-48.4 -17.15 -49.5 -17.3 Q-49.7 -19.6 -51.55 -20.5 L-52.55 -20.75 -53.6 -20.85 -55.7 -21.1 -55.9 -21.75 Q-61.0 -24.55 -60.0 -21.6 L-61.05 -21.75 -62.15 -21.85 -63.2 -22.0 -64.15 -21.9 -65.35 -21.25 -66.45 -21.35 -67.5 -21.45 -68.35 -21.3 -68.65 -20.6 -69.3 -20.45 Q-69.8 -19.7 -69.85 -18.65 L-70.6 -18.5 -70.95 -17.8 -71.0 -16.75 -71.5 -16.7 Q-72.15 -14.35 -72.3 -11.75 L-72.35 -10.75 -73.2 -10.7 -73.3 -10.65 -74.5 -9.95 -74.45 -11.0 -74.5 -11.65 -74.8 -12.9 -75.45 -13.15 -75.4 -14.2 -74.6 -14.35 Q-74.3 -14.55 -74.25 -15.05 L-74.15 -17.1 -74.1 -18.15 Q-75.5 -22.75 -78.5 -24.35 L-79.35 -24.75 Q-83.25 -26.2 -89.45 -23.45 L-90.8 -22.8 -91.1 -22.15 -92.15 -22.2 Q-96.5 -21.6 -99.35 -19.25 -102.0 -17.05 -103.35 -13.35 L-104.25 -13.2 Q-106.75 -12.05 -104.6 -9.4 L-105.65 -9.6 Q-108.45 -10.5 -107.9 -7.75 L-107.95 -6.7 -108.55 -6.7 Q-109.15 -4.8 -109.25 -2.75 L-109.3 -1.75 -109.3 -0.75 -109.15 0.25 Q-106.25 6.95 -101.8 12.5 -98.7 16.35 -94.8 19.65 L-92.15 21.75 -88.95 22.15 -87.9 22.25 -87.95 23.3 -86.9 23.4 -86.9 24.45 -86.8 25.0 Q-83.8 26.1 -81.95 27.85 L-81.7 28.15 -77.4 27.7 -76.35 27.75 -76.3 28.25 Q-71.35 29.4 -67.65 30.7 -64.7 31.75 -62.6 32.9 -63.15 32.85 -63.7 33.3 L-64.8 33.15 -65.85 33.05 -67.95 32.8 -69.05 32.7 -70.15 32.55 -70.95 32.7 Q-71.25 32.9 -71.25 33.45 L-72.2 33.5 Q-72.85 33.75 -73.4 34.2 -73.95 34.15 -74.25 34.4 L-74.4 34.6 -74.55 35.1 -75.4 35.05 -75.6 35.0 -76.6 35.1 -77.8 35.75 -78.15 35.7 -78.7 35.55 -78.85 35.5 -84.5 33.9 -85.0 33.75 -85.3 33.7 -87.1 33.15 -88.55 32.7 Q-92.2 30.8 -95.1 27.65 L-98.95 27.25 -99.1 27.2 -99.15 27.2 -99.5 27.15 Q-99.35 27.0 -99.65 27.1 L-100.15 26.75 -100.85 26.25 -101.55 25.8 -101.65 25.7 -102.05 25.5 -102.45 25.25 -102.9 25.05 -102.95 25.0 -104.1 24.5 -104.1 24.45 -104.15 24.4 -104.9 22.85 -106.4 20.05 -107.05 18.85 Q-109.5 14.65 -112.75 10.15 L-116.05 5.7 -115.9 6.6 -114.2 9.85 -112.3 13.2 -115.2 9.8 -116.55 8.0 Q-117.35 6.8 -118.05 6.1 L-118.1 5.55 Q-118.15 3.85 -118.5 2.1 -118.75 1.1 -119.2 0.25 L-119.2 -1.4 -119.05 0.2 -118.45 0.3 -119.15 -3.75 M-100.45 -29.35 L-97.9 -30.0 Q-97.0 -30.3 -97.5 -30.15 L-101.1 -29.35 -103.65 -28.75 -102.6 -28.75 -100.45 -29.35 M-108.1 -25.15 L-108.45 -25.2 -109.15 -25.15 Q-110.7 -24.8 -111.85 -24.0 -113.9 -22.6 -114.65 -19.7 L-114.85 -19.05 -114.85 -18.8 -114.1 -18.95 Q-113.8 -19.2 -113.8 -19.7 -113.25 -19.65 -112.95 -19.9 L-112.65 -20.6 -112.2 -21.3 Q-110.9 -23.05 -108.35 -23.6 -108.2 -23.65 -108.15 -24.15 L-107.6 -24.2 -107.35 -24.3 -107.05 -25.05 -106.25 -25.25 Q-105.95 -25.45 -105.95 -25.95 L-105.15 -26.1 Q-104.85 -26.3 -104.8 -26.8 L-104.8 -27.85 -104.8 -28.4 Q-104.9 -29.3 -105.65 -28.3 L-107.05 -26.05 -107.8 -25.9 -108.1 -25.15 M-116.0 -17.8 L-116.3 -17.1 Q-117.75 -15.6 -118.35 -13.2 -118.85 -11.4 -118.85 -9.1 L-118.7 -5.9 -118.2 -5.9 -117.9 -7.4 Q-116.45 -14.55 -116.1 -17.0 L-116.0 -17.8 M-107.95 -6.7 Q-107.4 -6.65 -107.15 -6.35 -106.9 -6.1 -106.95 -5.55 L-107.2 -4.65 -108.1 -3.65 -108.0 -5.65 -107.95 -6.7 M-81.9 9.65 L-81.85 8.6 -80.8 8.75 -80.8 9.75 -81.9 9.65 M-80.7 6.7 L-79.75 5.7 -79.5 4.8 -78.45 4.95 -78.5 6.0 -77.45 6.1 -77.35 5.05 -76.3 5.2 -76.65 5.95 -77.45 6.1 -77.5 7.1 -78.55 6.95 -79.35 7.15 Q-79.65 7.35 -79.65 7.85 L-78.6 8.0 -78.65 9.0 -79.7 8.9 -80.8 8.75 -80.75 7.75 -80.7 6.7 M-79.8 10.95 L-79.85 11.95 -80.95 11.8 -80.9 10.8 -80.8 9.75 -79.8 9.9 -79.8 10.95 M-68.4 -3.15 L-69.5 -3.2 -69.4 -4.3 -69.4 -5.3 -68.3 -5.15 -68.35 -4.1 -68.4 -3.15 M-53.45 -25.45 L-51.95 -24.75 -52.35 -24.8 -53.4 -24.95 -53.45 -25.45 M-51.7 -24.6 L-49.55 -23.65 -47.9 -23.2 -47.05 -22.15 -47.1 -22.15 -48.2 -22.3 Q-48.15 -22.8 -48.4 -23.1 L-49.2 -23.4 -50.25 -23.55 -51.3 -23.65 Q-51.3 -24.2 -51.55 -24.45 L-51.7 -24.6 M-46.05 -21.2 L-45.75 -20.95 -46.05 -21.0 -46.05 -21.2 M-62.25 -19.8 L-62.2 -20.85 -61.1 -20.7 -61.15 -19.7 -62.25 -19.8 M-67.25 -4.0 L-66.25 -3.9 -65.15 -3.8 -65.2 -2.75 -66.25 -2.9 -67.35 -3.0 -67.25 -4.0 M-64.1 -3.65 L-63.0 -3.5 -61.95 -3.4 Q-62.0 -2.9 -62.2 -2.8 L-62.95 -2.6 -64.15 -2.6 -64.1 -3.5 -64.1 -3.65 M-59.75 -4.15 L-58.7 -4.05 -57.65 -3.9 -57.7 -2.85 -57.7 -1.85 -58.8 -2.0 -59.55 -3.2 -59.75 -4.15 M-71.8 39.9 L-73.3 39.5 -74.0 39.05 -72.4 39.35 -71.8 39.9 M-77.85 37.5 L-78.5 37.2 -79.15 36.95 -79.6 36.8 -80.7 36.5 -81.5 36.35 -80.85 36.4 -80.6 36.45 -79.3 36.6 -78.9 36.65 -77.85 36.75 -77.85 37.5 M-45.2 33.4 L-46.3 33.95 Q-48.8 35.25 -50.95 36.9 L-52.75 38.45 -53.1 38.75 -53.2 38.85 -53.45 38.7 -53.8 38.55 -53.75 38.25 Q-53.0 37.95 -52.35 37.45 L-52.05 36.8 -52.05 36.75 -52.05 36.7 -51.3 36.2 -51.0 36.1 -50.85 36.05 -49.9 35.9 Q-49.35 35.45 -49.3 34.95 L-49.85 34.9 -50.0 34.9 -50.9 34.8 -52.0 34.7 -53.0 34.55 -54.15 34.4 -53.8 33.7 Q-53.55 33.45 -53.0 33.55 L-51.95 33.65 -50.85 33.75 -47.45 33.85 -46.65 33.8 -46.55 33.5 -46.55 33.25 -46.15 33.3 -45.45 33.4 -45.2 33.4 M-80.1 17.0 L-80.15 18.05 -80.2 19.1 -81.3 18.95 Q-81.25 17.9 -80.75 17.15 L-80.1 17.0 M-79.2 20.25 L-79.25 21.25 -79.3 22.25 -78.2 22.4 -78.3 23.4 -79.35 23.25 -80.4 23.15 Q-80.35 21.6 -79.75 20.3 L-79.2 20.25 M-82.05 12.7 L-80.95 12.85 -81.25 13.75 -82.15 14.75 -82.1 13.7 -82.05 12.7 M-62.65 33.4 L-62.6 32.9 -61.55 33.55 -62.65 33.4 M-97.95 20.05 Q-97.85 17.75 -98.5 20.0 L-97.95 20.05 M-107.8 1.5 L-108.35 1.45 Q-107.7 -0.8 -107.8 1.5 M-117.1 5.6 L-116.6 5.6 Q-118.1 -3.05 -117.1 5.6 M-81.65 26.05 Q-81.0 23.8 -81.05 26.1 L-81.65 26.05" fill="#000000" fill-rule="evenodd" stroke="none"/>
    <path d="M-95.2 -31.1 Q-95.5 -30.85 -96.05 -30.9 -90.05 -34.0 -95.2 -31.1 M-119.15 -3.75 L-118.45 0.3 -119.05 0.2 -119.2 -1.4 -119.15 -3.75 M-112.3 13.2 L-114.2 9.85 -115.9 6.6 -116.05 5.7 -112.75 10.15 Q-109.5 14.65 -107.05 18.85 L-106.4 20.05 -104.9 22.85 -104.15 24.4 -104.95 23.15 -105.85 21.8 -106.7 20.55 -107.7 19.1 -108.95 17.4 -109.6 16.55 -110.25 15.7 -111.8 13.8 -112.3 13.2 M-99.65 27.1 Q-99.35 27.0 -99.5 27.15 L-99.6 27.15 -99.65 27.1 M-88.55 32.7 L-87.1 33.15 -85.3 33.7 -85.0 33.75 -84.5 33.9 -78.85 35.5 -78.7 35.55 -78.15 35.7 -77.8 35.75 -76.6 35.1 -75.6 35.0 Q-75.65 35.5 -75.85 35.6 L-77.8 35.75 -77.85 36.75 -78.9 36.65 -79.3 36.6 -80.6 36.45 -80.85 36.4 -81.5 36.35 -82.45 36.2 -82.6 36.15 -82.75 35.9 -82.8 35.85 -83.6 34.65 -84.65 34.35 -85.25 34.15 -87.2 33.35 -88.55 32.7 M-74.55 35.1 L-74.4 34.6 -74.25 34.4 Q-73.95 34.15 -73.4 34.2 L-73.55 34.7 -73.75 34.95 -74.55 35.1 M-71.25 33.45 Q-71.25 32.9 -70.95 32.7 L-70.15 32.55 -70.15 33.55 -71.25 33.45 M-63.7 33.3 Q-63.15 32.85 -62.6 32.9 -64.7 31.75 -67.65 30.7 -71.35 29.4 -76.3 28.25 L-76.35 27.75 -77.4 27.7 -81.7 28.15 -81.95 27.85 Q-83.8 26.1 -86.8 25.0 L-86.9 24.45 -84.5 23.0 -83.3 21.35 Q-82.2 19.2 -82.2 15.8 L-82.15 14.75 -81.25 13.75 -80.95 12.85 -80.95 11.8 -82.0 11.7 -82.05 12.7 -82.1 13.7 -83.15 13.6 Q-83.15 12.55 -82.65 11.8 L-82.0 11.7 -81.95 10.65 -81.9 9.65 -80.8 9.75 -80.8 8.75 -81.85 8.6 -81.8 7.6 -80.75 7.75 -80.8 8.75 -79.7 8.9 -78.65 9.0 -78.7 10.05 -79.8 9.9 -80.8 9.75 -80.9 10.8 -80.95 11.8 -79.85 11.95 -79.95 12.95 -80.0 15.0 -80.1 16.0 -80.1 17.0 -80.75 17.15 Q-81.25 17.9 -81.3 18.95 L-80.2 19.1 -79.15 19.2 -79.2 20.25 -79.75 20.3 Q-80.35 21.6 -80.4 23.15 L-79.35 23.25 -78.3 23.4 -77.2 23.5 -76.1 23.65 -76.25 24.65 -76.35 25.05 -76.4 26.15 -76.35 27.75 -75.25 27.85 Q-62.5 29.7 -54.45 32.95 -53.7 33.2 -53.0 33.55 -53.55 33.45 -53.8 33.7 L-54.15 34.4 -55.2 34.35 -61.55 33.55 -62.6 32.9 -62.65 33.4 -63.7 33.3 M-86.9 23.4 L-87.95 23.3 -87.9 22.25 -88.95 22.15 -92.15 21.75 -94.8 19.65 Q-98.7 16.35 -101.8 12.5 -106.25 6.95 -109.15 0.25 L-109.3 -0.75 Q-107.55 -0.45 -108.6 -2.45 -108.7 -2.7 -109.25 -2.75 -109.15 -4.8 -108.55 -6.7 L-107.95 -6.7 -108.0 -5.65 -108.1 -3.65 -107.2 -4.65 -106.95 -5.55 -106.35 -5.35 Q-104.25 2.25 -99.75 9.05 -97.95 11.85 -95.65 14.5 -92.25 18.5 -87.9 22.25 -87.35 22.3 -87.1 22.6 -86.85 22.9 -86.9 23.4 M-107.9 -7.75 Q-108.45 -10.5 -105.65 -9.6 L-104.6 -9.4 Q-106.75 -12.05 -104.25 -13.2 L-103.35 -13.35 Q-102.0 -17.05 -99.35 -19.25 -96.5 -21.6 -92.15 -22.2 L-91.1 -22.15 -90.8 -22.8 -89.45 -23.45 Q-83.25 -26.2 -79.35 -24.75 L-78.5 -24.35 Q-75.5 -22.75 -74.1 -18.15 L-75.2 -18.25 -75.15 -19.25 Q-77.4 -22.2 -80.3 -23.2 L-80.35 -23.25 Q-84.0 -24.55 -88.7 -22.85 L-90.2 -22.25 -91.1 -22.15 Q-91.1 -21.7 -91.4 -21.5 L-95.3 -18.95 -103.35 -13.35 -103.4 -12.35 Q-103.65 -11.15 -104.6 -9.4 L-104.9 -8.55 Q-105.8 -7.55 -107.9 -7.75 M-74.25 -15.05 Q-74.3 -14.55 -74.6 -14.35 L-75.4 -14.2 -75.35 -15.2 -74.25 -15.05 M-75.45 -13.15 L-74.8 -12.9 -74.5 -11.65 -74.45 -11.0 -75.5 -11.1 -75.45 -12.15 -75.45 -12.45 -75.45 -13.15 M-74.5 -9.95 L-73.3 -10.65 -73.2 -10.7 -72.35 -10.75 -72.35 -10.0 -72.3 -9.7 Q-72.3 -8.1 -74.55 -8.95 L-74.5 -9.95 M-72.3 -11.75 Q-72.15 -14.35 -71.5 -16.7 L-71.0 -16.75 -71.0 -15.7 -71.05 -14.7 -71.2 -11.65 -72.3 -11.75 M-70.95 -17.8 L-70.6 -18.5 -69.85 -18.65 -69.85 -17.65 -68.8 -17.55 -68.8 -17.15 -69.3 -16.55 -69.9 -16.6 -69.85 -17.65 -70.95 -17.8 M-68.65 -20.6 L-68.35 -21.3 -67.5 -21.45 -67.55 -20.4 -68.65 -20.6 M-65.35 -21.25 L-64.15 -21.9 -63.2 -22.0 -63.25 -20.95 -64.35 -21.1 -65.35 -21.25 M-62.15 -21.85 L-61.05 -21.75 -61.1 -20.7 -60.05 -20.6 -60.0 -21.6 Q-61.0 -24.55 -55.9 -21.75 L-55.7 -21.1 -56.55 -20.95 -56.85 -20.2 -57.9 -20.35 -59.0 -20.45 -60.05 -20.6 -60.1 -19.6 -61.15 -19.7 -61.1 -20.7 -62.2 -20.85 -62.15 -21.85 M-52.55 -20.75 L-51.55 -20.5 Q-49.7 -19.6 -49.5 -17.3 L-50.55 -17.4 -51.6 -17.55 Q-54.1 -19.4 -52.85 -20.15 -52.6 -20.25 -52.55 -20.75 M-48.4 -17.15 L-47.45 -17.25 Q-44.85 -18.5 -43.1 -15.55 L-44.2 -15.65 -48.45 -16.15 -48.4 -17.15 M-42.05 -15.4 Q-41.85 -16.3 -41.1 -16.35 L-39.9 -15.15 -42.05 -15.4 M-43.5 -19.15 Q-43.75 -19.05 -44.1 -18.9 L-45.1 -18.85 -43.55 -19.3 -43.55 -19.25 -43.5 -19.15 M-47.2 -20.1 L-48.25 -20.2 -48.2 -21.25 -47.15 -21.1 -47.2 -20.1 M-53.5 -22.9 L-54.6 -23.05 -54.5 -24.05 -53.75 -23.7 Q-53.5 -23.4 -53.5 -22.9 M-57.6 -26.45 L-58.7 -26.55 Q-58.7 -27.1 -58.35 -27.35 L-57.6 -27.5 -57.6 -26.45 M-62.5 -28.75 L-62.4 -28.0 -62.9 -28.1 Q-64.75 -29.3 -66.95 -30.15 L-64.75 -29.9 -64.1 -29.6 Q-63.3 -29.1 -62.5 -28.75 M-89.95 -32.8 L-90.7 -32.6 -91.7 -32.45 -90.4 -32.9 -89.95 -32.8 M-100.45 -29.35 L-102.6 -28.75 -103.65 -28.75 -101.1 -29.35 -97.5 -30.15 Q-97.0 -30.3 -97.9 -30.0 L-100.45 -29.35 M-108.1 -25.15 L-108.15 -24.8 -108.15 -24.15 Q-108.2 -23.65 -108.35 -23.6 -110.9 -23.05 -112.2 -21.3 L-112.65 -20.6 -113.45 -20.4 -113.8 -19.7 Q-113.8 -19.2 -114.1 -18.95 L-114.85 -18.8 -114.85 -19.05 -114.65 -19.7 Q-113.9 -22.6 -111.85 -24.0 -110.7 -24.8 -109.15 -25.15 L-108.45 -25.2 -108.1 -25.15 -107.8 -25.9 -107.05 -26.05 -105.65 -28.3 Q-104.9 -29.3 -104.8 -28.4 L-104.8 -27.85 -104.8 -26.8 -105.65 -26.7 -105.95 -25.95 -107.05 -26.05 -107.05 -25.05 -108.1 -25.15 M-116.0 -17.8 L-116.1 -17.0 Q-116.45 -14.55 -117.9 -7.4 L-118.2 -5.9 -118.7 -5.9 -118.85 -9.1 Q-118.85 -11.4 -118.35 -13.2 -117.75 -15.6 -116.3 -17.1 L-116.0 -17.8 M-78.4 3.95 L-77.3 4.05 -77.35 5.05 -77.45 6.1 -78.5 6.0 -78.45 4.95 -78.4 3.95 M-77.5 7.1 L-77.55 8.15 -78.6 8.0 -78.55 6.95 -77.5 7.1 M-74.1 24.2 L-74.55 23.15 Q-75.4 20.8 -75.15 17.25 -74.8 12.6 -72.35 9.65 -73.6 16.2 -73.55 23.6 L-73.55 24.4 -73.55 24.65 -73.6 25.0 -74.1 24.2 M-72.15 7.7 L-72.15 7.9 -72.5 7.65 -72.15 7.7 M-69.5 11.15 Q-66.85 14.35 -68.6 19.25 L-68.85 19.65 -69.1 17.75 -70.25 10.7 -70.1 10.5 -69.5 11.15 M-36.9 -10.7 L-37.95 -10.85 -37.7 -11.55 -36.85 -11.7 -36.9 -10.7 M-55.0 -11.5 L-54.85 -11.7 -54.35 -11.85 Q-53.7 -10.1 -55.85 -8.85 L-56.15 -8.65 -56.5 -8.5 -56.6 -7.75 -56.85 -7.35 Q-58.3 -6.75 -59.1 -5.5 -62.3 -3.8 -63.65 -5.1 L-64.25 -6.1 Q-62.8 -7.2 -60.8 -6.9 L-60.1 -6.75 -55.0 -11.5 M-55.45 -4.7 L-54.4 -4.55 -53.3 -4.45 -53.6 -3.55 Q-54.65 -1.65 -57.7 -1.85 L-57.7 -2.85 -57.65 -3.9 -55.7 -4.1 Q-55.5 -4.2 -55.45 -4.7 M-47.95 -3.8 L-46.9 -3.7 -46.1 -3.85 -45.8 -4.6 -44.9 -4.25 Q-42.8 -2.75 -45.95 -1.5 L-47.0 -1.65 -49.15 -1.9 -48.2 -2.9 Q-48.0 -3.3 -47.95 -3.8 M-47.1 0.35 L-47.2 1.4 -48.25 1.3 Q-48.2 0.8 -48.45 0.5 -48.75 0.2 -49.25 0.15 L-50.3 0.05 Q-49.9 -1.7 -47.3 -0.25 L-47.1 0.35 M-60.95 -1.25 L-61.25 -1.25 -62.05 -1.35 -63.15 -1.45 -64.2 -1.6 -64.15 -2.6 -65.2 -2.75 -65.15 -3.8 -64.3 -3.65 -64.1 -3.65 -64.1 -3.5 -64.15 -2.6 -62.95 -2.6 -62.2 -2.8 Q-62.0 -2.9 -61.95 -3.4 L-60.75 -4.1 -59.75 -4.15 -59.55 -3.2 -58.8 -2.0 -59.75 -1.9 -60.95 -1.25 M-70.5 -4.4 L-70.45 -5.4 -70.15 -6.15 -69.35 -6.3 -69.4 -5.3 -69.4 -4.3 -70.5 -4.4 M-51.95 -24.75 L-51.7 -24.6 -51.55 -24.45 Q-51.3 -24.2 -51.3 -23.65 L-52.35 -23.8 -52.35 -24.8 -51.95 -24.75 M-47.05 -22.15 L-46.05 -21.2 -46.05 -21.0 -47.15 -21.1 -47.1 -22.15 -47.05 -22.15 M-63.3 -19.95 L-62.25 -19.8 -62.3 -18.8 -62.9 -18.85 -63.0 -19.25 -63.3 -19.4 -63.3 -19.95 M-67.7 -18.2 L-67.7 -18.4 -67.5 -18.4 -67.7 -18.2 M-70.1 -12.35 L-70.0 -11.85 -69.35 -11.1 -70.2 -10.1 -70.15 -11.55 -70.1 -12.35 M-60.85 -16.85 L-63.95 -8.95 -64.1 -8.6 Q-65.15 -6.85 -66.75 -7.1 -65.55 -9.3 -64.85 -11.65 L-64.75 -12.35 Q-62.85 -14.5 -61.3 -16.7 L-60.85 -16.85 M-66.2 -4.9 L-65.85 -4.85 -65.1 -4.75 -65.15 -4.3 -65.15 -3.8 -66.25 -3.9 -66.2 -4.9 M-68.35 -4.1 L-67.25 -4.0 -67.35 -3.0 -68.4 -3.15 -68.35 -4.1 M-48.2 -22.3 L-49.25 -22.4 -49.2 -23.4 -48.4 -23.1 Q-48.15 -22.8 -48.2 -22.3 M-43.2 -13.5 Q-38.7 -14.75 -42.25 -13.6 L-43.2 -13.5 M-38.65 -13.95 L-38.9 -14.0 -38.9 -14.25 -38.65 -13.95 M-21.1 16.95 L-21.1 17.3 -21.1 17.4 -21.1 16.95 M-44.25 33.0 L-45.2 33.4 -45.45 33.4 -45.45 32.95 -44.25 33.0 M-50.65 0.75 L-51.4 0.9 -51.1 0.2 -50.3 0.05 Q-50.35 0.55 -50.65 0.75 M-79.25 21.25 L-78.15 21.35 -78.2 22.4 -79.3 22.25 -79.25 21.25 M-50.85 33.75 Q-50.45 32.05 -47.6 33.05 L-46.55 33.25 -46.55 33.5 -46.65 33.8 -47.45 33.85 -50.85 33.75 M-54.15 35.45 L-54.15 34.4 -53.0 34.55 -52.0 34.7 -52.05 35.65 -52.05 35.75 -52.05 36.4 -52.05 36.7 -52.9 36.6 -53.15 36.55 -53.15 36.2 -53.35 35.8 Q-53.65 35.5 -54.15 35.45 M-97.95 20.05 L-98.5 20.0 Q-97.85 17.75 -97.95 20.05 M-107.8 1.5 Q-107.7 -0.8 -108.35 1.45 L-107.8 1.5 M-117.1 5.6 Q-118.1 -3.05 -116.6 5.6 L-117.1 5.6 M-81.65 26.05 L-81.05 26.1 Q-81.0 23.8 -81.65 26.05" fill="#00294a" fill-rule="evenodd" stroke="none"/>
    <path d="M-75.6 35.0 L-75.4 35.05 -74.55 35.1 -74.45 35.6 -72.85 36.2 Q-71.25 36.95 -71.55 37.55 -71.7 37.9 -72.55 38.25 L-74.55 38.85 -75.0 38.75 -75.95 38.65 -76.1 38.65 Q-76.9 38.0 -77.85 37.5 L-77.85 36.75 -77.8 35.75 -75.85 35.6 Q-75.65 35.5 -75.6 35.0 M-73.4 34.2 Q-72.85 33.75 -72.2 33.5 L-71.25 33.45 -70.15 33.55 -70.15 32.55 -69.05 32.7 Q-69.05 33.2 -69.35 33.4 L-70.15 33.55 -70.15 34.55 Q-70.15 36.2 -72.35 35.35 -72.35 34.8 -72.65 34.55 -72.9 34.25 -73.4 34.2 M-67.95 32.8 L-65.85 33.05 -64.8 33.15 Q-64.8 33.65 -64.95 33.7 L-68.05 33.8 -67.95 32.8 M-109.3 -0.75 L-109.3 -1.75 -109.25 -2.75 Q-108.7 -2.7 -108.6 -2.45 -107.55 -0.45 -109.3 -0.75 M-74.1 -18.15 L-74.15 -17.1 -74.25 -15.05 -75.35 -15.2 -75.25 -17.25 -75.2 -18.25 -74.1 -18.15 M-74.45 -11.0 L-74.5 -9.95 -74.55 -8.95 Q-72.3 -8.1 -72.3 -9.7 L-72.35 -10.0 -72.35 -10.75 -72.3 -11.75 -71.2 -11.65 -71.25 -10.65 -71.3 -9.6 -70.5 -9.5 -70.6 -8.85 -70.35 -7.75 -69.55 -6.9 Q-69.85 -8.0 -69.15 -9.2 L-68.75 -10.35 -69.35 -11.1 -70.0 -11.85 -70.1 -12.35 Q-70.4 -13.85 -70.0 -15.1 L-70.0 -15.6 -69.85 -15.55 -69.3 -16.55 -68.8 -17.15 -68.8 -17.55 -68.7 -18.5 -69.85 -18.65 Q-69.8 -19.7 -69.3 -20.45 L-68.65 -20.6 -68.7 -19.55 -68.7 -18.5 -67.7 -18.4 -67.6 -19.45 -67.55 -20.4 -67.5 -21.45 -66.45 -21.35 -65.35 -21.25 -65.45 -20.2 -64.35 -20.05 -63.3 -19.95 -63.3 -19.4 -63.65 -19.55 -64.6 -19.85 -65.7 -19.55 -66.1 -19.35 -66.7 -18.65 -66.15 -18.8 -66.1 -18.85 -65.35 -18.7 -65.15 -18.8 -65.1 -18.85 -62.8 -18.55 -61.25 -18.35 -58.15 -17.95 -57.5 -17.75 Q-56.9 -16.8 -56.65 -15.8 -56.2 -13.75 -57.6 -11.65 L-60.25 -7.25 -60.8 -6.9 Q-62.8 -7.2 -64.25 -6.1 L-63.65 -5.1 -64.95 -4.85 -65.1 -4.85 -65.1 -4.75 -65.85 -4.85 -66.2 -4.9 -66.25 -3.9 -67.25 -4.0 -68.35 -4.1 -68.3 -5.15 -69.4 -5.3 -69.35 -6.3 -69.3 -6.3 -69.35 -6.3 -70.15 -6.15 -70.45 -5.4 -71.5 -5.55 -72.55 -5.6 Q-72.8 -7.4 -74.4 -8.35 L-74.55 -8.95 -75.65 -9.1 -75.55 -10.1 -75.5 -11.1 -74.45 -11.0 M-63.2 -22.0 L-62.15 -21.85 -62.2 -20.85 -63.25 -20.95 -63.2 -22.0 M-61.05 -21.75 L-60.0 -21.6 -60.05 -20.6 -61.1 -20.7 -61.05 -21.75 M-45.5 -20.7 Q-45.0 -19.25 -47.2 -20.1 L-47.15 -21.1 -48.2 -21.25 -48.2 -22.3 -47.1 -22.15 -47.15 -21.1 -46.05 -21.0 -45.75 -20.95 -45.5 -20.7 M-50.35 -21.5 L-51.4 -21.6 -51.35 -22.65 -50.3 -22.55 -50.25 -23.55 -49.2 -23.4 -49.25 -22.4 -50.3 -22.55 -50.35 -21.5 M-52.45 -22.75 L-53.5 -22.9 Q-53.5 -23.4 -53.75 -23.7 L-54.5 -24.05 -55.6 -24.15 -56.65 -24.25 -56.6 -25.3 -57.65 -25.4 -57.6 -26.45 -56.85 -26.15 Q-56.6 -25.85 -56.6 -25.3 L-54.65 -25.45 -54.4 -25.95 -53.45 -25.45 -53.4 -24.95 -52.35 -24.8 -52.35 -23.8 -52.45 -22.75 M-108.15 -24.15 L-108.15 -24.8 -108.1 -25.15 -107.05 -25.05 -107.35 -24.3 -107.6 -24.2 -108.15 -24.15 M-113.8 -19.7 L-113.45 -20.4 -112.65 -20.6 -112.95 -19.9 Q-113.25 -19.65 -113.8 -19.7 M-104.8 -26.8 Q-104.85 -26.3 -105.15 -26.1 L-105.95 -25.95 Q-105.95 -25.45 -106.25 -25.25 L-107.05 -25.05 -107.05 -26.05 -105.95 -25.95 -105.65 -26.7 -104.8 -26.8 M-81.8 7.6 Q-81.8 7.05 -81.5 6.85 L-80.7 6.7 -80.75 7.75 -81.8 7.6 M-79.5 4.8 L-79.25 4.1 -78.4 3.95 -78.45 4.95 -79.5 4.8 M-77.3 4.05 L-77.2 3.55 Q-73.95 3.2 -76.3 5.2 L-77.35 5.05 -77.3 4.05 M-77.55 8.15 L-77.85 8.85 -78.65 9.0 -78.6 8.0 -79.65 7.85 Q-79.65 7.35 -79.35 7.15 L-78.55 6.95 -78.6 8.0 -77.55 8.15 M-78.7 10.05 Q-78.7 10.5 -79.0 10.75 L-79.8 10.95 -79.8 9.9 -78.7 10.05 M-80.0 15.0 Q-79.5 15.05 -79.45 15.2 -79.05 17.15 -79.15 19.2 L-78.55 19.05 Q-78.45 19.95 -77.75 20.5 L-77.5 20.65 -78.15 21.35 Q-77.65 21.4 -77.35 21.7 -76.6 22.55 -76.1 23.65 L-75.05 23.9 -74.1 24.2 -73.6 25.0 -73.55 24.65 -73.55 24.4 Q-71.15 25.3 -68.95 26.45 L-68.75 26.55 -67.85 26.5 -67.7 26.4 Q-64.95 25.2 -61.75 25.85 -60.5 26.1 -59.1 26.65 -58.6 26.7 -58.25 27.0 L-56.0 28.8 -55.9 29.75 -55.75 30.1 Q-52.1 33.15 -47.4 32.15 L-47.15 32.35 -45.45 32.95 -45.45 33.4 -46.15 33.3 -46.55 33.25 -47.6 33.05 Q-50.45 32.05 -50.85 33.75 L-51.95 33.65 -53.0 33.55 Q-53.7 33.2 -54.45 32.95 -62.5 29.7 -75.25 27.85 L-76.35 27.75 -76.4 26.15 -76.35 25.05 -76.25 24.65 -76.1 23.65 -77.2 23.5 -78.3 23.4 -78.2 22.4 -78.15 21.35 -79.25 21.25 -79.2 20.25 -79.15 19.2 -80.2 19.1 -80.15 18.05 -80.1 17.0 -80.1 16.0 -80.0 15.0 M-74.55 23.15 L-74.75 23.0 Q-75.75 22.1 -75.65 20.75 L-75.6 18.9 Q-76.0 18.4 -77.2 18.25 L-77.75 18.0 Q-79.5 14.95 -77.7 11.6 L-76.6 9.75 -76.6 9.4 -76.6 9.0 -76.5 8.25 -76.3 7.9 -76.0 7.5 -75.95 7.5 -75.9 7.35 -75.75 7.3 -75.6 7.15 -74.9 6.9 Q-73.2 5.1 -72.3 6.75 -72.15 7.2 -72.15 7.7 L-72.5 7.65 -72.15 7.9 -71.15 8.8 Q-70.35 3.45 -70.65 8.95 L-71.1 8.85 -70.0 10.25 Q-69.5 7.7 -69.65 10.85 L-69.5 11.15 -70.1 10.5 -70.25 10.7 -69.1 17.75 -70.05 20.55 Q-70.6 21.85 -71.5 23.0 -72.55 23.8 -73.55 23.6 -73.6 16.2 -72.35 9.65 -74.8 12.6 -75.15 17.25 -75.4 20.8 -74.55 23.15 M-24.15 8.3 L-24.2 8.15 -23.5 7.7 -23.4 7.85 -24.15 8.3 M-34.95 -10.0 L-36.9 -10.45 -36.9 -10.7 -36.85 -11.7 -35.9 -11.4 -35.7 -11.3 -34.95 -10.0 M-53.3 -4.45 L-49.05 -3.95 -47.95 -3.8 Q-48.0 -3.3 -48.2 -2.9 L-49.15 -1.9 -47.0 -1.65 -45.95 -1.5 Q-42.8 -2.75 -44.9 -4.25 L-45.8 -4.6 -46.1 -3.85 -46.9 -3.7 -46.6 -4.45 -45.8 -4.6 -45.5 -5.25 -43.55 -6.0 -43.85 -4.35 -44.15 -0.9 -44.45 -0.25 -45.15 -1.15 Q-45.4 -1.45 -45.95 -1.5 -45.95 -1.0 -46.2 -0.6 L-47.1 0.35 -47.3 -0.25 Q-49.9 -1.7 -50.3 0.05 L-49.25 0.15 -49.2 1.2 Q-48.7 4.0 -50.5 4.1 -49.75 1.95 -51.35 1.4 L-51.4 0.9 -52.4 0.6 Q-55.2 -1.25 -59.8 -0.15 L-59.95 -0.1 -59.95 -0.25 -60.2 -0.9 Q-60.45 -1.2 -60.95 -1.25 L-59.75 -1.9 -58.8 -2.0 -57.7 -1.85 Q-54.65 -1.65 -53.6 -3.55 L-53.3 -4.45 M-47.2 1.4 L-47.5 2.15 -48.25 2.3 -48.25 1.3 -47.2 1.4 M-63.15 -1.45 Q-63.15 -0.95 -63.25 -0.95 -65.3 -0.75 -67.45 -0.95 L-68.25 -2.2 -68.4 -3.15 -67.35 -3.0 -66.25 -2.9 -65.2 -2.75 -64.15 -2.6 -64.2 -1.6 -63.15 -1.45 M-69.5 -3.2 L-70.5 -3.35 -70.5 -4.4 -69.4 -4.3 -69.5 -3.2 M-54.75 -26.15 L-55.45 -26.2 -55.5 -26.5 -54.75 -26.15 M-62.3 -18.8 L-62.25 -19.8 -61.15 -19.7 -61.25 -18.7 -62.3 -18.8 M-67.7 -18.2 L-67.5 -18.4 -67.7 -18.4 -67.7 -18.2 M-69.9 -16.6 L-70.0 -15.6 -71.0 -15.7 -71.0 -16.75 -69.9 -16.6 M-60.85 -16.85 L-61.3 -16.7 Q-62.85 -14.5 -64.75 -12.35 L-64.85 -11.65 Q-65.55 -9.3 -66.75 -7.1 -65.15 -6.85 -64.1 -8.6 L-63.95 -8.95 -60.85 -16.85 M-66.2 -4.9 L-66.15 -5.15 -66.75 -5.5 -67.0 -5.8 -68.35 -5.55 -68.3 -5.15 -67.25 -5.0 -66.2 -4.9 M-60.1 -19.6 L-60.05 -20.6 -59.0 -20.45 -57.9 -20.35 Q-57.95 -19.8 -58.15 -19.7 L-60.1 -19.6 M-54.05 39.15 L-54.15 39.3 -56.05 39.35 -56.85 39.25 -56.95 39.35 -57.05 39.4 -58.3 40.2 -58.75 40.2 -58.95 40.2 -59.85 40.8 Q-63.65 40.95 -67.45 40.7 -68.55 37.5 -65.45 40.6 L-65.25 40.8 -65.2 40.8 -63.45 40.75 -62.55 40.7 -61.55 40.05 -60.95 39.6 -60.8 39.35 -60.75 39.25 -59.35 39.0 -58.9 38.9 -58.8 39.0 Q-58.75 37.85 -57.5 38.1 L-56.65 38.2 Q-55.85 37.7 -54.75 37.45 L-54.55 37.4 -54.25 37.5 -54.25 36.85 -54.2 36.45 -54.15 35.45 Q-53.65 35.5 -53.35 35.8 L-53.15 36.2 -53.15 36.55 -52.9 36.6 -52.05 36.7 -52.05 36.4 -52.05 35.75 -52.05 35.65 -52.0 34.7 -50.9 34.8 -50.0 34.9 -49.85 34.9 -49.85 35.25 -49.9 35.9 -50.85 36.05 -51.0 36.1 -51.3 36.2 -52.05 36.7 -52.05 36.75 -52.05 36.8 -52.35 37.45 Q-53.0 37.95 -53.75 38.25 L-53.8 38.55 -53.9 38.85 -54.05 39.15 M-21.1 16.75 L-21.05 16.75 -21.1 16.95 -21.1 17.4 -21.15 17.55 -21.3 17.4 -21.7 16.9 -21.1 16.75 M-40.05 31.55 L-41.6 32.0 -43.3 32.6 Q-42.8 32.2 -42.45 31.6 L-40.75 31.1 -40.05 31.55 M-45.55 1.6 L-46.1 1.5 Q-45.45 -0.7 -45.55 1.6 M-51.15 6.05 L-51.65 6.0 Q-50.95 2.15 -51.15 6.05 M-50.65 0.75 Q-50.35 0.55 -50.3 0.05 L-51.1 0.2 -51.4 0.9 -50.65 0.75 M-58.35 10.35 L-72.45 2.55 -71.9 2.6 Q-57.35 -2.25 -57.8 10.4 L-58.35 10.35 M-54.9 6.65 Q-52.95 3.65 -54.3 6.6 L-54.9 6.65 M-53.15 14.0 Q-53.75 3.45 -52.6 14.1 L-53.15 14.0 M-50.25 9.25 L-50.75 9.2 Q-50.15 6.95 -50.25 9.25 M-62.3 15.0 L-62.85 14.95 Q-62.2 12.7 -62.3 15.0 M-64.4 13.75 L-64.95 13.7 Q-64.3 11.45 -64.4 13.75 M-63.8 12.8 Q-63.15 10.6 -63.25 12.9 L-63.8 12.8 M-68.6 22.5 Q-63.05 10.6 -68.0 22.4 L-68.6 22.5 M-82.05 12.7 L-82.0 11.7 -80.95 11.8 -80.95 12.85 -82.05 12.7 M-62.75 35.45 Q-62.1 33.2 -62.2 35.55 L-62.75 35.45 M-62.7 37.7 L-64.05 38.2 -65.0 38.25 -63.0 37.7 Q-62.2 37.5 -62.7 37.7" fill="#005a9c" fill-rule="evenodd" stroke="none"/>
    <path d="M-86.9 24.45 L-86.9 23.4 Q-86.85 22.9 -87.1 22.6 -87.35 22.3 -87.9 22.25 -92.25 18.5 -95.65 14.5 -97.95 11.85 -99.75 9.05 -104.25 2.25 -106.35 -5.35 L-106.95 -5.55 Q-106.9 -6.1 -107.15 -6.35 -107.4 -6.65 -107.95 -6.7 L-107.9 -7.75 Q-105.8 -7.55 -104.9 -8.55 L-104.6 -9.4 Q-103.65 -11.15 -103.4 -12.35 L-103.35 -13.35 -95.3 -18.95 -91.4 -21.5 Q-91.1 -21.7 -91.1 -22.15 L-90.2 -22.25 -88.7 -22.85 Q-84.0 -24.55 -80.35 -23.25 L-80.3 -23.2 Q-77.4 -22.2 -75.15 -19.25 L-76.1 -19.2 Q-79.0 -18.0 -81.9 -17.5 L-83.8 -17.2 -83.9 -17.25 -84.8 -17.15 Q-88.35 -15.65 -93.15 -13.2 -93.05 -15.45 -93.7 -13.25 L-93.25 -13.2 -98.1 -10.65 -98.15 -9.65 Q-98.45 -3.5 -96.5 3.6 -95.4 7.5 -93.6 11.7 L-92.8 13.5 -92.35 13.65 -90.3 14.15 Q-83.7 15.25 -82.45 9.7 L-81.9 9.65 -81.95 10.65 -82.0 11.7 -82.65 11.8 Q-83.15 12.55 -83.15 13.6 L-82.1 13.7 -82.15 14.75 -82.2 15.8 Q-82.2 19.2 -83.3 21.35 L-84.5 23.0 -86.9 24.45 M-71.0 -16.75 L-70.95 -17.8 -69.85 -17.65 -69.9 -16.6 -71.0 -16.75 M-55.7 -21.1 L-53.6 -20.85 -52.55 -20.75 Q-52.6 -20.25 -52.85 -20.15 -54.1 -19.4 -51.6 -17.55 L-50.55 -17.4 -49.5 -17.3 -48.4 -17.15 -48.45 -16.15 -44.2 -15.65 -43.1 -15.55 -42.05 -15.4 -39.9 -15.15 -38.9 -14.25 -38.9 -14.0 -38.65 -13.95 -37.2 -12.75 -36.4 -12.05 -36.85 -11.7 -37.7 -11.55 -37.95 -10.85 -38.9 -11.15 Q-44.45 -14.45 -53.9 -14.75 L-54.1 -13.8 -55.0 -11.5 -60.1 -6.75 -60.8 -6.9 -60.25 -7.25 -57.6 -11.65 Q-56.2 -13.75 -56.65 -15.8 -56.25 -17.85 -56.3 -20.1 L-56.85 -20.2 -56.55 -20.95 -55.7 -21.1 M-48.2 -21.25 L-49.25 -21.4 -50.35 -21.5 -50.3 -22.55 -49.25 -22.4 -48.2 -22.3 -48.2 -21.25 M-51.35 -22.65 L-52.45 -22.75 -52.35 -23.8 -51.3 -23.65 -50.25 -23.55 -50.3 -22.55 -51.35 -22.65 M-57.6 -27.5 L-57.0 -27.4 -55.5 -26.5 -55.45 -26.2 -54.75 -26.15 -54.4 -25.95 -54.65 -25.45 -56.6 -25.3 Q-56.6 -25.85 -56.85 -26.15 L-57.6 -26.45 -57.6 -27.5 M-56.0 28.8 L-55.7 27.9 -55.15 27.1 -54.6 26.8 -53.5 26.5 -46.4 26.8 -46.25 26.35 Q-45.1 24.75 -43.0 24.85 -43.05 22.3 -42.2 19.95 L-42.0 18.85 -41.6 18.15 -40.9 17.35 -40.25 17.15 -40.1 17.1 -39.5 17.0 -39.45 17.0 -39.05 17.3 -39.05 17.4 Q-39.2 18.7 -40.15 20.85 L-41.6 24.2 Q-42.25 26.3 -41.25 28.0 -40.45 29.35 -38.65 30.45 L-38.25 30.7 -36.95 31.4 -37.4 31.75 -37.45 31.8 -40.05 31.55 -40.75 31.1 -42.45 31.6 Q-42.8 32.2 -43.3 32.6 L-44.25 33.0 -45.45 32.95 -47.15 32.35 -47.4 32.15 Q-52.1 33.15 -55.75 30.1 L-55.9 29.75 -56.0 28.8 M-56.15 -8.65 L-57.6 -4.9 -56.5 -4.85 -55.45 -4.7 Q-55.5 -4.2 -55.7 -4.1 L-57.65 -3.9 -58.7 -4.05 -59.75 -4.15 -60.75 -4.1 -61.95 -3.4 -63.0 -3.5 -64.1 -3.65 -64.3 -3.65 -65.15 -3.8 -65.15 -4.3 -65.1 -4.75 -64.95 -4.85 -63.65 -5.1 Q-62.3 -3.8 -59.1 -5.5 -58.3 -6.75 -56.85 -7.35 L-56.6 -7.75 -56.5 -8.5 -56.15 -8.65 M-63.3 -19.95 L-64.35 -20.05 -65.45 -20.2 -65.35 -21.25 -64.35 -21.1 -63.25 -20.95 -62.2 -20.85 -62.25 -19.8 -63.3 -19.95 M-67.55 -20.4 L-67.6 -19.45 -67.7 -18.4 -68.7 -18.5 -68.7 -19.55 -68.65 -20.6 -67.55 -20.4 M-70.0 -15.6 L-70.0 -15.1 Q-70.4 -13.85 -70.1 -12.35 L-70.15 -11.55 -70.2 -10.1 -70.35 -10.0 -70.5 -9.5 -71.3 -9.6 -71.25 -10.65 -71.2 -11.65 -71.05 -14.7 -71.0 -15.7 -70.0 -15.6 M-69.85 -18.65 L-68.7 -18.5 -68.8 -17.55 -69.85 -17.65 -69.85 -18.65 M-43.2 -13.5 L-42.25 -13.6 Q-38.7 -14.75 -43.2 -13.5" fill="#29639c" fill-rule="evenodd" stroke="none"/>
    <path d="M-69.05 32.7 L-67.95 32.8 -68.05 33.8 -64.95 33.7 Q-64.8 33.65 -64.8 33.15 L-63.7 33.3 -62.65 33.4 -61.55 33.55 -55.2 34.35 -54.15 34.4 -54.15 35.45 -54.2 36.45 -54.25 36.85 -54.25 37.5 -54.55 37.4 -54.75 37.45 Q-55.85 37.7 -56.65 38.2 L-57.5 38.1 Q-58.75 37.85 -58.8 39.0 L-58.9 38.9 -59.35 39.0 -60.75 39.25 -60.8 39.35 -60.95 39.6 -61.55 40.05 -63.45 40.75 -65.2 40.8 -65.25 40.8 -65.45 40.6 Q-68.55 37.5 -67.45 40.7 L-69.55 40.55 -71.8 39.9 -72.4 39.35 -74.0 39.05 -74.3 38.95 -74.55 38.85 -72.55 38.25 Q-71.7 37.9 -71.55 37.55 -71.25 36.95 -72.85 36.2 L-74.45 35.6 -74.55 35.1 -73.75 34.95 -73.55 34.7 -73.4 34.2 Q-72.9 34.25 -72.65 34.55 -72.35 34.8 -72.35 35.35 -70.15 36.2 -70.15 34.55 L-70.15 33.55 -69.35 33.4 Q-69.05 33.2 -69.05 32.7 M-75.4 -14.2 L-75.45 -13.15 -75.45 -12.45 -75.45 -12.15 -75.5 -11.1 -75.55 -10.1 -75.65 -9.1 -74.55 -8.95 -74.4 -8.35 Q-72.8 -7.4 -72.55 -5.6 L-71.5 -5.55 -70.45 -5.4 -70.5 -4.4 -70.5 -3.35 -69.5 -3.2 -68.4 -3.15 -68.25 -2.2 -67.45 -0.95 Q-65.3 -0.75 -63.25 -0.95 -63.15 -0.95 -63.15 -1.45 L-62.05 -1.35 -61.25 -1.25 -60.95 -1.25 Q-60.45 -1.2 -60.2 -0.9 L-59.95 -0.25 -59.95 -0.1 -59.8 -0.15 Q-55.2 -1.25 -52.4 0.6 L-51.4 0.9 -51.35 1.4 Q-49.75 1.95 -50.5 4.1 -48.7 4.0 -49.2 1.2 L-49.25 0.15 Q-48.75 0.2 -48.45 0.5 -48.2 0.8 -48.25 1.3 L-48.25 2.3 -47.5 2.15 -47.2 1.4 -47.1 0.35 -46.2 -0.6 Q-45.95 -1.0 -45.95 -1.5 -45.4 -1.45 -45.15 -1.15 L-44.45 -0.25 -44.15 -0.9 -43.85 -4.35 -43.55 -6.0 -45.5 -5.25 -45.8 -4.6 -46.6 -4.45 -46.9 -3.7 -47.95 -3.8 -49.05 -3.95 -53.3 -4.45 -54.4 -4.55 -55.45 -4.7 -56.5 -4.85 -57.6 -4.9 -56.15 -8.65 -55.85 -8.85 Q-53.7 -10.1 -54.35 -11.85 L-54.85 -11.7 -55.0 -11.5 -54.1 -13.8 -53.9 -14.75 Q-44.45 -14.45 -38.9 -11.15 L-37.95 -10.85 -36.9 -10.7 -36.9 -10.45 -34.95 -10.0 -33.6 -9.05 Q-32.65 -8.15 -32.15 -6.65 L-32.0 -6.25 -31.9 -6.15 Q-27.2 0.25 -24.7 8.15 L-24.25 8.15 -24.2 8.15 -24.15 8.3 -24.55 8.55 -23.45 12.7 Q-23.1 14.15 -23.05 15.45 -25.0 13.55 -27.85 11.6 L-29.95 11.9 -33.35 10.35 -34.05 9.3 Q-35.25 7.9 -37.45 8.05 -39.6 8.2 -40.75 9.7 -42.1 11.55 -41.9 13.25 -42.1 15.3 -40.1 17.1 L-40.25 17.15 -40.9 17.35 -41.6 18.15 -42.0 18.85 -42.2 19.95 Q-43.05 22.3 -43.0 24.85 -45.1 24.75 -46.25 26.35 L-46.4 26.8 -53.5 26.5 -54.6 26.8 -55.15 27.1 -55.7 27.9 -56.0 28.8 -58.25 27.0 Q-58.6 26.7 -59.1 26.65 -60.5 26.1 -61.75 25.85 -64.95 25.2 -67.7 26.4 L-67.85 26.5 -68.75 26.55 -68.95 26.45 Q-71.15 25.3 -73.55 24.4 L-73.55 23.6 Q-72.55 23.8 -71.5 23.0 -70.6 21.85 -70.05 20.55 L-69.1 17.75 -68.85 19.65 -68.6 19.25 Q-66.85 14.35 -69.5 11.15 L-69.65 10.85 Q-69.5 7.7 -70.0 10.25 L-71.1 8.85 -70.65 8.95 Q-70.35 3.45 -71.15 8.8 L-72.15 7.9 -72.15 7.7 Q-72.15 7.2 -72.3 6.75 -73.2 5.1 -74.9 6.9 L-75.6 7.15 -75.75 7.3 -75.9 7.35 -75.95 7.5 -76.0 7.5 -76.3 7.9 -76.5 8.25 -76.6 9.0 -76.6 9.4 -76.6 9.75 -77.7 11.6 Q-79.5 14.95 -77.75 18.0 L-77.2 18.25 Q-76.0 18.4 -75.6 18.9 L-75.65 20.75 Q-75.75 22.1 -74.75 23.0 L-74.55 23.15 -74.1 24.2 -75.05 23.9 -76.1 23.65 Q-76.6 22.55 -77.35 21.7 -77.65 21.4 -78.15 21.35 L-77.5 20.65 -77.75 20.5 Q-78.45 19.95 -78.55 19.05 L-79.15 19.2 Q-79.05 17.15 -79.45 15.2 -79.5 15.05 -80.0 15.0 L-79.95 12.95 -79.85 11.95 -79.8 10.95 -79.0 10.75 Q-78.7 10.5 -78.7 10.05 L-78.65 9.0 -77.85 8.85 -77.55 8.15 -77.5 7.1 -77.45 6.1 -76.65 5.95 -76.3 5.2 Q-73.95 3.2 -77.2 3.55 L-77.3 4.05 -78.4 3.95 -79.25 4.1 -79.5 4.8 -79.75 5.7 -80.7 6.7 -81.5 6.85 Q-81.8 7.05 -81.8 7.6 L-81.85 8.6 -81.9 9.65 -82.45 9.7 Q-83.7 15.25 -90.3 14.15 L-92.35 13.65 -92.8 13.5 -93.6 11.7 Q-95.4 7.5 -96.5 3.6 -98.45 -3.5 -98.15 -9.65 L-98.1 -10.65 -93.25 -13.2 -93.15 -13.15 -93.15 -13.2 Q-88.35 -15.65 -84.8 -17.15 L-83.9 -17.25 -83.8 -17.2 -81.9 -17.5 Q-79.0 -18.0 -76.1 -19.2 L-75.15 -19.25 -75.2 -18.25 -75.25 -17.25 -75.35 -15.2 -75.4 -14.2 M-62.8 -18.55 L-65.1 -18.85 -65.15 -18.8 -65.35 -18.7 -66.1 -18.85 -66.15 -18.8 -66.7 -18.65 -66.1 -19.35 -65.7 -19.55 -64.6 -19.85 -63.65 -19.55 -63.3 -19.4 -63.0 -19.25 -62.9 -18.85 -62.8 -18.55 M-61.25 -18.35 L-61.25 -18.7 -61.15 -19.7 -60.1 -19.6 -58.15 -19.7 Q-57.95 -19.8 -57.9 -20.35 L-56.85 -20.2 -56.3 -20.1 Q-56.25 -17.85 -56.65 -15.8 -56.9 -16.8 -57.5 -17.75 L-58.15 -17.95 -61.25 -18.35 M-69.35 -11.1 L-68.75 -10.35 -69.15 -9.2 Q-69.85 -8.0 -69.55 -6.9 L-70.35 -7.75 -70.6 -8.85 -70.5 -9.5 -70.35 -10.0 -70.2 -10.1 -69.35 -11.1 M-69.35 -6.3 L-69.3 -6.3 -69.35 -6.3 M-68.3 -5.15 L-68.35 -5.55 -67.0 -5.8 -66.75 -5.5 -66.15 -5.15 -66.2 -4.9 -67.25 -5.0 -68.3 -5.15 M-65.1 -4.75 L-65.1 -4.85 -64.95 -4.85 -65.1 -4.75 M-22.25 16.25 L-21.1 16.35 -21.1 16.75 -21.7 16.9 -21.9 16.65 -22.25 16.25 M-51.15 6.05 Q-50.95 2.15 -51.65 6.0 L-51.15 6.05 M-45.55 1.6 Q-45.45 -0.7 -46.1 1.5 L-45.55 1.6 M-50.25 9.25 Q-50.15 6.95 -50.75 9.2 L-50.25 9.25 M-53.15 14.0 L-52.6 14.1 Q-53.75 3.45 -53.15 14.0 M-54.9 6.65 L-54.3 6.6 Q-52.95 3.65 -54.9 6.65 M-58.35 10.35 L-57.8 10.4 Q-57.35 -2.25 -71.9 2.6 L-72.45 2.55 -58.35 10.35 M-68.6 22.5 L-68.0 22.4 Q-63.05 10.6 -68.6 22.5 M-63.8 12.8 L-63.25 12.9 Q-63.15 10.6 -63.8 12.8 M-64.4 13.75 Q-64.3 11.45 -64.95 13.7 L-64.4 13.75 M-62.3 15.0 Q-62.2 12.7 -62.85 14.95 L-62.3 15.0 M-62.75 35.45 L-62.2 35.55 Q-62.1 33.2 -62.75 35.45 M-62.7 37.7 Q-62.2 37.5 -63.0 37.7 L-65.0 38.25 -64.05 38.2 -62.7 37.7" fill="#4a7bb5" fill-rule="evenodd" stroke="none"/>
    <path d="M-93.15 -13.2 L-93.15 -13.15 -93.25 -13.2 -93.7 -13.25 Q-93.05 -15.45 -93.15 -13.2 M-69.3 -16.55 L-69.85 -15.55 -70.0 -15.6 -69.9 -16.6 -69.3 -16.55 M-36.4 -12.05 L-36.0 -11.7 -35.7 -11.3 -35.9 -11.4 -36.85 -11.7 -36.4 -12.05 M-49.85 34.9 L-49.3 34.95 Q-49.35 35.45 -49.9 35.9 L-49.85 35.25 -49.85 34.9" fill="#008cef" fill-rule="evenodd" stroke="none"/>
    <path d="M-19.3 21.9 L-18.9 23.65 Q-18.55 25.25 -18.65 26.4 L-18.7 27.0 Q4.1 30.25 7.1 28.9 8.35 28.35 8.45 27.55 8.5 26.9 7.6 25.55 L5.15 22.15 1.7 16.9 Q-2.1 10.6 -8.85 0.5 L-6.2 -0.25 Q-0.65 7.65 2.05 13.05 2.8 14.55 5.4 17.8 L9.55 23.25 Q13.9 29.85 8.65 31.75 1.25 34.45 -19.75 29.4 -20.7 30.85 -22.45 32.35 -24.85 34.4 -26.9 34.8 -28.85 35.2 -31.2 34.3 -27.9 32.15 -24.25 28.55 L-24.0 28.35 -22.5 26.45 Q-21.1 24.3 -20.55 21.6 L-20.25 18.95 Q-19.7 19.9 -19.55 20.75 L-19.3 21.9 M-35.5 32.85 L-35.45 32.85 Q-37.95 34.95 -40.8 36.65 L-43.05 36.7 -35.5 32.85 M-56.05 39.35 L-57.05 39.4 -56.95 39.35 -56.85 39.25 -56.05 39.35 M-78.5 37.2 L-78.55 37.2 -79.15 36.95 -78.5 37.2 M-82.6 36.15 L-82.8 35.9 -82.75 35.9 -82.6 36.15 M-50.95 36.9 L-49.2 37.2 -51.3 38.0 -52.75 38.45 -50.95 36.9 M-53.8 38.55 L-53.45 38.7 -53.9 38.85 -53.8 38.55" fill="#3b5d8b" fill-rule="evenodd" stroke="none"/>
    <path d="M-104.15 24.4 L-104.1 24.45 Q-105.95 23.65 -108.1 23.15 -108.1 22.9 -108.25 22.8 L-110.55 20.3 -109.05 19.6 -107.9 19.15 -107.7 19.1 -106.7 20.55 -105.85 21.8 -104.95 23.15 -104.15 24.4 M-102.05 25.5 L-101.65 25.7 -101.55 25.8 -100.85 26.25 -102.05 25.5 M-99.5 27.15 L-99.15 27.2 -99.6 27.15 -99.5 27.15 M-33.35 10.35 L-29.95 11.9 -27.85 11.6 Q-25.0 13.55 -23.05 15.45 L-22.9 15.55 -22.25 16.25 -21.9 16.65 -21.7 16.9 -21.3 17.4 -21.15 17.55 -21.1 17.65 -20.25 18.95 -20.55 21.6 Q-21.1 24.3 -22.5 26.45 L-24.0 28.35 -24.25 28.55 Q-27.9 32.15 -31.2 34.3 L-35.45 32.2 -35.5 32.2 -36.95 31.4 -38.25 30.7 -38.65 30.45 Q-40.45 29.35 -41.25 28.0 -42.25 26.3 -41.6 24.2 L-40.15 20.85 Q-39.2 18.7 -39.05 17.4 L-39.05 17.3 -39.0 17.15 -38.85 16.5 Q-41.6 13.45 -40.3 11.2 -38.65 8.3 -36.15 9.1 L-33.35 10.35 M-19.3 21.9 Q-14.15 23.1 -9.15 22.85 -1.8 22.45 1.3 25.2 -9.55 11.1 -13.05 7.65 L-17.65 3.0 -8.85 0.5 Q-2.1 10.6 1.7 16.9 L5.15 22.15 7.6 25.55 Q8.5 26.9 8.45 27.55 8.35 28.35 7.1 28.9 4.1 30.25 -18.7 27.0 L-18.65 26.4 Q-18.55 25.25 -18.9 23.65 L-19.3 21.9 M-74.3 38.95 L-75.0 38.75 -74.55 38.85 -74.3 38.95 M-79.15 36.95 L-82.3 36.2 -82.45 36.2 -81.5 36.35 -80.7 36.5 -79.6 36.8 -79.15 36.95" fill="#4e79b3" fill-rule="evenodd" stroke="none"/>
    <path d="M-41.9 13.25 Q-42.1 11.55 -40.75 9.7 -39.6 8.2 -37.45 8.05 -35.25 7.9 -34.05 9.3 L-33.35 10.35 -36.15 9.1 Q-38.65 8.3 -40.3 11.2 -41.6 13.45 -38.85 16.5 L-39.0 17.15 -39.05 17.3 -39.45 17.0 Q-41.75 15.25 -41.9 13.25" fill="#102a41" fill-rule="evenodd" stroke="none"/>
    <path d="M-21.1 17.3 L-21.1 17.65 -21.15 17.55 -21.1 17.4 -21.1 17.3" fill="#336da1" fill-rule="evenodd" stroke="none"/>
    <path d="M-37.45 31.8 L-35.5 32.85 -43.05 36.7 -43.4 36.85 -45.6 37.4 -47.05 37.5 -49.2 37.2 -50.95 36.9 Q-48.8 35.25 -46.3 33.95 L-45.2 33.4 -44.25 33.0 -43.3 32.6 -41.6 32.0 -40.05 31.55 -37.45 31.8" fill="#1d4d82" fill-rule="evenodd" stroke="none"/>
    <path d="M-40.8 36.65 L-43.6 38.15 -49.45 39.55 -53.35 39.2 -54.05 39.15 -53.9 38.85 -53.45 38.7 -53.2 38.85 -53.1 38.75 -52.75 38.45 -51.3 38.0 -49.2 37.2 -47.05 37.5 -45.6 37.4 -43.4 36.85 -43.05 36.7 -40.8 36.65" fill="#031f32" fill-rule="evenodd" stroke="none"/>
  </g>
</svg>
