<?xml version="1.0" encoding="UTF-8" standalone="no"?>
<svg xmlns:xlink="http://www.w3.org/1999/xlink" height="173.0px" width="51.0px" xmlns="http://www.w3.org/2000/svg">
  <g transform="matrix(1.0, 0.0, 0.0, 1.0, 64.7, 110.45)">
    <path d="M-17.0 -110.45 L-26.7 -108.45 -57.35 -108.45 -59.0 -92.2 Q-60.7 -72.2 -60.7 -53.45 -60.7 -43.4 -57.6 -32.5 -55.6 -25.35 -50.85 -13.95 -45.6 -1.4 -44.1 3.35 -41.0 12.85 -41.0 20.55 L-41.0 61.55 -39.6 62.55 -40.7 62.55 -45.0 59.55 -45.0 18.55 Q-45.0 10.85 -48.1 1.35 -49.6 -3.4 -54.85 -15.95 -59.6 -27.35 -61.6 -34.5 -64.7 -45.4 -64.7 -55.45 -64.7 -74.2 -63.0 -94.2 L-61.35 -110.45 -17.0 -110.45" fill="#008fc3" fill-rule="evenodd" stroke="none"/>
    <path d="M-58.35 -110.45 L-52.5 -110.45 -53.75 -94.2 Q-55.05 -74.2 -55.05 -55.45 -55.05 -39.6 -47.5 -15.95 -43.55 -3.4 -42.35 1.35 -40.0 10.85 -40.0 18.55 L-40.0 59.55 -36.65 62.55 -37.7 62.55 -42.0 59.55 -42.0 18.55 Q-42.0 10.85 -45.1 1.35 -46.6 -3.4 -51.85 -15.95 -56.6 -27.35 -58.6 -34.5 -61.7 -45.4 -61.7 -55.45 -61.7 -74.2 -60.0 -94.2 L-58.35 -110.45" fill="#ffffff" fill-rule="evenodd" stroke="none"/>
    <path d="M-22.0 -110.45 L-17.0 -110.45 -15.35 -94.2 Q-13.7 -74.2 -13.7 -55.45 -13.7 -45.4 -16.75 -34.5 -18.8 -27.35 -23.5 -15.95 -28.75 -3.4 -30.3 1.35 -33.35 10.85 -33.35 18.55 L-33.35 59.55 -38.7 62.55 -40.7 62.55 -41.05 62.3 -36.65 59.55 -36.65 18.55 Q-36.65 10.85 -33.9 1.35 -32.5 -3.4 -27.85 -15.95 -19.05 -39.6 -19.05 -55.45 -19.05 -74.2 -20.5 -94.2 L-22.0 -110.45" fill="#00437d" fill-rule="evenodd" stroke="none"/>
  </g>
</svg>
