<?xml version="1.0" encoding="UTF-8" standalone="no"?>
<svg xmlns:xlink="http://www.w3.org/1999/xlink" height="148.65px" width="251.5px" xmlns="http://www.w3.org/2000/svg">
  <g transform="matrix(1.0, 0.0, 0.0, 1.0, -193.4, -46.7)">
    <path d="M220.05 176.0 Q220.05 194.5 206.85 194.5 193.4 194.5 193.4 177.45 193.4 159.5 206.85 159.5 213.8 159.5 217.2 164.55 220.05 168.85 220.05 176.0 M211.0 169.05 Q209.95 165.25 206.8 165.25 201.75 165.25 201.75 177.6 201.75 183.05 202.5 185.3 203.55 188.75 206.8 188.75 209.9 188.75 211.0 185.1 211.7 182.7 211.7 177.2 211.7 171.5 211.0 169.05" fill="#588ebc" fill-rule="evenodd" stroke="none"/>
    <path d="M251.85 166.1 Q246.75 166.1 246.75 178.45 246.75 183.85 247.5 186.15 248.6 189.6 251.85 189.6 254.95 189.6 256.05 185.95 256.75 183.5 256.75 178.05 256.75 172.4 256.05 169.9 254.95 166.1 251.85 166.1 M262.25 165.4 Q265.1 169.7 265.1 176.85 265.1 195.35 251.9 195.35 238.4 195.35 238.4 178.3 238.4 160.35 251.9 160.35 258.85 160.35 262.25 165.4" fill="#588ebc" fill-rule="evenodd" stroke="none"/>
    <path d="M280.9 180.15 L295.75 161.3 304.55 161.3 304.35 180.35 308.0 180.35 308.0 186.7 304.35 186.7 304.2 194.5 296.4 194.5 296.6 186.7 283.0 186.7 280.9 180.15 M296.7 168.75 L288.15 180.35 296.6 180.35 296.8 168.75 296.7 168.75" fill="#588ebc" fill-rule="evenodd" stroke="none"/>
    <path d="M412.2 66.5 Q424.15 75.9 431.35 89.4 L441.9 82.2 444.9 123.5 407.65 105.5 419.3 97.55 Q404.1 80.35 380.05 74.6 354.2 68.55 331.95 78.65 L337.7 88.95 296.3 88.35 317.55 52.8 324.7 65.6 Q337.3 56.15 352.6 52.8 368.5 49.35 384.4 53.15 399.85 56.8 412.2 66.5" fill="#003d62" fill-rule="evenodd" stroke="none"/>
    <path d="M381.7 51.95 Q384.55 52.75 388.1 52.1 L390.2 52.25 387.4 77.7 379.0 76.8 381.7 51.95" fill="#007bb4" fill-rule="evenodd" stroke="none"/>
    <path d="M341.85 80.85 L343.85 81.45 344.7 81.8 347.55 83.9 348.8 85.2 351.25 88.8 353.0 92.75 355.0 100.5 356.45 108.5 358.2 96.9 358.95 88.75 359.25 87.35 360.55 84.55 361.3 83.75 361.45 82.5 362.5 80.0 363.4 78.85 364.5 77.8 364.4 77.55 371.9 74.75 373.5 74.4 378.25 74.4 390.05 75.7 393.9 84.85 394.15 85.25 394.35 85.8 394.65 86.35 394.95 87.0 395.05 87.3 395.3 87.7 395.65 89.0 395.7 89.55 395.7 89.65 395.8 89.95 395.75 90.55 395.55 91.3 395.25 91.55 395.1 91.55 395.1 91.9 394.65 92.1 394.4 92.5 398.05 99.8 399.5 102.0 399.85 102.45 400.05 103.0 400.1 103.5 400.05 104.25 399.75 104.5 399.55 105.1 398.9 106.55 398.35 106.9 394.8 109.85 391.05 112.25 389.95 112.9 389.55 113.4 387.95 114.9 388.9 115.75 389.45 116.7 389.5 117.25 389.4 118.0 388.6 119.7 387.15 121.2 386.7 121.8 386.5 122.3 386.05 122.9 385.85 123.65 385.8 124.15 386.15 124.7 393.3 124.95 395.3 125.45 396.6 126.6 397.0 127.55 396.95 127.95 397.0 128.7 396.9 129.6 397.0 131.0 396.95 131.65 397.6 132.6 397.8 133.15 397.6 133.9 395.85 135.75 395.05 136.05 394.1 136.25 393.5 136.15 392.95 136.25 391.7 136.2 385.35 135.4 384.55 135.45 381.15 134.95 379.8 134.55 378.95 134.05 378.7 133.8 378.4 133.35 377.7 132.65 377.25 131.95 376.95 131.3 376.75 130.6 376.7 129.7 376.95 128.6 377.2 126.55 377.6 125.3 377.5 124.8 377.55 124.3 377.45 124.0 377.5 123.9 377.5 123.65 377.55 123.15 377.3 121.95 376.25 122.2 376.15 120.8 376.25 118.75 376.8 117.0 378.05 115.1 379.05 114.05 379.05 114.2 379.95 113.0 382.15 111.55 382.8 111.5 384.0 112.3 387.75 104.85 389.35 103.25 390.6 102.45 391.95 101.95 393.65 101.75 387.95 93.6 386.8 93.45 385.9 93.5 384.55 93.35 383.4 92.95 383.05 92.65 382.95 92.5 379.35 85.6 377.95 85.45 374.75 88.8 368.5 92.0 368.25 91.95 368.1 91.95 368.1 92.05 367.8 92.3 367.55 92.25 367.45 92.25 367.45 92.35 367.15 92.6 366.65 92.55 366.4 92.5 366.25 92.5 366.25 92.65 365.25 92.4 364.8 95.4 363.95 97.15 363.75 98.0 363.05 99.6 362.45 101.7 358.45 112.2 359.3 113.95 359.65 115.65 359.55 117.6 359.35 119.5 359.15 120.25 359.05 121.1 358.9 121.35 358.75 122.5 358.45 123.1 358.25 123.85 357.6 124.95 355.35 126.6 354.7 126.8 354.15 127.15 352.85 127.4 352.2 127.45 350.9 127.3 349.7 126.8 348.65 125.9 348.4 125.75 347.25 124.45 345.15 121.3 346.55 117.95 342.6 110.35 340.6 107.55 338.65 105.55 338.4 105.25 338.05 105.0 337.25 104.25 337.0 104.1 335.7 103.05 335.0 102.6 333.1 100.95 329.95 98.2 329.15 97.2 327.8 94.25 327.75 92.45 327.85 91.4 330.15 86.65 332.25 83.95 334.65 82.15 337.95 81.1 341.85 80.85" fill="#025273" fill-rule="evenodd" stroke="none"/>
    <path d="M376.8 117.0 L378.05 115.1 379.05 114.05 381.35 119.05 381.6 122.8 382.25 126.2 383.4 128.65 383.6 128.9 384.2 129.35 385.65 130.05 387.8 130.55 390.6 130.95 390.85 130.85 396.45 131.2 397.6 132.6 397.8 133.15 397.6 133.9 395.85 135.75 395.05 136.05 394.1 136.25 393.5 136.15 392.95 136.25 391.7 136.2 385.35 135.4 384.55 135.45 381.15 134.95 379.8 134.55 378.95 134.05 378.7 133.8 378.4 133.35 377.7 132.65 377.25 131.95 376.95 131.3 376.75 130.6 376.7 129.7 376.95 128.6 377.2 126.55 377.6 125.3 377.5 124.8 377.55 124.3 377.45 124.0 377.5 123.9 377.5 123.65 377.55 123.15 377.3 121.95 376.25 122.2 376.15 120.8 376.25 118.75 376.8 117.0" fill="#006b94" fill-rule="evenodd" stroke="none"/>
    <path d="M387.6 114.45 L389.0 115.9 389.45 116.7 389.5 117.25 389.4 118.0 388.6 119.7 387.15 121.2 386.7 121.8 386.5 122.3 386.05 122.9 385.85 123.65 385.8 124.15 386.15 124.7 393.3 124.95 395.3 125.45 396.6 126.6 397.0 127.55 396.95 127.95 397.0 128.7 396.9 129.6 397.0 131.0 396.85 131.25 396.8 131.65 396.45 132.35 395.15 133.65 394.65 133.7 394.25 133.95 393.3 134.35 392.9 134.3 392.1 134.6 391.75 134.55 390.95 134.85 389.65 134.7 388.9 134.5 388.3 134.45 386.8 133.9 386.4 133.85 384.6 133.0 380.2 130.6 379.4 130.0 378.95 129.45 378.7 129.05 378.5 128.5 378.6 128.0 378.75 126.35 379.15 124.95 379.15 123.95 379.05 123.4 379.1 123.05 379.0 121.85 378.9 121.6 378.9 121.5 378.95 121.25 379.0 120.7 378.5 117.05 378.55 116.55 378.55 115.15 379.2 113.95 380.1 112.75 381.6 111.9 382.2 111.45 382.95 111.5 383.65 111.85 384.35 112.55 387.6 114.45" fill="#093c53" fill-rule="evenodd" stroke="none"/>
    <path d="M387.75 93.15 L391.65 91.55 395.65 99.55 395.65 99.65 396.45 100.8 396.75 101.45 396.9 102.1 397.5 102.95 397.3 103.45 397.3 104.5 397.2 104.45 397.15 104.6 397.15 104.85 397.1 105.35 396.8 105.45 396.0 105.9 395.5 105.95 395.25 105.9 395.1 105.9 395.1 106.05 394.8 106.25 393.75 106.4 392.8 106.8 390.9 108.0 390.05 108.8 387.65 111.65 386.85 112.2 386.45 112.4 384.35 114.9 382.2 117.1 382.05 117.35 381.55 116.0 381.5 115.45 382.85 113.45 383.85 112.65 387.65 104.95 388.35 104.4 389.35 103.35 390.6 102.6 391.9 102.1 393.6 101.9 387.75 93.15" fill="#588ebc" fill-rule="evenodd" stroke="none"/>
    <path d="M391.65 91.55 L393.55 90.85 398.05 99.8 399.5 102.0 399.85 102.45 400.05 103.0 400.1 103.5 400.05 104.25 399.75 104.5 399.55 105.1 398.9 106.55 398.35 106.9 394.8 109.85 391.05 112.25 389.95 112.9 389.55 113.4 386.95 116.05 385.4 118.2 384.45 118.75 383.65 118.9 383.2 118.6 382.35 117.85 382.05 117.35 382.2 117.1 384.35 114.9 386.45 112.4 386.85 112.2 387.65 111.65 390.05 108.8 390.9 108.0 392.8 106.8 393.75 106.4 394.8 106.25 395.1 106.05 395.1 105.9 395.25 105.9 395.5 105.95 396.0 105.9 396.8 105.45 397.1 105.35 397.15 104.85 397.15 104.6 397.2 104.45 397.3 104.5 397.3 103.45 397.5 102.95 396.9 102.1 396.75 101.45 396.45 100.8 395.65 99.65 395.65 99.55 391.65 91.55" fill="#477399" fill-rule="evenodd" stroke="none"/>
    <path d="M389.7 85.7 L386.35 75.3 390.05 75.7 393.9 84.85 394.15 85.25 394.35 85.8 394.65 86.35 394.95 87.0 395.05 87.3 395.3 87.7 395.45 88.6 395.75 89.4 395.7 89.65 395.7 89.8 395.8 90.05 395.85 90.6 394.95 92.0 393.45 92.65 392.9 92.95 391.8 91.3 390.15 87.65 389.7 85.7" fill="#285e80" fill-rule="evenodd" stroke="none"/>
    <path d="M379.35 85.6 L377.95 85.45 377.8 85.65 377.2 85.35 376.55 85.4 376.4 85.4 366.85 89.6 364.4 77.55 372.05 74.75 373.6 74.45 378.25 74.4 386.35 75.3 389.7 85.7 390.15 87.65 391.8 91.3 392.9 92.95 388.25 93.35 386.7 93.3 385.55 93.45 383.8 93.1 383.15 92.8 382.95 92.5 379.35 85.6" fill="#3379a5" fill-rule="evenodd" stroke="none"/>
    <path d="M376.6 87.2 L374.85 88.8 367.3 92.5 366.85 89.6 376.4 85.4 376.55 85.4 377.2 85.35 377.8 85.65 376.6 87.2" fill="#285e80" fill-rule="evenodd" stroke="none"/>
    <path d="M363.7 91.05 L362.2 88.45 361.2 84.9 361.15 83.85 361.65 81.85 362.65 79.8 364.25 77.9 365.6 77.15 367.35 76.55 369.7 76.2 370.1 76.1 370.95 76.45 371.4 77.0 372.15 80.8 372.15 81.95 371.7 85.15 371.1 87.1 370.45 88.2 369.95 89.45 368.65 91.75 368.25 91.95 367.95 92.3 367.45 92.35 367.0 92.6 365.9 92.45 365.65 92.3 365.5 92.3 365.25 92.25 365.0 92.1 364.9 92.1 364.65 92.05 363.7 91.05" fill="#09354a" fill-rule="evenodd" stroke="none"/>
    <path d="M361.8 89.95 L363.1 86.0 363.85 84.95 365.75 82.95 366.0 82.95 367.95 81.65 370.25 80.6 370.3 81.5 370.15 81.5 370.15 81.6 370.05 82.4 369.75 82.75 369.55 83.25 369.05 83.55 368.3 84.4 367.6 84.7 365.75 86.55 365.05 87.1 364.55 88.2 364.3 89.1 365.05 90.45 365.25 91.35 365.1 93.9 364.8 95.4 363.0 100.0 362.4 102.1 358.3 112.7 357.65 111.45 357.6 110.7 357.8 110.05 358.55 108.85 358.65 108.0 358.6 107.35 358.8 106.95 359.35 106.4 359.4 105.9 360.4 102.65 360.5 101.75 361.15 99.5 361.8 89.95" fill="#477399" fill-rule="evenodd" stroke="none"/>
    <path d="M363.85 84.95 L363.1 86.0 361.8 89.95 361.15 99.5 360.5 101.75 360.4 102.65 359.4 105.9 359.35 106.4 358.8 106.95 358.6 107.35 358.65 108.0 358.55 108.85 357.8 110.05 357.6 110.7 357.65 111.45 356.35 109.25 357.95 97.9 358.2 96.9 358.95 88.75 359.25 87.35 360.1 85.55 362.1 82.4 366.2 78.75 366.9 78.3 367.65 78.3 368.2 78.1 368.85 78.25 369.2 78.55 369.65 79.15 370.25 80.6 367.95 81.65 366.0 82.95 365.75 82.95 363.85 84.95" fill="#588ebc" fill-rule="evenodd" stroke="none"/>
    <path d="M339.4 84.45 L343.2 84.75 343.95 85.05 346.2 86.85 347.4 88.65 352.8 102.75 356.4 114.65 358.15 118.45 358.15 118.6 358.95 120.85 358.9 121.1 358.9 121.25 359.0 121.5 358.75 122.5 358.45 123.1 358.25 123.85 357.6 124.95 355.35 126.6 354.7 126.8 354.15 127.15 352.85 127.4 343.5 98.5 328.85 96.55 328.65 96.1 328.25 93.75 328.2 93.0 328.4 92.35 328.7 90.75 329.5 89.4 330.65 88.25 333.4 86.5 334.75 85.85 338.25 84.6 339.4 84.45" fill="#006b94" fill-rule="evenodd" stroke="none"/>
    <path d="M337.95 81.1 L341.85 80.85 343.85 81.45 344.7 81.8 347.55 83.9 348.8 85.2 350.15 87.05 352.4 91.15 353.0 92.75 355.0 100.5 356.35 108.0 356.45 108.4 356.85 109.35 358.7 112.6 359.2 113.7 359.2 113.8 359.5 114.6 359.65 115.65 359.35 119.5 359.15 120.25 359.05 121.1 358.95 121.3 358.9 121.25 358.9 121.1 358.95 120.85 358.15 118.6 358.15 118.45 356.4 114.65 351.15 97.9 347.4 88.65 346.2 86.85 343.95 85.05 343.2 84.75 339.4 84.45 338.25 84.6 334.75 85.85 333.4 86.5 330.65 88.25 329.5 89.4 328.7 90.75 328.4 92.35 328.2 93.0 328.25 93.75 328.65 96.1 327.8 94.25 327.75 92.45 327.85 91.4 330.15 86.65 332.25 83.95 334.65 82.15 337.95 81.1" fill="#093c53" fill-rule="evenodd" stroke="none"/>
    <path d="M339.15 85.6 L343.2 86.15 344.8 86.95 346.1 88.0 346.55 88.55 347.1 89.4 351.5 100.9 353.7 107.85 353.75 108.35 354.8 111.95 354.75 112.2 354.75 112.3 354.85 112.55 355.0 113.35 355.4 114.55 355.35 114.7 355.65 115.5 356.1 116.3 346.55 117.95 342.6 110.35 340.6 107.55 338.65 105.55 338.4 105.25 338.05 105.0 337.25 104.25 337.0 104.1 335.7 103.05 335.0 102.6 333.1 100.95 329.95 98.2 329.15 97.2 328.85 96.55 328.25 93.5 328.3 92.1 328.8 91.0 330.2 88.95 331.2 88.05 334.8 86.4 336.95 85.85 339.15 85.6" fill="#025273" fill-rule="evenodd" stroke="none"/>
    <path d="M346.7 117.6 L356.1 116.3 355.3 119.95 345.15 121.3 346.7 117.6" fill="#007a97" fill-rule="evenodd" stroke="none"/>
    <path d="M356.6 123.3 L356.6 123.7 356.7 123.95 356.6 124.7 355.8 126.05 355.55 126.0 355.45 126.0 355.4 126.1 355.15 126.35 354.3 126.75 353.8 126.85 353.4 127.05 352.2 127.45 350.9 127.3 349.7 126.8 348.65 125.9 348.4 125.75 347.25 124.45 345.15 121.3 355.1 119.8 356.15 121.95 356.6 123.3" fill="#025273" fill-rule="evenodd" stroke="none"/>
    <path d="M394.95 53.0 L395.8 54.35 395.65 54.75 394.35 55.9 393.7 56.3 393.1 56.9 392.3 57.2 391.6 57.65 390.0 58.25 387.2 57.95 384.75 57.15 382.45 55.85 379.5 53.25 379.1 52.45 377.8 51.25 377.45 50.85 377.15 50.3 377.05 49.9 376.8 49.85 376.7 49.6 377.45 49.45 Q381.55 53.3 388.05 52.1 390.8 52.4 393.9 52.1 L394.95 53.0" fill="#05466f" fill-rule="evenodd" stroke="none"/>
    <path d="M393.7 56.3 L394.35 55.9 395.65 54.75 392.45 72.6 391.95 78.2 391.95 78.35 387.2 78.1 388.25 74.6 389.55 67.3 389.75 65.4 389.95 64.9 390.0 58.25 391.6 57.65 392.3 57.2 393.1 56.9 393.7 56.3" fill="#135e87" fill-rule="evenodd" stroke="none"/>
    <path d="M387.2 57.95 L390.0 58.25 389.95 64.9 389.75 65.4 388.25 74.6 387.2 78.1 371.2 75.6 370.25 74.7 372.35 57.85 372.25 57.35 372.9 51.6 373.65 50.7 374.85 50.15 376.55 49.6 376.7 49.6 376.8 49.85 377.05 49.9 377.15 50.3 377.45 50.85 377.8 51.25 379.1 52.45 379.5 53.25 382.45 55.85 384.75 57.15 387.2 57.95" fill="#3a83ad" fill-rule="evenodd" stroke="none"/>
    <path d="M371.2 75.6 L382.4 77.55 391.95 78.35 389.15 79.3 386.65 79.7 374.8 77.5 373.45 77.0 372.25 76.35 371.2 75.6" fill="#05466f" fill-rule="evenodd" stroke="none"/>
    <path d="M376.55 48.5 L375.65 47.55 375.2 46.7 376.55 48.5 M392.3 52.2 L392.05 52.3 391.1 52.85 390.2 53.1 389.65 53.45 389.25 53.4 389.0 53.5 388.3 53.7 386.9 53.55 386.65 53.5 386.55 53.5 386.55 53.6 385.5 53.5 384.5 53.25 383.35 53.15 382.5 52.8 380.1 51.5 379.45 50.95 Q383.05 53.05 388.1 52.1 L392.3 52.2" fill="#126491" fill-rule="evenodd" stroke="none"/>
  </g>
</svg>
