<?xml version="1.0" encoding="UTF-8" standalone="no"?>
<svg xmlns:xlink="http://www.w3.org/1999/xlink" height="101.5px" width="82.35px" xmlns="http://www.w3.org/2000/svg">
  <g transform="matrix(1.0, 0.0, 0.0, 1.0, -14.65, -3.5)">
    <path d="M52.85 3.7 L63.85 3.5 Q66.9 5.25 70.35 6.4 L72.85 8.75 Q74.75 10.9 76.7 11.5 L77.35 11.9 77.55 12.15 79.25 14.35 Q82.55 17.8 84.55 22.05 L85.2 23.55 Q86.1 28.3 85.95 33.1 L85.7 41.95 85.0 37.0 85.05 38.0 Q86.0 45.8 84.55 51.15 83.95 53.25 83.0 55.0 L83.0 55.5 83.75 55.35 Q83.05 57.6 83.7 59.25 L83.0 60.55 83.0 60.0 82.75 59.25 82.0 59.0 82.0 60.0 81.0 60.0 81.0 61.0 80.0 61.0 80.0 62.0 80.0 63.0 79.0 63.0 79.0 64.0 79.0 65.0 79.0 66.0 78.0 66.0 78.0 67.0 78.0 68.0 78.0 69.0 77.0 69.0 77.0 70.0 Q76.4 72.1 77.8 71.6 77.2 72.4 76.85 73.35 L76.6 73.45 76.0 72.0 76.2 72.9 76.5 73.5 75.65 74.15 74.0 75.85 Q73.85 75.15 73.0 75.0 L73.0 74.0 Q75.7 72.25 74.2 69.85 L74.0 69.0 74.0 68.0 Q76.2 67.7 76.85 65.95 L77.0 65.0 77.0 64.0 77.0 62.0 Q77.5 62.0 77.6 61.8 79.75 56.95 77.0 58.0 L77.0 57.0 77.0 56.0 77.0 55.0 76.8 54.1 76.0 53.0 76.0 52.0 76.0 51.0 75.75 50.25 75.0 50.0 74.8 49.4 73.0 49.0 72.75 48.25 72.0 48.0 71.0 48.0 70.9 47.5 66.0 47.0 65.0 47.0 64.8 46.1 64.0 45.0 65.0 45.0 Q66.0 45.0 66.8 44.6 67.0 44.5 67.0 44.0 L68.0 44.0 Q68.0 44.5 68.25 44.75 L69.0 45.0 71.0 45.0 72.0 45.0 Q82.65 41.35 74.65 29.25 74.5 29.0 74.0 29.0 L73.9 28.05 Q71.8 20.2 64.0 18.0 L63.75 17.15 Q62.35 14.9 60.0 17.0 L60.1 16.0 Q60.65 13.35 58.0 14.0 L57.0 14.0 56.9 13.45 53.0 13.0 52.0 13.0 51.0 13.0 50.1 13.2 Q38.0 19.0 31.0 30.0 L31.0 33.0 31.0 34.0 30.0 34.0 30.0 35.0 29.0 35.0 28.45 35.1 Q27.7 38.2 26.0 40.0 L26.9 44.0 27.0 45.0 26.5 45.05 Q25.45 53.6 23.5 58.0 L23.0 57.0 23.0 56.0 23.0 55.0 23.0 53.0 23.0 52.0 23.0 51.0 22.75 50.25 22.0 50.0 21.8 49.1 21.0 48.0 20.75 47.25 Q20.5 47.0 20.0 47.0 L20.0 46.0 19.8 45.1 19.0 44.0 19.1 43.0 Q20.9 31.85 22.75 24.95 19.55 30.1 18.0 37.0 L18.0 43.0 18.0 44.0 17.0 44.0 16.45 44.0 17.0 38.35 Q19.65 29.15 24.3 20.95 L27.15 18.95 Q35.0 14.8 44.0 7.0 L43.1 7.2 37.1 10.85 40.05 7.95 Q40.8 7.25 41.65 6.65 L43.4 5.15 47.25 4.55 48.95 3.85 50.55 3.8 49.0 4.0 49.0 4.5 52.85 3.7 M82.0 24.0 Q82.0 24.5 82.25 24.8 85.65 29.45 82.0 24.0 M84.2 28.9 L84.55 29.6 Q86.9 34.35 84.55 29.2 L84.0 28.0 84.2 28.9 M81.0 65.0 L81.0 64.0 81.5 63.95 81.0 65.35 81.0 65.0 M96.95 65.55 L97.0 65.85 96.85 65.9 96.95 65.55 M69.0 8.0 L69.25 8.75 70.0 9.0 Q72.45 10.05 73.45 12.85 L74.0 13.0 Q74.0 13.5 74.25 13.75 L75.0 14.0 75.25 14.75 76.0 15.0 Q76.0 15.5 76.25 15.75 L77.0 16.0 78.0 16.0 Q80.5 16.0 76.0 14.0 L75.75 13.25 75.0 13.0 74.85 12.05 Q73.3 7.7 68.0 7.0 68.0 7.5 68.25 7.75 L69.0 8.0 M67.0 6.0 L66.2 5.75 Q62.55 2.95 55.0 4.0 L55.05 4.5 67.0 6.0 M79.0 17.0 L79.15 17.95 Q83.2 28.15 79.0 17.0 M44.0 6.0 L44.0 6.5 Q52.3 4.7 44.0 6.0 M49.0 14.5 L49.0 14.0 Q51.25 14.5 49.0 14.5 M56.0 15.0 L55.1 14.8 54.0 14.0 56.0 14.0 57.0 14.0 56.75 14.75 56.0 15.0 M46.0 40.0 L47.0 40.0 Q47.5 40.5 48.1 40.8 L49.0 41.0 49.0 42.0 48.0 42.0 48.0 43.0 47.0 43.0 47.0 42.0 46.75 41.25 46.0 41.0 46.0 42.0 45.0 42.0 45.0 41.0 45.0 40.0 46.0 40.0 M49.0 44.0 L48.25 43.75 48.0 43.0 49.0 43.0 49.0 44.0 M44.0 39.0 L45.0 39.0 45.0 40.0 44.0 40.0 44.0 39.0 M42.0 40.0 L43.0 40.0 44.0 40.0 44.0 41.0 43.0 41.0 42.0 41.0 42.0 40.0 M41.0 39.0 L41.0 40.0 40.1 39.8 Q39.5 39.5 39.0 39.0 L40.0 39.0 41.0 39.0 M41.0 44.0 L42.0 44.0 43.1 44.8 44.0 45.0 44.0 46.0 43.8 46.9 43.0 48.0 42.0 48.0 41.0 48.0 41.0 47.0 40.75 46.25 40.0 46.0 40.0 45.0 40.0 44.0 41.0 44.0 M46.0 47.0 L45.25 46.75 45.0 46.0 45.0 45.0 46.0 45.0 46.0 46.0 46.0 47.0 M58.0 51.0 L58.0 50.0 59.0 50.0 60.0 50.0 60.0 51.0 59.0 51.0 58.0 51.0 M42.0 46.0 L42.0 46.5 Q44.25 46.5 42.0 46.0 M68.0 49.0 L69.0 49.0 69.0 50.0 68.0 50.0 68.0 49.0 M64.0 51.0 L65.0 51.0 66.0 51.0 67.0 51.0 70.0 51.0 71.0 51.0 72.0 51.0 72.25 51.75 73.0 52.0 Q73.0 53.0 73.4 53.8 L74.0 54.0 74.0 55.0 74.0 56.0 74.0 57.0 73.0 57.0 72.75 56.25 72.0 56.0 71.8 55.1 71.0 54.0 70.75 53.25 69.0 52.0 68.0 52.0 68.0 53.0 68.0 54.0 67.0 54.0 67.0 55.0 66.0 55.0 65.75 54.25 Q65.5 54.0 65.0 54.0 L65.0 53.0 64.75 52.25 64.0 52.0 64.0 51.0 M24.25 22.75 Q25.9 24.4 24.0 22.0 L24.25 22.75 M25.0 21.5 Q27.25 21.5 25.0 21.0 L25.0 21.5 M32.0 24.5 Q34.25 24.5 32.0 24.0 L32.0 24.5 M16.05 46.8 L16.1 47.0 Q16.6 49.15 15.6 49.8 L16.05 46.8 M15.0 53.35 L15.0 54.0 15.0 55.0 15.0 55.55 14.95 55.55 14.95 56.65 14.65 56.35 15.0 53.35 M23.0 59.0 L23.0 58.0 23.5 58.0 23.0 59.0 M28.0 40.5 L28.0 40.0 Q30.25 40.5 28.0 40.5 M31.0 43.0 L31.0 42.0 31.0 41.0 33.85 41.45 34.0 42.0 33.0 42.0 32.0 42.0 32.0 43.0 31.0 43.0 M35.0 41.0 L35.0 40.0 36.8 40.4 Q37.0 40.5 37.0 41.0 L36.0 41.0 35.0 41.0 M35.0 47.0 L35.0 46.0 35.75 45.75 36.0 45.0 37.0 45.0 38.0 45.0 38.0 44.0 39.0 44.0 39.0 45.0 38.0 45.0 38.0 46.0 38.0 47.0 37.0 47.0 35.0 47.0 M19.0 66.5 L19.3 66.5 20.25 67.75 21.0 68.0 21.8 69.1 22.0 70.0 Q22.5 70.5 23.0 70.5 L23.0 70.0 23.0 69.0 23.0 68.0 23.0 67.0 23.0 66.0 Q23.5 66.0 23.75 66.25 L24.0 67.0 24.0 68.0 24.0 69.0 Q24.0 71.0 24.45 72.9 L25.0 73.0 25.0 74.0 25.0 74.3 Q22.45 70.2 18.85 67.15 L18.8 67.05 19.0 66.5 M52.75 96.0 L51.7 96.85 51.75 96.75 52.0 96.0 52.75 96.0 M46.2 97.7 L46.1 97.7 45.9 97.6 44.75 97.0 45.0 97.0 46.0 97.0 46.2 97.7 M43.05 96.25 L42.5 96.0 43.0 96.0 43.05 96.25 M41.05 95.45 L40.75 95.3 40.25 94.85 41.0 95.0 41.05 95.45 M76.0 57.0 L75.0 57.0 75.0 56.0 76.0 56.0 76.0 57.0 M66.0 52.5 Q68.25 52.5 66.0 52.0 L66.0 52.5 M59.0 53.0 L59.0 54.0 58.0 54.0 58.0 53.0 58.0 52.0 59.0 52.0 59.0 53.0 M60.0 61.0 L59.0 61.0 58.0 61.0 58.0 60.0 59.1 59.2 60.0 59.0 60.0 60.0 60.0 61.0 M80.9 65.6 L80.2 67.65 79.9 69.2 79.0 70.05 79.0 70.0 79.0 69.0 79.75 68.75 80.0 68.0 80.0 67.0 80.0 66.0 80.75 65.75 80.9 65.6 M78.2 71.0 L78.0 71.3 78.0 71.0 78.2 71.0 M58.0 55.0 L59.0 55.0 59.0 56.0 59.0 57.0 58.4 56.8 Q58.0 56.0 58.0 55.0 M48.2 105.0 L47.95 104.85 48.35 104.9 48.2 105.0" fill="#000000" fill-rule="evenodd" stroke="none"/>
    <path d="M52.85 3.7 L49.0 4.5 49.0 4.0 50.55 3.8 52.85 3.7 M37.1 10.85 L43.1 7.2 44.0 7.0 Q35.0 14.8 27.15 18.95 L28.2 18.15 Q32.9 14.75 37.1 10.85 M18.0 44.0 L18.0 43.0 18.0 37.0 Q19.55 30.1 22.75 24.95 20.9 31.85 19.1 43.0 L19.0 44.0 19.8 45.1 20.0 46.0 19.4 45.8 Q19.0 45.0 19.0 44.0 L18.0 44.0 M20.0 47.0 Q20.5 47.0 20.75 47.25 L21.0 48.0 20.25 47.75 Q20.0 47.5 20.0 47.0 M22.0 50.0 L22.75 50.25 23.0 51.0 22.0 51.0 22.0 50.0 M23.0 57.0 L23.5 58.0 Q25.45 53.6 26.5 45.05 L27.0 45.0 26.9 44.0 26.0 40.0 Q27.7 38.2 28.45 35.1 L29.0 35.0 Q31.15 39.35 38.0 39.0 L39.0 39.0 Q39.5 39.5 40.1 39.8 L41.0 40.0 42.0 40.0 42.0 39.0 41.0 39.0 40.0 39.0 40.0 38.0 41.8 38.4 42.0 39.0 43.0 39.0 44.0 39.0 44.0 40.0 45.0 40.0 45.0 39.0 46.0 39.0 46.0 40.0 45.0 40.0 45.0 41.0 45.0 42.0 44.0 42.0 44.0 41.0 44.0 40.0 43.0 40.0 42.0 40.0 42.0 41.0 41.0 41.0 39.0 41.0 38.0 41.0 37.0 41.0 Q37.0 40.5 36.8 40.4 L35.0 40.0 35.0 41.0 35.0 42.0 34.0 42.0 33.85 41.45 31.0 41.0 31.0 42.0 31.0 43.0 31.0 44.0 31.0 45.0 30.0 44.9 27.0 45.0 27.0 46.0 Q26.6 59.1 24.0 67.0 L23.75 66.25 Q23.5 66.0 23.0 66.0 L23.0 67.0 23.0 68.0 22.0 68.0 21.0 68.0 21.0 67.0 21.75 66.75 22.0 66.0 23.0 66.0 23.0 65.0 23.0 59.0 23.5 58.0 23.0 58.0 23.0 57.0 M30.0 35.0 L30.0 34.0 31.0 34.0 31.0 33.0 31.0 30.0 Q38.0 19.0 50.1 13.2 L51.0 13.0 Q50.9 14.65 52.8 13.6 L53.0 13.0 56.9 13.45 57.0 14.0 56.0 14.0 54.0 14.0 55.1 14.8 56.0 15.0 55.85 15.55 Q41.25 20.25 31.0 34.0 L30.75 34.75 30.0 35.0 M58.0 14.0 Q60.65 13.35 60.1 16.0 L60.0 17.0 Q62.35 14.9 63.75 17.15 L64.0 18.0 Q71.8 20.2 73.9 28.05 L74.0 29.0 Q74.5 29.0 74.65 29.25 82.65 41.35 72.0 45.0 L72.0 44.0 73.0 44.0 Q79.35 38.55 74.2 29.85 L74.0 29.0 Q73.5 29.0 73.3 28.75 L64.0 18.0 63.0 17.95 Q61.8 17.8 60.0 17.0 L59.15 16.75 Q58.05 15.95 58.0 14.0 M69.0 45.0 L68.25 44.75 Q68.0 44.5 68.0 44.0 L69.0 44.0 69.0 45.0 M67.0 44.0 Q67.0 44.5 66.8 44.6 66.0 45.0 65.0 45.0 L65.0 44.0 66.0 44.0 67.0 44.0 M64.0 45.0 L64.8 46.1 65.0 47.0 64.0 47.05 Q62.4 47.15 63.0 45.0 L64.0 45.0 M66.0 47.0 L70.9 47.5 71.0 48.0 70.0 48.0 69.0 48.0 66.0 48.0 66.0 47.0 M72.0 48.0 L72.75 48.25 73.0 49.0 72.0 49.0 72.0 48.0 M75.0 50.0 L75.75 50.25 76.0 51.0 75.0 51.0 75.0 50.0 M76.0 53.0 L76.8 54.1 77.0 55.0 76.0 55.0 76.0 54.0 76.0 53.0 M77.0 56.0 L77.0 57.0 76.0 57.0 76.0 58.0 75.0 58.0 75.0 57.0 76.0 57.0 76.0 56.0 77.0 56.0 M77.0 58.0 Q79.75 56.95 77.6 61.8 77.5 62.0 77.0 62.0 L76.75 61.25 76.0 61.0 76.0 60.0 76.0 59.0 76.0 58.0 77.0 58.0 M77.0 65.0 L76.85 65.95 Q76.2 67.7 74.0 68.0 L74.0 67.0 74.0 66.0 Q75.5 63.6 76.35 64.75 76.5 65.0 77.0 65.0 M74.0 69.0 L74.2 69.85 Q75.7 72.25 73.0 74.0 L73.0 73.0 73.0 69.0 74.0 69.0 M73.0 75.0 Q73.85 75.15 74.0 75.85 L73.0 77.0 73.0 75.0 M76.5 73.5 L76.2 72.9 76.0 72.0 76.6 73.45 76.5 73.5 M77.0 70.0 L77.0 69.0 78.0 69.0 78.0 70.0 77.0 70.0 M79.0 64.0 L79.0 63.0 80.0 63.0 79.75 63.75 79.0 64.0 M82.0 60.0 L82.0 59.0 82.75 59.25 83.0 60.0 82.0 60.0 M83.75 55.35 L83.0 55.5 83.0 55.0 Q83.95 53.25 84.55 51.15 86.0 45.8 85.05 38.0 L85.0 37.0 85.7 41.95 85.35 49.2 Q85.25 51.3 84.55 53.2 L84.3 53.8 83.75 55.35 M84.2 28.9 L84.0 28.0 84.55 29.2 Q86.9 34.35 84.55 29.6 L84.2 28.9 M82.0 24.0 Q85.65 29.45 82.25 24.8 82.0 24.5 82.0 24.0 M70.0 9.0 L69.75 8.25 69.0 8.0 68.25 7.75 Q68.0 7.5 68.0 7.0 73.3 7.7 74.85 12.05 L75.0 13.0 75.75 13.25 76.0 14.0 Q80.5 16.0 78.0 16.0 L77.0 16.0 76.75 15.25 76.0 15.0 76.0 14.0 75.0 14.0 75.0 13.0 74.0 13.0 73.45 12.85 Q72.45 10.05 70.0 9.0 M67.0 6.0 L55.05 4.5 55.0 4.0 Q62.55 2.95 66.2 5.75 L67.0 6.0 M79.0 17.0 Q83.2 28.15 79.15 17.95 L79.0 17.0 M44.0 6.0 Q52.3 4.7 44.0 6.5 L44.0 6.0 M49.0 14.5 Q51.25 14.5 49.0 14.0 L49.0 14.5 M47.0 42.0 L47.0 43.0 46.0 43.0 46.0 42.0 47.0 42.0 M48.0 43.0 L48.0 42.0 49.0 42.0 50.0 42.0 50.0 43.0 49.0 43.0 48.0 43.0 M39.0 43.0 L40.8 43.4 41.0 44.0 40.0 44.0 40.0 45.0 39.0 45.0 39.0 44.0 39.0 43.0 M47.0 48.0 L46.25 47.75 Q46.0 47.5 46.0 47.0 L46.0 46.0 46.0 45.0 47.0 45.0 47.0 47.0 47.0 48.0 M45.0 46.0 L44.0 46.0 44.0 45.0 45.0 45.0 45.0 46.0 M42.0 49.0 L41.0 49.0 41.0 48.0 42.0 48.0 42.0 49.0 M36.0 48.0 L35.0 48.0 35.0 47.0 34.25 46.75 Q34.0 46.5 34.0 46.0 L35.0 46.0 35.0 47.0 37.0 47.0 38.0 47.0 38.0 48.0 37.0 48.0 36.0 48.0 M57.0 58.0 L57.0 57.0 57.0 56.0 57.0 55.0 58.0 55.0 58.0 54.0 59.0 54.0 59.0 53.0 60.0 53.0 60.0 54.0 59.0 54.0 59.0 55.0 58.0 55.0 Q58.0 56.0 58.4 56.8 L59.0 57.0 59.8 58.1 60.0 59.0 59.1 59.2 58.0 60.0 57.8 59.1 57.0 58.0 M59.0 49.0 L60.0 49.0 60.75 49.25 61.0 50.0 60.0 50.0 59.0 50.0 59.0 49.0 M40.0 46.0 L40.75 46.25 41.0 47.0 40.0 47.0 40.0 46.0 M64.0 49.0 L66.0 49.0 67.0 49.0 67.0 50.0 66.0 50.0 66.0 51.0 65.0 51.0 65.0 50.5 Q62.9 50.65 63.0 49.0 L64.0 49.0 M71.0 49.0 L72.0 49.0 72.0 50.0 71.0 50.0 71.0 49.0 M25.0 21.5 L25.0 21.0 Q27.25 21.5 25.0 21.5 M24.25 22.75 L24.0 22.0 Q25.9 24.4 24.25 22.75 M32.0 24.5 L32.0 24.0 Q34.25 24.5 32.0 24.5 M28.0 40.5 Q30.25 40.5 28.0 40.0 L28.0 40.5 M32.0 43.0 L32.0 42.0 33.0 42.0 33.0 43.0 32.0 43.0 M37.0 45.0 L37.0 44.0 38.0 44.0 38.0 45.0 37.0 45.0 M24.0 69.0 Q25.7 69.3 25.1 72.0 L25.0 73.0 24.45 72.9 Q24.0 71.0 24.0 69.0 M25.0 74.0 L25.3 74.0 25.3 74.75 25.0 74.3 25.0 74.0 M40.25 94.85 L39.35 94.0 Q40.15 94.05 40.8 94.4 L41.0 95.0 40.25 94.85 M55.2 94.0 L55.0 94.15 55.0 94.0 55.2 94.0 M54.0 95.0 L53.0 95.8 53.0 95.0 54.0 95.0 M51.7 96.85 L51.0 96.85 51.0 96.0 52.0 96.0 51.75 96.75 51.7 96.85 M46.9 97.45 L46.2 97.7 46.0 97.0 46.75 97.25 46.9 97.45 M44.0 96.65 L43.05 96.25 43.0 96.0 44.0 96.0 44.0 96.65 M42.0 95.8 L41.05 95.45 41.0 95.0 42.0 95.0 42.0 95.8 M71.0 50.0 L71.0 51.0 70.0 51.0 67.0 51.0 67.0 50.0 68.0 50.0 69.0 50.0 70.0 50.0 71.0 50.0 M72.0 51.0 L73.0 51.0 73.0 52.0 73.8 53.1 74.0 54.0 73.4 53.8 Q73.0 53.0 73.0 52.0 L72.25 51.75 72.0 51.0 M74.0 55.0 L75.0 55.0 75.0 56.0 74.0 56.0 74.0 55.0 M71.0 54.0 L71.8 55.1 72.0 56.0 72.75 56.25 73.0 57.0 72.25 56.75 72.0 56.0 71.0 56.05 Q69.4 56.15 70.0 54.0 L71.0 54.0 M66.0 55.0 L67.0 55.0 67.0 54.0 68.0 54.0 68.0 53.0 68.0 52.0 69.0 52.0 68.8 52.9 68.0 54.0 68.0 55.0 67.0 55.0 67.0 56.0 66.25 55.75 66.0 55.0 M65.0 53.0 L65.0 54.0 64.25 53.75 Q64.0 53.5 64.0 53.0 L65.0 53.0 M61.0 63.0 L61.0 64.0 61.0 64.25 59.25 64.25 Q58.1 63.2 58.0 61.0 L59.0 61.0 60.0 61.0 Q60.0 62.0 60.4 62.8 60.5 63.0 61.0 63.0 M69.0 80.0 L69.0 79.0 69.75 79.25 70.0 80.0 69.0 80.0 M81.0 65.35 L80.9 65.6 80.75 65.75 80.0 66.0 80.0 65.0 81.0 65.0 81.0 65.35 M79.0 70.05 L78.2 71.0 78.0 71.0 78.0 70.0 79.0 70.0 79.0 70.05 M79.0 68.0 L80.0 68.0 79.75 68.75 79.0 69.0 79.0 68.0 M59.0 51.0 L59.0 52.0 58.0 52.0 58.0 51.0 59.0 51.0 M72.2 78.0 L72.0 78.25 72.0 78.0 72.2 78.0 M71.0 74.0 Q72.75 78.15 71.2 74.9 L71.0 74.0" fill="#00294a" fill-rule="evenodd" stroke="none"/>
    <path d="M16.45 44.0 L17.0 44.0 18.0 44.0 19.0 44.0 Q19.0 45.0 19.4 45.8 L20.0 46.0 20.0 47.0 19.5 47.1 Q18.25 53.15 16.1 46.35 L16.45 44.0 M21.0 48.0 L21.8 49.1 22.0 50.0 22.0 51.0 21.0 51.05 Q19.4 51.15 20.0 49.0 L20.75 48.75 21.0 48.0 M23.0 51.0 L23.0 52.0 22.25 51.75 Q22.0 51.5 22.0 51.0 L23.0 51.0 M23.0 53.0 L23.0 55.0 23.0 56.0 22.45 55.85 Q22.0 54.5 22.0 53.0 L23.0 53.0 M51.0 13.0 L52.0 13.0 53.0 13.0 52.8 13.6 Q50.9 14.65 51.0 13.0 M72.0 45.0 L71.0 45.0 69.0 45.0 69.0 44.0 71.0 44.0 72.0 44.0 72.0 45.0 M65.0 45.0 L64.0 45.0 63.0 45.0 Q62.4 47.15 64.0 47.05 L65.0 47.0 66.0 47.0 66.0 48.0 65.0 48.0 64.0 48.0 64.0 49.0 63.0 49.0 Q62.9 50.65 65.0 50.5 L65.0 51.0 64.0 51.0 63.05 50.85 61.0 50.0 60.75 49.25 60.0 49.0 60.0 48.0 60.0 47.0 Q61.7 46.7 62.4 45.2 62.5 45.0 63.0 45.0 L63.0 44.0 64.0 44.0 65.0 44.0 65.0 45.0 M73.0 49.0 L74.8 49.4 75.0 50.0 74.0 50.0 73.0 50.0 73.0 49.0 M76.0 51.0 L76.0 52.0 76.0 53.0 75.0 53.0 75.0 54.0 75.0 55.0 74.0 55.0 74.0 54.0 73.8 53.1 73.0 52.0 73.0 51.0 72.0 51.0 71.0 51.0 71.0 50.0 72.0 50.0 73.0 50.0 73.0 51.0 74.0 51.0 75.0 51.0 76.0 51.0 M77.0 55.0 L77.0 56.0 76.0 56.0 76.0 55.0 77.0 55.0 M77.0 57.0 L77.0 58.0 76.0 58.0 76.0 59.0 76.0 60.0 Q75.5 60.0 75.4 59.8 75.0 59.0 75.0 58.0 L76.0 58.0 76.0 57.0 77.0 57.0 M77.8 71.6 Q76.4 72.1 77.0 70.0 L78.0 70.0 78.0 69.0 79.0 69.0 79.0 70.0 78.0 70.0 78.0 71.0 78.0 71.3 77.8 71.6 M78.0 67.0 L78.0 66.0 79.0 66.0 79.0 67.0 78.0 67.0 M79.0 65.0 L79.0 64.0 79.75 63.75 80.0 63.0 80.0 62.0 80.0 61.0 81.0 61.0 81.0 60.0 82.0 60.0 81.75 60.75 81.0 61.0 Q81.0 62.0 81.4 62.8 L81.9 63.0 81.5 63.95 81.0 64.0 81.0 65.0 80.0 65.0 79.0 65.0 M82.0 62.7 L82.0 62.0 82.3 62.0 82.0 62.7 M70.0 9.0 L69.25 8.75 69.0 8.0 69.75 8.25 70.0 9.0 M77.0 16.0 L76.25 15.75 Q76.0 15.5 76.0 15.0 L75.25 14.75 75.0 14.0 74.25 13.75 Q74.0 13.5 74.0 13.0 L75.0 13.0 75.0 14.0 76.0 14.0 76.0 15.0 76.75 15.25 77.0 16.0 M47.0 40.0 L46.0 40.0 46.0 39.0 46.75 39.25 47.0 40.0 M45.0 42.0 L46.0 42.0 46.0 41.0 46.75 41.25 47.0 42.0 46.0 42.0 46.0 43.0 45.25 42.75 45.0 42.0 M49.0 42.0 L49.0 41.0 49.75 41.25 50.0 42.0 49.0 42.0 M49.0 43.0 L50.0 43.0 50.5 43.1 Q51.2 46.15 49.0 44.0 L49.0 43.0 M44.0 41.0 L44.0 42.0 43.25 41.75 Q43.0 41.5 43.0 41.0 L44.0 41.0 M41.0 40.0 L41.0 39.0 42.0 39.0 42.0 40.0 41.0 40.0 M39.0 41.0 L38.9 41.55 35.0 42.0 Q35.3 43.7 38.0 43.1 L39.0 43.0 39.0 44.0 38.0 44.0 37.0 44.0 37.0 45.0 36.0 45.0 35.75 45.75 35.0 46.0 35.0 45.0 36.0 45.0 35.85 44.45 Q34.05 43.95 33.0 43.0 L32.75 43.75 31.0 45.0 30.9 46.0 Q30.2 49.2 29.0 52.0 L29.2 52.85 Q31.4 56.4 30.0 61.0 L29.75 61.8 28.1 64.25 25.3 64.25 25.3 74.0 25.0 74.0 25.0 73.0 25.1 72.0 Q25.7 69.3 24.0 69.0 L24.0 68.0 24.0 67.0 Q26.6 59.1 27.0 46.0 L27.0 45.0 30.0 44.9 31.0 45.0 31.0 44.0 31.0 43.0 32.0 43.0 33.0 43.0 33.0 42.0 34.0 42.0 35.0 42.0 35.0 41.0 36.0 41.0 37.0 41.0 38.0 41.0 39.0 41.0 M42.0 44.0 L46.9 44.5 47.0 45.0 Q49.6 46.8 47.9 47.8 L47.0 48.0 47.0 47.0 47.0 45.0 46.0 45.0 45.0 45.0 44.0 45.0 43.1 44.8 42.0 44.0 M43.0 48.0 L42.75 48.75 42.0 49.0 42.0 48.0 43.0 48.0 M41.0 49.0 Q40.5 49.0 40.3 49.25 37.55 52.65 36.0 48.0 L37.0 48.0 38.0 48.0 Q39.0 48.0 39.8 47.6 40.0 47.5 40.0 47.0 L41.0 47.0 41.0 48.0 41.0 49.0 M35.0 48.0 L34.05 48.1 Q31.9 48.65 32.0 47.0 L33.1 46.2 34.0 46.0 Q34.0 46.5 34.25 46.75 L35.0 47.0 35.0 48.0 M50.05 64.25 L50.0 64.0 50.45 64.25 50.05 64.25 M56.8 64.25 Q57.15 62.0 56.0 59.0 L56.75 58.75 57.0 58.0 57.8 59.1 58.0 60.0 58.0 61.0 Q58.1 63.2 59.25 64.25 L56.8 64.25 M57.0 56.0 L56.45 55.9 Q56.0 54.0 56.0 52.0 L57.1 51.2 58.0 51.0 58.0 52.0 58.0 53.0 58.0 54.0 58.0 55.0 57.0 55.0 57.0 56.0 M58.0 50.0 L58.0 49.0 59.0 49.0 59.0 50.0 58.0 50.0 M42.0 46.0 Q44.25 46.5 42.0 46.5 L42.0 46.0 M52.0 48.0 Q58.4 61.35 46.0 61.5 L46.0 61.0 52.0 47.5 52.0 48.0 M67.0 49.0 L68.0 49.0 68.0 50.0 67.0 50.0 67.0 51.0 66.0 51.0 66.0 50.0 67.0 50.0 67.0 49.0 M69.0 49.0 L70.0 49.0 70.0 48.0 71.0 48.0 71.0 49.0 70.0 49.0 70.0 50.0 69.0 50.0 69.0 49.0 M15.0 54.0 Q18.45 52.55 15.7 55.75 L15.5 55.9 15.55 55.95 15.75 57.6 15.9 58.45 16.7 59.35 17.2 59.85 17.5 60.05 17.9 61.3 18.1 61.75 18.0 61.85 Q19.1 61.85 19.05 63.0 L19.0 63.8 Q19.6 64.55 20.0 65.55 L20.05 65.75 19.95 66.0 21.0 66.0 22.0 66.0 21.75 66.75 21.0 67.0 21.0 68.0 22.0 68.0 23.0 68.0 23.0 69.0 23.0 70.0 22.0 70.0 21.8 69.1 21.0 68.0 20.25 67.75 19.3 66.5 19.0 66.5 18.25 66.2 Q17.95 65.0 17.95 63.65 L17.85 63.6 16.85 62.35 16.85 61.95 16.8 61.75 15.6 60.25 Q15.0 58.45 14.95 56.65 L14.95 55.55 15.0 55.55 15.0 55.0 15.0 54.0 M40.0 46.0 L39.0 46.0 38.0 46.0 38.0 45.0 39.0 45.0 40.0 45.0 40.0 46.0 M33.0 52.0 Q45.2 56.65 33.15 52.55 33.0 52.5 33.0 52.0 M21.0 58.0 Q23.25 58.5 21.0 58.5 L21.0 58.0 M18.0 56.0 Q19.75 60.15 18.2 56.9 L18.0 56.0 M51.0 93.8 L55.45 93.8 55.35 93.85 55.2 94.0 55.0 94.0 55.0 94.15 54.0 95.0 53.0 95.0 53.0 95.8 52.75 96.0 52.0 96.0 51.0 96.0 51.0 95.0 51.0 93.85 51.0 93.8 M49.0 97.0 L46.9 97.45 46.75 97.25 46.0 97.0 45.0 97.0 44.75 97.0 44.0 96.65 44.0 96.0 48.9 96.5 49.0 97.0 M42.5 96.0 L42.0 95.8 42.0 95.0 43.8 95.4 44.0 96.0 43.0 96.0 42.5 96.0 M74.0 57.0 L74.0 56.0 75.0 56.0 75.0 57.0 74.0 57.0 M66.0 52.5 L66.0 52.0 Q68.25 52.5 66.0 52.5 M67.0 55.0 L68.0 55.0 67.75 55.75 67.0 56.0 67.0 55.0 M64.0 52.0 L64.75 52.25 65.0 53.0 64.0 53.0 64.0 52.0 M61.0 50.0 L60.75 50.75 60.0 51.0 60.0 50.0 61.0 50.0 M60.0 51.0 L60.0 52.0 60.0 53.0 Q65.0 53.2 61.0 53.9 L60.0 54.0 60.0 53.0 59.0 53.0 59.0 52.0 59.0 51.0 60.0 51.0 M65.7 83.75 L68.35 80.25 Q68.5 80.0 69.0 80.0 L70.0 80.0 69.8 80.9 Q68.45 83.45 66.0 85.0 L66.25 85.75 66.45 85.9 Q66.05 86.05 65.7 86.3 L65.7 83.75 M79.0 68.0 L79.0 67.0 80.0 67.0 80.0 68.0 79.0 68.0 M44.0 50.0 Q47.85 50.5 44.0 50.5 L44.0 50.0 M41.0 51.0 Q43.25 51.5 41.0 51.5 L41.0 51.0 M42.0 55.0 Q44.25 55.5 42.0 55.5 L42.0 55.0 M43.0 56.0 Q45.25 56.5 43.0 56.5 L43.0 56.0 M41.0 57.5 L41.0 57.0 Q43.25 57.5 41.0 57.5 M46.0 49.0 Q51.4 49.5 46.0 49.5 L46.0 49.0" fill="#005a9c" fill-rule="evenodd" stroke="none"/>
    <path d="M29.0 35.0 L30.0 35.0 30.75 34.75 31.0 34.0 Q41.25 20.25 55.85 15.55 L56.0 15.0 56.75 14.75 57.0 14.0 58.0 14.0 Q58.05 15.95 59.15 16.75 L60.0 17.0 Q61.8 17.8 63.0 17.95 L64.0 18.0 73.3 28.75 Q73.5 29.0 74.0 29.0 L74.2 29.85 Q79.35 38.55 73.0 44.0 L72.8 43.1 Q70.8 39.55 70.0 36.0 L69.8 35.1 65.05 27.5 Q67.2 27.5 65.0 27.0 L65.0 27.45 62.0 23.0 61.0 23.0 Q50.9 23.0 39.0 29.0 37.35 37.45 43.9 38.5 L44.0 39.0 43.0 39.0 42.0 39.0 41.8 38.4 40.0 38.0 40.0 39.0 39.0 39.0 38.0 39.0 Q31.15 39.35 29.0 35.0 M71.0 48.0 L72.0 48.0 72.0 49.0 71.0 49.0 71.0 48.0 M77.0 62.0 L77.0 64.0 77.0 65.0 Q76.5 65.0 76.35 64.75 75.5 63.6 74.0 66.0 L74.0 67.0 74.0 68.0 74.0 69.0 73.0 69.0 73.0 73.0 73.0 74.0 73.0 75.0 73.0 77.0 72.2 78.0 72.0 78.0 72.0 78.25 70.95 79.65 70.4 80.45 70.0 80.0 69.75 79.25 69.0 79.0 69.2 78.1 Q71.8 72.8 71.0 64.0 L70.05 63.85 61.0 61.0 61.0 62.0 61.0 63.0 Q60.5 63.0 60.4 62.8 60.0 62.0 60.0 61.0 L60.0 60.0 60.0 59.0 59.8 58.1 59.0 57.0 59.0 56.0 59.0 55.0 59.0 54.0 60.0 54.0 Q66.25 62.25 75.95 61.5 L76.0 61.0 76.75 61.25 77.0 62.0 M78.0 69.0 L78.0 68.0 78.0 67.0 79.0 67.0 79.0 66.0 79.0 65.0 80.0 65.0 80.0 66.0 80.0 67.0 79.0 67.0 79.0 68.0 79.0 69.0 78.0 69.0 M83.0 60.0 L83.0 60.55 82.3 62.0 82.0 62.0 82.0 62.7 81.9 63.0 81.4 62.8 Q81.0 62.0 81.0 61.0 L81.75 60.75 82.0 60.0 83.0 60.0 M64.0 49.0 L64.0 48.0 65.0 48.0 66.0 48.0 69.0 48.0 70.0 48.0 70.0 49.0 69.0 49.0 68.0 49.0 67.0 49.0 66.0 49.0 64.0 49.0 M72.0 49.0 L73.0 49.0 73.0 50.0 74.0 50.0 75.0 50.0 75.0 51.0 74.0 51.0 73.0 51.0 73.0 50.0 72.0 50.0 72.0 49.0 M76.0 53.0 L76.0 54.0 76.0 55.0 76.0 56.0 75.0 56.0 75.0 55.0 75.0 54.0 75.0 53.0 76.0 53.0 M71.0 74.0 L71.2 74.9 Q72.75 78.15 71.0 74.0" fill="#29639c" fill-rule="evenodd" stroke="none"/>
    <path d="M23.0 52.0 L23.0 53.0 22.0 53.0 Q22.0 54.5 22.45 55.85 L23.0 56.0 23.0 57.0 23.0 58.0 23.0 59.0 23.0 65.0 23.0 66.0 22.0 66.0 21.0 66.0 19.95 66.0 20.05 65.75 20.0 65.55 Q19.6 64.55 19.0 63.8 L19.05 63.0 Q19.1 61.85 18.0 61.85 L18.1 61.75 17.9 61.3 17.5 60.05 17.2 59.85 16.7 59.35 15.75 57.6 15.55 55.95 15.5 55.9 15.7 55.75 Q18.45 52.55 15.0 54.0 L15.0 53.35 15.2 52.15 15.6 49.8 Q16.6 49.15 16.1 47.0 L16.05 46.8 16.1 46.35 Q18.25 53.15 19.5 47.1 L20.0 47.0 Q20.0 47.5 20.25 47.75 L21.0 48.0 20.75 48.75 20.0 49.0 Q19.4 51.15 21.0 51.05 L22.0 51.0 Q22.0 51.5 22.25 51.75 L23.0 52.0 M68.0 44.0 L67.0 44.0 66.0 44.0 65.0 44.0 64.0 44.0 63.0 44.0 63.0 45.0 Q62.5 45.0 62.4 45.2 61.7 46.7 60.0 47.0 L60.0 48.0 60.0 49.0 59.0 49.0 58.0 49.0 58.0 50.0 58.0 51.0 57.1 51.2 56.0 52.0 Q56.0 54.0 56.45 55.9 L57.0 56.0 57.0 57.0 57.0 58.0 56.75 58.75 56.0 59.0 Q57.15 62.0 56.8 64.25 L50.45 64.25 50.0 64.0 50.05 64.25 28.1 64.25 29.75 61.8 30.0 61.0 Q31.4 56.4 29.2 52.85 L29.0 52.0 Q30.2 49.2 30.9 46.0 L31.0 45.0 32.75 43.75 33.0 43.0 Q34.05 43.95 35.85 44.45 L36.0 45.0 35.0 45.0 35.0 46.0 34.0 46.0 33.1 46.2 32.0 47.0 Q31.9 48.65 34.05 48.1 L35.0 48.0 36.0 48.0 Q37.55 52.65 40.3 49.25 40.5 49.0 41.0 49.0 L42.0 49.0 42.75 48.75 43.0 48.0 43.8 46.9 44.0 46.0 45.0 46.0 45.25 46.75 46.0 47.0 Q46.0 47.5 46.25 47.75 L47.0 48.0 47.9 47.8 Q49.6 46.8 47.0 45.0 L46.9 44.5 42.0 44.0 41.0 44.0 40.8 43.4 39.0 43.0 38.0 43.1 Q35.3 43.7 35.0 42.0 L38.9 41.55 39.0 41.0 41.0 41.0 42.0 41.0 43.0 41.0 Q43.0 41.5 43.25 41.75 L44.0 42.0 45.0 42.0 45.25 42.75 46.0 43.0 47.0 43.0 48.0 43.0 48.25 43.75 49.0 44.0 Q51.2 46.15 50.5 43.1 L50.0 43.0 50.0 42.0 49.75 41.25 49.0 41.0 48.1 40.8 Q47.5 40.5 47.0 40.0 L46.75 39.25 46.0 39.0 45.0 39.0 44.0 39.0 43.9 38.5 Q37.35 37.45 39.0 29.0 50.9 23.0 61.0 23.0 L62.0 23.0 65.0 27.45 65.0 27.5 65.05 27.5 69.8 35.1 70.0 36.0 Q70.8 39.55 72.8 43.1 L73.0 44.0 72.0 44.0 71.0 44.0 69.0 44.0 68.0 44.0 M40.0 47.0 Q40.0 47.5 39.8 47.6 39.0 48.0 38.0 48.0 L38.0 47.0 38.0 46.0 39.0 46.0 40.0 46.0 40.0 47.0 M52.0 48.0 L52.0 47.5 46.0 61.0 46.0 61.5 Q58.4 61.35 52.0 48.0 M61.0 50.0 L63.05 50.85 64.0 51.0 64.0 52.0 64.0 53.0 Q64.0 53.5 64.25 53.75 L65.0 54.0 Q65.5 54.0 65.75 54.25 L66.0 55.0 66.25 55.75 67.0 56.0 67.75 55.75 68.0 55.0 68.0 54.0 68.8 52.9 69.0 52.0 70.75 53.25 71.0 54.0 70.0 54.0 Q69.4 56.15 71.0 56.05 L72.0 56.0 72.25 56.75 73.0 57.0 74.0 57.0 75.0 57.0 75.0 58.0 Q75.0 59.0 75.4 59.8 75.5 60.0 76.0 60.0 L76.0 61.0 75.95 61.5 Q66.25 62.25 60.0 54.0 L61.0 53.9 Q65.0 53.2 60.0 53.0 L60.0 52.0 60.0 51.0 60.75 50.75 61.0 50.0 M33.0 52.0 Q33.0 52.5 33.15 52.55 45.2 56.65 33.0 52.0 M21.0 58.0 L21.0 58.5 Q23.25 58.5 21.0 58.0 M18.0 56.0 L18.2 56.9 Q19.75 60.15 18.0 56.0 M39.35 94.0 L39.2 93.85 39.15 93.8 51.0 93.8 51.0 93.85 51.0 95.0 51.0 96.0 51.0 96.85 49.0 97.0 48.9 96.5 44.0 96.0 43.8 95.4 42.0 95.0 41.0 95.0 40.8 94.4 Q40.15 94.05 39.35 94.0 M61.0 64.25 L61.0 64.0 61.0 63.0 61.0 62.0 61.0 61.0 70.05 63.85 71.0 64.0 Q71.8 72.8 69.2 78.1 L69.0 79.0 69.0 80.0 Q68.5 80.0 68.35 80.25 L65.7 83.75 65.7 64.25 61.0 64.25 M41.0 57.5 Q43.25 57.5 41.0 57.0 L41.0 57.5 M43.0 56.0 L43.0 56.5 Q45.25 56.5 43.0 56.0 M42.0 55.0 L42.0 55.5 Q44.25 55.5 42.0 55.0 M41.0 51.0 L41.0 51.5 Q43.25 51.5 41.0 51.0 M44.0 50.0 L44.0 50.5 Q47.85 50.5 44.0 50.0 M46.0 49.0 L46.0 49.5 Q51.4 49.5 46.0 49.0" fill="#4a7bb5" fill-rule="evenodd" stroke="none"/>
    <path d="M65.0 27.45 L65.0 27.0 Q67.2 27.5 65.05 27.5 L65.0 27.5 65.0 27.45 M70.0 49.0 L71.0 49.0 71.0 50.0 70.0 50.0 70.0 49.0 M23.0 70.0 L23.0 70.5 Q22.5 70.5 22.0 70.0 L23.0 70.0 M70.4 80.45 L67.45 84.65 66.7 85.75 66.45 85.9 66.25 85.75 66.0 85.0 Q68.45 83.45 69.8 80.9 L70.0 80.0 70.4 80.45" fill="#008cef" fill-rule="evenodd" stroke="none"/>
    <path d="M32.0 84.0 L31.9 83.05 Q29.85 74.5 26.0 74.0 L26.0 73.0 26.0 68.0 28.1 64.25 50.05 64.25 50.15 64.55 Q52.9 65.6 50.45 64.25 L56.8 64.25 56.2 66.1 56.0 67.0 55.5 67.1 Q55.15 68.65 53.0 68.0 53.3 69.7 56.0 69.1 L57.0 69.0 56.75 69.75 56.0 70.0 55.0 70.0 Q55.0 70.5 55.25 70.75 L56.0 71.0 57.0 71.0 Q57.5 71.5 58.1 71.8 L59.0 72.0 58.75 72.75 57.0 74.0 56.0 74.0 55.0 74.0 54.0 74.0 51.0 74.0 Q52.0 75.5 54.0 75.9 L55.0 76.0 56.0 76.0 57.0 76.0 57.25 76.75 58.0 77.0 58.0 78.0 57.0 78.0 57.0 79.0 56.0 79.0 51.0 79.0 50.0 79.0 49.75 78.25 49.0 78.0 49.0 79.0 48.2 78.75 Q46.25 77.25 44.0 76.0 L43.0 76.0 42.8 75.1 42.0 74.0 41.25 73.75 Q41.0 73.5 41.0 73.0 L42.0 73.0 43.0 73.0 44.0 73.0 45.1 73.8 46.0 74.0 47.0 74.0 47.5 74.0 47.0 73.0 46.0 73.0 Q46.0 72.5 45.8 72.4 L44.0 72.0 43.0 72.0 42.0 72.0 41.0 72.0 40.9 71.0 Q40.7 69.8 38.0 71.0 38.15 76.35 42.05 77.85 L43.0 78.0 Q44.25 80.2 48.0 80.05 L49.0 80.0 50.0 80.0 51.0 80.0 Q56.4 82.9 57.8 86.1 L58.0 87.0 57.45 87.15 Q55.95 91.95 51.0 93.0 L51.0 93.8 39.15 93.8 38.95 93.65 38.75 93.25 38.4 93.05 37.95 92.55 37.75 92.25 37.5 92.1 37.05 91.55 37.1 91.05 Q37.65 88.9 36.0 89.0 L36.0 88.0 Q36.2 84.3 32.0 85.0 L32.0 84.0 M61.0 65.0 L61.0 64.25 65.7 64.25 65.7 83.75 Q63.6 86.15 61.0 88.0 L61.0 89.0 61.0 89.3 60.25 89.85 60.1 89.8 Q58.5 89.0 58.0 87.0 60.25 82.95 60.95 78.0 L61.0 77.0 62.0 77.0 62.5 77.0 62.0 76.0 61.0 76.0 61.0 75.0 Q65.25 75.7 62.7 72.25 62.5 72.0 62.0 72.0 L61.75 71.25 61.0 71.0 61.0 70.0 61.0 69.0 61.0 65.0 M43.0 66.0 L43.0 66.5 Q53.25 64.95 43.0 66.0 M48.0 68.5 Q50.25 68.5 48.0 68.0 L48.0 68.5 M51.0 67.0 L51.0 67.5 Q54.85 67.5 51.0 67.0 M56.0 72.0 L56.0 72.5 Q58.25 72.5 56.0 72.0 M49.0 74.5 Q51.25 74.5 49.0 74.0 L49.0 74.5" fill="#4a7bb5" fill-rule="evenodd" stroke="none"/>
    <path d="M28.1 64.25 L26.0 68.0 26.0 73.0 26.0 74.0 Q29.85 74.5 31.9 83.05 L32.0 84.0 31.0 84.0 30.0 84.0 29.8 83.1 29.0 82.0 28.75 81.25 28.4 81.05 27.45 78.95 26.0 76.0 26.0 74.0 25.3 74.0 25.3 64.25 28.1 64.25 M32.0 85.0 Q36.2 84.3 36.0 88.0 L36.0 89.0 Q37.65 88.9 37.1 91.05 L37.05 91.55 36.0 90.35 36.0 90.0 36.0 89.0 35.0 89.0 34.75 88.25 Q34.5 88.0 34.05 88.0 L34.0 88.0 33.75 87.25 Q33.5 87.0 33.05 87.0 L33.0 86.95 32.75 86.25 Q32.5 86.0 32.0 86.0 L32.0 85.0 M37.5 92.1 L37.75 92.25 37.95 92.55 37.5 92.1 M38.4 93.05 L38.75 93.25 38.95 93.65 38.4 93.05 M51.0 93.8 L51.0 93.0 Q55.95 91.95 57.45 87.15 L58.0 87.0 57.8 86.1 Q56.4 82.9 51.0 80.0 L50.0 80.0 50.0 79.0 49.0 79.0 49.0 80.0 48.0 80.05 Q44.25 80.2 43.0 78.0 L42.05 77.85 Q38.15 76.35 38.0 71.0 40.7 69.8 40.9 71.0 L41.0 72.0 42.0 72.0 42.0 73.0 41.0 73.0 41.0 72.0 40.0 72.0 39.0 72.0 39.25 72.75 40.0 73.0 Q40.45 77.0 41.8 74.85 L42.0 74.0 42.8 75.1 43.0 76.0 43.0 77.0 43.0 78.0 43.8 76.9 44.0 76.0 Q46.25 77.25 48.2 78.75 L49.0 79.0 49.0 78.0 49.75 78.25 50.0 79.0 51.0 79.0 51.0 80.0 Q55.3 81.4 58.8 79.6 L59.0 79.0 59.8 77.9 60.0 77.0 61.0 77.0 60.95 78.0 Q60.25 82.95 58.0 87.0 58.5 89.0 60.1 89.8 L60.25 89.85 58.2 91.5 57.0 92.0 57.0 92.5 56.4 93.0 56.0 93.0 56.0 93.35 55.45 93.8 51.0 93.8 M44.0 72.0 L45.8 72.4 Q46.0 72.5 46.0 73.0 L46.0 74.0 45.1 73.8 44.0 73.0 44.0 72.0 M47.0 73.0 L47.5 74.0 47.0 74.0 47.0 73.0 M58.0 78.0 L58.0 77.0 59.0 77.0 59.0 78.0 58.0 78.0 M55.0 76.0 L54.0 75.9 Q52.0 75.5 51.0 74.0 L54.0 74.0 55.0 74.0 55.0 75.0 55.0 76.0 M57.0 74.0 L58.75 72.75 59.0 72.0 58.1 71.8 Q57.5 71.5 57.0 71.0 L57.6 70.8 Q58.7 68.3 57.0 68.0 L56.75 67.25 Q56.5 67.0 56.0 67.0 56.0 67.5 56.25 67.75 L57.0 68.0 57.0 69.0 56.0 69.1 Q53.3 69.7 53.0 68.0 55.15 68.65 55.5 67.1 L56.0 67.0 56.2 66.1 56.8 64.25 59.25 64.25 Q59.6 64.6 60.1 64.8 L61.0 65.0 61.0 69.0 61.0 70.0 60.1 69.8 Q59.5 69.5 59.0 69.0 L59.0 71.0 59.0 72.0 Q60.55 74.9 61.8 72.85 L62.0 72.0 61.25 71.75 Q61.0 71.5 61.0 71.0 L61.75 71.25 62.0 72.0 Q62.5 72.0 62.7 72.25 65.25 75.7 61.0 75.0 L61.0 76.0 60.0 76.0 59.75 75.25 Q59.5 75.0 59.0 75.0 L58.0 75.0 57.0 75.0 57.0 74.0 M56.0 71.0 L55.25 70.75 Q55.0 70.5 55.0 70.0 L56.0 70.0 56.0 71.0 M50.45 64.25 Q52.9 65.6 50.15 64.55 L50.05 64.25 50.45 64.25 M62.0 76.0 L62.5 77.0 62.0 77.0 62.0 76.0 M61.0 89.3 L61.0 89.0 61.0 88.0 Q63.6 86.15 65.7 83.75 L65.7 86.3 Q63.3 87.65 61.0 89.3 M43.0 66.0 Q53.25 64.95 43.0 66.5 L43.0 66.0 M48.0 68.5 L48.0 68.0 Q50.25 68.5 48.0 68.5 M51.0 67.0 Q54.85 67.5 51.0 67.5 L51.0 67.0 M56.0 72.0 Q58.25 72.5 56.0 72.5 L56.0 72.0 M49.0 74.5 L49.0 74.0 Q51.25 74.5 49.0 74.5" fill="#005a9c" fill-rule="evenodd" stroke="none"/>
    <path d="M32.0 84.0 L32.0 85.0 31.1 84.8 30.0 84.0 31.0 84.0 32.0 84.0 M50.0 80.0 L49.0 80.0 49.0 79.0 50.0 79.0 50.0 80.0 M42.0 72.0 L43.0 72.0 44.0 72.0 44.0 73.0 43.0 73.0 42.0 73.0 42.0 72.0 M46.0 73.0 L47.0 73.0 47.0 74.0 46.0 74.0 46.0 73.0 M41.0 73.0 Q41.0 73.5 41.25 73.75 L42.0 74.0 41.8 74.85 Q40.45 77.0 40.0 73.0 L39.25 72.75 39.0 72.0 40.0 72.0 40.0 73.0 41.0 73.0 M43.0 76.0 L44.0 76.0 43.8 76.9 43.0 78.0 43.0 77.0 43.0 76.0 M51.0 79.0 L56.0 79.0 57.0 79.0 58.0 79.0 59.0 79.0 59.0 78.0 59.0 77.0 60.0 77.0 59.8 77.9 59.0 79.0 58.8 79.6 Q55.3 81.4 51.0 80.0 L51.0 79.0 M58.0 77.0 L57.25 76.75 57.0 76.0 56.0 76.0 55.0 76.0 55.0 75.0 55.0 74.0 56.0 74.0 57.0 74.0 57.0 75.0 57.0 76.0 57.75 76.25 58.0 77.0 M57.0 71.0 L56.0 71.0 56.0 70.0 56.75 69.75 57.0 69.0 57.0 68.0 56.25 67.75 Q56.0 67.5 56.0 67.0 56.5 67.0 56.75 67.25 L57.0 68.0 Q58.7 68.3 57.6 70.8 L57.0 71.0 M25.3 74.0 L26.0 74.0 26.0 76.0 25.3 74.75 25.3 74.0 M28.4 81.05 L28.75 81.25 29.0 82.0 29.8 83.1 30.0 84.0 29.75 84.0 29.05 82.5 29.0 82.0 28.8 82.0 28.4 81.05 M32.0 86.0 Q32.5 86.0 32.75 86.25 L33.0 86.95 32.0 86.0 M33.05 87.0 Q33.5 87.0 33.75 87.25 L34.0 88.0 33.05 87.0 M34.05 88.0 Q34.5 88.0 34.75 88.25 L35.0 89.0 36.0 89.0 36.0 90.0 35.75 90.0 35.0 89.1 35.0 89.0 34.95 89.0 34.05 88.0 M61.0 64.25 L61.0 65.0 60.1 64.8 Q59.6 64.6 59.25 64.25 L61.0 64.25 M61.0 70.0 L61.0 71.0 Q61.0 71.5 61.25 71.75 L62.0 72.0 61.8 72.85 Q60.55 74.9 59.0 72.0 L59.0 71.0 59.0 69.0 Q59.5 69.5 60.1 69.8 L61.0 70.0 M61.0 76.0 L62.0 76.0 62.0 77.0 61.0 77.0 61.0 76.0 M59.0 75.0 Q59.5 75.0 59.75 75.25 L60.0 76.0 59.25 75.75 Q59.0 75.5 59.0 75.0 M57.0 92.5 L57.0 92.0 58.2 91.5 57.25 92.25 57.0 92.5 M56.0 93.35 L56.0 93.0 56.4 93.0 56.0 93.35" fill="#00294a" fill-rule="evenodd" stroke="none"/>
    <path d="M57.0 79.0 L57.0 78.0 58.0 78.0 59.0 78.0 59.0 79.0 58.0 79.0 57.0 79.0 M40.0 73.0 L40.0 72.0 41.0 72.0 41.0 73.0 40.0 73.0 M30.0 84.0 L31.1 84.8 32.0 85.0 32.0 86.0 29.85 84.2 29.75 84.0 30.0 84.0 M36.0 90.0 L36.0 90.35 35.9 90.2 35.75 90.0 36.0 90.0 M28.8 82.0 L29.0 82.0 29.05 82.5 28.8 82.0 M35.0 89.1 L34.95 89.0 35.0 89.0 35.0 89.1 M60.0 76.0 L61.0 76.0 61.0 77.0 60.0 77.0 59.0 77.0 58.0 77.0 57.75 76.25 57.0 76.0 57.0 75.0 58.0 75.0 59.0 75.0 Q59.0 75.5 59.25 75.75 L60.0 76.0" fill="#000000" fill-rule="evenodd" stroke="none"/>
  </g>
</svg>
