<?xml version="1.0" encoding="UTF-8" standalone="no"?>
<svg xmlns:xlink="http://www.w3.org/1999/xlink" height="69.75px" width="81.9px" xmlns="http://www.w3.org/2000/svg">
  <g transform="matrix(1.0, 0.0, 0.0, 1.0, -332.15, -23.35)">
    <path d="M403.15 69.85 L395.95 65.0 397.9 63.2 Q402.9 67.35 403.15 69.85" fill="#477399" fill-rule="evenodd" stroke="none"/>
    <path d="M407.9 67.1 Q408.4 69.6 407.15 71.6 406.5 72.55 405.55 75.4 404.75 77.9 403.6 79.1 L401.7 77.8 401.5 76.25 Q401.45 74.45 402.3 73.05 403.65 71.05 404.6 70.55 L403.15 69.85 Q402.9 67.35 397.9 63.2 L400.95 60.4 407.9 67.1" fill="#588ebc" fill-rule="evenodd" stroke="none"/>
    <path d="M407.9 67.1 Q409.3 68.75 409.3 69.9 409.3 70.9 409.65 73.25 409.75 75.35 408.9 76.45 L404.8 79.9 403.6 79.1 Q404.75 77.9 405.55 75.4 406.5 72.55 407.15 71.6 408.4 69.6 407.9 67.1" fill="#477399" fill-rule="evenodd" stroke="none"/>
    <path d="M395.3 54.15 L401.55 60.15 397.05 67.6 391.35 63.55 395.3 54.15" fill="#135e87" fill-rule="evenodd" stroke="none"/>
    <path d="M410.2 69.75 Q411.25 68.4 412.25 67.4 L413.75 67.85 411.7 70.85 Q410.6 72.5 410.05 74.8 L409.75 76.75 409.75 76.8 Q409.5 79.65 408.55 81.5 L401.0 92.8 400.95 92.75 Q400.3 93.6 397.85 92.5 L405.15 82.55 Q407.75 79.0 407.75 77.15 407.35 75.45 407.65 74.1 408.05 72.4 410.2 69.75" fill="#024f7b" fill-rule="evenodd" stroke="none"/>
    <path d="M408.3 68.55 L410.35 65.5 410.55 66.15 Q408.2 70.2 406.3 71.7 L403.25 73.6 Q401.35 74.8 400.25 76.65 L392.7 88.5 Q391.95 87.4 392.3 86.85 L392.4 86.8 400.05 75.4 400.05 75.35 Q401.15 73.8 404.0 72.55 L405.5 71.55 Q407.2 70.2 408.3 68.55" fill="#a6c5da" fill-rule="evenodd" stroke="none"/>
    <path d="M410.55 66.15 L410.35 65.5 410.6 65.15 Q411.15 64.5 412.75 65.55 414.4 66.65 413.95 67.45 L414.0 67.45 413.75 67.85 412.25 67.4 Q411.25 68.4 410.2 69.75 408.05 72.4 407.65 74.1 407.35 75.45 407.75 77.15 407.75 79.0 405.15 82.55 L397.85 92.5 395.65 91.3 Q393.55 89.9 392.7 88.5 L400.25 76.65 Q401.35 74.8 403.25 73.6 L406.3 71.7 Q408.2 70.2 410.55 66.15" fill="#75a7c9" fill-rule="evenodd" stroke="none"/>
    <path d="M412.55 65.8 Q413.8 66.7 413.55 67.15 413.2 67.6 411.9 66.75 410.65 65.95 410.95 65.4 411.3 65.0 412.55 65.8" fill="#000b30" fill-rule="evenodd" stroke="none"/>
    <path d="M405.2 72.8 L405.05 73.3 Q404.75 74.45 403.6 75.5 402.25 76.7 400.95 76.0 399.9 75.45 400.15 74.8 L402.65 74.55 Q403.55 74.35 405.2 72.8" fill="#477399" fill-rule="evenodd" stroke="none"/>
    <path d="M406.75 70.35 L405.25 71.85 405.2 72.8 Q403.55 74.35 402.65 74.55 L400.15 74.8 401.6 73.05 403.35 70.1 406.75 70.35" fill="#588ebc" fill-rule="evenodd" stroke="none"/>
    <path d="M409.2 79.85 L408.2 81.45 Q407.65 82.2 406.0 82.65 L400.95 83.6 400.75 82.7 Q400.75 82.0 401.05 81.75 L401.35 81.65 401.6 79.55 Q402.0 78.9 402.55 78.95 L403.05 79.15 Q403.05 78.25 403.5 77.05 403.75 76.4 405.55 76.25 L407.9 75.9 410.3 73.7 410.75 72.7 412.0 75.2 Q410.2 78.65 409.2 79.85" fill="#588ebc" fill-rule="evenodd" stroke="none"/>
    <path d="M406.0 82.65 Q407.65 82.2 408.2 81.45 L409.2 79.85 Q410.2 78.65 412.0 75.2 L411.75 79.15 409.1 83.15 Q408.4 84.1 406.6 84.2 L403.05 84.85 Q401.7 85.0 400.95 83.6 L406.0 82.65" fill="#477399" fill-rule="evenodd" stroke="none"/>
    <path d="M355.3 46.6 Q353.4 45.35 345.8 34.85 L348.15 33.6 354.0 39.35 Q356.45 41.95 356.55 44.2 L370.65 49.6 369.85 52.0 Q357.9 48.35 355.3 46.6" fill="#588ebc" fill-rule="evenodd" stroke="none"/>
    <path d="M353.35 46.7 L344.9 35.3 345.8 34.85 Q353.4 45.35 355.3 46.6 357.9 48.35 369.85 52.0 L369.25 53.95 362.75 51.9 Q355.7 49.15 353.35 46.7" fill="#477399" fill-rule="evenodd" stroke="none"/>
    <path d="M372.6 58.95 L366.05 56.6 369.6 48.65 378.1 50.4 372.6 58.95" fill="#3a83ad" fill-rule="evenodd" stroke="none"/>
    <path d="M341.2 29.25 Q340.45 32.5 342.15 33.95 344.9 36.25 347.0 34.45 L347.95 35.25 344.85 36.85 342.8 36.7 Q341.3 36.05 340.25 34.55 L338.4 32.0 Q338.55 31.15 337.85 31.45 L333.7 30.85 Q332.4 30.75 332.15 29.55 L332.15 29.0 Q333.0 29.55 333.9 29.75 336.35 30.25 342.3 26.3 L341.2 29.25" fill="#477399" fill-rule="evenodd" stroke="none"/>
    <path d="M349.65 28.4 Q348.45 27.25 348.5 26.6 348.55 25.5 349.55 23.35 L349.9 23.35 Q350.5 23.45 350.1 24.6 L349.35 26.45 Q349.2 26.9 349.65 28.4" fill="#477399" fill-rule="evenodd" stroke="none"/>
    <path d="M335.1 23.6 L340.05 23.35 Q342.05 23.5 342.85 24.15 L344.2 25.7 346.45 28.05 Q346.4 27.05 346.7 25.35 347.1 23.25 349.55 23.35 348.55 25.5 348.5 26.6 348.45 27.25 349.65 28.4 L350.8 31.85 Q351.15 33.3 348.75 34.85 L347.95 35.25 347.0 34.45 Q344.9 36.25 342.15 33.95 340.45 32.5 340.85 29.65 L341.65 27.1 Q338.95 30.85 333.9 29.75 L332.15 29.0 333.45 27.95 Q332.5 27.2 332.8 26.1 332.95 25.4 333.8 25.2 L334.65 25.2 335.1 23.6" fill="#588ebc" fill-rule="evenodd" stroke="none"/>
  </g>
</svg>
