<?xml version="1.0" encoding="UTF-8" standalone="no"?>
<svg xmlns:xlink="http://www.w3.org/1999/xlink" height="250.0px" width="240.0px" xmlns="http://www.w3.org/2000/svg">
  <g transform="matrix(1.0, 0.0, 0.0, 1.0, 0.0, 0.0)">
    <path d="M191.75 24.35 Q180.1 16.0 183.0 24.0 L182.1 23.8 Q170.55 18.95 161.0 33.0 L161.0 33.5 Q172.7 33.15 192.0 25.0 L191.75 24.35 M197.0 70.0 L196.1 69.8 Q186.1 64.4 173.0 62.0 L172.05 61.85 Q165.25 59.25 156.0 59.0 L156.0 58.5 Q150.4 58.6 147.0 57.0 L144.5 56.9 Q143.7 36.45 127.0 30.0 147.05 23.55 135.7 6.7 L133.2 6.05 133.1 6.05 133.0 6.0 Q132.5 6.0 132.4 6.2 131.7 7.7 129.0 7.0 L129.0 8.0 128.05 8.15 Q119.4 10.85 110.0 13.0 L109.05 12.85 Q94.8 7.7 82.0 6.0 L81.9 7.0 Q77.45 29.05 94.0 30.0 L94.5 30.0 Q80.4 31.4 83.0 55.0 83.9 58.4 81.8 56.9 65.8 45.2 46.5 45.95 L44.0 45.0 Q44.0 45.5 44.15 45.55 L45.45 46.0 37.0 47.0 Q49.3 55.7 68.0 57.95 L69.0 58.0 Q57.35 62.35 44.0 64.9 L43.0 65.0 42.05 65.2 27.0 71.0 27.0 72.0 26.1 72.2 Q17.0 76.55 12.0 85.0 L12.0 87.0 12.0 88.0 11.0 88.0 Q11.0 90.0 11.45 91.9 L12.0 92.0 Q42.3 122.2 93.1 134.75 109.15 138.7 126.0 134.0 L126.75 134.25 127.0 135.0 Q126.5 135.0 126.2 135.25 123.7 137.2 120.0 138.0 L119.95 137.5 110.0 137.0 110.0 138.0 Q109.5 138.0 109.35 138.25 104.05 146.1 111.0 144.0 124.75 140.0 122.45 164.25 121.3 176.45 123.75 192.4 126.85 212.6 112.0 215.0 L111.05 214.9 Q100.0 212.05 99.8 198.35 L99.55 198.6 Q67.2 204.7 46.0 220.0 60.55 249.4 110.15 247.5 150.45 245.95 173.75 230.6 176.95 228.45 178.0 224.0 165.65 201.35 129.0 203.0 L128.0 203.0 128.0 202.0 128.0 186.0 128.0 185.0 128.0 140.0 Q129.75 135.25 133.75 132.65 L134.0 132.0 Q135.95 131.95 136.75 130.85 L137.0 130.0 137.0 129.0 Q146.3 125.8 155.05 122.2 L156.0 122.0 Q159.55 120.05 163.85 118.55 L164.0 118.0 Q182.95 113.95 198.8 106.6 199.0 106.5 199.0 106.0 L199.9 105.8 Q206.8 101.8 211.0 95.0 L211.1 94.0 Q215.3 75.55 197.0 70.0 M240.0 0.0 L240.0 199.0 240.0 250.0 41.0 250.0 0.0 250.0 0.0 51.0 0.0 0.0 199.0 0.0 240.0 0.0 M100.0 170.0 L100.05 169.0 Q100.75 157.75 99.0 149.0 L99.0 169.0 99.0 170.0 Q99.0 183.0 99.5 196.0 L100.0 196.0 100.0 195.0 100.0 193.25 Q100.3 190.3 101.0 187.0 L100.9 186.05 Q99.3 179.2 100.0 170.0" fill="#000000" fill-rule="evenodd" stroke="none"/>
    <path d="M191.75 24.35 L192.0 25.0 Q172.7 33.15 161.0 33.5 L161.0 33.0 Q170.55 18.95 182.1 23.8 L183.0 24.0 Q180.1 16.0 191.75 24.35" fill="#5e5e5e" fill-rule="evenodd" stroke="none"/>
    <path d="M147.0 57.0 Q150.4 58.6 156.0 58.5 L156.0 59.0 172.0 62.9 173.0 63.0 173.95 63.1 Q183.2 65.3 190.0 70.0 L189.8 70.65 Q178.15 77.55 165.0 82.85 174.45 78.2 175.0 72.0 L174.0 71.95 Q157.15 69.7 143.0 85.0 143.0 86.0 143.45 86.3 147.9 89.2 159.15 85.25 L162.2 84.1 Q170.6 89.05 176.3 96.75 L177.0 97.0 Q193.05 96.55 206.8 88.65 L207.0 88.0 Q206.05 75.95 196.15 72.55 196.0 72.5 196.0 72.0 212.9 76.95 207.15 95.05 207.0 95.5 207.0 96.0 203.75 101.25 198.2 104.4 L198.0 105.0 197.1 105.2 Q169.7 119.1 128.0 121.0 L128.0 122.0 Q110.0 121.35 93.0 121.65 37.5 122.65 14.0 88.0 L14.0 89.0 13.0 89.0 13.0 88.0 13.0 87.0 Q17.8 79.35 26.75 73.65 L27.0 73.0 Q34.4 68.9 43.9 66.55 L44.0 66.0 Q62.85 58.4 75.7 64.6 77.45 65.4 77.0 60.0 86.7 61.5 83.95 81.15 83.2 86.3 85.0 90.0 110.8 107.75 138.15 91.2 L139.0 91.0 Q137.95 72.75 146.25 59.4 146.7 58.7 147.0 57.0 M17.0 86.0 Q17.0 86.5 17.25 86.65 38.15 102.0 53.0 90.0 57.7 88.65 53.55 86.1 29.55 71.2 17.0 86.0 M43.0 68.0 Q43.0 68.5 43.25 68.75 54.45 81.05 70.0 84.0 L69.8 83.05 Q63.2 67.15 43.0 68.0 M42.0 101.0 L42.0 103.0 Q46.35 101.15 42.0 101.0" fill="#020202" fill-rule="evenodd" stroke="none"/>
    <path d="M173.0 62.0 Q186.1 64.4 196.1 69.8 L197.0 70.0 197.0 70.5 192.0 70.0 Q193.0 71.5 195.0 71.9 L196.0 72.0 Q196.0 72.5 196.15 72.55 206.05 75.95 207.0 88.0 L206.8 88.65 Q193.05 96.55 177.0 97.0 L176.3 96.75 Q170.6 89.05 162.2 84.1 L162.0 84.0 165.0 82.85 Q178.15 77.55 189.8 70.65 L190.0 70.0 Q183.2 65.3 173.95 63.1 L173.0 63.0 173.0 62.0" fill="#666666" fill-rule="evenodd" stroke="none"/>
    <path d="M197.0 70.0 Q215.3 75.55 211.1 94.0 L211.0 95.0 Q206.8 101.8 199.9 105.8 L199.0 106.0 198.25 105.75 198.0 105.0 198.2 104.4 Q203.75 101.25 207.0 96.0 207.0 95.5 207.15 95.05 212.9 76.95 196.0 72.0 L195.0 71.9 Q193.0 71.5 192.0 70.0 L197.0 70.5 197.0 70.0" fill="#5b5b5b" fill-rule="evenodd" stroke="none"/>
    <path d="M165.0 82.85 L162.0 84.0 162.2 84.1 159.15 85.25 Q147.9 89.2 143.45 86.3 143.0 86.0 143.0 85.0 157.15 69.7 174.0 71.95 L175.0 72.0 Q174.45 78.2 165.0 82.85" fill="#636363" fill-rule="evenodd" stroke="none"/>
    <path d="M156.0 59.0 Q165.25 59.25 172.05 61.85 L173.0 62.0 173.0 63.0 172.0 62.9 156.0 59.0" fill="#444444" fill-rule="evenodd" stroke="none"/>
    <path d="M199.0 106.0 Q199.0 106.5 198.8 106.6 182.95 113.95 164.0 118.0 L163.0 118.1 Q146.95 121.45 128.0 122.0 L128.0 121.0 Q169.7 119.1 197.1 105.2 L198.0 105.0 198.25 105.75 199.0 106.0" fill="#535353" fill-rule="evenodd" stroke="none"/>
    <path d="M164.0 118.0 L163.85 118.55 Q159.55 120.05 156.0 122.0 L156.0 121.5 Q129.0 125.3 110.0 123.0 119.0 123.0 127.95 122.5 L128.0 122.0 Q146.95 121.45 163.0 118.1 L164.0 118.0" fill="#2e2e2e" fill-rule="evenodd" stroke="none"/>
    <path d="M43.0 65.0 L44.0 64.9 Q57.35 62.35 69.0 58.0 L68.0 57.95 Q49.3 55.7 37.0 47.0 L45.45 46.0 Q55.3 49.25 46.5 45.95 65.8 45.2 81.8 56.9 83.9 58.4 83.0 55.0 80.4 31.4 94.5 30.0 L94.0 30.0 Q77.45 29.05 81.9 7.0 L82.0 6.0 Q94.8 7.7 109.05 12.85 L110.0 13.0 Q119.4 10.85 128.05 8.15 L129.0 8.0 128.85 8.55 Q127.05 9.05 126.0 10.0 126.25 24.15 132.75 23.7 137.85 23.35 137.3 12.95 137.0 7.15 133.2 6.05 L135.7 6.7 Q147.05 23.55 127.0 30.0 143.7 36.45 144.5 56.9 L147.0 57.0 Q146.7 58.7 146.25 59.4 137.95 72.75 139.0 91.0 L138.15 91.2 Q110.8 107.75 85.0 90.0 83.2 86.3 83.95 81.15 86.7 61.5 77.0 60.0 77.45 65.4 75.7 64.6 62.85 58.4 44.0 66.0 L43.25 65.75 Q43.0 65.5 43.0 65.0 M129.0 34.0 L128.95 35.0 Q126.45 74.6 133.0 93.0 138.05 80.5 138.5 62.0 139.0 41.0 129.0 34.0 M17.0 86.0 Q29.55 71.2 53.55 86.1 57.7 88.65 53.0 90.0 38.15 102.0 17.25 86.65 17.0 86.5 17.0 86.0" fill="#676767" fill-rule="evenodd" stroke="none"/>
    <path d="M129.0 8.0 L129.0 7.0 Q131.7 7.7 132.4 6.2 132.5 6.0 133.0 6.0 L133.1 6.05 133.2 6.05 Q137.0 7.15 137.3 12.95 137.85 23.35 132.75 23.7 126.25 24.15 126.0 10.0 127.05 9.05 128.85 8.55 L129.0 8.0" fill="#030303" fill-rule="evenodd" stroke="none"/>
    <path d="M129.0 34.0 Q139.0 41.0 138.5 62.0 138.05 80.5 133.0 93.0 126.45 74.6 128.95 35.0 L129.0 34.0" fill="#040404" fill-rule="evenodd" stroke="none"/>
    <path d="M45.45 46.0 L44.15 45.55 Q44.0 45.5 44.0 45.0 L46.5 45.95 Q55.3 49.25 45.45 46.0" fill="#090909" fill-rule="evenodd" stroke="none"/>
    <path d="M12.0 88.0 L12.0 87.0 12.0 85.0 Q17.0 76.55 26.1 72.2 L27.0 72.0 27.0 73.0 26.75 73.65 Q17.8 79.35 13.0 87.0 L13.0 88.0 13.0 89.0 12.25 88.75 12.0 88.0" fill="#555555" fill-rule="evenodd" stroke="none"/>
    <path d="M27.0 72.0 L27.0 71.0 42.05 65.2 43.0 65.0 Q43.0 65.5 43.25 65.75 L44.0 66.0 43.9 66.55 Q34.4 68.9 27.0 73.0 L27.0 72.0" fill="#4f4f4f" fill-rule="evenodd" stroke="none"/>
    <path d="M156.0 122.0 L155.05 122.2 Q146.3 125.8 137.0 129.0 L137.0 130.0 136.0 130.1 Q130.8 131.3 126.0 133.0 L126.0 134.0 Q109.15 138.7 93.1 134.75 42.3 122.2 12.0 92.0 L12.0 91.0 Q14.2 94.7 14.0 90.0 L14.0 89.0 14.0 88.0 Q37.5 122.65 93.0 121.65 110.0 121.35 128.0 122.0 L127.95 122.5 Q119.0 123.0 110.0 123.0 129.0 125.3 156.0 121.5 L156.0 122.0 M43.0 68.0 Q63.2 67.15 69.8 83.05 L70.0 84.0 Q54.45 81.05 43.25 68.75 43.0 68.5 43.0 68.0" fill="#646464" fill-rule="evenodd" stroke="none"/>
    <path d="M12.0 92.0 L11.45 91.9 Q11.0 90.0 11.0 88.0 L12.0 88.0 12.25 88.75 13.0 89.0 14.0 89.0 14.0 90.0 Q14.2 94.7 12.0 91.0 L12.0 92.0" fill="#2c2c2c" fill-rule="evenodd" stroke="none"/>
    <path d="M42.0 101.0 Q46.35 101.15 42.0 103.0 L42.0 101.0" fill="#4d4d4d" fill-rule="evenodd" stroke="none"/>
    <path d="M137.0 130.0 L136.75 130.85 Q135.95 131.95 134.0 132.0 L133.1 132.2 127.0 135.0 126.75 134.25 126.0 134.0 126.0 133.0 Q130.8 131.3 136.0 130.1 L137.0 130.0" fill="#282828" fill-rule="evenodd" stroke="none"/>
    <path d="M134.0 132.0 L133.75 132.65 Q129.75 135.25 128.0 140.0 L128.0 185.0 128.0 186.0 127.0 186.0 Q127.0 194.5 127.5 202.95 L128.0 203.0 129.0 203.0 Q165.65 201.35 178.0 224.0 176.95 228.45 173.75 230.6 150.45 245.95 110.15 247.5 60.55 249.4 46.0 220.0 67.2 204.7 99.55 198.6 L99.8 198.35 Q100.0 212.05 111.05 214.9 L112.0 215.0 Q126.85 212.6 123.75 192.4 121.3 176.45 122.45 164.25 124.75 140.0 111.0 144.0 104.05 146.1 109.35 138.25 109.5 138.0 110.0 138.0 L119.0 138.0 120.0 138.0 Q123.7 137.2 126.2 135.25 126.5 135.0 127.0 135.0 L133.1 132.2 134.0 132.0 M100.0 193.25 L100.0 187.0 101.0 187.0 Q100.3 190.3 100.0 193.25 M131.0 223.0 Q131.5 223.0 131.6 222.8 137.35 212.15 122.0 222.0 L121.05 222.15 Q112.45 224.55 105.0 224.0 117.45 228.35 130.85 223.55 L131.0 223.0" fill="#6f6f6f" fill-rule="evenodd" stroke="none"/>
    <path d="M110.0 138.0 L110.0 137.0 119.95 137.5 120.0 138.0 119.0 138.0 110.0 138.0" fill="#414141" fill-rule="evenodd" stroke="none"/>
    <path d="M100.0 170.0 L99.0 170.0 99.0 169.0 99.0 149.0 Q100.75 157.75 100.05 169.0 L100.0 170.0" fill="#474747" fill-rule="evenodd" stroke="none"/>
    <path d="M99.0 170.0 L100.0 170.0 Q99.3 179.2 100.9 186.05 L101.0 187.0 100.0 187.0 100.0 193.25 100.0 195.0 100.0 196.0 99.5 196.0 Q99.0 183.0 99.0 170.0" fill="#505050" fill-rule="evenodd" stroke="none"/>
    <path d="M128.0 186.0 L128.0 202.0 128.0 203.0 127.5 202.95 Q127.0 194.5 127.0 186.0 L128.0 186.0" fill="#393939" fill-rule="evenodd" stroke="none"/>
    <path d="M122.0 222.0 Q137.35 212.15 131.6 222.8 131.5 223.0 131.0 223.0 L130.05 222.85 122.0 222.0" fill="#0d0d0d" fill-rule="evenodd" stroke="none"/>
    <path d="M131.0 223.0 L130.85 223.55 Q117.45 228.35 105.0 224.0 112.45 224.55 121.05 222.15 L122.0 222.0 130.05 222.85 131.0 223.0" fill="#1d1d1d" fill-rule="evenodd" stroke="none"/>
  </g>
</svg>
