<?xml version="1.0" encoding="UTF-8" standalone="no"?>
<svg xmlns:xlink="http://www.w3.org/1999/xlink" height="80.1px" width="353.0px" xmlns="http://www.w3.org/2000/svg">
  <g transform="matrix(1.0, 0.0, 0.0, 1.0, -5.0, -7.9)">
    <path d="M358.0 20.0 Q347.8 50.8 305.0 49.5 L305.0 50.0 Q332.05 53.95 346.75 70.2 L347.0 71.0 Q348.1 76.6 343.0 76.05 L342.0 76.0 Q321.2 67.3 298.95 60.15 L298.0 60.0 Q291.65 75.6 280.0 75.5 L280.0 75.0 Q289.2 63.1 287.5 55.1 L287.0 55.0 Q286.8 48.8 290.8 46.6 L291.0 46.0 Q296.25 44.75 301.05 43.15 L302.0 43.0 Q307.2 33.7 313.75 25.8 L314.0 25.0 Q298.8 24.15 299.5 28.95 L300.0 29.0 Q299.75 34.5 282.0 32.05 L281.0 32.0 Q281.8 25.3 284.75 20.85 L285.0 20.0 Q322.5 -1.85 357.8 19.35 358.0 19.5 358.0 20.0 M350.0 24.0 L349.9 23.5 Q336.05 20.65 322.0 23.0 321.5 23.0 321.4 23.2 317.4 32.4 311.0 39.0 L311.0 39.5 Q336.25 40.25 350.0 24.0 M62.0 22.0 Q37.4 21.9 22.5 31.0 L23.0 31.0 Q21.3 38.35 5.1 35.5 L5.0 35.0 Q22.6 3.6 72.95 10.5 L73.0 11.0 63.5 46.0 64.0 46.0 Q64.4 52.4 57.2 56.4 L57.0 57.0 Q36.4 72.9 14.85 87.75 L14.0 88.0 Q14.7 78.7 20.75 74.65 L21.0 74.0 Q32.45 68.95 39.75 59.8 L40.0 59.0 Q30.1 61.05 21.15 58.55 21.0 58.5 21.0 58.0 29.65 44.65 52.0 44.5 L52.0 44.0 Q58.7 35.2 61.9 22.95 L62.0 22.0" fill="#f6f6f6" fill-rule="evenodd" stroke="none"/>
    <path d="M286.0 10.0 Q281.1 28.1 275.5 40.0 L276.0 40.0 Q283.05 42.95 272.8 51.75 L272.0 52.0 Q259.6 54.05 261.5 64.9 L262.0 65.0 Q268.05 59.85 271.75 62.35 L272.0 63.0 Q263.7 73.2 250.0 73.0 L249.0 73.0 Q247.1 62.05 253.75 54.75 L254.0 54.0 Q246.25 52.25 236.0 52.95 L235.0 53.0 Q220.1 73.5 202.0 75.5 L202.0 75.0 Q220.1 61.35 219.5 54.05 L219.0 54.0 Q215.1 51.3 218.75 47.75 L219.0 47.0 Q224.85 39.85 237.0 39.5 L237.0 40.0 Q227.95 41.9 235.0 42.95 L236.0 43.0 Q258.1 23.05 286.0 9.5 L286.0 10.0 M272.8 20.65 L272.75 20.65 Q260.25 29.75 249.0 40.0 L249.1 40.5 Q256.75 41.75 262.0 40.0 L262.65 39.75 Q269.6 29.7 272.8 20.65" fill="#f5f5f5" fill-rule="evenodd" stroke="none"/>
    <path d="M219.8 17.15 L220.0 18.0 Q211.05 41.05 179.0 41.5 L179.0 42.0 Q196.9 44.1 207.75 53.3 L208.0 54.0 Q190.15 83.95 154.9 68.2 L154.0 68.0 154.0 62.0 154.0 61.0 Q164.2 50.8 159.7 45.25 159.5 45.0 159.0 45.0 154.5 41.7 159.85 39.55 L160.0 39.0 Q164.75 37.75 171.0 38.0 L172.0 38.0 Q179.45 27.45 193.05 23.15 L194.0 23.0 Q191.5 30.0 186.25 34.3 186.0 34.5 186.0 35.0 204.9 34.9 211.8 22.9 L212.0 22.0 Q188.4 15.8 173.25 27.3 173.0 27.5 173.0 28.0 158.6 34.8 151.25 28.7 151.0 28.5 151.0 28.0 167.4 6.4 207.0 8.0 L208.0 8.0 Q215.95 10.55 219.8 17.15 M174.0 48.0 Q173.5 48.0 173.3 48.25 L166.0 56.0 Q166.0 56.5 166.25 56.75 182.35 71.85 197.0 53.0 L196.15 52.75 Q186.85 46.15 174.0 48.0" fill="#f4f4f4" fill-rule="evenodd" stroke="none"/>
    <path d="M124.0 43.0 Q106.05 63.05 82.9 72.8 L82.0 73.0 Q75.75 71.25 76.95 62.0 L77.0 61.0 Q89.5 41.05 105.75 24.75 L106.0 24.0 Q84.45 35.8 68.1 32.5 L68.0 32.0 Q82.85 5.4 118.95 10.5 L119.0 11.0 Q110.3 37.75 90.25 58.25 90.0 58.5 90.0 59.0 121.4 37.9 150.0 14.5 L150.0 15.0 125.2 65.1 125.0 66.0 Q137.85 64.85 147.0 55.5 L147.0 56.0 Q138.3 74.3 116.0 74.0 L115.0 74.0 Q112.1 70.9 112.95 64.0 L113.0 63.0 Q118.05 53.05 123.8 43.85 L124.0 43.0" fill="#f7f7f7" fill-rule="evenodd" stroke="none"/>
  </g>
</svg>
