<?xml version="1.0" encoding="UTF-8" standalone="no"?>
<svg xmlns:xlink="http://www.w3.org/1999/xlink" height="411.45px" width="806.45px" xmlns="http://www.w3.org/2000/svg">
  <g transform="matrix(1.0, 0.0, 0.0, 1.0, 0.5, 0.5)">
    <path d="M805.95 -0.5 L805.95 410.95 -0.5 410.95 -0.5 -0.5 805.95 -0.5" fill="#001133" fill-rule="evenodd" stroke="none"/>
    <path d="M458.8 177.4 L801.95 177.4 801.95 400.35 -0.5 400.35 -0.5 177.4 394.45 177.4 394.45 184.0 458.8 184.0 458.8 177.4" fill="#003355" fill-rule="evenodd" stroke="none"/>
    <path d="M394.45 177.4 L394.45 112.85 400.4 112.85 401.25 113.0 405.85 118.35 408.15 122.2 409.7 123.0 410.45 125.3 Q427.85 130.95 444.2 122.05 L445.05 121.45 451.95 114.55 452.95 112.85 458.8 112.85 458.8 177.4 458.8 184.0 394.45 184.0 394.45 177.4" fill="#000000" fill-rule="evenodd" stroke="none"/>
  </g>
</svg>
