<?xml version="1.0" encoding="UTF-8" standalone="no"?>
<svg xmlns:xlink="http://www.w3.org/1999/xlink" height="1104.8px" width="2283.75px" xmlns="http://www.w3.org/2000/svg">
  <g transform="matrix(1.0, 0.0, 0.0, 1.0, 1135.85, 1103.9)">
    <path d="M975.55 -836.35 L1023.55 -836.2 1023.7 -876.2 1091.9 -931.95 1147.9 -933.8 -0.85 0.9 2.05 -8.4 15.4 -19.7 22.1 -21.65 22.1 -26.65 39.5 -40.95 48.8 -42.25 58.2 -56.9 71.55 -60.85 71.55 -68.85 90.95 -84.75 102.3 -84.75 102.35 -94.75 137.75 -125.25 137.8 -133.95 145.15 -139.9 168.15 -140.15 168.2 -154.15 208.3 -187.05 227.3 -186.95 227.4 -206.95 273.5 -246.8 300.5 -246.7 309.65 -276.7 340.65 -281.55 340.75 -305.55 378.85 -336.45 378.9 -357.45 430.05 -402.25 491.05 -402.05 491.15 -433.05 572.4 -502.75 616.4 -502.6 618.55 -537.6 702.8 -611.3 746.8 -611.15 746.9 -645.15 801.05 -693.0 801.2 -727.0 857.4 -780.8 907.4 -780.6 975.55 -836.35" fill="#000000" fill-rule="evenodd" stroke="none"/>
    <path d="M-1012.5 -1035.2 L-1012.9 -988.65 -964.9 -988.2 -897.5 -922.35 -847.5 -921.9 -792.1 -858.5 -792.45 -818.9 -738.95 -762.5 -739.35 -722.9 -695.35 -722.5 -612.15 -635.55 -610.5 -594.75 -566.5 -594.35 -486.25 -512.1 -486.6 -475.95 -425.6 -475.4 -375.05 -422.55 -375.3 -398.1 -337.6 -361.65 -337.85 -333.65 -306.9 -327.55 -298.25 -292.55 -271.25 -292.3 -225.65 -245.3 -225.9 -222.0 -206.9 -221.8 -167.25 -183.0 -167.4 -166.7 -144.4 -166.1 -137.1 -159.05 -137.2 -148.95 -102.2 -112.95 -102.3 -101.3 -91.0 -101.15 -71.8 -82.35 -71.9 -73.05 -58.6 -68.25 -49.45 -51.1 -40.1 -49.45 -22.95 -32.6 -23.0 -26.8 -16.35 -24.4 -3.15 -11.05 -0.35 -0.2 -1135.85 -1103.9 -1079.9 -1101.05 -1012.5 -1035.2" fill="#000000" fill-rule="evenodd" stroke="none"/>
  </g>
</svg>
