<?xml version="1.0" encoding="UTF-8" standalone="no"?>
<svg xmlns:xlink="http://www.w3.org/1999/xlink" height="403.55px" width="803.95px" xmlns="http://www.w3.org/2000/svg">
  <g transform="matrix(1.0, 0.0, 0.0, 1.0, 1.55, 3.1)">
    <path d="M-1.5 310.6 L-0.5 310.6 Q111.55 271.2 242.95 229.6 L327.25 203.1 Q365.8 191.0 380.1 185.95 L382.85 177.5 457.85 177.5 458.8 184.0 800.9 243.35 800.9 400.45 -1.55 400.45 -1.55 310.6 -1.5 310.6" fill="url(#gradient0)" fill-rule="evenodd" stroke="none"/>
    <path d="M596.1 -1.05 L598.6 -3.1 801.6 -2.35 802.4 243.6 800.9 243.35 458.8 184.0 457.85 177.5 449.2 119.8 596.1 -1.05" fill="url(#gradient1)" fill-rule="evenodd" stroke="none"/>
    <path d="M278.7 -0.95 L276.45 -0.95 278.7 -0.95 401.5 119.8 382.85 177.5 380.1 185.95 Q365.8 191.0 327.25 203.1 L242.95 229.6 Q111.55 271.2 -0.5 310.6 L-1.5 310.6 -0.5 -0.4 276.45 -0.95 278.65 -1.0 278.7 -0.95" fill="url(#gradient2)" fill-rule="evenodd" stroke="none"/>
    <path d="M382.85 177.5 L401.5 119.8 278.7 -0.95 596.1 -1.05 449.2 119.8 457.85 177.5 382.85 177.5" fill="url(#gradient3)" fill-rule="evenodd" stroke="none"/>
    <path d="M276.45 -0.95 L278.7 -0.95" fill="none" stroke="#136b3b" stroke-linecap="round" stroke-linejoin="round" stroke-width="1.0"/>
    <path d="M530.65 127.65 Q530.25 127.65 529.9 127.25 528.85 124.9 531.15 123.85 L532.15 123.5 Q537.35 127.8 530.65 127.65" fill="#000c15" fill-rule="evenodd" stroke="none"/>
  </g>
  <defs>
    <linearGradient gradientTransform="matrix(0.0, -0.1461, 0.1356, 0.0, 391.7, 285.5)" gradientUnits="userSpaceOnUse" id="gradient0" spreadMethod="pad" x1="-819.2" x2="819.2">
      <stop offset="0.0" stop-color="#042c55" stop-opacity="0.0"/>
      <stop offset="1.0" stop-color="#000000"/>
    </linearGradient>
    <linearGradient gradientTransform="matrix(0.2156, 0.0, 0.0, 0.1506, 625.8, 120.25)" gradientUnits="userSpaceOnUse" id="gradient1" spreadMethod="pad" x1="-819.2" x2="819.2">
      <stop offset="0.0" stop-color="#000000"/>
      <stop offset="1.0" stop-color="#000000" stop-opacity="0.0"/>
    </linearGradient>
    <linearGradient gradientTransform="matrix(0.246, 0.0, 0.0, 0.1902, 200.0, 154.8)" gradientUnits="userSpaceOnUse" id="gradient2" spreadMethod="pad" x1="-819.2" x2="819.2">
      <stop offset="0.0" stop-color="#000000" stop-opacity="0.0"/>
      <stop offset="1.0" stop-color="#000000"/>
    </linearGradient>
    <linearGradient gradientTransform="matrix(0.0, -0.0583, 0.109, 0.0, 416.2, 128.5)" gradientUnits="userSpaceOnUse" id="gradient3" spreadMethod="pad" x1="-819.2" x2="819.2">
      <stop offset="0.0" stop-color="#000000"/>
      <stop offset="1.0" stop-color="#000000" stop-opacity="0.0"/>
    </linearGradient>
  </defs>
</svg>
