<?xml version="1.0" encoding="UTF-8" standalone="no"?>
<svg xmlns:xlink="http://www.w3.org/1999/xlink" height="19.3px" width="61.5px" xmlns="http://www.w3.org/2000/svg">
  <g transform="matrix(1.0, 0.0, 0.0, 1.0, 0.0, -0.15)">
    <path d="M43.75 4.3 L44.6 8.65 29.3 16.3 Q25.8 18.05 24.35 17.8 22.35 17.05 19.7 16.8 14.95 16.35 0.9 12.7 L2.9 5.75 15.4 8.6 Q18.75 9.6 24.5 12.45 L31.7 9.1 Q35.1 7.65 43.75 4.3" fill="#588ebc" fill-rule="evenodd" stroke="none"/>
    <path d="M44.6 8.65 L45.15 11.5 Q39.9 14.4 34.6 16.8 30.25 18.95 28.75 19.45 L24.05 19.2 Q21.9 18.4 17.85 18.3 L9.15 17.75 1.9 16.45 0.0 15.85 0.9 12.7 Q14.95 16.35 19.7 16.8 22.35 17.05 24.35 17.8 25.8 18.05 29.3 16.3 L44.6 8.65" fill="#477399" fill-rule="evenodd" stroke="none"/>
    <path d="M43.6 9.4 Q47.75 7.6 49.5 10.05 51.0 12.15 51.75 15.8 50.85 15.55 48.95 12.9 47.45 10.7 46.15 11.5 44.75 12.35 43.6 9.4" fill="#477399" fill-rule="evenodd" stroke="none"/>
    <path d="M51.0 7.7 Q52.1 9.5 52.4 11.05 L53.2 14.5 Q53.4 16.15 51.9 15.85 L51.75 15.8 Q51.0 12.15 49.5 10.05 47.75 7.6 43.6 9.4 L42.3 4.8 Q43.75 4.8 46.6 2.4 48.65 0.65 51.9 0.15 L57.2 0.45 Q59.25 1.15 60.8 4.4 L49.95 6.2 51.0 7.7" fill="#588ebc" fill-rule="evenodd" stroke="none"/>
    <path d="M60.8 4.4 L61.5 6.2 49.95 6.2 60.8 4.4" fill="#477399" fill-rule="evenodd" stroke="none"/>
  </g>
</svg>
