<?xml version="1.0" encoding="UTF-8" standalone="no"?>
<svg xmlns:xlink="http://www.w3.org/1999/xlink" height="176.9px" width="142.45px" xmlns="http://www.w3.org/2000/svg">
  <g transform="matrix(1.0, 0.0, 0.0, 1.0, 78.15, 63.9)">
    <path d="M43.45 109.0 Q22.6 113.0 -6.9 113.0 -36.4 113.0 -57.3 109.0 -78.15 105.05 -78.15 99.45 -78.15 93.85 -57.3 89.85 -36.4 85.9 -6.9 85.9 22.6 85.9 43.45 89.85 64.3 93.85 64.3 99.45 64.3 105.05 43.45 109.0" fill="#031f32" fill-rule="evenodd" stroke="none"/>
    <path d="M4.0 93.15 L1.0 90.5 -0.95 87.5 -1.7 85.7 -2.4 83.25 -2.75 80.4 7.7 83.05 13.7 87.3 19.7 90.45 19.6 91.65 20.95 94.0 21.45 94.5 22.65 95.35 25.6 96.55 35.25 97.85 35.8 97.65 46.8 97.8 49.15 100.45 49.55 101.5 49.25 103.0 46.0 106.8 44.45 107.45 42.65 107.85 41.4 107.75 40.4 107.95 37.9 108.05 25.45 107.05 19.75 104.25 18.3 103.2 16.9 101.45 14.05 98.6 12.65 96.5 11.75 95.95 11.05 95.25 10.55 95.05 10.35 94.9 9.3 93.85 7.15 92.8 6.3 94.7 4.0 93.15" fill="#005487" fill-rule="evenodd" stroke="none"/>
    <path d="M8.35 67.85 L12.25 67.5 14.05 67.85 14.9 68.35 15.95 69.45 17.55 72.8 18.1 76.85 18.45 78.25 19.0 79.15 19.35 80.55 25.95 86.05 34.75 85.55 42.25 86.25 43.95 86.65 46.6 88.8 47.5 90.6 47.45 91.35 47.6 92.85 47.5 94.6 47.8 97.4 47.55 97.85 47.5 98.6 46.9 100.1 44.5 102.7 43.45 102.9 42.7 103.35 40.9 104.2 40.15 104.2 38.6 104.85 37.85 104.8 36.3 105.45 33.8 105.3 32.35 104.95 31.1 104.9 28.15 103.95 27.4 103.9 23.7 102.4 19.75 99.3 18.65 98.95 15.65 95.95 14.05 93.65 12.45 92.4 11.6 91.9 11.05 91.35 9.1 90.1 8.6 89.95 7.35 88.7 1.15 85.0 0.45 84.3 -1.7 82.55 -2.75 80.05 -3.45 77.25 -2.95 73.9 -2.95 72.45 -1.9 71.4 -0.45 70.7 1.5 70.5 8.35 67.85" fill="#002941" fill-rule="evenodd" stroke="none"/>
    <path d="M3.55 14.75 L11.7 13.4 15.75 30.45 15.7 30.7 16.45 32.3 16.7 33.15 16.95 34.6 17.0 35.95 17.95 37.1 18.1 38.1 19.15 39.8 18.95 39.9 19.65 41.5 19.3 41.95 18.35 43.5 17.5 44.1 16.85 44.4 16.95 44.65 16.7 45.3 15.05 46.6 13.85 48.2 11.8 52.15 11.15 54.35 9.95 61.45 8.6 64.0 7.55 70.2 6.6 73.05 6.05 76.05 6.0 76.65 3.85 74.85 3.2 74.05 3.55 69.25 4.45 66.95 3.25 55.7 3.25 50.2 3.9 48.55 4.6 45.8 5.9 43.25 7.7 41.1 10.35 39.1 3.55 14.75" fill="#4e79b3" fill-rule="evenodd" stroke="none"/>
    <path d="M11.7 13.4 L15.6 12.9 20.25 32.05 22.0 36.9 23.65 40.0 23.9 41.8 23.3 42.9 20.2 51.4 16.3 59.15 15.45 60.35 13.05 69.65 12.6 74.8 11.5 76.65 10.35 77.7 9.2 77.65 7.1 77.25 6.0 76.65 6.05 76.05 6.6 73.05 7.55 70.2 8.6 64.0 9.95 61.45 11.15 54.35 11.8 52.15 13.85 48.2 15.05 46.6 16.7 45.3 16.95 44.65 16.85 44.4 17.5 44.1 18.35 43.5 19.3 41.95 19.65 41.5 18.95 39.9 19.15 39.8 18.1 38.1 17.95 37.1 17.0 35.95 16.95 34.6 16.7 33.15 16.45 32.3 15.7 30.7 15.75 30.45 11.7 13.4" fill="#3c5d8c" fill-rule="evenodd" stroke="none"/>
    <path d="M-62.95 93.25 L-62.35 92.3 -59.6 90.05 -49.45 91.55 -48.7 91.6 -48.25 91.9 -38.45 92.1 -35.35 91.4 -34.05 90.8 -33.5 90.35 -31.8 88.25 -31.7 87.05 -25.3 84.85 -18.65 81.65 -7.95 80.65 -8.75 83.4 -10.8 87.35 -13.2 90.05 -16.6 92.15 -19.15 93.35 -19.7 91.3 -21.95 92.0 -23.35 93.05 -23.9 93.15 -24.75 93.7 -25.7 94.1 -27.4 96.0 -30.65 98.3 -32.35 99.85 -33.9 100.65 -39.95 102.5 -52.45 101.55 -54.9 101.05 -55.85 100.7 -57.1 100.6 -58.8 99.95 -60.25 99.05 -62.85 94.75 -62.95 93.25" fill="#005487" fill-rule="evenodd" stroke="none"/>
    <path d="M-55.05 79.45 L-51.05 79.35 -45.8 79.85 -37.2 81.7 -29.8 77.35 -29.2 76.0 -28.55 75.2 -27.35 72.15 -26.8 69.95 -24.7 66.85 -23.5 66.0 -22.55 65.6 -20.75 65.55 -16.95 66.5 -10.55 70.2 -8.65 70.7 -7.4 71.65 -6.5 72.85 -6.75 74.25 -6.75 77.65 -7.9 80.3 -9.35 82.6 -11.7 84.0 -12.5 84.6 -19.2 87.25 -20.65 88.3 -21.2 88.4 -23.3 89.3 -23.9 89.75 -24.85 90.1 -26.65 91.1 -28.55 93.1 -32.0 95.6 -33.1 95.8 -37.55 98.25 -41.4 99.1 -42.15 99.05 -45.2 99.5 -46.45 99.4 -47.95 99.5 -50.45 99.25 -51.85 98.35 -52.6 98.25 -54.05 97.4 -54.8 97.3 -56.45 96.15 -57.15 95.55 -58.1 95.2 -60.05 92.25 -60.4 90.75 -60.35 90.0 -60.55 89.45 -59.8 86.75 -59.6 85.05 -59.2 83.55 -59.15 82.8 -58.0 81.15 -55.05 79.45" fill="#002941" fill-rule="evenodd" stroke="none"/>
    <path d="M-24.45 29.45 L-20.4 12.4 -12.25 13.75 -19.05 38.1 -16.4 40.1 -14.6 42.25 -13.25 44.8 -12.6 47.55 -11.95 49.2 -11.95 54.7 -13.1 65.95 -12.25 68.25 -11.9 73.05 -12.55 73.85 -14.7 75.65 -14.75 75.05 -15.3 72.05 -16.2 69.2 -17.3 63.0 -18.6 60.45 -19.85 53.35 -20.5 51.15 -22.55 47.2 -23.75 45.6 -25.35 44.3 -25.6 43.65 -25.5 43.4 -26.2 43.1 -27.0 42.5 -28.0 40.95 -28.35 40.5 -27.6 38.9 -27.85 38.8 -26.8 37.1 -26.65 36.1 -25.7 34.95 -25.65 33.6 -25.15 31.3 -24.4 29.7 -24.45 29.45" fill="#3c5d8c" fill-rule="evenodd" stroke="none"/>
    <path d="M-20.4 12.4 L-24.45 29.45 -24.4 29.7 -25.15 31.3 -25.65 33.6 -25.7 34.95 -26.65 36.1 -26.8 37.1 -27.85 38.8 -27.6 38.9 -28.35 40.5 -28.0 40.95 -27.0 42.5 -26.2 43.1 -25.5 43.4 -25.6 43.65 -25.35 44.3 -23.75 45.6 -22.55 47.2 -20.5 51.15 -19.85 53.35 -18.6 60.45 -17.3 63.0 -16.2 69.2 -15.3 72.05 -14.75 75.05 -14.7 75.65 -15.8 76.25 -17.9 76.65 -19.0 76.7 -20.2 75.65 -21.3 73.8 -21.75 68.65 -23.75 60.35 -24.15 59.35 -25.0 58.15 -27.45 52.7 -28.9 50.4 -30.05 46.85 -31.3 44.1 -31.95 41.9 -32.55 40.8 -32.3 39.0 -30.7 35.9 -28.95 31.05 -24.3 11.9 -20.4 12.4" fill="#4e79b3" fill-rule="evenodd" stroke="none"/>
    <path d="M8.2 -1.2 L3.0 -10.5 10.25 -10.85 20.3 5.2 20.55 5.7 21.1 6.4 21.65 7.4 22.45 8.35 22.7 8.85 23.25 9.55 23.5 10.05 24.05 10.75 24.65 12.5 25.45 13.95 25.5 14.45 25.5 14.7 25.8 15.2 26.05 16.2 24.7 19.25 Q23.4 20.1 22.05 20.9 L21.1 21.7 18.45 18.8 14.1 12.25 8.2 -1.2" fill="#214770" fill-rule="evenodd" stroke="none"/>
    <path d="M3.0 -10.5 L8.2 -1.2 14.1 12.25 18.45 18.8 21.1 21.7 12.2 23.85 9.2 24.25 7.0 24.85 3.45 24.8 2.2 24.35 1.65 23.9 -7.45 11.55 -10.2 11.7 -10.4 12.2 -11.7 11.75 -12.9 12.1 -13.15 12.1 -10.05 12.25 -13.9 22.1 -33.55 18.1 -24.9 -7.1 -21.95 -8.25 -13.0 -9.7 3.0 -10.5" fill="#2f639b" fill-rule="evenodd" stroke="none"/>
    <path d="M-12.9 11.5 L-11.7 11.15 -10.4 11.6 -3.2 4.95 -3.5 9.55 -4.3 11.4 -6.8 19.25 -9.4 24.95 -13.9 21.5 -21.7 21.65 -13.15 11.5 -12.9 11.5" fill="#1e466f" fill-rule="evenodd" stroke="none"/>
    <path d="M0.45 -62.15 L1.95 -62.4 7.2 -61.9 10.7 -60.9 13.7 -59.4 16.95 -57.15 18.95 -54.65 18.7 -53.9 16.45 -51.4 15.2 -50.4 14.2 -49.15 12.7 -48.4 11.45 -47.4 8.45 -45.9 2.95 -45.9 -2.05 -46.9 -6.8 -48.9 -13.05 -53.4 -14.05 -54.9 -16.8 -56.9 -17.55 -57.65 -18.3 -58.65 -18.55 -59.4 -19.05 -59.4 -19.3 -59.9 -15.05 -61.65 -7.8 -63.9 -4.3 -62.9 -3.55 -62.9 -0.55 -62.15 0.45 -62.15" fill="#05466f" fill-rule="evenodd" stroke="none"/>
    <path d="M15.2 -50.4 L16.45 -51.4 18.7 -53.9 16.2 -18.4 16.45 -7.15 7.2 -6.65 8.45 -13.65 9.45 -31.9 9.7 -32.9 8.45 -45.9 11.45 -47.4 12.7 -48.4 14.2 -49.15 15.2 -50.4" fill="#1b4777" fill-rule="evenodd" stroke="none"/>
    <path d="M9.45 -31.9 L8.45 -13.65 7.2 -6.65 -2.3 -6.65 -24.55 -8.15 -26.55 -9.65 -26.05 -42.9 -26.3 -43.9 -26.3 -55.15 -25.05 -57.15 -19.55 -59.9 -19.3 -59.9 -19.05 -59.4 -18.55 -59.4 -18.3 -58.65 -17.55 -57.65 -16.8 -56.9 -14.05 -54.9 -13.05 -53.4 -6.8 -48.9 -2.05 -46.9 2.95 -45.9 8.45 -45.9 9.7 -32.9 9.45 -31.9" fill="#376ca2" fill-rule="evenodd" stroke="none"/>
    <path d="M11.2 -4.65 L6.45 -3.4 -17.05 -5.15 -22.3 -6.9 -24.55 -8.15 -2.3 -6.65 7.2 -6.65 16.45 -7.15 11.2 -4.65" fill="#05466f" fill-rule="evenodd" stroke="none"/>
  </g>
</svg>
