<?xml version="1.0" encoding="UTF-8" standalone="no"?>
<svg xmlns:xlink="http://www.w3.org/1999/xlink" height="24.8px" width="144.6px" xmlns="http://www.w3.org/2000/svg">
  <g transform="matrix(1.0, 0.0, 0.0, 1.0, 69.0, 108.5)">
    <path d="M-60.95 -100.05 Q-51.95 -104.45 -47.15 -105.5 -42.15 -106.6 -34.15 -102.1 -28.25 -98.75 -24.75 -95.25 -22.75 -93.25 -22.1 -91.05 -21.5 -89.05 -22.2 -87.9 -23.0 -86.6 -31.6 -84.95 -41.1 -83.15 -48.0 -83.95 -54.35 -84.65 -62.3 -90.3 L-69.0 -95.85 -60.95 -100.05" fill="#214680" fill-rule="evenodd" stroke="none"/>
    <path d="M67.65 -103.9 Q74.25 -100.5 74.45 -98.4 74.7 -96.25 69.55 -92.55 64.35 -88.85 59.15 -87.6 54.55 -86.5 39.6 -87.75 26.0 -88.9 24.55 -89.6 23.85 -89.95 23.4 -91.35 L23.15 -92.7 Q23.35 -93.85 24.55 -95.4 27.0 -98.5 31.95 -100.65 L44.15 -106.3 Q51.3 -109.2 55.75 -108.3 61.2 -107.2 67.65 -103.9" fill="#214680" fill-rule="evenodd" stroke="none"/>
    <path d="M-31.6 -91.6 Q-38.5 -88.35 -46.3 -89.05 -54.1 -89.75 -61.6 -92.0 L-67.55 -94.15 -57.85 -93.2 -41.75 -92.7 Q-33.25 -93.3 -26.2 -95.0 -28.1 -93.2 -31.6 -91.6" fill="#032850" fill-rule="evenodd" stroke="none"/>
    <path d="M50.9 -90.45 Q44.0 -90.1 35.6 -92.5 L28.55 -95.0 37.0 -94.35 54.6 -95.0 Q66.8 -96.7 75.6 -98.7 61.95 -91.0 50.9 -90.45" fill="#032850" fill-rule="evenodd" stroke="none"/>
  </g>
</svg>
