<?xml version="1.0" encoding="UTF-8" standalone="no"?>
<svg xmlns:xlink="http://www.w3.org/1999/xlink" height="56.45px" width="38.3px" xmlns="http://www.w3.org/2000/svg">
  <g transform="matrix(1.0, 0.0, 0.0, 1.0, 19.15, 28.55)">
    <path d="M15.8 -24.1 L18.7 -23.55 15.4 -17.25 Q12.5 -11.7 12.9 -5.25 L12.8 -5.3 Q13.1 0.6 11.5 4.2 L-0.85 27.75 -6.95 27.9 5.15 6.9 Q9.45 -0.5 9.1 -4.1 L8.45 -6.8 Q8.05 -8.45 8.2 -10.05 8.8 -15.45 15.8 -24.1" fill="#15386a" fill-rule="evenodd" stroke="none"/>
    <path d="M11.65 -27.35 L12.2 -26.15 Q8.45 -17.8 5.1 -14.45 L2.4 -12.25 -0.45 -10.1 Q-3.9 -7.35 -5.7 -3.55 -8.65 2.95 -17.9 21.2 -19.6 19.3 -18.95 18.1 L-18.85 17.95 -6.35 -5.85 -6.3 -6.0 Q-5.6 -7.3 -3.7 -9.05 L0.75 -12.3 Q5.45 -15.55 8.3 -20.95 L11.65 -27.35" fill="#99b9d4" fill-rule="evenodd" stroke="none"/>
    <path d="M12.2 -26.15 L11.65 -27.35 12.0 -28.05 Q12.4 -28.65 13.65 -28.55 14.95 -28.45 16.35 -27.7 17.8 -26.95 18.6 -25.95 19.35 -25.0 19.1 -24.3 L18.7 -23.55 15.8 -24.1 Q8.8 -15.45 8.2 -10.05 8.05 -8.45 8.45 -6.8 L9.1 -4.1 Q9.45 -0.5 5.15 6.9 L-6.95 27.9 Q-9.45 27.15 -11.5 26.0 -15.8 23.75 -17.9 21.2 -8.65 2.95 -5.7 -3.55 -3.9 -7.35 -0.45 -10.1 L2.4 -12.25 5.1 -14.45 Q8.45 -17.8 12.2 -26.15" fill="#6895c1" fill-rule="evenodd" stroke="none"/>
    <path d="M16.0 -27.2 L17.75 -25.9 Q18.4 -25.2 18.15 -24.8 17.95 -24.4 17.0 -24.5 16.05 -24.65 14.95 -25.25 12.25 -26.65 12.8 -27.65 13.35 -28.6 16.0 -27.2" fill="#050422" fill-rule="evenodd" stroke="none"/>
    <path d="M3.0 -11.05 Q2.65 -8.7 0.65 -6.5 -1.75 -3.85 -4.4 -4.9 -6.55 -5.7 -6.3 -7.05 -3.0 -7.6 -1.45 -8.15 0.6 -8.85 3.1 -12.05 L3.0 -11.05" fill="#3b5d8b" fill-rule="evenodd" stroke="none"/>
    <path d="M5.65 -17.1 L3.1 -13.95 3.1 -12.05 Q0.6 -8.85 -1.45 -8.15 -3.0 -7.6 -6.3 -7.05 -6.2 -7.8 -5.3 -8.95 L-3.85 -10.75 Q-3.35 -11.55 -2.5 -14.15 -1.85 -16.3 -1.0 -16.95 0.45 -18.1 5.65 -17.1" fill="#4e79b3" fill-rule="evenodd" stroke="none"/>
    <path d="M0.75 -3.35 Q1.1 -4.7 4.65 -5.4 8.65 -6.15 9.1 -6.6 L13.3 -11.35 13.9 -13.4 Q16.65 -10.15 16.9 -8.85 14.1 -1.7 12.4 0.8 L10.8 4.15 Q9.85 5.8 6.75 7.0 2.2 8.75 -2.8 9.9 -3.4 9.0 -3.45 8.15 -3.65 6.05 -2.45 5.95 -3.45 4.1 -2.45 1.9 -1.45 -0.3 0.35 0.8 0.1 -1.0 0.75 -3.35" fill="#4e79b3" fill-rule="evenodd" stroke="none"/>
    <path d="M16.9 -8.85 L16.95 -5.05 Q16.95 -1.95 17.3 -1.1 17.65 -0.2 15.95 2.6 L12.95 7.25 Q11.95 9.0 10.8 9.45 L8.3 9.85 Q7.3 10.05 5.1 10.8 L1.55 11.85 Q-1.15 12.45 -2.8 9.9 2.2 8.75 6.75 7.0 9.85 5.8 10.8 4.15 L12.4 0.8 Q14.1 -1.7 16.9 -8.85" fill="#3b5d8b" fill-rule="evenodd" stroke="none"/>
  </g>
</svg>
