<?xml version="1.0" encoding="UTF-8" standalone="no"?>
<svg xmlns:xlink="http://www.w3.org/1999/xlink" height="58.6px" width="67.8px" xmlns="http://www.w3.org/2000/svg">
  <g transform="matrix(1.0, 0.0, 0.0, 1.0, 28.55, 40.05)">
    <path d="M-10.2 -12.65 L-9.5 -16.55 Q-5.0 -14.95 -0.7 -13.05 12.6 -6.95 23.65 1.45 L20.1 0.85 Q15.9 -0.3 12.6 -2.1 5.35 -5.95 -10.2 -12.65" fill="#3b5d8b" fill-rule="evenodd" stroke="none"/>
    <path d="M12.6 10.95 L12.75 8.75 22.9 7.9 Q30.8 6.35 32.95 5.5 35.9 4.35 36.2 2.2 L36.55 -1.9 Q41.5 3.55 37.35 6.75 30.85 11.7 12.6 10.95" fill="#3b5d8b" fill-rule="evenodd" stroke="none"/>
    <path d="M22.1 -11.1 Q31.4 -7.6 36.55 -1.9 L36.2 2.2 Q35.9 4.35 32.95 5.5 30.8 6.35 22.9 7.9 L12.75 8.75 13.35 1.05 24.9 1.8 20.1 0.85 23.65 1.45 Q12.6 -6.95 -0.7 -13.05 -5.0 -14.95 -9.5 -16.55 L-8.7 -20.65 Q13.5 -14.45 22.1 -11.1" fill="#4e79b3" fill-rule="evenodd" stroke="none"/>
    <path d="M-25.05 -23.3 Q-22.0 -14.95 -21.25 -12.25 -20.65 -10.1 -21.55 -8.95 L-24.7 -8.85 Q-26.7 -9.85 -27.55 -11.9 -28.1 -13.15 -28.5 -16.05 -28.85 -19.1 -25.05 -23.3" fill="#4e79b3" fill-rule="evenodd" stroke="none"/>
    <path d="M12.6 18.55 L-4.5 18.55 -0.35 -1.25 15.25 0.65 12.6 18.55" fill="#1b4777" fill-rule="evenodd" stroke="none"/>
    <path d="M-12.3 -40.05 L-10.65 -39.9 Q-16.6 -31.05 -20.5 -25.95 -24.3 -21.0 -25.3 -16.65 -26.0 -18.65 -26.0 -20.8 -26.0 -25.05 -23.55 -28.2 -18.5 -40.05 -12.3 -40.05" fill="#99b9d4" fill-rule="evenodd" stroke="none"/>
    <path d="M0.0 -33.5 Q0.6 -29.6 0.45 -27.1 0.2 -23.55 -3.65 -20.1 L-7.5 -17.0 -11.75 -13.4 Q-14.9 -10.5 -17.75 -9.45 -23.2 -11.0 -25.3 -16.65 -24.3 -21.0 -20.5 -25.95 -16.6 -31.05 -10.65 -39.9 -7.6 -39.5 -4.7 -37.75 -1.75 -36.0 0.0 -33.5" fill="#6895c1" fill-rule="evenodd" stroke="none"/>
    <path d="M0.45 -27.1 Q0.6 -29.6 0.0 -33.5 1.75 -30.85 1.75 -28.25 1.75 -24.15 -0.75 -20.85 -8.6 -9.05 -14.8 -9.05 L-17.75 -9.45 Q-14.9 -10.5 -11.75 -13.4 L-7.5 -17.0 -3.65 -20.1 Q0.2 -23.55 0.45 -27.1" fill="#15386a" fill-rule="evenodd" stroke="none"/>
    <path d="M-14.5 -38.45 Q-15.95 -36.1 -15.95 -33.45 -15.95 -29.35 -12.95 -26.45 -9.9 -23.55 -5.65 -23.55 -2.7 -23.55 -0.15 -25.15 -1.5 -22.9 -3.8 -21.6 -6.2 -20.25 -9.0 -20.25 -13.25 -20.25 -16.25 -23.15 -19.25 -26.05 -19.25 -30.15 -19.25 -35.55 -14.5 -38.45" fill="#4e79b3" fill-rule="evenodd" stroke="none"/>
  </g>
</svg>
