<?xml version="1.0" encoding="UTF-8" standalone="no"?>
<svg xmlns:xlink="http://www.w3.org/1999/xlink" height="147.7px" width="118.5px" xmlns="http://www.w3.org/2000/svg">
  <g transform="matrix(1.0, 0.0, 0.0, 1.0, 16.6, 46.05)">
    <path d="M66.25 73.45 L68.1 77.85 Q69.5 82.7 67.3 85.15 63.75 89.1 52.7 83.75 L54.85 72.35 61.95 68.1 66.25 73.45" fill="#3b5d8b" fill-rule="evenodd" stroke="none"/>
    <path d="M46.6 -45.1 L64.35 101.65 57.25 101.25 38.35 -44.7 46.6 -45.1" fill="#003d62" fill-rule="evenodd" stroke="none"/>
    <path d="M60.25 69.75 L60.15 68.8 Q62.7 71.95 64.7 72.7 L69.55 73.75 Q69.8 75.1 67.65 75.95 65.0 77.0 62.6 74.3 60.6 72.1 60.25 69.75" fill="#3b5d8b" fill-rule="evenodd" stroke="none"/>
    <path d="M64.25 63.85 Q65.1 64.5 65.75 66.65 66.6 69.3 67.1 70.05 L69.55 73.75 64.7 72.7 Q62.7 71.95 60.15 68.8 L59.9 63.55 61.55 63.3 Q63.35 63.15 64.25 63.85" fill="#4e79b6" fill-rule="evenodd" stroke="none"/>
    <path d="M52.5 64.2 L53.4 71.7 53.25 72.5 Q53.3 73.4 54.15 74.2 L60.1 75.4 Q65.15 76.1 65.5 77.45 66.1 79.8 62.9 81.65 L63.95 81.35 Q65.1 81.35 65.7 82.7 66.7 84.9 65.7 86.8 L66.3 87.1 Q66.85 87.65 66.7 89.0 66.65 89.85 66.05 90.75 60.05 89.2 56.5 87.8 53.4 86.6 52.45 84.95 51.75 82.9 50.85 81.65 L46.35 71.95 Q46.5 71.15 49.5 67.6 L52.5 64.2" fill="#4e79b6" fill-rule="evenodd" stroke="none"/>
    <path d="M45.95 79.7 Q46.3 78.85 46.3 75.8 L46.35 71.95 50.85 81.65 Q51.75 82.9 52.45 84.95 53.4 86.6 56.5 87.8 60.05 89.2 66.05 90.75 64.35 93.3 61.7 92.7 56.95 91.0 54.95 90.65 L52.5 90.25 Q51.3 89.8 50.3 88.05 L47.3 83.45 Q45.6 80.6 45.95 79.7" fill="#3b5d8b" fill-rule="evenodd" stroke="none"/>
    <path d="M57.6 -6.85 L57.6 -6.8 57.6 -6.5 57.6 -6.85 M61.9 -7.05 L61.9 -7.15 61.9 -7.05 M101.9 -8.15 L-7.1 12.35 -16.6 -37.15 95.95 -46.05 101.9 -8.15" fill="#75a7c9" fill-rule="evenodd" stroke="none"/>
    <path d="M44.4 -38.15 Q44.4 -36.15 42.4 -36.15 40.4 -36.15 40.4 -38.15 40.4 -40.15 42.4 -40.15 44.4 -40.15 44.4 -38.15" fill="#003d62" fill-rule="evenodd" stroke="none"/>
    <path d="M47.9 -0.8 Q46.0 -0.8 46.0 -2.65 46.0 -4.55 47.9 -4.55 49.75 -4.55 49.75 -2.65 49.75 -0.8 47.9 -0.8" fill="#003d62" fill-rule="evenodd" stroke="none"/>
    <path d="M17.85 -24.95 Q21.9 -23.6 22.3 -20.4 22.55 -18.05 21.05 -16.25 19.55 -14.45 16.9 -14.15 14.3 -13.85 11.75 -14.95 L12.75 -17.7 Q14.75 -16.65 16.15 -16.85 19.1 -17.15 18.75 -19.85 18.55 -21.35 14.6 -22.55 10.65 -23.8 10.2 -27.25 9.95 -29.55 11.45 -31.25 12.95 -32.95 15.7 -33.3 18.1 -33.65 21.0 -32.4 L19.9 -29.8 Q17.6 -30.75 16.3 -30.6 13.3 -30.2 13.6 -27.75 13.8 -26.25 17.85 -24.95" fill="#ffffff" fill-rule="evenodd" stroke="none"/>
    <path d="M30.25 -34.45 L30.7 -29.7 33.7 -30.1 33.95 -27.65 31.0 -27.3 31.8 -19.85 Q31.95 -18.45 33.05 -18.6 33.6 -18.65 34.45 -19.4 L35.65 -17.55 34.65 -16.85 Q33.75 -16.2 32.7 -16.05 29.05 -15.65 28.55 -19.6 L27.8 -26.9 26.0 -26.7 25.7 -29.1 27.5 -29.3 27.0 -34.05 30.25 -34.45" fill="#ffffff" fill-rule="evenodd" stroke="none"/>
    <path d="M38.25 -28.3 Q41.15 -31.35 43.75 -31.7 47.55 -32.15 48.05 -28.35 L48.65 -21.7 Q48.85 -20.4 49.55 -20.5 L50.45 -21.0 51.4 -19.45 Q49.85 -18.15 48.75 -18.05 46.8 -17.8 46.25 -19.5 44.9 -17.55 43.05 -17.35 39.0 -16.85 38.6 -20.75 38.1 -24.5 45.1 -26.55 L45.0 -27.4 Q44.75 -29.15 43.25 -29.0 42.25 -28.9 40.0 -26.75 L38.25 -28.3 M41.65 -21.2 Q41.8 -19.7 43.5 -19.85 44.7 -20.05 45.65 -21.4 L45.35 -24.5 Q41.4 -23.05 41.65 -21.2" fill="#ffffff" fill-rule="evenodd" stroke="none"/>
    <path d="M61.4 -30.6 L60.65 -30.6 Q58.95 -30.4 58.1 -27.9 L59.05 -19.65 55.8 -19.25 54.3 -32.6 57.55 -33.0 57.8 -30.55 57.85 -30.5 Q58.65 -33.45 60.6 -33.75 L61.55 -33.75 61.4 -30.6" fill="#ffffff" fill-rule="evenodd" stroke="none"/>
    <path d="M59.9 -6.65 L58.1 -6.5 57.3 -11.5 59.05 -11.65 59.2 -10.7 59.25 -10.7 Q59.65 -11.8 60.75 -11.9 L61.25 -11.9 61.15 -10.75 60.75 -10.75 Q59.8 -10.7 59.35 -9.75 L59.9 -6.65" fill="#ffffff" fill-rule="evenodd" stroke="none"/>
    <path d="M69.0 -39.2 L69.5 -34.4 72.45 -34.85 72.75 -32.4 69.75 -32.05 70.6 -24.6 Q70.75 -23.15 71.85 -23.3 72.4 -23.4 73.25 -24.15 L74.4 -22.3 73.4 -21.6 Q72.5 -20.95 71.45 -20.8 67.85 -20.4 67.35 -24.35 L66.55 -31.65 64.75 -31.4 64.45 -33.85 66.25 -34.0 65.8 -38.8 69.0 -39.2" fill="#ffffff" fill-rule="evenodd" stroke="none"/>
    <path d="M21.8 -10.05 L22.7 -2.3 21.45 -2.15 20.55 -9.9 21.8 -10.05" fill="#ffffff" fill-rule="evenodd" stroke="none"/>
    <path d="M25.9 -9.25 L24.65 -9.1 24.55 -10.35 25.8 -10.5 25.9 -9.25 M26.0 -8.0 L26.6 -2.8 25.35 -2.65 24.75 -7.85 26.0 -8.0 M46.6 -8.8 L46.0 -14.0 47.25 -14.15 47.85 -8.95 46.6 -8.8" fill="#ffffff" fill-rule="evenodd" stroke="none"/>
    <path d="M17.65 -7.45 Q17.0 -8.15 16.55 -8.05 15.4 -7.85 15.6 -5.4 15.75 -2.9 16.9 -3.15 17.45 -3.25 17.9 -4.2 L18.65 -3.4 Q18.0 -1.8 16.85 -1.6 14.65 -1.15 14.3 -5.05 13.9 -9.05 16.35 -9.55 17.35 -9.7 18.3 -8.6 L17.65 -7.45 M31.9 -7.25 L30.8 -7.65 Q29.65 -7.5 29.85 -5.85 30.0 -4.1 31.15 -4.3 31.7 -4.35 32.15 -5.0 L32.9 -4.45 Q32.25 -3.35 31.1 -3.2 28.9 -2.9 28.55 -5.6 28.15 -8.35 30.6 -8.7 31.6 -8.8 32.55 -8.05 L31.9 -7.25" fill="#ffffff" fill-rule="evenodd" stroke="none"/>
    <path d="M38.55 -9.05 L36.95 -6.8 39.05 -4.7 38.1 -3.9 35.7 -6.5 36.0 -3.95 34.75 -3.8 33.85 -11.5 35.1 -11.7 35.65 -6.7 37.55 -9.7 38.55 -9.05" fill="#ffffff" fill-rule="evenodd" stroke="none"/>
    <path d="M56.5 -7.1 Q55.65 -6.0 54.5 -5.85 52.25 -5.6 51.9 -8.3 51.6 -11.05 53.95 -11.35 56.05 -11.55 56.45 -8.7 L53.15 -8.3 Q53.4 -6.7 54.55 -6.85 L55.7 -7.7 56.5 -7.1 M53.15 -9.2 L55.15 -9.45 Q54.95 -10.6 54.05 -10.45 53.05 -10.35 53.15 -9.2 M65.9 -11.1 Q65.65 -12.05 64.85 -11.9 64.05 -11.8 63.95 -11.1 L63.95 -10.65 65.95 -10.9 65.9 -11.1 M67.3 -8.55 Q66.45 -7.45 65.3 -7.3 63.05 -7.05 62.7 -9.75 62.6 -10.5 62.75 -11.1 63.05 -12.6 64.75 -12.8 66.45 -12.95 67.05 -11.1 L67.25 -10.15 63.95 -9.75 Q64.2 -8.15 65.35 -8.3 L66.5 -9.15 67.3 -8.55" fill="#ffffff" fill-rule="evenodd" stroke="none"/>
    <path d="M47.85 -10.0 Q48.4 -10.85 49.45 -11.0 50.8 -11.2 51.0 -9.6 L51.4 -5.85 50.15 -5.7 49.8 -9.0 Q49.65 -9.85 49.0 -9.8 48.5 -9.75 47.95 -9.0 L48.35 -5.45 47.1 -5.3 46.5 -10.5 47.75 -10.65 47.8 -10.0 47.85 -10.0" fill="#ffffff" fill-rule="evenodd" stroke="none"/>
    <path d="M70.7 -8.2 L69.45 -8.0 69.25 -9.3 70.55 -9.45 70.7 -8.2 M70.3 -10.5 L69.05 -10.35 68.45 -15.45 69.7 -15.6 70.3 -10.5" fill="#ffffff" fill-rule="evenodd" stroke="none"/>
  </g>
</svg>
