<?xml version="1.0" encoding="UTF-8" standalone="no"?>
<svg xmlns:xlink="http://www.w3.org/1999/xlink" height="345.0px" width="749.95px" xmlns="http://www.w3.org/2000/svg">
  <g transform="matrix(1.0, 0.0, 0.0, 1.0, 0.0, 0.0)">
    <path d="M749.95 30.0 L749.95 315.0 Q749.95 327.4 741.15 336.2 732.35 345.0 719.95 345.0 L30.0 345.0 Q17.55 345.0 8.8 336.2 0.0 327.4 0.0 315.0 L0.0 30.0 Q0.0 17.6 8.8 8.8 17.55 0.0 30.0 0.0 L719.95 0.0 Q732.35 0.0 741.15 8.8 749.95 17.6 749.95 30.0" fill="#003e57" fill-rule="evenodd" stroke="none"/>
    <path d="M197.0 7.5 L710.95 7.5 Q723.05 7.5 731.6 15.85 740.15 24.25 740.15 36.05 L740.15 293.7 197.0 293.7 197.0 7.5" fill="#005370" fill-rule="evenodd" stroke="none"/>
    <path d="M9.75 293.7 L9.75 36.05 Q9.75 24.25 18.3 15.85 26.9 7.5 39.0 7.5 L197.0 7.5 197.0 293.7 9.75 293.7" fill="#00384a" fill-rule="evenodd" stroke="none"/>
    <path d="M740.15 293.7 L740.15 307.4 Q740.15 319.25 731.6 327.65 723.05 336.0 710.95 336.0 L39.0 336.0 Q26.9 336.0 18.3 327.65 9.75 319.25 9.75 307.4 L9.75 293.7 197.0 293.7 740.15 293.7" fill="#002835" fill-rule="evenodd" stroke="none"/>
    <path d="M741.15 8.8 Q749.95 17.6 749.95 30.0 L749.95 315.0 Q749.95 327.4 741.15 336.2 732.35 345.0 719.95 345.0 L30.0 345.0 Q17.55 345.0 8.8 336.2 0.0 327.4 0.0 315.0 L0.0 30.0 Q0.0 17.6 8.8 8.8 17.55 0.0 30.0 0.0 L719.95 0.0 Q732.35 0.0 741.15 8.8 M740.15 36.05 Q740.15 24.25 731.6 15.85 723.05 7.5 710.95 7.5 L39.0 7.5 Q26.9 7.5 18.3 15.85 9.75 24.25 9.75 36.05 L9.75 307.4 Q9.75 319.25 18.3 327.65 26.9 336.0 39.0 336.0 L710.95 336.0 Q723.05 336.0 731.6 327.65 740.15 319.25 740.15 307.4 L740.15 36.05" fill="#003e57" fill-rule="evenodd" stroke="none"/>
    <path d="M719.95 0.0 Q727.9 0.0 734.85 3.95 729.2 1.6 723.15 1.6 L33.2 1.6 Q20.75 1.6 12.0 10.4 3.2 19.2 3.2 31.6 L3.2 316.6 Q3.2 324.8 7.35 331.85 11.4 338.7 18.3 342.6 10.1 339.15 5.1 331.75 0.0 324.15 0.0 315.0 L0.0 30.0 Q0.0 17.6 8.8 8.8 17.55 0.0 30.0 0.0 L719.95 0.0 M738.45 21.8 Q743.35 29.0 743.35 37.65 L743.35 309.0 Q743.35 320.85 734.8 329.25 726.25 337.6 714.15 337.6 L42.2 337.6 Q34.15 337.6 27.35 333.6 32.85 336.0 39.0 336.0 L710.95 336.0 Q723.05 336.0 731.6 327.65 740.15 319.25 740.15 307.4 L740.15 36.05 Q740.15 28.35 736.2 21.7 732.35 15.25 725.8 11.45 733.65 14.8 738.45 21.8" fill="#5b9cbd" fill-rule="evenodd" stroke="none"/>
    <path d="M707.95 4.5 Q721.45 4.5 730.3 14.65 722.05 7.5 710.95 7.5 L39.0 7.5 Q26.9 7.5 18.3 15.85 9.75 24.25 9.75 36.05 L9.75 307.4 Q9.75 317.85 16.65 325.8 6.75 317.3 6.75 304.4 L6.75 33.05 Q6.75 21.25 15.3 12.85 23.9 4.5 36.0 4.5 L707.95 4.5 M739.6 7.35 Q749.95 16.3 749.95 30.0 L749.95 315.0 Q749.95 327.4 741.15 336.2 732.35 345.0 719.95 345.0 L30.0 345.0 Q16.4 345.0 7.35 334.65 15.85 342.0 27.0 342.0 L716.95 342.0 Q729.35 342.0 738.15 333.2 746.95 324.4 746.95 312.0 L746.95 27.0 Q746.95 15.85 739.6 7.35" fill="#020c1d" fill-rule="evenodd" stroke="none"/>
    <path d="M29.1 168.7 L173.05 168.7" fill="none" stroke="#031f32" stroke-linecap="round" stroke-linejoin="round" stroke-width="4.25"/>
  </g>
</svg>
